<svg height="75" viewBox="0 0 75 75" width="75" xmlns="http://www.w3.org/2000/svg"><g fill="#ff5254"><path d="m40.9766082 28.8274854c7.1571637 0 14.1125731-5.4979532 14.1125731-14.7149123 0-7.78216374-6.3318714-14.1125731-14.1125731-14.1125731h-26.8567252c-7.20614031 0-14.11257306 5.54064327-14.11257306 14.7149123 0 7.0365497 5.1754386 12.8859649 11.91959066 13.9429824v9.378655c0 2.0038012 2.4899123 2.9644737 3.8304093 1.4576023l9.502924-10.6666666zm-.0584795-17.130117c1.5014619 0 2.7178362 1.2163743 2.7178362 2.7163743s-1.2163743 2.7163743-2.7178362 2.7163743c-1.5 0-2.7163743-1.2163743-2.7163743-2.7163743s1.2163743-2.7163743 2.7163743-2.7163743zm-26.7412281 5.4327486c-1.5 0-2.7163743-1.2163743-2.7163743-2.7163743s1.2163743-2.7163743 2.7163743-2.7163743c1.501462 0 2.7178362 1.2163743 2.7178362 2.7163743s-1.2163742 2.7163743-2.7178362 2.7163743zm13.371345-5.4327486c1.5 0 2.7163743 1.2163743 2.7163743 2.7163743s-1.2163743 2.7163743-2.7163743 2.7163743-2.7163743-1.2163743-2.7163743-2.7163743 1.2163743-2.7163743 2.7163743-2.7163743z"/><path d="m60.7339181 34.624269h-26.8567251c-7.7807018 0-14.1125731 6.3318714-14.1125731 14.1140351 0 9.0896199 6.8391813 14.7149123 14.1125731 14.7149123h15.7163743l9.5029239 10.6666666c1.3289474 1.4940059 3.8304094.5574562 3.8304094-1.4590643v-9.378655c6.744152-1.0570175 11.9195906-6.9064327 11.9195906-13.9429824 0-9.0701755-6.8209064-14.7149123-14.1125731-14.7149123zm-26.7982456 17.1314328c-1.501462 0-2.7178362-1.2163743-2.7178362-2.7178363 0-1.5 1.2163742-2.7163743 2.7178362-2.7163743 1.5 0 2.7163743 1.2163743 2.7163743 2.7163743 0 1.501462-1.2163743 2.7178363-2.7163743 2.7178363zm13.3698831 0c-1.5 0-2.7163743-1.2163743-2.7163743-2.7178363 0-1.5 1.2163743-2.7163743 2.7163743-2.7163743s2.7163742 1.2163743 2.7163742 2.7163743c0 1.501462-1.2163742 2.7178363-2.7163742 2.7178363zm13.371345 0c-1.501462 0-2.7178363-1.2163743-2.7178363-2.7178363 0-1.5 1.2163743-2.7163743 2.7178363-2.7163743 1.5 0 2.7163743 1.2163743 2.7163743 2.7163743 0 1.501462-1.2163743 2.7178363-2.7163743 2.7178363z"/></g></svg>