<svg height="75" viewBox="0 0 75 75" width="75" xmlns="http://www.w3.org/2000/svg"><g fill="none"><path d="m72.65625 9.375c1.29375 0 2.34375-1.05 2.34375-2.34375v-4.6875c0-1.29375-1.05-2.34375-2.34375-2.34375h-70.3125c-1.29375 0-2.34375 1.05-2.34375 2.34375v4.6875c0 1.29375 1.05 2.34375 2.34375 2.34375h2.34375v37.5h-2.34375c-1.2890625 0-2.34375 1.0546875-2.34375 2.34375s1.0546875 2.34375 2.34375 2.34375h32.8125v9.80625c-2.7234375.9703125-4.6875 3.5484375-4.6875 6.6 0 3.8765625 3.1546875 7.03125 7.03125 7.03125s7.03125-3.1546875 7.03125-7.03125c0-3.0515625-1.9640625-5.6296875-4.6875-6.6v-9.80625h32.8125c1.2890625 0 2.34375-1.0546875 2.34375-2.34375s-1.0546875-2.34375-2.34375-2.34375h-2.34375v-37.5zm-49.21875 32.8125h-9.375v-9.375h9.375zm14.0625 28.125c-1.29375 0-2.34375-1.0546875-2.34375-2.34375s1.05-2.34375 2.34375-2.34375 2.34375 1.0546875 2.34375 2.34375-1.05 2.34375-2.34375 2.34375z" fill="#ff5254"/><g fill="#fff"><path d="m27 18.0001831c0 2.2090181-1.7907988 3.9998169-3.9998169 3.9998169-2.2093843 0-4.0001831-1.7907988-4.0001831-3.9998169 0-2.2093843 1.7907988-4.0001831 4.0001831-4.0001831 2.2090181 0 3.9998169 1.7907988 3.9998169 4.0001831z"/><path d="m55.875 8h-36.75c-3.3768997 0-6.125 2.7667949-6.125 6.1666667v24.6666666c0 .1151733.0284119.2239482.0347671.3391215-.0287857.2465312-.0164489.4953206.0732727.7298076.5043107 2.8902486 3.0034333 5.0977376 6.0169602 5.0977376h36.75c3.3768997 0 6.125-2.7667949 6.125-6.1666667v-24.6666666c0-3.3998718-2.7481003-6.1666667-6.125-6.1666667zm-36.75 4.1112366h36.75c1.1248855 0 2.041542.9228922 2.041542 2.0554301v16.3192342l-10.7389373-10.8123678c-1.3966675-1.4061686-3.6688691-1.4061686-5.0632935 0l-9.7183532 9.7844646-2.5727692-2.5898947c-1.3962937-1.4061686-3.668869-1.4061686-5.0632935 0l-7.6764373 7.7286581v-20.4300944c0-1.1325379.9166565-2.0554301 2.041542-2.0554301z"/></g></g></svg>