<svg height="66" viewBox="0 0 88 66" width="88" xmlns="http://www.w3.org/2000/svg"><g fill="#ff5254"><path d="m86.1666094 0h-73.3332188c-1.0125156 0-1.8333906.82070313-1.8333906 1.83339063v54.99999997c0 1.0114844-.823625 1.8333906-1.83339062 1.8333906-1.00976563 0-1.83339063-.8217343-1.83339063-1.8333906v-44c.00017187-1.0126875-.82070313-1.8333906-1.83321875-1.8333906h-3.66660937c-1.01251563 0-1.83339063.8207031-1.83339063 1.8333906v45.8333906c0 4.0498907 3.28332813 7.3332188 7.33339062 7.3332188h73.33339058c4.0498907 0 7.3332188-3.2833281 7.3332188-7.3333906v-56.83321877c0-1.0126875-.820875-1.83339063-1.8333906-1.83339063zm-27.5 53.1666094c0 1.013375-.8200156 1.8333906-1.8333906 1.8333906h-36.6666094c-1.013375 0-1.8333906-.8200156-1.8333906-1.8333906v-29.3332188c0-1.013375.8200156-1.8333906 1.8333906-1.8333906h36.6666094c1.013375 0 1.8333906.8200156 1.8333906 1.8333906zm20.1667812-1.8332188h-14.6666093c-1.013375 0-1.8333907-.8200156-1.8333907-1.8333906s.8200157-1.8333906 1.8333907-1.8333906h14.6666093c1.013375 0 1.8333906.8200156 1.8333906 1.8333906s-.8200156 1.8333906-1.8333906 1.8333906zm0-11h-14.6666093c-1.013375 0-1.8333907-.8200156-1.8333907-1.8333906s.8200157-1.8333906 1.8333907-1.8333906h14.6666093c1.013375 0 1.8333906.8200156 1.8333906 1.8333906s-.8200156 1.8333906-1.8333906 1.8333906zm0-11h-14.6666093c-1.013375 0-1.8333907-.8200156-1.8333907-1.8333906s.8200157-1.8333906 1.8333907-1.8333906h14.6666093c1.013375 0 1.8333906.8200156 1.8333906 1.8333906s-.8200156 1.8333906-1.8333906 1.8333906zm0-14.6667812h-58.6667812c-1.013375 0-1.8333906-.8200156-1.8333906-1.8333906s.8200156-1.8333907 1.8333906-1.8333907h58.6666094c1.013375 0 1.8333906.8200156 1.8333906 1.8333907 0 1.0135468-.8198438 1.8333906-1.8332188 1.8333906z"/><path d="m31.4999141 30c-3.0328589 0-5.4999141 2.4222299-5.4999141 5.3999831v10.7999663c0 .9949469.8200028 1.8000506 1.833362 1.8000506 1.0133591 0 1.833362-.8051037 1.833362-1.8000506v-1.8000506h3.666552v1.8000506c0 .9949469.8200029 1.8000506 1.833362 1.8000506 1.0133592 0 1.833362-.8051037 1.833362-1.8000506v-10.7999663c-.0001719-2.9777532-2.4672271-5.3999831-5.5000859-5.3999831zm1.8333619 10.7999663h-3.666552v-5.3999832c0-.9930906.8217215-1.8000506 1.8333619-1.8000506 1.0114686 0 1.833362.8067912 1.833362 1.8000506v5.3999832z"/><path d="m45.5 30h-3.6666094c-1.013375 0-1.8333906.8051037-1.8333906 1.8000506v14.3998988c0 .9949469.8200156 1.8000506 1.8333906 1.8000506h3.6666094c3.0329063 0 5.5-2.4222299 5.5-5.3999831v-7.2000338c0-2.9777532-2.4670937-5.3999831-5.5-5.3999831zm1.8332188 12.5998481c0 .9930907-.8217344 1.8000507-1.8333907 1.8000507h-1.8332187v-10.7999663h1.8333906c1.0114844 0 1.8333906.8067912 1.8333906 1.8000506v7.199865z"/></g></svg>