<svg height="75" viewBox="0 0 75 75" width="75" xmlns="http://www.w3.org/2000/svg"><g fill="#ff5254"><path d="m0 0h75v7h-75z"/><path d="m0 68.8888889h31.25v2.4444444c0 2.0219223 1.682125 3.6666667 3.75 3.6666667h5c2.067875 0 3.75-1.6447444 3.75-3.6666667v-2.4444444h31.25v-4.8888889h-75zm41.25 0v2.4444444c0 .6743734-.5609125 1.2222223-1.25 1.2222223h-5c-.6890875 0-1.25-.5478489-1.25-1.2222223v-2.4444444z"/><path d="m4 10v51h68v-51zm18.8888889 8.7073171v7.4634146l5.3426341-5.27748c1.3672407 1.3506542 2.2129214 3.2165078 2.2129214 5.27748 0 4.1219444-3.3827229 7.4634146-7.5555555 7.4634146s-7.5555556-3.3414702-7.5555556-7.4634146 3.382723-7.4634146 7.5555556-7.4634146zm-11.3333333 38.5609756h-2.51851856v-2.4878049h2.51851856zm-2.51851856-31.097561h2.51851856c0 6.173351 5.0843851 11.195122 11.3333333 11.195122 6.2489481 0 11.3333333-5.021771 11.3333333-11.195122s-5.0843852-11.1951219-11.3333333-11.1951219v-2.4878049c7.6379489 0 13.8518518 6.1381236 13.8518518 13.6829268s-6.2139029 13.6829268-13.8518518 13.6829268-13.85185186-6.1381236-13.85185186-13.6829268zm7.55555556 31.097561h-2.5185185v-2.4878049h2.5185185zm46.5925926-8.7073171c-.2823008 0-.5490874-.0562617-.8024126-.1409093l-6.8023422 5.87877c.0310659.1560227.0491992.3166727.0491992.4816515 0 1.3739524-1.1276037 2.4878049-2.5185185 2.4878049s-2.5185185-1.1138525-2.5185185-2.4878049c0-.0990768.0181333-.1932154.029517-.2892571l-6.5958992-4.8865587c-.3038215.1283831-.6378526.200206-.9891734.200206-.28254 0-.5495407-.0563363-.8031051-.1411331l-6.8015741 5.8793049c.0309903.1559356.0491237.3164363.0491237.4813404 0 1.3739525-1.1276037 2.4878049-2.5185185 2.4878049-.9298371 0-1.7329423-.5034322-2.1692-1.2439024h-11.6826519v-2.4878049h11.6826519c.4362577-.7404702 1.2393503-1.2439024 2.1692-1.2439024.2823763 0 .5492385.0563363.8026392.1409839l6.802103-5.87877c-.0310533-.1560227-.0491867-.3167473-.0491867-.4817261 0-1.3740271 1.1276037-2.4878049 2.5185185-2.4878049 1.3909149 0 2.5185186 1.1137778 2.5185186 2.4878049 0 .0990768-.0181334.1932153-.0295171.289257l6.5958993 4.8865588c.3038215-.1283831.6378526-.2002061.9891733-.2002061.28254 0 .5495408.056411.8031052.1411332l6.8015741-5.8796159c-.0309904-.1558609-.0491237-.3162746-.0491237-.4810295 0-1.374027 1.1276037-2.4878048 2.5185185-2.4878048s2.5185185 1.1137778 2.5185185 2.4878048c0 1.3739525-1.1276037 2.4878049-2.5185185 2.4878049zm2.5185185-11.1951219h-27.7037037v-2.4878049h3.7777778v-6.2195122h5.037037v-7.4634146h5.0370371v3.7317073h5.037037v-9.9512195h5.037037v19.902439h3.7777778z"/></g></svg>