<svg height="75" viewBox="0 0 88 75" width="88" xmlns="http://www.w3.org/2000/svg"><g fill="#ff5254"><path d="m30.1507233 71.25c-9.050461 0-16.4155882-7.33256-16.4155882-16.3430015 0-1.7432535.2590015-3.4029761.7733566-4.9283229.638384-1.9030518 2.7067481-2.9235814 4.6146043-2.291652 1.911504.6355611 2.9438621 2.6947793 2.3018302 4.5941993-.2590015.7844641-.3939741 1.6669861-.3939741 2.6257756 0 5.0045902 4.0929533 9.0794453 9.1197712 9.0794453 4.1805031 0 7.9050177-2.930845 8.8498259-6.9621187.4559886-1.9538966 2.4295071-3.1741741 4.3811381-2.7093065 1.9625748.4539723 3.1809762 2.4115007 2.7213398 4.3617656-1.7364045 7.4015638-8.2953439 12.5732158-15.9523038 12.5732158z"/><path d="m84.6739865 71.25c-.2549324 0-.5098649-.0361852-.7575135-.104937l-81.94256759-23.5203726c-1.1690473-.3365223-1.97390541-1.4003668-1.97390541-2.6089521v-16.2833348c0-1.2085853.80485811-2.2724299 1.97390541-2.6089521l81.94256759-23.52037258c.8267094-.22796669 1.7153311-.0759889 2.4000067.43784078.6846757.51382968 1.0889257 1.31714086 1.0889257 2.17111131v63.32407999c0 .8539704-.40425 1.6572816-1.0889257 2.1711113-.4807297.3546148-1.0561486.5427778-1.6424932.5427778z"/><path d="m83.6594595 75c-2.0677622 0-3.745946-1.6390244-3.745946-3.6585366v-67.68292681c0-2.0195122 1.6781838-3.65853659 3.745946-3.65853659 2.0677621 0 3.7459459 1.63902439 3.7459459 3.65853659v67.68292681c0 2.0195122-1.6781838 3.6585366-3.7459459 3.6585366z"/><path d="m3.74594595 53.75c-2.06776217 0-3.74594595-1.6470588-3.74594595-3.6764706v-23.8970588c0-2.0294118 1.67818378-3.6764706 3.74594595-3.6764706 2.06776216 0 3.74594594 1.6470588 3.74594594 3.6764706v23.8970588c0 2.0294118-1.67818378 3.6764706-3.74594594 3.6764706z"/></g></svg>