<svg height="80" viewBox="0 0 80 80" width="80" xmlns="http://www.w3.org/2000/svg"><g fill="#ff5254"><path d="m20 22c-1.104 0-2 .7466667-2 1.6666667v3.3333333h4v-3.3333333c0-.92-.896-1.6666667-2-1.6666667z"/><path d="m38 22v10c2.7566667 0 5-2.2433333 5-5s-2.2433333-5-5-5z"/><path d="m52.4970835 0h-44.99750014c-4.13310372 0-7.49958336 3.38311765-7.49958336 7.54411765v41.91176475c0 4.161 3.36647964 7.5441176 7.49958336 7.5441176h22.94539194l-.5966335-.6001765c-3.7831232-3.8055882-3.7897895-9.9917647-.0133326-13.7973529 1.8298983-1.8407647 4.2597633-2.8567059 6.8496194-2.8567059 2.5931893 0 5.0363869 1.0159412 6.8729515 2.8634118l3.4298095 3.4501764c1.1099383-.627 2.3298706-1.022647 3.6064663-1.1735294.2166546-.2749411.4533081-.5364706.7066274-.7912941 1.5599133-1.5691765 3.5564691-2.5381765 5.7196822-2.789647.2199878-.2749412.4599745-.5398236.7099606-.7912942.6732959-.680647 1.4532526-1.2037058 2.2698739-1.649647v-31.31982355c-.0033331-4.161-3.3698128-7.54411765-7.5029165-7.54411765zm-25.8318982 34.3676471c0 1.3881176-1.1199378 2.5147058-2.4998612 2.5147058-1.3799233 0-2.4998611-1.1265882-2.4998611-2.5147058v-2.5147059h-3.3331481v2.5147059c0 1.3881176-1.1199378 2.5147058-2.4998611 2.5147058-1.3799234 0-2.4998612-1.1265882-2.4998612-2.5147058v-10.8970589c0-3.6982941 2.9898339-6.7058823 6.6662964-6.7058823 3.6764624 0 6.6662963 3.0075882 6.6662963 6.7058823zm11.6660185 2.5147058h-2.4998611c-1.3799233 0-2.4998611-1.1265882-2.4998611-2.5147058v-15.0882353c0-1.3881177 1.1199378-2.5147059 2.4998611-2.5147059h2.4998611c5.5130271 0 9.9994445 4.5130588 9.9994445 10.0588235s-4.4864174 10.0588235-9.9994445 10.0588235z"/><path d="m62.5721996 44.8849287c-1.1749247 1.1871357-1.1683054 3.1133052.0132386 4.3071289l1.0690161 1.0801263c.1952691.1972986.1985788.5216709.0033096.7189695s-.5129953.1972986-.7115741-.003344l-2.4921643-2.5180653c-1.1815441-1.1938238-3.0879008-1.1971678-4.2628256-.0133762-1.1749247 1.1871357-1.1683054 3.1133052.0132386 4.3071289l2.4921643 2.5180653c.1952692.1972986.1985788.5216709.0033097.7189695-.1952692.1972986-.5129953.1972986-.7115742-.003344l-3.9186222-3.9593484c-1.1815441-1.1938237-3.0879008-1.1971678-4.2628256-.0133761-1.1749247 1.1871356-1.1683054 3.1133051.0132386 4.3071289l3.9186223 3.9593483c.1952691.1972986.1985788.5216709.0033096.7189695s-.5129953.1972986-.7115741-.003344l-13.8905892-14.0349535c-1.181544-1.1938238-3.0879008-1.1971678-4.2628255-.0133762-1.1749248 1.1871357-1.1683055 3.1133052.0132386 4.3071289l16.7170278 16.8907672c-2.1909864-.3444365-5.8779334-.4915745-8.141732 1.7924077-2.1247935 2.1468764-2.0685295 3.631632-1.4099097 4.3004408 1.7971384 1.815816 3.1805709-1.0533739 11.368638 2.8992864 8.1880671 3.9560042 13.4504061 3.6282879 17.0479925.0535047l4.9578515-5.0093782c.0264771-.0267524-.0264772.0267523 0 0 5.0405926-5.0929793 6.4835988-12.0552793 1.3966711-17.1917312-.009929-.0100321-.0165483-.0167202-.0264772-.0267524l-9.9719669-10.0756051c-1.1749247-1.1938238-3.0812815-1.1971678-4.2562063-.0133762z"/></g></svg>