<svg height="75" viewBox="0 0 75 75" width="75" xmlns="http://www.w3.org/2000/svg"><g fill="#ff5254"><path d="m23.275859 27.1551724c-.0026903 5.0685134 1.7521514 9.9811561 4.9655203 13.9008621l15.7241379-15.7241379v-20.1206897c-11.6121861.69715793-20.6763891 10.3108782-20.6896582 21.9439655z"/><path d="m45.7887931 27.1551724-15.7887931 15.7887931c6.3348173 6.1423036 15.7311193 7.8957765 23.8548926 4.451635 8.1237734-3.4441414 13.3966318-11.416727 13.3865013-20.2404281z"/><path d="m20.6896552 27.1551724c.0224726-11.0656526 7.430612-20.75444073 18.1034482-23.67672412v-3.47844828h-28.4482758v9.05172414c0 .71416131-.57894215 1.29310346-1.29310346 1.29310346h-9.05172414v62.0689655h38.7931034v-21.5818965c-10.6728362-2.9222834-18.0809756-12.6110716-18.1034482-23.6767242zm-15.51724141-11.637931h12.93103451v2.5862069h-12.93103451zm0 7.7586207h12.93103451v2.5862069h-12.93103451zm0 7.7586207h12.93103451v2.5862069h-12.93103451zm0 7.7586206h12.93103451v2.5862069h-12.93103451zm14.22413791 31.0344828c-6.4274518 0-11.63793101-5.2104792-11.63793101-11.637931 0-6.4274519 5.21047921-11.6379311 11.63793101-11.6379311 6.4274519 0 11.6379311 5.2104792 11.6379311 11.6379311-.0099686 6.4233181-5.2146129 11.6279624-11.6379311 11.637931z"/><path d="m19.3965517 49.137931c-4.9991292 0-9.0517241 4.052595-9.0517241 9.0517242s4.0525949 9.0517241 9.0517241 9.0517241 9.0517242-4.0525949 9.0517242-9.0517241c-.0057009-4.996766-4.0549582-9.0460233-9.0517242-9.0517242zm0 7.7586207c1.8775925.0145672 3.4752272 1.3717404 3.7931879 3.2222719s-.7350378 3.66314-2.5000844 4.3035902v1.5258621h-2.5862069v-1.5258621c-1.5437738-.549867-2.5777661-2.0077962-2.5862069-3.6465517h2.5862069c0 .7141613.5789421 1.2931034 1.2931034 1.2931034s1.2931035-.5789421 1.2931035-1.2931034-.5789422-1.2931035-1.2931035-1.2931035c-1.8775925-.0145671-3.4752271-1.3717404-3.7931879-3.2222719-.3179607-1.8505315.7350379-3.66314 2.5000845-4.3035901v-1.5258621h2.5862069v1.5258621c1.5437737.5498669 2.577766 2.0077961 2.5862069 3.6465517h-2.5862069c0-.7141613-.5789422-1.2931035-1.2931035-1.2931035s-1.2931034.5789422-1.2931034 1.2931035.5789421 1.2931034 1.2931034 1.2931034z"/><path d="m7.75862069 1.82327586-5.93534483 5.93534483h5.93534483z"/><path d="m51.7241379.0375v19.3590517h20.537069c-1.2446432-10.57978127-9.9022822-18.7408134-20.537069-19.3590517z"/><path d="m46.5517241 56.8965517h5.1724138v2.5862069h-5.1724138z"/><path d="m54.3103448 56.8965517h20.6896552v2.5862069h-20.6896552z"/><path d="m46.5517241 64.6551724h5.1724138v2.5862069h-5.1724138z"/><path d="m54.3103448 64.6551724h20.6896552v2.5862069h-20.6896552z"/><path d="m46.5517241 72.4137931h5.1724138v2.5862069h-5.1724138z"/><path d="m54.3103448 72.4137931h20.6896552v2.5862069h-20.6896552z"/></g></svg>