<svg height="32" viewBox="0 0 32 32" width="32" xmlns="http://www.w3.org/2000/svg"><path d="m29.8646118 11.2517171c-.3604196-1.1513079-1.3442501-1.8952195-2.506357-1.8952195h-7.4941721l-2.3599512-7.46842115c-.362763-1.14807209-1.344543-1.88807645-2.5033105-1.88807645-.0036909 0-.007499 0-.0111899 0-1.163513.00482306-2.1448829.75398513-2.5000883 1.90865078l-2.2911716 7.44784682h-7.55656585c-1.16503624 0-2.14962836.7464148-2.50829033 1.9015078-.35872055 1.155093.01962623 2.3611029.96391136 3.072352l6.11406752 4.6053534-2.3533896 7.4477247c-.36422762 1.152651.0077919 2.3603703.94774168 3.0767478.47208398.3598371 1.01394359.5398167 1.55615471.5398167.53728992 0 1.07487277-.176866 1.54461332-.5307201l6.12467159-4.613229 6.051908 4.6054755c.9388952.7145459 2.1548425.7179648 3.0976044.0089746.9427619-.7089903 1.3225733-1.9126192.9677194-3.0664301l-2.297616-7.4683601 6.062102-4.613229c.9385437-.7141796 1.3120865-1.919518.9516084-3.0707647zm-1.9881075 1.5916107-7.0864738 5.3927947 2.684692 8.7270574c.1807371.5873758-.201242.9308511-.3225731 1.022123s-.5545142.3608139-1.0325739-.0030526l-7.0830758-5.3901695-7.15953026 5.3928558c-.48046174.3618518-.91253165.0891961-1.03356981-.0030526-.12097958-.0922487-.50137686-.4387766-.31589437-1.025664l2.75546361-8.7201585-7.15595651-5.3900474c-.48075467-.3621571-.36744983-.8754775-.32128426-1.0241377.04616557-.1486603.24289652-.633836.83607725-.633836h8.83883215l2.6826416-8.72028064c.1808542-.5878642.6835785-.63554536.8333823-.63621693h.0030464c.1534947 0 .6510635.04694855.8351399.62937917l2.7576313 8.7271184h8.7658343c.5917161 0 .7890915.4835273.8354914.6317602.0464.1482329.160525.6599659-.3173004 1.0235272z" fill="#427fe0" stroke="#427fe0" stroke-width=".5" transform="translate(1 1)"/></svg>