<svg height="102" viewBox="0 0 69 102" width="69" xmlns="http://www.w3.org/2000/svg"><g fill="#ff5254"><path d="m60.1265211.32894737h-50.70479663c-4.83894097 0-8.77589114 3.9367521-8.77589114 8.77589114v18.52666119c0 4.838941 3.93675211 8.7758912 8.77589114 8.7758912h18.29017083l4.9938283 4.9936302c.5710232.5714193 1.3197112.8568318 2.0683992.8568318s1.497376-.2854125 2.0683992-.8568318l4.9938283-4.9936302h18.2901708c4.838941 0 8.7758912-3.9367521 8.7758912-8.7758912v-18.52666119c0-4.83913904-3.9369502-8.77589114-8.7758912-8.77589114zm-35.7151911 18.97844883-1.4722217 1.4349854.3476051 2.0262112c.1881624 1.0972835-.262833 2.206649-1.1636354 2.8610578-.5096228.3701846-1.1131288.5587431-1.7196057.5587431-.4656522 0-.932889-.1109168-1.3611069-.3359193l-1.8196287-.9566569-1.8196288.9566569c-.9853764.5181396-2.1797121.4319811-3.0807125-.2226258-.9008024-.6544087-1.3519959-1.7635762-1.1636355-2.8610577l.3476051-2.0262112-1.4722217-1.4349854c-.79721405-.7772095-1.08421112-1.9396565-.74017115-2.9985153s1.25949925-1.8309185 2.36133825-1.9909555l2.034728-.295712.9097154-1.8435947c.4927872-.9984487 1.5098541-1.6306742 2.6231809-1.6306742s2.1303938.6322255 2.623181 1.6306742l.9097154 1.8435947 2.0345299.295712c1.101839.160037 2.0172983.9320967 2.3613382 1.9909555.3438419 1.0586607.0568449 2.2211078-.7403692 2.9983172zm17.5515842 0-1.4722217 1.4349854.3476051 2.0262112c.1881624 1.0972835-.262833 2.206649-1.1636354 2.8610578-.5096228.3701846-1.1131288.5587431-1.7196057.5587431-.4656522 0-.932889-.1109168-1.3611068-.3359193l-1.8196288-.9566569-1.8196288.9566569c-.9855745.5181396-2.1797121.4319811-3.0807125-.2226258-.9008024-.6544087-1.3519959-1.7635762-1.1636355-2.8610577l.3476051-2.0262112-1.4722216-1.4349854c-.7972141-.7772095-1.0842112-1.9396565-.7401712-2.9985153.3440399-1.0588588 1.2594992-1.8309185 2.3613382-1.9909555l2.03453-.295712.9097153-1.8435947c.4927872-.9984487 1.5098542-1.6306742 2.623181-1.6306742s2.1303937.6322255 2.6231809 1.6306742l.9097154 1.8435947 2.034728.295712c1.101839.160037 2.0172983.9320967 2.3613383 1.9909555.3438419 1.0586607.0568448 2.2211078-.7403693 2.9983172zm17.5515842 0-1.4722217 1.4349854.3476052 2.0262112c.1881623 1.0972835-.2628331 2.206649-1.1636355 2.8610578-.5096228.3701846-1.1131288.5587431-1.7196057.5587431-.4656522 0-.932889-.1109168-1.3611068-.3359193l-1.8196288-.9566569-1.8196288.9566569c-.9853764.5181396-2.1799101.4319811-3.0807125-.2226258-.9008024-.6544087-1.3519959-1.7635762-1.1636355-2.8610577l.3476052-2.0262112-1.4722217-1.4349854c-.7972141-.7772095-1.0842112-1.9396565-.7401712-2.9985153.3440399-1.0588588 1.2594992-1.8309185 2.3613382-1.9909555l2.03453-.295712.9097153-1.8435947c.4927873-.9984487 1.5098542-1.6306742 2.623181-1.6306742s2.1303937.6322255 2.6231809 1.6306742l.9097154 1.8435947 2.03453.295712c1.101839.160037 2.0172982.9320967 2.3613382 1.9909555.344238 1.0586607.0570429 2.2211078-.7401712 2.9983172z"/><path d="m34.7741228 46.158359c-8.0650336 0-14.6263532 6.5613195-14.6263532 14.6263532 0 8.0650336 6.5613196 14.6263532 14.6263532 14.6263532 8.0650337 0 14.6263532-6.5613196 14.6263532-14.6263532 0-8.0650337-6.5613195-14.6263532-14.6263532-14.6263532z"/><path d="m43.5500139 77.3612194h-17.5515842c-11.8286764 0-21.45209027 9.6234139-21.45209027 21.4520903 0 1.6156213 1.30980789 2.9252313 2.92523102 2.9252313h54.60510475c1.6156212 0 2.925231-1.309808 2.925231-2.9252313 0-11.8286764-9.6232158-21.4520903-21.4518923-21.4520903z"/></g></svg>