<svg height="75" viewBox="0 0 79 75" width="79" xmlns="http://www.w3.org/2000/svg"><g fill="#ff5254"><path d="m22.02125 20.5481557 11.5691797 7.2771517c-.2700195.8206967-.4166016 1.6967213-.4166016 2.6050205v14.369877h-25.12416013c-4.33728516 0-7.88302735-3.4887295-8.04349609-7.8396516z"/><ellipse cx="51.998047" cy="6.531762" rx="3.857422" ry="3.842213"/><path d="m55.8554688 21.3642418-6.8353516 5.1593238c-1.4118164-2.6557377-4.2169336-4.4692623-7.4371094-4.4692623-2.0490625 0-3.9314844.7346311-5.3926758 1.9533811l-14.3912695-9.053791-21.7990625 16.2510246v-22.98104505c0-4.49231557 3.61054688-8.14702869 8.04966797-8.14702869h38.47701173c-1.8423047 1.54918033-3.0149609 3.86834017-3.0149609 6.45491804 0 4.6613729 3.8065039 8.4528688 8.4863281 8.4528688 1.3871289 0 2.6986523-.3335041 3.8574219-.9252049z"/><path d="m55.8554687 42.0046107c-1.8176171-.8514345-3.7910742-1.4277664-5.8632812-1.6767418v-8.7510246l5.8632812-4.4262295z"/><path d="m62.3359375 59.4006148v15.5225409h-35.6425781v-18.1352459h4.1660156c1.2760352 0 2.3144531 1.0343238 2.3144531 2.3053279v4.1495902h4.6289063v-32.8125c0-2.076332 1.6957226-3.7653689 3.7802734-3.7653689s3.7802734 1.6890369 3.7802734 3.7653689v14.369877h2.3144532c8.0820703 0 14.6582031 6.5502049 14.6582031 14.6004099z"/><path d="m60.484375 44.8002049v.2489754c-.0941211-.0845287-.1882422-.1659836-.2839062-.2489754z"/><path d="m70.950332.07684426h-10.465957v44.72336064h10.465957c4.4391211 0 8.049668-3.6547131 8.049668-8.1470287v-28.42930325c0-4.49231557-3.6105469-8.14702869-8.049668-8.14702869zm1.2606055 24.59016394h-4.6289063v-4.6106557h4.6289063z"/></g></svg>