<svg height="30" viewBox="0 0 32 30" width="32" xmlns="http://www.w3.org/2000/svg"><path d="m31.5312983 5.72183465c-.181548-.26151039-.4736712-.4231532-.7909898-.43677799l-19.6726852-.85229846c-.5644451-.02482423-1.0361291.41316644-1.0602598.97784627-.02398875.56446583.4110734 1.04140486.9728216 1.06565841l18.3408132.7946606-3.6061894 11.30886212h-16.047972l-2.89930214-15.8668898c-.06373341-.34775318-.30127874-.6378685-.62888831-.76705435l-4.7485645-1.87501381c-.52335204-.20594122-1.11391514.05243048-1.31945182.57780529-.20518182.52566014.05181001 1.1195869.57487815 1.32617012l4.22223162 1.66714658 2.9504734 16.14537767c.08892868.4853564.50979626.837889 1.0009977.837889h.48942713l-1.11760571 3.1201485c-.0935419.2613677-.05500377.5516257.1041878.7786818.15897864.2271274.41753187.362234.69354435.362234h.78389249c-.48573655.5433509-.78389249 1.2587595-.78389249 2.045502 0 1.6918995 1.36970043 3.0682174 3.05267393 3.0682174 1.6829736 0 3.052674-1.3763179 3.052674-3.0682174 0-.7866712-.298156-1.5021511-.7838215-2.045502h6.6555985c-.4859494.5433509-.7840344 1.2587595-.7840344 2.045502 0 1.6918995 1.3693456 3.0682174 3.052674 3.0682174 1.6833993 0 3.0526739-1.3763179 3.0526739-3.0682174 0-.7866712-.298085-1.5021511-.7836796-2.045502h.9533042c.4684192 0 .8479807-.3815655.8479807-.8522272 0-.4708043-.3796325-.8522984-.8479807-.8522984h-16.2615286l.9156886-2.5568241h15.345769c.4425142 0 .8340701-.2873333.9688471-.7104865l4.2398328-13.29572755c.0973744-.30345477.0474097-.63522914-.1341382-.8968822zm-19.4897888 22.57392505c-.7482642 0-1.3567834-.6115462-1.3567834-1.3636204s.6085192-1.3636918 1.3567834-1.3636918 1.3567124.6116176 1.3567124 1.3636918-.6084482 1.3636204-1.3567124 1.3636204zm11.1930196 0c-.7482643 0-1.3567125-.6115462-1.3567125-1.3636204s.6084482-1.3636918 1.3567125-1.3636918c.7482642 0 1.3567124.6116176 1.3567124 1.3636918s-.6084482 1.3636204-1.3567124 1.3636204z" fill="#427fe0"/></svg>