<svg height="100" viewBox="0 0 100 100" width="100" xmlns="http://www.w3.org/2000/svg"><g fill="#ff5254"><path d="m23.056837 50c0-4.917246 1.3428686-9.5235659 3.6758363-13.467714v-16.7303058h-16.5832458c-6.58176625 8.6237411-10.1494275 19.1337801-10.1494275 30.1980198s3.56766125 21.5742787 10.1494275 30.1980198h16.5832458v-16.7303058c-2.3329677-3.9441481-3.6758363-8.550468-3.6758363-13.467714z"/><path d="m49.4617282 76.9279066-11.8379658 11.5360467 11.8379658 11.5360467c11.2616541 0 21.9588346-3.5700219 30.7362916-10.1561432v-16.5765301h-17.0103676c-4.0495708 2.3429711-8.7577271 3.6605799-13.725924 3.6605799z"/><path d="m26.7244426 63.3663366-16.8234525 16.951144c1.3219708 1.7299169 2.7614804 3.3865756 4.3191137 4.9562278 9.4249383 9.496278 21.9559817 14.7262916 35.2848467 14.7262916v-23.5683514c-9.6728809 0-18.1506863-5.2478862-22.7805079-13.065312z"/><path d="m100 50.1506054c0-3.0623217-.2781173-6.1303453-.8268564-9.1185421l-.4440014-2.4182019h-49.2241917v23.5941319h23.9559561c-2.3263228 4.6128494-5.9031869 8.3763101-10.2339264 10.9394193l17.0057859 16.9515973c1.7373453-1.3334617 3.4011177-2.7854839 4.97751-4.3566565 9.5372525-9.5070588 14.7897239-22.1470251 14.7897239-35.591748z"/><path d="m68.3480898 31.5685778 2.0866266 2.0947885 16.6939965-16.7590983-2.0866266-2.0947885c-9.5127824-9.54999205-22.1606198-14.8094795-35.6139117-14.8094795l-11.8044122 11.8505857 11.8044122 11.8505857c7.1467846 0 13.8660528 2.7939731 18.9199152 7.8674064z"/><path d="m49.5049505 23.5683514v-23.5683514c-13.3287994 0-25.8597812 5.23001357-35.284868 14.7262916-1.5576256 1.5694558-2.9971281 3.2261144-4.3190924 4.9562278l16.8233697 16.951144c4.6299938-7.8174258 13.1077574-13.065312 22.7805907-13.065312z"/></g></svg>