<svg height="90" viewBox="0 0 75 90" width="75" xmlns="http://www.w3.org/2000/svg"><g fill="#ff5254"><circle cx="37.5" cy="14.825581" r="14.825581"/><path d="m48.3940116 31.659593c-3.1390116 2.0384303-6.8804651 3.2241279-10.8940116 3.2241279s-7.755-1.1856976-10.8940116-3.2241279c-3.4700582 1.3261047-6.6873837 3.2825582-9.4848837 5.7934884l20.3788953 7.6421512 20.3788953-7.6421512c-2.7975-2.5109302-6.0148255-4.4675581-9.4848837-5.7934884z"/><path d="m68.8953488 54.0697674h-1.744186c-1.4448837 0-2.6162791 1.1713954-2.6162791 2.6162791v6.9767442c0 1.4448837 1.1713954 2.6162791 2.6162791 2.6162791h1.744186c3.3715117 0 6.1046512-2.7331396 6.1046512-6.1046512s-2.7331395-6.1046512-6.1046512-6.1046512z"/><path d="m8.1027907 40.862093c-.70534884.4888954-1.12604651 1.2922675-1.12604651 2.150407v5.8247093h.87209302c4.32784879 0 7.84883719 3.5209884 7.84883719 7.8488372v6.9767442c0 4.3278488-3.5209884 7.8488372-7.84883719 7.8488372h-.87209302v5.5125c0 1.0906395.67656976 2.0668605 1.69761628 2.4497093l26.20936043 9.8284884v-39.6l-24.3720349-9.1395349c-.80354647-.3015698-1.70372088-.1897674-2.4088953.2993023z"/><path d="m59.3023256 63.6627907v-6.9767442c0-4.3278488 3.5209884-7.8488372 7.8488372-7.8488372h.872093v-5.8247093c0-.8581395-.4206977-1.6615116-1.1260465-2.150407-.7053488-.4890697-1.6056977-.6008721-2.4088953-.2993023l-24.3720349 9.1395349v39.6l26.2093604-9.8284884c1.0210465-.3828488 1.6976163-1.3590698 1.6976163-2.4497093v-5.5125h-.872093c-4.3278488 0-7.8488372-3.5209884-7.8488372-7.8488372z"/><path d="m10.4651163 63.6627907v-6.9767442c0-1.4448837-1.17139537-2.6162791-2.61627909-2.6162791h-1.74418605c-3.37151163 0-6.10465116 2.7331396-6.10465116 6.1046512s2.73313953 6.1046512 6.10465116 6.1046512h1.74418605c1.44488372 0 2.61627909-1.1713954 2.61627909-2.6162791z"/></g></svg>