<?xml version="1.0" encoding="UTF-8"?>
<svg width="423px" height="430px" viewBox="0 0 423 430" version="1.1" xmlns="http://www.w3.org/2000/svg" xmlns:xlink="http://www.w3.org/1999/xlink">
    <!-- Generator: sketchtool 63.1 (101010) - https://sketch.com -->
    <title>21E49A33-79A6-46DE-9F9F-DEB777E40B3D</title>
    <desc>Created with sketchtool.</desc>
    <defs>
        <linearGradient x1="24.4169347%" y1="6.26148897%" x2="78.9464614%" y2="96.0190717%" id="linearGradient-1">
            <stop stop-color="#427FDF" offset="0%"></stop>
            <stop stop-color="#396BB1" offset="100%"></stop>
        </linearGradient>
        <path d="M362,230.001058 C362,329.963779 280.962611,411 180.998942,411 C81.0373889,411 0,329.963779 0,230.001058 C0,130.038336 81.0373889,49 180.998942,49 C280.962611,49 362,130.038336 362,230.001058" id="path-2"></path>
        <filter x="-4.4%" y="-3.9%" width="108.8%" height="108.8%" filterUnits="objectBoundingBox" id="filter-3">
            <feOffset dx="0" dy="2" in="SourceAlpha" result="shadowOffsetOuter1"></feOffset>
            <feGaussianBlur stdDeviation="5" in="shadowOffsetOuter1" result="shadowBlurOuter1"></feGaussianBlur>
            <feColorMatrix values="0 0 0 0 0   0 0 0 0 0   0 0 0 0 0  0 0 0 0.15 0" type="matrix" in="shadowBlurOuter1"></feColorMatrix>
        </filter>
        <filter x="-6.4%" y="-6.1%" width="112.8%" height="112.2%" filterUnits="objectBoundingBox" id="filter-4">
            <feOffset dx="0" dy="2" in="SourceAlpha" result="shadowOffsetOuter1"></feOffset>
            <feGaussianBlur stdDeviation="5" in="shadowOffsetOuter1" result="shadowBlurOuter1"></feGaussianBlur>
            <feColorMatrix values="0 0 0 0 0   0 0 0 0 0   0 0 0 0 0  0 0 0 0.15 0" type="matrix" in="shadowBlurOuter1" result="shadowMatrixOuter1"></feColorMatrix>
            <feMerge>
                <feMergeNode in="shadowMatrixOuter1"></feMergeNode>
                <feMergeNode in="SourceGraphic"></feMergeNode>
            </feMerge>
        </filter>
        <linearGradient x1="50%" y1="100%" x2="11.1989786%" y2="33.1092209%" id="linearGradient-5">
            <stop stop-color="#DA3E3F" offset="0%"></stop>
            <stop stop-color="#FF5254" offset="100%"></stop>
        </linearGradient>
        <polygon id="path-6" points="0.610109057 0.739290346 158.635018 0.739290346 158.635018 206.436021 0.610109057 206.436021"></polygon>
        <linearGradient x1="69.4456479%" y1="89.8592068%" x2="25.9907064%" y2="8.88314495%" id="linearGradient-8">
            <stop stop-color="#DA3E3F" offset="0%"></stop>
            <stop stop-color="#FF5254" offset="100%"></stop>
        </linearGradient>
    </defs>
    <g id="Website" stroke="none" stroke-width="1" fill="none" fill-rule="evenodd">
        <g id="Premium-Content" transform="translate(-844.000000, -3772.000000)">
            <g id="img_press" transform="translate(854.000000, 3779.000000)">
                <g id="Fill-1">
                    <use fill="black" fill-opacity="1" filter="url(#filter-3)" xlink:href="#path-2"></use>
                    <use fill="url(#linearGradient-1)" fill-rule="evenodd" xlink:href="#path-2"></use>
                </g>
                <g id="Group-3" filter="url(#filter-4)" transform="translate(47.000000, 0.000000)">
                    <path d="M222.951376,9.28559242 C222.490154,8.62947596 221.744616,8.24299065 220.95064,8.24299065 C220.150345,8.23877877 219.402702,8.62310589 218.939373,9.27497565 L97.7747808,178.975571 C97.1598176,179.8419 97.1556055,181.007621 97.7684627,181.871826 L147.435163,252.137865 C148.045914,253.004194 149.141054,253.377904 150.151952,253.072141 L348.795585,192.987586 C349.056734,192.909022 349.30314,192.790114 349.520062,192.630862 C349.934952,192.331469 350.250858,191.908922 350.421447,191.412057 C350.678383,190.649773 350.560445,189.813171 350.097117,189.159178 L222.951376,9.28559242 Z" id="Fill-3" fill="#FFFFFF"></path>
                    <path d="M108.347755,237.298637 C107.841394,236.852773 107.179552,236.640456 106.51771,236.702028 C105.849565,236.759354 105.238149,237.094813 104.820033,237.614989 L72.0620073,278.691841 C71.2341795,279.732192 71.3644468,281.246008 72.3603614,282.118628 L180.164962,377.380747 C181.022205,378.145086 182.282856,378.204535 183.211536,377.544231 L227.588565,345.579998 C228.202082,345.13838 228.586581,344.439859 228.620198,343.671274 C228.653815,342.911181 228.340754,342.17232 227.771359,341.673376 L108.347755,237.298637 Z" id="Fill-5" fill="#0E2054"></path>
                    <path d="M49.9165517,215.518621 C49.2378918,215.421658 48.5655745,215.630339 48.0708505,216.08986 L0.731678076,259.700041 C-0.13726033,260.498932 -0.247199009,261.869062 0.482201843,262.889281 L9.57117072,275.604087 C10.3639977,276.71073 11.8608551,277.012159 12.9158436,276.255425 L27.2987827,266.036364 L29.2945926,268.831429 L14.9095393,279.05049 C13.8545508,279.8009 13.6473587,281.303827 14.4401857,282.416794 L15.8186476,284.351839 C16.2013187,284.883028 16.7679258,285.249801 17.3958448,285.372059 C18.0216496,285.496425 18.6580254,285.36152 19.1654347,285.005286 L33.5526022,274.777793 L36.9036177,279.472069 L22.5185644,289.69113 C22.0111551,290.053687 21.6771106,290.614387 21.588314,291.246754 C21.5037458,291.872798 21.6644254,292.526245 22.0470966,293.059542 L23.4276727,294.986155 C24.2247281,296.10123 25.7194713,296.392119 26.7723456,295.64171 L41.1573989,285.426864 L43.1532088,288.213498 L28.7702697,298.438882 C27.7152812,299.187184 27.5059748,300.692219 28.2988019,301.803078 L37.3877707,314.519992 C38.1150574,315.533888 39.449121,315.88169 40.4935384,315.323099 L97.2937798,284.948373 C97.378348,284.906215 97.4565736,284.855625 97.532685,284.802928 C97.995696,284.467773 98.3212836,283.972419 98.4354507,283.394856 C98.5728741,282.720331 98.4121944,282.007863 98.0041528,281.432409 L51.6354007,216.568351 C51.2231307,215.990789 50.5973259,215.609261 49.9165517,215.518621" id="Fill-9" fill="#0E2054"></path>
                    <path d="M107.571295,237.296915 C107.066752,236.852315 106.407287,236.640601 105.745728,236.701998 C105.082075,236.759161 104.472855,237.093669 104.056241,237.612369 L87.9317897,257.843756 L181.833372,340.88221 C182.687537,341.635912 183.945755,341.705777 184.8711,341.03041 L207.519024,324.717848 L107.571295,237.296915 Z" id="Fill-7" fill="#1C4A94"></path>
                    <path d="M99.4711917,164.903871 C98.8456844,164.780829 98.2138589,164.918721 97.7083985,165.277243 L16.1881627,223.794731 C15.6869144,224.155374 15.354153,224.715431 15.2656974,225.345495 C15.1751358,225.986167 15.3415165,226.648053 15.7206118,227.180531 L78.3450521,315.690778 C78.7220414,316.223256 79.2885782,316.60087 79.9119794,316.71967 C80.5374867,316.846956 81.1735244,316.711185 81.6747727,316.346299 L163.192902,257.828811 C164.241733,257.073582 164.450235,255.563125 163.660453,254.443011 L101.042331,165.934886 C100.66113,165.398164 100.096699,165.031157 99.4711917,164.903871" id="Fill-11" fill="url(#linearGradient-5)"></path>
                    <g id="Group-15" transform="translate(198.139633, 0.000000)">
                        <mask id="mask-7" fill="white">
                            <use xlink:href="#path-6"></use>
                        </mask>
                        <g id="Clip-14"></g>
                        <path d="M20.0845277,0.738434338 C19.2936243,0.736324712 18.5447903,1.12185721 18.0799243,1.77006021 L1.07129541,25.5586865 C0.457083236,26.4229572 0.457083236,27.5837913 1.06708848,28.4501803 L126.28644,205.39477 C126.900652,206.261159 127.988144,206.633982 129.002015,206.333182 L156.881358,197.912898 C157.142188,197.830284 157.384086,197.70954 157.600743,197.554903 C158.013023,197.256222 158.334853,196.834678 158.50313,196.336875 C158.759753,195.57852 158.639856,194.743905 158.177093,194.095702 L22.0849242,1.77853345 C21.6263685,1.13033045 20.879638,0.738434338 20.0845277,0.738434338" id="Fill-13" fill="url(#linearGradient-8)" mask="url(#mask-7)"></path>
                    </g>
                </g>
            </g>
        </g>
    </g>
</svg>