<?xml version="1.0" encoding="UTF-8"?>
<svg width="352px" height="265px" viewBox="0 0 352 265" version="1.1" xmlns="http://www.w3.org/2000/svg" xmlns:xlink="http://www.w3.org/1999/xlink">
    <!-- Generator: sketchtool 63.1 (101010) - https://sketch.com -->
    <title>AC939B00-A6C6-4A70-8D48-B12A2AA74D7A</title>
    <desc>Created with sketchtool.</desc>
    <defs>
        <filter x="-21.2%" y="-18.7%" width="142.4%" height="137.4%" filterUnits="objectBoundingBox" id="filter-1">
            <feOffset dx="0" dy="2" in="SourceAlpha" result="shadowOffsetOuter1"></feOffset>
            <feGaussianBlur stdDeviation="10" in="shadowOffsetOuter1" result="shadowBlurOuter1"></feGaussianBlur>
            <feColorMatrix values="0 0 0 0 0   0 0 0 0 0   0 0 0 0 0  0 0 0 0.15 0" type="matrix" in="shadowBlurOuter1" result="shadowMatrixOuter1"></feColorMatrix>
            <feMerge>
                <feMergeNode in="shadowMatrixOuter1"></feMergeNode>
                <feMergeNode in="SourceGraphic"></feMergeNode>
            </feMerge>
        </filter>
        <polygon id="path-2" points="0 0.432599414 202.942948 0.432599414 202.942948 161.348604 0 161.348604"></polygon>
        <polygon id="path-4" points="22.7238806 168.134293 22.7238806 27.1427559 179.518657 27.1427559 179.518657 168.134293"></polygon>
        <filter x="-10.2%" y="-9.9%" width="120.4%" height="122.7%" filterUnits="objectBoundingBox" id="filter-5">
            <feOffset dx="0" dy="2" in="SourceAlpha" result="shadowOffsetOuter1"></feOffset>
            <feGaussianBlur stdDeviation="5" in="shadowOffsetOuter1" result="shadowBlurOuter1"></feGaussianBlur>
            <feColorMatrix values="0 0 0 0 0   0 0 0 0 0   0 0 0 0 0  0 0 0 0.15 0" type="matrix" in="shadowBlurOuter1"></feColorMatrix>
        </filter>
        <polygon id="path-6" points="0 229.205494 203 229.205494 203 0 0 0"></polygon>
        <linearGradient x1="39.9994126%" y1="37.984059%" x2="50%" y2="58.7188773%" id="linearGradient-8">
            <stop stop-color="#77B6F2" offset="0%"></stop>
            <stop stop-color="#427FE0" offset="100%"></stop>
        </linearGradient>
        <linearGradient x1="33.4758529%" y1="0%" x2="50%" y2="126.87066%" id="linearGradient-9">
            <stop stop-color="#427FDF" offset="0%"></stop>
            <stop stop-color="#396BB1" offset="100%"></stop>
        </linearGradient>
        <filter x="-21.2%" y="-18.7%" width="142.4%" height="137.4%" filterUnits="objectBoundingBox" id="filter-10">
            <feOffset dx="0" dy="2" in="SourceAlpha" result="shadowOffsetOuter1"></feOffset>
            <feGaussianBlur stdDeviation="10" in="shadowOffsetOuter1" result="shadowBlurOuter1"></feGaussianBlur>
            <feColorMatrix values="0 0 0 0 0   0 0 0 0 0   0 0 0 0 0  0 0 0 0.15 0" type="matrix" in="shadowBlurOuter1" result="shadowMatrixOuter1"></feColorMatrix>
            <feMerge>
                <feMergeNode in="shadowMatrixOuter1"></feMergeNode>
                <feMergeNode in="SourceGraphic"></feMergeNode>
            </feMerge>
        </filter>
        <polygon id="path-11" points="0 0.432599414 202.942948 0.432599414 202.942948 161.348604 0 161.348604"></polygon>
        <polygon id="path-13" points="22.7238806 168.134293 22.7238806 27.1427559 179.518657 27.1427559 179.518657 168.134293"></polygon>
        <filter x="-10.2%" y="-9.9%" width="120.4%" height="122.7%" filterUnits="objectBoundingBox" id="filter-14">
            <feOffset dx="0" dy="2" in="SourceAlpha" result="shadowOffsetOuter1"></feOffset>
            <feGaussianBlur stdDeviation="5" in="shadowOffsetOuter1" result="shadowBlurOuter1"></feGaussianBlur>
            <feColorMatrix values="0 0 0 0 0   0 0 0 0 0   0 0 0 0 0  0 0 0 0.15 0" type="matrix" in="shadowBlurOuter1"></feColorMatrix>
        </filter>
        <polygon id="path-15" points="0 229.205494 203 229.205494 203 0 0 0"></polygon>
        <linearGradient x1="42.8042763%" y1="38.6083354%" x2="60.0710761%" y2="58.9940009%" id="linearGradient-17">
            <stop stop-color="#77B6F2" offset="0%"></stop>
            <stop stop-color="#427FE0" offset="100%"></stop>
        </linearGradient>
        <linearGradient x1="50%" y1="26.2152778%" x2="66.5241471%" y2="110.251736%" id="linearGradient-18">
            <stop stop-color="#427FDF" offset="0%"></stop>
            <stop stop-color="#396BB1" offset="100%"></stop>
        </linearGradient>
        <linearGradient x1="33.4758529%" y1="0%" x2="56.3093565%" y2="100%" id="linearGradient-19">
            <stop stop-color="#427FDF" offset="0%"></stop>
            <stop stop-color="#396BB1" offset="100%"></stop>
        </linearGradient>
    </defs>
    <g id="Website" stroke="none" stroke-width="1" fill="none" fill-rule="evenodd">
        <g id="Hubspot---Mobile" transform="translate(-14.000000, -2609.000000)">
            <g id="img_email_marketing_hubspot_mob" transform="translate(34.000000, 2600.000000)">
                <g id="Group-26" filter="url(#filter-1)">
                    <g id="Group-4" transform="translate(0.000000, 67.856890)">
                        <mask id="mask-3" fill="white">
                            <use xlink:href="#path-2"></use>
                        </mask>
                        <g id="Clip-3"></g>
                        <path d="M181.053444,0.432599414 L202.942948,19.9081695 L202.942948,148.188245 C202.942948,155.462158 197.037373,161.348737 189.747948,161.348737 L13.1923464,161.348737 C5.90557516,161.348737 0,155.462158 0,148.188245 L0,19.9081695 L21.8895033,2.24975501" id="Fill-2" fill="#FF5254" mask="url(#mask-3)"></path>
                    </g>
                    <polyline id="Fill-5" fill="#FF5254" points="181.104343 68.6108551 203 88.1361071 103.718365 184.721533 0 88.1361071 21.8956569 70.4326463"></polyline>
                    <g id="Fill-7">
                        <use fill="black" fill-opacity="1" filter="url(#filter-5)" xlink:href="#path-4"></use>
                        <use fill="#FFFFFF" fill-rule="evenodd" xlink:href="#path-4"></use>
                    </g>
                    <mask id="mask-7" fill="white">
                        <use xlink:href="#path-6"></use>
                    </mask>
                    <g id="Clip-10"></g>
                    <polygon id="Fill-9" fill="#A9CFFF" mask="url(#mask-7)" points="33.3283582 42.2220647 67.4141791 42.2220647 67.4141791 39.2062029 33.3283582 39.2062029"></polygon>
                    <polygon id="Fill-11" fill="#A9CFFF" mask="url(#mask-7)" points="33.3283582 106.309127 69.6865672 106.309127 69.6865672 103.293265 33.3283582 103.293265"></polygon>
                    <polygon id="Fill-12" fill="#A9CFFF" mask="url(#mask-7)" points="33.3283582 115.356712 168.914179 115.356712 168.914179 112.340851 33.3283582 112.340851"></polygon>
                    <polygon id="Fill-13" fill="#A9CFFF" mask="url(#mask-7)" points="33.3283582 123.650332 168.914179 123.650332 168.914179 120.634471 33.3283582 120.634471"></polygon>
                    <polygon id="Fill-14" fill="#A9CFFF" mask="url(#mask-7)" points="33.3283582 132.697918 168.914179 132.697918 168.914179 129.682056 33.3283582 129.682056"></polygon>
                    <polygon id="Fill-15" fill="#A9CFFF" mask="url(#mask-7)" points="33.3283582 141.745503 168.914179 141.745503 168.914179 138.729641 33.3283582 138.729641"></polygon>
                    <polygon id="Fill-16" fill="#A9CFFF" mask="url(#mask-7)" points="33.3283582 149.285157 168.914179 149.285157 168.914179 146.269296 33.3283582 146.269296"></polygon>
                    <polygon id="Fill-17" fill="#A9CFFF" mask="url(#mask-7)" points="33.3283582 158.332743 168.914179 158.332743 168.914179 155.316881 33.3283582 155.316881"></polygon>
                    <polygon id="Fill-18" fill="#A9CFFF" mask="url(#mask-7)" points="147.705224 42.2220647 168.914179 42.2220647 168.914179 39.2062029 147.705224 39.2062029"></polygon>
                    <polygon id="Fill-19" fill="#A9CFFF" mask="url(#mask-7)" points="120.436567 42.2220647 141.645522 42.2220647 141.645522 39.2062029 120.436567 39.2062029"></polygon>
                    <polygon id="Fill-20" fill="#A9CFFF" mask="url(#mask-7)" points="93.1679104 42.2220647 114.376866 42.2220647 114.376866 39.2062029 93.1679104 39.2062029"></polygon>
                    <polygon id="Fill-21" fill="#FF5254" mask="url(#mask-7)" points="33.3283582 94.2456801 170.429104 94.2456801 170.429104 53.5315463 33.3283582 53.5315463"></polygon>
                    <polygon id="Fill-22" fill="#FD3133" mask="url(#mask-7)" points="56.0522388 94.2456801 169.671642 94.2456801 169.671642 53.5315463 123.53154 53.5315463"></polygon>
                    <path d="M77.404453,153.054984 L0.757462687,220.738332 C2.63662564,225.675207 7.42888987,229.205494 13.0770105,229.205494 L189.920332,229.205494 C195.568452,229.205494 200.362045,225.675207 202.242537,220.738332 L125.592889,153.054984 L77.404453,153.054984 Z" id="Fill-23" fill="url(#linearGradient-8)" mask="url(#mask-7)"></path>
                    <path d="M124.981343,153.120563 L202.094291,221.242342 C201.844347,221.906562 201.529902,222.540166 201.183206,223.14848 L201.202019,223.17377 C202.34289,221.223707 203,218.972814 203,216.560858 L203,87.4599911 L124.981343,153.120563 Z" id="Fill-24" fill="#427FE0" mask="url(#mask-7)"></path>
                    <path d="M0.905678074,221.241011 L78.0186567,153.119232 L0,87.4599911 L0,216.559527 C0,218.971483 0.661118119,221.222376 1.79254384,223.17377 L1.82210604,223.14848 C1.46735973,222.540166 1.15695671,221.906562 0.905678074,221.241011" id="Fill-25" fill="url(#linearGradient-9)" mask="url(#mask-7)"></path>
                </g>
                <g id="Group-26-Copy" filter="url(#filter-10)" transform="translate(109.000000, 23.000000)">
                    <g id="Group-4" transform="translate(0.000000, 67.856890)">
                        <mask id="mask-12" fill="white">
                            <use xlink:href="#path-11"></use>
                        </mask>
                        <g id="Clip-3"></g>
                        <path d="M181.053444,0.432599414 L202.942948,19.9081695 L202.942948,148.188245 C202.942948,155.462158 197.037373,161.348737 189.747948,161.348737 L13.1923464,161.348737 C5.90557516,161.348737 0,155.462158 0,148.188245 L0,19.9081695 L21.8895033,2.24975501" id="Fill-2" fill="#FF5254" mask="url(#mask-12)"></path>
                    </g>
                    <polyline id="Fill-5" fill="#FF5254" points="181.104343 68.6108551 203 88.1361071 103.718365 184.721533 0 88.1361071 21.8956569 70.4326463"></polyline>
                    <g id="Fill-7">
                        <use fill="black" fill-opacity="1" filter="url(#filter-14)" xlink:href="#path-13"></use>
                        <use fill="#FFFFFF" fill-rule="evenodd" xlink:href="#path-13"></use>
                    </g>
                    <mask id="mask-16" fill="white">
                        <use xlink:href="#path-15"></use>
                    </mask>
                    <g id="Clip-10"></g>
                    <polygon id="Fill-9" fill="#A9CFFF" mask="url(#mask-16)" points="33.3283582 42.2220647 67.4141791 42.2220647 67.4141791 39.2062029 33.3283582 39.2062029"></polygon>
                    <polygon id="Fill-11" fill="#A9CFFF" mask="url(#mask-16)" points="33.3283582 106.309127 69.6865672 106.309127 69.6865672 103.293265 33.3283582 103.293265"></polygon>
                    <polygon id="Fill-12" fill="#A9CFFF" mask="url(#mask-16)" points="33.3283582 115.356712 168.914179 115.356712 168.914179 112.340851 33.3283582 112.340851"></polygon>
                    <polygon id="Fill-13" fill="#A9CFFF" mask="url(#mask-16)" points="33.3283582 123.650332 168.914179 123.650332 168.914179 120.634471 33.3283582 120.634471"></polygon>
                    <polygon id="Fill-14" fill="#A9CFFF" mask="url(#mask-16)" points="33.3283582 132.697918 168.914179 132.697918 168.914179 129.682056 33.3283582 129.682056"></polygon>
                    <polygon id="Fill-15" fill="#A9CFFF" mask="url(#mask-16)" points="33.3283582 141.745503 168.914179 141.745503 168.914179 138.729641 33.3283582 138.729641"></polygon>
                    <polygon id="Fill-16" fill="#A9CFFF" mask="url(#mask-16)" points="33.3283582 149.285157 168.914179 149.285157 168.914179 146.269296 33.3283582 146.269296"></polygon>
                    <polygon id="Fill-17" fill="#A9CFFF" mask="url(#mask-16)" points="33.3283582 158.332743 168.914179 158.332743 168.914179 155.316881 33.3283582 155.316881"></polygon>
                    <polygon id="Fill-18" fill="#A9CFFF" mask="url(#mask-16)" points="147.705224 42.2220647 168.914179 42.2220647 168.914179 39.2062029 147.705224 39.2062029"></polygon>
                    <polygon id="Fill-19" fill="#A9CFFF" mask="url(#mask-16)" points="120.436567 42.2220647 141.645522 42.2220647 141.645522 39.2062029 120.436567 39.2062029"></polygon>
                    <polygon id="Fill-20" fill="#A9CFFF" mask="url(#mask-16)" points="93.1679104 42.2220647 114.376866 42.2220647 114.376866 39.2062029 93.1679104 39.2062029"></polygon>
                    <polygon id="Fill-21" fill="#FF5254" mask="url(#mask-16)" points="33.3283582 94.2456801 170.429104 94.2456801 170.429104 53.5315463 33.3283582 53.5315463"></polygon>
                    <polygon id="Fill-22" fill="#FD3133" mask="url(#mask-16)" points="56.0522388 94.2456801 169.671642 94.2456801 169.671642 53.5315463 123.53154 53.5315463"></polygon>
                    <path d="M77.404453,153.054984 L0.757462687,220.738332 C2.63662564,225.675207 7.42888987,229.205494 13.0770105,229.205494 L189.920332,229.205494 C195.568452,229.205494 200.362045,225.675207 202.242537,220.738332 L125.592889,153.054984 L77.404453,153.054984 Z" id="Fill-23" fill="url(#linearGradient-17)" mask="url(#mask-16)"></path>
                    <path d="M124.981343,153.120563 L202.094291,221.242342 C201.844347,221.906562 201.529902,222.540166 201.183206,223.14848 L201.202019,223.17377 C202.34289,221.223707 203,218.972814 203,216.560858 L203,87.4599911 L124.981343,153.120563 Z" id="Fill-24" fill="url(#linearGradient-18)" mask="url(#mask-16)"></path>
                    <path d="M0.905678074,221.241011 L78.0186567,153.119232 L0,87.4599911 L0,216.559527 C0,218.971483 0.661118119,221.222376 1.79254384,223.17377 L1.82210604,223.14848 C1.46735973,222.540166 1.15695671,221.906562 0.905678074,221.241011" id="Fill-25" fill="url(#linearGradient-19)" mask="url(#mask-16)"></path>
                </g>
            </g>
        </g>
    </g>
</svg>