<?xml version="1.0" encoding="UTF-8"?>
<svg width="280px" height="264px" viewBox="0 0 280 264" version="1.1" xmlns="http://www.w3.org/2000/svg" xmlns:xlink="http://www.w3.org/1999/xlink">
    <!-- Generator: sketchtool 63.1 (101010) - https://sketch.com -->
    <title>8675081D-502A-42FD-AE9D-C3E7E3BA1BC4</title>
    <desc>Created with sketchtool.</desc>
    <defs>
        <linearGradient x1="49.1982006%" y1="10.1619773%" x2="46.7763612%" y2="94.2950964%" id="linearGradient-1">
            <stop stop-color="#9F3FA9" offset="0%"></stop>
            <stop stop-color="#DB2E87" offset="21.7248618%"></stop>
            <stop stop-color="#F2554B" offset="76.0780392%"></stop>
            <stop stop-color="#FFB461" offset="100%"></stop>
        </linearGradient>
        <linearGradient x1="48.8295824%" y1="10.1619773%" x2="45.2943296%" y2="94.2950964%" id="linearGradient-2">
            <stop stop-color="#9F3FA9" offset="0%"></stop>
            <stop stop-color="#DB2E87" offset="21.7248618%"></stop>
            <stop stop-color="#F2554B" offset="76.0780392%"></stop>
            <stop stop-color="#FFB461" offset="100%"></stop>
        </linearGradient>
        <linearGradient x1="55.5668382%" y1="93.9556918%" x2="57.9204541%" y2="0%" id="linearGradient-3">
            <stop stop-color="#0056FF" offset="0%"></stop>
            <stop stop-color="#BCD1FF" offset="100%"></stop>
        </linearGradient>
        <linearGradient x1="55.6559241%" y1="93.9556918%" x2="58.0472048%" y2="0%" id="linearGradient-4">
            <stop stop-color="#2952A4" offset="0%"></stop>
            <stop stop-color="#6D98F4" offset="100%"></stop>
        </linearGradient>
        <linearGradient x1="67.4001736%" y1="100%" x2="67.4001753%" y2="0%" id="linearGradient-5">
            <stop stop-color="#427FDF" offset="0%"></stop>
            <stop stop-color="#396BB1" offset="100%"></stop>
        </linearGradient>
        <linearGradient x1="67.4001736%" y1="100%" x2="67.4001753%" y2="0%" id="linearGradient-6">
            <stop stop-color="#427FDF" offset="0%"></stop>
            <stop stop-color="#396BB1" offset="100%"></stop>
        </linearGradient>
    </defs>
    <g id="Website" stroke="none" stroke-width="1" fill="none" fill-rule="evenodd">
        <g id="Hubspot---Mobile" transform="translate(-44.000000, -3513.000000)">
            <g id="img_social_channels_mob" transform="translate(34.000000, 3492.000000)">
                <g id="img_instagram" transform="translate(59.000000, 116.000000)">
                    <path d="M94.1310269,180.714272 C124.250514,180.782306 148.600448,151.29636 148.518335,114.855449 C148.435806,78.4145383 123.905803,28.1892569 93.7863163,28.1210349 C63.6668294,28.0529518 39.3634962,78.167736 39.4456084,114.608647 C39.5281376,151.049558 64.0115401,180.646001 94.1310269,180.714272 Z" id="Oval-5" fill="url(#linearGradient-1)" opacity="0.265341938" transform="translate(93.981972, 104.417653) rotate(-415.000000) translate(-93.981972, -104.417653) "></path>
                    <path d="M107.99341,160.065847 C141.072946,159.996872 167.945229,133.087525 168.014467,99.9620064 C168.083438,66.836488 141.362316,21.2867308 108.28278,21.3554957 C75.2032437,21.4244166 48.2918415,67.0857903 48.2226033,100.211309 C48.1536322,133.336827 74.913874,160.134557 107.99341,160.065847 Z" id="Oval-5" fill="url(#linearGradient-2)" transform="translate(108.118535, 90.710671) rotate(-330.000000) translate(-108.118535, -90.710671) "></path>
                    <g id="instagram" transform="translate(72.237728, 67.106946)" fill="#FFFFFF" fill-rule="nonzero">
                        <path d="M43.8257947,0 L18.5956998,0 C8.34198771,0 0,8.31950757 0,18.5455878 L0,43.7076921 C0,53.9337723 8.34198771,62.2532799 18.5956998,62.2532799 L43.8257947,62.2532799 C54.0795068,62.2532799 62.4214945,53.9337723 62.4214945,43.7076921 L62.4214945,18.5455878 C62.4214945,8.31950757 54.0793935,0 43.8257947,0 Z M56.1418945,43.7076921 C56.1418945,50.4912993 50.6277318,55.9906022 43.8257947,55.9906022 L18.5956998,55.9906022 C11.7937627,55.9906022 6.27960003,50.4912993 6.27960003,43.7076921 L6.27960003,18.5455878 C6.27960003,11.7618676 11.7937627,6.26267765 18.5956998,6.26267765 L43.8257947,6.26267765 C50.6277318,6.26267765 56.1418945,11.7618676 56.1418945,18.5455878 L56.1418945,43.7076921 L56.1418945,43.7076921 Z" id="Shape"></path>
                        <path d="M30.7711593,14.9057149 C22.0451478,14.9057149 14.9459916,21.985765 14.9459916,30.6881812 C14.9459916,39.3905974 22.0451478,46.4707582 30.7711593,46.4707582 C39.4971707,46.4707582 46.5963269,39.3907082 46.5963269,30.6881812 C46.5963269,21.9856542 39.4971707,14.9057149 30.7711593,14.9057149 Z M30.7711593,40.3331109 C25.4300059,40.3331109 21.1002235,36.0149965 21.1002235,30.6882366 C21.1002235,25.3614767 25.430117,21.0433622 30.7711593,21.0433622 C36.1123126,21.0433622 40.442095,25.3614767 40.442095,30.6882366 C40.442095,36.0148857 36.1122015,40.3331109 30.7711593,40.3331109 Z" id="Shape"></path>
                        <ellipse id="Oval" cx="47.0359149" cy="14.4673115" rx="3.9562919" ry="3.94563042"></ellipse>
                    </g>
                </g>
                <g id="img_facebook" transform="translate(0.000000, 9.000000)">
                    <path d="M94.7450105,152.113474 C127.596516,152.186789 127.805393,116.108308 127.732443,83.328704 C127.659492,50.5490999 127.291042,14.9251328 94.4395365,14.851617 C61.5880314,14.7782804 35.0570594,59.8480846 35.1298599,92.6276888 C35.2029606,125.407293 61.8935054,152.039936 94.7450105,152.113474 Z" id="Oval-5" fill="url(#linearGradient-3)" opacity="0.353713768" transform="translate(81.433817, 83.482546) rotate(-247.000000) translate(-81.433817, -83.482546) "></path>
                    <path d="M94.5213315,151.824972 C127.49507,151.736352 127.881985,115.789796 127.969811,83.131346 C128.057638,50.472896 127.862837,14.982018 94.8890989,15.0702525 C61.9153605,15.1588166 35.0639482,60.1930073 34.9759049,92.8514573 C34.8882943,125.509907 61.547593,151.91315 94.5213315,151.824972 Z" id="Oval-5" fill="url(#linearGradient-4)" transform="translate(81.476450, 83.447612) rotate(-330.000000) translate(-81.476450, -83.447612) "></path>
                    <g id="facebook-logo" transform="translate(61.731915, 63.133891)" fill="#FFFFFF" fill-rule="nonzero">
                        <path d="M28.4867423,0.0114659738 L21.3867015,0 C13.4100491,0 8.25518589,5.32307832 8.25518589,13.5619538 L8.25518589,19.8149225 L1.11641236,19.8149225 C0.499537572,19.8149225 0,20.3182788 0,20.9391613 L0,29.9990004 C0,30.6198829 0.50010717,31.1226659 1.11641236,31.1226659 L8.25518589,31.1226659 L8.25518589,53.9835243 C8.25518589,54.6044068 8.75472346,55.1071898 9.37159825,55.1071898 L18.6856671,55.1071898 C19.3025419,55.1071898 19.8020795,54.6038335 19.8020795,53.9835243 L19.8020795,31.1226659 L28.1489706,31.1226659 C28.7658454,31.1226659 29.265383,30.6198829 29.265383,29.9990004 L29.2688006,20.9391613 C29.2688006,20.641046 29.1508938,20.3555432 28.9418513,20.1445693 C28.7328087,19.9335954 28.4480097,19.8149225 28.1518186,19.8149225 L19.8020795,19.8149225 L19.8020795,14.5142029 C19.8020795,11.9664635 20.4052839,10.6731017 23.7026875,10.6731017 L28.4856031,10.6713818 C29.1019083,10.6713818 29.6014459,10.1680255 29.6014459,9.54771635 L29.6014459,1.1351314 C29.6014459,0.51539552 29.1024779,0.0126125711 28.4867423,0.0114659738 Z" id="Shape"></path>
                    </g>
                </g>
                <g id="img_linkedin" transform="translate(147.000000, 0.000000)">
                    <path d="M72.0333964,142.419598 C95.9657952,142.354243 127.096942,123.742414 127.183688,92.3687142 C127.26947,60.9950148 115.809543,-4.04661272 70.9655819,10.3882727 C26.121621,24.8231581 28.9424141,54.356774 28.85615,85.7304733 C28.7698859,117.104173 48.1009976,142.484702 72.0333964,142.419598 Z" id="Oval-5" fill="url(#linearGradient-5)" opacity="0.31810462" transform="translate(78.014519, 75.373683) rotate(-434.000000) translate(-78.014519, -75.373683) "></path>
                    <path d="M79.4504402,139.772926 C107.086713,139.896181 142.90381,123.652059 142.780167,95.8717636 C142.655883,68.0914677 128.958639,10.4110442 77.2764445,22.8524215 C25.59425,35.2937988 29.0621222,61.4668011 29.186086,89.2470969 C29.3100498,117.027393 51.8141677,139.648262 79.4504402,139.772926 Z" id="Oval-5" fill="url(#linearGradient-6)" transform="translate(85.938439, 80.446170) rotate(-330.000000) translate(-85.938439, -80.446170) "></path>
                    <path d="M112.630459,83.6282073 L112.630459,103.848485 L100.93471,103.848485 L100.93471,84.9730453 C100.93471,80.2273859 99.2483417,77.0020627 95.0163939,77.0020627 C91.7799771,77.0020627 89.8708208,79.1857228 89.0185678,81.2872395 C88.7117066,82.0440327 88.6185074,83.1038863 88.6185074,84.1501257 L88.6185074,103.846082 L76.9342795,103.846082 C76.9342795,103.846082 77.0911324,71.8893901 76.9342795,68.57975 L88.620903,68.57975 L88.620903,73.5783603 C88.6050466,73.6194319 88.5709382,73.6535247 88.5549678,73.6991726 L88.620903,73.6991726 L88.620903,73.5783603 C90.1822451,71.1759567 92.9482174,67.7522542 99.1597056,67.7522542 C106.868996,67.7522542 112.630459,72.7920504 112.630459,83.6282073 Z M64.6998687,51.5757576 C60.7021165,51.5757576 58.0838712,54.2061715 58.0838712,57.6754075 C58.0838712,61.051174 60.6248879,63.7704811 64.5498603,63.7704811 L64.6203586,63.7704811 C68.7067469,63.7704811 71.2386376,61.051174 71.2386376,57.6754075 C71.1591275,54.2061715 68.706861,51.5757576 64.6998687,51.5757576 Z M58.7816669,103.84837 L70.4705719,103.84837 L70.4705719,68.5775763 L58.7816669,68.5775763 L58.7816669,103.84837 Z" id="LinkedIn_3_" fill="#FFFFFF" fill-rule="nonzero"></path>
                    <ellipse id="Oval-4" fill="#000000" opacity="0.05" cx="81.9048495" cy="155.772727" rx="48.6776515" ry="4.53030303"></ellipse>
                </g>
            </g>
        </g>
    </g>
</svg>