<?xml version="1.0" encoding="UTF-8"?>
<svg width="457px" height="391px" viewBox="0 0 457 391" version="1.1" xmlns="http://www.w3.org/2000/svg" xmlns:xlink="http://www.w3.org/1999/xlink">
    <!-- Generator: Sketch 63.1 (92452) - https://sketch.com -->
    <title>img_conquer</title>
    <desc>Created with Sketch.</desc>
    <defs>
        <linearGradient x1="50%" y1="0%" x2="64.6055751%" y2="91.7903857%" id="linearGradient-1">
            <stop stop-color="#FDE765" offset="0%"></stop>
            <stop stop-color="#F9CA35" offset="100%"></stop>
        </linearGradient>
    </defs>
    <g id="Website" stroke="none" stroke-width="1" fill="none" fill-rule="evenodd">
        <g id="International-SEO" transform="translate(-162.000000, -1815.000000)">
            <g id="img_conquer" transform="translate(162.000000, 1815.000000)">
                <circle id="Oval" fill="url(#linearGradient-1)" cx="236" cy="187" r="187"></circle>
                <path d="M273.992321,32.203422 C273.424946,32.54318 273.343337,34.0056543 273.343337,34.0056543 L273.343337,34.0056543 L274.974215,107.583388 C274.38482,107.740499 273.743177,107.99153 273.07649,108.416552 L273.07649,108.416552 C271.122632,109.663486 270.056969,110.375896 269.523706,113.046783 L269.523706,113.046783 C268.991307,115.718103 270.056969,119.101833 270.056969,120.526653 L270.056969,120.526653 C270.056969,121.951473 267.924781,130.321205 266.503322,133.882821 L266.503322,133.882821 C266.121186,134.840636 265.692417,136.468012 265.270988,138.332136 L265.270988,138.332136 C264.428993,136.522114 263.624997,134.891708 263.17507,134.115242 L263.17507,134.115242 C262.064069,132.196583 261.631414,128.606401 261.074834,124.892868 L261.074834,124.892868 C260.51955,121.178902 257.926639,117.280125 257.926639,117.280125 L257.926639,117.280125 C257.926639,117.280125 257.926639,115.051572 257.55573,114.184648 L257.55573,114.184648 C257.186548,113.318157 255.333729,111.647067 253.913133,111.089604 L253.913133,111.089604 C252.493402,110.533007 249.529582,108.428238 247.924611,107.871208 L247.924611,107.871208 C246.319209,107.314178 244.158522,105.395519 243.54106,105.085626 L243.54106,105.085626 C242.923166,104.776164 242.861851,103.724429 242.799673,103.043615 L242.799673,103.043615 C242.738359,102.362368 242.059582,102.300476 242.059582,102.300476 L242.059582,102.300476 C242.059582,102.300476 242.553552,97.4105571 242.799673,95.987036 L242.799673,95.987036 C243.04709,94.5635149 243.23276,93.2637782 243.788045,92.644856 L243.788045,92.644856 C244.343761,92.025501 244.960792,90.6638721 244.960792,90.6638721 L244.960792,90.6638721 C244.960792,90.6638721 245.887417,90.7880893 246.381387,90.4777626 L246.381387,90.4777626 C246.874925,90.1687343 246.813179,88.5595365 247.307149,86.8265543 L247.307149,86.8265543 C247.800687,85.0931393 246.874925,84.9697876 246.874925,84.9697876 L246.874925,84.9697876 C246.874925,84.9697876 247.430641,81.9366359 247.554134,80.3893304 L247.554134,80.3893304 C247.677626,78.8411592 247.800687,76.2425515 247.986789,73.9521064 L247.986789,73.9521064 C248.171596,71.6620942 247.554134,67.7005592 246.62794,66.1528208 L246.62794,66.1528208 C245.701747,64.6050824 243.788045,64.0484852 242.923166,63.9251336 L242.923166,63.9251336 C242.059582,63.8009163 241.56518,63.0582097 238.169569,62.9963174 L238.169569,62.9963174 C234.773093,62.9344252 231.994944,64.8530841 231.253558,65.5957908 L231.253558,65.5957908 C230.512603,66.3384975 228.352348,68.1333719 228.042753,69.3093241 L228.042753,69.3093241 C227.734022,70.4857092 226.80826,70.7337109 226.252544,71.4140925 L226.252544,71.4140925 C225.697259,72.0949069 224.523217,74.1373503 224.15274,74.8181647 L224.15274,74.8181647 C223.783557,75.4989792 224.090993,77.4799631 223.844008,78.0993181 L223.844008,78.0993181 C223.597023,78.7178075 223.720948,80.5745742 223.720948,80.5745742 L223.720948,80.5745742 C223.350038,81.5033904 223.783557,83.1125881 223.783557,83.1125881 L223.783557,83.1125881 C223.783557,83.1125881 223.783557,83.2359398 223.906186,83.6077259 L223.906186,83.6077259 C224.029679,83.9790793 224.708456,86.0215226 225.202426,87.012231 L225.202426,87.012231 C225.697259,88.0020737 226.252544,89.859706 226.684336,90.1687343 L226.684336,90.1687343 C227.116991,90.4777626 227.116991,91.9636088 227.055677,92.7063154 L227.055677,92.7063154 C226.99393,93.4490221 226.746082,93.9441599 226.313426,94.3778382 L226.313426,94.3778382 C225.881634,94.8110838 225.449411,94.872976 225.078933,95.0582199 L225.078933,95.0582199 C224.708456,95.2443294 223.05642,95.1759449 221.90224,94.8673495 L221.90224,94.8673495 C220.74806,94.5596196 218.440133,93.865388 217.285953,92.7084795 L217.285953,92.7084795 C216.132205,91.5520038 215.286756,92.2462355 212.363525,91.4745304 L212.363525,91.4745304 C209.440726,90.7036909 208.132396,93.5567925 208.132396,93.5567925 L208.132396,93.5567925 C208.132396,93.5567925 208.056401,93.6338331 207.055939,94.0194693 L207.055939,94.0194693 C206.055045,94.4051054 202.132216,96.1787721 200.440023,97.3348149 L200.440023,97.3348149 C198.747831,98.4921562 194.439843,103.965939 192.440646,104.58313 L192.440646,104.58313 C190.439723,105.200321 187.132197,107.204677 184.74741,108.438193 L184.74741,108.438193 C182.363487,109.672142 178.901379,111.676931 175.82443,113.912841 L175.82443,113.912841 C172.747913,116.148752 172.208173,118.924813 171.439583,120.466925 L171.439583,120.466925 C170.670994,122.009037 171.285434,124.013825 172.054887,124.399029 L172.054887,124.399029 C172.82434,124.785098 174.593391,126.635372 177.7472,130.259313 L177.7472,130.259313 C180.901439,133.883254 185.824299,136.659315 188.901248,138.278468 L188.901248,138.278468 C191.978629,139.89762 199.362702,142.981844 199.901579,143.444953 L199.901579,143.444953 C200.440023,143.907197 201.363194,145.449742 202.132216,146.83734 L202.132216,146.83734 C202.901669,148.224937 205.97905,149.921563 205.97905,149.921563 L205.97905,149.921563 C205.97905,149.921563 204.132276,150.923525 205.208301,151.772271 L205.208301,151.772271 L206.97908,153.159868 C206.97908,153.159868 207.286084,154.933535 207.978246,155.241698 L207.978246,155.241698 C208.670841,155.550293 209.901879,155.550293 209.901879,155.550293 L209.901879,155.550293 C209.901879,155.550293 209.209717,156.707201 208.517123,158.094799 L208.517123,158.094799 C207.824529,159.48283 205.900896,163.954651 205.363315,165.574236 L205.363315,165.574236 C204.82487,167.193821 205.747609,168.889149 206.132336,170.200139 L206.132336,170.200139 C206.517063,171.510696 205.286024,174.210149 203.747549,178.219293 L203.747549,178.219293 C202.209075,182.229303 200.285442,188.012114 200.055728,191.559015 L200.055728,191.559015 C199.82472,195.106348 198.978839,197.958584 197.747369,200.888726 L197.747369,200.888726 C196.51633,203.818436 193.825403,211.992104 192.824509,214.382529 L192.824509,214.382529 C191.824479,216.772954 191.67033,221.321383 191.90177,223.326605 L191.90177,223.326605 C192.131483,225.33096 191.055458,226.642383 190.901308,227.644345 L190.901308,227.644345 C190.74759,228.646739 190.74759,230.65196 189.747128,232.42606 L189.747128,232.42606 C188.74753,234.198861 186.670611,235.123782 186.209026,239.442387 L186.209026,239.442387 C185.747008,243.759694 184.131675,250.391251 182.208905,256.174495 L182.208905,256.174495 C180.286136,261.956873 176.900887,273.36928 174.823105,277.918142 L174.823105,277.918142 C172.747913,282.468302 171.439583,287.556449 171.439583,288.635884 L171.439583,288.635884 C171.439583,289.715319 170.592839,292.02827 170.901139,294.341654 L170.901139,294.341654 C171.208575,296.655471 172.517336,295.960806 172.517336,295.960806 L172.517336,295.960806 C172.517336,295.960806 172.82434,295.652211 172.517336,296.347308 L172.517336,296.347308 C172.208173,297.041107 170.44603,301.050684 170.830325,302.437849 L170.830325,302.437849 C171.21462,303.82588 171.522919,305.985615 171.369201,306.448292 L171.369201,306.448292 C171.330772,306.560823 171.293206,306.701055 171.291047,306.846913 L171.291047,306.846913 C171.097172,307.609529 170.851915,308.386427 170.553115,309.055989 L170.553115,309.055989 C169.694712,310.980707 167.129436,316.135074 167.129436,316.135074 L167.129436,316.135074 L158.994045,321.275158 C157.288035,322.351563 156,327.277838 156,327.277838 L156,327.277838 C156,327.277838 157.062208,329 158.994045,329 L158.994045,329 C160.925882,329 182.960223,328.785325 188.732849,328.139568 L188.732849,328.139568 C194.507202,327.493812 196.868672,327.063163 197.501679,327.063163 L197.501679,327.063163 C200.281124,327.063163 198.528912,321.288143 198.574682,318.704683 L198.574682,318.704683 C198.619589,316.122955 197.082841,312.624963 197.082841,311.410923 L197.082841,311.410923 C197.082841,310.010341 196.895875,308.332326 196.696819,306.939102 L196.696819,306.939102 C197.797025,304.808797 197.623445,301.94098 197.138111,300.201938 L197.138111,300.201938 C196.600098,298.274623 198.671404,297.734906 198.132096,296.037847 L198.132096,296.037847 C197.594083,294.341654 197.82466,291.488985 198.055237,290.795186 L198.055237,290.795186 C198.286677,290.100955 202.209075,284.626739 202.97896,283.084627 L202.97896,283.084627 C203.747549,281.54165 204.132276,277.224776 204.439712,275.990394 L204.439712,275.990394 C204.747148,274.756012 206.824498,270.978422 206.670349,267.894631 L206.670349,267.894631 C206.517063,264.810408 207.286084,254.55491 207.286084,254.55491 L207.286084,254.55491 C207.286084,254.55491 209.594012,250.31421 210.516751,246.690269 L210.516751,246.690269 C211.440354,243.066328 211.90194,238.670682 212.209375,237.515072 L212.209375,237.515072 C212.517675,236.356865 214.285863,236.125743 215.747046,235.046741 L215.747046,235.046741 C217.209957,233.967306 219.363304,229.649999 219.901748,227.41279 L219.901748,227.41279 C220.440193,225.177745 224.363022,217.774916 224.82504,216.232804 L224.82504,216.232804 C225.286193,214.690259 228.671874,211.992104 228.671874,211.992104 L228.671874,211.992104 C228.671874,211.992104 229.209886,217.004076 229.209886,218.468714 L229.209886,218.468714 C229.209886,219.933353 228.747869,224.482647 228.747869,225.408434 L228.747869,225.408434 C228.747869,226.333788 229.133459,229.80408 228.132566,233.427588 L228.132566,233.427588 C227.132967,237.051962 228.517292,242.526178 228.517292,245.224765 L228.517292,245.224765 C228.517292,247.923786 228.363574,249.927709 228.132566,252.550121 L228.132566,252.550121 C227.90242,255.172533 227.979279,259.336625 228.132566,262.882227 L228.132566,262.882227 C228.286715,266.429993 228.209856,282.853072 227.82513,286.476581 L227.82513,286.476581 C227.440403,290.100955 228.055707,305.830235 227.979279,307.758416 L227.979279,307.758416 C227.90242,309.685731 229.517322,313.309672 229.517322,313.309672 L229.517322,313.309672 C229.517322,313.309672 229.133459,314.775609 229.286314,316.394329 L229.286314,316.394329 C229.440463,318.013049 230.133057,323.797158 230.209485,325.956028 L230.209485,325.956028 C230.269504,327.629715 231.068751,327.541854 231.855044,327.454426 L231.855044,327.454426 C232.08303,327.42889 232.310152,327.403787 232.517412,327.420666 L232.517412,327.420666 C233.440584,327.496841 243.133017,328.191073 256.05698,327.496841 L256.05698,327.496841 C268.085839,326.85195 276.775651,325.138445 279.782218,324.406126 L279.782218,324.406126 L279.825398,326.371961 L284.485296,327.461351 L277.891402,120.838278 C278.188043,120.100765 278.484252,119.569704 278.762758,119.457605 L278.762758,119.457605 C279.650522,119.101833 279.472624,117.498695 279.472624,117.498695 L279.472624,117.498695 C279.472624,117.498695 279.117691,116.430946 279.650522,115.362331 L279.650522,115.362331 C280.183785,114.293284 279.117691,113.937512 279.117691,113.937512 L279.117691,113.937512 C279.117691,113.937512 279.295589,112.868897 279.472624,112.156487 L279.472624,112.156487 C279.650522,111.444078 279.117691,111.087873 279.117691,111.087873 L279.117691,111.087873 C279.117691,111.087873 279.650522,110.019258 279.472624,108.772757 L279.472624,108.772757 C279.294725,107.526257 278.228631,107.347938 277.519197,107.347938 L277.519197,107.347938 C277.502357,107.347938 277.477745,107.347072 277.460905,107.347072 L277.460905,107.347072 L276.682384,82.9598052 C277.618941,84.0353449 278.617676,85.4969536 279.18505,87.2853358 L279.18505,87.2853358 C279.96573,89.744145 281.327602,91.2239318 287.593334,93.8805364 L287.593334,93.8805364 C292.344772,95.8952797 289.785973,103.406745 296.18297,106.704345 L296.18297,106.704345 C301.88176,109.641845 310.43858,117.69649 310.43858,117.69649 L310.43858,117.69649 C312.231812,108.908228 310.622524,105.605434 311.5349,97.5438635 L311.5349,97.5438635 C312.476638,89.2386197 313.972797,78.3672292 314,78.1677026 L314,78.1677026 L314,78.16424 C313.965457,78.115765 311.487403,74.678799 304.875805,70.996861 L304.875805,70.996861 C298.218438,67.2893871 301.424492,59.3797342 292.053744,54.6828503 L292.053744,54.6828503 C282.682996,49.986832 289.094243,42.8190202 284.655854,38.8639773 L284.655854,38.8639773 C281.249447,35.8290943 276.801991,33.4165961 274.910742,32.455319 L274.910742,32.455319 C274.784659,32.2021236 274.570922,32.0038953 274.209944,32.1056063 L274.209944,32.1056063 C274.076088,32.0402516 273.991025,32 273.991025,32 L273.991025,32 L273.992321,32.203422 Z M206.97908,138.355508 C205.363315,136.736356 203.902131,134.886081 202.59337,133.960728 L202.59337,133.960728 C201.286335,133.035374 197.747369,131.107626 194.979151,128.331998 L194.979151,128.331998 C192.209206,125.555937 188.516953,120.004248 188.516953,120.004248 L188.516953,120.004248 C188.516953,120.004248 192.286065,118.847772 194.517565,117.845378 L194.517565,117.845378 C196.747339,116.842984 200.594605,115.06975 201.900775,114.375518 L201.900775,114.375518 C203.209537,113.681287 204.132276,112.525244 204.747148,113.681287 L204.747148,113.681287 C205.363315,114.838195 206.440204,119.079327 207.978246,122.703268 L207.978246,122.703268 C209.516721,126.326777 210.055166,133.189455 210.132456,134.886081 L210.132456,134.886081 C210.209747,136.582274 210.440756,140.514378 210.440756,140.514378 L210.440756,140.514378 C210.440756,140.514378 208.594413,139.974661 206.97908,138.355508 L206.97908,138.355508 Z M270.840672,153.980914 C271.4862,152.472129 272.80187,150.12109 274.497949,141.006486 L274.497949,141.006486 C274.993646,138.34815 275.308422,135.307641 275.531659,132.685229 L275.531659,132.685229 L279.593094,315.867596 C277.73682,315.465946 275.449187,315.704425 274.133517,315.546449 L274.133517,315.546449 C272.210747,315.314894 268.902789,311.613479 265.902699,309.146447 L265.902699,309.146447 C262.902609,306.678548 256.518134,304.21065 255.440381,303.82588 L255.440381,303.82588 C254.363492,303.441109 252.749022,300.432628 252.825449,299.893343 L252.825449,299.893343 C252.902308,299.353193 253.441617,299.662221 254.671792,299.123369 L254.671792,299.123369 C255.902399,298.583652 257.056147,296.655471 256.979719,294.495735 L256.979719,294.495735 C256.901565,292.336865 256.363984,287.170812 256.672284,281.773637 L256.672284,281.773637 C256.979719,276.37603 257.672314,256.020414 257.748741,254.245881 L257.748741,254.245881 C257.826032,252.473513 257.440873,250.930536 256.440843,249.080261 L256.440843,249.080261 C255.440381,247.23042 257.210728,245.070684 257.672314,244.06829 L257.672314,244.06829 C258.133036,243.066328 257.826032,242.062635 257.672314,241.061107 L257.672314,241.061107 C257.518164,240.059578 257.826032,237.744896 257.979318,234.045212 L257.979318,234.045212 C258.133036,230.343365 258.517762,216.15533 258.517762,213.380135 L258.517762,213.380135 C258.517762,210.604074 258.853265,199.974193 258.173624,197.126285 L258.173624,197.126285 C257.495279,194.27881 257.123938,189.203648 257.000445,188.584293 L257.000445,188.584293 C256.876953,187.965371 256.876953,186.789851 256.938699,185.36633 L256.938699,185.36633 C257.000445,183.941943 256.876953,182.704532 256.506907,181.714256 L256.506907,181.714256 C256.135998,180.723115 255.518536,179.732839 255.518536,179.732839 L255.518536,179.732839 C255.518536,179.732839 255.333729,176.452984 255.395907,174.595785 L255.395907,174.595785 C255.428723,173.579108 255.462834,172.398395 255.486583,171.534933 L255.486583,171.534933 L255.374317,171.428461 C255.374317,171.428461 255.439086,164.42382 255.439086,161.569853 L255.439086,161.569853 C255.439086,159.18895 255.482697,156.27612 255.385112,153.979183 L255.385112,153.979183 C255.247802,152.671655 255.047019,151.18278 254.748651,149.690441 L254.748651,149.690441 C253.902339,145.449742 253.82548,142.751155 253.672193,141.748327 L253.672193,141.748327 C253.518044,140.745933 253.363462,139.511984 253.363462,139.511984 L253.363462,139.511984 C253.363462,139.511984 254.441647,142.442126 256.440843,144.909592 L256.440843,144.909592 C258.044087,146.888412 259.152065,149.110905 259.727211,150.233621 L259.727211,150.233621 C260.323516,151.139498 261.315342,152.23841 261.716045,152.813185 L261.716045,152.813185 C262.168995,153.461539 262.556744,154.434069 263.075758,154.694189 L263.075758,154.694189 C263.593044,154.953877 265.46918,156.44535 267.152305,156.44535 L267.152305,156.44535 C268.833703,156.44535 270.516396,154.824033 270.840672,153.980914 L270.840672,153.980914 Z" id="Fill-1" fill="#FFFFFF"></path>
                <path d="M196.201295,320.03072 C184.3096,320.736137 138.840844,323.557256 125.549743,323.557256 C112.258642,323.557256 107.362349,330.609235 91.9732245,336.251474 C76.5835572,341.893166 66.0912685,341.188297 58.3961634,341.188297 C50.7016012,341.188297 50.0018981,341.188297 34.6127736,346.124572 C19.2231063,351.061395 0,362.345326 0,362.345326 L0,391 L457,391 L457,377.1547 C457,377.1547 446.628761,370.102722 438.934199,367.282149 C431.24018,364.461029 421.445966,358.81879 417.948536,355.292801 C414.450564,351.766812 410.253974,350.355978 399.061439,347.534858 C387.868362,344.713739 361.287788,341.893166 356.390952,341.893166 C351.49466,341.893166 340.302125,336.251474 335.405289,331.314651 C330.508996,326.378376 300.429908,320.03072 292.0351,317.916111 C289.374165,317.245172 287.276142,317 285.071182,317 C280.320909,317 275.077207,318.139393 262.655714,318.620434 C244.46832,319.325303 208.09299,319.32585 196.201295,320.03072 Z" id="Fill-1" fill="#FFFFFF"></path>
            </g>
        </g>
    </g>
</svg>