<svg height="341" viewBox="0 0 349 341" width="349" xmlns="http://www.w3.org/2000/svg" xmlns:xlink="http://www.w3.org/1999/xlink"><linearGradient id="a" x1="55.508179%" x2="57.836995%" y1="93.955692%" y2="0%"><stop offset="0" stop-color="#2fc303"/><stop offset="1" stop-color="#59f62b"/></linearGradient><linearGradient id="b" x1="61.330564%" x2="66.121039%" y1="93.955692%" y2="0%"><stop offset="0" stop-color="#2dc101"/><stop offset="1" stop-color="#60ff31"/></linearGradient><g fill="none" fill-rule="evenodd" transform="translate(-21 -50)"><ellipse cx="175.88931" cy="379.081453" fill="#000" opacity=".05" rx="116.68931" ry="11.269592"/><path d="m182.415981 354.831681c56.77039 0 130.496195-48.057774 130.496195-129.438493 0-81.380718-27.608687-250.1754762-133.890344-213.0493713-106.2816569 37.1261048-99.3977344 113.7543193-99.3977344 195.1350383 0 81.380718 46.0214934 147.352826 102.7918834 147.352826z" fill="url(#a)" opacity=".318105" transform="matrix(.22495105 -.97437006 -.97437006 -.22495105 328.402673 412.858743)"/><path d="m185.434298 330.882173c66.014113 0 151.744433-38.963398 151.744433-104.943762s-32.104113-202.8326761-155.691239-172.732255c-123.5871267 30.1004212-115.5823192 92.227637-115.5823192 158.208001 0 65.980363 53.5150122 119.468016 119.5291252 119.468016z" fill="url(#b)" transform="matrix(-.8660254 .5 .5 .8660254 281.028018 -75.30123)"/><g fill="#fff" fill-rule="nonzero"><path d="m215.79417 128.624221c-17.397471-9.815799-39.082803-11.296532-57.805294-4.519669-12.297727 4.438678-23.439138 12.68571-30.319047 23.920619-6.23673 10.12744-8.577481 22.76209-5.561919 34.350896 3.017319 12.8653 11.914632 23.644192 22.753783 30.848901-2.038491 5.938778-4.048866 11.875797-5.943257 17.856832 6.851792-3.56538 13.622747-7.28394 20.448179-10.912704 8.231289 2.641022 16.880819 3.906952 25.521563 3.628764-2.251127-6.61488-2.785353-13.738598-1.760835-20.640469 1.637823-9.574586 6.807859-18.339259 13.953124-24.837934 12.030614-11.287729 29.088923-16.057416 45.319533-14.907691-3.033135-14.905929-13.489191-27.514169-26.60583-34.787545zm-46.637523 27.040547c-1.209037 5.84018-9.02384 8.657271-13.587601 4.743276-5.286019-3.736166-3.808113-13.016719 2.411044-14.87952 6.0856-2.354031 13.009442 3.841807 11.176557 10.136244zm42.258281-1.693776c.05272 6.722282-8.881497 10.912704-13.90919 6.347257-5.213969-3.736166-3.736063-12.83889 2.384684-14.728101 5.474052-2.156835 11.951535 2.470236 11.524506 8.380844z"/><path d="m287.964188 196.175778c-4.275805-9.65705-12.349571-17.304714-21.715283-22.037974-16.535116-8.362151-37.110656-8.298641-53.59091.195823-11.462908 5.869383-21.025066 16.374998-23.748767 29.158152-2.24055 9.406538-.224763 19.536385 4.776654 27.746818 7.456111 12.319178 20.917109 20.180306 34.9232 22.708358 10.144418 2.055254 20.630404.850328 30.479267-2.009387 5.896929 2.296946 11.183282 5.99464 16.910311 8.729099-1.464222-4.936752-3.041514-9.839477-4.73064-14.704332 6.406628-4.5639 12.250464-10.22864 15.76349-17.357639 5.22618-9.926968 5.539433-22.219684.932678-32.428918zm-57.551693 3.688873c-1.451225 4.5639-8.12863 5.939951-11.337253 2.455721-3.548423-3.207256-2.169759-9.934025 2.48124-11.363 5.173087-2.169925 11.12311 3.761204 8.856013 8.907279zm33.687889.633336c-1.766247 4.110509-7.941032 5.056103-10.986835 1.877074-1.477772-1.323125-1.837039-3.332512-2.428148-5.109028.789325-3.198434 2.930767-6.530946 6.576528-6.673843 5.045662-.68979 9.471898 5.412464 6.838455 9.905797z"/></g></g></svg>