<svg height="235" viewBox="0 0 313 235" width="313" xmlns="http://www.w3.org/2000/svg"><g fill="none"><g fill="#427fe0" transform="translate(7 38)"><path d="m29.5271882 182.910998h-28.86820301l-.49772764-18.332508h28.86820295z"/><path d="m66.8567609 182.910998h-28.8682029l-.4977277-30.719339h28.868203z"/><path d="m103.688606 182.910998h-28.8682029v-45.583535h28.3704749z"/><path d="m141.018179 182.910998h-28.868203l-.497728-72.834562h28.868203z"/><path d="m177.850024 182.910998h-28.370475l-.497728-96.1218033h28.868203z"/><path d="m215.179597 182.910998h-28.868203l-.497728-127.832089h28.868203z"/><path d="m252.50917 182.910998h-28.868203l-.497728-138.7324998h28.868203z"/><path d="m289.341015 182.910998h-28.868203v-182.82961593h28.868203z"/></g><path d="m70.3422562 234.871517c51.9980878 0 91.6156788-19.262826 90.6252388-18.768907 45.56023-18.768908 86.66348-47.416188 118.852773-84.954003l4.952199 3.951349 16.837476 12.347965c1.485659.987838 2.971319.987838 4.456979.987838.495219 0 .990439 0 1.485659-.493919 2.97132-1.481756 5.447419-4.445268 4.952199-7.902698l.49522-72.1121186c-.49522-3.4574303-2.971319-5.9270234-5.942639-5.9270234-.49522 0-1.485659 0-1.980879 0l-69.330784 19.7567448c-1.48566 0-2.4761.9878373-3.466539 1.9756745-1.98088 1.4817559-2.97132 3.951349-2.4761 6.4209421.49522 1.4817558.99044 3.9513489 3.961759 5.4331048l13.866157 10.3722908 8.913958 6.914861c-27.732313 36.549978-64.873805 68.16077-91.120459 83.472247-34.665392 19.756745-59.921606 28.64728-100.5296365 33.092547-5.4474188.493919-10.8948375.987838-10.8948375 3.457431 0 1.481756 10.8948375 2.469593 16.3422562 1.975674z" fill="#000" opacity=".3"/><path d="m15.9367986 172.871517c52.0849717 0 91.7687594-19.262826 90.7766654-18.768907 45.636356-18.768908 86.808286-47.416188 119.051364-84.9540031l4.960473 3.9513489 16.86561 12.3479655c1.488142.9878373 2.976284.9878373 4.464426.9878373.496047 0 .992095 0 1.488142-.4939186 2.976284-1.4817559 5.456521-4.4452676 4.960474-7.902698l.496047-72.11211855c-.496047-3.45743035-2.976284-5.92702345-5.952568-5.92702345-.496048 0-.992095 0-1.98419 0l-69.446629 19.7567448c-1.488142.4939186-2.480236.9878373-3.472331 1.9756745-1.984189 1.4817559-2.976284 3.951349-2.480237 6.4209421.496048 1.4817558.992095 3.9513489 3.968379 5.4331048l13.889326 10.372291 8.928852 6.9148607c-27.778651 36.5499779-64.486155 68.1607701-90.776665 83.4722471-34.7233144 19.756745-60.0217292 28.64728-100.6976119 33.092547-5.45652087.493919-10.91304172.987838-10.91304172 3.457431-.9920947 1.481756 9.920947 2.469593 15.87351522 1.975674z" fill="#ff5254"/></g></svg>