<svg height="254" viewBox="0 0 311 254" width="311" xmlns="http://www.w3.org/2000/svg" xmlns:xlink="http://www.w3.org/1999/xlink"><mask id="a" fill="#fff"><path d="m0 .12308426h98.4634007v57.48068694h-98.4634007z" fill="#fff" fill-rule="evenodd"/></mask><mask id="b" fill="#fff"><path d="m.0041443.07316455h88.4028799v57.15646645h-88.4028799z" fill="#fff" fill-rule="evenodd"/></mask><mask id="c" fill="#fff"><path d="m17.1786168.3236319c2.9356262 2.71332516 5.1890841 6.78714111 5.8105421 10.6019632.1265047.0590429.2613832.109546.3792149.1769816l13.8929346 7.9497423v10.748319l-26.7718878-15.3195092 2.265271-1.2879018.0001495-.0488834c.0062804-2.1729571-1.5499065-4.82709207-3.47035512-5.91872397l-3.42325234-1.94620859-2.26557009 1.28804908c-2.52321495 1.43440491-3.69181308 3.34969325-3.53016822 5.23199998-.00942056-.109546-.02811215-.2187975-.02811215-.3284908l.01734579 6.058454c.00508411 1.7521473 1.17173832 3.5017914 3.50265421 4.8354847l28.99185042 16.5898895c1.366729.7819878 2.9882617 1.3292761 4.7120748 1.6558528v7.382135s23.4929346-8.6145276 26.3784673-16.8954111c2.3352523-6.7023313-8.0218318-20.0508957-8.0218318-20.0508957l-18.3566355-3.84456439-8.8240748-5.04927607c-2.3422803-1.34031902-5.4237009-2.00731289-8.5103551-2.00731289-.9223178 0-1.844486.05948467-2.7482617.17830675" fill="#fff" fill-rule="evenodd"/></mask><mask id="d" fill="#fff"><path d="m17.1786168.3236319c2.9356262 2.71332516 5.1890841 6.78714111 5.8105421 10.6019632.1265047.0590429.2613832.109546.3792149.1769816l13.8929346 7.9497423v10.748319l-26.7718878-15.3195092 2.265271-1.2879018.0001495-.0488834c.0062804-2.1729571-1.5499065-4.82709207-3.47035512-5.91872397l-3.42325234-1.94620859-2.26557009 1.28804908c-2.52321495 1.43440491-3.69181308 3.34969325-3.53016822 5.23199998-.00942056-.109546-.02811215-.2187975-.02811215-.3284908l.01734579 6.058454c.00508411 1.7521473 1.17173832 3.5017914 3.50265421 4.8354847l28.99185042 16.5898895c1.366729.7819878 2.9882617 1.3292761 4.7120748 1.6558528v7.382135s23.4929346-8.6145276 26.3784673-16.8954111c2.3352523-6.7023313-8.0218318-20.0508957-8.0218318-20.0508957l-18.3566355-3.84456439-8.8240748-5.04927607c-2.3422803-1.34031902-5.4237009-2.00731289-8.5103551-2.00731289-.9223178 0-1.844486.05948467-2.7482617.17830675z" fill="#fff" fill-rule="evenodd"/></mask><mask id="e" fill="#fff"><path d="m17.1786168.3236319c2.9356262 2.71332516 5.1890841 6.78714111 5.8105421 10.6019632.1265047.0590429.2613832.109546.3792149.1769816l13.8929346 7.9497423v10.748319l-26.7718878-15.3195092 2.265271-1.2879018.0001495-.0488834c.0062804-2.1729571-1.5499065-4.82709207-3.47035512-5.91872397l-3.42325234-1.94620859-2.26557009 1.28804908c-2.52321495 1.43440491-3.69181308 3.34969325-3.53016822 5.23199998-.00942056-.109546-.02811215-.2187975-.02811215-.3284908l.01734579 6.058454c.00508411 1.7521473 1.17173832 3.5017914 3.50265421 4.8354847l28.99185042 16.5898895c1.366729.7819878 2.9882617 1.3292761 4.7120748 1.6558528v7.382135s23.4929346-8.6145276 26.3784673-16.8954111c2.3352523-6.7023313-8.0218318-20.0508957-8.0218318-20.0508957l-18.3566355-3.84456439-8.8240748-5.04927607c-2.3422803-1.34031902-5.4237009-2.00731289-8.5103551-2.00731289-.9223178 0-1.844486.05948467-2.7482617.17830675" fill="#fff" fill-rule="evenodd"/></mask><mask id="f" fill="#fff"><path d="m11.1144935.10590099-1.25594805.25712871c-.62041558.13154456-1.2917922.33877228-1.94587013.58481188.03896104.09647525.05953247.20736634.06.33253466.00202598.66714851-.57257142 1.52807921-1.36831168 2.12924752-.00483117 1.3530099-.26649351 2.56990099-.59205195 2.73706931-.3254026.16716832-.59376624-.77720792-.60732468-2.12065347-.79761039.21748515-1.37625974-.05184158-1.37844156-.71926732-.00046753-.12017822.01885715-.24673268.05376624-.37675248-.64519481.4219406-1.28867533.88574258-1.93823377 1.39584159l-1.27901298 1.04750495c-.4761039.3900594-.8029091 1.0070297-.8013562 1.51518812l.00312243.9560198c.32555844.08011881.8745974-.07166337 1.43844156-.36122773.19293506-.09897029.38727272-.21415841.57522078-.34154455.26431168.94271287.78981818 3.11215842.7972987 5.51558412.00155844.4321981-.05205195.8419406-.13761039 1.2432278.76597402.0221782 1.93994805-.3813268 3.1478961-1.0014852 1.2455065-.6395643 2.52716883-1.5097822 3.43558442-2.3823564-.08758442-.3113268-.14353247-.66409903-.14493507-1.09504953-.00763636-2.40813861.50088312-5.11415841.75849351-6.32120792.17579222-.07443564.35625972-.15774257.53548052-.24964356.5554286-.28512872 1.0974545-.65370297 1.4495065-1.09740594l-.002961-.9560198c-.0014026-.44037624-.2446754-.71122773-.6199481-.71122773-.057974 0-.1190649.00637624-.1828052.01968317" fill="#fff" fill-rule="evenodd"/></mask><mask id="g" fill="#fff"><path d="m11.1144935.10590099-1.25594805.25712871c-.62041558.13154456-1.2917922.33877228-1.94587013.58481188.03896104.09647525.05953247.20736634.06.33253466.00202598.66714851-.57257142 1.52807921-1.36831168 2.12924752-.00483117 1.3530099-.26649351 2.56990099-.59205195 2.73706931-.3254026.16716832-.59376624-.77720792-.60732468-2.12065347-.79761039.21748515-1.37625974-.05184158-1.37844156-.71926732-.00046753-.12017822.01885715-.24673268.05376624-.37675248-.64519481.4219406-1.28867533.88574258-1.93823377 1.39584159l-1.27901298 1.04750495c-.4761039.3900594-.8029091 1.0070297-.8013562 1.51518812l.00312243.9560198c.32555844.08011881.8745974-.07166337 1.43844156-.36122773.19293506-.09897029.38727272-.21415841.57522078-.34154455.26431168.94271287.78981818 3.11215842.7972987 5.51558412.00155844.4321981-.05205195.8419406-.13761039 1.2432278.76597402.0221782 1.93994805-.3813268 3.1478961-1.0014852 1.2455065-.6395643 2.52716883-1.5097822 3.43558442-2.3823564-.08758442-.3113268-.14353247-.66409903-.14493507-1.09504953-.00763636-2.40813861.50088312-5.11415841.75849351-6.32120792.17579222-.07443564.35625972-.15774257.53548052-.24964356.5554286-.28512872 1.0974545-.65370297 1.4495065-1.09740594l-.002961-.9560198c-.0014026-.44037624-.2446754-.71122773-.6199481-.71122773-.057974 0-.1190649.00637624-.1828052.01968317" fill="#fff" fill-rule="evenodd"/></mask><mask id="h" fill="#fff"><path d="m17.164979.19833129c2.9286341 2.71332515 5.1768392 6.78699386 5.7968485 10.60196321.1262098.0588957.2606247.109546.378331.1769816l13.8605501 7.9497423v10.7481718l-26.7094825-15.319362 2.2601399-1.2880491v-.0487362c.0062657-2.172957-1.5462937-4.82709198-3.46226577-5.91872388l-3.41527272-1.94620859-2.26028905 1.28790184c-2.51748252 1.43469939-3.68335664 3.34984049-3.52193939 5.23200003-.0093986-.1093988-.02819581-.2186503-.02819581-.3281963l.01745455 6.0581595c.00492308 1.7522944 1.16900699 3.5019386 3.49448951 4.8356319l28.92427038 16.5898895c1.3635431.782135 2.9812961 1.3292761 4.7010909 1.656v7.3819878s23.4381725-8.6145276 26.316979-16.8955583c2.3299581-6.7021841-8.0031328-20.0507485-8.0031328-20.0507485l-18.3138462-3.8445644-8.8033566-5.04927608c-2.3369697-1.34046625-5.4113567-2.00731288-8.4906667-2.00731288-.9201678 0-1.8401865.05948466-2.7417063.17830675" fill="#fff" fill-rule="evenodd"/></mask><mask id="i" fill="#fff"><path d="m17.164979.19833129c2.9286341 2.71332515 5.1768392 6.78699386 5.7968485 10.60196321.1262098.0588957.2606247.109546.378331.1769816l13.8605501 7.9497423v10.7481718l-26.7094825-15.319362 2.2601399-1.2880491v-.0487362c.0062657-2.172957-1.5462937-4.82709198-3.46226577-5.91872388l-3.41527272-1.94620859-2.26028905 1.28790184c-2.51748252 1.43469939-3.68335664 3.34984049-3.52193939 5.23200003-.0093986-.1093988-.02819581-.2186503-.02819581-.3281963l.01745455 6.0581595c.00492308 1.7522944 1.16900699 3.5019386 3.49448951 4.8356319l28.92427038 16.5898895c1.3635431.782135 2.9812961 1.3292761 4.7010909 1.656v7.3819878s23.4381725-8.6145276 26.316979-16.8955583c2.3299581-6.7021841-8.0031328-20.0507485-8.0031328-20.0507485l-18.3138462-3.8445644-8.8033566-5.04927608c-2.3369697-1.34046625-5.4113567-2.00731288-8.4906667-2.00731288-.9201678 0-1.8401865.05948466-2.7417063.17830675z" fill="#fff" fill-rule="evenodd"/></mask><mask id="j" fill="#fff"><path d="m17.164979.19833129c2.9286341 2.71332515 5.1768392 6.78699386 5.7968485 10.60196321.1262098.0588957.2606247.109546.378331.1769816l13.8605501 7.9497423v10.7481718l-26.7094825-15.319362 2.2601399-1.2880491v-.0487362c.0062657-2.172957-1.5462937-4.82709198-3.46226577-5.91872388l-3.41527272-1.94620859-2.26028905 1.28790184c-2.51748252 1.43469939-3.68335664 3.34984049-3.52193939 5.23200003-.0093986-.1093988-.02819581-.2186503-.02819581-.3281963l.01745455 6.0581595c.00492308 1.7522944 1.16900699 3.5019386 3.49448951 4.8356319l28.92427038 16.5898895c1.3635431.782135 2.9812961 1.3292761 4.7010909 1.656v7.3819878s23.4381725-8.6145276 26.316979-16.8955583c2.3299581-6.7021841-8.0031328-20.0507485-8.0031328-20.0507485l-18.3138462-3.8445644-8.8033566-5.04927608c-2.3369697-1.34046625-5.4113567-2.00731288-8.4906667-2.00731288-.9201678 0-1.8401865.05948466-2.7417063.17830675" fill="#fff" fill-rule="evenodd"/></mask><g fill="none" fill-rule="evenodd"><g><path d="m98.4634007 6.78797684-86.9014135 50.81579436-11.56206036-6.6647453 86.90155976-50.81594164z" fill="#d9d9d9" mask="url(#a)" transform="translate(0 71.103572)"/><path d="m9.13268746 55.6479667.00453563 1.5816496 84.74742671-49.23046445.1775005 62.97126655c.0084604 3.0131427-2.0975364 6.6834413-4.7037697 8.1973733l-75.3077501 43.7468043c-2.6076964 1.514962-4.72759276.29943-4.73607878-2.713713l-.17732863-62.9712667z" fill="#f0f0f0"/><path d="m89.1458057 3.70277372c2.6062333-1.51393196 4.7259834-.29854668 4.7344694 2.71459599l.0043893 1.58179686-84.74742668 49.23046443-.00456118-1.5816496c-.00846047-3.0131427 2.09753636-6.6834414 4.70537916-8.1984038z" fill="#5b96fd"/><path d="m14.611981 49.5527418c.3423671-.1988839.6183092-.0347422.6193334.3552234l.004393 1.5772333c.0011668.3898183-.2728733.8675224-.6152404 1.0664063l-2.2253864 1.2926718c-.3372463.1959397-.6181629.0407778-.6193334-.3490405l-.0045385-1.5773805c-.0010213-.3898183.2781396-.8765024.6153858-1.0722949z" fill="#fff"/><path d="m19.8315144 46.5168401c.3423671-.1988839.6181629-.0347422.6193334.3550762l.004393 1.5773805c.0011668.3898183-.2730195.8673752-.6152404 1.0662591l-2.2202655 1.2897275c-.3425135.1988839-.6183092.0407779-.6193334-.3490405l-.0043931-1.5773805c-.0011667-.3898183.2728733-.8734109.6152404-1.0722948z" fill="#fff"/><path d="m25.2185005 43.4234372c.3372462-.1959397.6181629-.0347421.6193334.3550762l.0043929 1.5773805c.0011669.3898184-.2781404.8704667-.6152403 1.0662592l-2.2255328 1.292819c-.3423671.1988839-.6181629.0407778-.619187-.3491878l-.0045385-1.5773805c-.0010213-.3898183.2730187-.8734109.6153858-1.0722948z" fill="#fff"/><path d="m83.3751051.39358698c-.8581126-.50169974-2.0464484-.43103781-3.3578316.33078618l-75.30775007 43.74695114c-2.60784273 1.5148152-4.7138396 5.1851139-4.70537913 8.1982565l.00441488 1.5816497 5.03191915 2.9784005-.00453563-1.5816496c-.00848603-3.0131427 2.09751084-6.6834414 4.70535357-8.1984038l75.30775003-43.74680388c1.3115295-.76182399 2.4998654-.83248593 3.3579779-.33078619z" fill="#497acf" mask="url(#b)" transform="translate(4.096701)"/><path d="m9.31456635 120.200942-.17732863-62.971414-5.03191915-2.9782534.17732862 62.9712664c.00424302 1.496708.52935228 2.549866 1.3764915 3.045088l5.03191911 2.978548c-.84713918-.495517-1.37224844-1.548527-1.37649145-3.045235" fill="#c9c9c9"/><path d="m68.8358259 27.8456015-39.7943281 22.920229v15.9036462l39.7943281-22.9203763z" fill="#fff"/><path d="m68.8358259 48.1948991-39.7943281 22.920229v37.5837579l39.7943281-22.9202287z" fill="#fff"/><path d="m66.3456902 61.9172849-34.8140566 20.0517961v22.079941l34.8140566-20.0517962z" fill="#6ebceb"/><path d="m31.5315165 104.048992 34.8142029-19.9990936v-3.0054877l-34.8142029 19.9992413z" fill="#c4c4c4"/><path d="m57.9938339 87.2941645v.3450657l-17.3656224 10.0877273v-.3450658z" fill="#d4d4d4"/><path d="m43.668739 94.9683303c-.12056.0700731-.218003.2399561-.217711.3793663l.0029268 1.0477104c.000439.1394101.0986135.1956452.2191735.1257193l.9062488-.5265786c.12056-.0699259.2181493-.2399562.2177119-.3792191l-.0029277-1.0478576c-.000439-.1394101-.0986135-.1956452-.2191735-.1257193z" fill="#fff"/><path d="m47.5516067 80.5186565 4.534609.3920265-4.5176369 5.650305z" fill="#fff"/><path d="m48.9542878 87.9920541c-2.575508 1.4962665-4.6768229.2913333-4.6853339-2.6854479-.0083148-2.976634 2.0793933-6.6149876 4.6549013-8.1111069 2.5746302-1.4956776 4.6759451-.2907444 4.684456 2.6858896.0083149 2.976634-2.0793932 6.6151348-4.6540234 8.1106652m-.0317494-11.2688121c-2.8003877 1.6266967-5.0702526 5.5834706-5.0612084 8.8202289.0092447 3.236611 2.293887 4.5476843 5.0942746 2.9208405 2.7995098-1.626255 5.0693747-5.5830289 5.0601851-8.81964-.0090992-3.236611-2.2937415-4.5476843-5.0932513-2.9214294" fill="#fff"/><path d="m88.8023851 47.0040541v-31.1006729l-15.6072598 8.9893758v31.1005257z" fill="#fff"/><path d="m86.6830301 44.4148978-7.6116702 4.4216705.0013168.475496 7.6103534-4.4207873z" fill="#e8e8e8"/><path d="m82.7401311 45.0419194-7.2100473 4.1884862.0013168.4754959 7.2087305-4.1877501z" fill="#e8e8e8"/><path d="m83.5292727 44.5835295v.476232l3.1537281-1.8319106v-.4763793z" fill="#e8e8e8"/><path d="m78.3773934 49.2396947.0013168.4754959-2.8426715 1.6514283-.0013168-.4756431z" fill="#e8e8e8"/><path d="m86.6830301 46.078368-11.1436116 6.4733693.0013168.4756432 11.1422948-6.4727805z" fill="#e8e8e8"/><path d="m86.9772171 39.8618843v-19.2347675l-11.9569531 6.8867416v19.2347675z" fill="#6ebceb"/><path d="m84.3644144 28.9945498c-.1133908 0-.2440463.040925-.3831878.1220391l-5.8083903 3.3741073c-.5217441.3028159-.960969 1.0684674-.959364 1.6718909l.0102462 3.643506c.0007316.2582105.0791541.4456118.2210755.5277563.1423604.0822917.3454397.0563823.5709046-.0744894l5.8083902-3.3741074c.5220368-.3031103.9617006-1.0690562.9600956-1.6723325l-.0103925-3.643506c-.0008779-.2580633-.0793004-.4453174-.2210755-.5273147-.054574-.0317979-.1182191-.0475496-.188302-.0475496m-6.7327815 9.7375091c-.129924 0-.2518008-.0313563-.360656-.094216-.2539955-.1472123-.3946001-.4420787-.395478-.8305721l-.0103935-3.643506c-.0018966-.73827.4959989-1.6063814 1.1334748-1.9767677l5.808244-3.3741074c.3373926-.196234.6642508-.2227323.9197093-.0747838.2538492.1472123.3944538.4419315.395478.8302777l.0103943 3.643506c.0020421.7379756-.496146 1.6065286-1.1340609 1.9770621l-5.8083902 3.3741074c-.1935692.112323-.3834805.1689998-.5583218.1689998" fill="#fff"/><path d="m81.0812159 32.1966984c-.7355041.4270631-1.332013 1.4663824-1.3296789 2.3165338.0010311.3720056.1180797.6442013.3294987.7668292.213321.1238056.5100392.0878858.8351417-.1011349.7355041-.4270631 1.3317204-1.4659407 1.3292409-2.3157977-.0011783-.3724473-.1183732-.6449374-.3297922-.767418-.2134674-.1236584-.5097466-.0875914-.8344102.1009876m-.7161911 3.5063041c-.1656237 0-.3201279-.0394529-.4578063-.1190948-.3236394-.1876957-.5027237-.5673564-.5040484-1.069645-.0026257-.9783734.657821-2.1297213 1.5037897-2.6212634.4371765-.2540885.8565031-.2897139 1.1824835-.1011349.3237857.1875486.5030163.5676509.5041954 1.0703811.0027713.9618856-.6715749 2.1372291-1.5032052 2.6203801-.2525323.1466235-.4993586.2203769-.7254087.2203769" fill="#fff"/><path d="m82.1201685 29.2574858-2.0915121 1.2149437c-.1591861.0925965-.3087156.3109125-.3555351.519218l-.0572075.2558551 2.7976078-1.6252246-.1057827-.3427103c-.0099491-.0313563-.023556-.0509355-.0412596-.0578545-.0244339-.009716-.0760816-.0052996-.1464571.0357726zm-3.0189759 2.6936919.2321952-1.0365223c.0681808-.3047296.2775515-.604454.5210125-.7459251l2.0916584-1.2149436c.1549431-.0897995.313544-.1107037.447272-.0585905.1173412.0462247.2051277.145593.2468262.2799979l.1888872.6106369z" fill="#fff"/><path d="m88.8023851 74.631531v-23.5656081l-15.6072598 8.9893759v23.5654608z" fill="#fff"/><path d="m86.6830301 72.0435229-7.6116702 4.4216706.0013168.4754959 7.6103534-4.4209345z" fill="#e8e8e8"/><path d="m82.7401311 72.6704709-7.2100473 4.1884862.0013168.475496 7.2087305-4.187603z" fill="#e8e8e8"/><path d="m83.5292727 72.2120811v.476232l3.1537281-1.8319107v-.4763792z" fill="#e8e8e8"/><path d="m78.3773934 76.8683198.0013168.475496-2.8426715 1.6512811-.0013168-.475496z" fill="#e8e8e8"/><path d="m86.6830301 73.7069196-11.1436116 6.4733693.0013168.4756431 11.1422948-6.4726332z" fill="#e8e8e8"/><path d="m64.8223466 57.866722-18.4080864 10.6933589.001902.6796795 18.4061844-10.6921812z" fill="#b3b3b3"/><path d="m44.3468454 69.7610099.0019021.6796795-5.3036182 3.0810076-.0020484-.6796795z" fill="#b3b3b3"/><path d="m60.4633983 58.0211919.0019021.6787962-21.4269161 12.4470998-.001902-.6789434z" fill="#34a2d1"/><path d="m64.8223466 53.1113504-25.7925361 14.9831272.0019021.6787963 25.790634-14.9819496z" fill="#ff6c63"/><path d="m34.0008615 70.1567904c1.768019-1.0271007 3.2066926-.2021226 3.212562 1.8420683.0056891 2.0461046-1.4236205 4.5351713-3.1916396 5.5621248-1.7699211 1.0281311-3.2068389.2043307-3.2125629-1.8419212-.0058345-2.0441908 1.4217194-4.5341408 3.1916405-5.5622719" fill="#ffdd45"/><path d="m74.3999211 74.8667911-.0675955-11.4525331 13.1452889-7.636347.0675955 11.4525331z" fill="#6cf"/><path d="m87.6992021 55.3890496-.3335885.1937314-13.1452889 7.636347-.1128056.0655095.0008779.1308718.0675955 11.4525331.002341.3876101.3335885-.1937314 13.1452889-7.636347.1126593-.0655095-.0007316-.1308718-.0675955-11.4526803zm-.2216608.388935.0677419 11.4525331-13.1452889 7.636347-.0677419-11.4526803z" fill="#fff"/><path d="m84.2950485 66.4258844-.5760254.7730121-.3537794.4747599.5398867-.2830894.1970805-.3278419.1714762.1748883.3948927-.4127835.5028701-.0939215z" fill="#fff"/><path d="m80.7487979 68.0501667-.2817945.4911005 1.2768539 1.3123982 1.6233177-2.1809512.3518774-.4737294-1.170486-.6711411-.0555981.4479672-.5014069-.1204197-.4854591.8159981-.1988363-.2811756z" fill="#666"/><path d="m81.8516298 66.128221-1.1028904 1.9220046.5584681-.6601002.1988363.2811756.4854591-.8158509.5015532.1202725.0554518-.4479673z" fill="#ccc"/><path d="m79.9820272 68.0429091-1.4844688 2.0162206.5213052-.440165.2643835.1821017.5254019-.7781645.6728831.1887262.2175641-.4314794z" fill="#fff"/><path d="m78.4977632 70.0588205-.5431055.7376812 1.4173122 1.1903592 2.8357949-1.6564335-.0133143-.0136908-.4504908-.4631301-1.2770002-1.312251-.4848738-.4984611.7169227.7372395-.2175641.4314795-.6727368-.1887263-.5255482.7781646-.2642372-.1821017z" fill="#966"/><path d="m81.7439012 69.8536654 1.6231714-2.1809512.5379846-.2820589.1972269-.3278419.1714762.1747411.3947464-.4127835.50287-.0937743 2.0214293.7035279-1.5271916.8806244-2.9471373 1.7229735-.5151602.2970745-1.3930246.8033379z" fill="#996"/><path d="m77.4858781 70.4028411-.6919035 1.2103801.2648224-.2611548.1593324.2586522.2756495-.404098.3824563-.0088327.1786454-.3169482z" fill="#fff"/><path d="m77.4858781 70.4028411.5690025.4779986-.1786454.3169482-.3824563.0088327-.2756495.404098-.1593324-.2586522-.2646761.2608604-1.5906904 2.7865828.1761581-.1011349 2.6910935-1.5513239 1.3015804-.7599102-1.4176048-1.1906536z" fill="#996"/><path d="m84.3611956 62.6657862-.475071.0970129.345586-.4325099.0857381-.1073178-.3719219-.1710608.496286-.3490405-.2042498-.4093976.4753636-.0978962-.0014631-.5770725.3722145.1701775.2017626-.6450846.2046887.408956.3701662-.6013625.001902.576778.4741932-.4537085-.2011773.6449374.4964323-.2277376-.3694346.601657.4326409.038128-.4739005.4541501.2943772.2967802-.4965787.2284735.1050511.5042024-.4332261-.0369503-.0049745.0310618-.097443.5937075-.2949625-.2960441-.2921825.6371351-.1057827-.5037607-.4314704.5392389.1018323-.6246221-.496286.3483045z" fill="#fc0"/><path d="m77.5029526 64.7601765c-.0165332.0095688-.0332126.0198736-.0497457.0307674-.025897.0163405-.0515014.0348893-.0769594.0541741-.0260434.0191376-.0507699.0394529-.0766669.0615348l-.0381871.0337116-.0351146.0325339c-.0270674.0264983-.0495993.049169-.0743258.0753728-.0241413.0257621-.0478436.0522604-.0709607.0799363-.0234098.0273815-.0463805.0556463-.0684735.0853832-.0223855.0292952-.0440395.0597682-.0652546.09083-.021215.0307674-.0415522.0631541-.0610115.0961297-.0196057.0326811-.0384798.0662455-.0561834.1008404-.0177036.0341533-.0340904.0696315-.049453.1054041-.0020483.004858-.0040967.009716-.006145.0147212-.0036578.0008833-.0073156.002061-.0109733.0032387-.0269212.0082439-.0542813.0179599-.0814951.0304729-.0273601.0123659-.0542813.0264983-.0813488.0419556-.0026336.0014721-.0052672.0029442-.0079008.0045636-.0242876.0141323-.0487215.0295896-.0725701.0466663-.0264823.0182543-.0528182.0376863-.0787152.0585905-.0263359.0203153-.0516477.0423972-.0771058.0658039-.0256043.0228179-.0500382.0462247-.0749111.0715452-.0124364.0128075-.0257507.0262038-.0371629.0384225l-.0345293.0378335c-.0234097.0264983-.0463805.0537326-.0689124.0818501-.0225318.0278231-.0446248.0562351-.0656935.085972-.0210688.0290009-.0419912.058885-.0615968.0897996-.019752.0303257-.0387724.0613875-.0567686.0931854-.0181425.0317979-.0351146.063743-.0510625.0959825-.0159478.0323867-.0313105.0647734-.0441858.097749-.0136069.0326811-.0256044.0656567-.0359924.0981906-.0100955.0326812-.0184352.0646262-.0247266.0961297.0152164-.0319451.0297011-.0630069.0462342-.0927438.0159479-.0298841.032481-.059621.0506236-.088033.0177036-.0285592.0355535-.0566767.0541349-.083911.0184352-.0273815.0377482-.0538798.0576465-.0796419.0196056-.0260566.0393576-.0515244.0596947-.0759616.0204835-.0245845.0408207-.0487273.0618895-.0719869.0207761-.0232595.0419912-.0459302.0633525-.0680121.0210688-.0220818.0430154-.0426916.0646694-.0638901l.0335052-.0313563c.0117048-.0105993.0216539-.0186959.0323346-.0281175.0213614-.0184016.0438933-.0378336.0658399-.054763.0220929-.0178127.0444784-.0341533.066425-.0497578.022093-.0158989.0443322-.030473.0661325-.0438693.0099491-.0060357.0197519-.0119242.0295548-.0175183.0339441-.0198736.0677418-.0372447.1005155-.0503466.021215-.0089799.0418448-.0163406.0618894-.0217874.0204835-.0061829.0395039-.0094216.0585243-.0120714.0106807-.0013249.0212151-.0052997.0314568-.0111882.010827-.0063301.0215077-.0148684.0314568-.0250261.0234097-.0239956.0389187-.0503466.0476973-.0768448.0096565-.0288537.0190204-.0552047.0304327-.0818501.0111196-.0269399.0232634-.0540269.0368703-.0808196.0260433-.0540269.0570612-.1077594.0898348-.1604615.0165331-.0266454.0337977-.0529964.0515013-.0783169.01785-.0257622.0361388-.0513772.0550129-.0765505.0187278-.0253205.0383334-.0497578.057939-.0737534.0191667-.0237012.0412597-.0493161.0592559-.0703675l.0333588-.0368031.0308716-.0329755c.0207761-.0217875.0427227-.0437221.0643767-.0647735.0218003-.0213458.0438933-.0416611.0664251-.0610931.0223856-.0201681.0450637-.0388641.0680345-.0569712.0225319-.0184015.0457953-.036067.069205-.0522604.0234097-.016635.0468194-.0310618.0705218-.045783.0052672-.0032387.0105343-.0064774.0159478-.0094216.0185815-.0108937.0370167-.0204625.0558907-.0292953.0242876-.0126602.04799-.0213458.0727165-.0310618-.0209225-.0030915-.043308-.0033859-.0665714-.0014721-.0232634.0023554-.047551.006919-.0719849.0138379-.0247265.0060358-.0497456.0156046-.0752037.0262038-.0253118.0105993-.0507698.022818-.0765205.0362143-.0090713.004858-.0182889.0100104-.0273601.0153101" fill="#fff"/><path d="m80.2878605 61.225637c-.124803.0724285-.2383402.2116914-.3052042.3662644-.0495993-.016635-.1098793-.0131019-.177036.0148685-.0177036.0073606-.0351145.0161933-.0523792.0262038-.1805475.1048152-.3376852.3499238-.3632896.5776613-.0013168.0129547-.002341.0253205-.0027799.0376863-.1185117.1235112-.2090781.3007549-.2278058.4687242-.0280917.249525.1126592.3837826.3142754.2998716.0175573-.0072134.0349683-.0158989.052233-.0260566.0572075-.0331228.112074-.0805252.1610881-.1367603.0349683.0001472.073448-.0078022.1142687-.0247317.0175573-.0073606.0349683-.0160461.0520866-.0260565.0896885-.0521132.1735246-.1386741.2384865-.240545.0566223.059621.1447014.074931.2493136.0313562.0177036-.0073606.0351145-.0160462.0523792-.0262038.1420677-.0824389.2695044-.2517332.3299307-.4310378.0059988-.0022082.0117049-.0042692.0178499-.0067718.0175573-.0073606.0349683-.0161933.0523793-.0262038.1804011-.1048152.3376852-.3499238.362997-.5776613.0280916-.2496722-.1126593-.3839298-.3141292-.2998716-.0177036.0072134-.0351146.0160462-.0523793.0260566-.0485751.0281176-.0953946.06654-.1384099.1120286-.028238-.1595782-.1505538-.2318595-.3116419-.1648778-.0175573.0073606-.0349683.0160461-.052233.0260565" fill="#fff"/><path d="m84.9670245 57.9838147c-.0680345.0396001-.1300703.1155617-.1665016.1999144-.0270675-.0091272-.0599874-.0070662-.0967114.0082439-.0095102.0038275-.0190204.0086855-.0285306.0141324-.0984672.0572656-.1842053.1909344-.1982511.3151816-.0007315.0070662-.0011705.0139852-.0014631.0206098-.0646694.0674232-.1141224.1641417-.1243641.2557078-.0152164.1363187.0614505.2094832.1714762.1637002.0096565-.0039747.0191667-.0086855.0285306-.0142796.0313105-.0181071.0611578-.0438693.0879327-.0744895.0190204 0 .0400892-.0044163.0623284-.0136907.0095102-.0039748.0190204-.0086855.0283843-.0141324.0488678-.028412.094663-.0756672.1302165-.1311662.0308716.0323867.0790078.0407778.136069.0170766.0096565-.0041219.0191667-.0088327.0285306-.0142796.0775447-.045047.1470423-.1374963.1801086-.2352453.0030725-.0011777.0062913-.0023554.0096565-.0036804.0095102-.0039747.0191667-.0088327.0285306-.0142796.0984671-.0572656.1843515-.1910816.198251-.3153288.0152163-.1361715-.0615968-.2094832-.1716225-.163553-.0095102.0039748-.0191667.0086856-.0285306.0142796-.0264822.0153101-.0519403.0362143-.0754963.0610932-.0153627-.0870026-.0820804-.1266027-.1700131-.090094-.0096565.0041219-.0191667.0088327-.0285306.0142796" fill="#fff"/><g fill="#c9c9c9"><path d="m24.800081 80.8104167-5.4158385 3.1460754.0020483.711919 5.4137902-3.1448977z"/><path d="m24.800081 78.3203195-10.7171158 6.2256109.0020484.7117718 10.7150674-6.2244332z"/><path d="m18.3453337 84.5600187.0020484.7117717-4.255448 2.4719901-.0019021-.7117718z"/><path d="m24.800081 83.3006022-10.70307 6.2175142.0019021.7117717 10.7011679-6.2163365z"/><path d="m23.5405796 92.5832397.0020483.7117718-9.4506499 5.4899907-.0020484-.7117718z"/><path d="m24.800081 94.3417356-4.3700093 2.53853.0020483.711919 4.367961-2.5373523z"/><path d="m24.800081 89.3614677-10.7171158 6.2257581.0020484.7108885 10.7150674-6.2245804z"/><path d="m18.7848366 97.8360271.0020483.7117718-4.6879425 2.7232811-.0020484-.711771z"/><path d="m23.5405796 103.131859.0020483.711772-9.4506499 5.489991-.0020484-.711919z"/><path d="m24.800081 104.890355-4.3700093 2.53853.0020483.711919 4.367961-2.537499z"/><path d="m24.800081 99.9100727-10.7171158 6.2256113.0020484.711035 10.7150674-6.22458z"/><path d="m18.7848366 108.384632.0020483.711772-4.6879425 2.723281-.0020484-.711771z"/><path d="m23.5405796 59.1140671.0020483.7117717-9.4506499 5.4899907-.0020484-.711919z"/><path d="m24.800081 60.8725629-4.3700093 2.53853.0020483.711919 4.367961-2.5374995z"/><path d="m24.800081 55.8922803-10.7171158 6.2256109.0020484.7110357 10.7150674-6.2245804z"/><path d="m18.7848366 64.3667662.0020483.7119189-4.6879425 2.7231344-.0020484-.7117718z"/><path d="m23.5405796 69.6626132.0020483.7117718-9.4506499 5.4899907-.0020484-.7117718z"/><path d="m24.800081 71.421109-4.3700093 2.5385301.0020483.7119189 4.367961-2.5373523z"/><path d="m24.800081 66.4408264-10.7171158 6.2257581.0020484.7108885 10.7150674-6.2245804z"/><path d="m18.7848366 74.9153859.0020483.7117718-4.6879425 2.7232815-.0020484-.7117718z"/></g><path d="m65.2215701 36.1214095-25.5970649 14.8694793.001902.6789434 25.5951629-14.8684488z" fill="#ff6c63"/><path d="m60.8996092 43.3874291.001902.6796794-14.6348786 8.5015141-.001902-.6796795z" fill="#b3b3b3"/><path d="m44.6930459 52.80191.0019021.6796795-5.0551826 2.9365923-.001902-.6796795z" fill="#b3b3b3"/><path d="m53.1207789 45.5285446.0019021.6796795-13.4895581 7.8362613-.0019021-.6798267z" fill="#34a2d1"/><path d="m33.9041354 52.6269481c1.7144694-.9960388 3.1095423-.1960868 3.1152651 1.7861276.0055431 1.9842755-1.3806049 4.3978222-3.0950742 5.3937139-1.716225.9969221-3.1095422.1980006-3.1151187-1.7861277-.0055432-1.9822144 1.3787028-4.3967916 3.0949278-5.3937138" fill="#ff7b57"/><path d="m65.2215701 38.4990953-10.033552 5.8285791.0020483.6795323 10.0315037-5.8272542z" fill="#34a2d1"/><g fill="#dcdcdc" transform="translate(48.867789 101.282107)"><path d="m54.8657248 26.2535734c1.0307592 0 2.0155768.2300929 2.7017742.6310994l28.3674589 16.5865643c.4930672.288389.7135575.6000376.7128277.7805199 0 .1846043-.2257593.5011109-.7295072.7937691l-7.5987948 4.4141627c-.6927814.4021842-1.6815494.6328661-2.7124549.6328661-1.0314908 0-2.0168937-.2303875-2.7044079-.6322772l-28.3674588-16.5865643c-.4917504-.287653-.7115092-.5982711-.7115092-.7787534.0007316-.1844571.2264891-.5015526.730237-.7942107l7.5987948-4.41431c.6927814-.4023314 1.6815494-.6328659 2.7130402-.6328659m20.7180405 30.6792039c3.395726 0 6.6092952-.7803728 9.0484417-2.1977334l7.5987949-4.4140155c2.6830464-1.5582429 4.1621017-3.7156401 4.1656185-6.0750127.0032135-2.3470067-1.4566751-4.4943934-4.1101668-6.046159l-28.3668736-16.5865643c-2.4258321-1.4185383-5.6332563-2.1997943-9.0304455-2.1997943-3.3958724 0-6.6100268.7805199-9.0491733 2.1974389l-7.5987949 4.4140156c-2.6830464 1.5588317-4.162248 3.7166705-4.1656185 6.0764847-.0032135 2.3465651 1.4557972 4.4929214 4.1081184 6.0436564l28.3668736 16.5865643c2.427149 1.4194216 5.6351584 2.2011193 9.0332255 2.2011193"/><path d="m50.035612 34.6206678-49.92005577-29.1545255 9.22064948-5.35632188 49.91990949 29.15452548z"/></g><path d="m61.391345 70.9157879c.0030725-1.0795083.3830415-1.8397129.994913-2.197439l5.2050048-3.0434684c-.6118715.357726-.9918405 1.1179307-.9949131 2.197439l-.0247265 8.782248c-.006145 2.169763 1.5165109 4.8235603 3.3932388 5.9136679l28.5526883 16.5865643c.9458989.5493965 1.8040117.5995959 2.4236377.2371591l-5.2048587 3.0434682c-.6199186.362437-1.4778848.312238-2.4237838-.237159l-28.5528346-16.5865642c-1.8765816-1.0901076-3.3992375-3.7439049-3.393111-5.9135207z" fill="#f2c300"/><path d="m61.3665268 79.698139.024745-8.7823953c.0061451-2.1724128 1.5388964-3.0511234 3.415478-1.9610159l28.5526883 16.5864171c1.8790689 1.0915797 3.4017248 3.745377 3.3955983 5.9177898l-.024745 8.7822483c-.0059988 2.169763-1.5387501 3.048473-3.417819 1.957041l-28.5526883-16.5865644c-1.8765816-1.0901075-3.3993839-3.7439048-3.3932573-5.9135206zm3.4564635-16.4975009c-4.6209322-2.6842702-8.3935548-.5211317-8.4086248 4.8241492l-.0247718 8.782248c-.0150247 5.3424839 3.7331639 11.8744438 8.3539499 14.558714l28.5526883 16.5865647c4.6232732 2.685595 8.3958961.522456 8.4109661-4.81988l.024771-8.7823956c.015025-5.3451338-3.7330172-11.8770936-8.3562904-14.562836z" fill="#ad8500"/><path d="m64.0677928 59.574827c1.5248506-.8916653 3.6352368-.7683013 5.9601145.5823722l28.5528346 16.5865643c4.6231271 2.6855951 8.3713151 9.2175549 8.3562911 14.5626887l-.024772 8.7823948c-.007608 2.65365-.942095 4.522953-2.447486 5.403283l-5.2050049 3.043321c1.5053909-.880182 2.4398779-2.749485 2.4473399-5.403135l.024873-8.7822482c.014923-5.3451337-3.7331189-11.8772408-8.3562459-14.5628359l-28.5528345-16.5865643c-2.3248778-1.3505263-4.435264-1.4740374-5.9601146-.5823721z" fill="#f2c300"/></g><path d="m8.64900187 9.45900368 7.76583173-4.41482208c1.9180561-1.09030675 5.0305795-1.09030675 6.9360748.00014723l28.9918505 16.58974237c.9480374.5425767 1.4225047 1.2538895 1.4245981 1.9660859l.0173458 6.0581595c-.0019439-.7120491-.4764112-1.423362-1.4245981-1.9660859l-28.991701-16.5895951c-1.9056448-1.090454-5.0181682-1.090454-6.9360747-.0001473l-7.7658318 4.4148221c-.96523365.5487608-1.44717757 1.2708221-1.44508412 1.9918528l-.01750211-6.0583068c-.00208667-.7210306.48000679-1.443092 1.4450909-1.99185272" fill="#cda410" mask="url(#c)" transform="translate(85 78)"/><path d="m37.6182579 30.0048589-28.99185042-16.5897423c-1.90549533-1.090454-1.89532711-2.8657178.02257944-3.95602458l7.76583178-4.41482208c1.9180561-1.09045399 5.0305794-1.09045399 6.9360748 0l28.9918504 16.58974236c1.9078879 1.0917791 1.8977197 2.8670429-.0203364 3.9573497l-7.7658318 4.414822c-1.9179065 1.090454-5.0304299 1.090454-6.9383178-.0013251zm-34.0225794-23.43754602c-4.72269158 2.68490798-4.74766355 7.05452762-.05562616 9.73928832l28.99170096 16.5898896c4.6942803 2.6860859 12.3557383 2.6862331 17.0782803.0013252l7.7658318-4.4146749c4.7225421-2.684908 4.747514-7.0545276.0532337-9.7407607l-28.991701-16.58974236c-4.6920374-2.68476074-12.3533458-2.68490798-17.0758878-.00014724z" fill="#ffde61" mask="url(#d)" transform="translate(85 78)"/><path d="m3.53999252 16.3066454 28.99170098 16.5897423c4.6944299 2.6862332 12.3557383 2.6863804 17.0784299.0014724l7.7658317-4.4148221c2.3760748-1.3509202 3.5630655-3.1282454 3.5579813-4.9032147l.0175116 6.0583068c.0050679 1.7749693-1.1819228 3.5522944-3.5581471 4.9032147l-7.7658317 4.4148221c-4.7226916 2.6847607-12.3838505 2.6847607-17.0782804-.0014724l-28.99185048-16.5897424c-2.33076636-1.3338404-3.4975701-3.0833374-3.50265421-4.8354846l-.01734579-6.058454c.00493458 1.7522945 1.17173832 3.5017914 3.5026542 4.8356319" fill="#b58f0d" mask="url(#e)" transform="translate(85 78)"/><g transform="translate(106 62)"><path d="m98.8813621 77.9004905-87.6914599 51.0008505-11.17285711-6.401791 87.69131251-51.0008503z" fill="#e6e6e6"/><path d="m94.4382656 70.2964049-.1539509-51.7260514-.0232768-10.81668687-85.51787942 49.40965367.02327679 10.8166869.15380357 51.7261988.00191518.657531c.00854464 3.024203 2.14750448 4.244174 4.77910718 2.723743l75.9923705-43.9059974c2.6299821-1.5195463 4.7549464-5.2030491 4.7465739-8.2272514z" fill="#fff"/><path d="m11.3299902 68.1205361.1442277 48.4880779 80.4002276-46.4529739-.1440803-48.4877828zm-.1132902 48.9365559-.1459955-49.0863433.0649687-.0374469 80.8523572-46.7136274.1459955 49.0856057-.0651161.0374469z" fill="#50c7c3"/><path d="m89.4789696 3.44172c2.6299822-1.51954629 4.768942-.29957486 4.777634 2.72448l.0044196 1.58751086-85.51787945 49.40965374-.00459264-1.5873635c-.00851897-3.0242022 2.11659269-6.7078525 4.74819529-8.2282834z" fill="#fd5b5b"/><path d="m14.9810866 49.0485422c.3117322-.1801577.5629152-.0314023.5639464.3216891l.0039809 1.4285829c.0010281.3530914-.2485344.7856468-.5602666.9658045l-2.0265535 1.1708778c-.3071652.1773565-.5629152.0368571-.5639465-.3162343l-.0041273-1.4285829c-.0008816-.3530914.2532479-.7937554.560413-.9712594z" fill="#fff"/><path d="m19.7341473 46.2987929c.3117322-.1801577.5630625-.0314023.5639465.3216892l.0041273 1.4285828c.0008816.3530914-.2486809.7856469-.5604131.9658046l-2.0218392 1.168224c-.3117322.1800103-.5629152.0368571-.5639465-.3162343l-.0039808-1.4287303c-.0010281-.352944.2485344-.7909543.5602665-.971112z" fill="#fff"/><path d="m24.6397741 43.4970751c.3070179-.177504.5629152-.0314023.5639464.3215417l.0039808 1.4287303c.0010282.3530914-.2531013.7883006-.5602665.9658046l-2.0265535 1.1708777c-.3117322.1800103-.5629152.0368571-.5639465-.3162343l-.0039808-1.4285829c-.0010281-.3530914.2485344-.7911017.5602665-.9712594z" fill="#fff"/><path d="m88.2840013.40777269c-.8659553-.503616-2.0651517-.43255543-3.3883928.33200914l-75.99237055 43.90614517c-2.63145536 1.5204308-4.75671429 5.2039337-4.74819532 8.228136l.00459264 1.5873634 4.58346428 2.7019234-.00441964-1.5873634c-.00854464-3.0242023 2.11656699-6.7077051 4.74802229-8.228136l75.9922232-43.90614514c1.3235358-.76456457 2.5225849-.83562515 3.3883929-.33200915z" fill="#cf4949"/><path d="m8.77374241 67.9769849-4.58346428-2.6913086.14658482 51.7241347 4.58331696 2.691161z" fill="#c9c9c9"/><path d="m7.51013705 121.791156 2.80087505 1.628938c-.85475897-.497129-1.38467415-1.554045-1.38894647-3.056342l-.00191518-.662839-4.58331697-2.691161.00191518.652224c.004125 1.50215 2.31662947 3.632051 3.17138839 4.12918" fill="#c9c9c9"/><path d="m4.15965 54.4615001.03064286 10.8242057 4.58346428 2.6913086-.03064285-10.8137383z" fill="#c9c9c9"/><path d="m33.3983571 51.6750411c-.6816562 0-1.3708258-.4962445-1.3737723-1.60476l-.0056093-1.9883691c-.0033773-1.1430137.77227-2.4880046 1.7656584-3.061944l34.9004465-20.1645429c.3198348-.184728.6373125-.2783451.9438884-.2783451.6815089 0 1.3705312.4960971 1.373625 1.6049074l.0057565 1.9880743c.0033774 1.1431612-.7722699 2.488152-1.7656583 3.0620914l-34.9004465 20.1643955c-.3198348.1848754-.6374598.2784925-.943741.2784925z" fill="#fff"/><path d="m34.0557643 45.4899555 30.1724598-17.4328388.0153214 5.4367234-30.1724598 17.4328389c-.8280937.4784057-1.5016473.0943543-1.5042991-.8578869l-.005607-1.9883691c-.0027903-.9520937.6664909-2.1120617 1.4945847-2.5904675" fill="#fff"/><g fill="#969696"><path d="m36.7445265 46.7838477c.0025008-.1437429-.0548599-.3342206-.2869597-.2077269-.208499.11352-.2989944.3712251-.3149366.535608zm.1992905-.0524846c.0001434.0457028-.0039203.0830023-.0061085.1074754l-.7967976.4340297c.0051578.2997223.1839605.3268492.3904277.2143612.1475436-.0802012.2363198-.1567166.3136863-.2336743l.0354793.1407943c-.0729903.0747463-.1967769.1834011-.3772989.281736-.3490092.1900354-.5582897.0542537-.5593883-.3160869-.0010896-.3712251.199282-.772968.5296921-.9529783.3704218-.2016823.4696698.0981875.4703079.3243429z"/><path d="m35.359721 46.5499522c.1518884-.0878674.2628214-.111456.3291161-.1061485l-.0528884.2109702c-.0480268-.0025062-.1480581.0039806-.2824152.0816755-.2033036.1173531-.2806473.3020811-.2803527.4185497.000442.1606971.0919286.1864971.297442.1595177.2523616-.0336137.3803839.0315497.3811229.2832103.0007342.2640446-.1688328.5916308-.5201944.7944926-.1430491.0827074-.2999464.1251668-.3797946.1098342l.0480268-.2137714c.0860357.0117943.2124375-.0107623.3448794-.0871303.1965268-.11352.3109956-.2995748.3105536-.4719188-.0004419-.15996-.0804375-.2056629-.2813839-.1782412-.243375.0409852-.3936429-.0168068-.3943795-.2582948-.0007366-.2665509.1904866-.5754137.4802679-.7427452"/><path d="m37.8028148 46.5305949-.0006952-.213624c-.011395.0054548-.0229626.0109097-.0343576.0166594-.2394668.1180903-.4958533.2938251-.4949922.522192.0005201.1443326.0987584.1643828.2151251.1070331.1629825-.080496.266573-.2326423.3024844-.3554503.0079419-.0263897.0126035-.0542537.0124355-.0768102zm.2204705.0110571c.0003453.1064434.0062155.2077269.0215844.2842423l-.2066661.1018731-.0186463-.1463965-.0079419.0039805c-.0694057.1313589-.2035554.2839475-.3825944.3721097-.2539695.1253143-.3836303.013416-.3841513-.1645302-.0010328-.2938252.2626051-.5869132.7384309-.8216195.0044889-.002064.0089779-.0042754.0136394-.0064868l-.0001726-.0256526c-.0003453-.1017257-.0293507-.2702366-.2859099-.1437429-.1163667.0573498-.2380856.1522938-.3257922.2516606l-.0526585-.1211863c.1034178-.1170583.2536241-.2347063.4112544-.3124011.3831123-.188856.4773797.0213771.4782429.2684674z"/><path d="m38.6638754 45.1239789c.021509-.012384.037125-.0191658.0546563-.0238835l.0007366.210528c-.0197411.0066343-.0393348.0156275-.0662946.0312549-.1364197.0788743-.2333572.253872-.259875.4372731-.0039777.0325817-.0085447.0710606-.0085447.1090972l.0019152.6554674-.1918125.1108663-.0023571-.8457977c-.000442-.1452172-.0029465-.26832-.0100179-.3785966l.1703036-.0983349.0067768.2379498.0094285-.0054549c.0474375-.192984.1647054-.3650331.2950848-.4403691"/><path d="m39.3886821 44.7076111c.1147634-.0663429.2161206-.0915532.2695983-.0919954l-.0441965.198144c-.0465535-.0033909-.1188884.0104674-.2249598.0717977-.2451428.1415314-.3777321.4266583-.3769955.6836263.0008839.2842422.1607277.3676868.3728705.2451737.1100491-.0635417.1829732-.1391726.2382188-.1990286l.0335892.148608c-.0505312.0595611-.1632321.1658571-.3071651.2490069-.3220447.1862022-.5328616.0558754-.5340428-.3200675-.0008813-.3781543.2237838-.7834354.5730829-.9852651"/><path d="m40.073933 43.762417.0022099.7673657.0039776-.0023588c.0309375-.0816754.0794063-.1657097.1393661-.2385394.0567188-.0707658.1255179-.136224.198442-.1783886.1433437-.0827074.3737544-.1139623.3750803.3100423l.0020625.731688-.1946116.1123405-.0019152-.7060354c-.0005892-.1979966-.0652633-.3287657-.2489732-.2226171-.1255178.0726823-.2245178.2317577-.2601696.3743211-.0106072.0365623-.0125223.0703234-.012375.1138149l.0020625.7417131-.1944643.112488-.0051562-1.8034937z"/><path d="m41.1961098 44.6279849c.0769018-.0445234.1305268-.009288.1308227.084624.0002934.0917006-.0502379.1892983-.1320012.2364754-.0776384.0448183-.1305268.0070766-.1308218-.084624-.000147-.0940594.0550985-.191952.1320003-.2364754"/><path d="m41.6533219 44.3637929c.0776384-.0449657.1305268-.009288.1308227.084624.0002933.0917006-.0502379.1892983-.1320013.2364754-.0776384.0448183-.1305268.0070766-.1308217-.084624-.000147-.0940594.0550985-.191952.1320003-.2364754"/><path d="m42.1105339 44.0996009c.0776384-.0449657.1306741-.009288.1309691.084624.000147.0917006-.0502369.1892983-.1320003.2364754-.0776384.0448183-.1306741.0070766-.1309688-.084624 0-.0940594.0550982-.191952.132-.2364754"/></g><path d="m64.2281652 28.0571757.0153214 5.4367234-30.1723125 17.4328388c-.8280937.4784058-1.5017946.0942069-1.5044464-.8578868l-.0056061-1.9883692c-.0026439-.9522411.66649-2.1120617 1.4945838-2.5904674zm6.4572455-2.0037018c-.0030937-1.0936251-.7790357-1.5360582-1.7299955-.986592l-34.9004465 20.1643955c-.9503705.549024-1.7218928 1.8856114-1.7188083 2.9792365l.0057548 1.9882218c.0030937 1.0936251.779625 1.535616 1.7299955.986592l34.9002991-20.1643955c.9511072-.5496137 1.7220402-1.8857588 1.7188093-2.9792365z" fill="#5cbcff"/><path d="m66.703283 27.5875419c.227317-.1313588.4549286-.1629085.6287679-.0633942.3482679.1985862.350183.8456502.0039777 1.4455371-.1726607.2995749-.3996831.5307429-.627.6621017-.227317.1313589-.4550759.1629086-.6292098.0636892-.3484152-.1985863-.3501831-.8456503-.004125-1.4453898.1729553-.3000171.400125-.5311851.6275892-.662544" fill="#5cbcff"/><path d="m66.7090433 29.6317423c-.227317.1313588-.4550759.1629086-.6292098.0636891-.3484152-.1987337-.3501831-.8456503-.004125-1.4453897.1729553-.2998697.400125-.5311851.6275893-.662544.2273169-.1313588.4549285-.1629086.6287678-.0632468.3482679.1985862.3500357.8455028.0039777 1.4453897-.1726607.2997223-.399683.5307428-.627.6621017m2.3628884-.2041886-1.0984286-.6271611c-.0250446-.0143006-.0578973-.0097303-.0906027.0091405-.0322633.0187235-.0645267.0514526-.0894241.0937646l-.148058-.0844766c.309375-.6915874.2641473-1.3769828-.1343571-1.6043177-.2239286-.1276731-.5166563-.0871303-.808942.0818229-.2922857.1688057-.5842768.4660217-.8065848.8516948-.4444688.7701669-.4419643 1.6019589.0051562 1.8570103.2239286.1276732.5166563.0872777.808942-.0816754.2287902-.132096.4571384-.3429189.6524866-.6133029l.1479107.0844766c-.0487634.0858034-.0481741.1779463.0016205.2064l1.0984286.6271612c.0434598.024768.1003259.0168068.1570447-.0159223.0565714-.0328766.1132901-.0903737.1564553-.16512l.1493839-.2599166c.0861831-.1491977.0857411-.3100423-.0010312-.3595783" fill="#fff"/><path d="m40.1747746 55.3796263.0805848 34.9822937 24.6770759-14.2576697-.0805849-34.9821463zm-.3725759 35.7698571-.0827947-36.03228 25.5856072-14.7825154.0827946 36.0321326z" fill="#c2c2c2"/><path d="m24.1300567 81.0922306.0069241 2.4331612-.276817.15996-.0060401-2.1262149-.0064822.0036857-.367125.4409589-.0561294-.2189314.461558-.5515303z" fill="#969696"/><path d="m25.5524746 80.2291101c.4558125-.2633075.6488035-.0150378.6498348.3331885.0011785.4493623-.280942.9759772-.7255581 1.7277155l-.168683.2774605v.0075189l.9505179-.549024.0007366.2731851-1.3509375.7804869-.000442-.2021246.2239286-.3805131c.5386071-.9037372.7818348-1.3592915.7840446-1.7280103-.0007366-.2470903-.1054821-.4151589-.4213393-.2327897-.1919598.1110137-.3512143.3154971-.4485937.465432l-.0917813-.1794206c.1461429-.2268926.3541607-.452016.5982724-.5931051" fill="#969696"/><path d="m27.8346013 78.9517742.0007366.2770183-.8073214.466464-.0795536.6722742c.0487634-.0358251.0942858-.0695862.1725134-.1146994.1627902-.0940594.3255804-.1469863.4561072-.1322434.1663259.0125314.3036294.1431531.3045174.4500994.0013219.4754572-.3264683 1.0209429-.7855219 1.2861669-.2311473.1335703-.4266428.1716068-.5277053.1550948l.0708616-.2923508c.0880982.0091405.2607589-.0156275.452866-.1266412.2701875-.1561268.5007456-.4918217.4998616-.8174914-.004125-.3125486-.1870982-.4318183-.6103526-.1872343-.1203616.0695863-.2147947.1391726-.292875.1954903l.1334732-1.2469509z" fill="#969696"/><path d="m22.3484545 81.8028806.0010312.3631165c.1953482-.1054114.3289688-.1226605.4235491-.11352l-.0807321.29412c-.0683572-.0054548-.202125-.0107622-.4104375.1096869-.2505938.1447749-.3445848.37152-.3441429.5213074.0005893.1946057.1212456.2224697.4048393.1934263.3357455-.0364148.5056072.0602983.5064944.3934869.0008806.2957417-.1773783.6762548-.5125346.9335177l.0011786.3881794-.2050714.1185326-.0011786-.3769749c-.1887187.1054115-.3843616.1509669-.4983884.1231029l.0773438-.2958892c.1174151.0221143.2868348-.0045702.4692187-.1099817.2311473-.1334228.3868661-.3771223.3864241-.5905988-.0007366-.2058103-.1280223-.2597692-.3691875-.2329372-.3325044.0421646-.5380178-.0116468-.5389018-.3373165-.0008839-.3104846.1903393-.657384.4896965-.8866355l-.0010313-.3780068z" fill="#969696"/><path d="m19.9161482 68.9119474.0303482 12.0524332 9.3051161-5.3764252-.0306429-12.0522857zm-.3544553 12.7211692-.0325581-12.944376.0969375-.055728 9.9797009-5.7660789.0328527 12.944376-.0969375.055728z" fill="#c2c2c2"/><path d="m21.6579589 69.7216546 5.8326027-3.3699223.0190045 6.6864755-5.8326027 3.3699223z" fill="#ffd078"/><path d="m26.2053589 76.1111942.0016206.5683371-3.2198572 1.8605486-.0016205-.5684846z" fill="#6cc5c1"/><path d="m27.0838219 74.5009941.0016205.5683371-4.983 2.8791326-.0016205-.5684846z" fill="#6cc5c1"/><path d="m24.1356696 104.285738.0069242 2.431981-.276817.159813-.0058929-2.124888-.0066294.003686-.367125.440959-.0561295-.218932.461558-.55153z" fill="#969696"/><path d="m25.5321295 103.437729c.416625-.240751.6062276-.065311.6071116.230283.0007366.250923-.1289063.538262-.3890759.797294v.008698c.2607589-.090521.4729018.010615.473936.351175.0010283.389359-.2616458.88236-.7694628 1.175743-.2377768.137256-.4462366.171607-.5506875.153178l.0774911-.299722c.0814687.012826.2706294-.002654.4690714-.117353.3678616-.212592.4810045-.547992.4773214-.7482-.0042723-.337612-.2716607-.329356-.5483303-.169396l-.1595491.092143-.0007367-.24827.1595492-.09229c.2084598-.120302.4717232-.396141.4708392-.683037-.0004419-.194753-.1084285-.304882-.3721339-.152441-.1692723.097745-.3317678.277756-.4226652.405429l-.0755759-.196375c.1104911-.157601.3249911-.375206.5528974-.506859" fill="#969696"/><path d="m27.8402143 102.145429.0007366.276871-.8073214.466464-.0795536.672274c.0487634-.035825.0942857-.069586.1725134-.1147.1627902-.094059.3257277-.146986.4561071-.132243.1663259.011352.3036295.141974.3045174.44892.0013219.47531-.3263209 1.020943-.7853745 1.286167-.2312947.13357-.4267902.171459-.5278527.154947l.0708616-.292056c.0880982.008993.2609063-.015922.4528661-.126788.2701875-.156127.5007455-.491822.4998616-.817492-.004125-.312548-.1870982-.430639-.6103527-.186055-.1203616.069587-.2146473.139173-.2927277.194164l.1333259-1.245624z" fill="#969696"/><path d="m19.9161482 91.6587165.0303482 12.0512535 9.3051161-5.376425-.0306429-12.0511063zm-.3544553 12.7199895-.0325581-12.9431964.0969375-.055728 9.9797009-5.7662263.0328527 12.9431966-.0969375.0558754z" fill="#c2c2c2"/><path d="m21.6580326 92.4682762 5.8326027-3.3696274.0190044 6.6851486-5.83275 3.3700697z" fill="#6edb75"/><path d="m27.0838219 97.2465984.0016205.5695166-4.983 2.87928-.0016205-.569811z" fill="#6cc5c1"/><path d="m26.2053589 98.8580959.0016206.5681897-3.2198572 1.8605484-.0016205-.568484z" fill="#6cc5c1"/><path d="m81.5922496 48.9890105c.0162053-.0393634.0259285-.0824126.0257829-.1348971-.0011803-.4154537-.1355374-.6564995-.4350419-.4834183-.2442589.1409417-.4160357.4876937-.4150091.8320868.0008886.3032606.161027.4244469.4083797.2814412.1919598-.1108663.341491-.3059143.4158884-.4952126m-.3871608-.88236c.4329777-.2501863.7011027-.0001474.702879.621264.0013175.5353132-.1536647 1.000008-.3615352 1.3523623-.1622009.2774606-.3865714.5195383-.614183.68112-.0807322.0613303-.1536563.1089497-.2143527.1438903-.0175313.0101726-.0340313.0191657-.0493527.0272743l-.0007366-.2696469c.0172366-.0078137.0353571-.0172491.0545089-.0283063.0493527-.0286011.1060714-.0675223.1766384-.1163211.1658839-.1222183.3218973-.291024.4419643-.4916743.1395134-.2268926.2398393-.498456.2781429-.8093829l-.0098706.0056023c-.1166786.2324949-.2856562.4275429-.4972098.5499086-.3809732.2201109-.6259688.0316971-.6271509-.383904-.001175-.4604194.2872804-1.032.720258-1.2821863" fill="#969696"/><path d="m79.1526636 49.9185771c.0007386.2432572.1607297.2821783.4049886.2159829.1820893-.1763246.32175-.4070503.3210163-.6278983-.0004448-.1946057-.1020966-.338496-.3591725-.189888-.2376295.137256-.3674197.39216-.3668324.6018034zm.3693368 1.4402298c.2572233-.148608.4226652-.4279852.4219311-.6787612-.0008864-.2957417-.1803239-.3345154-.4670114-.2625703-.2472054.2252709-.3800893.4896103-.3793527.7216629-.0092812.2526926.1542455.3757954.424433.2196686zm.2834465-1.2622835c.264-.0325817.4272321.086688.4281202.3824297.0013217.4229726-.3137988.8898789-.7173122 1.1231109-.4428482.2557886-.7105312.1068857-.7115662-.2488594-.0008802-.3069463.1579323-.616104.4181019-.8938595l-.0033884-.0094354c-.2348303.008256-.3361875-.1431531-.3367768-.3527966-.0011785-.3855257.281384-.811152.6524867-1.0256605.4101428-.2369177.6159508-.0597086.6168348.243552.0005893.2058103-.086625.4775211-.3465.7701668z" fill="#969696"/><path d="m77.9424348 49.7142706.0010313.3631166c.1953482-.1054114.3289687-.1226606.4235491-.11352l-.0807322.29412c-.0685044-.0054549-.202125-.0107623-.4104375.1096869-.2505937.1447748-.3445848.37152-.3441428.5213074.0005893.1946057.1212455.2223223.4048393.1934263.3357455-.0364149.5056071.0602983.5064933.3934868.0007343.2957417-.1775246.6762549-.5125335.9336652l.0011786.3892114-.2052188.1185326-.0010312-.3780069c-.1888661.105264-.3843616.1508194-.4983884.1229554l.0773437-.2958891c.1174152.0221143.2868348-.0045703.4692188-.1098343.2311473-.1335703.386866-.3772697.3864241-.5907463-.0005893-.2058103-.1280223-.2597691-.3691875-.2329371-.3325045.0421646-.5381652-.0114994-.5389018-.3371692-.0008839-.3107794.1903393-.6575314.4898437-.8867828l-.0011785-.3780069z" fill="#969696"/><path d="m75.5070348 36.7944857.0306429 12.0514012 9.305116-5.3761303-.0306428-12.0514012zm-.3541607 12.7202846-.0327053-12.9430492.0966428-.0561702 9.9801429-5.7659315.0327053 12.9430492-.0966428.0560228z" fill="#c2c2c2"/><path d="m77.2491402 37.6043256 5.8326027-3.3699223.0190044 6.6851486-5.8326027 3.3700697z" fill="#78e6ff"/><path d="m82.6750031 42.3824414.0016206.5683371-4.983 2.8791326-.0016206-.5683372z" fill="#6cc5c1"/><path d="m81.7965402 43.9927005.0016205.5695165-3.2200044 1.8604012-.0014733-.5695166z" fill="#6cc5c1"/><path d="m80.3056326 71.3220655.0069241 2.4333086-.2766696.1598125-.0060402-2.1262148-.0066295.0036857-.367125.4409588-.0561295-.2189314.4615581-.5515303z" fill="#969696"/><path d="m84.0101036 69.1817565.0008839.2770182-.8074687.466464-.0795536.6721269c.0487634-.0358251.094433-.0695863.1725134-.1146994.1627902-.093912.3255803-.1469863.4561071-.1322435.1663259.0126789.3036295.1431532.3045174.4500995.0013219.4754571-.326321 1.0210903-.7853745 1.2863143-.2311473.1334228-.4266429.1714594-.5278527.1549474l.0710089-.2923509c.0879509.009288.260759-.0156274.4528661-.1264937.2701875-.1562743.5005982-.4918217.4998616-.8174914-.0042723-.3125486-.1870982-.4319657-.6103527-.1872343-.1203616.0694389-.2147946.1390251-.292875.1953429l.1333259-1.2468035z" fill="#969696"/><path d="m78.524104 72.0327154.0010313.3631166c.1953482-.1054114.3288214-.1225131.4235491-.11352l-.0807322.29412c-.0685044-.0054549-.202125-.0107623-.4104375.1098343-.250741.1446274-.3447321.3713726-.3442901.52116.0005892.1946057.1212455.2224697.4049866.1935737.3355982-.0365623.5056071.0602983.506347.3934869.0008806.2957417-.1773783.6761074-.5123872.9335177l.0010312.3893588-.2050714.1185326-.0010312-.3781543c-.1888661.105264-.3843617.1508194-.4985358.1231029l.0773438-.2960366c.1175625.0222617.2869821-.0045703.4693661-.1098343.231-.1335703.3867187-.3772697.3862767-.5907463-.0005892-.2058103-.1280223-.2596217-.3690401-.2329371-.3325045.0421646-.5381652-.0114994-.5390491-.3371692-.000884-.310632.1904866-.6575314.4898437-.8867828l-.0010312-.3780069z" fill="#969696"/><path d="m81.9756536 70.3572929.0067768 2.4331612-.2766697.1598125-.0060402-2.1262148-.0064821.0036857-.367125.4409588-.0561295-.2189314.4615581-.5515303z" fill="#969696"/><path d="m75.4861741 59.46126.0302009 12.0512537 9.3051161-5.3762777-.0306429-12.0512537zm-.3546027 12.7199897-.0322634-12.9431966 10.0763438-5.8218068.0328527 12.9431966z" fill="#c2c2c2"/><path d="m77.2281321 60.2709672 5.8324554-3.3699223.0190045 6.6851486-5.8326027 3.3700697z" fill="#e2b3ff"/><path d="m82.6538478 65.0491567.0017678.5683371-4.9831473 2.8791326-.0016205-.5684846z" fill="#6cc5c1"/><path d="m81.7753848 66.6593421.0017679.5695165-3.2200045 1.8604012-.0014732-.5695166z" fill="#6cc5c1"/><path d="m56.2168406 63.0227215c.1172679.440664.1969688.9643303.199087 1.6433863.0095202 3.4576423-1.2191405 8.5617668-1.2116272 11.1669771.0053036 1.875144.2641474 2.4517372.2778483 2.4821074-.8661027 1.076376-2.1081697 2.0819863-3.3067768 2.7744583-1.1986072.6926195-2.3540491 1.0721006-3.0467545.8965132.0134063-.0461452.2679777-.9193646.2626741-2.7945086-.0073661-2.6053577-1.2612187-6.2751497-1.2709783-9.732792-.0018788-.6685886.0720765-1.2739303.1833042-1.8407931.1626429.1683634.4104375.2429622.7872857.0252102.1420179-.0819702.3021563-.2055154.4829197-.3809554.1666205-.1617291.3805312-.3149074.610058-.4474457.5387545-.3113691 1.162808-.508776 1.4581875-.4350617.0883929.0222617.2136161-.0235886.3603482-.1082126.1971161-.1139623.4328304-.298248.668692-.4828286.2360089-.184728.4724598-.3698982.6707544-.4844502.1430492-.08256.2662099-.1285578.355192-.1117509.0636429.0120891.144817-.0150377.2383661-.0688491.2121428-.1226606.4876339-.3847886.7622411-.6466218.2749017-.2613908.5487723-.5227817.7579687-.6435257.0626116-.03612.1194777-.0597085.168683-.0669325.0508259-.0075189.0988527-.0252103.1440804-.0513052.2019777-.1167634.3475312-.4020377.4484464-.6926194" fill="#28a3d2"/><path d="m56.2195808 63.014952c-.103567.298248-.2491205.5836697-.4512455.7004331-.0450804.0260949-.0929599.0437863-.1439331.0511578-.0493526.007224-.1062187.03096-.1688303.06708-.2090491.120744-.483067.3821348-.7578215.6436731-.2746071.2615383-.5500982.5238137-.7623883.6464743-.0935492.0539588-.1745759.0809383-.2380715.0688491-.0892768-.0169543-.2122902.0291909-.3551919.1117509-.198442.1146994-.4348929.2997223-.6710491.4843028-.2357143.1845806-.4714286.3690138-.6685447.482976-.1467321.084624-.2721027.1304743-.3603482.1082126-.2953795-.0737143-.9195804.1236926-1.4583348.4349143-.2293795.1326857-.4432902.285864-.6099107.4475931-.1807634.17544-.3410491.2989852-.4829197.3809555-.3768482.217752-.6246428.1430057-.7872857-.0252103-.0038304-.0039806-.0075134-.0079612-.0113437-.0119417.1822366.0229988.4147098-.0275692.6882857-.18576.1804687-.104232.3789107-.2551989.5923794-.4624835.1666206-.1617291.3805313-.3149074.6099107-.4474457.5389018-.3112217 1.1629554-.508776 1.4583349-.4349143.0882455.0221143.2137634-.0235885.3603482-.10836.1971161-.1139622.4328303-.2983954.6685446-.4828285.2361563-.1848755.4726072-.3698983.6710491-.4844503.1429018-.08256.2660625-.1285577.3550447-.1117509.0636428.0119417.1446696-.0150377.2382187-.0689965.2122902-.1226606.4877813-.3847886.7623884-.6463269.2747545-.2615383.5487723-.5227817.7579688-.6436731.0624643-.0362675.1193303-.059856.168683-.06708.0726295-.0106149.1430491-.0374469.2105223-.076368.1429018-.08256.2729866-.2193738.3855402-.3707829" fill="#2599c2"/><path d="m57.0601969 49.6486944c.4510982-.1057063.7573794.1947531.7588527.7353737l.0029464 1.0168149c-.3329464.4720663-.8453304.8639314-1.3703839 1.167192-.1692724.0977451-.3398706.1864971-.5060492.2655188-.2436696 1.2839555-.7243794 4.1619086-.7171607 6.7233326.0013259.4583554.0543616.8334137.137009 1.1646857-.8587366.9279154-2.0703081 1.853472-3.2477009 2.5337074-1.1418884.6597429-2.2516607 1.08876-2.9757456 1.0651715.0808795-.4266583.1315581-.8626046.1302322-1.3222869-.0072188-2.556264-.5039866-4.8636686-.7536965-5.8661828-.1778169.1354868-.3616741.2578525-.5439107.363264-.5330089.3079782-1.0520223.4694125-1.3597768.3841988l-.0029516-1.0168148c-.001468-.5406206.307465-1.1966778.7576793-1.6116892l1.2089197-1.1139703c.614183-.5426845 1.2223259-1.0359805 1.8322366-1.4846057-.033.138288-.0511206.2728903-.0506786.4007109.0019152.7098685.5489196.9961748 1.3029107.7650068.012817 1.4287303.2666518 2.4331612.5742589 2.2555097.3077545-.1777988.5549599-1.4720742.5596742-2.911272.7520758-.6393977 1.2953973-1.5550765 1.2933348-2.2645028-.000442-.1332754-.0198884-.2510709-.0565715-.3536812.6181608-.2618331 1.2529688-.4822388 1.8393081-.6221485z" fill="#28a3d2"/><path d="m54.0333603 50.5432025c-.0483215.0204926-.0889822.0403954-.1233081.0604457-.3867187.2233543-.0285803.4455292-1.682116 1.4018983-.0035358.002064-.0073661.0042754-.0109018.0063394-.8404688.4854823-1.1617768.5667155-1.3210313.5546263-.1592544-.0125314-.1561607-.11868-.3488571-.0075188-.0192991.011352-.0406607.0246205-.0643795.0405428-.0216562.0145955-.0450803.0311075-.0714509.0524846-.033.1381406-.0797009.2727429-.0794076.4005634.0020639.7094263.3563719.9954377 1.2730058.7650069v.0004423c0 1.4287303.2956741 2.4331611.603134 2.2556571.3077544-.1777988.5696919-1.4720743.5742589-2.911272.7520759-.6393977 1.3027634-1.555224 1.3007067-2.2645028-.0004478-.1332755-.0126755-.2512183-.0496531-.3547132" fill="#1b6685"/><path d="m55.4127603 60.6700563 1.2405937 1.5440195c-.0083973.0219668-.1672098.4419908-.4337143.800832-.1125535.1515565-.2427857.2882228-.3856875.3707828-.0674732.0390686-.1377455.0657532-.210375.076368-.0493526.007224-.1062187.0308126-.1688303.0672275-.2091965.120744-.483067.3819874-.7578215.6435257-.2747544.2615383-.5502455.5238137-.7623883.6464743-.0935492.0539588-.1747233.0807908-.2382188.0688491-.0891295-.0168069-.2122902.0293383-.355192.1117509-.1982946.114552-.4348928.2995748-.6709017.4844502-.2358617.1844332-.4714286.3688663-.6685447.482976-.1465848.084624-.2721027.1303269-.3604955.1082126-.2952322-.0738617-.9194331.1236926-1.4581875.4349143-.2295268.1326857-.4434375.285864-.6100581.4474457-.2134687.207432-.4119107.3582514-.5922321.4624834-.2737232.1581909-.5061964.2087589-.6882857.18576-.1981473-.0250628-.3364822-.1374034-.4033661-.2932354l1.209067-2.9944217c.0142902.0008846.0291696.0016217.0439018.002064.7242321.0235886 1.8338571-.4054286 2.9758928-1.0651714 1.1773929-.6802355 2.388817-1.605792 3.2475536-2.5337075.0159107-.0172491.0316741-.0343508.0472902-.0516" fill="#45abff"/></g><path d="m9.9024.36301584c.1583377.18948515.1739221.43732673.2175584.66271287.0339741.2309307.0495585.46352476.0582858.69625743.0081039.23273267.0067013.4660198-.0096624.69944554-.0194805.23356436-.0383376.46643565-.1288831.70166337-.0116883.03063366-.04924675.04685148-.08353247.03645545-.03444155-.01053466-.05267532-.04380199-.04098701-.07429703.00031169-.00083169.00062338-.00152476.00093507-.00221783l.00233766-.00540594c.08898705-.20182178.12327275-.43635643.15163635-.66340594.0272727-.22912871.0395844-.46047525.0422338-.69168317.0023376-.23120792-.0021818-.46310891-.0250909-.69362376-.0327273-.22566336-.0364676-.4719802-.1848312-.66590099" fill="#0f0f0f" mask="url(#f)" transform="translate(152 112)"/><path d="m1.9195013 4.42031287c.11953247.20653465.14649351.44328713.18046753.67061386.02914286.22968317.04519481.46061386.05438961.69168317.00888312.23106931.00825974.46255446-.00155844.69417822-.01324675.23259406-.02368831.46227723-.09428571.69986138-.00935065.03132674-.04535065.049901-.08057143.04158416-.03522078-.00831683-.05594805-.04033663-.04675325-.07152475.00015584-.00069307.00046753-.00138614.00062338-.00221782l.00202597-.00554456c.07246753-.20653465.09787013-.44093069.12046753-.66742574.02041559-.22857426.0321039-.45839604.03428572-.68821782.00187013-.2299604-.00327273-.46019802-.02135065-.68974257-.02306494-.22746535-.03864935-.4629703-.14774026-.67324753" fill="#0f0f0f" mask="url(#g)" transform="translate(152 112)"/><g transform="translate(153 119)"><path d="m10.7438473 26.4305159.0033818 1.2142118-10.63067557 6.1376659-.00352881-1.2143589z" fill="#6cc5c1"/><path d="m8.86974249 29.8657297.00338177 1.2115652-6.86911525 3.9661117-.0035288-1.2115652z" fill="#6cc5c1"/><g fill="#dcdcdc" transform="translate(5.440243 42.345969)"><path d="m55.162636 26.2437084c1.0359987 0 2.0255347.2299621 2.7151222.6304844l28.5077546 16.566537c.4953562.2880408.7169358.5991661.7163488.7795776 0 .1842343-.227021.5003588-.7332576.7928106l-7.6363365 4.4086859c-.6963511.4018456-1.6898571.6322489-2.7257087.6322489-1.0367339 0-2.0270051-.2301093-2.7179159-.6315137l-28.5076076-16.5665371c-.4941799-.2873056-.7150243-.5976957-.7150243-.7778131.0005881-.1843814.227608-.5009469.7338446-.7933988l7.6363365-4.4088329c.6962041-.4019926 1.6898571-.6322488 2.7264439-.6322488m20.8203974 30.6421606c3.4125026 0 6.6418013-.7792834 9.0931453-2.1949327l7.6363365-4.4088329c2.696302-1.5562144 4.1826646-3.7110066 4.1861987-6.0675304.0032294-2.3443199-1.4637247-4.4889668-4.1304729-6.0390057l-28.5070195-16.566537c-2.4376698-1.4168255-5.6610872-2.1969912-9.0750601-2.1969912-3.4126497 0-6.6426836.7794305-9.0938805 2.1947857l-7.6363366 4.4086859c-2.6963019 1.5569495-4.1826645 3.7120358-4.1861986 6.0690007-.0032294 2.3438788 1.4629895 4.4874964 4.1284144 6.0363591l28.5070195 16.566537c2.4391402 1.4177077 5.6631457 2.1984615 9.0778538 2.1984615"/><path d="m50.3086602 34.6008471-50.16653753-29.1194702 9.26605682-5.34985444 50.16668461 29.11947014z"/></g><path d="m18.0514461 12.0382091c.0030878-1.0782048.384934-1.8373446.9999755-2.1947857l5.2307199-3.03994065c-.6150415.35744115-.9967407 1.11672789-.9999754 2.19493272l-.0248487 8.77164403c-.0061754 2.1671431 1.5241502 4.8177361 3.4101501 5.9065274l28.693752 16.5665371c.9504252.5487332 1.8127772.5987249 2.4356115.2370198l-5.23072 3.0396466c-.6228343.3619992-1.4850393.3118604-2.4356114-.2368728l-28.6938991-16.566537c-1.8858528-1.0887914-3.4161784-3.7393843-3.4100217-5.9065275z" fill="#f2c300"/><path d="m18.0265788 20.8098825.0248673-8.771644c.0061755-2.16978981 1.5464993-3.04758646 3.4323522-1.9587951l28.693752 16.566537c1.8883524 1.0901146 3.418531 3.7407076 3.4123742 5.9106444l-.0248673 8.771644c-.0061754 2.1669962-1.5463523 3.0447928-3.4345576 1.9546782l-28.6938991-16.566537c-1.8858528-1.0887914-3.4161784-3.7393843-3.4100217-5.9065275zm3.4735402-16.47743407c-4.6437619-2.68117619-8.434876-.52050254-8.4501674 4.81817727l-.0248934 8.771644c-.0149527 5.3360332 3.7516067 11.860106 8.3952216 14.5412822l28.693752 16.56639c4.6461144 2.6824995 8.4373755.5219729 8.45252-4.8140603l.0248942-8.771791c.0150989-5.3386798-3.7514605-11.8627527-8.3975749-14.5452522z" fill="#ad8500"/><path d="m20.7412639.71094177c1.5323841-.89058866 3.6530496-.76737366 5.9895603.58166893l28.6938992 16.566537c4.6459673 2.6823525 8.4126738 9.2064254 8.3974287 14.5452522l-.024895 8.771644c-.0074988 2.650446-.9466023 4.5174915-2.4594309 5.3966114l-5.230867 3.0399407c1.5128286-.879267 2.4520792-2.7463125 2.4595779-5.3967585l.0248487-8.771644c.0151444-5.3388268-3.751415-11.8628997-8.3975294-14.5452522l-28.6937521-16.56653698c-2.3365108-1.34904259-4.4571763-1.4722576-5.9895603-.58166894z" fill="#f2c300"/></g><path d="m8.6550676 9.33376196 7.7478788-4.41482208c1.9134359-1.09045399 5.0187039-1.09045399 6.9197576 0l28.9242704 16.58974232c.9458275.5425767 1.4191888 1.2538896 1.4212773 1.9660859l.0174546 6.0583067c-.0020886-.7121963-.4754499-1.4235092-1.4214266-1.9660858l-28.9241212-16.5897424c-1.9012028-1.09030672-5.0063217-1.09030672-6.9199068 0l-7.74772956 4.4148221c-.96298368.5486135-1.44395338 1.2706749-1.44171561 1.9918528l-.01746132-6.058454c-.00208181-.7208835.47888789-1.4429448 1.44172239-1.99170554" fill="#cda410" mask="url(#h)" transform="translate(194 139)"/><path d="m37.5568709 29.8795436-28.92427043-16.5898896c-1.90105362-1.0903068-1.89105828-2.8655706.0225268-3.95587731l7.74772963-4.41482209c1.9134359-1.09045399 5.0188531-1.09045399 6.9199067 0l28.9242704 16.5897423c1.9034406 1.0917792 1.8931469 2.867043-.020289 3.9573497l-7.7477296 4.4149694c-1.9134359 1.0903067-5.018704 1.0903067-6.9221445-.0014724zm-33.94327276-23.43754605c-4.71168299 2.68490797-4.73659674 7.05438035-.05564569 9.73943555l28.92412125 16.5897424c4.6834871 2.6862331 12.326937 2.6862331 17.03862.0013251l7.7477296-4.4148221c4.711683-2.6846135 4.7364476-7.0543803.0531096-9.7406135l-28.9241212-16.5897423c-4.6811003-2.68476074-12.3245502-2.68476074-17.0362331-.00014724z" fill="#ffde61" mask="url(#i)" transform="translate(194 139)"/><path d="m3.55789277 16.1814037 28.92427043 16.5897423c4.683338 2.6862331 12.326937 2.6862331 17.03862.0014724l7.7475804-4.4149693c2.3706854-1.350773 3.5547599-3.1282454 3.5496877-4.9030675l.0174717 6.0583067c.0052043 1.7749694-1.1790195 3.5522945-3.5497048 4.9032148l-7.7477296 4.4148221c-4.711683 2.6847607-12.3549837 2.6847607-17.0384709-.0014724l-28.92427038-16.5897424c-2.32548252-1.3338405-3.48941725-3.0834846-3.49448951-4.8356319l-.01745455-6.0583067c.00507226 1.7522945 1.16915618 3.5017914 3.49448951 4.8356319" fill="#b58f0d" mask="url(#j)" transform="translate(194 139)"/><g transform="translate(212 125)"><path d="m98.8855625 77.7074641-87.2420609 50.7242099-11.60723587-6.652734 87.24220767-50.7242095z" fill="#d9d9d9"/><path d="m9.20470861 55.5039712.00455341 1.578799 85.07977748-49.1418841.1781954 62.8579214c.0083476 3.0078591-2.1057577 6.6713959-4.7223542 8.1827462l-75.6028041 43.6679593c-2.6180653 1.512232-4.74612467.298891-4.75464396-2.708968l-.17817062-62.8577748z" fill="#f0f0f0"/><path d="m89.5314579 3.65247169c2.6164495-1.51135037 4.7446557-.29800861 4.7530282 2.70970352l.0045534 1.57879906-85.07977748 49.14188413-.00457907-1.578946c-.00849363-3.0077121 2.10590545-6.6712489 4.72382385-8.183481z" fill="#ccdefb"/><path d="m14.705554 49.4197316c.3437092-.1985255.6207329-.0345326.6217611.3544363l.0045563 1.5745376c.0010253.3891157-.2742358.8659589-.6177981 1.0643374l-2.2341098 1.290489c-.3385682.1954395-.6207329.0407043-.6217611-.3484115l-.0045563-1.5745376c-.0010253-.3891157.2792299-.8749227.6177981-1.0703622z" fill="#fff"/><path d="m19.9454742 46.3892427c.3437092-.1985255.6207329-.0345326.6217611.3545832l.0045563 1.5745376c.0010253.3889688-.2740889.865812-.6177981 1.0643374l-2.2289689 1.2874031c-.3437092.1985255-.620586.0405574-.6217611-.3484114l-.0044103-1.5745376c-.0011713-.3892628.2739429-.8719838.6176521-1.0703623z" fill="#fff"/><path d="m25.3536503 43.3014885c.3385682-.1955865.6207329-.0346795.6216142.3544363l.0045571 1.5745376c.0011714.3891157-.2792307.8688978-.617652 1.0643374l-2.2341098 1.290489c-.3438561.1985254-.6207329.0407043-.621908-.3485584l-.0044103-1.5745376c-.0011713-.3889689.2739429-.8716899.617799-1.0703623z" fill="#fff"/><path d="m87.8509108.34917557c-.8613293-.50079553-2.0543234-.43026095-3.370994.33019001l-75.60295107 43.66810662c-2.6179184 1.5120851-4.73231751 5.1757689-4.72367788 8.183481l.00443307 1.5787991 5.05164392 2.9730326-.00455342-1.578799c-.00851928-3.0078591 2.10573298-6.6713959 4.72365138-8.183628l75.602951-43.66795969c1.3166706-.76045096 2.5096647-.83113249 3.3709941-.33033696z" fill="#abbedd"/><path d="m9.38744733 119.94053-.17817062-62.8577745-5.05149704-2.9730326.17802374 62.8579211c.00425965 1.494011.5314273 2.54527 1.38188724 3.0396l5.05149705 2.973033c-.85045996-.494477-1.37762761-1.545736-1.38174037-3.039747" fill="#c9c9c9"/><path d="m89.2751154 15.7120337-40.1375964 22.9860447v37.6917703l40.1375964-22.9861917z" fill="#fff"/><path d="m86.7634678 20.6577128-35.1144481 20.1094094v22.1433034l35.1144481-20.1095563z" fill="#7fa3eb"/><path d="m75.0742705 33.5593549c-.2137166 0-.4568101.074943-.7135638.2232125l-10.125908 5.8483455c-.9497537.5489942-1.7203086 1.8840081-1.7170873 2.9762655l.0180769 6.3151962c.0013219.4811047.1542285.8339245.430224.9927743.2779051.1600253.6630356.1143248 1.085181-.1291665l10.1254674-5.8489333c.9501943-.5487002 1.7213368-1.884008 1.7181154-2.9765593l-.01793-6.3154901c-.0014688-.4808108-.1537878-.8330429-.4299302-.9915987-.1089882-.0631872-.2345742-.0940461-.3726454-.0940461m-11.7373754 16.8783377c-.2116602 0-.4087789-.050109-.5845994-.1512085-.4139199-.2386421-.6430593-.7225387-.644822-1.3624931l-.0177828-6.3153431c-.0033685-1.2290651.8631018-2.7311578 1.9313911-3.3486293l10.1259081-5.8484925c.5588946-.3240182 1.0967848-.3695718 1.5132017-.1294603.4142137.2382012.6430594.7218039.644822 1.3614644l.0179281 6.3154901c.0030763 1.2295059-.8635409 2.7315987-1.9324177 3.3490701l-10.1257611 5.8487864c-.3229986.1866227-.638506.2808158-.927868.2808158" fill="#fff"/><path d="m69.3050528 39.1210948c-1.3069762.7553079-2.36704 2.5917051-2.3625012 4.0937978.0017772.6786014.2216629 1.1777806.6192787 1.4067241.4015816.2307068.9500474.1685482 1.5456632-.1754548 1.3063887-.7544262 2.3661587-2.5897948 2.3617659-4.0914466-.0017763-.6793362-.2219558-1.179397-.6200122-1.4086344-.4002597-.230413-.9488724-.1689891-1.5441944.1750139m-1.2034228 6.066268c-.2733517 0-.5276083-.0645098-.7530757-.194411-.5358338-.3085888-.8315119-.9392855-.8341701-1.7765897-.004686-1.6390474 1.1511464-3.6423765 2.576952-4.4660147.7317774-.4230605 1.4322685-.4859538 1.9716276-.1751608.5352463.3081479.8319525.9400202.8343152 1.7780592.004394 1.6386065-1.1509977 3.640907-2.5760689 4.4639574-.4259644.2461363-.8409125.3701596-1.2195801.3701596" fill="#fff"/><path d="m71.1164297 34.0264555-3.6464021 2.1063389c-.3018472.1742792-.5740237.5682442-.6618605.9578009l-.1448279.6431872 5.1161261-2.9551051-.2059318-.6630251c-.0255578-.0815556-.0674199-.1348974-.1242641-.1569394-.0822552-.0317406-.2031409-.0073474-.3328397.0677426zm-5.085868 4.5669672.3601603-1.5968736c.1136884-.5052039.4615103-1.001591.8657359-1.234649l3.6462552-2.106339c.2463249-.1428325.4958813-.1756017.7019599-.0959564.1790519.0703876.3131573.2224778.3777863.4287915l.3075757.9898353z" fill="#fff"/><path d="m74.2831958 58.0920466v.5730935l-15.178727 8.7673016-.0016157-.5722118z" fill="#b3b3b3"/><path d="m73.5526375 56.5772283 3.2727285-1.8901798v.5723587l-3.2727285 1.8903268z" fill="#34a2d1"/><path d="m72.0235576 57.4604976v.5725057l-12.9011395 7.4515377-.0017626-.571477z" fill="#34a2d1"/><path d="m71.182557 55.9161135 9.2093501-5.3193361v.5723588l-9.2093501 5.319483z" fill="#ff6c63"/><path d="m67.944361 57.786529v.5725057l-8.9830015 5.1884063-.0016157-.5714771z" fill="#ff6c63"/><path d="m54.5797576 64.0570387c1.4516572-.8383329 2.6327537-.1650216 2.637468 1.5035621.0046863 1.6704941-1.1687722 3.7021839-2.6202826 4.5406638-1.4529792.8392145-2.6327537.1666379-2.6374681-1.5037092-.0046862-1.6685837 1.1673034-3.7013022 2.6202827-4.5405167" fill="#ade070"/><path d="m89.2751154 58.5333139-40.1375964 22.9861917v15.9491915l40.1375964-22.9860447z" fill="#fff"/><path d="m74.1314203 74.5999161v.5730935l-15.178727 8.7673016-.0016157-.5722118z" fill="#b3b3b3"/><path d="m83.1290955 72.5976157v.5729465l-31.1985133 18.0617022-.0017626-.5720648z" fill="#b3b3b3"/><path d="m76.1477889 79.0305753v.5730934l-16.1581514 9.354502v-.5732404z" fill="#ff6c63"/><path d="m51.8900862 93.0757739h-.0030846l6.6394629-3.8435469v.5729465l-6.6363783 3.8420775z" fill="#ff6c63"/><path d="m73.2491159 73.0259663 3.2727285-1.8901798v.5723587l-3.2727285 1.8903268z" fill="#34a2d1"/><path d="m71.7200359 73.9092356v.5725057l-12.9011395 7.4515377-.0017626-.5713301z" fill="#34a2d1"/><path d="m71.182557 71.8765171 9.2093501-5.3193361v.5723588l-9.2093501 5.319483z" fill="#ff6c63"/><path d="m67.944361 73.7469326v.5723587l-8.9830015 5.1885533-.0016157-.5714771z" fill="#ff6c63"/><path d="m54.4420536 80.1553373c1.4515103-.8384798 2.6327537-.1650215 2.637468 1.5035622.0046863 1.6703471-1.1689191 3.7021839-2.6204295 4.5405168-1.4528323.8392146-2.6327537.1667849-2.6374681-1.5037091-.0046862-1.6685837 1.1673034-3.7011553 2.6204296-4.5403699" fill="#d596e0"/><g fill="#c9c9c9"><path d="m45.3383866 71.2448212-5.4623323 3.1552469.0019095.7137218 5.4604228-3.1539244z"/><path d="m45.3383866 68.7475737-10.8095074 6.2434861.0020564.7140157 10.807451-6.2424575z"/><path d="m38.8279909 75.0051667.0020564.7138687-4.2919584 2.4791436-.0022033-.7138687z"/><path d="m45.3383866 73.742054-10.7952596 6.2355509.0020564.7137218 10.7932032-6.2342284z"/><path d="m44.1181162 83.0262712.0020564.7138687-9.5322018 5.5058119-.0020564-.7138687z"/><path d="m45.3383866 84.8150282-4.4075563 2.5457106.0020563.7140157 4.4055-2.544682z"/><path d="m45.3383866 79.8204156-10.8095074 6.2434861.0020564.713134 10.807451-6.2424574z"/><path d="m39.2713758 88.3193772.0020564.7138688-4.7283516 2.7310108-.0019095-.7138687z"/><path d="m44.1504013 93.5730133.0020564.7137218-9.5322018 5.5058119-.0020563-.7138687z"/><path d="m45.3383866 95.3939223-4.4075563 2.5457107.0020563.7140157 4.4055-2.544682z"/><path d="m45.3383866 90.3993098-10.8095074 6.2434861.0020564.713134 10.807451-6.2424575z"/><path d="m39.2713758 98.8982714.0020564.7137218-4.7283516 2.7311578-.0019095-.713869z"/><path d="m44.0131233 49.555349.0020564.7138688-9.5322018 5.5056649-.0020564-.7138687z"/><path d="m45.3383866 51.2686193-4.4075563 2.5457106.0020563.7140157 4.4055-2.5446819z"/><path d="m45.3383866 46.2740068-10.8095074 6.2434861.0020564.713134 10.807451-6.2424575z"/><path d="m39.2713758 54.7729684.0020564.7137218-4.7283516 2.7311578-.0019095-.7138688z"/><path d="m43.9567491 60.0830028.0020564.7138687-9.5322018 5.505665-.0020564-.7137218z"/><path d="m45.3383866 61.8475282-4.4075563 2.5457106.0020563.7140157 4.4055-2.544682z"/><path d="m45.3383866 56.852901-10.8095074 6.243486.0020564.7131341 10.807451-6.2424575z"/><path d="m39.2713758 65.3517156.0020564.7138688-4.7283516 2.7311578-.0019095-.7138688z"/></g><path d="m30.0282717 108.250496v-31.1899516l-15.7418813 9.0152013v31.1899513z" fill="#fff"/><path d="m27.890562 105.653956-7.6772003 4.434421.001322.476843 7.6758783-4.433539z" fill="#e8e8e8"/><path d="m23.9137878 106.282787-7.2723872 4.200334.0014688.47699 7.2709184-4.199747z" fill="#e8e8e8"/><path d="m24.7097537 105.823004v.477725l3.1807789-1.837426v-.477578z" fill="#e8e8e8"/><path d="m19.5134288 110.492584.0013219.476844-2.867181 1.65624-.0014688-.47699z" fill="#e8e8e8"/><path d="m27.890562 107.322172-11.2397314 6.491974.0014688.47699 11.2382626-6.491239z" fill="#e8e8e8"/><path d="m28.1873417 101.087841v-19.2900324l-12.0599332 6.9066581v19.2898853z" fill="#ff6a66"/><path d="m22.1670988 98.2438868c-1.6064733.9278237-2.9171216.1805979-2.9224255-1.6653509-.0052718-1.8460957 1.297151-4.1026145 2.9034774-5.0304382 1.6060327-.9276767 2.9166811-.1804509 2.9219841 1.6657917.0051257 1.8459488-1.2970033 4.1024677-2.903036 5.0299974m-.0198294-6.9888015c-1.7466009 1.0090854-3.1624184 3.4629541-3.1567072 5.4702507.0055989 2.0072967 1.4306701 2.8203547 3.1774179 1.8114163 1.7461603-1.0084976 3.1619778-3.4623663 3.1562666-5.469663-.0057458-2.0074436-1.4306701-2.8205016-3.1769773-1.812004" fill="#fff"/><path d="m21.2568129 93.6833706 2.7321944.2348213-2.7219125 3.3849252z" fill="#fff"/><path d="m30.0282717 73.8222723v-23.6331994l-15.7418813 9.0150543v23.6333464z" fill="#fff"/><path d="m15.5016521 74.0581958-.0683012-11.485528 13.2588027-7.6581453.0683011 11.4853811z" fill="#66e370"/><path d="m27.890562 71.226732-7.6772003 4.434421.001322.4768431 7.6758783-4.4335393z" fill="#e8e8e8"/><path d="m23.9137878 71.8555625-7.2723872 4.2004813.0014688.4768431 7.2709184-4.1995996z" fill="#e8e8e8"/><path d="m24.7097537 71.3959268v.4775779l3.1807789-1.8372789v-.4777249z" fill="#e8e8e8"/><path d="m19.5134288 76.0655072.0013219.4768431-2.867181 1.6560932-.0014688-.4768431z" fill="#e8e8e8"/><path d="m27.890562 72.8949483-11.2397314 6.4921205.0014688.4768432 11.2382626-6.4912388z" fill="#e8e8e8"/><path d="m24.4446717 60.9724438-4.53373 2.6187433c-.3965875.2290905-.7304555.807621-.7291375 1.2637446l.0079357 2.8275551c.0004407.183096.0562567.3197568.1529065.3754497.0970905.0551051.2448561.0346795.4058413-.0578971l4.5338768-2.6184495c.3970282-.2293843.73119-.8080618.7295801-1.2640384l-.0080845-2.827702c-.0004407-.1826552-.0559629-.319316-.152319-.374862-.0973843-.0562807-.2460312-.0348264-.4068694.0574563m-4.9762923 7.4685836c-.1082537 0-.2101914-.0258626-.3012597-.0786166-.2112196-.1215252-.3281394-.3628123-.328727-.6791893l-.007935-2.827555c-.0013187-.585584.3960033-1.2747657.9046635-1.5686597l4.5338769-2.6187433c.2765831-.1597315.5455282-.180598.7577759-.0578972.210779.1215252.3276988.3623714.3284333.6787484l.0083764 2.827702c.0014648.585584-.3962978 1.2746187-.9055456 1.5689536l-4.5338768 2.6185964c-.15746.0911072-.312276.1366607-.4557819.1366607" fill="#fff"/><path d="m22.1813025 63.3630519c-.5539006.3200506-1.0198175 1.1276716-1.0182059 1.7638053.0007386.2740563.0849033.4731695.237516.560603.1532003.0890499.3711766.060983.6122137-.0781758.5531661-.3196098 1.019083-1.12679 1.0171794-1.7629237-.0007403-.2740563-.0850518-.4736103-.2373708-.5613377-.1537879-.0880213-.3710297-.0603953-.6113324.0780289m-.5791647 2.7274841c-.1358679 0-.2632166-.0327692-.376905-.0980137-.2657137-.1531188-.412451-.4602382-.4134892-.8650773-.002634-.7716189.5220367-1.6804864 1.1938853-2.0684266.3535505-.2045503.6956439-.2317355.9623858-.0786167.2657136.152825.4123041.4602382.4134881.8652242.0024881.7717659-.5217418 1.6804865-1.1930029 2.0678389-.2034348.1177046-.4027567.1770712-.5863621.1770712" fill="#fff"/><path d="m22.9920303 61.0817871-1.6326187.9432531c-.115598.066714-.2242923.2252698-.2583695.3769192l-.0246765.1102103 2.0773843-1.2001165-.0731484-.2355562c-.0136603-.0213073-.0408338-.022042-.0885712.0052901zm-2.4349006 2.1364631.2012314-.8932911c.0550816-.2461363.2262018-.4894806.42523-.6040993l1.6327656-.9432531c.1319021-.0764124.26777-.0933113.383221-.0480516.1034066.0401165.1800802.1262275.2168012.2424626l.156138.5044692z" fill="#fff"/><path d="m28.1873417 101.106063-12.0599332 6.888289v-1.815824l12.0599332-6.888437z" fill="#c4c4c4"/><path d="m27.4814746 100.570499v.208518l-10.5534881 6.095511v-.208518z" fill="#d4d4d4"/><path d="m18.7758494 105.207663c-.0732952.042321-.1324896.14489-.1321969.229238l.0016168.633047c.0002938.084201.0599288.118293.133224.075972l.550816-.31814c.0732953-.042174.1324897-.145037.132197-.229238l-.0017637-.633047c-.0002938-.084348-.0599288-.118293-.1332241-.075972z" fill="#fff"/></g></g></svg>