<svg height="314" viewBox="0 0 262 314" width="262" xmlns="http://www.w3.org/2000/svg"><g fill="none" fill-rule="evenodd"><g><path d="m67.3027523 250.782875c-3.2283391-1.75564-6.1720375-2.40367-8.7607566-2.40367-.2425691 0-.4818515.005648-.7185043.016432.2366528-.010784.4765925-.016432.7191617-.016432 2.5874043 0 5.5324174.648544 8.7600992 2.40367m-9.6146789-2.380049c.0006574 0 .0013147-.000514.0026295-.000514-.0006574 0-.0019721.000514-.0026295.000514m.0190637-.001027c.0006574 0 .0026295-.000514.0032868-.000514-.0006573 0-.0026294.000514-.0032868.000514m.0190637-.001027c.0019721-.000514.0032868-.000514.0052589-.000514-.0019721 0-.0032868 0-.0052589.000514m.0190637-.001027c.0026295-.000514.0046016-.000514.0072311-.000514-.0019722 0-.005259 0-.0072311.000514m.0197211-.001027c.0032868-.000514.0065737-.000514.0098605-.000514-.0032868 0-.0065737 0-.0098605.000514m.0190637-.001027c.0046016-.000514.0092031-.000514.0138047-.000514-.0046016 0-.0092031 0-.0138047.000514m.019721-.001027c.0059164-.000514.0118327-.000514.017749-.001027-.0059163.000513-.0118326.000513-.017749.001027" fill="#9cb9a6"/><path d="m72.6394648 255.376654-.0011896-.001189c.0011896 0 .0011896.001189.0011896.001189m-.0333088-.038067c-.0011896-.001189-.0011896-.001189-.0023792-.002379.0011896.00119.0023792.00119.0023792.002379m-.0333089-.038067c0-.00119-.0023792-.003569-.0035688-.004759.0011896.00119.0035688.003569.0035688.004759m-.0333089-.038067c-.0023792-.00238-.0023792-.003569-.0047584-.005948.0023792.002379.0035688.003568.0047584.005948m-.0333088-.038068c-.0023792-.002379-.0047585-.004758-.0059481-.007137.0011896.002379.0047585.004758.0059481.007137m-.0333089-.038067c-.0023792-.002379-.005948-.005948-.0083272-.008327.0035688.003569.0047584.005948.0083272.008327m-.0333089-.036878c-.0035688-.003568-.005948-.007137-.0095168-.010706.0035688.003569.005948.007138.0095168.010706m-.0344985-.038067c-.0035688-.004758-.0071376-.008327-.0095168-.011896.0023792.003569.005948.007138.0095168.011896m-.0344984-.039257c-.0035688-.003569-.0071376-.007137-.0107064-.010706.0035688.003569.0071376.007137.0107064.010706m-.0356881-.039257c-.0035688-.003568-.005948-.007137-.0095168-.010706.0035688.003569.005948.007138.0095168.010706m-.0344985-.038067c-.0023792-.002379-.0083272-.008327-.0107064-.010706.0035688.002379.0071376.007137.0107064.010706m-.035688-.039257c-.0035688-.003569-.0071377-.007137-.0107065-.010706.0035688.003569.0071377.007137.0107065.010706m-.0356881-.038067c-.0035688-.003569-.0071376-.008327-.0107064-.011896.0035688.004758.0071376.008327.0107064.011896m-.0368777-.040447c-.0035688-.003568-.005948-.005948-.0095168-.009516.0035688.002379.005948.005948.0095168.009516m-.0368777-.039256c-.0023792-.00238-.005948-.007138-.0083272-.009517.0023792.003569.005948.005948.0083272.009517m-.0368776-.040447c-.0035688-.003569-.0047584-.004758-.0083273-.008327.0035689.003569.0047585.004758.0083273.008327" fill="#93ae9d"/><path d="m44.8685015 246.776758-4.8085269-20.985241zm-11.1182647-9.951914-10.5147628-30.910471z" fill="#9cb9a6"/><path d="m262 131c0 72.349035-58.650823 131-130.999684 131-72.3494927 0-131.000316-58.650965-131.000316-131 0-72.3490353 58.6508233-131 131.000316-131 72.348861 0 130.999684 58.6509647 130.999684 131" fill="#e23739"/><path d="m253.186544 131.400928c0 67.260278-54.525338 121.785616-121.785616 121.785616-67.260911 0-121.7862491-54.525338-121.7862491-121.785616 0-67.260911 54.5253381-121.7862491 121.7862491-121.7862491 67.260278 0 121.785616 54.5253381 121.785616 121.7862491" fill="#ff5254"/><path d="m230.752294 131.801223c0 54.648946-44.301633 98.951071-98.950754 98.951071-54.6497548 0-98.9513871-44.302125-98.9513871-98.951071 0-54.6489456 44.3016323-98.9510701 98.9513871-98.9510701 54.649121 0 98.950754 44.3021245 98.950754 98.9510701" fill="#f8f7f5"/><path d="m230.752294 131.400612c0-53.2160853-42.291611-96.5876147-95.205266-98.5504591 52.913655 1.9628444 95.205266 45.3337419 95.205266 98.5504591m-197.9021411 0c0-53.2167172 42.2916109-96.5876147 95.2052651-98.5504591-52.9136542 1.9628444-95.2052651 45.3343738-95.2052651 98.5504591" fill="#b35635"/><path d="m230.643867 135.406728c-2.249069-52.3049493-45.633193-94.0283546-98.842327-94.0283546-53.2097678 0-96.5932579 41.7234053-98.8429601 94.0283546-.0608713-1.415912-.108427-2.833712-.108427-4.26411 0-53.0393591 42.2916109-96.2668553 95.2052651-98.2231812 1.24279-.0459793 2.49192-.0692839 3.746122-.0692839 1.254203 0 2.502699.0233046 3.745488.0692839 52.913655 1.9563259 95.205266 45.1838221 95.205266 98.2231812 0 1.430398-.047556 2.848198-.108427 4.26411" fill="#e9e9e4"/><path d="m132.202155 134.605505c-1.770072 0-3.205213-1.420088-3.205213-3.173791v-76.9796362c0-1.7530689 1.435141-3.1737903 3.205213-3.1737903 1.768791 0 3.204573 1.4207214 3.204573 3.1737903v76.9796362c0 1.753703-1.435782 3.173791-3.204573 3.173791" fill="#463828"/><path d="m101.758472 168.256881c-1.641427 0-3.2815731-.62594-4.5341063-1.877178-2.5050666-2.505038-2.5050666-6.565636 0-9.069393l30.4400823-30.441026c2.505707-2.505038 6.563787-2.503757 9.068853-.001281 2.504426 2.505039 2.504426 6.564995 0 9.069393l-30.440723 30.441026c-1.252533 1.252519-2.89396 1.878459-4.534106 1.878459" fill="#463828"/><path d="m142.617737 131.400612c0 6.194597-5.022041 11.217125-11.216812 11.217125-6.195398 0-11.217439-5.022528-11.217439-11.217125 0-6.195225 5.022041-11.217126 11.217439-11.217126 6.194771 0 11.216812 5.021901 11.216812 11.217126" fill="#ff5254"/></g><ellipse cx="132" cy="300" fill="#000" opacity=".05" rx="96" ry="14"/></g></svg>