<svg height="280" viewBox="0 0 330 280" width="330" xmlns="http://www.w3.org/2000/svg" xmlns:xlink="http://www.w3.org/1999/xlink"><defs><linearGradient id="a" x1="61.639116%" x2="56.14438%" y1="14.570982%" y2="85.429018%"><stop offset="0" stop-color="#427fdf"/><stop offset="1" stop-color="#396bb1"/></linearGradient><path id="b" d="m259.184469 122.256339h33.487683v-100.7687444h-33.487683zm0 122.256202h33.487683v-100.76888h-33.487683zm-47.750033-122.256202h36.380958v-100.7687444h-36.380958zm0 122.256202h36.380958v-100.76888h-36.380958zm-44.856759-122.256202h33.487819v-100.7687444h-33.487819zm0 122.256202h33.487819v-100.76888h-33.487819zm-50.643038-147.2859785h33.487819v-75.7389679h-33.487819zm0 147.2859785h33.487819v-74.466782h-33.487819zm12.63108-85.763488c0 2.61904-15.699894 11.19598-18.315753 11.19598-2.615858 0-14.3845891-8.57694-14.3845891-11.19598v-21.590152c-4.411811-1.860072-10.0233369-12.533569-10.0233369-17.627272 0-6.782368 17.633798-21.4992629 24.407926-21.4992629 6.774264 0 22.914197 14.7168949 22.914197 21.4992629 0 5.093703 4.411947 15.7672 0 17.627272zm-60.3811132 85.763488h36.3809582v-74.432323h-36.3809582zm-42.3351808-122.256202h30.9662414v-100.7687444h-30.9662414zm0 122.256202h30.9662414v-100.76888h-30.9662414zm42.3351808-149.8306214h36.3809582v-73.1944609h-36.3809582zm247.8153942-86.26616577c0-4.62865102-3.782502-8.41575383-8.405394-8.41575383h-299.18907638c-4.62302772 0-8.40552962 3.78710281-8.40552962 8.41575383v4.65608687c0 4.6285152 3.7825019 8.415618 8.40552962 8.415618l.2886764 100.7688803c-4.91170412 0-8.69420602 3.786967-8.69420602 8.415618v4.656086c0 4.628516 3.7825019 8.415618 8.40552962 8.415618l.2886764 100.76888c-4.91170412 0-8.69420602 3.787103-8.69420602 8.415754v4.655951c0 4.628651 3.7825019 8.415754 8.40552962 8.415754h299.18907638c4.622892 0 8.405394-3.787103 8.405394-8.415754v-4.655951c0-3.854198-2.625761-7.116352-6.172493-8.102958v-101.394472c3.546732-.986605 6.172493-4.248759 6.172493-8.102822v-4.656086c0-3.854063-2.625761-7.116217-6.172493-8.102822v-101.3944725c3.546732-.9867411 6.172493-4.2487591 6.172493-8.1028218z"/><filter id="c" height="108.3%" width="107%" x="-3.5%" y="-3.8%"><feOffset dx="0" dy="1" in="SourceAlpha" result="shadowOffsetOuter1"/><feGaussianBlur in="shadowOffsetOuter1" result="shadowBlurOuter1" stdDeviation="3.5"/><feColorMatrix in="shadowBlurOuter1" type="matrix" values="0 0 0 0 0   0 0 0 0 0   0 0 0 0 0  0 0 0 0.2 0"/></filter><linearGradient id="d" x1="50%" x2="64.605575%" y1="11.917355%" y2="81.829768%"><stop offset="0" stop-color="#fde765"/><stop offset="1" stop-color="#f9ca35"/></linearGradient><path id="e" d="m115.452663 133.436441v23.226086c0 2.629556-2.144889 4.780874-4.766555 4.780874-2.62153 0-4.766283-2.151318-4.766283-4.780874v-23.226086c-4.421377-1.86754-7.5260745-6.253633-7.5260745-11.367788 0-6.809599 5.5035415-12.32999 12.2923575-12.32999 6.788952 0 12.292493 5.520391 12.292493 12.32999 0 5.114155-3.104561 9.500248-7.525938 11.367788zm-58.452663 47.563559h110v-96h-110z"/><filter id="f" height="122.9%" y="-10.4%"><feOffset dx="0" dy="1" in="SourceAlpha" result="shadowOffsetOuter1"/><feGaussianBlur in="shadowOffsetOuter1" result="shadowBlurOuter1" stdDeviation="3.5"/><feColorMatrix in="shadowBlurOuter1" type="matrix" values="0 0 0 0 0   0 0 0 0 0   0 0 0 0 0  0 0 0 0.2 0"/></filter></defs><g fill="none" fill-rule="evenodd" transform="translate(7 6)"><g><use fill="#000" filter="url(#c)" xlink:href="#b"/><use fill="url(#a)" fill-rule="evenodd" xlink:href="#b"/></g><g><use fill="#000" filter="url(#f)" xlink:href="#e"/><use fill="url(#d)" fill-rule="evenodd" xlink:href="#e"/></g></g></svg>