<svg height="339" viewBox="0 0 579 339" width="579" xmlns="http://www.w3.org/2000/svg" xmlns:xlink="http://www.w3.org/1999/xlink"><filter id="a" height="147.5%" width="145.8%" x="-22.7%" y="-23.7%"><feOffset dx="0" dy="10" in="SourceAlpha" result="shadowOffsetOuter1"/><feGaussianBlur in="shadowOffsetOuter1" result="shadowBlurOuter1" stdDeviation="10"/><feColorMatrix in="shadowBlurOuter1" result="shadowMatrixOuter1" type="matrix" values="0 0 0 0 0   0 0 0 0 0   0 0 0 0 0  0 0 0 0.25 0"/><feMerge><feMergeNode in="shadowMatrixOuter1"/><feMergeNode in="SourceGraphic"/></feMerge></filter><filter id="b" height="138.6%" width="136.8%" x="-18.4%" y="-19.2%"><feOffset dx="0" dy="10" in="SourceAlpha" result="shadowOffsetOuter1"/><feGaussianBlur in="shadowOffsetOuter1" result="shadowBlurOuter1" stdDeviation="10"/><feColorMatrix in="shadowBlurOuter1" result="shadowMatrixOuter1" type="matrix" values="0 0 0 0 0   0 0 0 0 0   0 0 0 0 0  0 0 0 0.25 0"/><feMerge><feMergeNode in="shadowMatrixOuter1"/><feMergeNode in="SourceGraphic"/></feMerge></filter><linearGradient id="c" x1="18.342891%" x2="94.255015%" y1="90.30876%" y2="9.423531%"><stop offset="0" stop-color="#427fdf"/><stop offset="1" stop-color="#396bb1"/></linearGradient><mask id="d" fill="#fff"><path d="m0 .26655599h254.483712v244.48345401h-254.483712z" fill="#fff" fill-rule="evenodd"/></mask><g fill="none" fill-rule="evenodd" transform="translate(20 10)"><g filter="url(#a)" transform="translate(284.914286 56.571429)"><path d="m0 .2655373h254.483712v194.0595507h-145.143771l-54.1189856 50.424922 16.856064-50.424922h-72.0770194z" fill="#427fe0" mask="url(#d)"/><path d="m118.257825 103.1988 13.22996-32.4695372 13.234087 32.4695372zm65.081005 41.682304-42.574392-104.4677444c-1.539231-3.770922-5.203674-6.233986-9.276653-6.233986-4.068852 0-7.741549 2.463064-9.276653 6.233986l-42.5743918 104.4677444c-2.0880723 5.124163.3672696 10.962078 5.492538 13.049701 5.1335217 2.087622 10.9726963-.371317 13.0607686-5.491354l11.9011872-29.214332h42.793102l11.901187 29.214332c1.584624 3.882317 5.3316 6.238112 9.28078 6.238112 1.258621 0 2.542001-.239293 3.775862-.746758 5.125269-2.087623 7.584737-7.925538 5.496665-13.049701z" fill="#fff"/></g><g filter="url(#b)"><path d="m315.771429.60618052h-315.771429v239.50080048h180.102915l67.152072 62.241808-20.918368-62.241808h89.43481z" fill="url(#c)"/><path d="m205.239877 82.2258003c5.815894 0 10.537266-4.7180283 10.537266-10.529804 0-5.8167473-4.721372-10.5347757-10.537266-10.5347757h-36.15904v-7.2435904c0-5.8167473-4.716396-10.5298041-10.537266-10.5298041-5.825844 0-10.537265 4.7130568-10.537265 10.5298041v7.2435904h-36.154065c-5.820869 0-10.542241 4.7180284-10.542241 10.5347757 0 5.8117757 4.721372 10.529804 10.542241 10.529804h67.979791c-3.596998 14.8650209-11.527311 28.7208117-20.840701 40.8067197-5.512413-7.258505-10.621843-15.178231-14.711377-23.6398578-2.532326-5.2400441-8.83578-7.4424536-14.074563-4.9069483-5.243757 2.5305336-7.432802 8.8245521-4.910425 14.0645971 5.422861 11.220853 12.278551 21.512021 19.572051 30.689556-17.577035 18.031917-34.860539 29.317401-35.203821 29.53615-4.890525 3.142038-6.308429 9.654806-3.174115 14.54684 2.019891 3.132095 5.417886 4.847289 8.885532 4.847289 1.945265 0 3.915405-.541902 5.676591-1.67045 1.507456-.964486 19.233744-12.513464 37.820724-31.355748 18.507379 19.100806 35.920235 30.550352 37.109285 31.320947 1.771136 1.153406 3.766152 1.70028 5.731317 1.70028 3.44277 0 6.820865-1.685365 8.835781-4.787631 3.17909-4.872147 1.800987-11.389887-3.074613-14.566726-.268656-.178977-17.0845-11.270569-34.482431-29.446662 12.965116-16.093 24.313323-35.541817 28.377981-57.1383557z" fill="#fff"/></g></g></svg>