<svg height="417" viewBox="0 0 419 417" width="419" xmlns="http://www.w3.org/2000/svg" xmlns:xlink="http://www.w3.org/1999/xlink"><defs><linearGradient id="a" x1="24.416935%" x2="78.946461%" y1="6.261489%" y2="96.019072%"><stop offset="0" stop-color="#427fdf"/><stop offset="1" stop-color="#396bb1"/></linearGradient><path id="b" d="m397 198.50116c0 109.627626-88.872496 198.49884-198.50116 198.49884-109.6263444 0-198.49884-88.871214-198.49884-198.49884 0-109.6276259 88.8724956-198.50116 198.49884-198.50116 109.628664 0 198.50116 88.8735341 198.50116 198.50116"/><filter id="c" height="108.1%" width="108.1%" x="-4%" y="-3.5%"><feOffset dx="0" dy="2" in="SourceAlpha" result="shadowOffsetOuter1"/><feGaussianBlur in="shadowOffsetOuter1" result="shadowBlurOuter1" stdDeviation="5"/><feColorMatrix in="shadowBlurOuter1" type="matrix" values="0 0 0 0 0   0 0 0 0 0   0 0 0 0 0  0 0 0 0.15 0"/></filter><filter id="d" height="113.7%" width="111.8%" x="-5.9%" y="-6.9%"><feOffset dx="0" dy="2" in="SourceAlpha" result="shadowOffsetOuter1"/><feGaussianBlur in="shadowOffsetOuter1" result="shadowBlurOuter1" stdDeviation="5"/><feColorMatrix in="shadowBlurOuter1" result="shadowMatrixOuter1" type="matrix" values="0 0 0 0 0   0 0 0 0 0   0 0 0 0 0  0 0 0 0.2 0"/><feMerge><feMergeNode in="shadowMatrixOuter1"/><feMergeNode in="SourceGraphic"/></feMerge></filter><linearGradient id="e"><stop offset="0" stop-color="#da3e3f"/><stop offset="1" stop-color="#ff5254"/></linearGradient><linearGradient id="f" x1="85.583146%" x2="0%" xlink:href="#e" y1="76.224525%" y2="23.775475%"/><linearGradient id="g" x1="100%" x2="12.146335%" xlink:href="#e" y1="76.224692%" y2="23.775308%"/><linearGradient id="h" x1="50%" x2="50%" xlink:href="#e" y1="0%" y2="100%"/></defs><g fill="none" fill-rule="evenodd" transform="translate(10 8)"><use fill="#000" filter="url(#c)" xlink:href="#b"/><use fill="url(#a)" fill-rule="evenodd" xlink:href="#b"/><g filter="url(#d)" transform="translate(10 22)"><path d="m379.633342 237.461969c9.582579 5.639382 12.333994 18.38167 6.436623 27.786892l-5.269867 8.406042c-5.897371 9.405222-18.55193 12.460319-27.88208 6.415444l-171.512396-111.14304c-10.825907 13.936776 29.212363-51.434141 21.649867-35.374189z" fill="#0e2054"/><path d="m36.3871947 162.284994c4.472995-7.133948 13.9893843-9.323735 21.147604-4.865907l82.3276373 51.268581c7.157571 4.458475 9.354809 13.942596 4.881814 21.076544-4.472995 7.134595-13.989385 9.323089-21.147604 4.865908l-82.3269888-51.269875c-7.1582196-4.457181-9.3554575-13.941303-4.8824625-21.075251" fill="url(#f)"/><path d="m133.639438 7.17682529c4.472995-7.13394788 13.989384-9.32373552 21.147604-4.86590734l82.326988 51.26922785c7.15822 4.4578281 9.355458 13.9419498 4.881814 21.0758976-4.472346 7.1339479-13.988736 9.3237356-21.146955 4.8659074l-82.327638-51.2692278c-7.15757-4.4578282-9.354808-13.9419498-4.881813-21.07589771" fill="url(#g)"/><path d="m168.925288 283.884756h-143.4998837c-6.0699833 0-11.0368053 4.949334-11.0368053 10.999382v14.202577h-3.3523128c-6.06998337 0-11.03615642 4.949334-11.03615642 10.999382v14.838948h194.35043222v-14.838948c0-6.050048-4.966173-10.999382-11.036156-10.999382h-3.352313v-14.202577c0-6.050048-4.966822-10.999382-11.036805-10.999382" fill="url(#h)"/><path d="m181.405622 168.927307c-10.825907 13.936776-23.045042 25.150222-34.573727 29.672722l-83.8779037-51.816351c-7.258802-24.075377 39.0733277-100.7806761 67.3875877-107.9805892l83.877903 51.8163514c.854626 11.1675288-3.601497 26.8737258-11.163993 42.9336778z" fill="#fff"/></g></g></svg>