<svg height="54" viewBox="0 0 101 54" width="101" xmlns="http://www.w3.org/2000/svg"><path d="m93.1088683 7.9099398c-5.2604474-5.2731085-11.6072174-7.9099398-19.042521-7.9099398h-47.1328789c-7.4341981 0-13.7829948 2.6366466-19.04252097 7.9099398-5.26081587 5.2732932-7.89094743 11.6365235-7.89094743 19.0896908 0 7.4540908 2.63086855 13.816767 7.89094743 19.0896908 5.25952617 5.2729238 11.60758587 7.9106786 19.04252097 7.9106786 6.7336896 0 12.6592701-2.2509851 17.7800579-6.7507388h11.5727631c5.1204194 4.4997537 11.0459999 6.7507388 17.7800579 6.7507388 7.4340139 0 13.7820736-2.6364619 19.042521-7.9106786 5.2606316-5.274032 7.8911317-11.6354153 7.8911317-19.0896908 0-7.4531673-2.6306843-13.8163976-7.8911317-19.0896908zm-49.3425578 22.4649678c0 .4924204-.1573473.8969217-.4731474 1.212211-.3156157.316767-.7185648.4746888-1.2099526.4746888h-10.1000737v10.125277c0 .4924203-.1573473.8969216-.4731473 1.2123957-.3156158.3165823-.7183806.474504-1.2099527.474504h-6.733321c-.4908351 0-.8943369-.1579217-1.2099526-.474504-.3152473-.3154741-.4725946-.7199754-.4725946-1.2123957v-10.125277h-10.1009949c-.4908351 0-.8943369-.1579218-1.2099527-.4746888-.3152473-.3152893-.4725946-.7197906-.4725946-1.212211v-6.75c0-.4920508.1573473-.8965521.4725946-1.2129497.3156158-.3165823.7191176-.4743194 1.2099527-.4743194h10.1006264v-10.1250923c0-.4920509.1573473-.8965522.4725946-1.2129498.3154315-.316767.7191175-.4743193 1.2099526-.4743193h6.7333211c.4913878 0 .8943368.157737 1.2099526.4743193.3158.3163976.4731473.7208989.4731473 1.2129498v10.1250923h10.1000737c.4913878 0 .8943369.1577371 1.2099526.4743194.3158001.3163976.4731474.7208989.4731474 1.2129497v6.75zm28.3278527 8.1470995c-1.3153422 1.3186004-2.9024492 1.9783623-4.7618739 1.9783623-1.857398 0-3.4450578-.6597619-4.7598472-1.9783623-1.3153422-1.3173074-1.9727369-2.9089-1.9727369-4.7721918 0-1.8634765.6573947-3.4543303 1.9727369-4.7723765 1.3147894-1.3173075 2.9024492-1.9778082 4.7598472-1.9778082 1.8594247 0 3.4465317.6605007 4.7618739 1.9778082 1.3140524 1.3180462 1.9721841 2.9089 1.9721841 4.7723765 0 1.8632918-.6581317 3.4548844-1.9721841 4.7721918zm13.4653524-13.4998153c-1.3138682 1.3178616-2.901528 1.9774388-4.7604 1.9774388s-3.4457948-.6588384-4.7603999-1.9774388c-1.3153422-1.318785-1.9729211-2.9090847-1.9729211-4.7729306 0-1.8627377.6575789-3.4535915 1.9729211-4.7718224 1.3146051-1.3186004 2.9015279-1.9776235 4.7603999-1.9776235s3.4465318.6590231 4.7604 1.9776235c1.3153421 1.3182309 1.9736581 2.9090847 1.9736581 4.7718224 0 1.8636612-.657579 3.4546997-1.9736581 4.7729306z" fill="#ff5254"/></svg>