<svg height="234" viewBox="0 0 311 234" width="311" xmlns="http://www.w3.org/2000/svg" xmlns:xlink="http://www.w3.org/1999/xlink"><defs><linearGradient id="a" x1="24.416935%" x2="78.946461%" y1="6.261489%" y2="96.019072%"><stop offset="0" stop-color="#427fdf"/><stop offset="1" stop-color="#396bb1"/></linearGradient><path id="b" d="m236 119.500599c0 56.608724-45.891339 102.499401-102.500599 102.499401-56.608062 0-102.499401-45.890677-102.499401-102.499401 0-56.6087237 45.891339-102.500599 102.499401-102.500599 56.60926 0 102.500599 45.8918753 102.500599 102.500599"/><filter id="c" height="115.6%" width="115.6%" x="-7.8%" y="-6.8%"><feOffset dx="0" dy="2" in="SourceAlpha" result="shadowOffsetOuter1"/><feGaussianBlur in="shadowOffsetOuter1" result="shadowBlurOuter1" stdDeviation="5"/><feColorMatrix in="shadowBlurOuter1" type="matrix" values="0 0 0 0 0   0 0 0 0 0   0 0 0 0 0  0 0 0 0.15 0"/></filter><mask id="d" fill="#fff"><path d="m0 .15359066h216.332071v103.86090834h-216.332071z" fill="#fff" fill-rule="evenodd"/></mask><mask id="e" fill="#fff"><path d="m.05755573.15466667h158.31430427v120.22503233h-158.31430427z" fill="#fff" fill-rule="evenodd"/></mask><mask id="f" fill="#fff"><path d="m.58054376.08543749h218.98812324v105.24789551h-218.98812324z" fill="#fff" fill-rule="evenodd"/></mask></defs><g fill="none" fill-rule="evenodd"><use fill="#000" filter="url(#c)" xlink:href="#b"/><use fill="url(#a)" fill-rule="evenodd" xlink:href="#b"/><g transform="matrix(-.97437006 .22495105 .22495105 .97437006 280.095881 65.307353)"><path d="m213.395992 17.7062c-17.203654 28.928-50.562514 47.3926667-88.136529 63.2766667-44.4726948 18.8-73.1752619 24.8220003-103.2879975 22.5893333-17.02479748-1.262-20.39238384-4.1166667-21.48287851-6.754-5.98036887-14.4646667 43.95481021-52.8233333 93.71313431-73.77 50.5384887-21.27466667 115.4642987-30.38933333 121.6495527-15.728 1.442202 3.418-.650026 7.3506667-2.455282 10.386" fill="#1e1c1d" mask="url(#d)" transform="translate(0 40.512)"/><path d="m208.942049 59.7006c-16.474879 27.7006667-48.41823 45.382-84.398548 60.592667-42.585352 18.002666-70.0712901 23.768666-98.9066654 21.631333-16.30202771-1.208667-19.5267953-3.942-20.57124093-6.468-5.72676546-13.851333 42.09082513-50.5826667 89.73823453-70.6406667 48.3942048-20.372 110.5664158-29.1 116.4887228-15.0606666 1.381471 3.2726666-.621996 7.0393333-2.350503 9.9453333" fill="#272d35"/><path d="m158.37186 63.0352667-54.485358-57.46800003c-5.6600278-5.97-14.7410321-7.144-21.7358146-2.81l-73.88868868 45.78266663c-6.85463326 4.2473334-9.87384861 12.654-7.28509168 20.2853334l17.14225586 50.5353333s57.6473923 13.316667 140.2526971-56.3253333" fill="#272d35" mask="url(#e)" transform="translate(18.01919 .512)"/><path d="m157.273691 43.3832c-64.088252 52.1533333-112.3823501 54.3253333-129.061446 53.122l7.9264414 23.367333s57.6473923 13.316667 140.2520296-56.325333z" fill="#eef1f8"/><path d="m102.932019 15.1146667c1.516281 2.5673333-4.5114715 9.7646666-10.1387977 13.9613333-6.3554349 4.7406667-8.9188315 3.2166667-17.8943902 8.1426667-8.9902409 4.934-8.6111705 7.666-16.7424968 11.632-6.9821023 3.4053333-17.5119829 6.3913333-19.0182537 3.87-2.0501834-3.43 12.5527015-17.1373334 27.6300917-26.0253334 17.6160938-10.3846666 33.8073367-15.5693333 36.1638467-11.5806666" fill="#22282d"/><path d="m88.9939753 84.9421333s17.8870487 16.1393337 61.8872407-1.8526666c0 0-61.9386288 45.5840003-114.7428633 36.7833333l-7.9264414-23.3673333s42.3143966-3.15 60.782064-11.5633334" fill="#d9dadd"/></g><path d="m216.596467 17.8722c-17.414667 29.3146667-51.182667 48.0253333-89.218667 64.122-45.018 19.050667-74.074 25.153333-104.556 22.891333-17.23333333-1.279333-20.64266667-4.172-21.74666667-6.8446663-6.05333333-14.658 44.49466667-53.5293334 94.86466667-74.7553334 51.158-21.55866663 116.881333-30.79466663 123.142667-15.93799997 1.459333 3.46333337-.658667 7.44933337-2.486 10.52466667" fill="#e6e7ec" mask="url(#f)" transform="translate(0 40.512)"/><path d="m212.088 59.8861333c-16.676667 28.0706667-49.012667 45.9879997-85.434667 61.4019997-43.1079997 18.243334-70.931333 24.086667-100.1206663 21.92-16.5026667-1.224666-19.76733337-3.994666-20.82400003-6.554-5.79733334-14.036 42.60733333-51.2579997 90.83933333-71.5839997 48.989333-20.644 111.924667-29.4886666 117.919333-15.262 1.398 3.316-.63 7.1326667-2.379333 10.078" fill="#eef1f8"/><path d="m179.137467 63.7846-55.154-58.236c-5.73-6.05-14.922-7.23933333-22.003334-2.84666667l-74.7959997 46.39399997c-6.938 4.304-9.994 12.8226667-7.374 20.556l17.3526667 51.2099997s58.3553333 13.494667 141.974667-57.077333" fill="#eef1f8"/><path d="m159.785267 43.351c-64.8753337 52.85-113.7620003 55.0513333-130.6460003 53.8313333l8.0233333 23.6799997s58.356 13.494667 141.974667-57.0779997z" fill="#272d35"/><path d="m103.0958 13.0241333c1.535333 2.6006667-4.5673333 9.8953334-10.2633333 14.148-6.4333334 4.8033334-9.028 3.2593334-18.114 8.2513334-9.1013334 5-8.7173334 7.768-16.948 11.7866666-7.068 3.4513334-17.7273334 6.4766667-19.252 3.922-2.0753334-3.476 12.7066666-17.3666666 27.9693333-26.3726666 17.8326667-10.524 34.222667-15.77733337 36.608-11.7353334" fill="#e6e7ec"/><path d="m90.6674 85.4649333s18.106 16.3553337 62.647333-1.8766666c0 0-62.699333 46.1920003-116.1519997 37.2740003l-8.0233333-23.6800003s42.834-3.1913334 61.528-11.7173334" fill="#1e1c1d"/></g></svg>