<svg height="294" viewBox="0 0 261 294" width="261" xmlns="http://www.w3.org/2000/svg"><g fill="none" fill-rule="evenodd"><g fill-rule="nonzero" transform="translate(19.17132)"><path d="m117.537426 166.487434 72.854836 73.056873c3.225177 3.233805 8.450962 3.233805 11.676139 0l36.423858-36.521298c3.225177-3.233805 3.225177-8.473569 0-11.707375l-12.850872-12.885251-22.042273 22.101239c-.783155.785251-1.808377 1.177877-2.840719 1.177877-1.025222 0-2.057563-.392626-2.840719-1.177877-1.566311-1.570501-1.566311-4.118997 0-5.689498l22.042272-22.101239-14.395825-14.434336-9.988794 10.022655c-.783156.78525-1.808378 1.177876-2.84072 1.177876-1.025222 0-2.057563-.392626-2.840719-1.177876-1.566311-1.570502-1.566311-4.118998 0-5.689499l9.995914-10.022655-14.395825-14.434336-22.042272 22.101239c-.783156.785251-1.808378 1.177876-2.840719 1.177876-1.025222 0-2.057564-.392625-2.840719-1.177876-1.566312-1.570502-1.566312-4.118997 0-5.689499l22.042272-22.101239-14.189357-14.227315-42.418559-42.5320357-15.983495-16.0476696-24.0499983 24.1143363c-.7831556.7852507-1.8083776 1.1778761-2.8407192 1.1778761-1.0252219 0-2.0575635-.3926254-2.8407192-1.1778761-1.5663113-1.5705015-1.5663113-4.1189971 0-5.6894986l24.0499987-24.1143362-14.3958252-14.4343363-12.0036405 12.0357522c-.7831556.7852507-1.8083776 1.1778761-2.8407191 1.1778761-1.025222 0-2.0575636-.3926254-2.8407192-1.1778761-1.5663114-1.5705015-1.5663114-4.1189971 0-5.6894985l12.0036404-12.0357522-14.395825-14.4343363-24.042879 24.1071976c-.7831556.7852508-1.8083776 1.1778761-2.8407191 1.1778761-1.025222 0-2.0575636-.3926253-2.8407192-1.1778761-1.5663114-1.5705015-1.5663114-4.118997 0-5.6894985l24.0499985-24.1143363-10.8431462-10.87215339c-3.2251774-3.23380531-8.4509616-3.23380531-11.676139 0l-36.42385804 36.51415929c-3.22517743 3.240944-3.22517743 8.480708 0 11.7145133l72.66260664 72.8569909z" fill="#ffda00"/><g transform="translate(.142392)"><path d="m168.022488 30.6747493-44.938896 45.0662536-48.0999968 48.2286731-54.1516545 54.296519c-3.673712 3.68354-6.2011689 8.088082-7.561012 12.763893-.2847838.89947-11.07097324 36.428496-12.8010353 41.468378-1.75142085 5.10413 2.45626095 10.815044 8.78558265 9.187434 10.99265775-2.826903 40.58882225-13.120826 40.58882225-13.120826l-.0284784-.028555c4.9267611-1.31351 9.5616188-3.883422 13.4204403-7.752566l54.1658938-54.296519 48.085758-48.228673 44.938896-45.0519763zm-9.305313 44.4880236-100.3649583 100.6263131c-1.1676139 1.185014-2.7125664 1.770383-4.2503994 1.770383-1.5449525 0-3.0899051-.585369-4.2646386-1.770383-2.349467-2.355753-2.349467-6.174927 0-8.530679l100.3578393-100.6263126c2.349467-2.3700295 6.17269-2.3700295 8.522157 0 2.356587 2.3557522 2.356587 6.1677876 0 8.5306785z" fill="#4a90e2"/><path d="m158.717175 75.1627729-100.3649583 100.6263131c-1.1676139 1.185014-2.7125664 1.770383-4.2503994 1.770383-1.5449525 0-3.0899051-.585369-4.2646386-1.770383-2.349467-2.355753-2.349467-6.174927 0-8.530679l100.3578393-100.6263126c2.349467-2.3700295 6.17269-2.3700295 8.522157 0 2.356587 2.3557522 2.356587 6.1677876 0 8.5306785z" fill="#336097"/><path d="m232.668429 51.3696755c11.711737-11.7430678 11.711737-30.7889675 0-42.53203538-11.704618-11.74306785-30.713942-11.74306785-42.411439 0l-15.19322 15.22672568 42.418558 42.5320354z" fill="#ff5254"/></g><path d="m210.576319 73.2067847 7.041282-6.6032449-42.411439-42.5320354-7.041282 6.6032449z" fill="#f7f7f7"/></g><ellipse cx="130.5" cy="284" fill="#000" opacity=".05" rx="130.5" ry="10"/></g></svg>