<svg width="48" height="75" viewBox="0 0 48 75" fill="none" xmlns="http://www.w3.org/2000/svg">
<g id="icn_lightning">
<path id="Path" d="M45.8184 30.9082H27.7609L43.3491 3.28731C43.7348 2.60696 43.7326 1.77212 43.3428 1.09405C42.9508 0.416564 42.2326 0 41.4547 0H15.2728C14.3336 0 13.5001 0.605392 13.2041 1.50203L0.113102 41.1992C-0.110763 41.8687 0.00230601 42.6069 0.411398 43.1796C0.822764 43.753 1.48129 44.0917 2.18186 44.0917H20.6916L8.90461 71.938C8.48245 72.9274 8.83643 74.0798 9.73984 74.6566C10.6285 75.2288 11.8222 75.0783 12.5393 74.2623L47.4485 34.5651C48.0195 33.9191 48.1604 32.9938 47.8087 32.2065C47.457 31.4168 46.6775 30.9082 45.8184 30.9082Z" fill="#427FE0"/>
</g>
</svg>
