<svg width="75" height="75" viewBox="0 0 75 75" fill="none" xmlns="http://www.w3.org/2000/svg">
<g id="img_intelligent_strategy">
<path id="Path" d="M54.8719 35.5022C53.8898 27.4367 47.5656 21.0872 39.55 20.1191C38.8598 20.0399 38.1658 20.0001 37.4711 20C30.3872 20.011 24.0088 24.3201 21.315 30.9145C18.6212 37.509 20.1436 45.0879 25.1711 50.111C27.8446 52.688 29.3757 56.2393 29.4194 59.965V62H45.5714V59.9545C45.5836 56.2993 47.0609 52.8039 49.6686 50.26C53.6073 46.435 55.5338 40.9711 54.8718 35.5028V35.5022H54.8719Z" fill="#427FE0"/>
<path id="Path_2" d="M37.9999 75C39.7972 74.9979 41.3988 73.7966 42 72H34C34.601 73.7966 36.2027 74.9979 37.9999 75Z" fill="#427FE0"/>
<path id="Path_3" d="M31 67.75C31.001 68.44 31.5824 68.999 32.3 69H42.7C43.4176 68.999 43.999 68.44 44 67.75V64H31V67.75H31Z" fill="#427FE0"/>
<path id="Path_4" d="M37.5 12C38.8807 12 40 10.8061 40 9.3333V2.6667C40 1.19393 38.8807 0 37.5 0C36.1193 0 35 1.19393 35 2.6667V9.3333C35 10.8061 36.1193 12 37.5 12Z" fill="#427FE0"/>
<path id="Path_5" d="M14.4688 18.2458C15.5191 19.2514 17.1722 19.2514 18.2225 18.2458C18.7203 17.7468 19 17.0699 19 16.3642C19 15.6584 18.7203 14.9815 18.2225 14.4826L13.5305 9.7795C13.0329 9.2804 12.3579 9 11.6541 9C10.9503 9 10.2752 9.2804 9.77753 9.7795C9.27969 10.2783 9 10.9551 9 11.6608C9 12.3665 9.27969 13.0432 9.77753 13.5421L14.4688 18.2458Z" fill="#427FE0"/>
<path id="Path_6" d="M12 37.5C12 36.1193 10.8061 35 9.3333 35H2.6667C1.19452 35.0014 0.00145833 36.1198 0 37.5C0.00145833 38.8802 1.19452 39.9986 2.6667 40H9.3333C10.8061 40 12 38.8807 12 37.5Z" fill="#427FE0"/>
<path id="Path_7" d="M17.0316 56.0903C16.1146 55.8446 15.1367 56.1086 14.4668 56.7828L9.77726 61.4848C9.27959 61.9835 9 62.66 9 63.3654C9 64.0709 9.27959 64.7473 9.77726 65.2461C10.8269 66.2513 12.4793 66.2513 13.5289 65.2461L18.2192 60.5447C18.8916 59.8732 19.155 58.8928 18.91 57.9735C18.6649 57.0542 17.9486 56.3359 17.0316 56.0903Z" fill="#427FE0"/>
<path id="Path_8" d="M60.5331 56.7828C59.8632 56.1087 58.8852 55.8446 57.9683 56.0902C57.0513 56.3359 56.3351 57.0539 56.09 57.9732C55.845 58.8926 56.1083 59.873 56.7808 60.5446L61.4711 65.246C62.5207 66.2513 64.1731 66.2513 65.2227 65.246C65.7204 64.7474 66 64.0709 66 63.3654C66 62.6599 65.7204 61.9835 65.2227 61.4847L60.5331 56.7828Z" fill="#427FE0"/>
<path id="Path_9" d="M72.3333 35H65.6667C64.1939 35 63 36.1193 63 37.5C63 38.8807 64.1939 40 65.6667 40H72.3333C73.8061 40 75 38.8807 75 37.5C75 36.1193 73.8061 35 72.3333 35Z" fill="#427FE0"/>
<path id="Path_10" d="M60.5314 18.2458L65.2227 13.542C65.8931 12.8698 66.1549 11.8903 65.9095 10.9721C65.664 10.0539 64.9488 9.3368 64.0329 9.09074C63.117 8.84468 62.1399 9.10719 61.4695 9.77931L56.7775 14.4824C56.2797 14.9814 56 15.6583 56 16.364C56 17.0698 56.2797 17.7467 56.7775 18.2456C57.828 19.2514 59.4813 19.2514 60.5314 18.2458Z" fill="#427FE0"/>
</g>
</svg>
