<svg width="84" height="80" viewBox="0 0 84 80" fill="none" xmlns="http://www.w3.org/2000/svg">
<path fill-rule="evenodd" clip-rule="evenodd" d="M61.5005 0C53.1523 0 45.8819 4.56055 42 11.3129C38.1181 4.56055 30.8477 0 22.4995 0C10.0711 0 0 10.0811 0 22.5078C0 34.9416 10.0711 45.0191 22.4995 45.0191C26.2956 45.0191 29.8647 44.0662 32.9995 42.4108V76.4245C32.9995 78.3928 34.608 80 36.574 80H47.426C49.3938 80 51.0005 78.3928 51.0005 76.4245V42.4108C54.1353 44.0662 57.7044 45.0191 61.5005 45.0191C73.9289 45.0191 84 34.9416 84 22.5078C84 10.0811 73.9289 0 61.5005 0ZM22.4995 33.0108C16.7035 33.0108 11.9995 28.3072 11.9995 22.5078C11.9995 16.7119 16.7035 12.0047 22.4995 12.0047C28.2973 12.0047 32.9995 16.7119 32.9995 22.5078C32.9995 28.3072 28.2973 33.0108 22.4995 33.0108ZM51.0005 22.5078C51.0005 28.3072 55.7027 33.0108 61.5005 33.0108C67.2965 33.0108 72.0005 28.3072 72.0005 22.5078C72.0005 16.7119 67.2965 12.0047 61.5005 12.0047C55.7027 12.0047 51.0005 16.7119 51.0005 22.5078Z" fill="#427FE0"/>
</svg>
