<svg width="85" height="80" viewBox="0 0 85 80" fill="none" xmlns="http://www.w3.org/2000/svg">
<g id="imhg_comprehensive">
<path id="Shape" fill-rule="evenodd" clip-rule="evenodd" d="M75.3754 27.5018L84.5816 41.1142C85.0121 41.7636 85.1167 42.5741 84.8661 43.3113C84.6133 44.0485 84.0344 44.6271 83.2976 44.8712L53.249 54.8705C52.1927 55.2273 51.0156 54.83 50.3891 53.8867L42.5001 42.0078L34.6111 53.8867C33.985 54.829 32.8087 55.2275 31.7511 54.8705L1.70253 44.8712C0.965758 44.6272 0.386866 44.0486 0.134026 43.3113C-0.11649 42.5741 -0.0119011 41.7635 0.418574 41.1142L9.62457 27.502L0.418408 13.8897C-0.0120671 13.2402 -0.116656 12.4298 0.13386 11.6925C0.3867 10.9554 0.965592 10.3768 1.70236 10.1326L31.751 0.133364C32.8113 -0.232943 33.9835 0.174861 34.6109 1.11712L42.4999 12.9961L50.3889 1.11712C51.0115 0.179694 52.1739 -0.230443 53.2489 0.133364L83.2975 10.1326C84.0342 10.3766 84.6131 10.9552 84.866 11.6925C85.1165 12.4298 85.0119 13.2402 84.5816 13.8895L75.3754 27.5018ZM20.4894 27.502L42.5001 34.8671L64.5108 27.502L42.5001 20.1369L20.4894 27.502Z" fill="#427FE0"/>
<path id="Path" d="M55.1826 59.5996C52.0844 60.656 48.5815 59.5104 46.7018 56.6434L43.0002 51L39.298 56.6434C37.4222 59.5049 33.9233 60.6611 30.8052 59.5946L11 52.8855V67.4909C11 68.5684 11.6779 69.5237 12.6827 69.8633L42.2067 79.8656C42.2957 79.8973 42.3846 79.9218 42.4736 79.9413C42.4736 79.9413 42.476 79.9413 42.476 79.9438H42.4785C42.6516 79.9805 42.827 80 43.0002 80C43.1853 80 43.3679 79.978 43.5506 79.9365C43.6323 79.9169 43.7115 79.8949 43.791 79.8681L73.3175 69.8634C74.3221 69.5237 75 68.5684 75 67.4909V52.8858L55.1826 59.5996Z" fill="#427FE0"/>
</g>
</svg>
