<svg width="419" height="315" viewBox="0 0 419 315" fill="none" xmlns="http://www.w3.org/2000/svg">
<g id="img_increase">
<g id="Group">
<path id="Path" d="M49.4052 296.252H10.8878L10.2238 271.737H48.7411L49.4052 296.252Z" fill="#427FE0"/>
<path id="Path_2" d="M99.2131 296.252H60.6958L60.0317 255.172H98.549L99.2131 296.252Z" fill="#427FE0"/>
<path id="Path_3" d="M148.354 296.252H109.837V235.295H147.69L148.354 296.252Z" fill="#427FE0"/>
<path id="Path_4" d="M198.161 296.252H159.644L158.98 198.854H197.497L198.161 296.252Z" fill="#427FE0"/>
<path id="Path_5" d="M247.305 296.252H209.452L208.788 167.713H247.305V296.252Z" fill="#427FE0"/>
<path id="Path_6" d="M297.112 296.252H258.594L257.93 125.308H296.448L297.112 296.252Z" fill="#427FE0"/>
<path id="Path_7" d="M346.92 296.252H308.402L307.738 110.731H346.256L346.92 296.252Z" fill="#427FE0"/>
<path id="Path_8" d="M396.061 296.252H357.544V51.7621H396.061V296.252Z" fill="#427FE0"/>
</g>
<path id="Path_9" opacity="0.3" d="M93.7281 314.828C163.429 314.828 216.535 289.089 215.207 289.749C276.278 264.669 331.375 226.389 374.524 176.23L381.162 181.51L403.732 198.01C405.723 199.33 407.715 199.33 409.706 199.33C410.37 199.33 411.034 199.33 411.697 198.67C415.68 196.69 418.999 192.73 418.336 188.11L418.999 91.7506C418.336 87.1307 415.017 83.8307 411.034 83.8307C410.37 83.8307 409.042 83.8307 408.378 83.8307L315.444 110.23C313.452 110.23 312.125 111.55 310.797 112.87C308.142 114.85 306.814 118.15 307.478 121.45C308.142 123.43 308.805 126.73 312.788 128.71L331.375 142.57L343.324 151.81C306.15 200.65 256.364 242.889 221.181 263.349C174.714 289.749 140.859 301.629 86.426 307.568C79.124 308.228 71.822 308.888 71.822 312.188C71.822 314.168 86.426 315.488 93.7281 314.828Z" fill="black"/>
<path id="Path_10" d="M22.0562 230.998C91.8737 230.998 145.068 205.258 143.738 205.918C204.911 180.838 260.101 142.559 303.321 92.3991L309.97 97.679L332.578 114.179C334.573 115.499 336.567 115.499 338.562 115.499C339.227 115.499 339.892 115.499 340.557 114.839C344.546 112.859 347.871 108.899 347.206 104.279L347.871 7.91992C347.206 3.29997 343.882 0 339.892 0C339.227 0 338.562 0 337.232 0L244.142 26.3997C242.147 27.0597 240.818 27.7197 239.488 29.0397C236.828 31.0197 235.498 34.3197 236.163 37.6196C236.828 39.5996 237.493 42.8996 241.483 44.8796L260.101 58.7394L272.069 67.9793C234.833 116.819 185.629 159.058 150.387 179.518C103.842 205.918 69.931 217.798 15.4069 223.738C8.09271 224.398 0.778493 225.058 0.778493 228.358C-0.551364 230.338 14.0771 231.658 22.0562 230.998Z" fill="#FF5254"/>
</g>
</svg>
