<svg width="75" height="75" viewBox="0 0 75 75" fill="none" xmlns="http://www.w3.org/2000/svg">
<g id="icn_reach_beyond">
<path id="Path" d="M11.2953 58.8374H8.08067C3.62492 58.8374 0 62.4629 0 66.9186V72.8026C0 74.0163 0.98362 74.9999 2.19727 74.9999H11.6735C11.4292 74.3121 11.2953 73.5728 11.2953 72.8026V58.8374Z" fill="#427FE0"/>
<path id="Path_2" d="M26.9851 47.0701H23.7711C19.3153 47.0701 15.6898 50.6956 15.6898 55.1513V72.8027C15.6898 74.0163 16.6734 74.9999 17.8871 74.9999H27.3634C27.1196 74.3122 26.9851 73.5729 26.9851 72.8027V47.0701Z" fill="#427FE0"/>
<path id="Path_3" d="M74.5686 22.0711L58.8781 0.889206C58.4633 0.330162 57.8087 0 57.1123 0C56.4159 0 55.7608 0.330162 55.3465 0.889206L39.6566 22.0711C39.1628 22.7377 39.0867 23.6263 39.4598 24.3673C39.8335 25.1083 40.5922 25.5764 41.4225 25.5764H47.0701V72.8027C47.0701 74.0164 48.0537 75 49.2674 75H64.9572C66.1709 75 67.1545 74.0164 67.1545 72.8027V25.5764H72.8027C73.6324 25.5764 74.3918 25.1083 74.7648 24.3673C75.1385 23.6263 75.0624 22.7377 74.5686 22.0711Z" fill="#427FE0"/>
<path id="Path_4" d="M42.6756 35.3027H39.4609C35.0052 35.3027 31.3797 38.9277 31.3797 43.3834V72.8027C31.3797 74.0164 32.3639 75 33.577 75H43.0532C42.8095 74.3122 42.6756 73.5729 42.6756 72.8027V35.3027Z" fill="#427FE0"/>
</g>
</svg>
