<svg height="53" viewBox="0 0 268 53" width="268" xmlns="http://www.w3.org/2000/svg"><g fill="#fff" fill-rule="evenodd"><path d="m68.33 40v-21h11.73v1.56h-10.08v8.64h9.18v1.56h-9.18v9.24zm23.4085712 0v-21h1.65v21zm17.1085708 0h-1.65v-21c1.17 0 4.44-.06 5.04-.06 5.73 0 7.35 2.85 7.35 6.06 0 3-2.16 5.25-4.98 5.85l7.35 9.15h-2.04l-6.99-8.82h-4.08zm3.3-19.5c-.63 0-2.31.03-3.3.06v9.06h3.63c2.67 0 5.37-1.83 5.37-4.62 0-2.55-1.44-4.5-5.7-4.5zm30.098572 14.28c0-5.94-10.86-3.78-10.86-10.8 0-2.94 2.25-5.25 6.15-5.25 2.34 0 4.47.84 5.64 2.13l-.9 1.23c-1.2-1.2-2.76-1.8-4.68-1.8-2.76 0-4.47 1.47-4.47 3.69 0 5.88 10.86 3.48 10.86 10.77 0 3.36-2.97 5.52-6.69 5.52-2.49 0-5.4-1.14-6.45-3.03l.99-1.14c1.23 1.68 3.54 2.61 5.43 2.61 2.58 0 4.98-1.35 4.98-3.93zm10.088571-14.22v-1.56h17.19v1.56h-7.77v19.44h-1.65v-19.44zm30.518571 19.44h-3.69v-21c1.17 0 4.5-.06 5.97-.06 6.18 0 8.13 3.3 8.13 6.75 0 3.57-2.67 6.81-7.68 6.81-.63 0-1.83 0-2.73-.09zm2.64-17.61c-.75 0-1.65.03-2.64.06v6.45c.87.09 1.77.15 2.61.15 2.19 0 3.9-1.05 3.9-3.39 0-2.19-1.35-3.27-3.87-3.27zm13.149796 17.61 8.88-21.06h3.24l8.88 21.06h-3.93l-2.19-5.37h-8.97l-2.19 5.37zm10.41-16.29-3.09 7.47h6.15zm27.489795 8.43v-3.45h8.52v8.7c-1.86 1.86-5.25 2.94-7.86 2.94-6.87 0-10.95-4.29-10.95-10.83 0-6.03 4.05-10.83 10.47-10.83 3 0 5.04.78 6.75 2.13l-1.56 2.94c-1.05-.99-2.91-1.62-4.74-1.62-4.05 0-7.02 2.7-7.02 7.38 0 4.47 2.85 7.38 7.11 7.38 1.62 0 3.57-.69 4.35-1.44v-3.3zm18.819796 7.86v-21h12.15v3.45h-8.46v5.22h7.56v3.45h-7.56v5.43h8.76v3.45z"/><path d="m27.5799373 36.76875c-.830721-2.484375-1.8275862-5.3-1.8275862-5.3-.6645768-1.9875-2.1598746-3.64375-4.3197492-4.30625l-9.8025079-3.3125-1.66144196-.496875c-2.32601881-.828125-2.32601881-3.975-.1661442-4.803125.99686516-.33125 1.66144196-.6625 1.66144196-.6625l33.5611286-12.91875s.3322884-.165625.6645768-.165625c1.661442-.6625 3.1567398.99375 2.492163 2.65l-.3322884.828125s-5.6489028 14.90625-8.9717869 23.1875c-1.3291536 3.975-9.968652 9.275-11.2978056 5.3zm-1.8275862 5.134375 2.9905956 8.778125c.4984326 1.490625 1.8275862 2.31875 3.1567398 2.31875s2.6583072-.6625 3.1567398-2.153125l17.7774295-46.209375c.1661442-.33125.1661442-.828125.1661442-1.325 0-1.821875-1.4952978-3.3125-3.322884-3.3125-.3322884 0-.830721 0-1.1630094.165625l-46.35423199 17.721875c-1.49529781.496875-2.15987461 1.821875-2.15987461 3.146875s.830721 2.65 2.32601881 3.146875l8.80564259 2.98125c6.4796239 2.31875 12.4608151 8.28125 14.6206897 14.740625z" fill-rule="nonzero"/></g></svg>