<svg height="20" viewBox="0 0 15 20" width="15" xmlns="http://www.w3.org/2000/svg"><path d="m1086.46717 12.4663377c.64666-.6986403.94059-1.4607933.52908-2.0324081-.82301-1.27025509-2.58662-4.89048207-4.17386-2.79456119-.70544.88917856-1.46967 2.09592088-1.46967 2.09592088s-.35272.38107651-.35272 1.14322961c.17636 5.7161478 9.11195 13.14714 14.16762 12.0039105.64665-.1905383.94058-.6986403.94058-.6986403s.88181-1.0797169 1.52846-2.0324082c1.52846-2.1594336-2.17511-3.1121249-3.52721-3.6837397-.58786-.3175638-1.23452.1905383-1.70481 1.0162041-1.11695 1.9053826-7.34835-3.366176-5.93747-5.0175076z" fill="#fff" fill-rule="evenodd" transform="matrix(.96592583 .25881905 -.25881905 .96592583 -1040.993902 -286.472237)"/></svg>