<svg height="100" viewBox="0 0 90 100" width="90" xmlns="http://www.w3.org/2000/svg"><path d="m89.2473118 38.8888889h-16.7338709v-6.1111111c9.4825268-2.2222222 16.7338709-11.1111111 16.7338709-21.6666667h-16.7338709v-5.55555554c0-3.33333334-2.2311828-5.55555556-5.577957-5.55555556h-44.6236559c-3.3467742 0-5.577957 2.22222222-5.577957 5.55555556v5.55555554h-16.733871c0 10.5555556 7.25134409 18.8888889 16.733871 21.6666667v6.1111111h-16.733871c0 10.5555555 7.25134409 18.8888889 16.733871 21.6666667v6.1111111h-16.733871c0 10.5555555 7.25134409 18.8888889 16.733871 21.6666666v6.1111111c0 3.3333334 2.2311828 5.5555556 5.577957 5.5555556h44.6236559c3.3467742 0 5.577957-2.2222222 5.577957-5.5555556v-6.1111111c9.4825268-2.2222222 16.7338709-11.1111111 16.7338709-21.6666666h-16.7338709v-6.1111111c9.4825268-2.7777778 16.7338709-11.1111112 16.7338709-21.6666667zm-44.6236559 50c-6.1357527 0-11.155914-5-11.155914-11.1111111s5.0201613-11.1111111 11.155914-11.1111111 11.155914 5 11.155914 11.1111111-5.0201613 11.1111111-11.155914 11.1111111zm0-27.7777778c-6.1357527 0-11.155914-5-11.155914-11.1111111s5.0201613-11.1111111 11.155914-11.1111111 11.155914 5 11.155914 11.1111111-5.0201613 11.1111111-11.155914 11.1111111zm0-27.7777778c-6.1357527 0-11.155914-5-11.155914-11.1111111s5.0201613-11.1111111 11.155914-11.1111111 11.155914 5 11.155914 11.1111111-5.0201613 11.1111111-11.155914 11.1111111z" fill="#ff5254"/></svg>