<svg height="75" viewBox="0 0 45 75" width="45" xmlns="http://www.w3.org/2000/svg"><path d="m37.9691016 0h-31.05000004c-3.70617187 0-6.72152343 3.03431604-6.72152343 6.76379717v61.35990563c0 3.7294812 3.01535156 6.7637972 6.72152343 6.7637972h31.05000004c3.7065234 0 6.7215234-3.034316 6.7215234-6.7637972v-61.35990563c0-3.72948113-3.015-6.76379717-6.7215234-6.76379717zm-15.525 71.2018868c-1.7441016 0-3.158086-1.4225236-3.158086-3.1779481 0-1.7550708 1.4139844-3.1779481 3.158086-3.1779481 1.7441015 0 3.1580859 1.4228773 3.1580859 3.1779481 0 1.7550707-1.4139844 3.1779481-3.1580859 3.1779481zm17.5872656-9.4365566h-35.17453126v-53.79905662h35.17453126zm-17.5872656-38.1612028c-6.4617188 0-11.7186328 5.2899764-11.7186328 11.7923349s5.256914 11.7923349 11.7186328 11.7923349c6.4617187 0 11.7189843-5.2899764 11.7189843-11.7923349s-5.256914-11.7923349-11.7189843-11.7923349zm4.8571875 13.3241745-6.4451954 3.7446934c-.2717578.157783-.5755078.2370283-.8789062.2370283s-.6071484-.0792453-.8789063-.2370283c-.5438671-.3159198-.8789062-.9-.8789062-1.5318396v-7.4893868c0-.6318397.3350391-1.2155661.8789062-1.5318397.5438672-.3159198 1.2139454-.3159198 1.7578125 0l6.4451954 3.7446934c.5438671.3162736.8789062.9.8789062 1.5318397 0 .6318396-.3350391 1.215566-.8789062 1.5318396z" fill="#ff5254"/></svg>