<svg height="29" viewBox="0 0 39 29" width="39" xmlns="http://www.w3.org/2000/svg"><g fill="#427fe0" stroke="#427fe0" stroke-width=".25" transform="translate(1 1)"><path d="m34.7981913 0h-23.7658088c-.9423741 0-.9436952 1.51236183 0 1.51236183h23.7658088c.4046925 0 .7339363.33922276.7339363.75618092v17.86991615c0 .4169582-.3292438.756181-.7339363.756181h-12.8507094c-.2246579 0-.4369122.1059409-.5761399.2876512l-2.9604052 3.8642357-3.1398525-3.8799643c-.1394479-.172258-.3459775-.2719226-.5637364-.2719226h-12.50553924c-.40469243 0-.73393622-.3392228-.73393622-.756181v-17.86991615c0-.41695816.32924379-.75618092.73393622-.75618092h2.7927741c.9423741 0 .94369519-1.51236183 0-1.51236183h-2.7927741c-1.2140773 0-2.20180866 1.01766828-2.20180866 2.26854275v17.86991615c0 1.2508745.98773136 2.2685428 2.20180866 2.2685428h12.16198364l3.4991144 4.3238425c.2954827.3651597.853788.3576735 1.1398029-.0158042l3.3005112-4.3080383h12.4949705c1.2140773 0 2.2018087-1.0176683 2.2018087-2.2685428v-17.86991615c0-1.25087447-.9877314-2.26854275-2.2018087-2.26854275z"/><path d="m4.03564471 9.387974c-.07707191.24814917-.02736453.52029068.13172819.7212169l1.41706051 1.7904367-.14082544 2.3203243c-.11062256 1.8177041 2.49701331-.1126497 3.05958728-.1009201.5674501.0118819 3.16897265 1.8980594 3.05958725.1009201l-.1408982-2.3203243 1.4171333-1.7904367c.3309944-.4180758.1257604-1.08826138-.379974-1.22368471l-2.1519727-.57672977-1.18919263-1.96371458c-.27764808-.4586723-.95004406-.46149045-1.22943882 0l-1.18919258 1.96371458-2.15197279.57672977c-.2415502.06466502-.43455746.25424246-.51162937.50246781zm3.30433971.32142097c.53804778-.14410628.89218554-1.08650952 1.16313805-1.5339854.26658583.4402401.63025752 1.39125011 1.16313806 1.5339854l1.31917407.35356303-.868751 1.0975536c-.11826426.149438-.17757833.3405387-.1657883.534153l.0863875 1.422402-1.26582783-.52547c-.17241109-.0715199-.36432668-.0715199-.53673778 0l-1.26582782.52547.08631472-1.422402c.01179003-.1936143-.04752404-.384715-.1657883-.534153l-.86867825-1.0975536z"/><path d="m22.964378 9.38803422c-.0770181-.24814801-.2698906-.43780073-.5112722-.50254161l-2.1504704-.57672705-1.1883623-1.96370535c-.2774543-.45867014-.9493808-.46148827-1.2285805 0l-1.1883624 1.96370535-2.1504704.57672705c-.2413816.06474088-.4343268.2543936-.5112722.50254161s-.0273454.52028823.1316362.72121348l1.416144 1.7904283-.1407999 2.3203133c-.110618 1.8176195 2.4953428-.1126491 3.0574513-.1009196.5670539.0118819 3.1667602 1.8980505 3.0574512.1009196l-.1407998-2.3203133 1.4161439-1.7904283c.1589089-.20092525.2085816-.47306547.1315635-.72121348zm-2.8519242 1.77252928c-.1181817.1494372-.1774544.3405371-.1656726.5341504l.0863272 1.4223954c-.4541813-.1886626-1.0341079-.5791644-1.5330892-.5791644-.496654 0-1.0801443.3909588-1.5330893.5791644l.0863272-1.4223954c.0117818-.1936133-.0474909-.3847132-.1656726-.5341504l-.8681445-1.0975484 1.3182532-.35356142c.5376721-.1441056.8915626-1.08650441 1.162326-1.53397819.2663997.44023803.6298175 1.39124358 1.162326 1.53397819l1.3182531.35356142z"/><path d="m32.9643561 9.38810708c-.07707-.24822951-.2700727-.43781014-.5116172-.50255242l-2.1519219-.57673945-1.1891644-1.96374757c-.2776415-.45868001-.9500216-.4614982-1.2294097 0l-1.1891645 1.96374757-2.1519218.57673945c-.502593.13466394-.7129892.80303276-.379965 1.22370524l1.4170998 1.7904668-.1408949 2.3203632c-.11062 1.8174301 2.495717-.1127277 3.0595148-.1009217.5663451.0118059 3.1688977 1.8985482 3.0595149.1009217l-.1408221-2.3203632 1.417027-1.7904668c.1590889-.2008534.2087951-.47299947.131725-.72115282zm-2.8537763 1.77256742c-.1182614.1494404-.1775741.3405444-.1657843.5341619l.0863126 1.4224259-1.2657978-.5254788c-.1788841-.0715211-.357841-.0715211-.5367251 0l-1.2657979.5254788.0863855-1.4224259c.0117897-.1936175-.0475229-.3847215-.1657844-.5341619l-.8687305-1.097572 1.3191429-.35356905c.5380351-.14410869.8921644-1.08652777 1.1631105-1.53401117.2665796.4402475.6302426 1.39127349 1.1631106 1.53401117l1.3191428.35356905z"/><path d="m7.22186409.91541588c.37697237.25796305.88025326-.11687856.76000474-.54878411-.05724451-.20565026-.24390268-.35543687-.45770566-.36603946-.21330215-.01055258-.41493504.12082953-.49156154.3195781-.08253627.21425236-.0043572.46886459.18926246.59524547z"/></g></svg>