<svg height="75" viewBox="0 0 75 75" width="75" xmlns="http://www.w3.org/2000/svg"><path d="m37.4894874 0c-20.704864 0-37.4894874 16.7846234-37.4894874 37.4894874 0 20.7048641 16.7846234 37.4894875 37.4894874 37.4894875 20.7048641 0 37.4894875-16.7846234 37.4894875-37.4894875-.0219665-20.6956066-16.7937239-37.46736397-37.4894875-37.4894874zm15.7882846 38.6839958c-.2595189.5206067-.6814331.9426778-1.2021967 1.2021967v.0133368l-21.4225418 10.7113494c-1.3230126.6610355-2.9312762.1245816-3.5924686-1.198431-.1879708-.3760983-.2847804-.7912657-.2824687-1.2116109v-21.4225418c-.0005857-1.4789749 1.1976883-2.6783473 2.6766632-2.679132.4159519 0 .8262552.096496 1.1982741.282427l21.4225418 10.7113493c1.3236402.6596235 1.861977 2.2674163 1.2021967 3.5910565z" fill="#ff5254"/></svg>