<svg height="75" viewBox="0 0 82 75" width="82" xmlns="http://www.w3.org/2000/svg"><g fill="#ff5254"><path d="m21.2787609 59.6653217c-5.4509289 0-10.2995936-3.4901407-12.06025057-8.6860738l-.11908114-.3915342c-.41522583-1.3759809-.58917179-2.5331265-.58917179-3.6908956v-23.2152342l-8.26024914 27.5732341c-1.0623794 4.055621 1.35852392 8.2602493 5.42037945 9.3806107l52.65074969 14.1002185c.6571291.1702051 1.3142581.2518787 1.9614116.2518787 3.3910104 0 6.489617-2.2506982 7.3580997-5.5675165l3.0674334-9.7546877z"/><path d="m30.642538 23.9135118c3.7557356 0 6.809453-3.0543408 6.809453-6.8100764s-3.0537174-6.8100763-6.809453-6.8100763-6.8100764 3.0543407-6.8100764 6.8100763 3.0543408 6.8100764 6.8100764 6.8100764z"/><path d="m73.2038009.0785563h-51.0740141c-4.6915523 0-8.512128 3.82057567-8.512128 8.51275125v37.45386145c0 4.6921756 3.8205757 8.5127512 8.512128 8.5127512h51.0740141c4.6921756 0 8.5127512-3.8205756 8.5127512-8.5127512v-37.45386145c0-4.69217558-3.8205756-8.51275125-8.5127512-8.51275125zm-51.0740141 6.81007625h51.0740141c.9401808 0 1.7026748.76249417 1.7026748 1.702675v24.17162515l-10.7559677-12.5509153c-1.1409357-1.3379497-2.7924867-2.0530606-4.5662365-2.0935858-1.7637742.0099754-3.4184425.7930438-4.5487794 2.1484505l-12.6463048 15.1788078-4.1198374-4.109862c-2.328631-2.3286308-6.118657-2.3286308-8.4441705 0l-9.3974442 9.3943267v-32.13884705c0-.94018083.7624942-1.702675 1.7020516-1.702675z"/></g></svg>