<svg height="100" viewBox="0 0 78 100" width="78" xmlns="http://www.w3.org/2000/svg"><g fill="#ff5254"><path d="m35.8674464 29.5621832v1.6269006h5.8479532v-1.6269006c5.8520468-1.3337232 10.2339181-6.5762183 10.2339181-12.8263158v-13.811306c0-.87933723-.3900584-1.70350877-1.0699805-2.26120857-.679922-.55769981-1.5649122-.77816765-2.4272904-.60604289-4.3754386.87504873-7.9834308 3.92339181-9.6606238 7.94307992-1.677193-4.01968811-5.2851852-7.06803119-9.6606238-7.94307992-.862768-.17251462-1.7469785.04853801-2.4272904.60604289-.6799221.55750487-1.0699805 1.38167641-1.0699805 2.26120857v13.811306c0 6.2500975 4.3818713 11.4925926 10.2339181 12.8263158z"/><path d="m77.0423002 15.5101365c-.448538-.7565303-1.2042885-1.2664718-2.0736842-1.3994153-4.4101365-.674074-8.8432749.9563353-11.7945419 4.160039-.1832359-3.962768-2.1477583-7.7155945-5.3768031-10.10545806v8.57076026c0 5.779922-2.5939572 10.9647173-6.6783626 14.4532164h21.3499025c.0270955-.0699806.0563353-.1387915.0820663-.2095517l4.7237817-12.9785575c.3007797-.8265107.2159844-1.7345029-.2323587-2.4910331z"/><path d="m5.11423002 31.1890838h21.34970758c-4.0844054-3.488499-6.6783626-8.6732943-6.6783626-14.4532164v-8.57076019c-3.2290448 2.38986359-5.1935672 6.14269009-5.3768031 10.10545809-2.951267-3.2035088-7.38440543-4.8337232-11.79454188-4.1598441-.86939571.1329435-1.6251462.642885-2.07368421 1.3994153-.44853801.7565302-.5331384 1.6645224-.23235867 2.491228l4.72378167 12.9781677c.02592593.0707602.05497076.1395711.08226121.2095516z"/><path d="m25.1461988 76.0233918c-1.6148148 0-2.9239766 1.3091618-2.9239766 2.9239766s1.3091618 2.9239766 2.9239766 2.9239766h3.3161794l.271345-5.8479532z"/><path d="m52.4366472 81.871345c1.6148148 0 2.9239766-1.3091618 2.9239766-2.9239766s-1.3091618-2.9239766-2.9239766-2.9239766h-3.5875244l.271345 5.8479532z"/><path d="m36.2832359 51.8734893c11.282846-13.6506823 32.6576998-14.791423 33.5619883-14.8333334l.0678362-.0031189h-62.31072122c-1.08460039 0-2.08031189.6003899-2.58635477 1.5598441-.50604289.9594542-.43937622 2.120078.17309941 3.0152047l23.54463938 34.411306h1.1387914c-1.085575-9.5641325 1.0664718-17.6840156 6.4107213-24.1499025z"/><path d="m70.1167641 42.8818713c-.2943469.0150098-19.7555555 1.1138402-29.3417154 12.7364523-4.3957115 5.3296296-6.0797271 12.1929824-5.0122807 20.4050682h13.0865497l22.7218324-33.2089668z"/><path d="m24.2902534 96.0561404c-.260039.8840155-.0879142 1.8389863.4641326 2.5768031.5520467.7378167 1.4194931 1.1723197 2.3411306 1.1723197h23.3918128c.9216375 0 1.7890839-.434503 2.3411306-1.1723197.5520468-.7378168.7241716-1.6927876.4641326-2.5768031l-4.1721248-14.1847954h-20.6580896z"/></g></svg>