<svg height="68" viewBox="0 0 79 68" width="79" xmlns="http://www.w3.org/2000/svg"><g fill="#ff5254"><path d="m27.1692498 64c-8.3633131 0-15.1692498-6.4835268-15.1692498-14.450654 0-1.5414031.2393371-3.0089473.7146402-4.357675.5899153-1.6826984 2.5012408-2.5850614 4.2642447-2.0263028 1.7663748.5619699 2.7203521 2.3827523 2.1270659 4.0622394-.2393371.6936314-.364062 1.4739667-.364062 2.3217384 0 4.4251114 3.7821996 8.0281411 8.427361 8.0281411 3.8631023 0 7.3048365-2.5914839 8.1779111-6.1559786.421368-1.7276559 2.245049-2.8066381 4.0485042-2.3955973 1.8135681.4014071 2.9394635 2.1322743 2.5147245 3.856719-1.6045695 6.5445406-7.6655275 11.1173698-14.7411398 11.1173698z"/><path d="m76.53125 65c-.2304167 0-.4608333-.0326325-.6846667-.0946341l-74.06249997-21.2110996c-1.056625-.3034819-1.78408333-1.2628763-1.78408333-2.3528005v-14.6846074c0-1.0899242.72745833-2.0493185 1.78408333-2.3528004l74.06249997-21.21109965c.7472084-.2055845 1.550375-.06852816 2.1692084.39485278.6188333.46338095.9842083 1.18782158.9842083 1.95794766v57.10680661c0 .7701261-.365375 1.4945667-.9842083 1.9579477-.4345.3197981-.9545834.4894869-1.4845417.4894869z"/><path d="m75.5 68c-1.932 0-3.5-1.4860488-3.5-3.3170732v-61.36585363c0-1.83102439 1.568-3.31707317 3.5-3.31707317s3.5 1.48604878 3.5 3.31707317v61.36585363c0 1.8310244-1.568 3.3170732-3.5 3.3170732z"/><path d="m3.5 48c-1.932 0-3.5-1.4757647-3.5-3.2941176v-21.4117648c0-1.8183529 1.568-3.2941176 3.5-3.2941176s3.5 1.4757647 3.5 3.2941176v21.4117648c0 1.8183529-1.568 3.2941176-3.5 3.2941176z"/></g></svg>