<svg height="75" viewBox="0 0 75 75" width="75" xmlns="http://www.w3.org/2000/svg"><g fill="#ff5254"><path d="m8.8124904 55.2217106-8.75450846 12.2460936c-.07064637.0988865-.07721059.2260033-.01708035.3307628.06013024.1047594.17719804.170183.30461506.170183h5.65358801l8.06339534-12.890625h-4.96244033c-.11560107 0-.22356974.0538099-.28756927.1435856z"/><circle cx="16.992188" cy="19.335938" r="4.101563"/><path d="m66.796875 44.53125h7.8613281c.1886638-.0002614.3415427-.1575083.3417969-.3515625v-6.6796875h-8.203125z"/><path d="m39.1663629 62.296875c-.2550538.3245935-.6553357.515625-1.0804254.515625s-.8253716-.1910315-1.0804254-.515625l-5.6722333-7.21875h-14.0801713l-7.8781075 12.890625h57.421875l-7.8781075-12.890625h-14.0801713z"/><path d="m49.4140625 43.6422h6.8359375v-12.001575h-8.203125v12.890625l.2734375-.3556133c.2581745-.3358185.6634054-.5334551 1.09375-.5334367z"/><path d="m74.6544846 67.96875c.1274166 0 .2444839-.0654236.304614-.170183.06013-.1047595.0535658-.2318763-.0170803-.3307628l-8.7544762-12.2460936c-.0640267-.0897723-.1720073-.1435856-.2876201-.1435856h-4.962422l8.0633656 12.890625z"/><path d="m66.796875 16.40625h8.203125v10.546875h-8.203125z"/><path d="m.44951451 71.5134298c-.15046156.0000112-.3007152-.0097005-.44951451-.0290548v3.2250775c0 .1603754.1500079.2903314.33482143.2905475h74.33035717c.1848135-.0002161.3348214-.1301721.3348214-.2905475v-3.2250775c-.1487993.0193543-.299053.029066-.4495145.0290548z"/><path d="m64.2857143 6.74048719v-6.74048719h-5.3571429v6.74048719c0 .74453366-.5996186 1.34809744-1.3392857 1.34809744h-22.7678571v-2.69619488h21.4285714v-5.39238975h-55.91517857c-.18481353 0-.33482143.15099486-.33482143.33702436v43.81316674c0 .1860295.1500079.3367737.33482143.3370244h25.11160717c.4215562-.0000266.8185159.1997592 1.0714285.5392389l10.9821429 14.7391706 8.0357143-10.7847795v-17.9746044c0-.7445337.5996186-1.3480975 1.3392857-1.3480975h10.7142857c.7396671 0 1.3392857.6035638 1.3392857 1.3480975v13.4809744h5.3571429v-8.0885847c0-.7445336.5996186-1.3480974 1.3392857-1.3480974h9.375v-5.3923898h-9.375c-.7396671 0-1.3392857-.6035637-1.3392857-1.3480974v-13.4809744c0-.7445336.5996186-1.3480974 1.3392857-1.3480974h9.375v-5.39238977h-9.375c-.7396671 0-1.3392857-.60356378-1.3392857-1.34809744zm-38.3904241 25.79446271c-1.7851224 2.1876069-3.7416618 4.2275881-5.8508036 6.1003262l-1.763856 1.5166097c-.5009843.4307988-1.2388483.4307988-1.7398326 0l-1.763856-1.5166097c-2.1091541-1.8727469-4.0657151-3.9127272-5.85087057-6.1003262-4.1455413-5.0919831-6.2475-9.8070382-6.2475-14.0141638 0-8.0000483 6.6088058-14.5085111 14.73214287-14.5085111 8.123337 0 14.7321428 6.5085302 14.7321428 14.5085785 0 4.2070582-2.1019587 8.9221133-6.2475669 14.0140964zm14.2832812 17.3446553h-2.6785714v-17.5252667h-2.6785714v-2.6961949h4.0178571c.7396671 0 1.3392857.6035638 1.3392857 1.3480975zm18.75-26.9619488c0 .7445337-.5996186 1.3480975-1.3392857 1.3480975h-22.7678571v-2.6961949h21.4285714v-5.3923897h-21.4285714v-2.6961949h22.7678571c.7396671 0 1.3392857.6035638 1.3392857 1.3480974z"/><path d="m74.6582031 0h-7.8613281v5.859375h8.203125v-5.49316406c-.0002542-.2021398-.1531331-.3659386-.3417969-.36621094z"/><path d="m16.9921875 7.03125c-6.784873 0-12.3046875 5.2684483-12.3046875 11.744278 0 3.547153 1.93737305 7.6633073 5.7582178 12.2342338 1.7186129 2.0534095 3.6026233 3.9682288 5.633872 5.7260017l.9125977.7642365.9125977-.7642365c2.0312528-1.7578049 3.9152633-3.672658 5.633872-5.7261022 3.8208448-4.5708595 5.7582178-8.6869803 5.7582178-12.2342003 0-6.4758297-5.5198145-11.744211-12.3046875-11.744211zm0 18.7963804c-3.775384 0-6.8359375-3.0004193-6.8359375-6.7016242 0-3.7012048 3.0605535-6.7016241 6.8359375-6.7016241s6.8359375 3.0004193 6.8359375 6.7016241c-.0042476 3.6994786-3.0623143 6.6974601-6.8359375 6.7016242z"/></g></svg>