<svg height="100" viewBox="0 0 88 100" width="88" xmlns="http://www.w3.org/2000/svg"><g fill="#ff5254"><path d="m43.9453125 45.3125c-12.4927734 0-22.65625-10.1634766-22.65625-22.65625s10.1634766-22.65625 22.65625-22.65625 22.65625 10.1634766 22.65625 22.65625-10.1634766 22.65625-22.65625 22.65625z"/><g transform="translate(0 45.40625)"><path d="m52.734375 16.5078125c0-5.015625 1.4082031-9.70839844 3.8492187-13.70449219-3.8115234 1.89316406-8.1015625 2.96230469-12.6382812 2.96230469-5.884375 0-11.3578125-1.79179688-15.9041016-4.85820312-5.6214843 2.17910156-10.7785156 5.52558593-15.1697265 9.91679682-8.30039065 8.3001954-12.8714844 19.3357422-12.8714844 31.0740235v9.7658203c0 1.6179687 1.31171875 2.9296875 2.9296875 2.9296875h82.03125c1.6179687 0 2.9296875-1.3117188 2.9296875-2.9296875v-9.7658203c0-.1759766-.0048828-.3525391-.0070312-.5289063-2.7484375.9738282-5.7041016 1.5056641-8.7820313 1.5056641-14.5388672 0-26.3671875-11.8283203-26.3671875-26.3671875z"/><path d="m52.734375 16.5078125c0-5.015625 1.4082031-9.70839844 3.8492187-13.70449219-3.8115234 1.89316407-8.1015625 2.96230469-12.6382812 2.96230469-5.884375 0-11.3578125-1.79179687-15.9041016-4.85820312-5.6214843 2.17910156-10.7785156 5.52558593-15.1697265 9.91679692-8.30039065 8.3001953-12.8714844 19.3357421-12.8714844 31.0740234v9.7658203c0 1.6179688 1.31171875 2.9296875 2.9296875 2.9296875h82.03125c1.6179687 0 2.9296875-1.3117187 2.9296875-2.9296875v-9.7658203c0-.1759766-.0048828-.3525391-.0070312-.5289063-2.7484375.9738282-5.7041016 1.5056641-8.7820313 1.5056641-14.5388672 0-26.3671875-11.8283203-26.3671875-26.3671875z" transform="matrix(-1 0 0 1 87.890624 0)"/></g></g></svg>