<svg height="75" viewBox="0 0 69 75" width="69" xmlns="http://www.w3.org/2000/svg"><g fill="#ff5254"><path d="m66.5530003 12.4998092c0 5.6093217-4.5567985 10.1566316-10.1785322 10.1566316-5.6217338 0-10.1785322-4.5473099-10.1785322-10.1566316 0-5.60874929 4.5567984-10.1560592 10.1785322-10.1560592 5.6217337 0 10.1785322 4.54730991 10.1785322 10.1560592z"/><path d="m56.3744681 25.0001908c-6.9091755 0-12.5274684-5.6064607-12.5274684-12.5003816 0-6.89334856 5.6182929-12.4998092 12.5274684-12.4998092s12.5274684 5.60646064 12.5274684 12.4998092c0 6.8939209-5.6182929 12.5003816-12.5274684 12.5003816zm0-20.3126908c-4.3188082 0-7.8295961 3.50646973-7.8295961 7.8123092 0 4.3064118 3.5107879 7.8128816 7.8295961 7.8128816s7.829596-3.5064698 7.829596-7.8128816c0-4.30583947-3.5107878-7.8123092-7.829596-7.8123092z"/><path d="m66.5530003 62.5001908c0 5.6087493-4.5567985 10.1560592-10.1785322 10.1560592-5.6217338 0-10.1785322-4.5473099-10.1785322-10.1560592 0-5.6093217 4.5567984-10.1566316 10.1785322-10.1566316 5.6217337 0 10.1785322 4.5473099 10.1785322 10.1566316z"/><path d="m56.3744681 75c-6.9091755 0-12.5274684-5.6064606-12.5274684-12.4998092 0-6.8939209 5.6182929-12.5003816 12.5274684-12.5003816s12.5274684 5.6064607 12.5274684 12.5003816c0 6.8933486-5.6182929 12.4998092-12.5274684 12.4998092zm0-20.3126908c-4.3188082 0-7.8295961 3.5064698-7.8295961 7.8128816 0 4.3058395 3.5107879 7.8123092 7.8295961 7.8123092s7.829596-3.5064697 7.829596-7.8123092c0-4.3064118-3.5107878-7.8128816-7.829596-7.8128816z"/><path d="m22.7065742 37.5c0 5.6093216-4.5573721 10.1560592-10.1791058 10.1560592-5.62116019 0-10.17853223-4.5467376-10.17853223-10.1560592s4.55737204-10.1560592 10.17853223-10.1560592c5.6217337 0 10.1791058 4.5467376 10.1791058 10.1560592z"/><path d="m12.5274684 49.9998092c-6.90860197 0-12.5274684-5.6058883-12.5274684-12.4998092s5.61886643-12.4998092 12.5274684-12.4998092c6.9091755 0 12.5280419 5.6058883 12.5280419 12.4998092s-5.6188664 12.4998092-12.5280419 12.4998092zm0-20.3121184c-4.31880823 0-7.82959606 3.5058974-7.82959606 7.8123092s3.51078783 7.8123092 7.82959606 7.8123092c4.3193816 0 7.8301696-3.5058974 7.8301696-7.8123092s-3.510788-7.8123092-7.8301696-7.8123092z"/><path d="m19.9223737 36.0002518c-1.0901679 0-2.1487949-.5659103-2.725133-1.5781403-.8550449-1.4968872-.3285987-3.4063339 1.1716008-4.2629241l29.0606298-16.5309907c1.5001995-.8594512 3.4138715-.3341675 4.2723572 1.1684418.8550449 1.4968872.3285987 3.4063339-1.1716008 4.2629241l-29.0612035 16.5309907c-.488597.2780914-1.0207779.4096985-1.5466505.4096985z"/><path d="m48.9801362 61.7815018c-.526446 0-1.0586269-.1316071-1.547224-.4096985l-29.0612034-16.5309907c-1.5001995-.853157-2.0260721-2.7626037-1.1710274-4.2629241.8516042-1.4997482 2.7681434-2.027893 4.2717837-1.1684418l29.0612035 16.5309907c1.5001995.853157 2.0260721 2.7626037 1.1710272 4.2629241-.5792054 1.01223-1.6378325 1.5781403-2.7245596 1.5781403z"/></g></svg>