<svg height="75" viewBox="0 0 56 75" width="56" xmlns="http://www.w3.org/2000/svg"><g fill="#ff5254"><path d="m17.1110625 18.75h-6.2222708c-.8598334 0-1.5556042.698877-1.5556042 1.5625488v6.2500489c0 .8636718.6957708 1.5625488 1.5556042 1.5625488h6.2222708c.8598333 0 1.5556042-.698877 1.5556042-1.5625488v-6.2500489c0-.8636718-.6957709-1.5625488-1.5556042-1.5625488z"/><path d="m31.1110625 18.75h-6.2222708c-.8598334 0-1.5556042.698877-1.5556042 1.5625488v6.2500489c0 .8636718.6957708 1.5625488 1.5556042 1.5625488h6.2222708c.8598333 0 1.5556042-.698877 1.5556042-1.5625488v-6.2500489c0-.8636718-.6957709-1.5625488-1.5556042-1.5625488z"/><path d="m45.1110625 18.75h-6.2222708c-.8598334 0-1.5556042.698877-1.5556042 1.5625488v6.2500489c0 .8636718.6957708 1.5625488 1.5556042 1.5625488h6.2222708c.8598333 0 1.5556042-.698877 1.5556042-1.5625488v-6.2500489c0-.8636718-.6957709-1.5625488-1.5556042-1.5625488z"/><path d="m17.1110625 34.3750488h-6.2222708c-.8598334 0-1.5556042.698877-1.5556042 1.5625489v6.2499023c0 .8636719.6957708 1.5625488 1.5556042 1.5625488h6.2222708c.8598333 0 1.5556042-.6988769 1.5556042-1.5625488v-6.2500488c0-.8635254-.6957709-1.5624024-1.5556042-1.5624024z"/><path d="m31.1110625 34.3750488h-6.2222708c-.8598334 0-1.5556042.698877-1.5556042 1.5625489v6.2499023c0 .8636719.6957708 1.5625488 1.5556042 1.5625488h6.2222708c.8598333 0 1.5556042-.6988769 1.5556042-1.5625488v-6.2500488c0-.8635254-.6957709-1.5624024-1.5556042-1.5624024z"/><path d="m45.1110625 34.3750488h-6.2222708c-.8598334 0-1.5556042.698877-1.5556042 1.5625489v6.2499023c0 .8636719.6957708 1.5625488 1.5556042 1.5625488h6.2222708c.8598333 0 1.5556042-.6988769 1.5556042-1.5625488v-6.2500488c0-.8635254-.6957709-1.5624024-1.5556042-1.5624024z"/><ellipse cx="45.111063" cy="10.937549" rx="1.555604" ry="1.562549"/><path d="m49.7777292 0h-43.55545837c-3.43175 0-6.22227083 2.80297852-6.22227083 6.25004883v62.50004887c0 3.4469238 2.79052083 6.2499023 6.22227083 6.2499023h43.55560417c3.4316042 0 6.222125-2.8029785 6.222125-6.2500488v-62.49990237c0-3.44707031-2.7905208-6.25004883-6.2222708-6.25004883zm-21.7777292 70.3125c-1.715 0-3.1110625-1.4022949-3.1110625-3.1249512 0-1.7226562 1.3960625-3.1249511 3.1110625-3.1249511s3.1110625 1.4022949 3.1110625 3.1249511c0 1.7226563-1.3960625 3.1249512-3.1110625 3.1249512zm-21.77772917-10.9374023v-53.12504887h43.55560417l.0037917 53.12504887z"/></g></svg>