<svg height="80" viewBox="0 0 80 80" width="80" xmlns="http://www.w3.org/2000/svg"><path d="m40 0c-22.0913813 0-40 17.9086187-40 40s17.9086187 40 40 40 40-17.9086187 40-40c-.0234375-22.081504-17.9183286-39.97639506-40-40zm16.8455592 41.2744995c-.2768977.5554696-.7270657 1.005805-1.2827027 1.2827027v.01423l-22.8571189 11.4286431c-1.4116091.7053024-3.1275713.1329243-3.8330411-1.2786848-.2005583-.401284-.3038508-.8442534-.3013844-1.2927473v-22.857119c-.0006249-1.5780156 1.2778925-2.8577048 2.8559081-2.8585421.4438064 0 .881586.1029579 1.2785174.3013399l22.8571189 11.4286432c1.4122788.7037956 1.9866658 2.4192556 1.2827027 3.8315343z" fill="#ff5254"/></svg>