<svg height="75" viewBox="0 0 75 75" width="75" xmlns="http://www.w3.org/2000/svg"><g fill="#ff5254"><path d="m70.045752 23.6992676c-1.6048829-1.6060547-4.1562012-1.7069824-5.8814942-.3011719-.2494629.2033203-.05625.0241699-3.8550293 3.8229492l9.8607422 9.8608887 3.5438965-3.4996582c1.7134277-1.7134277 1.7134277-4.5013184 0-6.2148926z"/><path d="m40.0879395 47.6291016-5.8004883 12.4297851c-.3906739.8374512-.215918 1.8295899.4374023 2.4829102.6533203.6534668 1.6458985.8280761 2.4829102.4374023l12.4297851-5.8006347c.4917481-.2295411-.9969726 1.1638183 17.4055664-17.0088868l-9.8412597-9.8414062c-18.2458008 18.2459473-16.879834 16.799414-17.113916 17.3008301z"/><path d="m53.3393555 59.8785645c-.5381836.5312988-1.1583985.9626953-1.8435059 1.2824707l-12.4297851 5.8006347c-2.4442383 1.1406739-5.4303223.7063477-7.4484375-1.312207-1.9527833-1.9526367-2.4802735-4.9460449-1.3125-7.448877l5.8006347-12.4300781c.3257813-.697998.7672852-1.3281738 1.3120606-1.8730957l18.6865722-18.6865723v-18.61904292c0-3.6347168-2.95708-6.59179688-6.5917968-6.59179688h-42.91992192c-3.6347168 0-6.59179687 2.95708008-6.59179687 6.59179688v61.81640622c0 3.6347168 2.95708007 6.5917969 6.59179687 6.5917969h42.91992192c3.6347168 0 6.5917968-2.9570801 6.5917968-6.5917969v-11.2604004zm-41.6195801-45.6695801h32.8125c1.2134766 0 2.1972656.983789 2.1972656 2.1972656s-.983789 2.1972656-2.1972656 2.1972656h-32.8125c-1.2134766 0-2.19726563-.983789-2.19726563-2.1972656s.98378903-2.1972656 2.19726563-2.1972656zm0 11.71875h25.78125c1.2134766 0 2.1972656.983789 2.1972656 2.1972656s-.983789 2.1972656-2.1972656 2.1972656h-25.78125c-1.2134766 0-2.19726563-.983789-2.19726563-2.1972656s.98378903-2.1972656 2.19726563-2.1972656zm-2.19726563 13.9160156c0-1.2134766.98378903-2.1972656 2.19726563-2.1972656h18.75c1.2134766 0 2.1972656.983789 2.1972656 2.1972656s-.983789 2.1972656-2.1972656 2.1972656h-18.75c-1.2134766 0-2.19726563-.983789-2.19726563-2.1972656z"/></g></svg>