<svg height="87" viewBox="0 0 100 87" width="100" xmlns="http://www.w3.org/2000/svg"><g fill="#ff5254"><path d="m71.9960854 57.3248408h-1.9323911v10.1910828h1.9323911c1.1884622 0 1.8892649-.7477153 1.8892649-2.2543963v-5.7385418c0-1.5066811-.7008027-2.1981447-1.8892649-2.1981447z"/><path d="m43.3013204 57.3248408c-1.1884622 0-1.9000465.6797478-1.9000465 2.1916307v5.8078214c0 1.5127386.7115843 2.1916307 1.9000465 2.1916307 1.1892913 0 1.9216095-.6788921 1.9216095-2.1916307v-5.8078214c0-1.5118829-.7323182-2.1916307-1.9216095-2.1916307z"/><path d="m89.5500761 38.4110614h-3.3821796l-29.1387114-27.2057161c.5503833-1.0756848.8365474-2.2661211.8356696-3.47407668-.0026334-4.27295641-3.4761047-7.73389354-7.7580339-7.73126713-4.2819289.00262941-7.7501334 3.46882229-7.7475 7.74177893-.0008777 1.20357559.2861643 2.39050798.8356697 3.46181308l-29.1387114 27.2074679h-3.3821797c-5.82335312 0-10.6740994 4.7845201-10.6740994 10.5956708v27.1338871c0 5.8120268 4.85074628 10.483566 10.6740994 10.483566h78.8759767c2.7826393.0052372 5.4520422-1.0993544 7.4148124-3.0685234 1.9618923-1.968293 3.0547585-4.6382339 3.034844-7.4150426v-27.1338871c0-5.8111507-4.6263032-10.5956708-10.4496564-10.5956708zm-61.3708047 32.3870485c-2.9432777 0-5.4151744-1.4348305-5.4151744-2.915211 0-.7620896.6741536-1.8833246 1.5282571-1.8833246 1.0559985 0 1.7301522 1.6590776 3.820204 1.6590776 1.0331757 0 2.179588-.40382 2.179588-1.4803807 0-2.7128631-7.1233814-2.24247-7.1233814-7.4894994 0-3.363705 2.9432777-4.6417377 5.7522513-4.6417377 1.1911802 0 4.4724123.224247 4.4724123 1.9735487 0 .6052918-.4046677 1.8386503-1.3939529 1.8386503-.8084578 0-1.2359483-.8523138-3.0784594-.8523138-1.5949705 0-2.2471789.6499658-2.2471789 1.345482 0 2.24247 7.1233814 1.816751 7.1233814 7.4676003 0 3.2288063-2.3595378 4.9781083-5.6179471 4.9781083zm20.3597912-5.381928c0 3.856873-2.4157172 5.2925795-5.5169995 5.2925795s-5.4941767-1.4357065-5.4941767-5.2925795v-5.9425456c0-3.8568732 2.3928944-5.2925797 5.4941767-5.2925797s5.5169995 1.4357065 5.5169995 5.2925797zm13.213587 5.0622006h-7.1014361c-.7636898 0-1.6177932-.2636653-1.6177932-.9810806v-14.2615836c0-.7401902.9216943-1.0546617 1.797743-1.0546617s1.7977431.3144715 1.7977431 1.0546617v12.3274532h5.1237432c.6741536 0 1.0112305.6955162 1.0112305 1.4576055 0 .7629655-.3370769 1.4576055-1.0112305 1.4576055zm15.7750198-5.1970993c0 3.8568732-2.4947195 5.1970993-5.5951242 5.1970993h-3.9782086c-.9208168 0-1.4378434-.3976879-1.4378434-.9583054v-14.2843588c0-.5606175.5170266-1.1264907 1.4378434-1.1264907h3.9782086c3.1004047 0 5.5951242 1.5075355 5.5951242 5.3644087zm-58.8699405-26.8702218 26.5052985-24.7433788c2.8607641 2.4036475 7.0408679 2.4001436 9.8981207-.0070078l26.5052985 24.7503866z"/></g></svg>