<svg height="30" viewBox="0 0 30 30" width="30" xmlns="http://www.w3.org/2000/svg"><path d="m29.6334049 27.86625-8.5311563-8.53125c1.6525014-2.0412305 2.6474709-4.635 2.6474709-7.4599805 0-6.54749997-5.327461-11.8750195-11.874889-11.8750195-6.54742809 0-11.8748305 5.32746094-11.8748305 11.8749609 0 6.5475 5.327461 11.8750196 11.8748891 11.8750196 2.8249494 0 5.4186904-.9949805 7.4598985-2.6475l8.5311563 8.53125c.2437473.24375.5637242.3662695.8837598.3662695.3200355 0 .6400125-.1225195.8837598-.3662695.4887251-.4887305.4887251-1.27875-.0000586-1.7674805zm-17.7585158-6.6162891c-5.16996276 0-9.37489703-4.2049804-9.37489703-9.375 0-5.17001949 4.20493427-9.37499996 9.37489703-9.37499996 5.1699627 0 9.374897 4.20498047 9.374897 9.37499996 0 5.1700196-4.2049929 9.375-9.374897 9.375z" fill="#427fe0"/></svg>