<svg height="77" viewBox="0 0 75 77" width="75" xmlns="http://www.w3.org/2000/svg"><path d="m243.250556 1746.22271c9.183002-12.91796 6.111763-30.80554-6.855442-39.95148-12.967206-9.14594-30.92298-6.08855-40.103788 6.83159-9.180808 12.91796-6.111764 30.80335 6.857636 39.94929 9.255395 6.52782 21.492085 7.03047 31.254234 1.28721l21.211286 21.00397c2.290267 2.40177 6.100796 2.49793 8.511717.21636 2.410922-2.27938 2.507447-6.07544.219375-8.4772-.072394-.07649-.142594-.14643-.219375-.21855zm-23.497165 1.95813c-10.246966.00218-18.554666-8.26741-18.561247-18.47546-.002194-10.20805 8.298924-18.4842 18.548084-18.48857 10.233804-.00437 18.537116 8.25211 18.556887 18.44705.017522 10.21023-8.279207 18.49949-18.530562 18.51698-.004387 0-.006581 0-.013162 0z" fill="#ff5254" transform="translate(-191 -1701)"/></svg>