<svg height="75" viewBox="0 0 74 75" width="74" xmlns="http://www.w3.org/2000/svg"><path d="m51.4211821 44.5048875c9.0372396-12.7129105 6.0147514-30.316561-6.7466259-39.31732756-12.7613773-9.00076657-30.4321388-5.99190853-39.46721956 6.72315306-9.03508079 12.712911-6.01475133 30.3144104 6.74878476 39.3151769 9.1084838 6.4242033 21.1509408 6.9188694 30.7581353 1.266775l20.874599 20.6705776c2.2539132 2.3636423 6.0039574 2.458274 8.3766103.2129215 2.3726534-2.243202 2.4676459-5.9790039.2158925-8.3426457-.0712447-.0752754-.1403302-.1440985-.2158925-.2150727zm-23.1241941 1.9270463c-10.0843162.0021507-18.2601471-8.136177-18.2666244-18.1821942-.0021584-10.0460171 8.1671956-18.1907971 18.2536706-18.1951 10.0713625-.0043 18.2428758 8.1211236 18.2623333 18.1542362.017244 10.0481678-8.1477918 18.2058518-18.2364262 18.223058-.0043176 0-.0064769 0-.0129533 0z" fill="#ff5254"/></svg>