<svg height="27" viewBox="0 0 30 27" width="30" xmlns="http://www.w3.org/2000/svg"><path d="m29.1265869 3.60023436c-.001831 0-.0036621-.00023436-.0054931-.00023436h-7.96875v-.9c0-1.48875-1.1828614-2.7-2.6367188-2.7h-7.03125c-1.4538574 0-2.63671875 1.21125-2.63671875 2.7v.9h-7.96875c-.48934934 0-.87890625.410625-.87890625.9v19.8c0 1.48875 1.18286133 2.7 2.63671875 2.7h24.72656245c1.4538575 0 2.6367188-1.21125 2.6367188-2.7v-19.78101564c0-.00117186 0-.00234372 0-.00351564-.0336456-.59109372-.3886413-.91195308-.8734131-.91523436zm-18.5211182-.90023436c0-.49617186.3943635-.9.8789063-.9h7.03125c.4845428 0 .8789062.40382814.8789062.9v.9h-8.7890625zm17.2961426 2.7-2.7294159 8.3845313c-.1197052.3682031-.4547882.6154687-.8335876.6154687h-4.9440765v-.9c0-.4971094-.3934479-.9-.8789063-.9h-7.03125c-.4854584 0-.8789062.4028906-.8789062.9v.9h-4.94407657c-.37879946 0-.71388246-.2472656-.83358768-.6154687l-2.72941588-8.3845313zm-10.2648926 9v1.8h-5.2734374v-1.8zm10.6054688 9.9c0 .4961719-.3943634.9-.8789062.9h-24.72656255c-.48454283 0-.87890625-.4038281-.87890625-.9v-14.2539844l1.40235902 4.3078125c.35934446 1.104375 1.36459348 1.8461719 2.50122071 1.8461719h4.94407657v.9c0 .4971094.3934478.9.8789062.9h7.03125c.4854584 0 .8789063-.4028906.8789063-.9v-.9h4.9440765c1.1366272 0 2.1418762-.7417969 2.5012207-1.8461719l1.402359-4.3078125z" fill="#427fe0"/></svg>