<svg height="75" viewBox="0 0 75 75" width="75" xmlns="http://www.w3.org/2000/svg"><path d="m72.3026674 0h-29.4560147c-.7101464 0-1.3911088.28242678-1.8932008.78467573l-40.16736403 40.16736397c-1.04639122 1.045136-1.04733264 2.7406381-.00203975 3.7870293.00062761.0006277.00141213.0014122.00203975.0020398l29.45601463 29.4560146c1.0457636 1.0452929 2.740795 1.0452929 3.7864017 0l40.167364-40.167364c.5028766-.5027197.7846763-1.1847803.7846763-1.8958682v-29.45601463c0-1.4789749-1.1989022-2.67787657-2.6778771-2.67787657zm-16.0669456 24.1004184c-2.9577929 0-5.3555963-2.3978033-5.3555963-5.3555962s2.3978034-5.3555963 5.3555963-5.3555963c2.9577928 0 5.3555962 2.3978034 5.3555962 5.3555963s-2.3978034 5.3555962-5.3555962 5.3555962z" fill="#ff5254"/></svg>