<svg height="75" viewBox="0 0 76 75" width="76" xmlns="http://www.w3.org/2000/svg"><g fill="#ff5254"><path d="m16.1116071 5.35714286h2.6785715v2.67857143h-2.6785715z"/><path d="m5.39732143 5.35714286h2.67857143v2.67857143h-2.67857143z"/><path d="m26.8258929 5.35714286h2.6785714v2.67857143h-2.6785714z"/><path d="m71.6919643 0h-68.30357144c-1.84553572 0-3.34821429 1.50267857-3.34821429 3.34821429v10.04464281h75.00000003v-10.04464281c0-1.84553572-1.5026786-3.34821429-3.3482143-3.34821429zm-60.9375 9.375c0 .7392857-.6 1.3392857-1.33928573 1.3392857h-5.35714286c-.73928571 0-1.33928571-.6-1.33928571-1.3392857v-5.35714286c0-.73928571.6-1.33928571 1.33928571-1.33928571h5.35714286c.73928573 0 1.33928573.6 1.33928573 1.33928571zm10.7142857 0c0 .7392857-.6 1.3392857-1.3392857 1.3392857h-5.3571429c-.7392857 0-1.3392857-.6-1.3392857-1.3392857v-5.35714286c0-.73928571.6-1.33928571 1.3392857-1.33928571h5.3571429c.7392857 0 1.3392857.6 1.3392857 1.33928571zm10.7142857 0c0 .7392857-.6 1.3392857-1.3392857 1.3392857h-5.3571429c-.7392857 0-1.3392857-.6-1.3392857-1.3392857v-5.35714286c0-.73928571.6-1.33928571 1.3392857-1.33928571h5.3571429c.7392857 0 1.3392857.6 1.3392857 1.33928571z"/><path d="m24.1473214 54.9107143h8.0357143v8.0357143h-8.0357143z"/><path d="m5.39732143 54.9107143h8.03571427v8.0357143h-8.03571427z"/><path d="m17.4508929 44.1964286h40.1785714v-21.4285715h-40.1785714zm14.7321428-16.0714286c0-.4767857.2544643-.91875.6669643-1.1584821.4138393-.2410715.9227679-.2410715 1.3366071-.0040179l9.375 5.3571429c.4178572.2383928.675.6816964.675 1.1625 0 .4808035-.2571428.9241071-.675 1.1625l-9.375 5.3571428c-.20625.1178572-.4352678.1767857-.6642857.1767857-.2316964 0-.4647321-.0602678-.6723214-.1808035-.4125-.2397322-.6669643-.6803572-.6669643-1.1584822z"/><path d="m42.8973214 54.9107143h8.0357143v8.0357143h-8.0357143z"/><path d="m34.8616071 30.4325893v6.0991071l5.3357143-3.0495535z"/><path d="m.04017857 16.0714286v55.5803571c0 1.846875 1.50267857 3.3482143 3.34821429 3.3482143h68.30357144c1.8455357 0 3.3482143-1.5026786 3.3482143-3.3482143v-55.5803571zm64.67812503 14.3397321c-.5236607-.5236607-.5236607-1.3700893 0-1.89375.5223214-.5236607 1.3714285-.5236607 1.89375 0l4.0178571 4.0178572c.5236607.5236607.5236607 1.3700892 0 1.89375l-4.0178571 4.0178571c-.2611607.2611607-.6040179.3924107-.946875.3924107-.3428572 0-.6857143-.13125-.946875-.3924107-.5236607-.5236607-.5236607-1.3700893 0-1.89375l3.0709821-3.0709821zm-60.26785717 2.1241072 4.01785714-4.0178572c.52232143-.5236607 1.37142857-.5236607 1.89375003 0 .5236607.5236607.5236607 1.3700893 0 1.89375l-3.06964289 3.0709822 3.06964289 3.0709821c.5236607.5236607.5236607 1.3700893 0 1.89375-.2611607.2611607-.60401789.3924107-.94687503.3924107s-.68571428-.13125-.946875-.3924107l-4.01785714-4.0178571c-.52366072-.5236608-.52366072-1.3700893 0-1.89375zm10.32187497 38.446875h-10.71428569c-.73928571 0-1.33928571-.6-1.33928571-1.3392858 0-.7392857.6-1.3392857 1.33928571-1.3392857h10.71428569c.7392857 0 1.3392857.6 1.3392857 1.3392857 0 .7392858-.6 1.3392858-1.3392857 1.3392858zm1.3392857-6.6964286c0 .7392857-.6 1.3392857-1.3392857 1.3392857h-10.71428569c-.73928571 0-1.33928571-.6-1.33928571-1.3392857v-10.7142857c0-.7392857.6-1.3392857 1.33928571-1.3392857h10.71428569c.7392857 0 1.3392857.6 1.3392857 1.3392857zm-1.3392857-18.75v-24.1071429c0-.7392857.6-1.3392857 1.3392857-1.3392857h42.8571429c.7392857 0 1.3392857.6 1.3392857 1.3392857v24.1071429c0 .7392857-.6 1.3392857-1.3392857 1.3392857h-42.8571429c-.7392857 0-1.3392857-.6-1.3392857-1.3392857zm18.75 25.4464286h-10.7142857c-.7392857 0-1.3392857-.6-1.3392857-1.3392858 0-.7392857.6-1.3392857 1.3392857-1.3392857h10.7142857c.7392857 0 1.3392857.6 1.3392857 1.3392857 0 .7392858-.6 1.3392858-1.3392857 1.3392858zm1.3392857-6.6964286c0 .7392857-.6 1.3392857-1.3392857 1.3392857h-10.7142857c-.7392857 0-1.3392857-.6-1.3392857-1.3392857v-10.7142857c0-.7392857.6-1.3392857 1.3392857-1.3392857h10.7142857c.7392857 0 1.3392857.6 1.3392857 1.3392857zm17.4107143 6.6964286h-10.7142857c-.7392857 0-1.3392857-.6-1.3392857-1.3392858 0-.7392857.6-1.3392857 1.3392857-1.3392857h10.7142857c.7392857 0 1.3392857.6 1.3392857 1.3392857 0 .7392858-.6 1.3392858-1.3392857 1.3392858zm1.3392857-6.6964286c0 .7392857-.6 1.3392857-1.3392857 1.3392857h-10.7142857c-.7392857 0-1.3392857-.6-1.3392857-1.3392857v-10.7142857c0-.7392857.6-1.3392857 1.3392857-1.3392857h10.7142857c.7392857 0 1.3392857.6 1.3392857 1.3392857zm17.4107143 6.6964286h-10.7142857c-.7392857 0-1.3392857-.6-1.3392857-1.3392858 0-.7392857.6-1.3392857 1.3392857-1.3392857h10.7142857c.7392857 0 1.3392857.6 1.3392857 1.3392857 0 .7392858-.6 1.3392858-1.3392857 1.3392858zm1.3392857-6.6964286c0 .7392857-.6 1.3392857-1.3392857 1.3392857h-10.7142857c-.7392857 0-1.3392857-.6-1.3392857-1.3392857v-10.7142857c0-.7392857.6-1.3392857 1.3392857-1.3392857h10.7142857c.7392857 0 1.3392857.6 1.3392857 1.3392857z"/><path d="m61.6473214 54.9107143h8.0357143v8.0357143h-8.0357143z"/></g></svg>