<svg height="100" viewBox="0 0 100 100" width="100" xmlns="http://www.w3.org/2000/svg"><g fill="#ff5254"><path d="m82.6290764 99.1445479-17.0360634-17.0322528-8.2577742 8.2573423c-.7128369.7127997-1.7478326 1.006523-2.7345531.778396-.9865259-.2337718-1.7793672-.9580557-2.098606-1.9188365l-16.5182736-49.5496991c-.3507734-1.0493455-.0770845-2.206915.704272-2.9882307.7784366-.7783959 1.9389866-1.0635547 2.9883869-.7042352l49.5522903 16.5174099c.9610257.3194168 1.6851528 1.112022 1.9189368 2.0984963.2310589.9837491-.0626798 2.0186907-.7784366 2.7344101l-8.2577742 8.2573424 17.0331436 17.0349779c1.1405001 1.1404405 1.1405001 2.9882306 0 4.1286712l-12.3866614 12.3860136c-1.1406948 1.1408297-2.9883869 1.1408297-4.1288871.0001946z"/><path d="m37.9166667 23.3333333c-1.6121389 0-2.9166667-1.3045277-2.9166667-2.9166666v-17.50000003c0-1.61213889 1.3045278-2.91666667 2.9166667-2.91666667s2.9166666 1.30452778 2.9166666 2.91666667v17.50000003c0 1.6121389-1.3045277 2.9166666-2.9166666 2.9166666z"/><path d="m23.3207461 27.4730961-12.4604764-12.4603599c-1.14702628-1.1470156-1.14702628-3.0054589 0-4.1524745 1.1470264-1.1470156 3.005487-1.1470156 4.1525133 0l12.4602806 12.4601642c1.1470263 1.1470156 1.1470263 3.0054588 0 4.1524744-1.1470263 1.1472114-3.0052912 1.1472114-4.1523175.0001958z"/><path d="m10.8602697 64.9730636c-1.14702628-1.1470263-1.14702628-3.005487 0-4.1525133l12.4602806-12.4602806c1.1470263-1.1470263 3.005487-1.1470263 4.1525133 0 1.1470263 1.1470264 1.1470263 3.005487 0 4.1525133l-12.4602806 12.4602806c-1.1470263 1.1470263-3.0052912 1.1470263-4.1525133 0z"/><path d="m48.3602697 27.4730636c-1.1470263-1.1470263-1.1470263-3.005487 0-4.1525133l12.4602806-12.4602806c1.1470263-1.14702628 3.005487-1.14702628 4.1525133 0 1.1470263 1.1470264 1.1470263 3.005487 0 4.1525133l-12.4602806 12.4602806c-1.1470263 1.1470263-3.0052912 1.1470263-4.1525133 0z"/><path d="m20.4166667 40.8333333h-17.50000003c-1.61213889 0-2.91666667-1.3045277-2.91666667-2.9166666s1.30452778-2.9166667 2.91666667-2.9166667h17.50000003c1.6121389 0 2.9166666 1.3045278 2.9166666 2.9166667s-1.3045277 2.9166666-2.9166666 2.9166666z"/></g></svg>