<svg height="75" viewBox="0 0 75 75" width="75" xmlns="http://www.w3.org/2000/svg"><g fill="#ff5254"><path d="m27.8470037 18.8098666c-8.8243933 9.1464024-6.8987492 24.3251701 3.2094557 31.0491853.3330622.2216564.7761697.1776769 1.0622578-.1023254 2.1280278-2.0830125 3.9282614-4.1006422 5.5045999-6.6666954.2411628-.3925898.0911677-.9020182-.3134531-1.1216221-1.5418031-.836782-3.0759967-2.4058215-3.9396756-4.0632597l-.0010244.0005864c-1.0346002-2.0638081-1.3868325-4.3772728-.8390944-6.7665287.0005853.0001466.0011707.0002932.001756.0002932.630272-3.058916 3.9083596-5.9043853 6.4120335-8.5359678-.0052681-.0017592-.0103899-.003665-.015658-.0054242l9.380619-9.5913275c3.7383164-3.8222524 9.8873829-3.853771 13.6644784-.0699273 3.8152895 3.7448485 3.8783606 9.9359797.1401906 13.7580855l-5.6819599 5.8533691c-.262967.2709133-.3482813.6661418-.2252122 1.0234013 1.3082498 3.8005559 1.6300441 9.1594496.7533412 13.2081961-.0245846.1133203.1150206.1874989.1959448.104671l12.092969-12.3646705c7.7252587-7.8987059 7.6596999-20.758878-.145605-28.57812767-7.9655435-7.97977462-20.9331667-7.91336567-28.816908.14733109l-12.3906178 12.66886158c-.0163897.0172986-.0319014.0348904-.0484375.0518957z"/><path d="m50.3609544 51.7038662c-.0001464.0004406-.0004392.0008813-.0005855.0013219.0077582-.0032314.0149309-.006316.0226892-.0096943 2.4687344-4.5297394 2.9547231-9.7248609 1.7977188-14.7892562l-.0052698.0054347-.0057089-.002497c-1.0985978-4.5106445-4.1130448-8.9897091-8.2070599-11.7474463-.3521954-.2372168-.9147418-.2097496-1.2445408.0578721-2.0737954 1.6825501-4.1036763 3.8401215-5.4430727 6.5934521-.2103511.4322781-.0528439.9515112.3617102 1.1929876 1.5544318.9055366 2.9582363 2.2313068 3.8981559 3.9914115l.0014638-.0010282c.7324961 1.2433686 1.4543064 3.6026109.9867619 6.1375259-.0002928 0-.0007319 0-.0010247 0-.4362187 3.3608407-3.818524 6.443631-6.5072708 9.2214912l.0013175.001322c-2.0467148 2.1001399-7.2495745 7.4223156-9.3328848 9.5580013-3.7393313 3.8295459-9.9213409 3.8928527-13.7378156.1407144-3.81647459-3.7521383-3.87956528-9.9553211-.140234-13.784867l5.7005589-5.8823893c.2583644-.2665935.3461937-.6540721.2312837-1.0076206-1.2657662-3.8969654-1.6125454-9.1452588-.8135918-13.1973331.0222501-.1129534-.1162274-.1850732-.1965912-.1028184l-11.91477263 12.2023444c-7.80685121 7.995308-7.74068649 21.0127089.14726041 28.9275248 7.96757872 7.8332955 20.87365112 7.7009535 28.68020952-.2939139 2.7120216-3.044013 14.3212947-13.8295195 15.7212933-17.2125396z"/></g></svg>