<?xml version="1.0" encoding="UTF-8"?>
<svg width="75px" height="75px" viewBox="0 0 75 75" version="1.1" xmlns="http://www.w3.org/2000/svg" xmlns:xlink="http://www.w3.org/1999/xlink">
    <!-- Generator: sketchtool 63.1 (101010) - https://sketch.com -->
    <title>316DC872-9821-4394-9928-C25A650D0DA4</title>
    <desc>Created with sketchtool.</desc>
    <g id="Website" stroke="none" stroke-width="1" fill="none" fill-rule="evenodd">
        <g id="Social-Media---WeChat" transform="translate(-691.000000, -3066.000000)" fill="#FF5254" fill-rule="nonzero">
            <g id="icn_reach_beyond" transform="translate(691.000000, 3066.000000)">
                <path d="M11.2953186,58.8375091 L8.08067314,58.8375091 C3.62491611,58.8375091 0,62.4629974 0,66.9187545 L0,72.8027344 C0,74.0163803 0.983619727,75 2.19726562,75 L11.6735458,75 C11.4292146,74.3122102 11.2953186,73.5729217 11.2953186,72.8027344 L11.2953186,58.8375091 Z" id="Path"></path>
                <path d="M26.9851685,47.0701217 L23.7710953,47.0701217 C19.3153381,47.0701217 15.6898499,50.69561 15.6898499,55.1513672 L15.6898499,72.8027344 C15.6898499,74.0163803 16.6734696,75 17.8871155,75 L27.3633957,75 C27.1196366,74.3122102 26.9851685,73.5729217 26.9851685,72.8027344 L26.9851685,47.0701217 Z" id="Path"></path>
                <path d="M74.5685578,22.0710754 L58.8781356,0.889205859 C58.4632874,0.330162012 57.8086853,0 57.1123124,0 C56.4159393,0 55.760765,0.330162012 55.3464889,0.889205859 L39.6566391,22.0710754 C39.1628265,22.7376938 39.0867233,23.6263274 39.4598007,24.3673324 C39.8334504,25.1083374 40.5921936,25.5764007 41.4224625,25.5764007 L47.0701217,25.5764007 L47.0701217,72.8027344 C47.0701217,74.0163803 48.0537415,75 49.2673874,75 L64.9572372,75 C66.1708831,75 67.1545028,74.0163803 67.1545028,72.8027344 L67.1545028,25.5764007 L72.8027344,25.5764007 C73.632431,25.5764007 74.3917465,25.1083374 74.7648239,24.3673324 C75.1384734,23.6263274 75.0623703,22.7376938 74.5685578,22.0710754 Z" id="Path"></path>
                <path d="M42.6755905,35.3027344 L39.4609452,35.3027344 C35.005188,35.3027344 31.3796997,38.9276505 31.3796997,43.3834075 L31.3796997,72.8027344 C31.3796997,74.0163803 32.3638916,75 33.5769653,75 L43.0532455,75 C42.8094864,74.3122102 42.6755905,73.5729217 42.6755905,72.8027344 L42.6755905,35.3027344 Z" id="Path"></path>
            </g>
        </g>
    </g>
</svg>