<svg height="30" viewBox="0 0 30 30" width="30" xmlns="http://www.w3.org/2000/svg"><g fill="#427fe0"><path d="m9.0625 21.25h-6.875c-1.20625 0-2.1875-.98125-2.1875-2.1875v-16.875c0-1.20625.98125-2.1875 2.1875-2.1875h18.125c1.20625 0 2.1875.98125 2.1875 2.1875v10.625c0 .5175-.42.9375-.9375.9375s-.9375-.42-.9375-.9375v-10.625c0-.1725-.14-.3125-.3125-.3125h-18.125c-.1725 0-.3125.14-.3125.3125v16.875c0 .1725.14.3125.3125.3125h6.875c.5175 0 .9375.42.9375.9375s-.42.9375-.9375.9375z"/><path d="m18.78125 25.42875c-.24 0-.48-.09125-.6625-.275l-5.6775-5.6775c-.82375-.825-.82375-2.1675.00125-2.9925s2.16625-.82375 2.9925-.00125l3.33 3.33125c.36625.36625.36625.96 0 1.32625s-.96.36625-1.32625 0l-3.33-3.33c-.095-.09375-.245-.095-.34.00125-.095.095-.09625.245-.00125.34l5.6775 5.6775c.36625.36625.36625.96 0 1.32625-.18375.1825-.4225.27375-.66375.27375z"/><path d="m19.48875 22.8025c-.24 0-.48-.09125-.6625-.275l-1.38625-1.3875c-.4-.4-.62125-.93125-.62125-1.49625s.22125-1.095.62125-1.49625c.4-.4.93125-.62 1.495-.62125h.00125c.565 0 1.09625.22 1.495.62125l.555.55375c.36625.36625.36625.96 0 1.32625-.365.365-.95875.36625-1.32625 0l-.555-.555c-.08-.08-.26-.08-.34 0-.08.07875-.08.26 0 .33875l1.38625 1.3875c.36625.36625.36625.96 0 1.32625-.1825.185-.42375.2775-.6625.2775z"/><path d="m21.71 21.69125c-.24 0-.48-.09125-.6625-.275l-1.38625-1.3875c-.4-.39875-.62-.93-.62-1.49625 0-.56375.22-1.095.62-1.495.82375-.825 2.1675-.8275 2.9925-.00125l1.11 1.11c.36625.36625.36625.96 0 1.32625s-.96.365-1.32625 0l-1.11-1.11c-.095-.095-.245-.095-.34.00125-.07875.08-.08.26-.00125.33875l1.3875 1.38875c.36625.36625.36625.96 0 1.32625-.18375.18125-.42375.27375-.66375.27375z"/><path d="m28.0975 21.40875c-.23875 0-.47875-.09125-.66125-.2725l-3.33125-3.3325c-.095-.09375-.245-.095-.34.00125s-.09625.245-.00125.34l.8325.8325c.36625.36625.36625.96 0 1.32625s-.96.36625-1.32625 0l-.8325-.8325c-.825-.82625-.82375-2.1675.00125-2.9925.82375-.8225 2.16625-.825 2.99125-.00125l3.33 3.33c.36625.365.36875.95875.0025 1.32625-.185.18375-.425.275-.665.275z"/><path d="m23.42 29.995c-1.25 0-2.68875-.39125-4.33875-1.175-1.71375-.815-2.52625-.7825-3.06-.76375-.4775.01625-1.07125.04-1.64-.52875-.56125-.56125-.75375-1.68125.555-2.99125 1.125-1.125 2.78625-1.15 3.98375-.97125.51125.07625.865.5525.79 1.065-.0775.5125-.55.8675-1.06625.79-.62875-.0925-1.77875-.15875-2.38125.4425-.12625.12625-.21625.23375-.28.32.67875-.02625 1.8125-.05 3.905.945 3.49625 1.66 4.87.89375 5.6025.175l1.10625-1.10625c1.36375-1.3625 2.325-3.57125.57-5.32625l-3.0625-3.06375c-.095-.09375-.245-.095-.34.00125s-.09625.245-.00125.34c.36625.36625.36625.96 0 1.32625-.36625.365-.96.365-1.32625-.00125-.825-.825-.82375-2.16625.00125-2.99125.82375-.8225 2.16625-.825 2.99125-.00125l3.0525 3.05375c2.22625 2.2275 2 5.43125-.5525 7.98375l-1.1175 1.1175c-.9225.90625-2.04625 1.36-3.39125 1.36z"/><path d="m13.75 13.75h-.9375c-.5175 0-.9375-.42-.9375-.9375v-5.625c0-.5175.42-.9375.9375-.9375h.9375c2.0675 0 3.75 1.6825 3.75 3.75s-1.6825 3.75-3.75 3.75zm0-5.625v3.75c1.03375 0 1.875-.84125 1.875-1.875s-.84125-1.875-1.875-1.875z"/><path d="m9.0625 13.75c-.5175 0-.9375-.42-.9375-.9375v-4.0625c0-.345-.28125-.625-.625-.625s-.625.28-.625.625v4.0625c0 .5175-.42.9375-.9375.9375s-.9375-.42-.9375-.9375v-4.0625c0-1.37875 1.12125-2.5 2.5-2.5s2.5 1.12125 2.5 2.5v4.0625c0 .5175-.42.9375-.9375.9375z"/><path d="m9.0625 11.875h-3.125c-.5175 0-.9375-.42-.9375-.9375s.42-.9375.9375-.9375h3.125c.5175 0 .9375.42.9375.9375s-.42.9375-.9375.9375z"/></g></svg>