<svg height="75" viewBox="0 0 75 75" width="75" xmlns="http://www.w3.org/2000/svg"><g fill="#ff5254"><path d="m37.5 30.942334-5.0027344 8.7549316h10.0054688z"/><path d="m39.6972656 44.0917969v15.271289c1.5150879-.1511718 2.9852051-.4568847 4.3945313-.9011718v-14.3701172z"/><path d="m30.9082031 44.0917969v14.3702636c1.4093262.4441407 2.8794434.75 4.3945313.9011719v-15.2714355z"/><path d="m37.5 15.5273438c-12.1157227 0-21.9726562 9.8569335-21.9726562 21.9726562 0 8.1162598 4.4236816 15.2182617 10.9863281 19.0231934v-15.2121094l10.9863281-19.2260742 10.9863281 19.2260742v15.2121094c6.5626465-3.8047852 10.9863281-10.9067872 10.9863281-19.0230469 0-12.1158692-9.8569335-21.9728027-21.9726562-21.9728027z"/><path d="m75 45.0089355v-15.017871l-5.8475098-1.6998047c-.6720703-2.3148926-1.5968261-4.5464356-2.7600586-6.6600586l2.9336426-5.3381836-10.6190918-10.6192383-5.3383301 2.93378906c-2.1137695-1.16323242-4.345166-2.08798828-6.6600586-2.76020508l-1.6996582-5.84736328h-15.017871l-1.6998047 5.84736328c-2.3147461.67207031-4.5461426 1.59697266-6.6599121 2.76020508l-5.3383301-2.93364258-10.61909182 10.61923832 2.93364258 5.3381836c-1.16308594 2.1137695-2.08798828 4.3453125-2.76020508 6.6600586l-5.84736328 1.6998046v15.0177246l5.84736328 1.6998047c.67207031 2.3147461 1.59697266 4.5462891 2.76020508 6.6600586l-2.93364258 5.3381836 10.61909182 10.6190918 5.3381836-2.9334961c2.113916 1.1632324 4.3453125 2.0879883 6.660205 2.7602051l1.6996583 5.8472168h15.0177246l1.6998046-5.8473633c2.3148926-.6720703 4.5462891-1.5969726 6.6602051-2.7602051l5.3381836 2.9334961 10.6190918-10.6190918-2.9336426-5.3381836c1.1632325-2.113623 2.0879883-4.345166 2.7600586-6.6600586zm-37.5 18.858252c-14.5388672 0-26.3671875-11.8283203-26.3671875-26.3671875s11.8283203-26.3671875 26.3671875-26.3671875 26.3671875 11.8283203 26.3671875 26.3671875-11.8283203 26.3671875-26.3671875 26.3671875z"/></g></svg>