<svg height="100" viewBox="0 0 100 100" width="100" xmlns="http://www.w3.org/2000/svg"><g fill="#ff5254"><path d="m89.2262231 61.1847318-11.0637427 14.5142048c-2.2138405 2.9040147-5.6499441 4.6074947-9.2941132 4.6074947h-20.5433014c-1.615384 0-2.9250073-1.3138002-2.9250073-2.9343362 0-1.6205361 1.3096233-2.9343362 2.9250073-2.9343362h17.8052995c3.8268846 0 7.0317176-3.1418915 6.9585924-6.9803945-.0709802-3.7197601-3.0989477-6.7131742-6.823847-6.7131742h-20.4750512c-5.8786797-5.6705068-14.9504924-6.3340581-21.586944-1.5786729l-2.2031155 1.5786729v33.2558098h19.5000488 3.9000097 27.4685487c5.9716949 0 11.5334988-3.0462322 14.7627069-8.0854655l11.4151335-17.8135723c.6226366-.9716565.9535524-2.1021584.9535524-3.2573088 0-5.7602975-7.2859982-8.2347254-10.7737769-3.6589216z"/><path d="m13.0731707 55h-10.14634143c-1.61639025 0-2.92682927 1.314-2.92682927 2.9347826v39.1304348c0 1.6207826 1.31043902 2.9347826 2.92682927 2.9347826h10.14634143c1.6163903 0 2.9268293-1.314 2.9268293-2.9347826v-39.1304348c0-1.6207826-1.310439-2.9347826-2.9268293-2.9347826z"/><path d="m56 16c-.5467917.4475685-.8481362 1.1252331-.9516898 1.7130015-.1431476.8107875.0379816 1.5640032.4616914 1.9186152.149239.1248984.3137065.2476928.4899984.3683833z"/><path d="m58.5 49c13.5093 0 24.5-10.9907 24.5-24.5s-10.9907-24.5-24.5-24.5-24.5 10.9907-24.5 24.5 10.9907 24.5 24.5 24.5zm-7.416444-16.489676c.592312-.90552 1.807316-1.16032 2.713228-.567224 1.058596.692468 1.722056.99274 2.607976 1.1172v-8.277276c-1.251852-.573692-2.187556-1.125824-2.955288-1.728132-1.626604-1.275764-2.369248-3.488996-1.938244-5.776512.469616-2.492728 2.204804-4.476052 4.527992-5.175772.123088-.037044.244804-.070952.36554-.1029v-1.219708c0-1.082312.877688-1.96 1.96-1.96s1.96.877688 1.96 1.96v1.004892c1.902964.329476 3.247916 1.266356 3.89942 2.014096.711088.816144.625632 2.054276-.190512 2.765168-.811832.707168-2.040948.626808-2.753996-.17738-.044688-.045276-.356132-.345156-.954912-.566048v6.333152c.3479.129164.695604.254408 1.03684.375144 3.445288 1.217944 5.36158 4.407256 4.768484 7.936236-.461188 2.74302-2.548588 5.524848-5.805324 6.350988v1.403752c0 1.082312-.877688 1.96-1.96 1.96s-1.96-.877688-1.96-1.96v-1.215592c-1.582504-.136808-2.894332-.564284-4.75398-1.780856-.905912-.592704-1.159732-1.807316-.567224-2.713228z"/><path d="m61.9481092 29.3213785c.1293359-.7301765.1822908-2.4701597-1.9481092-3.3213785v6c1.1073277-.6018493 1.7687714-1.6661997 1.9481092-2.6786215z"/></g></svg>