<svg height="75" viewBox="0 0 75 75" width="75" xmlns="http://www.w3.org/2000/svg"><g fill="#ff5254"><circle cx="62.5" cy="7.5" r="7.5"/><path d="m15 36.25 6.25-6.25-15-15-6.25 6.25v11.25l42.5 42.5h11.25l6.25-6.25-15-15-6.25 6.25z"/><path d="m37.5 30v2.5h3.2325l-6.61625 6.61625 1.7675 1.7675 6.61625-6.61625v3.2325h2.5v-7.5z"/><path d="m29.4740169 42.4989388h3.5344662v2.4996224h-3.5344662z" transform="matrix(.70710678 -.70710678 .70710678 .70710678 -21.784688 34.904612)"/><path d="m62.5 15c-6.90375 0-12.5 5.59625-12.5 12.5v6.25h25v-6.25c0-6.90375-5.59625-12.5-12.5-12.5zm1.25 11.25h-2.5v-2.5h2.5zm0-5h-2.5v-2.5h2.5z"/></g></svg>