<svg height="28" viewBox="0 0 30 28" width="30" xmlns="http://www.w3.org/2000/svg"><g fill="none" fill-rule="evenodd" transform="translate(0 1)"><path d="m8.26363636 13.257c0-1.242.30908182-2.303991.92727273-3.186.61816364-.882009 1.46361821-1.547991 2.53636361-1.998.9818182-.413991 2.1909-.710991 3.6272728-.891.490909-.054 1.2909-.126009 2.4-.216v-.459c0-1.152009-.1272819-1.925991-.3818182-2.322-.3818182-.54-.9818182-.81-1.8-.81h-.2181818c-.6.054-1.1181819.243-1.5545455.567s-.7182.774009-.8454545 1.35c-.0727364.359991-.2545637.567-.5454546.621l-3.13636363-.378c-.30910909-.072009-.46363636-.234009-.46363636-.486 0-.054.00908182-.116991.02727273-.189.30908181-1.601991 1.06816363-2.789991 2.27727276-3.564 1.2090818-.774009 2.6227091-1.206009 4.2409091-1.296h.6818181c2.0727273 0 3.6909.531009 4.8545455 1.593.1825176.18082013.3511666.37485771.5045454.5805.1545273.207009.2772546.3915.3681819.5535.0909.162.1727181.396009.2454545.702.0727091.305991.1272546.517509.1636364.6345.0363545.116991.0636272.369009.0818182.756.0181636.386991.0272727.616491.0272727.6885v6.534c0 .467991.0681818.895509.2045454 1.2825.1363637.386991.2681728.666009.3954546.837.1272545.170991.3363545.4455.6272727.8235.1090909.162.1636364.305991.1636364.432 0 .143991-.0727364.27-.2181818.378-1.5091091 1.296-2.327291 1.998-2.4545455 2.106-.2181818.162-.4818273.180009-.7909091.054-.2545636-.216-.4772727-.423009-.6681818-.621s-.3272727-.342009-.4090909-.432-.2136546-.265491-.3954546-.5265c-.1818272-.261009-.3091091-.436509-.3818181-.5265-1.0182 1.098009-2.0181819 1.782-3 2.052-.618191.180009-1.3818273.27-2.2909091.27-1.4000182 0-2.55-.427491-3.45000004-1.2825-.9-.855009-1.35-2.0655-1.35-3.6315zm4.69090914-.54c0 .702.1772727 1.264491.5318181 1.6875.3545455.423009.8318182.6345 1.4318182.6345.0545455 0 .1318091-.008991.2318182-.027.0999818-.018009.1681636-.027.2045455-.027.7636363-.197991 1.3545272-.683991 1.7727272-1.458.1999909-.342009.3499909-.7155.45-1.1205.0999818-.405.1545273-.733509.1636364-.9855.0090818-.251991.0136364-.666009.0136364-1.242v-.675c-1.0545546 0-1.8545455.072009-2.4.216-1.6000091.450009-2.4 1.449009-2.4 2.997z" fill-rule="nonzero" stroke="#427fe0" stroke-width="1.5"/><g fill="#427fe0"><path d="m.05454545 20.952c.09090001-.143991.23634546-.153009.43636364-.027 4.54543636 2.610009 9.49090909 3.915 14.83636361 3.915 3.5636182 0 7.0818-.656991 10.5545455-1.971.0909-.035991.2227091-.089991.3954545-.162.1727182-.072009.2954455-.126009.3681818-.162.2727273-.108.4863546-.054.6409091.162.1545273.216.1045364.413991-.15.594-.3272727.234009-.7454727.504009-1.2545454.81-1.5636546.918-3.3091091 1.628991-5.2363637 2.133-1.9272818.504009-3.8091.756-5.6454545.756-2.8363636 0-5.5182-.490509-8.04545455-1.4715-2.52728181-.980991-4.79091818-2.3625-6.79090909-4.1445-.10909091-.089991-.16363636-.180009-.16363636-.27 0-.054.01816364-.108.05454545-.162z"/><path d="m24.4090909 21.411c.0363546-.072009.0909-.143991.1636364-.216.4545272-.305991.8908909-.513 1.3090909-.621.6909-.180009 1.3636363-.278991 2.0181818-.297.1818-.018009.3545455-.009002.5181818.027.8181818.072009 1.3090909.207009 1.4727273.405.0727091.108.1090909.27.1090909.486v.189c0 .629991-.1727455 1.372491-.5181818 2.2275-.3454637.855009-.8272909 1.543509-1.4454546 2.0655-.0909272.072009-.1727454.108-.2454545.108-.0363818 0-.0727364-.008991-.1090909-.027-.1090909-.054-.1363637-.153009-.0818182-.297.6727091-1.566 1.0090909-2.654991 1.0090909-3.267 0-.197991-.0363818-.342009-.1090909-.432-.1818273-.216-.6909273-.324-1.5272727-.324-.3091091 0-.6727364.018009-1.0909091.054-.4545546.054-.8727273.108-1.2545455.162-.1090909 0-.1818272-.018009-.2181818-.054-.0363717-.035991-.0454636-.072009-.0272727-.108 0-.018009.0090818-.045009.0272727-.081z"/></g></g></svg>