<?xml version="1.0" encoding="UTF-8"?>
<svg width="48px" height="75px" viewBox="0 0 48 75" version="1.1" xmlns="http://www.w3.org/2000/svg" xmlns:xlink="http://www.w3.org/1999/xlink">
    <!-- Generator: sketchtool 63.1 (101010) - https://sketch.com -->
    <title>62488CA6-AB1A-4763-A212-E5E4DB4DC161</title>
    <desc>Created with sketchtool.</desc>
    <g id="Website" stroke="none" stroke-width="1" fill="none" fill-rule="evenodd">
        <g id="Social-Media---WeChat" transform="translate(-323.000000, -3066.000000)" fill="#FF5254" fill-rule="nonzero">
            <g id="icn_lightning" transform="translate(323.000000, 3066.000000)">
                <path d="M45.8183806,30.9081609 L27.7609291,30.9081609 L43.3490536,3.28731084 C43.7348504,2.60696055 43.7325776,1.77211516 43.3428036,1.09405368 C42.9507566,0.416564372 42.2325722,0 41.4547285,0 L15.2728157,0 C14.3336078,0 13.5000821,0.605391555 13.2040583,1.50203496 L0.113101926,41.1992463 C-0.110762592,41.8687248 0.0023060349,42.6068677 0.411398422,43.1796438 C0.822763544,43.7529919 1.48128869,44.0917366 2.18185936,44.0917366 L20.6915853,44.0917366 L8.90461092,71.9380348 C8.48245027,72.9273752 8.83642886,74.0797937 9.73984129,74.6565752 C10.6284807,75.228779 11.8222351,75.0782893 12.5392831,74.2623268 L47.4485001,34.5651154 C48.0195249,33.9190974 48.1604345,32.9938437 47.8087288,32.2064913 C47.4570229,31.41685 46.6774747,30.9081609 45.8183806,30.9081609 Z" id="Path"></path>
            </g>
        </g>
    </g>
</svg>