<svg height="75" viewBox="0 0 78 75" width="78" xmlns="http://www.w3.org/2000/svg"><g fill="#ff5254"><path d="m8.12494922 32.6219512c-4.47844922 0-8.12494922 3.6487805-8.12494922 8.1300305v26.016311c0 4.48125 3.6465 8.1300305 8.12494922 8.1300305h9.74999998c1.8298008 0 3.5131992-.6178354 4.875-1.6455793v-40.6307927z"/><path d="m78 44.8170732c0-1.9544208-.7734492-3.7756098-2.11575-5.11875 1.5178008-1.6617378 2.29125-3.8894817 2.0799492-6.2080793-.38025-4.1333841-4.1015508-7.3724085-8.4759492-7.3724085h-20.07525c.9945-3.0211891 2.5869492-8.5592988 2.5869492-13.0080793 0-7.05365854-5.9896992-13.00807927-9.75-13.00807927-3.3766992 0-5.7883008 1.90243902-5.8921992 1.9804878-.3834492.30899391-.6076992.77728659-.6076992 1.27149391v11.02759146l-9.36 20.2894817-.39.1983232v34.8553353c2.6454492 1.2487805 5.9928984 1.9219513 8.1249492 1.9219513h29.8318008c3.53925 0 6.6365508-2.3870427 7.3644492-5.68125.3736992-1.6943598.156-3.4016769-.5881992-4.8846037 2.4016992-1.2097561 4.017-3.6846037 4.017-6.5073171 0-1.1512195-.26325-2.2536585-.7636992-3.2519817 2.4016992-1.2097561 4.0136484-3.6846036 4.0136484-6.5041158z"/></g></svg>