<svg height="75" viewBox="0 0 75 75" width="75" xmlns="http://www.w3.org/2000/svg"><g fill="#ff5254"><path d="m47.2322754 17.7883301c-2.9761231-1.5366211-6.0848145-2.2562989-9.7322754-2.2562989-12.1132324 0-21.9679688 9.8548829-21.9679688 21.9679688 0 12.1132324 9.8547364 21.9681152 21.9679688 21.9681152s21.9679687-9.8548828 21.9679687-21.9681152c0-3.4718262-.6495117-6.4331543-2.0359863-9.2729004l-5.7437988-1.5414551-2.9192871 2.9000977c1.5785156 2.2407715 2.5067871 4.9710937 2.5067871 7.9142578 0 7.5959473-6.1797363 13.7755371-13.7755371 13.7755371s-13.7756836-6.1795898-13.7756836-13.7755371c0-7.5958008 6.1797363-13.7755371 13.7755371-13.7755371 2.9698242 0 5.722998.9446777 7.9751953 2.5492676l2.9614746-2.9419922z"/><path d="m42.0865723 29.6399414c-1.3479493-.7896973-2.9147461-1.2446777-4.5865723-1.2446777-5.0203125 0-9.1047363 4.0842773-9.1047363 9.1045898s4.0844238 9.1047363 9.1047363 9.1047363 9.1047363-4.0844238 9.1047363-9.1047363c0-1.6564453-.4469238-3.2096191-1.2231445-4.5492187l-6.3171387 6.2755371c-.4555664.4524902-1.0508789.6785156-1.6458984.6785156-.600293 0-1.2004395-.2299805-1.6568848-.689502-.909082-.9150878-.9041015-2.3938476.0108399-3.3027832z"/><path d="m70.3825195 13.2839355-3.6193359-1.574121-10.6970215 10.6267089c-.2418457.2402344-.1322754.652295.1970215.7407715l3.8377441 1.0299317c.1526368.0410156.3155274-.0026368.427295-.1144043l9.9906738-9.9906739c.2203125-.2206054.1495605-.5938476-.136377-.7182129z"/><path d="m62.6964844 28.4299805c-.023584.023584-.0493653.0442382-.0738282.0667968 1.0275879 2.7889161 1.5162598 5.7143555 1.5162598 9.0032227 0 14.6887207-11.9501953 26.638916-26.638916 26.638916s-26.638916-11.9501953-26.638916-26.638916 11.9501953-26.638916 26.638916-26.638916c3.4976074 0 6.6930176.5859375 9.6893555 1.7803711.0061523-.0061524.0117187-.0128906.0178711-.019043l8.108789-8.10878905c-5.2870605-2.80605469-11.4808594-4.51362305-17.8160156-4.51362305-20.7106934 0-37.5 16.7893066-37.5 37.5s16.7893066 37.5 37.5 37.5 37.5-16.7893066 37.5-37.5c0-6.2000977-1.5080566-12.0486328-4.1730469-17.2006348z"/><path d="m52.9404785 18.8575195 10.6138184-10.54409177-1.1661621-3.36782226c-.1067871-.30849609-.4996582-.39873047-.7305176-.16801758l-10.0753418 10.07534181c-.1063477.1063476-.1513184.2595703-.1193848.4064941l.7340332 3.3780762c.0739746.3414551.4957032.4661133.7435547.2200195z"/></g></svg>