<svg height="44" viewBox="0 0 44 44" width="44" xmlns="http://www.w3.org/2000/svg"><g fill="#427fe0"><circle cx="22.5" cy="32.5" r="2.5"/><path d="m22 0c-12.15878125 0-22 9.83958594-22 22 0 12.1587813 9.83958594 22 22 22 12.1587813 0 22-9.8395859 22-22 0-12.15878125-9.8395859-22-22-22zm0 40.5625c-10.2589609 0-18.5625-8.3021641-18.5625-18.5625 0-10.2589609 8.3021641-18.5625 18.5625-18.5625 10.2589609 0 18.5625 8.3021641 18.5625 18.5625 0 10.2589609-8.3021641 18.5625-18.5625 18.5625z"/><path d="m23 10c-3.8598 0-7 2.905219-7 6.4761905 0 .8942.783475 1.6190476 1.75 1.6190476s1.75-.7248476 1.75-1.6190476c0-1.7854857 1.5701-3.2380953 3.5-3.2380953s3.5 1.4526096 3.5 3.2380953-1.5701 3.2380952-3.5 3.2380952c-.966525 0-1.75.7248476-1.75 1.6190476v4.0476191c0 .8942.783475 1.6190476 1.75 1.6190476s1.75-.7248476 1.75-1.6190476v-2.6334619c3.015775-.7207191 5.25-3.2591429 5.25-6.2713 0-3.5709715-3.1402-6.4761905-7-6.4761905z"/></g></svg>