<svg height="61" viewBox="0 0 81 61" width="81" xmlns="http://www.w3.org/2000/svg"><g fill="#ff5254"><path d="m24 17.0003205c0 3.8657817-3.1338978 6.9996795-6.9996795 6.9996795-3.8664227 0-7.0003205-3.1338978-7.0003205-6.9996795 0-3.8664227 3.1338978-7.0003205 7.0003205-7.0003205 3.8657817 0 6.9996795 3.1338978 6.9996795 7.0003205z"/><path d="m70.875 0h-60.75c-5.58222195 0-10.125 4.56147261-10.125 10.1666667v40.6666666c0 .1898803.04696655.3692119.05747219.5590922-.04758449.4064433-.02719116.8166097.12112427 1.2031962.83365643 4.7650046 4.96485908 8.4043783 9.94640354 8.4043783h60.75c5.5822219 0 10.125-4.5614726 10.125-10.1666667v-40.6666666c0-5.60519409-4.5427781-10.1666667-10.125-10.1666667zm-60.75 6.77798466h60.75c1.8595047 0 3.374794 1.52152506 3.374794 3.38868204v26.9046835l-17.7521209-17.8257956c-2.3087769-2.3182779-6.0648652-2.3182779-8.3699341 0l-16.065033 16.1311443-4.252945-4.2698264c-2.3081589-2.318278-6.064865-2.318278-8.3699341 0l-12.68962087 12.7418417v-33.6820475c0-1.86715698 1.51528931-3.38868204 3.37479397-3.38868204z"/></g></svg>