<svg height="87" viewBox="0 0 100 87" width="100" xmlns="http://www.w3.org/2000/svg"><path d="m97.5513202 2.44447053c-1.6317841-1.62910065-3.5926614-2.44447053-5.8851859-2.44447053h-83.33281619c-2.29161231 0-4.25285447.81536988-5.88573314 2.44447053-1.63196654 1.62964702-2.44758497 3.58748178-2.44758497 5.87550765v56.57377542c0 2.2885723.81561843 4.2462249 2.44758497 5.8762362 1.63287867 1.6291006 3.59412083 2.4430135 5.88573314 2.4430135h28.33375589c0 1.3169398-.2780144 2.6701224-.8336784 4.055723-.5552992 1.3866934-1.1109632 2.5994582-1.6666272 3.6390229-.5549343 1.0408396-.8327663 1.8024829-.8327663 2.2874795 0 .9011504.3296405 1.6828273.9894687 2.3397492.6594633.6594716 1.440786.9898448 2.3436032.9898448h26.6665814c.9028172 0 1.6843223-.3301911 2.3437857-.9898448.6603754-.6567398.9900159-1.4384167.9900159-2.3397492 0-.4494824-.2783793-1.2040228-.8338609-2.2610715-.5556639-1.0565022-1.1113279-2.2885722-1.6662622-3.6911104-.555664-1.4041773-.833496-2.747343-.833496-4.0300435h28.3337558c2.2912475 0 4.2521248-.8139129 5.8839089-2.4430135 1.6325139-1.6298292 2.4484974-3.5874818 2.4484974-5.8762362v-56.57377542c0-2.28802587-.816166-4.24586063-2.4486798-5.87550765zm-4.2181939 49.13764577c0 .4507574-.164729.8401388-.4945519 1.1699657-.3301877.328552-.7209403.4930101-1.1724401.4930101h-83.33281619c-.45113495 0-.84188751-.1644581-1.17171039-.4930101-.32964046-.3309196-.49473432-.7192083-.49473432-1.1699657v-43.26213812c0-.4507573.16454659-.84050301.49473432-1.1697835.33000531-.32873412.72075786-.49392073 1.17171039-.49392073h83.33409319c.4507701 0 .8422524.16464024 1.1711631.49392073.3298229.32946261.4945519.71920832.4945519 1.1697835z" fill="#ff5254"/></svg>