<svg height="75" viewBox="0 0 75 75" width="75" xmlns="http://www.w3.org/2000/svg"><g fill="#ff5254"><path d="m30.7964355 26.1474609c-1.4090332 0-2.5552734 1.4651368-2.5552734 3.2660157s1.1462402 3.2661621 2.5552734 3.2661621 2.5552735-1.4651367 2.5552735-3.2661621-1.1462403-3.2660157-2.5552735-3.2660157z"/><path d="m44.2035645 42.3203613c-1.4088868 0-2.555127 1.4651367-2.555127 3.2661621s1.1462402 3.2660157 2.555127 3.2660157c1.4090332 0 2.5552734-1.4651368 2.5552734-3.2660157s-1.1462402-3.2661621-2.5552734-3.2661621z"/><path d="m72.9410156 37.499992c1.9432617-2.911369 2.5595215-6.506535 1.640625-9.9358807-.9188965-3.4294922-3.2501953-6.2348144-6.3887695-7.7844726.2273437-3.4930664-1.0366699-6.9146485-3.5471191-9.4250977-2.5104493-2.51059569-5.9334961-3.77343748-9.4250977-3.54711912-1.5496582-3.13872071-4.3549805-5.47001954-7.7843262-6.38891602-3.4293457-.91904297-7.0245117-.30263672-9.9358886 1.64047852-2.9115235-1.94340821-6.5069825-2.55966797-9.9360352-1.640625-3.4294922.91889648-6.2348145 3.25019531-7.7844727 6.38891601-3.4911621-.22719726-6.9147949 1.03666992-9.4250976 3.54711911-2.51044923 2.5104493-3.77431642 5.9321778-3.54697267 9.4250977-3.13916016 1.5498047-5.47045899 4.3549805-6.38964844 7.7844726-.91889648 3.4296387-.30249023 7.0248047 1.64077149 9.9360272-1.94326172 2.9115314-2.55952149 6.5066975-1.640625 9.9360432.91889648 3.4294921 3.25034179 6.2348144 6.38891601 7.7844726-.22734375 3.4930664 1.03652344 6.9146485 3.54697261 9.4250977 2.5104493 2.5104492 5.9305665 3.7754883 9.4250977 3.5471191 1.5498047 3.1387207 4.3552734 5.4700195 7.7846191 6.388916 3.4291993.919043 7.0243653.3026367 9.9357422-1.640625 2.0219239 1.3495606 4.3728516 2.0589764 6.7697754 2.0589764 1.0546875 0 2.11875-.1375408 3.1665528-.4183514 3.4296386-.9188965 6.2348144-3.2501953 7.7844726-6.3887695 3.4927735.2266113 6.9149414-1.0368164 9.4250977-3.5471191 2.5104492-2.5104493 3.7744629-5.9321778 3.5471191-9.4250977 3.1385742-1.5495117 5.4698731-4.354834 6.388916-7.7844727.919043-3.4297851.3026367-7.0249511-1.640625-9.9361896zm-35.4410156 26.3666096c-14.5385742 0-26.3666016-11.8280274-26.3666016-26.3666016s11.8280274-26.3664551 26.3666016-26.3664551 26.3666016 11.8280274 26.3666016 26.3666016-11.8280274 26.3664551-26.3666016 26.3664551z"/><path d="m37.5 15.5274902c-12.1157227 0-21.9726562 9.8569336-21.9726562 21.9726563 0 12.1157226 9.8569335 21.9726562 21.9726562 21.9726562s21.9726562-9.8569336 21.9726562-21.9726562c0-12.1157227-9.8569335-21.9726563-21.9726562-21.9726563zm-12.9209473 13.8859864c0-3.8201661 2.7890625-6.928125 6.2173828-6.928125 3.4283204 0 6.2173829 3.1079589 6.2173829 6.928125 0 3.8203125-2.7890625 6.9282714-6.2173829 6.9282714-3.4283203 0-6.2173828-3.1079589-6.2173828-6.9282714zm9.80625 20.3683593c-.2942871.7009278-.9736816 1.1229493-1.6891113 1.1229493-.2362793 0-.4763672-.0459961-.7078125-.1432618-.9325195-.3912597-1.3710937-1.4645507-.979834-2.3969238l9.9272461-23.6542969c.3915528-.9325195 1.4648438-1.3710937 2.3969238-.9796875.9325196.3912598 1.3710938 1.4645508.979834 2.3969239zm9.8182618 2.7328125c-3.4281739 0-6.2172364-3.1079589-6.2172364-6.928125 0-3.8203125 2.7890625-6.9282714 6.2172364-6.9282714 3.4283203 0 6.2173828 3.1079589 6.2173828 6.9282714 0 3.8201661-2.7890625 6.928125-6.2173828 6.928125z"/></g></svg>