<svg height="37" viewBox="0 0 32 37" width="32" xmlns="http://www.w3.org/2000/svg"><g fill="none" fill-rule="evenodd" stroke="#427fe0" transform="translate(1 1)"><g fill="#427fe0" fill-rule="nonzero" stroke-width=".75"><path d="m14.7761195 25.9313934h-1.2474182c-.2367458 0-.4286661-.1964899-.4286661-.4388724 0-.2423826.1919203-.4388724.4286661-.4388724h1.2474182c.2367458 0 .4286661.1964898.4286661.4388724 0 .2423825-.1919203.4388724-.4286661.4388724z"/><path d="m24.4082462 25.9313934h-2.3576634c-.2367457 0-.4286661-.1964899-.4286661-.4388724 0-.2423826.1919204-.4388724.4286661-.4388724h2.3576634c.8009916-.0021778 1.4491305-.6677118 1.4488913-1.4877775v-13.4777716c.0002392-.82006571-.6478997-1.48559973-1.4488913-1.4877775h-18.80986729c-.80099158.00217777-1.4491305.66771179-1.44889132 1.4877775v13.4777716c-.00023918.8200657.64789974 1.4855997 1.44889132 1.4877775h4.92965989c.2367457 0 .428666.1964898.428666.4388724 0 .2423825-.1919203.4388724-.428666.4388724h-4.92965989c-1.2742871-.002662-2.30622347-1.0608923-2.30622347-2.3655223v-13.4777716c0-1.30463001 1.03193637-2.36286032 2.30622347-2.36552232h18.80986729c1.2742871.002662 2.3062235 1.06089231 2.3062235 2.36552232v13.4777716c0 1.30463-1.0319364 2.3628603-2.3062235 2.3655223z"/><path d="m19.0499203 25.9313934h-1.2731383c-.2367457 0-.428666-.1964899-.428666-.4388724 0-.2423826.1919203-.4388724.428666-.4388724h1.2731383c.2367457 0 .4286661.1964898.4286661.4388724 0 .2423825-.1919204.4388724-.4286661.4388724z"/><path d="m26.2870896 20.6350812c-.2367457 0-.4286661-.1964899-.4286661-.4388724 0-.2423826.1919204-.4388724.4286661-.4388724 1.5672077-.0196358 2.8276025-1.3259282 2.8276025-2.9305705 0-1.6046424-1.2603948-2.9109348-2.8276025-2.9305706-.2367457 0-.4286661-.1964898-.4286661-.4388724 0-.2423825.1919204-.4388724.4286661-.4388724 2.0387845.0224078 3.680032 1.7208681 3.680032 3.8083154 0 2.0874472-1.6412475 3.7859075-3.680032 3.8083153z"/><path d="m3.71953551 20.6350812c-2.03878451-.0224078-3.68003203-1.7208681-3.68003203-3.8083153 0-2.0874473 1.64124752-3.7859076 3.68003203-3.8083154.23674574 0 .42866608.1964899.42866608.4388724 0 .2423826-.19192034.4388724-.42866608.4388724-1.56720771.0196358-2.82760251 1.3259282-2.82760251 2.9305706 0 1.6046423 1.2603948 2.9109347 2.82760251 2.9305705.23674574 0 .42866608.1964898.42866608.4388724 0 .2423825-.19192034.4388724-.42866608.4388724z"/><path d="m19.9985583 16.6839129c-1.112705 0-2.0147305-.9235024-2.0147305-2.0627003 0-1.139198.9020255-2.0627004 2.0147305-2.0627004s2.0147305.9235024 2.0147305 2.0627004c-.0016525 1.1384964-.9027108 2.0610084-2.0147305 2.0627003zm0-3.2476558c-.6392135 0-1.1573984.5305226-1.1573984 1.1849555 0 .6544328.5181849 1.1849555 1.1573984 1.1849555s1.1573991-.5305227 1.1573991-1.1849555c.0003406-.3144978-.1214485-.6162343-.3385398-.8387414s-.5116752-.3475308-.8188593-.3475308z"/><path d="m10.0080668 16.6839129c-1.11270495 0-2.01473054-.9235024-2.01473054-2.0627003 0-1.139198.90202559-2.0627004 2.01473054-2.0627004 1.112705 0 2.0147305.9235024 2.0147305 2.0627004-.0018878 1.1383964-.9028084 2.0607675-2.0147305 2.0627003zm0-3.2476558c-.63921348 0-1.15739839.5305226-1.15739839 1.1849555 0 .6544328.51818491 1.1849555 1.15739839 1.1849555.6392135 0 1.1573997-.5305227 1.1573997-1.1849555.0004539-.3145738-.121285-.6164231-.3383886-.8390252-.2171037-.2226021-.5117526-.3476858-.8190111-.3476858z"/><path d="m18.2183081 21.9135165h-6.4278478c-.2367457 0-.428666-.1964899-.428666-.4388724 0-.2423826.1919203-.4388724.428666-.4388724h6.4278478c.2367457 0 .4286661.1964898.4286661.4388724 0 .2423825-.1919204.4388724-.4286661.4388724z"/><path d="m15.0033126 8.60119974c-.2367458 0-.4286661-.19648987-.4286661-.4388724v-3.85066651c0-.24238254.1919203-.43887241.4286661-.43887241.2367457 0 .428666.19648987.428666.43887241v3.85066651c0 .24238253-.1919203.4388724-.428666.4388724z"/><path d="m15.0033126 4.75053324c-1.2753493 0-2.3092242-1.05849093-2.3092242-2.36420567 0-1.30571473 1.0338749-2.36420566 2.3092242-2.36420566 1.2753492 0 2.3092241 1.05849093 2.3092241 2.36420566-.0011816 1.30521331-1.0343646 2.3629959-2.3092241 2.36420567zm0-3.85066651c-.8018579 0-1.451892.66551119-1.451892 1.48646084 0 .82094966.6500341 1.48646085 1.451892 1.48646085.8018578 0 1.4518919-.66551119 1.4518919-1.48646085-.000709-.82064878-.650328-1.48573492-1.4518919-1.48646084z"/></g><rect height="6" rx="3" stroke-width="1.5" width="30" y="29"/></g></svg>