<svg height="68" viewBox="0 0 100 68" width="100" xmlns="http://www.w3.org/2000/svg"><g fill="#ff5254"><path d="m50 20.8636364c-7.4839208 0-13.5658915 6.0626189-13.5658915 13.5227272s6.0819707 13.5227273 13.5658915 13.5227273 13.5658915-6.062619 13.5658915-13.5227273-6.0821827-13.5227272-13.5658915-13.5227272z"/><path d="m50 0c-22.7273115 0-42.13630378 14.098525-50 34 7.86369622 19.9012625 27.2726885 34 50 34 22.7498967 0 42.1363038-14.0987375 50-34-7.8636962-19.901475-27.2501033-34-50-34zm0 56.666525c-12.5454367 0-22.7273115-10.1547375-22.7273115-22.6667375s10.1818748-22.666525 22.7273115-22.666525 22.7273115 10.1547375 22.7273115 22.6667375-10.1818748 22.666525-22.7273115 22.666525z"/></g></svg>