<svg height="77" viewBox="0 0 100 77" width="100" xmlns="http://www.w3.org/2000/svg"><g fill="#ff5254"><path d="m47.3282443 0c-11.3716523.64948894-22.0311823 5.04138107-30.5343512 12.5812674l12.6097911 12.5430168c2.7746616-.9799709 5.7600376-1.5154742 8.8684583-1.5154742 3.1784025 0 6.2283771.5592185 9.0561018 1.5820297z"/><path d="m58.153352 32.8244275 23.5260373-21.3633189c-8.1962264-6.8568864-18.2803309-10.84811821-29.0076336-11.4611086v27.8367088c2.0555039 1.3981015 3.9016648 3.0792954 5.4815963 4.9877187z"/><path d="m0 49.7642746v2.9074811h11.679978v-2.9074811c0-9.1835517 4.7761681-17.2760408 11.9841441-21.9469394l-11.0708854-11.0234421c-8.14024508 9.092693-12.5932367 20.6900596-12.5932367 32.9703815z"/><path d="m84.7328244 52.6717557h15.2671756v-2.9063034c0-4.2262497-.5225506-8.3707597-1.5316657-12.3608721z"/><path d="m50.0000964 52.6717557c-3.1620753 0-6.1353354 1.2309657-8.3710607 3.4656537-4.6147957 4.6134255-4.6147957 12.1193893 0 16.7328146 2.2357253 2.234688 5.2089854 3.4656539 8.3710607 3.4656539 3.1613045 0 6.1345648-1.2309659 8.3702899-3.4656539 4.6155664-4.6134253 4.6155664-12.1193891 0-16.7328146-2.2357251-2.234688-5.2089854-3.4656537-8.3702899-3.4656537z"/><path d="m87.5664795 14.5038168-35.6580826 32.4871985c4.007253.4028217 7.7237613 2.1562367 10.6098968 5.0383127 2.956158 2.9519998 4.6313648 6.7050829 5.0317094 10.5660918l32.4499969-35.6793713v-12.4122317z"/></g></svg>