<svg height="30" viewBox="0 0 30 30" width="30" xmlns="http://www.w3.org/2000/svg"><path d="m5.859375 6.62109375c0-.64727783.52459717-1.171875 1.171875-1.171875h15.9375c.6472778 0 1.171875.52459717 1.171875 1.171875s-.5245972 1.171875-1.171875 1.171875h-15.9375c-.64727783 0-1.171875-.52459717-1.171875-1.171875zm18.28125 4.68750005c0-.6472779-.5245972-1.171875-1.171875-1.171875h-15.9375c-.64727783 0-1.171875.5245971-1.171875 1.171875 0 .6472778.52459717 1.171875 1.171875 1.171875h15.9375c.6472778 0 1.171875-.5245972 1.171875-1.171875zm-17.109375 3.515625c-.64727783 0-1.171875.5245971-1.171875 1.171875 0 .6472778.52459717 1.171875 1.171875 1.171875h5.390625c.6472778 0 1.171875-.5245972 1.171875-1.171875 0-.6472779-.5245972-1.171875-1.171875-1.171875zm21.9399261 9.1751861c1.3698578 1.3698578 1.3698578 3.6000824-.0009155 4.9708557-.6852722.6852723-1.5856934 1.0281372-2.4858856 1.0281372s-1.8006134-.3428649-2.4858856-1.0281372l-6.4082337-6.4201355c-.1428222-.1430512-.246048-.3204345-.2998352-.515213l-1.3103485-4.7298431c-.1139831-.4119873.0050354-.8532715.3110504-1.1517334.3057862-.2982331.7498169-.406723 1.1588288-.2824402l4.6128845 1.4012146c.1847076.056076.3527069.156784.4888916.2934265zm-9.5045471-2.8871155 4.3075562 4.315567 1.6575622-1.6575622-4.3315887-4.3412018-2.2927093-.6964874zm7.8462982 4.5435334-.2256775-.2263642-1.6573333 1.6573334.226593.2270508c.4561615.4561615 1.1995697.4561615 1.6564178-.0009156.4570771-.4568481.4570771-1.2002563 0-1.6571044zm-2.0004272-25.6558228h-20.625c-2.58476256 0-4.6875 2.10273744-4.6875 4.6875v20.625c0 2.5847626 2.10273744 4.6875 4.6875 4.6875h14.3554688c.6472778 0 1.171875-.5245972 1.171875-1.171875s-.5245972-1.171875-1.171875-1.171875h-14.3554688c-1.29226688 0-2.34375-1.0514831-2.34375-2.34375v-20.625c0-1.29226688 1.05148312-2.34375 2.34375-2.34375h20.625c1.2922669 0 2.34375 1.05148312 2.34375 2.34375v14.4140625c0 .6472778.5245972 1.171875 1.171875 1.171875s1.171875-.5245972 1.171875-1.171875v-14.4140625c0-2.58476256-2.1027374-4.6875-4.6875-4.6875z" fill="#427fe0"/></svg>