<svg height="30" viewBox="0 0 30 30" width="30" xmlns="http://www.w3.org/2000/svg"><path d="m23.5254759 17.1094314c-2.1223729 0-3.9926663 1.0476822-5.1612349 2.6400673l-5.8390556-2.9202108c.1808018-.5922627.3069037-1.2079949.3069037-1.8585587s-.1261019-1.2664202-.3069037-1.8585587l5.8390556-2.9202108c1.1685686 1.5923851 3.038862 2.6400673 5.1612349 2.6400673 3.5379919 0 6.4160446-2.87805268 6.4160446-6.41604455s-2.8779906-6.41598245-6.4160446-6.41598245c-3.5380539 0-6.4160445 2.87805267-6.4160445 6.41604454 0 .65056383.126226 1.26629598.3070279 1.85843449l-5.8392419 2.92033497c-1.1685686-1.59238506-3.03886203-2.64006726-5.16123495-2.64006726-3.53799187 0-6.41598245 2.87799056-6.41598245 6.41604456 0 3.5380539 2.87799058 6.4160445 6.41604454 6.4160445 2.12237291 0 3.99266636-1.0476822 5.16123496-2.6400672l5.8390556 2.9203349c-.1808019.5920764-.3069037 1.2078086-.3069037 1.8584345 0 3.5379919 2.8779906 6.4160446 6.4160445 6.4160446 3.538054 0 6.4160446-2.8780527 6.4160446-6.4160446 0-3.5379918-2.8780527-6.4161066-6.4160446-6.4161066zm0-14.97072919c2.3590545 0 4.2773424 1.91940545 4.2773424 4.27734233 0 2.35799896-1.91835 4.27734236-4.2773424 4.27734236-2.3590544 0-4.2773423-1.91940549-4.2773423-4.27734236 0-2.35793688 1.9183499-4.27734233 4.2773423-4.27734233zm-17.10943136 17.10943139c-2.35905448 0-4.27734233-1.9194054-4.27734233-4.2773423 0-2.357999 1.91834994-4.2773423 4.27734233-4.2773423 2.35905447 0 4.27734236 1.9194054 4.27734236 4.2773423s-1.91828789 4.2773423-4.27734236 4.2773423zm17.10943136 8.5546847c-2.3590544 0-4.2773423-1.9194055-4.2773423-4.2773424 0-2.3579368 1.9183499-4.2773423 4.2773423-4.2773423 2.3590545 0 4.2773424 1.9194055 4.2773424 4.2773423 0 2.357999-1.9182879 4.2773424-4.2773424 4.2773424z" fill="#427fe0"/></svg>