<svg height="80" viewBox="0 0 80 80" width="80" xmlns="http://www.w3.org/2000/svg"><path d="m733 2374c22.055871 0 40-17.88992 40-39.87915 0-21.98924-17.944129-40.12085-40-40.12085s-40 18.13161-40 40.12085c0 21.98923 17.944129 39.87915 40 39.87915zm1-36.92439c-6.065278 0-11-4.90267-11-10.92857 0-4.72812 3.055556-8.72578 7.294184-10.24553v-3.25865c0-2.01306 1.640452-3.64286 3.666667-3.64286 2.02717 0 3.666666 1.6298 3.666666 3.64286v3.23493c4.278733 1.49699 7.372483 5.51172 7.372483 10.26925 0 2.01306-1.639496 3.64286-3.666667 3.64286-2.026215 0-3.666666-1.6298-3.666666-3.64286 0-2.01021-1.643316-3.64285-3.666667-3.64285-2.022396 0-3.666667 1.63264-3.666667 3.64285s1.644271 3.64286 3.666667 3.64286c6.066233 0 11 4.90173 11 10.92857 0 4.75753-3.09375 8.77132-7.372483 10.26925v5.36942c0 2.01306-1.639496 3.64286-3.666666 3.64286-2.026215 0-3.666667-1.6298-3.666667-3.64286v-5.39408c-4.238628-1.51881-7.294184-5.51646-7.294184-10.24459 0-2.01401 1.640452-3.64286 3.666667-3.64286 2.02717 0 3.666666 1.62885 3.666666 3.64286 0 2.01021 1.644271 3.64286 3.666667 3.64286 2.023351 0 3.666667-1.63265 3.666667-3.64286s-1.643316-3.64286-3.666667-3.64286z" fill="#ff5254" transform="translate(-693 -2294)"/></svg>