<svg height="100" viewBox="0 0 100 100" width="100" xmlns="http://www.w3.org/2000/svg"><g fill="#ff5254"><path d="m43.9453125 45.3125c-12.4927734 0-22.65625-10.1634766-22.65625-22.65625s10.1634766-22.65625 22.65625-22.65625 22.65625 10.1634766 22.65625 22.65625-10.1634766 22.65625-22.65625 22.65625z"/><g transform="translate(0 41.40625)"><path d="m52.734375 20.5078125c0-5.015625 1.4082031-9.7083984 3.8492187-13.70449219-3.8115234 1.89316407-8.1015625 2.96230469-12.6382812 2.96230469-5.884375 0-11.3578125-1.79179688-15.9041016-4.85820312-5.6214843 2.17910156-10.7785156 5.52558592-15.1697265 9.91679682-8.30039065 8.3001954-12.8714844 19.3357422-12.8714844 31.0740235v9.7658203c0 1.6179687 1.31171875 2.9296875 2.9296875 2.9296875h82.03125c1.6179687 0 2.9296875-1.3117188 2.9296875-2.9296875v-9.7658203c0-.1759766-.0048828-.3525391-.0070313-.5289063-2.7484375.9738282-5.7041015 1.5056641-8.7820312 1.5056641-14.5388672 0-26.3671875-11.8283203-26.3671875-26.3671875z"/><path d="m79.1015625 0c-11.3080078 0-20.5078125 9.19980469-20.5078125 20.5078125 0 11.3080078 9.1998047 20.5078125 20.5078125 20.5078125s20.5078125-9.1998047 20.5078125-20.5078125c0-11.30800781-9.1998047-20.5078125-20.5078125-20.5078125zm5.859375 23.4375h-2.9296875v2.9296875c0 1.6179687-1.3117187 2.9296875-2.9296875 2.9296875s-2.9296875-1.3117188-2.9296875-2.9296875v-2.9296875h-2.9296875c-1.6179688 0-2.9296875-1.3117188-2.9296875-2.9296875s1.3117187-2.9296875 2.9296875-2.9296875h2.9296875v-2.9296875c0-1.6179687 1.3117187-2.9296875 2.9296875-2.9296875s2.9296875 1.3117188 2.9296875 2.9296875v2.9296875h2.9296875c1.6179687 0 2.9296875 1.3117188 2.9296875 2.9296875s-1.3117188 2.9296875-2.9296875 2.9296875z"/></g></g></svg>