<svg height="75" viewBox="0 0 57 75" width="57" xmlns="http://www.w3.org/2000/svg"><g fill="#ff5254"><path d="m28.5078505 37.0887247c-1.3118047 0-2.3753821 1.0659826-2.3753821 2.380754v33.1497673c0 1.3147714 1.0635774 2.380754 2.3753821 2.380754s2.375382-1.0659826 2.375382-2.380754v-33.1497673c0-1.3147714-1.0635773-2.380754-2.375382-2.380754z"/><path d="m28.5078505 32.3272168c3.465237 0 6.3591946 2.4923518 6.9949062 5.7819586h10.5855931c-.3331473-17.2443963-7.4345004-30.66946799-16.1001909-37.59031983-.8661237-.69175783-2.0944931-.69175783-2.9606168 0-8.6607913 6.91698311-15.7671921 20.35083383-16.1001909 37.59031983h10.5855931c.6357116-3.2896068 3.5296692-5.7819586 6.9949062-5.7819586zm-3.7633475-12.976002c2.0784593-2.0831598 5.4483841-2.0831598 7.5268434 0 2.0784592 2.0831597 2.0784592 5.4605568 0 7.5438654-2.0784593 2.0831597-5.4483841 2.0831597-7.5268434 0-2.0784592-2.0831598-2.0784592-5.4607057 0-7.5438654z"/><path d="m35.6339966 42.8705346v16.9231433h5.2435073c1.0221566 0 1.929701-.6554513 2.2531983-1.6272453 1.614369-4.8490007 2.5758049-9.9801207 2.8712431-15.295898z"/><path d="m21.3817044 42.8706834h-10.3679487c.2954381 5.3157773 1.256874 10.4467485 2.871243 15.295898.3234974.971794 1.2310418 1.6272453 2.2531983 1.6272453h5.2435074z"/><path d="m16.138197 64.5551859c-3.071072 0-5.7876183-1.9617413-6.75974337-4.8815873-1.74353041-5.2372123-3.26288414-18.4475698-3.26288414-18.4475698-5.91960047 4.6631531-7.75933385 12.8885093-4.33759604 19.6572904l5.36910569 10.6211388c.64610391 1.2781673 2.2674506 1.6995607 3.45187546.8945683 2.7371824-1.8598153 4.9820669-4.5335508 6.3119839-7.8438404z"/><path d="m50.9002799 41.2261776s-1.5193537 13.2103575-3.2628841 18.4475698c-.9721251 2.919846-3.6886714 4.8815873-6.7597434 4.8815873h-.772593c1.2892386 3.2086612 3.482607 5.9213815 6.3119839 7.8438404 1.1821979.8033556 2.8042869.3865749 3.4518754-.8945683l5.3691057-10.6211388c3.4162448-6.7585141 1.5907637-14.9871439-4.3377445-19.6572904z"/></g></svg>