<svg height="435" viewBox="0 0 360 435" width="360" xmlns="http://www.w3.org/2000/svg" xmlns:xlink="http://www.w3.org/1999/xlink"><linearGradient id="a" x1="70.80744%" x2="25.285201%" y1="91.649281%" y2="6.511896%"><stop offset="0" stop-color="#da3e3f"/><stop offset="1" stop-color="#ff5254"/></linearGradient><g fill="none" fill-rule="evenodd"><circle cx="180" cy="180" fill="url(#a)" r="180"/><ellipse cx="175" cy="421" fill="#000" opacity=".05" rx="139" ry="14"/><g fill="#fff" fill-rule="nonzero"><path d="m259.2 240v-22.4h-24v-123.4h-25.6l-45.4 38.1 9.8 13c.666667.866667 1.683333 1.683333 3.05 2.45s2.916667 1.15 4.65 1.15c1 0 2.033333-.183333 3.1-.55s2.133333-.983333 3.2-1.85l16.5-13.7c-.2 3.933333-.3 7.7-.3 11.3v73.5h-28v22.4z"/><path d="m102.64 238c1.04 0 2.0475-.13 3.0225-.39s1.874167-.671667 2.6975-1.235 1.516667-1.289167 2.08-2.1775.953333-1.960833 1.17-3.2175l3.185-18.655h10.725l-3.12 17.68c-.043333.216667-.075833.455-.0975.715s-.0325.498333-.0325.715c0 .91.151667 1.765833.455 2.5675s.715 1.495 1.235 2.08 1.1375 1.050833 1.8525 1.3975 1.484167.52 2.3075.52h9.36l4.55-25.675h12.87l1.04-6.24c.086667-.476667.151667-.931667.195-1.365s.065-.845.065-1.235c0-1.906667-.455-3.260833-1.365-4.0625s-2.188333-1.2025-3.835-1.2025h-7.085l2.73-15.34h4.095c2.86 0 4.950833-.465833 6.2725-1.3975s2.1775-2.415833 2.5675-4.4525l1.56-8.19h-12.61l3.38-18.915c.043333-.216667.065-.400833.065-.5525v-.4875c0-1.646667-.595833-2.99-1.7875-4.03s-2.740833-1.56-4.6475-1.56h-8.97l-4.55 25.545h-10.79l4.55-25.545h-9.23c-2.08 0-3.921667.574167-5.525 1.7225s-2.578333 2.740833-2.925 4.7775l-3.38 19.045h-4.42c-2.86 0-4.9508333.476667-6.2725 1.43s-2.1775 2.426667-2.5675 4.42l-1.56 8.19h12.935l-2.73 15.34h-11.505l-1.04 6.24c-.0866667.476667-.1516667.931667-.195 1.365s-.065.845-.065 1.235c0 1.906667.455 3.260833 1.365 4.0625s2.1883333 1.2025 3.835 1.2025h5.72l-4.55 25.675zm24.765-39.78h-10.79l2.73-15.34h10.79z"/></g></g></svg>