<svg height="218" viewBox="0 0 318 218" width="318" xmlns="http://www.w3.org/2000/svg"><g fill="none"><g fill="#ff5254" transform="translate(111 70)"><ellipse cx="48.469438" cy="41.302583" rx="15.362532" ry="15.289737" transform="matrix(.0496479 -.99876678 .99876678 .0496479 4.811384 87.661661)"/><path d="m48.5 0c-26.5133333 0-48.13047619 21.6741627-48.13047619 48.3607656 0 26.6401913 21.57095239 48.3607655 48.13047619 48.3607655 26.5133333 0 48.1304762-21.6741627 48.1304762-48.3607655-.0461905-26.6866029-21.6171429-48.3607656-48.1304762-48.3607656zm25.2661905 76.0220096v-2.3205742c0-7.9827751-6.4666667-14.4803828-14.4114286-14.4803828h-21.7095238c-7.9447619 0-14.4114286 6.4976077-14.4114286 14.4803828v2.3205742c-7.4828571-6.8688996-12.1480952-16.7545455-12.1480952-27.7076555 0-20.745933 16.7671428-37.5933015 37.4142857-37.5933015s37.4142857 16.8473685 37.4142857 37.5933015c0 10.95311-4.7114286 20.8387559-12.1480952 27.7076555z"/></g><g fill="#427fe0"><g transform="translate(215 60)"><path d="m26.9530435 16.0394737c-3.9913044 0-7.1843478 3.2078947-7.1843478 7.1131579 0 3.9517544 3.24 7.1131579 7.1843478 7.1131579 3.9913043 0 7.1843478-3.2078948 7.1843478-7.1131579 0-3.9517544-3.24-7.1131579-7.1843478-7.1131579z"/><path d="m26.9530435 0c-14.6973913 0-26.67130437 11.8552632-26.67130437 26.4070175 0 14.5517544 11.97391307 26.4070176 26.67130437 26.4070176s26.6713043-11.8552632 26.6713043-26.4070176c0-14.5517543-12.0208695-26.4070175-26.6713043-26.4070175zm11.88 42.4929825v-4.3236843c0-3.7192982-3.0521739-6.6947368-6.7617392-6.6947368h-10.2365217c-3.7565217 0-6.7617391 3.0219298-6.7617391 6.6947368v4.3236843c-4.9773913-3.6263158-8.21739133-9.4842106-8.21739133-16.085965 0-11.018421 9.01565213-19.9447368 20.14434783-19.9447368s20.1443478 8.9263158 20.1443478 19.9447368c-.093913 6.6017544-3.333913 12.4596492-8.3113043 16.085965z"/></g><g transform="translate(202 155)"><path d="m31.6852941 18.3441176c-4.9102941 0-8.8941176 3.9838236-8.8941176 8.8941177s3.9838235 8.8941176 8.8941176 8.8941176 8.8941177-3.9838235 8.8941177-8.8941176-3.9838236-8.8941177-8.8941177-8.8941177z"/><path d="m31.6852941 0c-17.2786765 0-31.31470586 14.0360294-31.31470586 31.3147059s14.03602936 31.3147059 31.31470586 31.3147059 31.3147059-14.0360294 31.3147059-31.3147059-14.0360294-31.3147059-31.3147059-31.3147059zm14.6845588 51.3727941v-5.3735294c0-4.6323529-3.7522058-8.3845588-8.3845588-8.3845588h-12.6463235c-4.632353 0-8.3845588 3.7522059-8.3845588 8.3845588v5.3735294c-6.1610294-4.5397059-10.19117651-11.8125-10.19117651-20.0580882 0-13.7580883 11.11764711-24.87573531 24.87573531-24.87573531s24.876135 11.11764701 24.876135 24.87573531c.0459238 8.2455882-3.9378997 15.5183823-10.1452527 20.0580882z"/></g><g transform="translate(274 108)"><path d="m22.093617 13.8606383c-2.9957447 0-5.4297872 2.3787234-5.4297872 5.306383s2.4340425 5.306383 5.4297872 5.306383 5.4297873-2.3787234 5.4297873-5.306383-2.4340426-5.306383-5.4297873-5.306383z"/><path d="m22.093617.41170213c-11.9361702 0-21.6723404 9.51489361-21.6723404 21.17978727 0 11.6648936 9.7361702 21.1797872 21.6723404 21.1797872s21.6723404-9.5148936 21.6723404-21.1797872c0-11.66489366-9.7361702-21.17978727-21.6723404-21.17978727zm8.9404256 33.11914897v-3.2021277c0-2.7446808-2.2936171-4.9861702-5.1021277-4.9861702h-7.6765958c-2.8085106 0-5.1021276 2.2414894-5.1021276 4.9861702v3.2021277c-3.74468086-2.6989362-6.17872341-7.0446809-6.17872341-11.9393617 0-8.1882979 6.78723401-14.82127663 15.16595741-14.82127663s15.1659575 6.63297873 15.1659575 14.82127663c-.0468085 4.8946808-2.4808511 9.2404255-6.2723404 11.9393617z"/></g><g transform="translate(59 15)"><path d="m33.4056338 19.3846154c-5.284507 0-9.5309859 4.2-9.5309859 9.3230769 0 5.1692308 4.293662 9.3230769 9.5309859 9.3230769 5.284507 0 9.5309859-4.2 9.5309859-9.3230769.0471831-5.1230769-4.2464789-9.3230769-9.5309859-9.3230769z"/><path d="m33.4056338.41538462c-18.3542253 0-33.3112676 14.58461538-33.3112676 32.58461538 0 17.9538462 14.9098592 32.5846154 33.3112676 32.5846154 18.4014085 0 33.3112676-14.5846154 33.3112676-32.5846154 0-17.9538462-14.9570422-32.58461538-33.3112676-32.58461538zm15.806338 53.67692308v-5.6307692c0-4.8461539-4.0105633-8.8153847-9.0119718-8.8153847h-13.5887324c-4.9542253 0-9.0119718 3.923077-9.0119718 8.8153847v5.6307692c-6.6056338-4.7538462-10.9464789-12.4153846-10.9464789-21.0923077 0-14.4461538 11.984507-26.16923077 26.7528169-26.16923077s26.7528169 11.72307697 26.7528169 26.16923077c0 8.6307692-4.293662 16.2923077-10.9464789 21.0923077z"/></g><g transform="translate(27 99)"><path d="m29.8625954 17.6793893c-4.6259542 0-8.3358778 3.7557252-8.3358778 8.3358779 0 4.6259542 3.7557251 8.3358778 8.3358778 8.3358778 4.6259542 0 8.3358779-3.7557252 8.3358779-8.3358778 0-4.5801527-3.7099237-8.3358779-8.3358779-8.3358779z"/><path d="m29.8625954.09160305c-16.3969465 0-29.77099235 13.32824425-29.77099235 29.77099235s13.32824425 29.7709924 29.77099235 29.7709924 29.7709924-13.3282443 29.7709924-29.7709924-13.3740458-29.77099235-29.7709924-29.77099235zm13.8320611 48.59541985v-5.0381679c0-4.3511451-3.5267176-7.8778626-7.8778626-7.8778626h-11.8625954c-4.3511451 0-7.8778626 3.5267175-7.8778626 7.8778626v5.0381679c-5.8167939-4.259542-9.57251911-11.129771-9.57251911-18.870229 0-12.9160305 10.48854961-23.40458016 23.40458011-23.40458016 12.9160306 0 23.4045802 10.48854966 23.4045802 23.40458016-.0916031 7.7862595-3.8473282 14.610687-9.6183206 18.870229z"/></g><g transform="translate(77 167)"><circle cx="23.35094" cy="20.65234" r="5.956124" transform="matrix(.97295088 -.23101209 .23101209 .97295088 -4.139318 5.952977)"/><path d="m23.360396.18613861c-12.7970297 0-23.22079204 10.42376239-23.22079204 23.22079209s10.42376234 23.2207921 23.22079204 23.2207921 23.2207921-10.4237624 23.2207921-23.2207921c0-12.8435644-10.4237624-23.22079209-23.2207921-23.22079209zm9.9118812 36.66930689v-3.6297029c0-3.1178218-2.5128713-5.6306931-5.630693-5.6306931h-8.5158416c-3.1178218 0-5.6306931 2.5128713-5.6306931 5.6306931v3.6297029c-4.14158415-3.0247524-6.84059405-7.9574257-6.84059405-13.4950495 0-9.260396 7.49207925-16.75247521 16.75247525-16.75247521s16.7524752 7.49207921 16.7524752 16.75247521c-.0465346 5.5376238-2.7455445 10.4702971-6.8871287 13.4950495z"/></g><g transform="translate(0 49)"><path d="m21.8580645 13.9172043c-2.9806451 0-5.3935484 2.3580645-5.3935484 5.2709677 0 2.9129033 2.4129033 5.2709678 5.3935484 5.2709678 2.9806452 0 5.3935484-2.3580645 5.3935484-5.2709678 0-2.9129032-2.4129032-5.2709677-5.3935484-5.2709677z"/><path d="m21.8580645.36989247c-11.96989246 0-21.71612902 9.52473119-21.71612902 21.22258063 0 11.6978495 9.74623656 21.2225807 21.71612902 21.2225807 11.9698925 0 21.716129-9.5247312 21.716129-21.2225807 0-11.69784944-9.7462365-21.22258063-21.716129-21.22258063zm8.9419355 33.15161293v-3.1903226c0-2.7741936-2.2709677-4.9935484-5.1096774-4.9935484h-7.711828c-2.8387097 0-5.1096774 2.2193548-5.1096774 4.9935484v3.1903226c-3.7376344-2.6817205-6.19784946-7.027957-6.19784946-11.9290323 0-8.1838709 6.76559136-14.79569891 15.13978496-14.79569891 8.3741935 0 15.1397849 6.61182801 15.1397849 14.79569891.0473119 4.9010753-2.3655914 9.2473118-6.1505376 11.9290323z"/></g><g transform="translate(266 23)"><circle cx="18.619589" cy="16.663454" r="4.208578" transform="matrix(.99194042 -.12670515 .12670515 .99194042 -1.96128 2.493498)"/><path d="m18.63875.37c-10.03625 0-18.2225 8.18625-18.2225 18.2225s8.18625 18.2225 18.2225 18.2225 18.2225-8.18625 18.2225-18.2225-8.14-18.2225-18.2225-18.2225zm6.98375 27.70375v-2.54375c0-2.17375-1.7575-3.9775-3.9775-3.9775h-5.96625c-2.17375 0-3.9775 1.7575-3.9775 3.9775v2.54375c-2.91375-2.1275-4.81-5.59625-4.81-9.48125 0-6.52125 5.2725-11.79375 11.79375-11.79375s11.79375 5.2725 11.79375 11.79375c-.04625 3.885-1.9425 7.35375-4.85625 9.48125z"/></g><g transform="translate(17 179)"><ellipse cx="18.36125" cy="16.312332" rx="4.20875" ry="4.193283"/><path d="m18.36125.09216007c-10.03625 0-18.2225 8.15616578-18.2225 18.15553283 0 9.9993671 8.18625 18.1555329 18.2225 18.1555329s18.2225-8.1561658 18.2225-18.1555329c0-9.99936705-8.18625-18.15553283-18.2225-18.15553283zm6.98375 27.60193953v-2.5344018c0-2.1657615-1.7575-3.9628828-3.9775-3.9628828h-5.96625c-2.17375 0-3.9775 1.7510413-3.9775 3.9628828v2.5344018c-2.91375-2.1196815-4.81-5.5756839-4.81-9.4464067 0-6.4972846 5.2725-11.75040829 11.79375-11.75040829s11.79375 5.25312369 11.79375 11.75040829c-.04625 3.8707228-1.9425 7.3267252-4.85625 9.4464067z"/></g><g transform="translate(174)"><path d="m21.8107527 13.9634409c-2.9806452 0-5.3935484 2.3580645-5.3935484 5.2709677s2.4129032 5.2709677 5.3935484 5.2709677c2.9806451 0 5.3935484-2.3580645 5.3935484-5.2709677.0473118-2.9129032-2.4129033-5.2709677-5.3935484-5.2709677z"/><path d="m21.8107527.41612903c-11.96989248 0-21.71612904 9.52473119-21.71612904 21.22258067 0 11.6978494 9.74623656 21.2225806 21.71612904 21.2225806 11.9698925 0 21.7163005-9.5247312 21.7163005-21.2225806.0471403-11.69784948-9.6990962-21.22258067-21.7163005-21.22258067zm8.9892473 33.15161287v-3.1903225c0-2.7741936-2.2709677-4.9935484-5.1096774-4.9935484h-7.711828c-2.8387097 0-5.1096774 2.2193548-5.1096774 4.9935484v3.1903225c-3.7376344-2.6817204-6.19784946-7.027957-6.19784946-11.9290322 0-8.183871 6.76559136-14.79569895 15.13978496-14.79569895 8.3741935 0 15.1397849 6.61182795 15.1397849 14.79569895.0473119 4.9010752-2.4129032 9.2473118-6.1505376 11.9290322z"/></g><path d="m115.577112 67.7715531 3.575618.0041675.024518 21.0358461-3.575618-.0041676z" transform="matrix(.70660659 -.70760661 .70760661 .70660659 -20.961935 106.027096)"/><path d="m57.1590824 89.2689284 31.785653.0292323.003286 3.5781123-31.785653-.0292323z" transform="matrix(.43871323 -.89862712 .89862712 .43871323 -40.836317 116.765749)"/><path d="m82.9274667 125.180704 29.5196113.00837.001015 3.57146-29.5196113-.00837z" transform="matrix(.99244315 -.12270533 .12270533 .99244315 -14.84176 12.94631)"/><path d="m201.392214 97.0672969 18.497551.0144905.002804 3.5725046-18.497552-.01449z" transform="matrix(.93271789 -.36060691 .36060691 .93271789 -21.47742 82.610664)"/><path d="m163.526953 55.4794083 35.681977.0300764.003012 3.5785997-35.681978-.0300763z" transform="matrix(.39289322 -.9195841 .9195841 .39289322 57.433399 201.561811)"/><path d="m238.985899 2.42509691 3.571952.00188483.030378 57.68855446-3.571953-.0018848z" transform="matrix(.23249918 -.97259659 .97259659 .23249918 154.390864 258.188671)"/><path d="m260.308458 74-3.308458-1.5479744c1.134328-2.2985075 13.706468-17.4498934 16.211443-20.4520256l2.788557 2.2985075c-7.089552 8.5373134-15.029851 18.3411513-15.691542 19.7014925z"/><path d="m201.503261 146.350631 3.575482.004161.030319 26.053282-3.575483-.004162z" transform="matrix(.68738953 -.72628895 .72628895 .68738953 -52.199827 197.482672)"/><path d="m113.873171 176-2.873171-2.07377c1.019512-1.307378 15.570732-19.159837 16.219512-19.92623l2.780488 2.163934c-.139024.22541-15.107317 18.573771-16.126829 19.836066z"/><path d="m239.950982 90.360998 3.571754.0009097.018122 71.3188243-3.571754-.00091z" transform="matrix(.10979494 -.99395426 .99395426 .10979494 89.944465 352.468798)"/><path d="m32.4772737 87.283266 3.5771853.0038926.0215357 19.7741864-3.5771853-.003892z" transform="matrix(.82379092 -.56689375 .56689375 .82379092 -49.046518 36.553852)"/><path d="m28.7812089 166.229809 27.8832788.020876.0026747 3.578793-27.8832788-.020877z" transform="matrix(.34140581 -.93991599 .93991599 .34140581 -129.795848 150.820492)"/><path d="m77.1850187 149.553128 3.5764222.004103.0308496 26.881809-3.5764222-.004103z" transform="matrix(.76679316 -.64189427 .64189427 .76679316 -86.205558 88.714167)"/></g></g></svg>