<svg height="411" viewBox="0 0 352 411" width="352" xmlns="http://www.w3.org/2000/svg" xmlns:xlink="http://www.w3.org/1999/xlink"><filter id="a" height="391.3%" width="114.6%" x="-7.3%" y="-145.6%"><feGaussianBlur in="SourceGraphic" stdDeviation="6.60267857"/></filter><linearGradient id="b" x1="100%" x2="0%" y1="50%" y2="50%"><stop offset="0" stop-color="#da3e3f"/><stop offset="1" stop-color="#ff5254"/></linearGradient><g fill="none" fill-rule="evenodd" transform="translate(-3)"><ellipse cx="179" cy="387.6" fill="#000" filter="url(#a)" opacity=".2" rx="136" ry="6.8"/><circle cx="179" cy="176" fill="url(#b)" r="176"/><g fill="#fff" fill-rule="nonzero"><path d="m76.112003 232 1.668-5.418c.028-.084.057-.176.087-.276s.059-.206.087-.318c.028.112.057.218.087.318s.059.192.087.276l1.644 5.418h1.836l2.7-8.742h-1.596c-.168 0-.312.044-.432.132s-.196.19-.228.306l-1.2 4.56c-.036.14-.071.29-.105.45s-.067.328-.099.504c-.036-.18-.078-.349-.126-.507s-.094-.307-.138-.447l-1.404-4.56c-.044-.136-.123-.243-.237-.321s-.259-.117-.435-.117h-.6c-.168 0-.311.045-.429.135s-.195.191-.231.303l-1.416 4.56c-.044.148-.09.305-.138.471s-.092.343-.132.531c-.02-.184-.05-.36-.09-.528s-.08-.326-.12-.474l-1.2-4.56c-.036-.132-.113-.238-.231-.318s-.265-.12-.441-.12h-1.704l2.7 8.742zm16.6679998 0v-1.56h-3.588v-2.082h2.748v-1.5h-2.748v-2.04h3.588v-1.56h-5.628v8.742zm6.7079997 0c.5240005 0 .9900005-.067 1.3980005-.201s.751-.32 1.029-.558.489-.517.633-.837.216-.666.216-1.038c0-.492-.138-.895-.414-1.209s-.702-.541-1.278-.681c.264-.096.49-.209.678-.339s.342-.275.462-.435.208-.331.264-.513.084-.371.084-.567c0-.36-.061-.686-.183-.978s-.317-.54-.585-.744-.614-.362-1.038-.474-.9380005-.168-1.5420005-.168h-3.216v8.742zm-.408-5.064h-1.056v-2.16h1.188c.228 0 .425.018.591.054s.3030005.096.4110005.18.188.195.24.333.078.311.078.519c0 .212-.033.388-.099.528s-.162.25-.288.33-.2790005.136-.4590005.168-.382.048-.606.048zm.372 3.534h-1.428v-2.178h1.416c.256 0 .468.024.6360005.072.168.048.303.116.405.204s.174.196.216.324.063.272.063.432c0 .14-.018.278-.054.414s-.102.258-.198.366-.229.196-.399.264c-.1700005.068-.3890005.102-.6570005.102zm8.8439995 1.626c.496 0 .939-.075 1.329-.225s.718-.356.984-.618.469-.569.609-.921.21-.73.21-1.134c0-.364-.056-.675-.168-.933s-.259-.477-.441-.657-.39-.328-.624-.444-.473-.217-.717-.303-.483-.164-.717-.234-.442-.147-.624-.231-.329-.184-.441-.3-.168-.262-.168-.438c0-.276.093-.495.279-.657s.469-.243.849-.243c.22 0 .416.029.588.087s.325.123.459.195.254.137.36.195.205.087.297.087c.104 0 .189-.024.255-.072s.129-.12.189-.216l.504-.942c-.156-.144-.333-.273-.531-.387s-.411-.212-.639-.294-.469-.144-.723-.186-.515-.063-.783-.063c-.48 0-.906.073-1.278.219s-.686.341-.942.585-.45.522-.582.834-.198.632-.198.96c0 .408.056.751.168 1.029s.259.51.441.696.389.336.621.45.47.21.714.288.482.149.714.213.439.138.621.222.329.19.441.318.168.294.168.498c0 .352-.102.609-.306.771s-.49.243-.858.243c-.272 0-.508-.038-.708-.114s-.377-.16-.531-.252-.292-.176-.414-.252-.243-.114-.363-.114c-.092 0-.178.022-.258.066s-.142.102-.186.174l-.6.948c.172.172.374.328.606.468s.48.261.744.363.537.181.819.237.559.084.831.084zm8.424-.096v-8.742h-2.04v8.742zm7.572 0v-7.134h2.46v-1.608h-6.948v1.608h2.46v7.134zm10.992 0v-1.56h-3.588v-2.082h2.748v-1.5h-2.748v-2.04h3.588v-1.56h-5.628v8.742zm12.215999 0 3.504-8.742h-1.644c-.168 0-.31.045-.426.135s-.194.191-.234.303l-1.68 4.68c-.072.204-.145.426-.219.666s-.139.492-.195.756c-.068-.264-.141-.516-.219-.756s-.155-.462-.231-.666l-1.692-4.68c-.048-.132-.128-.238-.24-.318s-.256-.12-.432-.12h-1.632l3.504 8.742zm8.508 0v-8.742h-2.04v8.742zm6.048.096c.496 0 .939-.075 1.329-.225s.718-.356.984-.618.469-.569.609-.921.21-.73.21-1.134c0-.364-.056-.675-.168-.933s-.259-.477-.441-.657-.39-.328-.624-.444-.473-.217-.717-.303-.483-.164-.717-.234-.442-.147-.624-.231-.329-.184-.441-.3-.168-.262-.168-.438c0-.276.093-.495.279-.657s.469-.243.849-.243c.22 0 .416.029.588.087s.325.123.459.195.254.137.36.195.205.087.297.087c.104 0 .189-.024.255-.072s.129-.12.189-.216l.504-.942c-.156-.144-.333-.273-.531-.387s-.411-.212-.639-.294-.469-.144-.723-.186-.515-.063-.783-.063c-.48 0-.906.073-1.278.219s-.686.341-.942.585-.45.522-.582.834-.198.632-.198.96c0 .408.056.751.168 1.029s.259.51.441.696.389.336.621.45.47.21.714.288.482.149.714.213.439.138.621.222.329.19.441.318.168.294.168.498c0 .352-.102.609-.306.771s-.49.243-.858.243c-.272 0-.508-.038-.708-.114s-.377-.16-.531-.252-.292-.176-.414-.252-.243-.114-.363-.114c-.092 0-.178.022-.258.066s-.142.102-.186.174l-.6.948c.172.172.374.328.606.468s.48.261.744.363.537.181.819.237.559.084.831.084zm8.423999-.096v-8.742h-2.04v8.742zm7.572 0v-7.134h2.46v-1.608h-6.948v1.608h2.46v7.134zm9.096.096c.68 0 1.299-.114 1.857-.342s1.035-.543 1.431-.945.703-.875.921-1.419.327-1.132.327-1.764c0-.628-.109-1.214-.327-1.758s-.525-1.016-.921-1.416-.873-.715-1.431-.945-1.177-.345-1.857-.345-1.3.114-1.86.342-1.039.542-1.437.942-.706.872-.924 1.416-.327 1.132-.327 1.764.109 1.22.327 1.764.526 1.017.924 1.419.877.717 1.437.945 1.18.342 1.86.342zm0-1.68c-.392 0-.741-.063-1.047-.189s-.564-.309-.774-.549-.371-.533-.483-.879-.168-.737-.168-1.173c0-.432.056-.821.168-1.167s.273-.639.483-.879.468-.424.774-.552.655-.192 1.047-.192c.388 0 .734.064 1.038.192s.561.312.771.552.371.533.483.879.168.735.168 1.167c0 .436-.056.827-.168 1.173s-.273.639-.483.879-.467.423-.771.549-.65.189-1.038.189zm9.599999 1.584v-3.234h.516c.156 0 .277.024.363.072s.161.128.225.24l1.452 2.538c.148.256.392.384.732.384h1.836l-1.86-3.042c-.088-.144-.191-.266-.309-.366s-.245-.184-.381-.252c.284-.108.535-.246.753-.414s.402-.359.552-.573.263-.447.339-.699.114-.52.114-.804c0-.372-.064-.716-.192-1.032s-.333-.59-.615-.822-.646-.413-1.092-.543-.985-.195-1.617-.195h-2.844v8.742zm.816-4.632h-.816v-2.592h.816c.524 0 .911.108 1.161.324s.375.516.375.9c0 .192-.028.371-.084.537s-.146.311-.27.435-.283.221-.477.291-.429.105-.705.105zm9.564 4.728c.496 0 .939-.075 1.329-.225s.718-.356.984-.618.469-.569.609-.921.21-.73.21-1.134c0-.364-.056-.675-.168-.933s-.259-.477-.441-.657-.39-.328-.624-.444-.473-.217-.717-.303-.483-.164-.717-.234-.442-.147-.624-.231-.329-.184-.441-.3-.168-.262-.168-.438c0-.276.093-.495.279-.657s.469-.243.849-.243c.22 0 .416.029.588.087s.325.123.459.195.254.137.36.195.205.087.297.087c.104 0 .189-.024.255-.072s.129-.12.189-.216l.504-.942c-.156-.144-.333-.273-.531-.387s-.411-.212-.639-.294-.469-.144-.723-.186-.515-.063-.783-.063c-.48 0-.906.073-1.278.219s-.686.341-.942.585-.45.522-.582.834-.198.632-.198.96c0 .408.056.751.168 1.029s.259.51.441.696.389.336.621.45.47.21.714.288.482.149.714.213.439.138.621.222.329.19.441.318.168.294.168.498c0 .352-.102.609-.306.771s-.49.243-.858.243c-.272 0-.508-.038-.708-.114s-.377-.16-.531-.252-.292-.176-.414-.252-.243-.114-.363-.114c-.092 0-.178.022-.258.066s-.142.102-.186.174l-.6.948c.172.172.374.328.606.468s.48.261.744.363.537.181.819.237.559.084.831.084zm14.46-.096 1.668-5.418c.028-.084.057-.176.087-.276s.059-.206.087-.318c.028.112.057.218.087.318s.059.192.087.276l1.644 5.418h1.836l2.7-8.742h-1.596c-.168 0-.312.044-.432.132s-.196.19-.228.306l-1.2 4.56c-.036.14-.071.29-.105.45s-.067.328-.099.504c-.036-.18-.078-.349-.126-.507s-.094-.307-.138-.447l-1.404-4.56c-.044-.136-.123-.243-.237-.321s-.259-.117-.435-.117h-.6c-.168 0-.311.045-.429.135s-.195.191-.231.303l-1.416 4.56c-.044.148-.09.305-.138.471s-.092.343-.132.531c-.02-.184-.05-.36-.09-.528s-.08-.326-.12-.474l-1.2-4.56c-.036-.132-.113-.238-.231-.318s-.265-.12-.441-.12h-1.704l2.7 8.742zm13.079999 0v-3.696h3.552v3.696h2.04v-8.742h-2.04v3.654h-3.552v-3.654h-2.04v8.742zm13.188.096c.68 0 1.299-.114 1.857-.342s1.035-.543 1.431-.945.703-.875.921-1.419.327-1.132.327-1.764c0-.628-.109-1.214-.327-1.758s-.525-1.016-.921-1.416-.873-.715-1.431-.945-1.177-.345-1.857-.345-1.3.114-1.86.342-1.039.542-1.437.942-.706.872-.924 1.416-.327 1.132-.327 1.764.109 1.22.327 1.764.526 1.017.924 1.419.877.717 1.437.945 1.18.342 1.86.342zm0-1.68c-.392 0-.741-.063-1.047-.189s-.564-.309-.774-.549-.371-.533-.483-.879-.168-.737-.168-1.173c0-.432.056-.821.168-1.167s.273-.639.483-.879.468-.424.774-.552.655-.192 1.047-.192c.388 0 .734.064 1.038.192s.561.312.771.552.371.533.483.879.168.735.168 1.167c0 .436-.056.827-.168 1.173s-.273.639-.483.879-.467.423-.771.549-.65.189-1.038.189zm12.828 1.584c.168 0 .31-.045.426-.135s.194-.191.234-.303l.516-1.524h3.324l.516 1.524c.044.128.123.233.237.315s.259.123.435.123h1.572l-3.384-8.742h-2.076l-3.384 8.742zm4.032-3.342h-2.388l.804-2.382c.06-.152.124-.332.192-.54s.134-.434.198-.678c.068.24.137.463.207.669s.131.385.183.537zm8.027999 3.342v-3.234h.516c.156 0 .277.024.363.072s.161.128.225.24l1.452 2.538c.148.256.392.384.732.384h1.836l-1.86-3.042c-.088-.144-.191-.266-.309-.366s-.245-.184-.381-.252c.284-.108.535-.246.753-.414s.402-.359.552-.573.263-.447.339-.699.114-.52.114-.804c0-.372-.064-.716-.192-1.032s-.333-.59-.615-.822-.646-.413-1.092-.543-.985-.195-1.617-.195h-2.844v8.742zm.816-4.632h-.816v-2.592h.816c.524 0 .911.108 1.161.324s.375.516.375.9c0 .192-.028.371-.084.537s-.146.311-.27.435-.283.221-.477.291-.429.105-.705.105zm12.828 4.632v-1.56h-3.588v-2.082h2.748v-1.5h-2.748v-2.04h3.588v-1.56h-5.628v8.742zm-225.6839936 15v-3.234h.516c.156 0 .277.024.363.072s.161.128.225.24l1.452 2.538c.148.256.392.384.732.384h1.836l-1.86-3.042c-.088-.144-.191-.266-.309-.366s-.245-.184-.381-.252c.284-.108.535-.246.753-.414s.402-.359.552-.573.263-.447.339-.699.114-.52.114-.804c0-.372-.064-.716-.192-1.032s-.333-.59-.615-.822-.646-.413-1.092-.543-.985-.195-1.617-.195h-2.844v8.742zm.816-4.632h-.816v-2.592h.816c.524 0 .911.108 1.161.324s.375.516.375.9c0 .192-.028.371-.084.537s-.146.311-.27.435-.283.221-.477.291-.429.105-.705.105zm12.8279997 4.632v-1.56h-3.588v-2.082h2.748v-1.5h-2.748v-2.04h3.588v-1.56h-5.628v8.742zm7.1039998 0v-7.134h2.46v-1.608h-6.948v1.608h2.46v7.134zm5.2799997 0c.168 0 .31-.045.426-.135s.194-.191.234-.303l.516-1.524h3.324l.516 1.524c.044.128.123.233.237.315s.259.123.435.123h1.572l-3.384-8.742h-2.076l-3.384 8.742zm4.032-3.342h-2.388l.804-2.382c.06-.152.124-.332.192-.54s.134-.434.198-.678c.068.24.137.463.207.669s.131.385.183.537zm8.0279998 3.342v-3.234h.516c.156 0 .277.024.363.072s.161.128.225.24l1.4519996 2.538c.148.256.392.384.732.384h1.836l-1.86-3.042c-.088-.144-.191-.266-.309-.366s-.245-.184-.381-.252c.284-.108.535-.246.753-.414s.402-.359.552-.573.263-.447.339-.699.114-.52.114-.804c0-.372-.064-.716-.192-1.032s-.333-.59-.615-.822-.646-.413-1.092-.543-.985-.195-1.6169996-.195h-2.844v8.742zm.816-4.632h-.816v-2.592h.816c.5239996 0 .9109996.108 1.1609996.324s.375.516.375.9c0 .192-.028.371-.084.537s-.146.311-.27.435-.283.221-.477.291-.4289996.105-.7049996.105zm10.8599996 4.728c.356 0 .689-.018.999-.054s.602-.092.876-.168.532-.173.774-.291.475-.259.699-.423v-3.69h-3.108v1.116c0 .104.036.19.108.258s.172.102.3.102h.864v1.326c-.192.08-.396.144-.612.192s-.464.072-.744.072c-.368 0-.707-.065-1.017-.195s-.578-.319-.804-.567-.403-.552-.531-.912-.192-.772-.192-1.236c0-.42.058-.801.174-1.143s.281-.635.495-.879.473-.433.777-.567.646-.201 1.026-.201c.204 0 .388.01.552.03s.32.052.468.096.293.101.435.171.293.153.453.249c.128.08.252.12.372.12.092 0 .177-.024.255-.072s.145-.114.201-.198l.588-.894c-.176-.168-.376-.324-.6-.468s-.471-.268-.741-.372-.565-.186-.885-.246-.662-.09-1.026-.09c-.704 0-1.341.11-1.911.33s-1.056.528-1.458.924-.711.867-.927 1.413-.324 1.145-.324 1.797c0 .64.113 1.233.339 1.779s.538 1.018.936 1.416.869.71 1.413.936 1.136.339 1.776.339zm12.276-.096v-1.56h-3.588v-2.082h2.748v-1.5h-2.748v-2.04h3.588v-1.56h-5.628v8.742zm7.104 0v-7.134h2.46v-1.608h-6.948v1.608h2.46v7.134zm10.991999 0v-1.56h-3.588v-2.082h2.748v-1.5h-2.748v-2.04h3.588v-1.56h-5.628v8.742zm6.612 0c.68 0 1.299-.109 1.857-.327s1.035-.522 1.431-.912.703-.852.921-1.386.327-1.117.327-1.749c0-.628-.109-1.209-.327-1.743s-.525-.995-.921-1.383-.873-.692-1.431-.912-1.177-.33-1.857-.33h-3.396v8.742zm0-1.56h-1.356v-5.622h1.356c.388 0 .734.065 1.038.195s.561.316.771.558.371.537.483.885.168.738.168 1.17c0 .436-.056.828-.168 1.176s-.273.643-.483.885-.467.428-.771.558-.65.195-1.038.195zm15.828 1.56 1.668-5.418c.028-.084.057-.176.087-.276s.059-.206.087-.318c.028.112.057.218.087.318s.059.192.087.276l1.644 5.418h1.836l2.7-8.742h-1.596c-.168 0-.312.044-.432.132s-.196.19-.228.306l-1.2 4.56c-.036.14-.071.29-.105.45s-.067.328-.099.504c-.036-.18-.078-.349-.126-.507s-.094-.307-.138-.447l-1.404-4.56c-.044-.136-.123-.243-.237-.321s-.259-.117-.435-.117h-.6c-.168 0-.311.045-.429.135s-.195.191-.231.303l-1.416 4.56c-.044.148-.09.305-.138.471s-.092.343-.132.531c-.02-.184-.05-.36-.09-.528s-.08-.326-.12-.474l-1.2-4.56c-.036-.132-.113-.238-.231-.318s-.265-.12-.441-.12h-1.704l2.7 8.742zm13.259999 0v-8.742h-2.04v8.742zm7.572 0v-7.134h2.46v-1.608h-6.948v1.608h2.46v7.134zm7.404 0v-3.696h3.552v3.696h2.04v-8.742h-2.04v3.654h-3.552v-3.654h-2.04v8.742zm16.871999 0c.68 0 1.299-.109 1.857-.327s1.035-.522 1.431-.912.703-.852.921-1.386.327-1.117.327-1.749c0-.628-.109-1.209-.327-1.743s-.525-.995-.921-1.383-.873-.692-1.431-.912-1.177-.33-1.857-.33h-3.396v8.742zm0-1.56h-1.356v-5.622h1.356c.388 0 .734.065 1.038.195s.561.316.771.558.371.537.483.885.168.738.168 1.17c0 .436-.056.828-.168 1.176s-.273.643-.483.885-.467.428-.771.558-.65.195-1.038.195zm9.792 1.56v-8.742h-2.04v8.742zm6.048.096c.496 0 .939-.075 1.329-.225s.718-.356.984-.618.469-.569.609-.921.21-.73.21-1.134c0-.364-.056-.675-.168-.933s-.259-.477-.441-.657-.39-.328-.624-.444-.473-.217-.717-.303-.483-.164-.717-.234-.442-.147-.624-.231-.329-.184-.441-.3-.168-.262-.168-.438c0-.276.093-.495.279-.657s.469-.243.849-.243c.22 0 .416.029.588.087s.325.123.459.195.254.137.36.195.205.087.297.087c.104 0 .189-.024.255-.072s.129-.12.189-.216l.504-.942c-.156-.144-.333-.273-.531-.387s-.411-.212-.639-.294-.469-.144-.723-.186-.515-.063-.783-.063c-.48 0-.906.073-1.278.219s-.686.341-.942.585-.45.522-.582.834-.198.632-.198.96c0 .408.056.751.168 1.029s.259.51.441.696.389.336.621.45.47.21.714.288.482.149.714.213.439.138.621.222.329.19.441.318.168.294.168.498c0 .352-.102.609-.306.771s-.49.243-.858.243c-.272 0-.508-.038-.708-.114s-.377-.16-.531-.252-.292-.176-.414-.252-.243-.114-.363-.114c-.092 0-.178.022-.258.066s-.142.102-.186.174l-.6.948c.172.172.374.328.606.468s.48.261.744.363.537.181.819.237.559.084.831.084zm8.232-.096v-2.922h1.056c.604 0 1.127-.073 1.569-.219s.807-.349 1.095-.609.502-.572.642-.936.21-.764.21-1.2c0-.404-.068-.78-.204-1.128s-.347-.65-.633-.906-.65-.457-1.092-.603-.971-.219-1.587-.219h-3.084v8.742zm1.056-4.452h-1.056v-2.772h1.056c.256 0 .477.032.663.096s.34.155.462.273.213.259.273.423.09.346.09.546c0 .452-.116.804-.348 1.056s-.612.378-1.14.378zm11.903999 4.452v-1.62h-3.24v-7.122h-2.028v8.742zm3.9 0c.168 0 .31-.045.426-.135s.194-.191.234-.303l.516-1.524h3.324l.516 1.524c.044.128.123.233.237.315s.259.123.435.123h1.572l-3.384-8.742h-2.076l-3.384 8.742zm4.032-3.342h-2.388l.804-2.382c.06-.152.124-.332.192-.54s.134-.434.198-.678c.068.24.137.463.207.669s.131.385.183.537zm9.156 3.342v-3.324l3.168-5.418h-1.8c-.084 0-.161.013-.231.039s-.132.06-.186.102-.102.089-.144.141-.075.104-.099.156l-1.224 2.544c-.096.2-.186.386-.27.558s-.156.344-.216.516c-.064-.168-.138-.338-.222-.51s-.176-.36-.276-.564l-1.236-2.544c-.064-.128-.148-.233-.252-.315s-.244-.123-.42-.123h-1.788l3.168 5.418v3.324zm11.087999 0c.168 0 .31-.045.426-.135s.194-.191.234-.303l.516-1.524h3.324l.516 1.524c.044.128.123.233.237.315s.259.123.435.123h1.572l-3.384-8.742h-2.076l-3.384 8.742zm4.032-3.342h-2.388l.804-2.382c.06-.152.124-.332.192-.54s.134-.434.198-.678c.068.24.137.463.207.669s.131.385.183.537zm9.396 3.342c.68 0 1.299-.109 1.857-.327s1.035-.522 1.431-.912.703-.852.921-1.386.327-1.117.327-1.749c0-.628-.109-1.209-.327-1.743s-.525-.995-.921-1.383-.873-.692-1.431-.912-1.177-.33-1.857-.33h-3.396v8.742zm0-1.56h-1.356v-5.622h1.356c.388 0 .734.065 1.038.195s.561.316.771.558.371.537.483.885.168.738.168 1.17c0 .436-.056.828-.168 1.176s-.273.643-.483.885-.467.428-.771.558-.65.195-1.038.195zm9.936 1.656c.496 0 .939-.075 1.329-.225s.718-.356.984-.618.469-.569.609-.921.21-.73.21-1.134c0-.364-.056-.675-.168-.933s-.259-.477-.441-.657-.39-.328-.624-.444-.473-.217-.717-.303-.483-.164-.717-.234-.442-.147-.624-.231-.329-.184-.441-.3-.168-.262-.168-.438c0-.276.093-.495.279-.657s.469-.243.849-.243c.22 0 .416.029.588.087s.325.123.459.195.254.137.36.195.205.087.297.087c.104 0 .189-.024.255-.072s.129-.12.189-.216l.504-.942c-.156-.144-.333-.273-.531-.387s-.411-.212-.639-.294-.469-.144-.723-.186-.515-.063-.783-.063c-.48 0-.906.073-1.278.219s-.686.341-.942.585-.45.522-.582.834-.198.632-.198.96c0 .408.056.751.168 1.029s.259.51.441.696.389.336.621.45.47.21.714.288.482.149.714.213.439.138.621.222.329.19.441.318.168.294.168.498c0 .352-.102.609-.306.771s-.49.243-.858.243c-.272 0-.508-.038-.708-.114s-.377-.16-.531-.252-.292-.176-.414-.252-.243-.114-.363-.114c-.092 0-.178.022-.258.066s-.142.102-.186.174l-.6.948c.172.172.374.328.606.468s.48.261.744.363.537.181.819.237.559.084.831.084zm-249.2699932 14.904c.168 0 .31-.045.426-.135s.194-.191.234-.303l.516-1.524h3.324l.516 1.524c.044.128.123.233.237.315s.259.123.435.123h1.572l-3.384-8.742h-2.076l-3.384 8.742zm4.032-3.342h-2.388l.804-2.382c.06-.152.124-.332.192-.54s.134-.434.198-.678c.068.24.137.463.207.669s.131.385.183.537zm8.0279997 3.342v-3.234h.516c.156 0 .277.024.363.072s.161.128.225.24l1.452 2.538c.148.256.392.384.732.384h1.836l-1.86-3.042c-.088-.144-.191-.266-.309-.366s-.245-.184-.381-.252c.284-.108.535-.246.753-.414s.402-.359.552-.573.263-.447.339-.699.114-.52.114-.804c0-.372-.064-.716-.192-1.032s-.333-.59-.615-.822-.646-.413-1.092-.543-.985-.195-1.617-.195h-2.844v8.742zm.816-4.632h-.816v-2.592h.816c.524 0 .911.108 1.161.324s.375.516.375.9c0 .192-.028.371-.084.537s-.146.311-.27.435-.283.221-.477.291-.429.105-.705.105zm12.8279998 4.632v-1.56h-3.588v-2.082h2.748v-1.5h-2.748v-2.04h3.588v-1.56h-5.628v8.742zm9.2759995 0c.256 0 .462-.059.618-.177s.274-.263.354-.435l3.054-6.468c.044-.096.09-.212.138-.348s.072-.314.072-.534v-.78h-6.144v1.224c0 .052.012.103.036.153s.055.094.093.132.082.068.132.09.103.033.159.033h3.846c-.116.124-.223.254-.321.39s-.189.29-.273.462l-3.12 6.258zm10.0919997.096c.464 0 .895-.09 1.293-.27s.742-.454 1.032-.822.517-.832.681-1.392.246-1.222.246-1.986-.082-1.426-.246-1.986-.391-1.024-.681-1.392-.634-.641-1.032-.819-.829-.267-1.293-.267-.893.089-1.287.267-.735.451-1.023.819-.513.832-.675 1.392-.243 1.222-.243 1.986.081 1.426.243 1.986.387 1.024.675 1.392.629.642 1.023.822.823.27 1.287.27zm0-1.494c-.164 0-.325-.041-.483-.123s-.298-.234-.42-.456-.22-.525-.294-.909-.111-.88-.111-1.488c0-.604.037-1.099.111-1.485s.172-.689.294-.909.262-.371.42-.453.319-.123.483-.123.326.041.486.123.303.233.429.453.227.523.303.909.114.881.114 1.485c0 .608-.038 1.104-.114 1.488s-.177.687-.303.909-.269.374-.429.456-.322.123-.486.123zm7.9439995-3.072c.276 0 .541-.052.795-.156s.477-.251.669-.441.346-.417.462-.681.174-.556.174-.876c0-.332-.052-.633-.156-.903s-.249-.501-.435-.693-.408-.341-.666-.447-.539-.159-.843-.159-.583.053-.8369997.159c-.254.106-.474.255-.66.447s-.331.423-.435.693-.156.571-.156.903c0 .32.052.612.156.876s.249.491.435.681.406.337.66.441c.2539997.104.5329997.156.8369997.156zm-.348 4.47c.128 0 .237-.025.327-.075s.165-.113.225-.189l6.588-8.478h-1.356c-.156 0-.278.029-.366.087s-.162.121-.222.189l-6.5879997 8.466zm.348-5.628c-.096 0-.184-.016-.264-.048s-.148-.086-.204-.162-.1-.178-.132-.306-.048-.288-.048-.48c0-.204.016-.373.048-.507s.076-.241.132-.321.124-.136.204-.168.168-.048.264-.048.185.016.267.048.153.088.213.168.107.187.141.321.051.303.051.507c0 .192-.017.352-.051.48s-.081.23-.141.306-.131.13-.213.162-.171.048-.267.048zm5.028 5.736c.276 0 .541-.052.795-.156s.477-.251.669-.441.346-.418.462-.684.174-.559.174-.879c0-.332-.052-.633-.156-.903s-.249-.501-.435-.693-.408-.341-.666-.447-.539-.159-.843-.159-.583.053-.837.159-.474.255-.66.447-.331.423-.435.693-.156.571-.156.903c0 .32.052.613.156.879s.249.494.435.684.406.337.66.441.533.156.837.156zm0-1.164c-.096 0-.184-.016-.264-.048s-.148-.086-.204-.162-.1-.178-.132-.306-.048-.288-.048-.48c0-.2.016-.367.048-.501s.076-.241.132-.321.124-.136.204-.168.168-.048.264-.048.185.016.267.048.153.088.213.168.107.187.141.321.051.301.051.501c0 .192-.017.352-.051.48s-.081.23-.141.306-.131.13-.213.162-.171.048-.267.048zm11.352 1.056v-5.028c0-.116-.004-.243-.012-.381s-.02-.277-.036-.417l2.328 4.5c.072.14.169.246.291.318s.261.108.417.108h.276c.156 0 .295-.036.417-.108s.219-.178.291-.318l2.316-4.494c-.024.284-.036.548-.036.792v5.028h1.788v-8.742h-1.548c-.088 0-.165.002-.231.006s-.125.016-.177.036-.099.051-.141.093-.083.101-.123.177l-2.244 4.416c-.08.156-.158.317-.234.483s-.148.337-.216.513c-.068-.172-.139-.34-.213-.504s-.151-.322-.231-.474l-2.25-4.434c-.04-.076-.081-.135-.123-.177s-.089-.073-.141-.093-.111-.032-.177-.036-.143-.006-.231-.006h-1.548v8.742zm15.636.096c.68 0 1.299-.114 1.857-.342s1.035-.543 1.431-.945.703-.875.921-1.419.327-1.132.327-1.764c0-.628-.109-1.214-.327-1.758s-.525-1.016-.921-1.416-.873-.715-1.431-.945-1.177-.345-1.857-.345-1.3.114-1.86.342-1.039.542-1.437.942-.706.872-.924 1.416-.327 1.132-.327 1.764.109 1.22.327 1.764.526 1.017.924 1.419.877.717 1.437.945 1.18.342 1.86.342zm0-1.68c-.392 0-.741-.063-1.047-.189s-.564-.309-.774-.549-.371-.533-.483-.879-.168-.737-.168-1.173c0-.432.056-.821.168-1.167s.273-.639.483-.879.468-.424.774-.552.655-.192 1.047-.192c.388 0 .734.064 1.038.192s.561.312.771.552.371.533.483.879.168.735.168 1.167c0 .436-.056.827-.168 1.173s-.273.639-.483.879-.467.423-.771.549-.65.189-1.038.189zm9.599999 1.584v-3.234h.516c.156 0 .277.024.363.072s.161.128.225.24l1.452 2.538c.148.256.392.384.732.384h1.836l-1.86-3.042c-.088-.144-.191-.266-.309-.366s-.245-.184-.381-.252c.284-.108.535-.246.753-.414s.402-.359.552-.573.263-.447.339-.699.114-.52.114-.804c0-.372-.064-.716-.192-1.032s-.333-.59-.615-.822-.646-.413-1.092-.543-.985-.195-1.617-.195h-2.844v8.742zm.816-4.632h-.816v-2.592h.816c.524 0 .911.108 1.161.324s.375.516.375.9c0 .192-.028.371-.084.537s-.146.311-.27.435-.283.221-.477.291-.429.105-.705.105zm12.828 4.632v-1.56h-3.588v-2.082h2.748v-1.5h-2.748v-2.04h3.588v-1.56h-5.628v8.742zm12.864 0v-1.62h-3.24v-7.122h-2.028v8.742zm5.243999 0v-8.742h-2.04v8.742zm5.712 0v-3.72h.492c.188 0 .337.023.447.069s.201.125.273.237l1.98 3.042c.04.06.082.113.126.159s.096.085.156.117.131.056.213.072.181.024.297.024h1.812l-2.64-4.056c-.104-.164-.219-.295-.345-.393s-.265-.175-.417-.231c.104-.056.206-.126.306-.21s.196-.19.288-.318l2.592-3.534h-1.764c-.2 0-.369.028-.507.084s-.261.162-.369.318l-1.968 2.856c-.132.188-.348.282-.648.282h-.324v-3.54h-2.028v8.742zm14.232 0v-1.56h-3.588v-2.082h2.748v-1.5h-2.748v-2.04h3.588v-1.56h-5.628v8.742zm8.483999 0v-1.62h-3.24v-7.122h-2.028v8.742zm5.94 0v-3.324l3.168-5.418h-1.8c-.084 0-.161.013-.231.039s-.132.06-.186.102-.102.089-.144.141-.075.104-.099.156l-1.224 2.544c-.096.2-.186.386-.27.558s-.156.344-.216.516c-.064-.168-.138-.338-.222-.51s-.176-.36-.276-.564l-1.236-2.544c-.064-.128-.148-.233-.252-.315s-.244-.123-.42-.123h-1.788l3.168 5.418v3.324zm14.1 0v-7.134h2.46v-1.608h-6.948v1.608h2.46v7.134zm9.095999.096c.68 0 1.299-.114 1.857-.342s1.035-.543 1.431-.945.703-.875.921-1.419.327-1.132.327-1.764c0-.628-.109-1.214-.327-1.758s-.525-1.016-.921-1.416-.873-.715-1.431-.945-1.177-.345-1.857-.345-1.3.114-1.86.342-1.039.542-1.437.942-.706.872-.924 1.416-.327 1.132-.327 1.764.109 1.22.327 1.764.526 1.017.924 1.419.877.717 1.437.945 1.18.342 1.86.342zm0-1.68c-.392 0-.741-.063-1.047-.189s-.564-.309-.774-.549-.371-.533-.483-.879-.168-.737-.168-1.173c0-.432.056-.821.168-1.167s.273-.639.483-.879.468-.424.774-.552.655-.192 1.047-.192c.388 0 .734.064 1.038.192s.561.312.771.552.371.533.483.879.168.735.168 1.167c0 .436-.056.827-.168 1.173s-.273.639-.483.879-.467.423-.771.549-.65.189-1.038.189zm15.708 1.68c.724 0 1.351-.117 1.881-.351s.971-.581 1.323-1.041l-.804-.846c-.044-.044-.09-.075-.138-.093s-.096-.027-.144-.027c-.06 0-.118.013-.174.039s-.108.059-.156.099c-.12.104-.239.191-.357.261s-.242.127-.372.171-.271.075-.423.093-.32.027-.504.027c-.32 0-.62-.062-.9-.186s-.525-.305-.735-.543-.376-.531-.498-.879-.183-.746-.183-1.194c0-.428.061-.814.183-1.158s.292-.637.51-.879.479-.428.783-.558.64-.195 1.008-.195c.212 0 .397.016.555.048s.296.071.414.117.22.096.306.15.165.104.237.15.14.085.204.117.132.048.204.048c.108 0 .192-.023.252-.069s.112-.097.156-.153l.684-.918c-.164-.172-.352-.329-.564-.471s-.444-.264-.696-.366-.523-.182-.813-.24-.599-.087-.927-.087c-.676 0-1.294.11-1.854.33s-1.041.528-1.443.924-.715.867-.939 1.413-.336 1.145-.336 1.797c0 .64.098 1.233.294 1.779s.477 1.018.843 1.416.812.71 1.338.936 1.121.339 1.785.339zm10.284 0c.68 0 1.299-.114 1.857-.342s1.035-.543 1.431-.945.703-.875.921-1.419.327-1.132.327-1.764c0-.628-.109-1.214-.327-1.758s-.525-1.016-.921-1.416-.873-.715-1.431-.945-1.177-.345-1.857-.345-1.3.114-1.86.342-1.039.542-1.437.942-.706.872-.924 1.416-.327 1.132-.327 1.764.109 1.22.327 1.764.526 1.017.924 1.419.877.717 1.437.945 1.18.342 1.86.342zm0-1.68c-.392 0-.741-.063-1.047-.189s-.564-.309-.774-.549-.371-.533-.483-.879-.168-.737-.168-1.173c0-.432.056-.821.168-1.167s.273-.639.483-.879.468-.424.774-.552.655-.192 1.047-.192c.388 0 .734.064 1.038.192s.561.312.771.552.371.533.483.879.168.735.168 1.167c0 .436-.056.827-.168 1.173s-.273.639-.483.879-.467.423-.771.549-.65.189-1.038.189zm9.359999 1.584v-4.686c0-.128-.004-.265-.012-.411s-.018-.295-.03-.447l4.122 5.208c.1.128.204.216.312.264s.24.072.396.072h1.056v-8.742h-1.788v4.626c0 .14.004.289.012.447s.02.321.036.489l-4.152-5.25c-.056-.068-.106-.122-.15-.162s-.09-.071-.138-.093-.102-.037-.162-.045-.134-.012-.222-.012h-1.068v8.742zm13.968 0 3.504-8.742h-1.644c-.168 0-.31.045-.426.135s-.194.191-.234.303l-1.68 4.68c-.072.204-.145.426-.219.666s-.139.492-.195.756c-.068-.264-.141-.516-.219-.756s-.155-.462-.231-.666l-1.692-4.68c-.048-.132-.128-.238-.24-.318s-.256-.12-.432-.12h-1.632l3.504 8.742zm11.916 0v-1.56h-3.588v-2.082h2.748v-1.5h-2.748v-2.04h3.588v-1.56h-5.628v8.742zm5.244 0v-3.234h.516c.156 0 .277.024.363.072s.161.128.225.24l1.452 2.538c.148.256.392.384.732.384h1.836l-1.86-3.042c-.088-.144-.191-.266-.309-.366s-.245-.184-.381-.252c.284-.108.535-.246.753-.414s.402-.359.552-.573.263-.447.339-.699.114-.52.114-.804c0-.372-.064-.716-.192-1.032s-.333-.59-.615-.822-.646-.413-1.092-.543-.985-.195-1.617-.195h-2.844v8.742zm.816-4.632h-.816v-2.592h.816c.524 0 .911.108 1.161.324s.375.516.375.9c0 .192-.028.371-.084.537s-.146.311-.27.435-.283.221-.477.291-.429.105-.705.105zm10.727999 4.632v-7.134h2.46v-1.608h-6.948v1.608h2.46v7.134zm-215.9339934 15.096c.68 0 1.299-.114 1.857-.342s1.035-.543 1.431-.945.703-.875.921-1.419.327-1.132.327-1.764c0-.628-.109-1.214-.327-1.758s-.525-1.016-.921-1.416-.873-.715-1.431-.945-1.177-.345-1.857-.345-1.3.114-1.86.342-1.039.542-1.437.942-.706.872-.924 1.416-.327 1.132-.327 1.764.109 1.22.327 1.764.526 1.017.924 1.419.877.717 1.437.945 1.18.342 1.86.342zm0-1.68c-.392 0-.741-.063-1.047-.189s-.564-.309-.774-.549-.371-.533-.483-.879-.168-.737-.168-1.173c0-.432.056-.821.168-1.167s.273-.639.483-.879.468-.424.774-.552.655-.192 1.047-.192c.388 0 .734.064 1.038.192s.561.312.771.552.371.533.483.879.168.735.168 1.167c0 .436-.056.827-.168 1.173s-.273.639-.483.879-.467.423-.771.549-.65.189-1.038.189zm9.3599994 1.584v-4.686c0-.128-.004-.265-.012-.411s-.018-.295-.03-.447l4.122 5.208c.1.128.204.216.312.264s.24.072.396.072h1.056v-8.742h-1.788v4.626c0 .14.004.289.012.447s.02.321.036.489l-4.152-5.25c-.056-.068-.106-.122-.15-.162s-.09-.071-.138-.093-.102-.037-.162-.045-.134-.012-.222-.012h-1.068v8.742zm15.756 0v-3.234h.516c.156 0 .277.024.363.072s.161.128.225.24l1.452 2.538c.148.256.392.384.732.384h1.836l-1.86-3.042c-.088-.144-.191-.266-.309-.366s-.245-.184-.381-.252c.284-.108.535-.246.753-.414s.402-.359.552-.573.263-.447.339-.699.114-.52.114-.804c0-.372-.064-.716-.192-1.032s-.333-.59-.615-.822-.646-.413-1.092-.543-.985-.195-1.617-.195h-2.844v8.742zm.816-4.632h-.816v-2.592h.816c.524 0 .911.108 1.161.324s.375.516.375.9c0 .192-.028.371-.084.537s-.146.311-.27.435-.283.221-.477.291-.429.105-.705.105zm12.828 4.632v-1.56h-3.588v-2.082h2.748v-1.5h-2.748v-2.04h3.588v-1.56h-5.628v8.742zm7.103999 0v-7.134h2.46v-1.608h-6.948v1.608h2.46v7.134zm5.28 0c.168 0 .31-.045.426-.135s.194-.191.234-.303l.516-1.524h3.324l.516 1.524c.044.128.123.233.237.315s.259.123.435.123h1.572l-3.384-8.742h-2.076l-3.384 8.742zm4.032-3.342h-2.388l.804-2.382c.06-.152.124-.332.192-.54s.134-.434.198-.678c.068.24.137.463.207.669s.131.385.183.537zm8.22 3.342v-8.742h-2.04v8.742zm8.952 0v-1.62h-3.24v-7.122h-2.028v8.742zm8.651999 0v-1.56h-3.588v-2.082h2.748v-1.5h-2.748v-2.04h3.588v-1.56h-5.628v8.742zm5.244 0v-3.234h.516c.156 0 .277.024.363.072s.161.128.225.24l1.452 2.538c.148.256.392.384.732.384h1.836l-1.86-3.042c-.088-.144-.191-.266-.309-.366s-.245-.184-.381-.252c.284-.108.535-.246.753-.414s.402-.359.552-.573.263-.447.339-.699.114-.52.114-.804c0-.372-.064-.716-.192-1.032s-.333-.59-.615-.822-.646-.413-1.092-.543-.985-.195-1.617-.195h-2.844v8.742zm.816-4.632h-.816v-2.592h.816c.524 0 .911.108 1.161.324s.375.516.375.9c0 .192-.028.371-.084.537s-.146.311-.27.435-.283.221-.477.291-.429.105-.705.105zm7.944-.78c.212 0 .364-.057.456-.171s.156-.279.192-.495l.168-.948v-1.716h-1.62v1.716l.168.948c.04.216.111.381.213.495s.243.171.423.171zm6.624 5.508c.496 0 .939-.075 1.329-.225s.718-.356.984-.618.469-.569.609-.921.21-.73.21-1.134c0-.364-.056-.675-.168-.933s-.259-.477-.441-.657-.39-.328-.624-.444-.473-.217-.717-.303-.483-.164-.717-.234-.442-.147-.624-.231-.329-.184-.441-.3-.168-.262-.168-.438c0-.276.093-.495.279-.657s.469-.243.849-.243c.22 0 .416.029.588.087s.325.123.459.195.254.137.36.195.205.087.297.087c.104 0 .189-.024.255-.072s.129-.12.189-.216l.504-.942c-.156-.144-.333-.273-.531-.387s-.411-.212-.639-.294-.469-.144-.723-.186-.515-.063-.783-.063c-.48 0-.906.073-1.278.219s-.686.341-.942.585-.45.522-.582.834-.198.632-.198.96c0 .408.056.751.168 1.029s.259.51.441.696.389.336.621.45.47.21.714.288.482.149.714.213.439.138.621.222.329.19.441.318.168.294.168.498c0 .352-.102.609-.306.771s-.49.243-.858.243c-.272 0-.508-.038-.708-.114s-.377-.16-.531-.252-.292-.176-.414-.252-.243-.114-.363-.114c-.092 0-.178.022-.258.066s-.142.102-.186.174l-.6.948c.172.172.374.328.606.468s.48.261.744.363.537.181.819.237.559.084.831.084zm14.459999-.096 1.668-5.418c.028-.084.057-.176.087-.276s.059-.206.087-.318c.028.112.057.218.087.318s.059.192.087.276l1.644 5.418h1.836l2.7-8.742h-1.596c-.168 0-.312.044-.432.132s-.196.19-.228.306l-1.2 4.56c-.036.14-.071.29-.105.45s-.067.328-.099.504c-.036-.18-.078-.349-.126-.507s-.094-.307-.138-.447l-1.404-4.56c-.044-.136-.123-.243-.237-.321s-.259-.117-.435-.117h-.6c-.168 0-.311.045-.429.135s-.195.191-.231.303l-1.416 4.56c-.044.148-.09.305-.138.471s-.092.343-.132.531c-.02-.184-.05-.36-.09-.528s-.08-.326-.12-.474l-1.2-4.56c-.036-.132-.113-.238-.231-.318s-.265-.12-.441-.12h-1.704l2.7 8.742zm16.668 0v-1.56h-3.588v-2.082h2.748v-1.5h-2.748v-2.04h3.588v-1.56h-5.628v8.742zm6.708 0c.524 0 .99-.067 1.398-.201s.751-.32 1.029-.558.489-.517.633-.837.216-.666.216-1.038c0-.492-.138-.895-.414-1.209s-.702-.541-1.278-.681c.264-.096.49-.209.678-.339s.342-.275.462-.435.208-.331.264-.513.084-.371.084-.567c0-.36-.061-.686-.183-.978s-.317-.54-.585-.744-.614-.362-1.038-.474-.938-.168-1.542-.168h-3.216v8.742zm-.408-5.064h-1.056v-2.16h1.188c.228 0 .425.018.591.054s.303.096.411.18.188.195.24.333.078.311.078.519c0 .212-.033.388-.099.528s-.162.25-.288.33-.279.136-.459.168-.382.048-.606.048zm.372 3.534h-1.428v-2.178h1.416c.256 0 .468.024.636.072s.303.116.405.204.174.196.216.324.063.272.063.432c0 .14-.018.278-.054.414s-.102.258-.198.366-.229.196-.399.264-.389.102-.657.102zm8.843999 1.626c.496 0 .939-.075 1.329-.225s.718-.356.984-.618.469-.569.609-.921.21-.73.21-1.134c0-.364-.056-.675-.168-.933s-.259-.477-.441-.657-.39-.328-.624-.444-.473-.217-.717-.303-.483-.164-.717-.234-.442-.147-.624-.231-.329-.184-.441-.3-.168-.262-.168-.438c0-.276.093-.495.279-.657s.469-.243.849-.243c.22 0 .416.029.588.087s.325.123.459.195.254.137.36.195.205.087.297.087c.104 0 .189-.024.255-.072s.129-.12.189-.216l.504-.942c-.156-.144-.333-.273-.531-.387s-.411-.212-.639-.294-.469-.144-.723-.186-.515-.063-.783-.063c-.48 0-.906.073-1.278.219s-.686.341-.942.585-.45.522-.582.834-.198.632-.198.96c0 .408.056.751.168 1.029s.259.51.441.696.389.336.621.45.47.21.714.288.482.149.714.213.439.138.621.222.329.19.441.318.168.294.168.498c0 .352-.102.609-.306.771s-.49.243-.858.243c-.272 0-.508-.038-.708-.114s-.377-.16-.531-.252-.292-.176-.414-.252-.243-.114-.363-.114c-.092 0-.178.022-.258.066s-.142.102-.186.174l-.6.948c.172.172.374.328.606.468s.48.261.744.363.537.181.819.237.559.084.831.084zm8.424-.096v-8.742h-2.04v8.742zm7.572 0v-7.134h2.46v-1.608h-6.948v1.608h2.46v7.134zm10.992 0v-1.56h-3.588v-2.082h2.748v-1.5h-2.748v-2.04h3.588v-1.56h-5.628v8.742z"/><path d="m91.68 203.2c3.4133333 0 6.16-.786667 8.24-2.36s3.653333-3.506667 4.72-5.8l40.72-86.24c.586667-1.28 1.2-2.826667 1.84-4.64s.96-4.1866667.96-7.12v-10.4h-81.92v16.32c0 .693333.16 1.373333.48 2.04s.7333333 1.253333 1.24 1.76 1.0933333.906667 1.76 1.2 1.3733333.44 2.12.44h51.28c-1.546667 1.653333-2.973333 3.386667-4.28 5.2s-2.52 3.866667-3.64 6.16l-41.6 83.44zm103.04 1.28c6.186667 0 11.933333-1.2 17.24-3.6s9.893333-6.053333 13.76-10.96 6.893333-11.093333 9.08-18.56 3.28-16.293333 3.28-26.48-1.093333-19.013333-3.28-26.48-5.213333-13.653333-9.08-18.56c-3.866667-4.9066667-8.453333-8.5466667-13.76-10.92s-11.053333-3.56-17.24-3.56-11.906667 1.1866667-17.16 3.56-9.8 6.0133333-13.64 10.92c-3.84 4.906667-6.84 11.093333-9 18.56s-3.24 16.293333-3.24 26.48 1.08 19.013333 3.24 26.48 5.16 13.653333 9 18.56 8.386667 8.56 13.64 10.96 10.973333 3.6 17.16 3.6zm0-19.92c-2.186667 0-4.333333-.546667-6.44-1.64s-3.973333-3.12-5.6-6.08-2.933333-7-3.92-12.12-1.48-11.733333-1.48-19.84c0-8.053333.493333-14.653333 1.48-19.8s2.293333-9.186667 3.92-12.12 3.493333-4.946667 5.6-6.04 4.253333-1.64 6.44-1.64 4.346667.546667 6.48 1.64 4.04 3.106667 5.72 6.04 3.026667 6.973333 4.04 12.12 1.52 11.746667 1.52 19.8c0 8.106667-.506667 14.72-1.52 19.84s-2.36 9.16-4.04 12.12-3.586667 4.986667-5.72 6.08-4.293333 1.64-6.48 1.64zm58.48-11.16c1.84 0 3.606667-.346667 5.3-1.04s3.18-1.673333 4.46-2.94 2.306667-2.78 3.08-4.54 1.16-3.706667 1.16-5.84c0-2.213333-.346667-4.22-1.04-6.02s-1.66-3.34-2.9-4.62-2.72-2.273333-4.44-2.98-3.593333-1.06-5.62-1.06-3.886667.353333-5.58 1.06-3.16 1.7-4.4 2.98-2.206667 2.82-2.9 4.62-1.04 3.806667-1.04 6.02c0 2.133333.346667 4.08 1.04 5.84s1.66 3.273333 2.9 4.54 2.706667 2.246667 4.4 2.94 3.553333 1.04 5.58 1.04zm-2.32 29.8c.853333 0 1.58-.166667 2.18-.5s1.1-.753333 1.5-1.26l43.92-56.52h-9.04c-1.04 0-1.853333.193333-2.44.58s-1.08.806667-1.48 1.26l-43.92 56.44zm2.32-37.52c-.64 0-1.226667-.106667-1.76-.32s-.986667-.573333-1.36-1.08-.666667-1.186667-.88-2.04-.32-1.92-.32-3.2c0-1.36.106667-2.486667.32-3.38s.506667-1.606667.88-2.14.826667-.906667 1.36-1.12 1.12-.32 1.76-.32 1.233333.106667 1.78.32 1.02.586667 1.42 1.12.713333 1.246667.94 2.14.34 2.02.34 3.38c0 1.28-.113333 2.346667-.34 3.2s-.54 1.533333-.94 2.04-.873333.866667-1.42 1.08-1.14.32-1.78.32zm33.52 38.24c1.84 0 3.606667-.346667 5.3-1.04s3.18-1.673333 4.46-2.94 2.306667-2.786667 3.08-4.56 1.16-3.726667 1.16-5.86c0-2.213333-.346667-4.22-1.04-6.02s-1.66-3.34-2.9-4.62-2.72-2.273333-4.44-2.98-3.593333-1.06-5.62-1.06-3.886667.353333-5.58 1.06-3.16 1.7-4.4 2.98-2.206667 2.82-2.9 4.62-1.04 3.806667-1.04 6.02c0 2.133333.346667 4.086667 1.04 5.86s1.66 3.293333 2.9 4.56 2.706667 2.246667 4.4 2.94 3.553333 1.04 5.58 1.04zm0-7.76c-.64 0-1.226667-.106667-1.76-.32s-.986667-.573333-1.36-1.08-.666667-1.186667-.88-2.04-.32-1.92-.32-3.2c0-1.333333.106667-2.446667.32-3.34s.506667-1.606667.88-2.14.826667-.906667 1.36-1.12 1.12-.32 1.76-.32 1.233333.106667 1.78.32 1.02.586667 1.42 1.12.713333 1.246667.94 2.14.34 2.006667.34 3.34c0 1.28-.113333 2.346667-.34 3.2s-.54 1.533333-.94 2.04-.873333.866667-1.42 1.08-1.14.32-1.78.32z"/></g></g></svg>