<svg height="267" viewBox="0 0 312 267" width="312" xmlns="http://www.w3.org/2000/svg" xmlns:xlink="http://www.w3.org/1999/xlink"><linearGradient id="a" x1="50%" x2="64.605575%" y1="0%" y2="91.790386%"><stop offset="0" stop-color="#fde765"/><stop offset="1" stop-color="#f9ca35"/></linearGradient><g fill="none" fill-rule="evenodd"><circle cx="160.5" cy="127.5" fill="url(#a)" r="127.5"/><g fill="#fff"><path d="m187.652979 22.1390393c-.387826.2322251-.443609 1.2318288-.443609 1.2318288l1.114777 50.2905047c-.402878.1073857-.841469.2789661-1.297179.5694694-1.335549.8522812-2.063976 1.3392144-2.428485 3.1647705-.363919 1.8258519.364509 4.1386371.364509 5.1125036 0 .9738666-1.457446 6.6945931-2.429076 9.1289637-.261207.6546678-.554289 1.766982-.842355 3.0411143-.57554-1.2371537-1.125107-2.3515387-1.432653-2.8822546-.759418-1.3114066-1.055157-3.7653018-1.435604-6.3035081-.379561-2.5385021-2.15193-5.2033229-2.15193-5.2033229s0-1.5232196-.253533-2.1157636c-.252353-.5922481-1.518837-1.7344409-2.489876-2.1154677-.97045-.3804351-2.996352-1.8190478-4.093421-2.1997788-1.097363-.3807309-2.574288-1.6921375-2.996351-1.9039505-.422358-.2115172-.464269-.9303798-.506771-1.3957177-.041911-.4656336-.505885-.507937-.505885-.507937s.33765-3.3422675.505885-4.3152466c.16912-.972979.296034-1.8613512.675596-2.2843856.379857-.4233302.801624-1.3540059.801624-1.3540059s.63339.0849027.97104-.1272061c.337355-.2112214.295149-1.3111108.6328-2.495607.337355-1.1847921-.295445-1.2691032-.295445-1.2691032s.379857-2.0731643.46427-3.1307502c.084412-1.0581776.16853-2.8343304.295739-4.3998534.126324-1.5652272-.295739-4.2729431-.928834-5.3308249-.633094-1.0578818-1.941194-1.4383169-2.532377-1.5226279-.590298-.0849027-.928244-.592544-3.249295-.6348474-2.321641-.0423035-4.220629 1.2691031-4.727399 1.7767444-.506476.5076412-1.983106 1.7344409-2.194728 2.5382063-.211031.8040611-.84383.9735707-1.223687 1.4386127-.379561.4653378-1.182071 1.8613513-1.435309 2.3266891-.252352.4653378-.042206 1.8193436-.211032 2.2426739-.168825.4227385-.084117 1.6918417-.084117 1.6918417-.253533.6348474.042797 1.7347367.042797 1.7347367s0 .0843111.083822.3384276c.084412.2538206.548387 1.649834.886037 2.3269849.338241.6765592.717802 1.946254 1.012951 2.1574753.295739.2112214.295739 1.2267997.253828 1.734441-.042206.5076412-.211622.8460688-.507361 1.1424886-.295149.2961241-.590593.3384276-.843831.465042-.253237.1272062-1.382477.0804653-2.17141-.1304602-.788933-.2103339-2.366504-.6848424-3.155437-1.4755913-.788638-.790453-1.366539-.3159445-3.364698-.8434063-1.997862-.5268701-2.892164 1.4232297-2.892164 1.4232297s-.051946.0526574-.735806.3162404c-.684155.2635829-3.365583 1.4758871-4.522271 2.2660443-1.156689.7910447-4.101389 4.5323844-5.467929 4.9542355-1.36772.4218511-3.62856 1.7918316-5.258668 2.6349421-1.629517.8434063-3.996021 2.2136827-6.099252 3.7419314-2.102936 1.5282487-2.471872 3.425691-2.997237 4.479727-.525365 1.0540361-.105368 2.4243125.420587 2.6875996.525956.2638788 1.735181 1.5285445 3.890948 4.0055143 2.156063 2.4769699 5.521056 4.3744122 7.624287 5.4811057 2.103526 1.1066934 7.150867 3.2147654 7.519213 3.5313016.368051.3159446.999079 1.3702764 1.524739 2.3187018.525956.948425 2.629482 2.108072 2.629482 2.108072s-1.262352.684842-.526841 1.264962l1.210406.948425s.209851 1.212304.682974 1.422934c.473419.210925 1.314889.210925 1.314889.210925s-.473124.790749-.946543 1.739174c-.473419.948722-1.788307 4.005219-2.155767 5.112208-.368051 1.10699.262682 2.265749.52566 3.161812.262977.895768-.578492 2.740849-1.630108 5.481106-1.051615 2.740849-2.366504 6.69341-2.523523 9.117722-.157904 2.424608-.736101 4.374117-1.577866 6.376874-.841469 2.002461-2.680837 7.589177-3.364992 9.223037-.683565 1.633859-.788933 4.742718-.630734 6.11329.15702 1.369981-.578491 2.26634-.68386 2.951183-.105073.685138-.105073 2.05571-.788933 3.26831-.683269 1.211713-2.102935 1.843898-2.41845 4.795672-.315809 2.950886-1.419961 7.483567-2.734259 11.436424-1.314298 3.952265-3.628266 11.752664-5.048522 14.861819-1.418486 3.110042-2.312787 6.587799-2.312787 7.325594 0 .737796-.578787 2.318702-.36805 3.899904.210146 1.581498 1.104742 1.106694 1.104742 1.106694s.209851-.210926 0 .264174c-.211327.474213-1.415829 3.214766-1.153147 4.162895.262683.948721.473419 2.424904.368346 2.741145-.026268.076915-.051946.172763-.053422.272457-.132522.52125-.300166 1.052261-.504409 1.509908-.586756 1.315548-2.340236 4.838566-2.340236 4.838566l-5.560901 3.513257c-1.166133.735724-2.046562 4.102841-2.046562 4.102841s.726066 1.177101 2.046562 1.177101c1.320497 0 16.381945-.146731 20.327791-.588107 3.947026-.441375 5.561195-.735724 5.993884-.735724 1.899873 0 .702159-3.947237.733445-5.713035.030695-1.764616-1.01974-4.1555-1.01974-4.985298 0-.9573-.127799-2.104226-.263863-3.056497.752039-1.456067.63339-3.416225.301642-4.604863-.367755-1.317323 1.048074-1.68622.679433-2.846163-.367756-1.159351-.210146-3.109155-.052537-3.583367.1582-.474509 2.839333-4.216145 3.365583-5.270181.525365-1.054627.788343-4.005218.998489-4.84892s1.630107-3.425691 1.524739-5.533467c-.104778-2.108072.420883-9.117723.420883-9.117723s1.57757-2.898525 2.208304-5.375495c.631323-2.476969.946837-5.481401 1.156983-6.271262.210737-.791637 1.419371-.949609 2.418155-1.687109.999965-.737795 2.471872-3.688682 2.839923-5.217818.368051-1.527657 3.049478-6.587503 3.365288-7.64154.315219-1.054331 2.629481-2.898525 2.629481-2.898525s.367756 3.425691.367756 4.426774-.315809 4.110534-.315809 4.74331c0 .632481.263567 3.004432-.420588 5.481106-.683269 2.477265.262978 6.218901.262978 8.06339 0 1.844785-.105073 3.21447-.262978 5.006893-.157314 1.792423-.104778 4.638587 0 7.062012.105368 2.424904.052832 13.650106-.210146 16.12678-.262977 2.477266.15761 13.228256.105368 14.546171-.052536 1.317323 1.051321 3.794293 1.051321 3.794293s-.262388 1.00197-.157905 2.108368c.105368 1.106397.578787 5.059846.631029 6.535437.041025 1.143968.587346 1.083915 1.124812 1.024157.155839-.017454.311087-.034612.452758-.023074.631029.052066 7.256236.526574 16.090338.052066 8.222258-.440785 14.162129-1.611969 16.217251-2.11251l.029515 1.343652 3.185247.7446-4.507219-141.2272183c.202768-.5040914.40524-.8670726.595611-.9436921.606826-.2431708.485225-1.3389186.485225-1.3389186s-.242613-.7298083.121601-1.4602082c.364509-.7306958-.364214-.9738666-.364214-.9738666s.121601-.7303999.242613-1.2173332c.121601-.4869333-.242613-.7303999-.242613-.7303999s.364214-.7303999.242613-1.5823853c-.121602-.8519853-.850324-.9738665-1.335254-.9738665-.011511 0-.028334-.0005917-.039845-.0005917l-.532154-16.6687379c.640178.7351332 1.322858 1.7341451 1.710683 2.9565074.53363 1.6806002 1.464529 2.692037 5.747435 4.5078307 3.247818 1.3770805 1.498766 6.5111795 5.871397 8.7650949 3.895375 2.0077863 9.744341 7.5131498 9.744341 7.5131498 1.225753-6.0067924.125733-8.2642577.749383-13.7743545.64372-5.6766481 1.666411-13.1072618 1.685005-13.2436386v-.0023666c-.023612-.0331328-1.717471-2.3823048-6.236791-4.8989156-4.550606-2.5340647-2.359126-7.9403258-8.764447-11.1506539-6.405321-3.2097363-2.022951-8.1089478-5.056786-10.8122263-2.32843-2.0743476-5.368463-3.7232942-6.661216-4.3803287-.086183-.1730595-.232282-.3085488-.479026-.2390292-.091496-.0446701-.149641-.0721821-.149641-.0721821zm-45.806519 72.5551297c-1.104447-1.1066935-2.103231-2.3713592-2.997828-3.00384-.893415-.6324807-3.312456-1.9500997-5.204655-3.8472462-1.893381-1.8974423-4.417199-5.6920312-4.417199-5.6920312s2.576355-.790453 4.101684-1.4755912c1.524149-.6851382 4.153926-1.8971465 5.046752-2.371655.894596-.4745085 1.525329-1.2646657 1.945621-.4745085.421178.7907489 1.157279 3.6895698 2.208599 6.1665396 1.051616 2.4766741 1.419666 7.1673266 1.472498 8.3269733.052832 1.1593509.210736 3.8469504.210736 3.8469504s-1.262056-.3688978-2.366208-1.4755912zm43.652227 10.679991c.441247-1.031257 1.340566-2.638196 2.499911-8.8680431.338831-1.816977.553995-3.8951704.706587-5.6875937l2.77617 125.2054568c-1.268845-.274529-2.832544-.111528-3.731863-.219505-1.314298-.158268-3.575433-2.688191-5.626128-4.374412-2.050695-1.686813-6.414766-3.373625-7.151458-3.636617-.736101-.262991-1.839663-2.319293-1.787422-2.687895.052537-.369194.421178-.157972 1.262057-.526279.841175-.368897 1.629812-1.686812 1.577571-3.162995-.053422-1.475591-.420882-5.006597-.210146-8.695575.210146-3.689274.683565-17.602372.735806-18.815268.052832-1.211417-.210441-2.266044-.894006-3.53071-.68386-1.26437.526251-2.740553.841765-3.425691.314924-.684842.105073-1.370868 0-2.055415-.105368-.684546.105073-2.266636.209851-4.795375.105073-2.530219.36805-12.227765.36805-14.124615 0-1.897443.229331-9.162984-.235233-11.109534-.463679-1.946254-.717507-5.415136-.80192-5.838466-.084412-.423035-.084412-1.226504-.042206-2.199483.042206-.973571-.042206-1.819344-.295149-2.496199-.253533-.677447-.675596-1.354302-.675596-1.354302s-.126324-2.241786-.083822-3.511185c.022431-.6949.045748-1.50192.061981-2.092097l-.076739-.072774s.044273-4.787684.044273-6.738376c0-1.627351.02981-3.618275-.036894-5.188235-.093857-.893697-.231101-1.911347-.435049-2.931362-.578492-2.8985254-.631029-4.7430144-.735807-5.4284485-.105368-.6851382-.211031-1.5285445-.211031-1.5285445s.736987 2.0027572 2.103526 3.689274c1.095888 1.352527 1.85324 2.871605 2.246378 3.638983.407601.619169 1.085558 1.370277 1.359456 1.763136.309612.443151.574655 1.107877.929424 1.28567.353589.177497 1.636011 1.196921 2.786501 1.196921 1.14931 0 2.299505-1.108173 2.521162-1.684446z"/><path d="m133.949243 219.047784c-8.118619.476633-39.1607457 2.382795-48.2347577 2.382795-9.0740121 0-12.4167766 4.76485-22.9231373 8.577174-10.5067312 3.811954-17.6699568 3.335691-22.9235078 3.335691-5.2531803 0-5.7308769 0-16.2372376 3.335321-10.5067313 3.335691-23.6306026 10.959969-23.6306026 10.959969v19.361266h312v-9.354933s-7.080583-4.76485-12.333763-6.670642c-5.25281-1.906162-11.939451-5.718486-14.327193-8.100911-2.388112-2.382425-5.25318-3.335691-12.894473-5.241853-7.641663-1.906162-25.788576-3.811954-29.131711-3.811954-3.342764 0-10.984057-3.811954-14.327192-7.147645-3.342765-3.335321-23.87816-7.624278-29.609407-9.053068-1.816656-.453337-3.249004-.618994-4.75436-.618994-3.243075 0-6.82302.76986-15.303339 1.094888-12.416777.476263-37.2507.476633-45.369319.952896z"/></g></g></svg>