<svg height="431" viewBox="0 0 475 431" width="475" xmlns="http://www.w3.org/2000/svg" xmlns:xlink="http://www.w3.org/1999/xlink"><linearGradient id="a" x1="47.205678%" x2="66.163622%" y1="-48.596354%" y2="60.425403%"><stop offset="0" stop-color="#80c3f3"/><stop offset=".236195528" stop-color="#7ec1f2"/><stop offset="1" stop-color="#4a90e2"/></linearGradient><linearGradient id="b" x1="50%" x2="42.649456%" y1="75.657519%" y2="4.872297%"><stop offset="0" stop-color="#da3e3f"/><stop offset="1" stop-color="#ff5254"/></linearGradient><g fill="none" fill-rule="evenodd" transform="translate(0 -2)"><ellipse cx="142" cy="413" fill="#000" opacity=".05" rx="142" ry="20"/><ellipse cx="334" cy="378" fill="#000" opacity=".05" rx="118" ry="15"/><path d="m274 71.9997643c0 2.7598398 2.239404 5.0002357 5.001414 5.0002357 2.760125 0 4.998586-2.2403959 4.998586-5.0002357 0-2.7610181-2.238461-4.9997643-4.998586-4.9997643-2.76201 0-5.001414 2.2387462-5.001414 4.9997643" fill="#10437f"/><g transform="matrix(.9961947 -.08715574 .08715574 .9961947 235.618242 19.451803)"><path d="m199.913355.26172088v215.51316912h-163.5618531c-8.63005 18.929909-16.4023745 25.70268-16.4023745 25.70268 2.6332536-21.09101-18.5321241-25.70268-18.5321241-25.70268v-215.51316912z" fill="#2b6ab4"/><path d="m19.9491534 241.477675h198.4955706v-215.5134301h-198.4955706z" fill="url(#a)"/><g fill="#10437f"><path d="m38.1233493 14.456657h.0788026v11.3377611h-17.3885768s17.0855901-4.9702454 17.3097742-11.3377611"/><path d="m167.128995 58.9121033c0 3.053758 2.472268 5.5327523 5.51956 5.5327523 3.044692 0 5.515139-2.4789943 5.515139-5.5327523 0-3.055062-2.470447-5.5322308-5.515139-5.5322308-3.047292 0-5.51956 2.4771688-5.51956 5.5322308"/><path d="m218.444672 25.9642971h-30.734556v-12.4322635c1.2585 4.4317305 8.91041 9.0848649 30.734556 12.4322635"/></g><path d="m37.3376261.26057344h162.0461389s-13.634922 6.363604-11.673701 13.27146016v12.4322635h-150.3724379v-11.3377611h-.0788026c.1531839-4.5091828-8.1369488-9.72013003-37.03147869-14.36596256z" fill="#4a90e2"/><path d="m74.8437147 62.2953855v31.6365157c0 18.7679638 21.1279269 34.0391008 47.0932383 34.0391008 25.962711 0 47.090898-15.271137 47.090898-34.0391008v-31.6365157h7.037614v31.6365157c0 22.6603968-24.281329 41.0948208-54.128512 41.0948208-29.849523 0-54.1305925-18.434424-54.1305925-41.0948208v-31.6365157z" fill="#10437f"/><path d="m74.8437147 58.7682037v31.6359941c0 18.7690072 21.1279269 34.0370142 47.0932383 34.0370142 25.962711 0 47.090898-15.268007 47.090898-34.0370142v-31.6359941h7.037614v31.6359941c0 22.6598752-24.281329 41.0950812-54.128512 41.0950812-29.849523 0-54.1305925-18.435206-54.1305925-41.0950812v-31.6359941z" fill="#f2f8ef"/></g><path d="m224 263.500118c0 4.141863-3.358149 7.499882-7.499882 7.499882-4.142204 0-7.500118-3.358019-7.500118-7.499882 0-4.142099 3.357914-7.500118 7.500118-7.500118 4.141733 0 7.499882 3.358019 7.499882 7.500118" fill="#751323"/><path d="m218 134.499882c0 4.142099-3.358019 7.500118-7.499647 7.500118-4.142805 0-7.500353-3.358019-7.500353-7.500118s3.357548-7.499882 7.500353-7.499882c4.141628 0 7.499647 3.357783 7.499647 7.499882" fill="#751323"/><path d="m250 48v246.591115h-187.0492572c-9.8690009 21.65909-18.7573782 29.408885-18.7573782 29.408885 3.0102978-24.132358-21.1933646-29.408885-21.1933646-29.408885v-246.591115z" fill="#c43738"/><path d="m44 324h227v-246h-227z" fill="url(#b)"/><g fill="#ad2425"><path d="m212 115.499392c0 3.588412 2.911685 6.500608 6.502795 6.500608 3.586735 0 6.497205-2.912196 6.497205-6.500608 0-3.588897-2.91047-6.499392-6.497205-6.499392-3.59111 0-6.502795 2.910495-6.502795 6.499392"/><path d="m96 115.499392c0 3.588412 2.9111734 6.500608 6.500851 6.500608 3.589191 0 6.499149-2.912196 6.499149-6.500608 0-3.588897-2.909958-6.499392-6.499149-6.499392-3.5896776 0-6.500851 2.910495-6.500851 6.499392"/><path d="m271 77h-35v-14c1.433016 4.9901982 10.14742 10.229918 35 14"/></g><path d="m63.4848858 48h185.5151142s-15.609821 7.1796252-13.36419 14.9735999v14.0264001h-172.1509242v-12.7916325h-.0909402c.1757389-5.0877561-9.3148718-10.9667906-42.3939456-16.2083675z" fill="#e74849"/><path d="m63.9086368 65h.0913632v13h-20s19.6511587-5.6991533 19.9086368-13" fill="#ad2425"/><path d="m107.060447 119v36.10295c0 21.417976 24.199773 38.844503 53.940498 38.844503 29.738598 0 53.938372-17.426527 53.938372-38.844503v-36.10295h8.060683v36.10295c0 25.859661-27.812287 46.89705-61.999055 46.89705-34.189604 0-62.000945-21.037389-62.000945-46.89705v-36.10295z" fill="#ad2425"/><path d="m107.060447 115v36.102313c0 21.419104 24.199773 38.843418 53.940498 38.843418 29.738598 0 53.938372-17.424314 53.938372-38.843418v-36.102313h8.060683v36.102313c0 25.859411-27.812287 46.897687-61.999055 46.897687-34.189604 0-62.000945-21.038276-62.000945-46.897687v-36.102313z" fill="#f2f8ef"/></g></svg>