<?xml version="1.0" encoding="UTF-8"?>
<svg width="270px" height="278px" viewBox="0 0 270 278" version="1.1" xmlns="http://www.w3.org/2000/svg" xmlns:xlink="http://www.w3.org/1999/xlink">
    <!-- Generator: Sketch 63.1 (92452) - https://sketch.com -->
    <title>img_pay_mob</title>
    <desc>Created with Sketch.</desc>
    <defs>
        <filter x="-8.7%" y="-158.5%" width="117.4%" height="416.9%" filterUnits="objectBoundingBox" id="filter-1">
            <feGaussianBlur stdDeviation="2.64107143" in="SourceGraphic"></feGaussianBlur>
        </filter>
        <filter x="-8.7%" y="-70.4%" width="117.4%" height="240.9%" filterUnits="objectBoundingBox" id="filter-2">
            <feGaussianBlur stdDeviation="2.11285714" in="SourceGraphic"></feGaussianBlur>
        </filter>
        <filter x="-8.7%" y="-165.1%" width="117.4%" height="430.1%" filterUnits="objectBoundingBox" id="filter-3">
            <feGaussianBlur stdDeviation="3.30133929" in="SourceGraphic"></feGaussianBlur>
        </filter>
        <linearGradient x1="82.0661083%" y1="3.36130428%" x2="34.9816642%" y2="105.628734%" id="linearGradient-4">
            <stop stop-color="#FACF00" offset="0%"></stop>
            <stop stop-color="#F2A100" offset="100%"></stop>
        </linearGradient>
        <linearGradient x1="50%" y1="0%" x2="50%" y2="100%" id="linearGradient-5">
            <stop stop-color="#FFF400" offset="0%"></stop>
            <stop stop-color="#FFE600" offset="100%"></stop>
        </linearGradient>
        <linearGradient x1="50%" y1="0%" x2="62.8230616%" y2="91.7903857%" id="linearGradient-6">
            <stop stop-color="#FCE141" offset="0%"></stop>
            <stop stop-color="#EFBE23" offset="100%"></stop>
        </linearGradient>
        <path d="M11.0854644,13.279382 C1.27078887,24.097929 -2.65003092,36.5592862 2.3296964,41.1125069 L2.3296964,41.1125069 C7.30774025,45.6657276 19.0584153,40.3620874 28.8730908,29.5418503 L28.8730908,29.5418503 C38.6877664,18.7233032 42.84764,6.48166347 37.8712797,1.9301329 L37.8712797,1.9301329 C36.63224,0.796053063 34.9588631,0.260280619 32.992561,0.260280619 L32.992561,0.260280619 C27.0583018,0.260280619 18.4574137,5.14983797 11.0854644,13.279382 L11.0854644,13.279382 Z" id="path-7"></path>
        <path d="M11.0854644,13.279382 C1.27078887,24.097929 -2.65003092,36.5592862 2.3296964,41.1125069 L2.3296964,41.1125069 C7.30774025,45.6657276 19.0584153,40.3620874 28.8730908,29.5418503 L28.8730908,29.5418503 C38.6877664,18.7233032 42.84764,6.48166347 37.8712797,1.9301329 L37.8712797,1.9301329 C36.63224,0.796053063 34.9588631,0.260280619 32.992561,0.260280619 L32.992561,0.260280619 C27.0583018,0.260280619 18.4574137,5.14983797 11.0854644,13.279382 L11.0854644,13.279382 Z" id="path-9"></path>
        <linearGradient x1="0%" y1="41.4192081%" x2="91.3469267%" y2="61.4402667%" id="linearGradient-11">
            <stop stop-color="#FACF00" offset="0%"></stop>
            <stop stop-color="#F2A100" offset="100%"></stop>
        </linearGradient>
        <linearGradient x1="50%" y1="41.989936%" x2="64.6055751%" y2="56.6948733%" id="linearGradient-12">
            <stop stop-color="#FDE765" offset="0%"></stop>
            <stop stop-color="#F9CA35" offset="100%"></stop>
        </linearGradient>
        <linearGradient x1="16.8145502%" y1="42.0047409%" x2="64.6055751%" y2="56.6824992%" id="linearGradient-13">
            <stop stop-color="#FCE141" offset="0%"></stop>
            <stop stop-color="#EFBE23" offset="100%"></stop>
        </linearGradient>
        <path d="M0.174607948,2.25294848 C-0.758038751,5.16842944 8.34284222,10.553196 20.4436806,14.454025 L20.4436806,14.454025 C32.544519,18.3548541 43.0662553,19.2945685 43.998902,16.3807777 L43.998902,16.3807777 C44.9315487,13.4652967 35.8778051,7.93855889 23.7735997,4.03772987 L23.7735997,4.03772987 C16.586833,1.71886617 9.94046265,0.496899364 5.53311778,0.496899364 L5.53311778,0.496899364 C2.51969252,0.496899364 0.553390453,1.06816462 0.174607948,2.25294848 L0.174607948,2.25294848 Z" id="path-14"></path>
        <path d="M0.174607948,2.25294848 C-0.758038751,5.16842944 8.34284222,10.553196 20.4436806,14.454025 L20.4436806,14.454025 C32.544519,18.3548541 43.0662553,19.2945685 43.998902,16.3807777 L43.998902,16.3807777 C44.9315487,13.4652967 35.8778051,7.93855889 23.7735997,4.03772987 L23.7735997,4.03772987 C16.586833,1.71886617 9.94046265,0.496899364 5.53311778,0.496899364 L5.53311778,0.496899364 C2.51969252,0.496899364 0.553390453,1.06816462 0.174607948,2.25294848 L0.174607948,2.25294848 Z" id="path-16"></path>
        <linearGradient x1="0%" y1="42.9103568%" x2="91.3469267%" y2="59.4522057%" id="linearGradient-18">
            <stop stop-color="#FACF00" offset="0%"></stop>
            <stop stop-color="#F2A100" offset="100%"></stop>
        </linearGradient>
        <polygon id="path-19" points="0 0.453398279 60.0429117 0.453398279 60.0429117 21.4272214 0 21.4272214"></polygon>
        <linearGradient x1="50%" y1="43.8990714%" x2="64.6055751%" y2="55.0992031%" id="linearGradient-21">
            <stop stop-color="#FDE765" offset="0%"></stop>
            <stop stop-color="#F9CA35" offset="100%"></stop>
        </linearGradient>
        <linearGradient x1="12.7339944%" y1="50%" x2="113.113027%" y2="51.9217517%" id="linearGradient-22">
            <stop stop-color="#FCE141" offset="0%"></stop>
            <stop stop-color="#EFBE23" offset="100%"></stop>
        </linearGradient>
        <path d="M21.2839729,2.5297038 C8.96764936,5.67842324 -0.407638498,10.6372761 0.344876077,13.6051512 L0.344876077,13.6051512 C1.09739065,16.5730263 11.6561634,16.2806331 23.972487,13.1319137 L23.972487,13.1319137 C36.2888105,9.98319426 45.7011349,5.1680028 44.9503038,2.20181782 L44.9503038,2.20181782 C44.5883561,0.77534482 41.9537133,0.0671787199 37.9470362,0.0688658357 L37.9470362,0.0688658357 C33.6154478,0.0688658357 27.6811886,0.893654193 21.2839729,2.5297038 L21.2839729,2.5297038 Z" id="path-23"></path>
        <path d="M21.2839729,2.5297038 C8.96764936,5.67842324 -0.407638498,10.6372761 0.344876077,13.6051512 L0.344876077,13.6051512 C1.09739065,16.5730263 11.6561634,16.2806331 23.972487,13.1319137 L23.972487,13.1319137 C36.2888105,9.98319426 45.7011349,5.1680028 44.9503038,2.20181782 L44.9503038,2.20181782 C44.5883561,0.77534482 41.9537133,0.0671787199 37.9470362,0.0688658357 L37.9470362,0.0688658357 C33.6154478,0.0688658357 27.6811886,0.893654193 21.2839729,2.5297038 L21.2839729,2.5297038 Z" id="path-25"></path>
        <linearGradient x1="19.2593657%" y1="6.0856197%" x2="67.9034713%" y2="99.1847331%" id="linearGradient-27">
            <stop stop-color="#FDE765" offset="0%"></stop>
            <stop stop-color="#F9CA35" offset="100%"></stop>
        </linearGradient>
        <linearGradient x1="50%" y1="1.10799344%" x2="64.6055751%" y2="90.8643162%" id="linearGradient-28">
            <stop stop-color="#FCE141" offset="0%"></stop>
            <stop stop-color="#EFBE23" offset="100%"></stop>
        </linearGradient>
        <path d="M0.247234365,31.3571346 C0.247234365,48.5914298 14.1662288,61.7288406 31.3326519,61.7288406 L31.3326519,61.7288406 C48.5007585,61.7288406 62.4180694,48.5914298 62.4180694,31.3571346 L62.4180694,31.3571346 C62.4180694,14.1211491 48.5007585,0.147122131 31.3326519,0.147122131 L31.3326519,0.147122131 C14.1662288,0.147122131 0.247234365,14.1211491 0.247234365,31.3571346 L0.247234365,31.3571346 Z" id="path-29"></path>
        <path d="M0.0420869449,31.2687405 C0.0420869449,48.5030358 13.9610814,61.6404465 31.1275045,61.6404465 L31.1275045,61.6404465 C48.2956111,61.6404465 62.212922,48.5030358 62.212922,31.2687405 L62.212922,31.2687405 C62.212922,14.0327551 48.2956111,0.0587280504 31.1275045,0.0587280504 L31.1275045,0.0587280504 C13.9610814,0.0587280504 0.0420869449,14.0327551 0.0420869449,31.2687405 L0.0420869449,31.2687405 Z" id="path-31"></path>
        <linearGradient x1="0%" y1="37.0272729%" x2="91.3469267%" y2="67.2957765%" id="linearGradient-33">
            <stop stop-color="#FACF00" offset="0%"></stop>
            <stop stop-color="#F2A100" offset="100%"></stop>
        </linearGradient>
        <linearGradient x1="0%" y1="35.9538123%" x2="91.2186557%" y2="64.0461877%" id="linearGradient-34">
            <stop stop-color="#DB8F00" offset="0%"></stop>
            <stop stop-color="#C98300" offset="100%"></stop>
        </linearGradient>
    </defs>
    <g id="Page-1" stroke="none" stroke-width="1" fill="none" fill-rule="evenodd">
        <g id="Mobile---Amazon-SEO" transform="translate(-54.000000, -3445.000000)">
            <g id="img_pay_mob" transform="translate(58.000000, 3445.000000)">
                <ellipse id="Oval-4-Copy" fill="#000000" opacity="0.1" filter="url(#filter-1)" cx="215.5" cy="265.5" rx="45.5" ry="2.5"></ellipse>
                <ellipse id="Oval-4-Copy-3" fill-opacity="0.6" fill="#000000" opacity="0.1" filter="url(#filter-2)" cx="36.5" cy="268.5" rx="36.5" ry="4.5"></ellipse>
                <ellipse id="Oval-4-Copy-2" fill="#000000" opacity="0.1" filter="url(#filter-3)" cx="122" cy="254" rx="57" ry="3"></ellipse>
                <g id="Group-17">
                    <g id="Group-5" transform="translate(190.869583, 133.726814)">
                        <path d="M49.0519291,4.11581405 C41.0655104,3.89102624 29.267698,10.4926892 19.2055512,21.5850379 C9.14508792,32.6773867 3.69903724,45.0863497 4.66703697,53.0485705 L2.98355918,54.9043375 L11.8773724,63.0372618 C18.5052245,69.0963918 34.1851367,62.2817719 47.5738356,47.5201425 C60.9625345,32.7602032 66.2587557,16.4504112 59.6292201,10.3912812 L50.7354069,2.2583569 L49.0519291,4.11581405 Z" id="Fill-21" fill="url(#linearGradient-4)"></path>
                        <path d="M46.4560063,10.3267181 C51.4811876,14.920502 47.2809105,27.2753807 37.3753271,38.1970259 C27.4697437,49.116981 15.6096427,54.469635 10.582778,49.874161 C5.55928021,45.2803771 9.51545303,32.7024007 19.4193529,21.7807555 C29.3266198,10.8608004 41.4308251,5.73124402 46.4560063,10.3267181" id="Fill-23" fill="#FFC30D"></path>
                        <path d="M38.6796857,39.3882323 C25.2909868,54.1481716 9.61107457,60.9644815 2.98322248,54.9053516 C-3.69513394,48.7988978 1.58088548,32.0226288 14.7456819,17.5077589 C27.9121617,2.99288909 44.0550303,-3.84708276 50.7350702,2.25937099 C57.3629223,8.31850098 52.0667011,24.628293 38.6796857,39.3882323" id="Fill-25" fill="url(#linearGradient-5)"></path>
                        <path d="M16.4328633,19.0496681 C5.0895899,31.5549688 0.542516371,46.0106839 6.29664348,51.2720707 C11.9750141,56.4607818 25.4563043,50.5639046 36.9931776,37.8473372 C48.5283675,25.1290797 53.1192115,11.1009684 47.4425243,5.91056723 C41.6867137,0.649180427 27.7761367,6.5426773 16.4328633,19.0496681" id="Fill-27" fill="#F0A700"></path>
                        <path d="M16.9409369,19.5134408 C5.87712082,31.7111371 1.44115682,45.810234 7.0538718,50.9397904 C12.5908303,56.0017414 25.7421588,50.2519059 36.9928409,37.8463232 C48.2452065,25.4424305 52.721574,11.7607967 47.1846155,6.69884568 C41.5719006,1.56759918 28.0030695,7.31574455 16.9409369,19.5134408" id="Fill-29" fill="url(#linearGradient-6)"></path>
                        <g id="Group-34" opacity="0.326004464" style="mix-blend-mode: multiply;" transform="translate(6.733911, 7.037718)">
                            <mask id="mask-8" fill="white">
                                <use xlink:href="#path-7"></use>
                            </mask>
                            <g id="Clip-33"></g>
                            <polygon id="Fill-32" fill="#FFDD00" mask="url(#mask-8)" points="9.1728653 47.1969889 4.67461262 49.1034599 22.1019748 -6.29912901 26.6002275 -8.20390991"></polygon>
                        </g>
                        <g id="Group-37" opacity="0.326004464" style="mix-blend-mode: multiply;" transform="translate(6.733911, 7.037718)">
                            <mask id="mask-10" fill="white">
                                <use xlink:href="#path-9"></use>
                            </mask>
                            <g id="Clip-36"></g>
                            <polygon id="Fill-35" fill="#FFDD00" mask="url(#mask-10)" points="21.2218526 46.0968808 10.6647633 50.5706652 29.4759442 -9.2414831 40.0364005 -3.21277551"></polygon>
                        </g>
                    </g>
                    <g id="Group-4" transform="translate(158.246913, 8.450669)">
                        <path d="M60.8201808,87.9316221 C57.3320148,83.915864 47.2968037,78.6291252 34.8895723,74.6285782 C22.4840244,70.6297215 11.256911,69.0612772 6.09200111,70.2900045 L4.01627298,69.6207115 L0.507905251,80.5879903 C-0.732817885,84.4685378 11.2249249,91.6769588 27.7347917,96.9991904 C44.242975,102.321422 58.1468181,103.450431 59.3875412,99.5681939 L62.8959089,88.6009151 L60.8201808,87.9316221 Z" id="Fill-39" fill="url(#linearGradient-11)"></path>
                        <path d="M55.2601587,87.2119631 C54.3190946,90.1544862 43.7014001,89.2063211 31.4860852,85.2683091 C19.2724538,81.3302971 10.087399,75.8965167 11.0301465,72.9523035 C11.9695271,70.0097803 22.634359,70.8176643 34.8496739,74.7539862 C47.0633053,78.6919981 56.2029063,84.26944 55.2601587,87.2119631" id="Fill-41" fill="#FFC30D"></path>
                        <path d="M31.242486,86.0319116 C14.7326192,80.70968 2.77487645,73.5012589 4.01559959,69.6207115 C5.26474012,65.7097417 19.491811,66.7846669 35.7239039,72.0173214 C51.9576803,77.251666 64.147743,84.6899453 62.896919,88.6009151 C61.6545124,92.4814625 47.7506693,91.3524531 31.242486,86.0319116" id="Fill-43" fill="url(#linearGradient-12)"></path>
                        <path d="M35.4085885,73.0052046 C21.4205715,68.4959274 9.16485313,67.569734 8.08742734,70.9381709 C7.02346937,74.2626643 17.3330874,80.4586951 31.5584748,85.0440283 C45.7821787,89.6293616 57.7567563,90.6180899 58.8207142,87.2935966 C59.8998235,83.9234696 49.3966055,77.5127917 35.4085885,73.0052046" id="Fill-45" fill="#F0A700"></path>
                        <path d="M35.3131353,73.3023302 C21.6702313,68.9046018 9.71753889,68.0003802 8.66704874,71.2876906 C7.63002642,74.5293674 17.6837558,80.571596 31.5589798,85.0436903 C45.4325204,89.5174747 57.1108058,90.480851 58.1478282,87.2391742 C59.1983183,83.9518638 48.9560394,77.7000586 35.3131353,73.3023302" id="Fill-47" fill="url(#linearGradient-13)"></path>
                        <g id="Group-52" opacity="0.401841518" style="mix-blend-mode: multiply;" transform="translate(11.374050, 69.778908)">
                            <mask id="mask-15" fill="white">
                                <use xlink:href="#path-14"></use>
                            </mask>
                            <g id="Clip-51"></g>
                            <polygon id="Fill-50" fill="#FFDD00" mask="url(#mask-15)" points="-0.985813297 6.24335459 -4.38307149 4.17125044 42.5943764 7.72391188 45.9882677 9.79601603"></polygon>
                        </g>
                        <g id="Group-55" opacity="0.401841518" style="mix-blend-mode: multiply;" transform="translate(11.374050, 69.778908)">
                            <mask id="mask-17" fill="white">
                                <use xlink:href="#path-16"></use>
                            </mask>
                            <g id="Clip-54"></g>
                            <polygon id="Fill-53" fill="#FFDD00" mask="url(#mask-17)" points="5.29103367 12.1696401 -2.6802337 7.3037446 48.0345349 11.1403485 56.0058023 16.0045539"></polygon>
                        </g>
                        <path d="M28.3031338,42.5209357 C27.8469113,42.5209357 27.4799131,41.388546 27.4799131,39.9924954 L27.4799131,2.63208575 C27.4799131,1.23603516 27.8469113,0.103645449 28.3031338,0.103645449 C28.7593563,0.103645449 29.1280379,1.23603516 29.1280379,2.63208575 L29.1280379,39.9924954 C29.1280379,41.388546 28.7593563,42.5209357 28.3031338,42.5209357" id="Fill-93" fill="#EFF1F4"></path>
                        <path d="M37.4322972,38.3689528 C36.9760747,38.3689528 36.6073931,37.6557163 36.6073931,36.7751565 L36.6073931,14.9098944 C36.6073931,14.0293346 36.9760747,13.314408 37.4322972,13.314408 C37.8885197,13.314408 38.2572013,14.0293346 38.2572013,14.9098944 L38.2572013,36.7751565 C38.2572013,37.6557163 37.8885197,38.3689528 37.4322972,38.3689528" id="Fill-95" fill="#EFF1F4"></path>
                    </g>
                    <g id="Group-14" transform="translate(0.000000, 39.718146)">
                        <path d="M57.8724112,71.9431245 C52.7916752,70.4000323 41.4921722,71.2738315 28.8644053,74.5019872 C16.2366383,77.7301429 5.89671768,82.3898421 2.16949784,86.1841927 L0.0567332018,86.7233454 L2.88834286,97.8883699 C3.89001215,101.836523 17.8376257,101.566101 34.6404176,97.2697809 C51.441526,92.9734605 63.8201383,86.5154589 62.818469,82.565616 L59.9851758,71.4022817 L57.8724112,71.9431245 Z" id="Fill-97" fill="url(#linearGradient-18)"></path>
                        <path d="M52.7825844,74.2983261 C53.5418329,77.2915532 44.0436512,82.1506881 31.6111676,85.32983 C19.1803676,88.5089718 8.52226965,88.8030551 7.76302117,85.8081379 C7.00377268,82.8115305 16.4649179,77.807044 28.8974014,74.6295923 C41.3282015,71.4504505 52.0216525,71.3034088 52.7825844,74.2983261" id="Fill-99" fill="#FFC30D"></path>
                        <g id="Group-103" transform="translate(0.000000, 68.088774)">
                            <mask id="mask-20" fill="white">
                                <use xlink:href="#path-19"></use>
                            </mask>
                            <g id="Clip-102"></g>
                            <path d="M31.8081345,18.0190245 C15.0053427,22.3136547 1.0577291,22.5840761 0.0560598107,18.6342332 C-0.95234339,14.6539679 11.6686897,7.97962914 28.1903408,3.75598455 C44.7136753,-0.467660048 58.9760992,-0.667095847 59.9861859,3.31316947 C60.9878552,7.2647025 48.6109264,13.7227041 31.8081345,18.0190245" id="Fill-101" fill="url(#linearGradient-21)" mask="url(#mask-20)"></path>
                        </g>
                        <path d="M28.4452193,72.8492053 C14.2080476,76.4880636 3.33446447,82.2395892 4.20482249,85.6688708 C5.06171269,89.0525189 17.0750103,88.8023791 31.5529193,85.102676 C46.0308284,81.4012828 56.7007107,75.8508831 55.842137,72.467235 C54.971779,69.0379534 42.682391,69.2086569 28.4452193,72.8492053" id="Fill-104" fill="#F0A700"></path>
                        <path d="M28.5216492,73.1512322 C14.6363243,76.7022035 4.03041419,82.3100678 4.878887,85.6548427 C5.71557547,88.9556742 17.4325809,88.7122949 31.5535927,85.102169 C45.672921,81.4937331 56.0801807,76.0785441 55.2418088,72.7794028 C54.393336,69.4346278 42.4069741,69.6002609 28.5216492,73.1512322" id="Fill-106" fill="url(#linearGradient-22)"></path>
                        <g id="Group-111" opacity="0.398549107" style="mix-blend-mode: multiply;" transform="translate(7.370503, 71.144963)">
                            <mask id="mask-24" fill="white">
                                <use xlink:href="#path-23"></use>
                            </mask>
                            <g id="Clip-110"></g>
                            <polygon id="Fill-109" fill="#FFDD00" mask="url(#mask-24)" points="1.4731429 17.6053601 -2.4998647 17.6594444 39.1779951 -4.38497198 43.1510027 -4.43905626"></polygon>
                        </g>
                        <g id="Group-114" opacity="0.398549107" style="mix-blend-mode: multiply;" transform="translate(7.370503, 71.144963)">
                            <mask id="mask-26" fill="white">
                                <use xlink:href="#path-25"></use>
                            </mask>
                            <g id="Clip-113"></g>
                            <polygon id="Fill-112" fill="#FFDD00" mask="url(#mask-26)" points="9.92672666 19.2774095 0.598576181 19.4075498 45.5945708 -4.39122547 54.9227212 -4.52136578"></polygon>
                        </g>
                        <path d="M28.0260333,42.575358 C27.5698108,42.575358 27.2011292,41.4429683 27.2011292,40.0469177 L27.2011292,2.68650806 C27.2011292,1.29045747 27.5698108,0.15806776 28.0260333,0.15806776 C28.4822558,0.15806776 28.8509374,1.29045747 28.8509374,2.68650806 L28.8509374,40.0469177 C28.8509374,41.4429683 28.4822558,42.575358 28.0260333,42.575358" id="Fill-116" fill="#EFF1F4"></path>
                        <path d="M37.1553651,38.42253 C36.6991426,38.42253 36.330461,37.7092935 36.330461,36.8287338 L36.330461,14.9617815 C36.330461,14.0829119 36.6991426,13.3696754 37.1553651,13.3696754 C37.6115876,13.3696754 37.9802692,14.0829119 37.9802692,14.9617815 L37.9802692,36.8287338 C37.9802692,37.7092935 37.6115876,38.42253 37.1553651,38.42253" id="Fill-118" fill="#EFF1F4"></path>
                    </g>
                    <g id="Group-8" transform="translate(77.439979, 0.000000)">
                        <path d="M73.4462643,157.26514 C73.4462643,174.661688 59.3976421,187.920788 42.0696051,187.920788 C24.7432516,187.920788 10.6963129,174.661688 10.6963129,157.26514 C10.6963129,139.868591 24.7432516,125.764424 42.0696051,125.764424 C59.3976421,125.764424 73.4462643,139.868591 73.4462643,157.26514" id="Fill-1" fill="#FFC30D"></path>
                        <path d="M42.0701102,192.43277 C18.649567,192.43277 0.304709481,174.459886 0.304709481,151.516318 C0.304709481,128.395287 19.0401339,109.584096 42.0701102,109.584096 C65.1000864,109.584096 83.8371943,128.395287 83.8371943,151.516318 C83.8371943,174.459886 65.4906533,192.43277 42.0701102,192.43277" id="Fill-3" fill="url(#linearGradient-27)"></path>
                        <path d="M42.0701102,115.421143 C22.2269574,115.421143 6.08408876,131.629527 6.08408876,151.551135 C6.08408876,171.202322 21.8902618,186.596061 42.0701102,186.596061 C62.2499585,186.596061 78.057815,171.202322 78.057815,151.551135 C78.057815,131.629527 61.9149464,115.421143 42.0701102,115.421143" id="Fill-5" fill="#F0A700"></path>
                        <path d="M42.0701102,117.178882 C22.7168494,117.178882 6.97128156,132.986704 6.97128156,152.416484 C6.97128156,171.580912 22.3885712,186.596061 42.0701102,186.596061 C61.7516491,186.596061 77.1706222,171.580912 77.1706222,152.416484 C77.1706222,132.986704 61.4250544,117.178882 42.0701102,117.178882" id="Fill-7" fill="url(#linearGradient-28)"></path>
                        <g id="Group-12" opacity="0.445145089" style="mix-blend-mode: multiply;" transform="translate(10.737458, 120.070452)">
                            <mask id="mask-30" fill="white">
                                <use xlink:href="#path-29"></use>
                            </mask>
                            <g id="Clip-11"></g>
                            <polygon id="Fill-10" fill="#FFDD00" mask="url(#mask-30)" points="0.395380411 54.7512918 -4.82340076 49.5101866 57.0494587 -12.6073043 62.2699234 -7.3678892"></polygon>
                        </g>
                        <g id="Group-15" opacity="0.445145089" style="mix-blend-mode: multiply;" transform="translate(10.942606, 120.158846)">
                            <mask id="mask-32" fill="white">
                                <use xlink:href="#path-31"></use>
                            </mask>
                            <g id="Clip-14"></g>
                            <polygon id="Fill-13" fill="#FFDD00" mask="url(#mask-32)" points="10.7005216 75.5766145 -1.55351331 63.2741299 65.2468857 -3.78869274 77.5009206 8.51210172"></polygon>
                        </g>
                        <path d="M24.5136253,85.1968164 C23.8974724,85.1968164 23.399163,83.6689354 23.399163,81.782746 L23.399163,3.45349082 C23.399163,1.5673014 23.8974724,0.0394203609 24.5136253,0.0394203609 C25.1280946,0.0394203609 25.6280876,1.5673014 25.6280876,3.45349082 L25.6280876,81.782746 C25.6280876,83.6689354 25.1280946,85.1968164 24.5136253,85.1968164" id="Fill-195" fill="#EFF1F4"></path>
                        <path d="M35.3262665,80.4679908 C34.7118041,80.4679908 34.2118041,79.5046145 34.2118041,78.3164504 L34.2118041,53.6219041 C34.2118041,52.43374 34.7118041,51.4703637 35.3262665,51.4703637 C35.9424193,51.4703637 36.4407288,52.43374 36.4407288,53.6219041 L36.4407288,78.3164504 C36.4407288,79.5046145 35.9424193,80.4679908 35.3262665,80.4679908" id="Fill-197" fill="#EFF1F4"></path>
                        <path d="M46.1399177,85.1968164 C45.5237649,85.1968164 45.0254554,84.2334401 45.0254554,83.045276 L45.0254554,41.0116461 C45.0254554,39.823482 45.5237649,38.8601057 46.1399177,38.8601057 C46.7543871,38.8601057 47.25438,39.823482 47.25438,41.0116461 L47.25438,83.045276 C47.25438,84.2334401 46.7543871,85.1968164 46.1399177,85.1968164" id="Fill-199" fill="#EFF1F4"></path>
                    </g>
                    <g id="Group-9" transform="translate(16.629631, 182.740697)">
                        <path d="M1.69670875,10.7384347 C3.80947338,14.2725047 10.6898471,19.2550194 19.5196882,23.3197914 C28.3495292,27.3862535 36.6002539,29.3687806 40.6456511,28.6707553 L42.1237446,29.3518792 L45.8981018,21.0871245 C47.3290579,17.9569965 39.2449975,11.2657565 27.4976895,5.85732801 C15.7486979,0.447209428 5.42392859,-1.33757196 3.99465594,1.79424614 L0.22029872,10.0590009 L1.69670875,10.7384347 Z" id="Fill-249" fill="url(#linearGradient-33)"></path>
                        <path d="M5.79025336,11.6742618 C6.87441306,9.29962371 14.7480387,10.7345474 23.4398346,14.7367844 C32.1333139,18.7390215 38.3537644,23.7925218 37.2696047,26.1671599 C36.185445,28.5401079 28.257948,27.2201134 19.5661522,23.2195664 C10.8743563,19.2173294 4.70441018,14.0472098 5.79025336,11.6742618" id="Fill-251" fill="#FFC30D"></path>
                        <path d="M23.7224905,14.1203926 C35.4714821,19.5305112 43.553859,26.2200611 42.1229028,29.3518792 C40.6818458,32.5073592 30.1096053,30.7462397 18.5575806,25.4273883 C7.00387251,20.108537 -1.22160001,13.2144808 0.219456981,10.0590009 C1.65041311,6.92718276 11.973499,8.71196415 23.7224905,14.1203926" id="Fill-253" fill="#F2A500"></path>
                        <path d="M18.9210435,24.6309972 C28.8754477,29.2146404 37.9847461,30.7306905 39.2271527,28.011265 C40.4527245,25.3290225 33.481443,19.579187 23.358691,14.9177978 C13.2342555,10.2564085 4.34549272,8.70655573 3.11992088,11.3887982 C1.87751426,14.1065335 8.96663927,20.0473541 18.9210435,24.6309972" id="Fill-255" fill="url(#linearGradient-34)"></path>
                    </g>
                </g>
            </g>
        </g>
    </g>
</svg>