<?xml version="1.0" encoding="UTF-8"?>
<svg width="424px" height="253px" viewBox="0 0 424 253" version="1.1" xmlns="http://www.w3.org/2000/svg" xmlns:xlink="http://www.w3.org/1999/xlink">
    <!-- Generator: Sketch 63.1 (92452) - https://sketch.com -->
    <title>img_woocommerce</title>
    <desc>Created with Sketch.</desc>
    <g id="Website" stroke="none" stroke-width="1" fill="none" fill-rule="evenodd">
        <g id="Woocommerce-SEO" transform="translate(-157.000000, -1723.000000)" fill="#427FE0">
            <g id="img_woocommerce" transform="translate(157.000000, 1723.000000)">
                <path d="M354.381939,71.6315002 C347.241152,74.1805856 342.95668,81.0014899 339.246271,87.1921258 C331.209385,101.366161 329.235167,119.615932 336.500568,134.504271 C338.462184,138.622024 341.934567,142.76779 346.849109,142.991885 C352.197698,143.187969 356.804206,139.798525 360.514615,136.295634 C368.593505,128.327641 372.289913,116.940793 373.576654,105.890087 C374.908201,95.5396802 373.186011,84.418945 367.165348,75.7352476 C364.407044,71.6875241 358.988447,69.9647905 354.381939,71.6315002" id="Fill-1"></path>
                <path d="M245.542219,71.5895561 C239.00531,73.7606133 234.875999,79.7555324 231.362586,85.3302469 C222.558055,99.5177553 220.01048,118.232268 227.093298,133.666384 C228.954987,137.729762 231.950487,142.001842 236.6677,142.856258 C241.678864,143.682661 246.340086,140.811263 249.993477,137.686341 C258.042134,130.782379 262.045466,120.403325 263.991141,110.220367 C266.174777,98.6227195 265.053564,85.7784652 258.252099,75.8476295 C255.522554,71.7996584 250.161449,69.9647649 245.542219,71.5895561" id="Fill-3"></path>
                <path d="M391.407103,141.700891 C386.150791,151.636569 379.211902,161.196002 369.366746,166.979041 C355.907527,175.06136 338.134794,174.322803 324.799335,166.351964 C315.789904,160.917301 309.795205,151.636569 306.346619,141.882046 C296.89221,112.048534 304.872627,76.9447922 326.662684,54.4257788 C333.199701,48.0435337 341.680719,43.5717816 350.79027,42.4277153 C364.000579,40.7833814 378.33585,44.8677396 387.583067,54.7476781 C395.856892,63.6925758 400.334491,75.6627692 401.5999,87.6887027 C403.546682,106.166557 400.153718,125.271487 391.407103,141.700891 M282.470724,142.230422 C277.283939,151.901335 270.498012,161.168132 260.930967,166.853626 C246.914134,175.381866 228.113779,174.336738 214.571126,165.334707 C203.751188,157.907334 197.674446,145.254324 195.199251,132.643119 C190.22105,104.105565 198.731271,72.2904912 220.298838,52.3647874 C226.486825,47.0123412 234.204427,43.3892326 242.339196,42.3998453 C255.855428,40.7415763 270.44239,45.242592 279.647889,55.5405815 C287.156907,64.0548867 291.3703,75.1053679 292.78867,86.2812644 C295.083093,105.40013 291.648412,125.271487 282.470724,142.230422 M173.589967,175.604826 C173.952903,182.056747 170.83666,189.888235 163.925583,191.393219 C157.389956,192.856397 151.438364,188.564407 147.336216,183.93937 C128.563671,163.704308 117.941192,137.492511 110.279213,111.336454 C102.533801,126.651055 94.7605766,141.965657 87.2515589,157.407067 C81.9938559,167.843013 76.4455262,178.489378 68.0465508,186.782116 C64.5020163,190.306286 58.5087077,193.497409 53.9337691,189.8743 C47.0505028,183.840431 45.3540211,174.225258 42.4338475,165.961783 C31.3510935,127.654378 25.064377,88.1764289 18.6260896,48.8810292 C17.1520972,42.3301701 19.8928887,34.48614 26.4146097,31.8649603 C31.6848277,29.8861856 38.429038,29.6088784 42.9205431,33.4967526 C46.0493005,36.2963008 46.911447,40.6300961 47.4954817,44.589039 C52.0147979,75.0078226 57.39487,105.330455 64.7245057,135.207165 C77.281252,111.350389 89.7684704,87.4518072 102.2835,63.5671605 C104.145458,60.0694672 106.371743,56.5578389 109.791127,54.3839737 C114.367456,51.4436817 121.153383,51.6527072 124.97603,55.7649355 C128.188221,59.13582 129.258951,63.8333196 130.148909,68.2632666 C133.889512,88.0092085 138.951146,107.56006 146.307202,126.276203 C149.479067,98.0703024 153.357336,69.5174196 163.633565,42.8875714 C165.957189,37.5225837 167.99992,31.8510252 171.75582,27.2942694 C178.124579,20.5079083 190.207145,22.7096436 194.907234,30.3878468 C197.451956,34.4150713 197.674446,39.7953876 195.630324,44.0859843 C186.772465,61.5465807 183.073578,80.9998869 179.666709,100.118752 C175.634088,125.048526 172.282841,150.298806 173.589967,175.604826 M423.987897,40.4210706 C424.224292,29.1058237 419.426864,17.8184469 411.000077,10.2670525 C403.644021,3.50716799 393.659809,-0.213485843 383.689502,0.00947468645 C268.732003,0.0512797857 153.774503,-0.00306684331 38.8170039,0.0373447526 C23.5361529,0.00947468645 8.94780007,9.97302333 3.13665468,24.0752768 C0.480687294,30.081276 -0.131158595,36.7143518 0.0218028774,43.2080772 C0.105236408,86.4498783 -0.0630212119,129.688892 0.105236408,172.915365 C0.216481115,192.828527 17.5428443,210.623564 37.4139301,211.180966 C92.5773993,211.501472 147.76868,210.97194 202.916853,211.459666 C228.030345,224.948778 252.755872,239.218252 277.728918,253 C272.097155,239.078902 266.395864,225.185674 260.7641,211.279905 C302.689449,211.208836 344.628704,211.376056 386.554053,211.194901 C406.45295,210.650041 423.848841,192.842462 423.932275,172.887495 C424.071331,128.727375 423.94618,84.5811904 423.987897,40.4210706" id="Fill-5"></path>
            </g>
        </g>
    </g>
</svg>