<svg height="401" viewBox="0 0 352 401" width="352" xmlns="http://www.w3.org/2000/svg" xmlns:xlink="http://www.w3.org/1999/xlink"><linearGradient id="a" x1="46.706%" x2="50.824924%" y1="-48.596354%" y2="29.735677%"><stop offset="0" stop-color="#80c3f3"/><stop offset="1" stop-color="#4a90e2"/></linearGradient><g fill="none" fill-rule="evenodd"><circle cx="176" cy="176" fill="url(#a)" r="176"/><ellipse cx="176.5" cy="387" fill="#000" opacity=".05" rx="160.5" ry="14"/><g fill="#fff" fill-rule="nonzero"><path d="m70.0820034 242.496c.68 0 1.299-.114 1.857-.342s1.035-.543 1.431-.945.703-.875.921-1.419.327-1.132.327-1.764c0-.628-.109-1.214-.327-1.758s-.525-1.016-.921-1.416-.873-.715-1.431-.945-1.177-.345-1.857-.345-1.3.114-1.86.342-1.039.542-1.437.942-.706.872-.924 1.416-.327 1.132-.327 1.764.109 1.22.327 1.764.526 1.017.924 1.419.877.717 1.437.945 1.18.342 1.86.342zm0-1.68c-.392 0-.741-.063-1.047-.189s-.564-.309-.774-.549-.371-.533-.483-.879-.168-.737-.168-1.173c0-.432.056-.821.168-1.167s.273-.639.483-.879.468-.424.774-.552.655-.192 1.047-.192c.388 0 .734.064 1.038.192s.561.312.771.552.371.533.483.879.168.735.168 1.167c0 .436-.056.827-.168 1.173s-.273.639-.483.879-.467.423-.771.549-.65.189-1.038.189zm9.6119997 1.584v-3.402h2.988v-1.566h-2.988v-2.214h3.588v-1.56h-5.628v8.742zm15.1799995.096c.68 0 1.299-.114 1.857-.342s1.035-.543 1.431-.945.703-.875.921-1.419.327-1.132.327-1.764c0-.628-.109-1.214-.327-1.758s-.525-1.016-.921-1.416-.873-.715-1.431-.945-1.177-.345-1.857-.345-1.3.114-1.86.342-1.039.542-1.437.942-.706.872-.924 1.416-.327 1.132-.327 1.764.109 1.22.327 1.764.526 1.017.924 1.419.877.717 1.437.945 1.18.342 1.86.342zm0-1.68c-.392 0-.741-.063-1.047-.189s-.564-.309-.774-.549-.371-.533-.483-.879-.168-.737-.168-1.173c0-.432.056-.821.168-1.167s.273-.639.483-.879.468-.424.774-.552.655-.192 1.047-.192c.388 0 .734.064 1.038.192s.561.312.771.552.371.533.483.879.168.735.168 1.167c0 .436-.056.827-.168 1.173s-.273.639-.483.879-.467.423-.771.549-.65.189-1.038.189zm9.3599994 1.584v-4.686c0-.128-.004-.265-.012-.411s-.018-.295-.03-.447l4.122 5.208c.1.128.204.216.312.264s.24.072.396.072h1.056v-8.742h-1.788v4.626c0 .14.004.289.012.447s.02.321.036.489l-4.152-5.25c-.056-.068-.106-.122-.15-.162s-.09-.071-.138-.093-.102-.037-.162-.045-.134-.012-.222-.012h-1.068v8.742zm14.616 0v-1.62h-3.24v-7.122h-2.028v8.742zm5.244 0v-8.742h-2.04v8.742zm5.472 0v-4.686c0-.128-.004-.265-.012-.411s-.018-.295-.03-.447l4.122 5.208c.1.128.204.216.312.264s.24.072.396.072h1.056v-8.742h-1.788v4.626c0 .14.004.289.012.447s.02.321.036.489l-4.152-5.25c-.056-.068-.106-.122-.15-.162s-.09-.071-.138-.093-.102-.037-.162-.045-.134-.012-.222-.012h-1.068v8.742zm14.975999 0v-1.56h-3.588v-2.082h2.748v-1.5h-2.748v-2.04h3.588v-1.56h-5.628v8.742zm13.224 0v-1.56h-3.588v-2.082h2.748v-1.5h-2.748v-2.04h3.588v-1.56h-5.628v8.742zm4.452 0c.12 0 .22-.033.3-.099s.144-.141.192-.225l1.632-2.832c.04-.064.076-.14.108-.228l1.752 3.06c.048.088.113.164.195.228s.189.096.321.096h2.028l-2.802-4.584 2.742-4.158h-1.944c-.172 0-.308.084-.408.252l-1.524 2.616c-.032.052-.061.102-.087.15s-.049.098-.069.15l-1.74-2.946c-.048-.08-.103-.137-.165-.171s-.159-.051-.291-.051h-2.028l2.706 4.248-2.814 4.494zm11.399999 0v-2.922h1.056c.604 0 1.127-.073 1.569-.219s.807-.349 1.095-.609.502-.572.642-.936.21-.764.21-1.2c0-.404-.068-.78-.204-1.128s-.347-.65-.633-.906-.65-.457-1.092-.603-.971-.219-1.587-.219h-3.084v8.742zm1.056-4.452h-1.056v-2.772h1.056c.256 0 .477.032.663.096s.34.155.462.273.213.259.273.423.09.346.09.546c0 .452-.116.804-.348 1.056s-.612.378-1.14.378zm12.264 4.452v-1.56h-3.588v-2.082h2.748v-1.5h-2.748v-2.04h3.588v-1.56h-5.628v8.742zm5.244 0v-3.234h.516c.156 0 .277.024.363.072s.161.128.225.24l1.452 2.538c.148.256.392.384.732.384h1.836l-1.86-3.042c-.088-.144-.191-.266-.309-.366s-.245-.184-.381-.252c.284-.108.535-.246.753-.414s.402-.359.552-.573.263-.447.339-.699.114-.52.114-.804c0-.372-.064-.716-.192-1.032s-.333-.59-.615-.822-.646-.413-1.092-.543-.985-.195-1.617-.195h-2.844v8.742zm.816-4.632h-.816v-2.592h.816c.524 0 .911.108 1.161.324s.375.516.375.9c0 .192-.028.371-.084.537s-.146.311-.27.435-.283.221-.477.291-.429.105-.705.105zm9.42 4.632v-8.742h-2.04v8.742zm9.311999 0v-1.56h-3.588v-2.082h2.748v-1.5h-2.748v-2.04h3.588v-1.56h-5.628v8.742zm5.004 0v-4.686c0-.128-.004-.265-.012-.411s-.018-.295-.03-.447l4.122 5.208c.1.128.204.216.312.264s.24.072.396.072h1.056v-8.742h-1.788v4.626c0 .14.004.289.012.447s.02.321.036.489l-4.152-5.25c-.056-.068-.106-.122-.15-.162s-.09-.071-.138-.093-.102-.037-.162-.045-.134-.012-.222-.012h-1.068v8.742zm13.104.096c.724 0 1.351-.117 1.881-.351s.971-.581 1.323-1.041l-.804-.846c-.044-.044-.09-.075-.138-.093s-.096-.027-.144-.027c-.06 0-.118.013-.174.039s-.108.059-.156.099c-.12.104-.239.191-.357.261s-.242.127-.372.171-.271.075-.423.093-.32.027-.504.027c-.32 0-.62-.062-.9-.186s-.525-.305-.735-.543-.376-.531-.498-.879-.183-.746-.183-1.194c0-.428.061-.814.183-1.158s.292-.637.51-.879.479-.428.783-.558.64-.195 1.008-.195c.212 0 .397.016.555.048s.296.071.414.117.22.096.306.15.165.104.237.15.14.085.204.117.132.048.204.048c.108 0 .192-.023.252-.069s.112-.097.156-.153l.684-.918c-.164-.172-.352-.329-.564-.471s-.444-.264-.696-.366-.523-.182-.813-.24-.599-.087-.927-.087c-.676 0-1.294.11-1.854.33s-1.041.528-1.443.924-.715.867-.939 1.413-.336 1.145-.336 1.797c0 .64.098 1.233.294 1.779s.477 1.018.843 1.416.812.71 1.338.936 1.121.339 1.785.339zm11.82-.096v-1.56h-3.588v-2.082h2.748v-1.5h-2.748v-2.04h3.588v-1.56h-5.628v8.742zm5.579999.096c.496 0 .939-.075 1.329-.225s.718-.356.984-.618.469-.569.609-.921.21-.73.21-1.134c0-.364-.056-.675-.168-.933s-.259-.477-.441-.657-.39-.328-.624-.444-.473-.217-.717-.303-.483-.164-.717-.234-.442-.147-.624-.231-.329-.184-.441-.3-.168-.262-.168-.438c0-.276.093-.495.279-.657s.469-.243.849-.243c.22 0 .416.029.588.087s.325.123.459.195.254.137.36.195.205.087.297.087c.104 0 .189-.024.255-.072s.129-.12.189-.216l.504-.942c-.156-.144-.333-.273-.531-.387s-.411-.212-.639-.294-.469-.144-.723-.186-.515-.063-.783-.063c-.48 0-.906.073-1.278.219s-.686.341-.942.585-.45.522-.582.834-.198.632-.198.96c0 .408.056.751.168 1.029s.259.51.441.696.389.336.621.45.47.21.714.288.482.149.714.213.439.138.621.222.329.19.441.318.168.294.168.498c0 .352-.102.609-.306.771s-.49.243-.858.243c-.272 0-.508-.038-.708-.114s-.377-.16-.531-.252-.292-.176-.414-.252-.243-.114-.363-.114c-.092 0-.178.022-.258.066s-.142.102-.186.174l-.6.948c.172.172.374.328.606.468s.48.261.744.363.537.181.819.237.559.084.831.084zm14.076-.096c.524 0 .99-.067 1.398-.201s.751-.32 1.029-.558.489-.517.633-.837.216-.666.216-1.038c0-.492-.138-.895-.414-1.209s-.702-.541-1.278-.681c.264-.096.49-.209.678-.339s.342-.275.462-.435.208-.331.264-.513.084-.371.084-.567c0-.36-.061-.686-.183-.978s-.317-.54-.585-.744-.614-.362-1.038-.474-.938-.168-1.542-.168h-3.216v8.742zm-.408-5.064h-1.056v-2.16h1.188c.228 0 .425.018.591.054s.303.096.411.18.188.195.24.333.078.311.078.519c0 .212-.033.388-.099.528s-.162.25-.288.33-.279.136-.459.168-.382.048-.606.048zm.372 3.534h-1.428v-2.178h1.416c.256 0 .468.024.636.072s.303.116.405.204.174.196.216.324.063.272.063.432c0 .14-.018.278-.054.414s-.102.258-.198.366-.229.196-.399.264-.389.102-.657.102zm12.108 1.53v-1.56h-3.588v-2.082h2.748v-1.5h-2.748v-2.04h3.588v-1.56h-5.628v8.742zm7.175999.096c.356 0 .689-.018.999-.054s.602-.092.876-.168.532-.173.774-.291.475-.259.699-.423v-3.69h-3.108v1.116c0 .104.036.19.108.258s.172.102.3.102h.864v1.326c-.192.08-.396.144-.612.192s-.464.072-.744.072c-.368 0-.707-.065-1.017-.195s-.578-.319-.804-.567-.403-.552-.531-.912-.192-.772-.192-1.236c0-.42.058-.801.174-1.143s.281-.635.495-.879.473-.433.777-.567.646-.201 1.026-.201c.204 0 .388.01.552.03s.32.052.468.096.293.101.435.171.293.153.453.249c.128.08.252.12.372.12.092 0 .177-.024.255-.072s.145-.114.201-.198l.588-.894c-.176-.168-.376-.324-.6-.468s-.471-.268-.741-.372-.565-.186-.885-.246-.662-.09-1.026-.09c-.704 0-1.341.11-1.911.33s-1.056.528-1.458.924-.711.867-.927 1.413-.324 1.145-.324 1.797c0 .64.113 1.233.339 1.779s.538 1.018.936 1.416.869.71 1.413.936 1.136.339 1.776.339zm8.868-.096v-8.742h-2.04v8.742zm5.472 0v-4.686c0-.128-.004-.265-.012-.411s-.018-.295-.03-.447l4.122 5.208c.1.128.204.216.312.264s.24.072.396.072h1.056v-8.742h-1.788v4.626c0 .14.004.289.012.447s.02.321.036.489l-4.152-5.25c-.056-.068-.106-.122-.15-.162s-.09-.071-.138-.093-.102-.037-.162-.045-.134-.012-.222-.012h-1.068v8.742zm-196.3439945 15 1.6680005-5.418c.028-.084.057-.176.087-.276s.059-.206.087-.318c.028.112.057.218.087.318s.059.192.087.276l1.644 5.418h1.836l2.7-8.742h-1.596c-.168 0-.312.044-.432.132s-.196.19-.228.306l-1.2 4.56c-.036.14-.071.29-.105.45s-.067.328-.099.504c-.036-.18-.078-.349-.126-.507s-.094-.307-.138-.447l-1.404-4.56c-.044-.136-.123-.243-.237-.321s-.259-.117-.435-.117h-.6c-.1680005 0-.3110005.045-.4290005.135s-.195.191-.231.303l-1.416 4.56c-.044.148-.09.305-.138.471s-.092.343-.132.531c-.02-.184-.05-.36-.09-.528s-.08-.326-.12-.474l-1.2-4.56c-.036-.132-.113-.238-.231-.318s-.265-.12-.441-.12h-1.704l2.7 8.742zm13.2599995 0v-8.742h-2.04v8.742zm7.572 0v-7.134h2.46v-1.608h-6.948v1.608h2.46v7.134zm7.404 0v-3.696h3.552v3.696h2.04v-8.742h-2.04v3.654h-3.552v-3.654h-2.04v8.742zm14.351999 0c.168 0 .31-.045.426-.135s.194-.191.234-.303l.516-1.524h3.324l.516 1.524c.044.128.123.233.237.315s.259.123.435.123h1.572l-3.384-8.742h-2.076l-3.384 8.742zm4.032-3.342h-2.388l.804-2.382c.06-.152.124-.332.192-.54s.134-.434.198-.678c.068.24.137.463.207.669s.131.385.183.537zm12.744 3.438c.496 0 .939-.075 1.329-.225s.718-.356.984-.618.469-.569.609-.921.21-.73.21-1.134c0-.364-.056-.675-.168-.933s-.259-.477-.441-.657-.39-.328-.624-.444-.473-.217-.717-.303-.483-.164-.717-.234-.442-.147-.624-.231-.329-.184-.441-.3-.168-.262-.168-.438c0-.276.093-.495.279-.657s.469-.243.849-.243c.22 0 .416.029.588.087s.325.123.459.195.254.137.36.195.205.087.297.087c.104 0 .189-.024.255-.072s.129-.12.189-.216l.504-.942c-.156-.144-.333-.273-.531-.387s-.411-.212-.639-.294-.469-.144-.723-.186-.515-.063-.783-.063c-.48 0-.906.073-1.278.219s-.686.341-.942.585-.45.522-.582.834-.198.632-.198.96c0 .408.056.751.168 1.029s.259.51.441.696.389.336.621.45.47.21.714.288.482.149.714.213.439.138.621.222.329.19.441.318.168.294.168.498c0 .352-.102.609-.306.771s-.49.243-.858.243c-.272 0-.508-.038-.708-.114s-.377-.16-.531-.252-.292-.176-.414-.252-.243-.114-.363-.114c-.092 0-.178.022-.258.066s-.142.102-.186.174l-.6.948c.172.172.374.328.606.468s.48.261.744.363.537.181.819.237.559.084.831.084zm11.832-.096v-1.56h-3.588v-2.082h2.748v-1.5h-2.748v-2.04h3.588v-1.56h-5.628v8.742zm4.091999 0c.168 0 .31-.045.426-.135s.194-.191.234-.303l.516-1.524h3.324l.516 1.524c.044.128.123.233.237.315s.259.123.435.123h1.572l-3.384-8.742h-2.076l-3.384 8.742zm4.032-3.342h-2.388l.804-2.382c.06-.152.124-.332.192-.54s.134-.434.198-.678c.068.24.137.463.207.669s.131.385.183.537zm8.028 3.342v-3.234h.516c.156 0 .277.024.363.072s.161.128.225.24l1.452 2.538c.148.256.392.384.732.384h1.836l-1.86-3.042c-.088-.144-.191-.266-.309-.366s-.245-.184-.381-.252c.284-.108.535-.246.753-.414s.402-.359.552-.573.263-.447.339-.699.114-.52.114-.804c0-.372-.064-.716-.192-1.032s-.333-.59-.615-.822-.646-.413-1.092-.543-.985-.195-1.617-.195h-2.844v8.742zm.816-4.632h-.816v-2.592h.816c.524 0 .911.108 1.161.324s.375.516.375.9c0 .192-.028.371-.084.537s-.146.311-.27.435-.283.221-.477.291-.429.105-.705.105zm10.656 4.728c.724 0 1.351-.117 1.881-.351s.971-.581 1.323-1.041l-.804-.846c-.044-.044-.09-.075-.138-.093s-.096-.027-.144-.027c-.06 0-.118.013-.174.039s-.108.059-.156.099c-.12.104-.239.191-.357.261s-.242.127-.372.171-.271.075-.423.093-.32.027-.504.027c-.32 0-.62-.062-.9-.186s-.525-.305-.735-.543-.376-.531-.498-.879-.183-.746-.183-1.194c0-.428.061-.814.183-1.158s.292-.637.51-.879.479-.428.783-.558.64-.195 1.008-.195c.212 0 .397.016.555.048s.296.071.414.117.22.096.306.15.165.104.237.15.14.085.204.117.132.048.204.048c.108 0 .192-.023.252-.069s.112-.097.156-.153l.684-.918c-.164-.172-.352-.329-.564-.471s-.444-.264-.696-.366-.523-.182-.813-.24-.599-.087-.927-.087c-.676 0-1.294.11-1.854.33s-1.041.528-1.443.924-.715.867-.939 1.413-.336 1.145-.336 1.797c0 .64.098 1.233.294 1.779s.477 1.018.843 1.416.812.71 1.338.936 1.121.339 1.785.339zm8.231999-.096v-3.696h3.552v3.696h2.04v-8.742h-2.04v3.654h-3.552v-3.654h-2.04v8.742zm19.104 0v-1.56h-3.588v-2.082h2.748v-1.5h-2.748v-2.04h3.588v-1.56h-5.628v8.742zm5.004 0v-4.686c0-.128-.004-.265-.012-.411s-.018-.295-.03-.447l4.122 5.208c.1.128.204.216.312.264s.24.072.396.072h1.056v-8.742h-1.788v4.626c0 .14.004.289.012.447s.02.321.036.489l-4.152-5.25c-.056-.068-.106-.122-.15-.162s-.09-.071-.138-.093-.102-.037-.162-.045-.134-.012-.222-.012h-1.068v8.742zm13.307999.096c.356 0 .689-.018.999-.054s.602-.092.876-.168.532-.173.774-.291.475-.259.699-.423v-3.69h-3.108v1.116c0 .104.036.19.108.258s.172.102.3.102h.864v1.326c-.192.08-.396.144-.612.192s-.464.072-.744.072c-.368 0-.707-.065-1.017-.195s-.578-.319-.804-.567-.403-.552-.531-.912-.192-.772-.192-1.236c0-.42.058-.801.174-1.143s.281-.635.495-.879.473-.433.777-.567.646-.201 1.026-.201c.204 0 .388.01.552.03s.32.052.468.096.293.101.435.171.293.153.453.249c.128.08.252.12.372.12.092 0 .177-.024.255-.072s.145-.114.201-.198l.588-.894c-.176-.168-.376-.324-.6-.468s-.471-.268-.741-.372-.565-.186-.885-.246-.662-.09-1.026-.09c-.704 0-1.341.11-1.911.33s-1.056.528-1.458.924-.711.867-.927 1.413-.324 1.145-.324 1.797c0 .64.113 1.233.339 1.779s.538 1.018.936 1.416.869.71 1.413.936 1.136.339 1.776.339zm8.868-.096v-8.742h-2.04v8.742zm5.472 0v-4.686c0-.128-.004-.265-.012-.411s-.018-.295-.03-.447l4.122 5.208c.1.128.204.216.312.264s.24.072.396.072h1.056v-8.742h-1.788v4.626c0 .14.004.289.012.447s.02.321.036.489l-4.152-5.25c-.056-.068-.106-.122-.15-.162s-.09-.071-.138-.093-.102-.037-.162-.045-.134-.012-.222-.012h-1.068v8.742zm14.976 0v-1.56h-3.588v-2.082h2.748v-1.5h-2.748v-2.04h3.588v-1.56h-5.628v8.742z"/><path d="m100 219.2c2.88 0 5.466667-.533333 7.76-1.6s3.973333-2.373333 5.04-3.92l25.12-35.68c1.92-2.72 3.653333-5.48 5.2-8.28s2.866667-5.733333 3.96-8.8 1.946667-6.28 2.56-9.64.92-6.96.92-10.8c0-5.76-.92-11.026667-2.76-15.8s-4.48-8.893333-7.92-12.36-7.64-6.16-12.6-8.08-10.586667-2.88-16.88-2.88c-6.186667 0-11.7866667 1.026667-16.8 3.08s-9.32 4.84-12.92 8.36-6.3733333 7.626667-8.32 12.32-2.92 9.68-2.92 14.96c0 5.76.96 10.746667 2.88 14.96s4.4133333 7.706667 7.48 10.48 6.4933333 4.84 10.28 6.2 7.5733333 2.04 11.36 2.04c3.093333 0 6.053333-.32 8.88-.96s5.44-1.6 7.84-2.88c-.64.853333-1.293333 1.693333-1.96 2.52s-1.373333 1.693333-2.12 2.6l-36.96 44.16zm10.4-63.52c-10.7733333 0-16.16-5.813333-16.16-17.44 0-2.453333.36-4.733333 1.08-6.84s1.76-3.933333 3.12-5.48 3.013333-2.76 4.96-3.64 4.173333-1.32 6.68-1.32c2.453333 0 4.72.373333 6.8 1.12s3.853333 1.84 5.32 3.28 2.613333 3.24 3.44 5.4 1.24 4.653333 1.24 7.48c0 5.28-1.426667 9.506667-4.28 12.68s-6.92 4.76-12.2 4.76zm86.56 64.8c5.386667 0 10.56-.76 15.52-2.28s9.32-3.8 13.08-6.84 6.76-6.853333 9-11.44 3.36-9.973333 3.36-16.16c0-13.066667-6.453333-21.84-19.36-26.32 2.773333-.96 5.24-2.16 7.4-3.6s3.973333-3.186667 5.44-5.24 2.573333-4.48 3.32-7.28 1.12-6.04 1.12-9.72c0-4.053333-.8-7.906667-2.4-11.56s-3.946667-6.866667-7.04-9.64-6.88-4.973333-11.36-6.6-9.6-2.44-15.36-2.44c-5.333333 0-10.32.706667-14.96 2.12s-8.76 3.56-12.36 6.44-6.613333 6.48-9.04 10.8-4.066667 9.386667-4.92 15.2l13.12 2.32c.64.106667 1.266667.186667 1.88.24s1.186667.08 1.72.08c2.24 0 4.013333-.533333 5.32-1.6s2.386667-2.8 3.24-5.2c.533333-1.44 1.24-2.773333 2.12-4s1.933333-2.293333 3.16-3.2 2.613333-1.626667 4.16-2.16 3.253333-.8 5.12-.8c4.533333 0 7.906667 1.24 10.12 3.72s3.32 6.013333 3.32 10.6c0 2.24-.266667 4.293333-.8 6.16s-1.613333 3.453333-3.24 4.76-3.933333 2.333333-6.92 3.08-6.906667 1.12-11.76 1.12v17.12c5.76 0 10.253333.386667 13.48 1.16s5.64 1.88 7.24 3.32 2.573333 3.16 2.92 5.16.52 4.253333.52 6.76c0 1.92-.346667 3.813333-1.04 5.68s-1.72 3.533333-3.08 5-3.066667 2.666667-5.12 3.6-4.466667 1.4-7.24 1.4c-3.626667 0-6.786667-1-9.48-3s-5.24-5.213333-7.64-9.64c-.693333-1.28-1.72-2.253333-3.08-2.92s-2.893333-1-4.6-1c-.906667 0-1.826667.08-2.76.24s-1.88.453333-2.84.88l-11.04 4.48c1.866667 5.44 4.066667 10.133333 6.6 14.08s5.48 7.186667 8.84 9.72 7.2 4.4 11.52 5.6 9.253333 1.8 14.8 1.8zm57.04-31.08c1.84 0 3.606667-.346667 5.3-1.04s3.18-1.673333 4.46-2.94 2.306667-2.78 3.08-4.54 1.16-3.706667 1.16-5.84c0-2.213333-.346667-4.22-1.04-6.02s-1.66-3.34-2.9-4.62-2.72-2.273333-4.44-2.98-3.593333-1.06-5.62-1.06-3.886667.353333-5.58 1.06-3.16 1.7-4.4 2.98-2.206667 2.82-2.9 4.62-1.04 3.806667-1.04 6.02c0 2.133333.346667 4.08 1.04 5.84s1.66 3.273333 2.9 4.54 2.706667 2.246667 4.4 2.94 3.553333 1.04 5.58 1.04zm-2.32 29.8c.853333 0 1.58-.166667 2.18-.5s1.1-.753333 1.5-1.26l43.92-56.52h-9.04c-1.04 0-1.853333.193333-2.44.58s-1.08.806667-1.48 1.26l-43.92 56.44zm2.32-37.52c-.64 0-1.226667-.106667-1.76-.32s-.986667-.573333-1.36-1.08-.666667-1.186667-.88-2.04-.32-1.92-.32-3.2c0-1.36.106667-2.486667.32-3.38s.506667-1.606667.88-2.14.826667-.906667 1.36-1.12 1.12-.32 1.76-.32 1.233333.106667 1.78.32 1.02.586667 1.42 1.12.713333 1.246667.94 2.14.34 2.02.34 3.38c0 1.28-.113333 2.346667-.34 3.2s-.54 1.533333-.94 2.04-.873333.866667-1.42 1.08-1.14.32-1.78.32zm33.52 38.24c1.84 0 3.606667-.346667 5.3-1.04s3.18-1.673333 4.46-2.94 2.306667-2.786667 3.08-4.56 1.16-3.726667 1.16-5.86c0-2.213333-.346667-4.22-1.04-6.02s-1.66-3.34-2.9-4.62-2.72-2.273333-4.44-2.98-3.593333-1.06-5.62-1.06-3.886667.353333-5.58 1.06-3.16 1.7-4.4 2.98-2.206667 2.82-2.9 4.62-1.04 3.806667-1.04 6.02c0 2.133333.346667 4.086667 1.04 5.86s1.66 3.293333 2.9 4.56 2.706667 2.246667 4.4 2.94 3.553333 1.04 5.58 1.04zm0-7.76c-.64 0-1.226667-.106667-1.76-.32s-.986667-.573333-1.36-1.08-.666667-1.186667-.88-2.04-.32-1.92-.32-3.2c0-1.333333.106667-2.446667.32-3.34s.506667-1.606667.88-2.14.826667-.906667 1.36-1.12 1.12-.32 1.76-.32 1.233333.106667 1.78.32 1.02.586667 1.42 1.12.713333 1.246667.94 2.14.34 2.006667.34 3.34c0 1.28-.113333 2.346667-.34 3.2s-.54 1.533333-.94 2.04-.873333.866667-1.42 1.08-1.14.32-1.78.32z"/></g></g></svg>