<?xml version="1.0" encoding="UTF-8"?>
<svg width="511px" height="399px" viewBox="0 0 511 399" version="1.1" xmlns="http://www.w3.org/2000/svg" xmlns:xlink="http://www.w3.org/1999/xlink">
    <!-- Generator: Sketch 63.1 (92452) - https://sketch.com -->
    <title>img_reviews</title>
    <desc>Created with Sketch.</desc>
    <defs>
        <filter x="-8.2%" y="-12.7%" width="116.4%" height="125.7%" filterUnits="objectBoundingBox" id="filter-1">
            <feOffset dx="0" dy="5" in="SourceAlpha" result="shadowOffsetOuter1"></feOffset>
            <feGaussianBlur stdDeviation="5" in="shadowOffsetOuter1" result="shadowBlurOuter1"></feGaussianBlur>
            <feColorMatrix values="0 0 0 0 0   0 0 0 0 0   0 0 0 0 0  0 0 0 0.25 0" type="matrix" in="shadowBlurOuter1" result="shadowMatrixOuter1"></feColorMatrix>
            <feMerge>
                <feMergeNode in="shadowMatrixOuter1"></feMergeNode>
                <feMergeNode in="SourceGraphic"></feMergeNode>
            </feMerge>
        </filter>
        <filter x="-8.2%" y="-12.7%" width="116.4%" height="125.4%" filterUnits="objectBoundingBox" id="filter-2">
            <feOffset dx="0" dy="5" in="SourceAlpha" result="shadowOffsetOuter1"></feOffset>
            <feGaussianBlur stdDeviation="5" in="shadowOffsetOuter1" result="shadowBlurOuter1"></feGaussianBlur>
            <feColorMatrix values="0 0 0 0 0   0 0 0 0 0   0 0 0 0 0  0 0 0 0.25 0" type="matrix" in="shadowBlurOuter1" result="shadowMatrixOuter1"></feColorMatrix>
            <feMerge>
                <feMergeNode in="shadowMatrixOuter1"></feMergeNode>
                <feMergeNode in="SourceGraphic"></feMergeNode>
            </feMerge>
        </filter>
    </defs>
    <g id="Website" stroke="none" stroke-width="1" fill="none" fill-rule="evenodd">
        <g id="Reputation-Management" transform="translate(-791.000000, -1213.000000)">
            <g id="CONTENT---Reputation-Management" transform="translate(0.000000, 1092.000000)">
                <g id="CONTENT---SEO">
                    <g id="img_reviews" transform="translate(801.000000, 126.000000)">
                        <g id="Group-5" filter="url(#filter-1)">
                            <path d="M13,0 L345,0 C352.179702,-1.31888981e-15 358,5.82029825 358,13 L358,218.424 C358,225.603702 352.179702,231.424 345,231.424 L13,231.424 C5.82029825,231.424 8.79259876e-16,225.603702 0,218.424 L0,13 C2.6734538e-15,5.82029825 5.82029825,1.31888981e-15 13,0 Z" id="Rectangle" fill="#FFFFFF"></path>
                            <g id="Group-4" transform="translate(30.000000, 90.112000)">
                                <path d="M42.5,87.04 C19.0647917,87.04 0,67.51584 0,43.52 C0,19.52416 19.0647917,0 42.5,0 C65.9334375,0 85,19.52416 85,43.52 C85,67.51584 65.9334375,87.04 42.5,87.04" id="Fill-8" fill="#FFDA00"></path>
                                <path d="M37.5324675,33.9116883 L35.8152958,33.9116883 C35.8152958,30.033196 33.1193362,26.878153 29.8051948,26.878153 C26.4910534,26.878153 23.7950938,30.033196 23.7950938,33.9116883 L22.0779221,33.9116883 C22.0779221,28.9259165 25.5448918,24.8685714 29.8051948,24.8685714 C34.0654978,24.8685714 37.5324675,28.9259165 37.5324675,33.9116883" id="Fill-10" fill="#34495E"></path>
                                <path d="M62.9220779,33.9116883 L61.2049062,33.9116883 C61.2049062,30.033196 58.5089466,26.878153 55.1948052,26.878153 C51.8806638,26.878153 49.1847042,30.033196 49.1847042,33.9116883 L47.4675325,33.9116883 C47.4675325,28.9259165 50.9345022,24.8685714 55.1948052,24.8685714 C59.4551082,24.8685714 62.9220779,28.9259165 62.9220779,33.9116883" id="Fill-12" fill="#34495E"></path>
                                <path d="M42.4991056,67.8233766 C52.5592228,67.8233766 60.7142857,59.7252486 60.7142857,49.7371429 L24.2857143,49.7371429 C24.2857143,59.7252486 32.4389885,67.8233766 42.4991056,67.8233766" id="Fill-14" fill="#34495E"></path>
                            </g>
                            <path d="M13,0 L346,0 C353.179702,-1.31888981e-15 359,5.82029825 359,13 L359,43.008 L359,43.008 L0,43.008 L0,13 C-8.79259876e-16,5.82029825 5.82029825,1.31888981e-15 13,0 Z" id="Rectangle-2" fill="#FF5254"></path>
                            <polygon id="Fill-5" fill="#E9ECED" points="0 65.536 358 65.536 358 43.008 0 43.008"></polygon>
                            <path d="M64,23.5529419 C64,26.9456581 61.3141193,29.696 58.0009198,29.696 C54.6877204,29.696 52,26.9456581 52,23.5529419 C52,20.1602257 54.6877204,17.408 58.0009198,17.408 C61.3141193,17.408 64,20.1602257 64,23.5529419" id="Fill-6" fill="#FFFFFF"></path>
                            <path d="M47,23.5529419 C47,26.9456581 44.3122796,29.696 40.9990802,29.696 C37.6858807,29.696 35,26.9456581 35,23.5529419 C35,20.1602257 37.6858807,17.408 40.9990802,17.408 C44.3122796,17.408 47,20.1602257 47,23.5529419" id="Fill-7" fill="#FFFFFF"></path>
                            <path d="M31,23.5529419 C31,26.9456581 28.3141193,29.696 24.9990802,29.696 C21.6858807,29.696 19,26.9456581 19,23.5529419 C19,20.1602257 21.6858807,17.408 24.9990802,17.408 C28.3141193,17.408 31,20.1602257 31,23.5529419" id="Fill-8" fill="#FFFFFF"></path>
                            <path d="M77.5,19.456 L303.5,19.456 C304.880712,19.456 306,20.5752881 306,21.956 L306,23.1 C306,24.4807119 304.880712,25.6 303.5,25.6 L77.5,25.6 C76.1192881,25.6 75,24.4807119 75,23.1 L75,21.956 C75,20.5752881 76.1192881,19.456 77.5,19.456 Z" id="Rectangle-3" fill="#FFFFFF"></path>
                            <polygon id="Fill-10" fill="#FFFFFF" points="327.498121 15.36 328.796549 19.27129 333 19.27129 329.598907 21.68871 330.899214 25.6 327.498121 23.1825799 324.098907 25.6 325.397335 21.68871 322 19.27129 326.201572 19.27129"></polygon>
                            <g id="Group-6" transform="translate(138.000000, 84.992000)" fill="#FFDA00">
                                <polygon id="Fill-11" points="178.474576 0 182.37682 12.5156219 195 12.5156219 184.78525 20.2523781 188.687493 32.768 178.474576 25.0331546 168.261659 32.768 172.163903 20.2523781 161.949153 12.5156219 174.572333 12.5156219"></polygon>
                                <polygon id="Fill-12" points="137.711864 0 141.614108 12.5156219 154.237288 12.5156219 144.022538 20.2523781 147.924782 32.768 137.711864 25.0331546 127.498947 32.768 131.401191 20.2523781 121.186441 12.5156219 133.809621 12.5156219"></polygon>
                                <polygon id="Fill-13" points="96.9491525 0 100.851396 12.5156219 113.474576 12.5156219 103.259826 20.2523781 107.16207 32.768 96.9491525 25.0331546 86.7362354 32.768 90.636646 20.2523781 80.4237288 12.5156219 93.048742 12.5156219"></polygon>
                                <polygon id="Fill-14" points="56.1864407 0 60.0868512 12.5156219 72.7118644 12.5156219 62.4989473 20.2523781 66.3993578 32.768 56.1864407 25.0331546 45.9735235 32.768 49.8739341 20.2523781 39.6610169 12.5156219 52.2860301 12.5156219"></polygon>
                                <polygon id="Fill-15" points="16.5254237 0 20.4258343 12.5156219 33.0508475 12.5156219 22.8379303 20.2523781 26.7383409 32.768 16.5254237 25.0331546 6.31250658 32.768 10.2129171 20.2523781 0 12.5156219 12.6250132 12.5156219"></polygon>
                            </g>
                            <g id="Group-7" transform="translate(141.000000, 132.096000)" fill="#DADFE1">
                                <polygon id="Fill-16" points="0 45.056 102.3 45.056 102.3 37.1712 0 37.1712"></polygon>
                                <polygon id="Fill-17" points="0 25.9072 145.2 25.9072 145.2 18.0224 0 18.0224"></polygon>
                                <polygon id="Fill-18" points="0 7.8848 187 7.8848 187 0 0 0"></polygon>
                            </g>
                        </g>
                        <g id="Group-5-Copy" filter="url(#filter-2)" transform="translate(132.000000, 147.456000)">
                            <path d="M13,0 L345,0 C352.179702,4.57467025e-16 358,5.82029825 358,13 L358,218.424 C358,225.603702 352.179702,231.424 345,231.424 L13,231.424 C5.82029825,231.424 8.79259876e-16,225.603702 0,218.424 L0,13 C8.97096963e-16,5.82029825 5.82029825,3.09524665e-15 13,0 Z" id="Rectangle" fill="#FFFFFF"></path>
                            <g id="Group-4" transform="translate(30.000000, 90.112000)">
                                <path d="M42.5,87.04 C19.0647917,87.04 0,67.51584 0,43.52 C0,19.52416 19.0647917,0 42.5,0 C65.9334375,0 85,19.52416 85,43.52 C85,67.51584 65.9334375,87.04 42.5,87.04" id="Fill-8" fill="#FFDA00"></path>
                                <path d="M37.5324675,33.9116883 L35.8152958,33.9116883 C35.8152958,30.033196 33.1193362,26.878153 29.8051948,26.878153 C26.4910534,26.878153 23.7950938,30.033196 23.7950938,33.9116883 L22.0779221,33.9116883 C22.0779221,28.9259165 25.5448918,24.8685714 29.8051948,24.8685714 C34.0654978,24.8685714 37.5324675,28.9259165 37.5324675,33.9116883" id="Fill-10" fill="#34495E"></path>
                                <path d="M62.9220779,33.9116883 L61.2049062,33.9116883 C61.2049062,30.033196 58.5089466,26.878153 55.1948052,26.878153 C51.8806638,26.878153 49.1847042,30.033196 49.1847042,33.9116883 L47.4675325,33.9116883 C47.4675325,28.9259165 50.9345022,24.8685714 55.1948052,24.8685714 C59.4551082,24.8685714 62.9220779,28.9259165 62.9220779,33.9116883" id="Fill-12" fill="#34495E"></path>
                                <path d="M42.4991056,67.8233766 C52.5592228,67.8233766 60.7142857,59.7252486 60.7142857,49.7371429 L24.2857143,49.7371429 C24.2857143,59.7252486 32.4389885,67.8233766 42.4991056,67.8233766" id="Fill-14" fill="#34495E"></path>
                            </g>
                            <path d="M13,0 L346,0 C353.179702,4.57467025e-16 359,5.82029825 359,13 L359,43.008 L359,43.008 L0,43.008 L0,13 C-8.79259876e-16,5.82029825 5.82029825,-4.57467025e-16 13,0 Z" id="Rectangle-2" fill="#FF5254"></path>
                            <polygon id="Fill-5" fill="#E9ECED" points="0 65.536 358 65.536 358 43.008 0 43.008"></polygon>
                            <path d="M64,23.5529419 C64,26.9456581 61.3141193,29.696 58.0009198,29.696 C54.6877204,29.696 52,26.9456581 52,23.5529419 C52,20.1602257 54.6877204,17.408 58.0009198,17.408 C61.3141193,17.408 64,20.1602257 64,23.5529419" id="Fill-6" fill="#FFFFFF"></path>
                            <path d="M47,23.5529419 C47,26.9456581 44.3122796,29.696 40.9990802,29.696 C37.6858807,29.696 35,26.9456581 35,23.5529419 C35,20.1602257 37.6858807,17.408 40.9990802,17.408 C44.3122796,17.408 47,20.1602257 47,23.5529419" id="Fill-7" fill="#FFFFFF"></path>
                            <path d="M31,23.5529419 C31,26.9456581 28.3141193,29.696 24.9990802,29.696 C21.6858807,29.696 19,26.9456581 19,23.5529419 C19,20.1602257 21.6858807,17.408 24.9990802,17.408 C28.3141193,17.408 31,20.1602257 31,23.5529419" id="Fill-8" fill="#FFFFFF"></path>
                            <path d="M77.5,19.456 L303.5,19.456 C304.880712,19.456 306,20.5752881 306,21.956 L306,23.1 C306,24.4807119 304.880712,25.6 303.5,25.6 L77.5,25.6 C76.1192881,25.6 75,24.4807119 75,23.1 L75,21.956 C75,20.5752881 76.1192881,19.456 77.5,19.456 Z" id="Rectangle-3" fill="#FFFFFF"></path>
                            <polygon id="Fill-10" fill="#FFFFFF" points="327.498121 15.36 328.796549 19.27129 333 19.27129 329.598907 21.68871 330.899214 25.6 327.498121 23.1825799 324.098907 25.6 325.397335 21.68871 322 19.27129 326.201572 19.27129"></polygon>
                            <g id="Group-6" transform="translate(138.000000, 84.992000)" fill="#FFDA00">
                                <polygon id="Fill-11" points="178.474576 0 182.37682 12.5156219 195 12.5156219 184.78525 20.2523781 188.687493 32.768 178.474576 25.0331546 168.261659 32.768 172.163903 20.2523781 161.949153 12.5156219 174.572333 12.5156219"></polygon>
                                <polygon id="Fill-12" points="137.711864 0 141.614108 12.5156219 154.237288 12.5156219 144.022538 20.2523781 147.924782 32.768 137.711864 25.0331546 127.498947 32.768 131.401191 20.2523781 121.186441 12.5156219 133.809621 12.5156219"></polygon>
                                <polygon id="Fill-13" points="96.9491525 0 100.851396 12.5156219 113.474576 12.5156219 103.259826 20.2523781 107.16207 32.768 96.9491525 25.0331546 86.7362354 32.768 90.636646 20.2523781 80.4237288 12.5156219 93.048742 12.5156219"></polygon>
                                <polygon id="Fill-14" points="56.1864407 0 60.0868512 12.5156219 72.7118644 12.5156219 62.4989473 20.2523781 66.3993578 32.768 56.1864407 25.0331546 45.9735235 32.768 49.8739341 20.2523781 39.6610169 12.5156219 52.2860301 12.5156219"></polygon>
                                <polygon id="Fill-15" points="16.5254237 0 20.4258343 12.5156219 33.0508475 12.5156219 22.8379303 20.2523781 26.7383409 32.768 16.5254237 25.0331546 6.31250658 32.768 10.2129171 20.2523781 0 12.5156219 12.6250132 12.5156219"></polygon>
                            </g>
                            <g id="Group-7" transform="translate(141.000000, 132.096000)" fill="#DADFE1">
                                <polygon id="Fill-16" points="0 45.056 102.3 45.056 102.3 37.1712 0 37.1712"></polygon>
                                <polygon id="Fill-17" points="0 25.9072 145.2 25.9072 145.2 18.0224 0 18.0224"></polygon>
                                <polygon id="Fill-18" points="0 7.8848 187 7.8848 187 0 0 0"></polygon>
                            </g>
                        </g>
                    </g>
                </g>
            </g>
        </g>
    </g>
</svg>