<svg height="342" viewBox="0 0 404 342" width="404" xmlns="http://www.w3.org/2000/svg" xmlns:xlink="http://www.w3.org/1999/xlink"><defs><linearGradient id="a" x1="61.639116%" x2="56.14438%" y1="14.633794%" y2="85.366206%"><stop offset="0" stop-color="#427fdf"/><stop offset="1" stop-color="#396bb1"/></linearGradient><path id="b" d="m319.879566 150.752177h41.329736v-124.2561957h-41.329736zm0 150.752009h41.329736v-124.256363h-41.329736zm-58.932003-150.752009h44.90055v-124.2561957h-44.90055zm0 150.752009h44.90055v-124.256363h-44.90055zm-55.361189-150.752009h41.329903v-124.2561957h-41.329903zm0 150.752009h41.329903v-124.256363h-41.329903zm-62.502484-181.615793h41.329903v-93.3924117h-41.329903zm0 181.615793h41.329903v-91.823701h-41.329903zm15.588991-105.753474c0 3.229493-19.376452 13.80557-22.604885 13.80557s-17.753132-10.576077-17.753132-13.80557v-26.622444c-5.444957-2.293621-12.370574-15.454926-12.370574-21.735883 0-8.363221 21.763232-26.51037 30.123706-26.51037 8.360642 0 28.28018 18.147149 28.28018 26.51037 0 6.280957 5.445124 19.442262 0 21.735883zm-74.5209941 105.753474h44.9005501v-91.781211h-44.9005501zm-52.2491155-150.752009h38.2178295v-124.2561957h-38.2178295zm0 150.752009h38.2178295v-124.256363h-38.2178295zm52.2491155-184.753548h44.9005501v-90.2548242h-44.9005501zm305.8481131-106.3733175c0-5.70750952-4.668278-10.3773205-10.373746-10.3773205h-369.2523409c-5.70563544 0-10.3739131 4.66981098-10.3739131 10.3773205v5.7413403c0 5.707342 4.66827766 10.377153 10.3739131 10.377153l.3562779 124.2563632c-6.06191334 0-10.730191 4.669643-10.730191 10.377153v5.74134c0 5.707342 4.66827766 10.377153 10.3739131 10.377153l.3562779 124.256363c-6.06191334 0-10.730191 4.669811-10.730191 10.377321v5.741172c0 5.70751 4.66827766 10.377321 10.3739131 10.377321h369.2523409c5.705468 0 10.373746-4.669811 10.373746-10.377321v-5.741172c0-4.752546-3.240655-8.775051-7.61795-9.991617v-125.02777c4.377295-1.216566 7.61795-5.239072 7.61795-9.99145v-5.74134c0-4.752378-3.240655-8.774884-7.61795-9.99145v-125.0277698c4.377295-1.2167334 7.61795-5.2390714 7.61795-9.9914494z"/><filter id="c" height="106.7%" width="105.6%" x="-2.8%" y="-3%"><feOffset dx="0" dy="1" in="SourceAlpha" result="shadowOffsetOuter1"/><feGaussianBlur in="shadowOffsetOuter1" result="shadowBlurOuter1" stdDeviation="3.5"/><feColorMatrix in="shadowBlurOuter1" type="matrix" values="0 0 0 0 0   0 0 0 0 0   0 0 0 0 0  0 0 0 0.2 0"/></filter><linearGradient id="d" x1="50%" x2="64.605575%" y1="11.799726%" y2="81.928084%"><stop offset="0" stop-color="#fde765"/><stop offset="1" stop-color="#f9ca35"/></linearGradient><path id="e" d="m142.737359 164.536459v28.54873c0 3.232163-2.632363 5.876492-5.849863 5.876492-3.217333 0-5.849529-2.644329-5.849529-5.876492v-28.54873c-5.426235-2.295518-9.236546-7.686758-9.236546-13.972906 0-8.370133 6.754346-15.155612 15.086075-15.155612 8.331896 0 15.086242 6.785479 15.086242 15.155612 0 6.286148-3.810144 11.677388-9.236379 13.972906zm-71.737359 58.463541h135v-118h-135z"/><filter id="f" height="118.6%" width="116.3%" x="-8.1%" y="-8.5%"><feOffset dx="0" dy="1" in="SourceAlpha" result="shadowOffsetOuter1"/><feGaussianBlur in="shadowOffsetOuter1" result="shadowBlurOuter1" stdDeviation="3.5"/><feColorMatrix in="shadowBlurOuter1" type="matrix" values="0 0 0 0 0   0 0 0 0 0   0 0 0 0 0  0 0 0 0.2 0"/></filter></defs><g fill="none" fill-rule="evenodd" transform="translate(7 6)"><g><use fill="#000" filter="url(#c)" xlink:href="#b"/><use fill="url(#a)" fill-rule="evenodd" xlink:href="#b"/></g><g><use fill="#000" filter="url(#f)" xlink:href="#e"/><use fill="url(#d)" fill-rule="evenodd" xlink:href="#e"/></g></g></svg>