<svg height="237" viewBox="0 0 261 237" width="261" xmlns="http://www.w3.org/2000/svg" xmlns:xlink="http://www.w3.org/1999/xlink"><linearGradient id="a" x1="47.207507%" x2="66.153043%" y1="-48.596354%" y2="60.425403%"><stop offset="0" stop-color="#80c3f3"/><stop offset=".236195528" stop-color="#7ec1f2"/><stop offset="1" stop-color="#4a90e2"/></linearGradient><linearGradient id="b" x1="50%" x2="42.716941%" y1="75.657519%" y2="4.872297%"><stop offset="0" stop-color="#da3e3f"/><stop offset="1" stop-color="#ff5254"/></linearGradient><g fill="none" fill-rule="evenodd" transform="translate(0 -1)"><ellipse cx="78" cy="227" fill="#000" opacity=".05" rx="78" ry="11"/><ellipse cx="183.5" cy="208" fill="#000" opacity=".05" rx="64.5" ry="8"/><path d="m150 39.9998586c0 1.6559038 1.343642 3.0001414 3.000849 3.0001414 1.656074 0 2.999151-1.3442376 2.999151-3.0001414 0-1.6566109-1.343077-2.9998586-2.999151-2.9998586-1.657207 0-3.000849 1.3432477-3.000849 2.9998586" fill="#10437f"/><g transform="matrix(.9961947 -.08715574 .08715574 .9961947 129.464117 10.690042)"><path d="m109.847128.14385582v118.45758518h-89.8729343c-4.7419854 10.404892-9.0126732 14.12757-9.0126732 14.12757 1.4469036-11.592749-10.18291447-14.12757-10.18291447-14.12757v-118.45758518z" fill="#2b6ab4"/><path d="m10.9615348 132.729068h109.0680932v-118.4577278h-109.0680932z" fill="url(#a)"/><g fill="#10437f"><path d="m20.9477772 7.94615325h.0432999v6.23184105h-9.5545653s9.3880821-2.7319132 9.5112654-6.23184105"/><path d="m91.8329849 32.3812484c0 1.6785091 1.358446 3.0410972 3.0328528 3.0410972 1.6729778 0 3.0304235-1.3625881 3.0304235-3.0410972 0-1.6792257-1.3574457-3.0408104-3.0304235-3.0408104-1.6744068 0-3.0328528 1.3615847-3.0328528 3.0408104"/><path d="m120.029599 14.2713688h-16.88783v-6.83343808c.691513 2.4359165 4.896036 4.99352848 16.88783 6.83343808"/></g><path d="m20.516043.14322513h89.040089s-7.492031 3.49777771-6.414392 7.29470559v6.83343808h-82.625697v-6.23184095h-.0433c.0841705-2.47848843-4.4710392-5.34270425-20.34782301-7.89630272z" fill="#4a90e2"/><path d="m41.1246516 34.2408816v17.3891241c0 10.3158785 11.6092399 18.7097137 25.8764953 18.7097137 14.2658263 0 25.8752091-8.3938352 25.8752091-18.7097137v-17.3891241h3.8669838v17.3891241c0 12.4553683-13.3419516 22.5879152-29.7421929 22.5879152-16.4015275 0-29.7433362-10.1325469-29.7433362-22.5879152v-17.3891241z" fill="#10437f"/><path d="m41.1246516 32.3021535v17.3888375c0 10.3164518 11.6092399 18.7085669 25.8764953 18.7085669 14.2658263 0 25.8752091-8.3921151 25.8752091-18.7085669v-17.3888375h3.8669838v17.3888375c0 12.4550816-13.3419516 22.5880585-29.7421929 22.5880585-16.4015275 0-29.7433362-10.1329769-29.7433362-22.5880585v-17.3888375z" fill="#f2f8ef"/></g><path d="m123 144.500071c0 2.485118-1.791013 4.499929-3.999937 4.499929-2.209176 0-4.000063-2.014811-4.000063-4.499929 0-2.48526 1.790887-4.500071 4.000063-4.500071 2.208924 0 3.999937 2.014811 3.999937 4.500071" fill="#751323"/><path d="m120 73.4999293c0 2.4852593-1.790944 4.5000707-3.999812 4.5000707-2.209496 0-4.000188-2.0148114-4.000188-4.5000707 0-2.4852592 1.790692-4.4999293 4.000188-4.4999293 2.208868 0 3.999812 2.0146701 3.999812 4.4999293" fill="#751323"/><path d="m137 26v135.803802h-102.1766867c-5.3909962 11.928195-10.2463212 16.196198-10.2463212 16.196198 1.6443918-13.290284-11.5769921-16.196198-11.5769921-16.196198v-135.803802z" fill="#c43738"/><path d="m24 178h124v-135h-124z" fill="url(#b)"/><g fill="#ad2425"><path d="m117 63.4996728c0 1.9322214 1.56783 3.5003272 3.501505 3.5003272 1.931319 0 3.498495-1.5681058 3.498495-3.5003272 0-1.9324832-1.567176-3.4996728-3.498495-3.4996728-1.933675 0-3.501505 1.5671896-3.501505 3.4996728"/><path d="m53 63.4996728c0 1.9322214 1.5675549 3.5003272 3.5004582 3.5003272 1.9326414 0 3.4995418-1.5681058 3.4995418-3.5003272 0-1.9324832-1.5669004-3.4996728-3.4995418-3.4996728-1.9329033 0-3.5004582 1.5671896-3.5004582 3.4996728"/><path d="m148 43h-19v-8c.777923 2.8515418 5.5086 5.8456674 19 8"/></g><path d="m34.2921523 26h101.7078477s-8.558016 3.9611726-7.326858 8.2612965v7.7387035h-94.3809897v-7.0574524h-.0498576c.0963481-2.8070379-5.1068376-6.0506431-23.2422947-8.9425476z" fill="#e74849"/><path d="m34.9497502 35h.0502498v7h-11s10.8081373-3.0687749 10.9497502-7" fill="#ad2425"/><path d="m58.4202449 66v19.5738883c0 11.6121558 13.2708436 21.0602727 29.5802735 21.0602727 16.3082636 0 29.5791066-9.4481169 29.5791066-21.0602727v-19.5738883h4.420375v19.5738883c0 14.0202986-15.251899 25.4261117-33.9994816 25.4261117-18.7491376 0-34.0005184-11.4058131-34.0005184-25.4261117v-19.5738883z" fill="#ad2425"/><path d="m58.4202449 63v19.5735433c0 11.612767 13.2708436 21.0596847 29.5802735 21.0596847 16.3082636 0 29.5791066-9.4469177 29.5791066-21.0596847v-19.5735433h4.420375v19.5735433c0 14.0201623-15.251899 25.4264567-33.9994816 25.4264567-18.7491376 0-34.0005184-11.4062944-34.0005184-25.4264567v-19.5735433z" fill="#f2f8ef"/></g></svg>