<svg height="422" viewBox="0 0 409 422" width="409" xmlns="http://www.w3.org/2000/svg" xmlns:xlink="http://www.w3.org/1999/xlink"><filter id="a" height="326.4%" width="111.3%" x="-5.7%" y="-113.2%"><feGaussianBlur in="SourceGraphic" stdDeviation="2.64107143"/></filter><filter id="b" height="197.5%" width="111.3%" x="-5.7%" y="-48.8%"><feGaussianBlur in="SourceGraphic" stdDeviation="2.11285714"/></filter><filter id="c" height="320.1%" width="111.3%" x="-5.7%" y="-110%"><feGaussianBlur in="SourceGraphic" stdDeviation="3.30133929"/></filter><linearGradient id="d"><stop offset="0" stop-color="#facf00"/><stop offset="1" stop-color="#f2a100"/></linearGradient><linearGradient id="e" x1="82.240104%" x2="34.900173%" xlink:href="#d" y1="3.361304%" y2="105.628734%"/><linearGradient id="f" x1="50%" x2="50%" y1="0%" y2="100%"><stop offset="0" stop-color="#fff400"/><stop offset="1" stop-color="#ffe600"/></linearGradient><linearGradient id="g"><stop offset="0" stop-color="#fce141"/><stop offset="1" stop-color="#efbe23"/></linearGradient><linearGradient id="h" x1="50%" x2="62.892641%" xlink:href="#g" y1="0%" y2="91.790386%"/><linearGradient id="i" x1="0%" x2="91.346927%" xlink:href="#d" y1="41.465518%" y2="61.378525%"/><linearGradient id="j"><stop offset="0" stop-color="#fde765"/><stop offset="1" stop-color="#f9ca35"/></linearGradient><linearGradient id="k" x1="50%" x2="64.605575%" xlink:href="#j" y1="42.033165%" y2="56.658742%"/><linearGradient id="l" x1="16.81455%" x2="64.605575%" xlink:href="#g" y1="42.04789%" y2="56.646435%"/><linearGradient id="m" x1="0%" x2="91.346927%" xlink:href="#d" y1="42.948619%" y2="59.401193%"/><linearGradient id="n" x1="50%" x2="64.605575%" xlink:href="#j" y1="43.931997%" y2="55.071683%"/><linearGradient id="o" x1="12.733994%" x2="113.113027%" xlink:href="#g" y1="50%" y2="51.91138%"/><linearGradient id="p" x1="19.259366%" x2="67.903471%" xlink:href="#j" y1="6.32262%" y2="98.91929%"/><linearGradient id="q" x1="50%" x2="64.605575%" xlink:href="#g" y1="1.371857%" y2="90.643777%"/><linearGradient id="r" x1="0%" x2="91.346927%" xlink:href="#d" y1="37.097285%" y2="67.202434%"/><linearGradient id="s" x1="0%" x2="91.218656%" y1="36.029618%" y2="63.970382%"><stop offset="0" stop-color="#db8f00"/><stop offset="1" stop-color="#c98300"/></linearGradient><mask id="t" fill="#fff"><path d="m16.9337016 20.2302283c-14.99249656 16.481315-20.98178034 35.4653386-13.37495277 42.4018583 7.60425597 6.9365197 25.55410597-1.1432126 40.54660257-17.6271023 14.9924965-16.481315 21.3469491-35.13061422 13.7452648-42.0645591-1.8927063-1.72769292-4.4488884-2.54390551-7.4525309-2.54390551-9.0649314 0-22.2032959 7.44890551-33.4643837 19.83370861z" fill="#fff" fill-rule="evenodd"/></mask><mask id="u" fill="#fff"><path d="m16.9337016 20.2302283c-14.99249656 16.481315-20.98178034 35.4653386-13.37495277 42.4018583 7.60425597 6.9365197 25.55410597-1.1432126 40.54660257-17.6271023 14.9924965-16.481315 21.3469491-35.13061422 13.7452648-42.0645591-1.8927063-1.72769292-4.4488884-2.54390551-7.4525309-2.54390551-9.0649314 0-22.2032959 7.44890551-33.4643837 19.83370861z" fill="#fff" fill-rule="evenodd"/></mask><mask id="v" fill="#fff"><path d="m.26672395 3.4322126c-1.42467291 4.44153543 12.47746025 12.6448583 30.96220555 18.5875039 18.4847453 5.9426457 34.5573187 7.3742363 35.9819916 2.9352756 1.4246729-4.4415354-12.4054551-12.8611417-30.8953436-18.80378738-10.9782106-3.53262992-21.1309338-5.39421259-27.86341334-5.39421259-4.60318503 0-7.60682756.87028346-8.18544021 2.67522047z" fill="#fff" fill-rule="evenodd"/></mask><mask id="w" fill="#fff"><path d="m.26672395 3.4322126c-1.42467291 4.44153543 12.47746025 12.6448583 30.96220555 18.5875039 18.4847453 5.9426457 34.5573187 7.3742363 35.9819916 2.9352756 1.4246729-4.4415354-12.4054551-12.8611417-30.8953436-18.80378738-10.9782106-3.53262992-21.1309338-5.39421259-27.86341334-5.39421259-4.60318503 0-7.60682756.87028346-8.18544021 2.67522047z" fill="#fff" fill-rule="evenodd"/></mask><mask id="x" fill="#fff"><path d="m0 .69072121h91.7190934v31.95218209h-91.7190934z" fill="#fff" fill-rule="evenodd"/></mask><mask id="y" fill="#fff"><path d="m32.5125256 4.64751969c-18.8139116 4.79685826-33.13521748 12.35133071-31.98570703 16.87268501 1.14951046 4.5213544 17.27865933 4.0759134 36.09257093-.7209449 18.8139116-4.7968582 33.1917929-12.1324724 32.0448541-16.65125193-.5528965-2.17313385-4.5774689-3.25197637-10.6979049-3.24940617-6.616757 0-15.6816885 1.25650854-25.4538131 3.74891799z" fill="#fff" fill-rule="evenodd"/></mask><mask id="z" fill="#fff"><path d="m32.5125256 4.64751969c-18.8139116 4.79685826-33.13521748 12.35133071-31.98570703 16.87268501 1.14951046 4.5213544 17.27865933 4.0759134 36.09257093-.7209449 18.8139116-4.7968582 33.1917929-12.1324724 32.0448541-16.65125193-.5528965-2.17313385-4.5774689-3.25197637-10.6979049-3.24940617-6.616757 0-15.6816885 1.25650854-25.4538131 3.74891799z" fill="#fff" fill-rule="evenodd"/></mask><mask id="A" fill="#fff"><path d="m.37766509 47.7704454c0 26.2552678 21.26208601 46.2692126 47.48481101 46.2692126 26.2252967 0 47.4848111-20.0139448 47.4848111-46.2692126 0-26.2578425-21.2595144-47.54631492-47.4848111-47.54631492-26.222725 0-47.48481101 21.28847242-47.48481101 47.54631492z" fill="#fff" fill-rule="evenodd"/></mask><mask id="B" fill="#fff"><path d="m.06429029 48.4294724c0 26.2552678 21.26208601 46.2692126 47.48481101 46.2692126 26.2252967 0 47.4848111-20.0139448 47.4848111-46.2692126 0-26.2578425-21.2595144-47.54631492-47.4848111-47.54631492-26.222725 0-47.48481101 21.28847242-47.48481101 47.54631492z" fill="#fff" fill-rule="evenodd"/></mask><g fill="none" fill-rule="evenodd" transform="translate(4)"><g fill="#000"><ellipse cx="329" cy="405.5" filter="url(#a)" opacity=".1" rx="70" ry="3.5"/><ellipse cx="56" cy="410.5" fill-opacity=".6" filter="url(#b)" opacity=".1" rx="56" ry="6.5"/><ellipse cx="186.5" cy="388.5" filter="url(#c)" opacity=".1" rx="87.5" ry="4.5"/></g><g transform="translate(291.564559 203.723636)"><path d="m74.9297185 6.27016063c-12.1997262-.34244882-30.2215814 9.71473227-45.5921048 26.61316537-15.3679518 16.8984331-23.68711587 35.8026378-22.20843911 47.9325354l-2.57161175 2.8271339 13.58582486 12.3899527c10.1244355 9.230669 34.0764274-1.150937 54.5284557-23.6392677 20.4520282-22.4857559 28.5423186-47.3326063 18.4153117-56.5632756l-13.5858249-12.38995273z" fill="url(#e)"/><path d="m70.9642932 15.7320472c7.676261 6.998315 1.2600897 25.820126-13.8712738 42.458504-15.1313636 16.6358031-33.2483684 24.7902047-40.9272011 17.7893149-7.67368948-6.9983149-1.6304019-26.16 13.4983901-42.7983779 15.1339352-16.6358032 33.6238237-24.45033072 41.3000848-17.449441" fill="#ffc30d"/><path d="m59.0855041 60.0052724c-20.4520282 22.4857559-44.4040201 32.869937-54.52845559 23.6392678-10.20158382-9.3027638-2.14215259-34.8602599 17.96785129-56.9726693 20.1125756-22.11240948 44.7717607-32.53263783 54.9759161-23.22987405 10.1244355 9.23066925 2.0341449 34.07751965-18.4153118 56.56327555" fill="url(#f)"/><path d="m25.1021691 29.0208638c-17.32751996 19.0509685-24.2734433 41.0732598-15.48367433 49.088622 8.67404643 7.9046457 29.26751333-1.0788425 46.89076873-20.4516614 17.6206837-19.3753937 24.633469-40.7462598 15.9619941-48.65348031-8.7923405-8.0153622-30.0415685.96297638-47.3690885 20.01651971" fill="#f0a700"/><path d="m25.8782816 29.7273898c-16.90063248 18.5823543-23.67682945 40.0613622-15.1030759 47.8758897 8.4580311 7.7115355 28.5474621-1.0479449 45.7335435-19.947 17.1886529-18.8964803 24.0265686-39.7395118 15.5685375-47.4510472-8.5737536-7.81710238-29.3009443.9398031-46.1990051 19.5221575" fill="url(#h)"/><g fill="#fd0"><path d="m14.0120934 71.901378-6.87134656 2.9043779 26.62132486-84.40204724 6.8713466-2.90180316z" mask="url(#t)" opacity=".326004" transform="translate(10.286447 10.72148)"/><path d="m32.4176331 70.2254386-16.1265773 6.8155039 28.7351897-91.1197086 16.1317206 9.18432279z" mask="url(#u)" opacity=".326004" transform="translate(10.286447 10.72148)"/></g></g><g transform="translate(241.731505 12.874016)"><path d="m92.906418 133.9578c-5.3283796-6.117732-20.6577573-14.171717-39.6105359-20.266276-18.950207-6.091984-36.1002858-8.481401-43.98999065-6.609519l-3.17079729-1.019622-5.35923889 16.707897c-1.89527787 5.911748 16.37088043 16.893284 41.59067693 25.001339 25.2172248 8.108055 46.4561663 9.828023 48.3514441 3.913701l5.3592389-16.707898z" fill="url(#i)"/><path d="m84.4131558 132.861449c-1.437531 4.482732-17.6566863 3.038267-36.3163012-2.961024-18.6570432-5.999291-32.687757-14.277283-31.2476544-18.76259 1.4349594-4.482733 17.7261198-3.251977 36.3857347 2.74474 18.6570433 5.999291 32.6183235 14.496141 31.1782209 18.978874" fill="#ffc30d"/><path d="m47.7247424 131.063721c-25.2197965-8.108055-43.48595475-19.08959-41.59067688-25.001338 1.90813592-5.958095 23.64082688-4.32052 48.43630738 3.65107 24.7980521 7.974166 43.4190928 19.305874 41.5083853 25.263969-1.8978495 5.911748-23.1367909 4.191779-48.3540158-3.913701" fill="url(#k)"/><path d="m54.08871 111.218426c-21.367522-6.869575-40.0888556-8.280567-41.7346871-3.148984-1.6252587 5.064637 14.1232917 14.503866 35.853411 21.489307 21.7275477 6.985441 40.0194221 8.4917 41.6446808 3.427063 1.6484031-5.134158-14.3958826-14.900386-35.7634047-21.767386" fill="#f0a700"/><path d="m53.9428996 111.671076c-20.8403416-6.699638-39.0987851-8.077157-40.7034708-3.069165-1.5841128 4.938472 13.7735525 14.143394 34.9687766 20.956323 21.1926525 6.815504 39.0319232 8.283141 40.6160361 3.344669 1.6046857-5.007992-14.0410002-14.532189-34.8813419-21.231827" fill="url(#l)"/><path d="m-1.50588803 9.51132283-5.18951252-3.15670866 71.76082595 5.41223623 5.1843693 3.1567087z" fill="#fd0" mask="url(#v)" opacity=".401842" transform="translate(17.374533 106.303384)"/><path d="m8.08236639 18.5396126-12.17658165-7.4128583 77.46980406 5.8448032 12.1765817 7.4102834z" fill="#fd0" mask="url(#w)" opacity=".401842" transform="translate(17.374533 106.303384)"/><g fill="#eff1f4"><path d="m43.2347083 64.7777314c-.6969068 0-1.2575182-1.7251181-1.2575182-3.8519055v-56.91602365c0-2.1267874.5606114-3.85190551 1.2575182-3.85190551s1.2600897 1.72511811 1.2600897 3.85190551v56.91602365c0 2.1267874-.5631829 3.8519055-1.2600897 3.8519055"/><path d="m57.1800445 58.45247c-.6969068 0-1.2600898-1.086567-1.2600898-2.4280394v-33.3102284c0-1.3414724.563183-2.4306141 1.2600898-2.4306141s1.2600898 1.0891417 1.2600898 2.4306141v33.3102284c0 1.3414724-.563183 2.4280394-1.2600898 2.4280394"/></g></g><g transform="translate(0 60.507874)"><path d="m88.4035258 109.60042c-7.7611243-2.350796-25.0217824-1.019622-44.3114422 3.898252-19.2896597 4.917874-35.08449911 12.016606-40.77804753 17.797039l-3.22737275.821362 4.32545097 17.00915c1.53010899 6.01474 22.83591241 5.602771 48.50316931-.942378 25.6646853-6.54515 44.5737465-16.383473 43.0436375-22.400788l-4.3280226-17.006574z" fill="url(#m)"/><path d="m80.6285148 113.188408c1.1597969 4.559976-13.3492366 11.962535-32.3405894 16.80574-18.9887812 4.843205-35.2696552 5.29122-36.4294521.728669-1.1597969-4.565126 13.2926611-12.189118 32.2840139-17.029748 18.9887812-4.843205 35.3236591-5.067212 36.4860276-.504661" fill="#ffc30d"/><path d="m48.588804 27.4507488c-25.667257 6.5425748-46.97306034 6.9545433-48.50316933.9372284-1.54039544-6.0636615 17.73897783-16.2315591 42.97677563-22.66599216 25.2403694-6.43443307 47.0270641-6.73825984 48.5700312-.67459843 1.530109 6.01988979-17.3763806 15.85821259-43.0436375 22.40336219" fill="url(#n)" mask="url(#x)" transform="translate(0 103.728581)"/><path d="m43.4517523 110.980772c-21.7481206 5.543551-38.3581609 14.305606-37.02863762 19.529881 1.30895038 5.154756 19.65997182 4.773685 41.77583292-.862559 22.1158611-5.638819 38.4147364-14.094472 37.1032144-19.249228-1.3295233-5.224276-20.1022891-4.96422-41.8504097.581906" fill="#f0a700"/><path d="m43.5685035 111.440889c-21.2106538 5.409661-37.4118078 13.952858-36.11571548 19.048394 1.27809104 5.02859 19.17650888 4.657818 40.74718828-.841961 21.5681077-5.497205 37.4658116-13.746874 36.1851489-18.77289-1.2960923-5.095535-19.605968-4.843205-40.8166217.566457" fill="url(#o)"/><path d="m2.25031277 27.6142488-6.06900374.0823937 63.66539217-33.58315746 6.0690038-.0823937z" fill="#fd0" mask="url(#y)" opacity=".398549" transform="translate(11.258878 107.590786)"/><path d="m15.1636612 30.1615016-14.24930073.1982598 68.73403893-36.25580313 14.2493007-.19825984z" fill="#fd0" mask="url(#z)" opacity=".398549" transform="translate(11.258878 107.590786)"/><g fill="#eff1f4"><path d="m42.811421 64.86064c-.6969068 0-1.2600898-1.7251181-1.2600898-3.8519055v-56.91602359c0-2.1267874.563183-3.85190551 1.2600898-3.85190551s1.2600898 1.72511811 1.2600898 3.85190551v56.91602359c0 2.1267874-.563183 3.8519055-1.2600898 3.8519055"/><path d="m56.7570144 58.5340912c-.6969068 0-1.2600898-1.0865669-1.2600898-2.4280393v-33.3128032c0-1.3388976.563183-2.4254646 1.2600898-2.4254646s1.2600897 1.086567 1.2600897 2.4254646v33.3128032c0 1.3414724-.5631829 2.4280393-1.2600897 2.4280393"/></g></g><g transform="translate(118.294141)"><path d="m112.193506 239.582662c0 26.502449-21.4601 46.70178-47.9296998 46.70178-26.4670281 0-47.9245566-20.199331-47.9245566-46.70178s21.4575285-47.989181 47.9245566-47.989181c26.4695998 0 47.9296998 21.486732 47.9296998 47.989181" fill="#ffc30d"/><path d="m64.2645777 293.158136c-35.7762627 0-63.79911597-27.380457-63.79911597-62.333409 0-35.223307 28.61946717-63.880866 63.79911597-63.880866s63.8016873 28.657559 63.8016873 63.880866c0 34.952952-28.025425 62.333409-63.8016873 62.333409" fill="url(#p)"/><path d="m64.2645777 175.836201c-30.3115877 0-54.97077282 24.692362-54.97077282 55.041567 0 29.937236 24.14486272 53.388543 54.97077282 53.388543s54.9733443-23.451307 54.9733443-53.388543c0-30.349205-24.6591849-55.041567-54.9733443-55.041567" fill="#f0a700"/><path d="m64.2645777 178.513996c-29.5632487 0-53.6155334 24.082134-53.6155334 53.682071 0 29.195693 23.5508204 52.070244 53.6155334 52.070244s53.6181053-22.874551 53.6181053-52.070244c0-29.599937-24.0522849-53.682071-53.6181053-53.682071" fill="url(#q)"/><path d="m.60396693 83.4098407-7.97199644-7.9844645 94.51444681-94.6317402 7.974568 7.9818898z" fill="#fd0" mask="url(#A)" opacity=".445145" transform="translate(16.402102 182.919104)"/><path d="m16.3456786 115.929482-18.71876193-18.7419922 102.04155443-102.16561421 18.7187619 18.73941731z" fill="#fd0" mask="url(#B)" opacity=".445145" transform="translate(16.715476 182.260077)"/><g fill="#eff1f4"><path d="m37.4460102 129.791511c-.9412099 0-1.702407-2.327622-1.702407-5.201102v-119.32925242c0-2.87348031.7611971-5.20110236 1.702407-5.20110236.9386383 0 1.702407 2.32762205 1.702407 5.20110236v119.32925242c0 2.87348-.7637687 5.201102-1.702407 5.201102"/><path d="m53.9629582 122.587469c-.9386383 0-1.702407-1.467638-1.702407-3.277724v-37.620449c0-1.8100867.7637687-3.2777245 1.702407-3.2777245.9412099 0 1.702407 1.4676378 1.702407 3.2777245v37.620449c0 1.810086-.7611971 3.277724-1.702407 3.277724"/><path d="m70.4814491 129.791511c-.9412099 0-1.7024069-1.467638-1.7024069-3.277724v-64.0353548c0-1.8100866.761197-3.2777244 1.7024069-3.2777244.9386383 0 1.702407 1.4676378 1.702407 3.2777244v64.0353548c0 1.810086-.7637687 3.277724-1.702407 3.277724"/></g></g><g transform="translate(25.402743 278.392927)"><path d="m2.59182281 16.3592693c3.22737275 5.3839134 13.73754999 12.9744331 27.22565359 19.1668346 13.4881037 6.1949764 26.0915729 9.2152205 32.2711559 8.1518268l2.2578752 1.0376457 5.7655535-12.5907874c2.18587-4.7685355-10.1630096-14.9621811-28.1077165-23.2015512-17.9472784-8.24194489-33.71897326-10.96093701-35.90227164-6.18982678l-5.76555355 12.59078738z" fill="url(#r)"/><path d="m8.84495395 17.7849378c1.65611795-3.6175984 13.68354615-1.4315906 26.96077765 4.6655433 13.2798031 6.0971339 22.7819085 13.7957953 21.1257905 17.4133937-1.6561179 3.6150236-13.7658377 1.6041024-27.0430692-4.4904567-13.2772315-6.0971338-22.70218853-13.9734567-21.04349895-17.5884803" fill="#ffc30d"/><path d="m36.2375052 21.5114504c17.9472784 8.2419449 30.2935864 18.4330157 28.1077165 23.204126-2.2012997 4.8071575-18.3510215 2.1242126-35.9974214-5.9786929-17.6489714-8.1029055-30.21386646-18.6055276-28.0125668-23.4126851 2.18586999-4.7711102 17.9549933-2.0521181 35.9022717 6.187252" fill="#f2a500"/><path d="m28.9030113 37.5236362c15.2059403 6.9828662 29.1209315 9.2924646 31.018781 5.1496063 1.8721333-4.0862126-8.7769109-12.8456929-24.2400124-19.947-15.4656731-7.1013071-29.04378315-9.4624016-30.91591651-5.376189-1.89784947 4.1402835 8.93120761 13.1907166 24.13714791 20.1735827" fill="url(#s)"/></g></g></svg>