<svg height="492" viewBox="0 0 497 492" width="497" xmlns="http://www.w3.org/2000/svg" xmlns:xlink="http://www.w3.org/1999/xlink"><defs><linearGradient id="a" x1="94.323317%" x2="9.127726%" y1="0%" y2="100%"><stop offset="0" stop-color="#addbff"/><stop offset="1" stop-color="#74b5ff"/></linearGradient><rect id="b" height="411.034483" rx="200" width="410.845588" x="44.117647" y="68.965517"/><filter id="c" height="107.8%" width="107.8%" x="-3.9%" y="-3.4%"><feOffset dx="0" dy="2" in="SourceAlpha" result="shadowOffsetOuter1"/><feGaussianBlur in="shadowOffsetOuter1" result="shadowBlurOuter1" stdDeviation="5"/><feColorMatrix in="shadowBlurOuter1" type="matrix" values="0 0 0 0 0   0 0 0 0 0   0 0 0 0 0  0 0 0 0.2 0"/></filter><filter id="d" height="120.8%" width="120.7%" x="-10.2%" y="-10.4%"><feOffset dx="0" dy="2" in="SourceAlpha" result="shadowOffsetOuter1"/><feGaussianBlur in="shadowOffsetOuter1" result="shadowBlurOuter1" stdDeviation="2"/><feColorMatrix in="shadowBlurOuter1" result="shadowMatrixOuter1" type="matrix" values="0 0 0 0 0   0 0 0 0 0   0 0 0 0 0  0 0 0 0.251302083 0"/><feMerge><feMergeNode in="shadowMatrixOuter1"/><feMergeNode in="SourceGraphic"/></feMerge></filter><linearGradient id="e" x1="19.259366%" x2="67.903471%" y1="6.884905%" y2="98.289522%"><stop offset="0" stop-color="#fde765"/><stop offset="1" stop-color="#f9ca35"/></linearGradient><linearGradient id="f" x1="50%" x2="64.605575%" y1="1.997877%" y2="90.120545%"><stop offset="0" stop-color="#fce141"/><stop offset="1" stop-color="#efbe23"/></linearGradient><filter id="g" height="120.8%" width="120.7%" x="-10.2%" y="-10.4%"><feOffset dx="0" dy="2" in="SourceAlpha" result="shadowOffsetOuter1"/><feGaussianBlur in="shadowOffsetOuter1" result="shadowBlurOuter1" stdDeviation="2"/><feColorMatrix in="shadowBlurOuter1" result="shadowMatrixOuter1" type="matrix" values="0 0 0 0 0   0 0 0 0 0   0 0 0 0 0  0 0 0 0.251302083 0"/><feMerge><feMergeNode in="shadowMatrixOuter1"/><feMergeNode in="SourceGraphic"/></feMerge></filter><filter id="h" height="120.8%" width="120.7%" x="-10.2%" y="-10.4%"><feOffset dx="0" dy="2" in="SourceAlpha" result="shadowOffsetOuter1"/><feGaussianBlur in="shadowOffsetOuter1" result="shadowBlurOuter1" stdDeviation="2"/><feColorMatrix in="shadowBlurOuter1" result="shadowMatrixOuter1" type="matrix" values="0 0 0 0 0   0 0 0 0 0   0 0 0 0 0  0 0 0 0.251302083 0"/><feMerge><feMergeNode in="shadowMatrixOuter1"/><feMergeNode in="SourceGraphic"/></feMerge></filter><filter id="i" height="128.6%" width="112.9%" x="-6.4%" y="-14.3%"><feOffset dx="0" dy="2" in="SourceAlpha" result="shadowOffsetOuter1"/><feGaussianBlur in="shadowOffsetOuter1" result="shadowBlurOuter1" stdDeviation="6.5"/><feColorMatrix in="shadowBlurOuter1" result="shadowMatrixOuter1" type="matrix" values="0 0 0 0 0   0 0 0 0 0   0 0 0 0 0  0 0 0 0.2 0"/><feMerge><feMergeNode in="shadowMatrixOuter1"/><feMergeNode in="SourceGraphic"/></feMerge></filter><mask id="j" fill="#fff"><path d="m.31617647 43.356489c0 23.8675862 19.45411763 42.061442 43.44705883 42.061442 23.9952941 0 43.4470588-18.1938558 43.4470588-42.061442 0-23.8699268-19.4517647-43.22240332-43.4470588-43.22240332-23.9929412 0-43.44705883 19.35247652-43.44705883 43.22240332z" fill="#fff" fill-rule="evenodd"/></mask><mask id="k" fill="#fff"><path d="m.05882353 44.0252456c0 23.8675862 19.45411767 42.061442 43.44705887 42.061442 23.9952941 0 43.4470588-18.1938558 43.4470588-42.061442 0-23.8699269-19.4517647-43.22240338-43.4470588-43.22240338-23.9929412 0-43.44705887 19.35247648-43.44705887 43.22240338z" fill="#fff" fill-rule="evenodd"/></mask><mask id="l" fill="#fff"><path d="m.31617647 43.356489c0 23.8675862 19.45411763 42.061442 43.44705883 42.061442 23.9952941 0 43.4470588-18.1938558 43.4470588-42.061442 0-23.8699268-19.4517647-43.22240332-43.4470588-43.22240332-23.9929412 0-43.44705883 19.35247652-43.44705883 43.22240332z" fill="#fff" fill-rule="evenodd"/></mask><mask id="m" fill="#fff"><path d="m.05882353 44.0252456c0 23.8675862 19.45411767 42.061442 43.44705887 42.061442 23.9952941 0 43.4470588-18.1938558 43.4470588-42.061442 0-23.8699269-19.4517647-43.22240338-43.4470588-43.22240338-23.9929412 0-43.44705887 19.35247648-43.44705887 43.22240338z" fill="#fff" fill-rule="evenodd"/></mask><mask id="n" fill="#fff"><path d="m.31617647 43.356489c0 23.8675862 19.45411763 42.061442 43.44705883 42.061442 23.9952941 0 43.4470588-18.1938558 43.4470588-42.061442 0-23.8699268-19.4517647-43.22240332-43.4470588-43.22240332-23.9929412 0-43.44705883 19.35247652-43.44705883 43.22240332z" fill="#fff" fill-rule="evenodd"/></mask><mask id="o" fill="#fff"><path d="m.05882353 44.0252456c0 23.8675862 19.45411767 42.061442 43.44705887 42.061442 23.9952941 0 43.4470588-18.1938558 43.4470588-42.061442 0-23.8699269-19.4517647-43.22240338-43.4470588-43.22240338-23.9929412 0-43.44705887 19.35247648-43.44705887 43.22240338z" fill="#fff" fill-rule="evenodd"/></mask></defs><g fill="none" fill-rule="evenodd" transform="translate(2)"><use fill="#000" filter="url(#c)" xlink:href="#b"/><use fill="url(#a)" fill-rule="evenodd" xlink:href="#b"/><g filter="url(#d)" transform="translate(56.985294 102.988506)"><path d="m102.653412 66.5373626c0 24.0922884-19.6352944 42.4546704-43.8541179 42.4546704-24.2164706 0-43.8494117-18.362382-43.8494117-42.4546704s19.6329411-43.6249948 43.8494117-43.6249948c24.2188235 0 43.8541179 19.5327064 43.8541179 43.6249948" fill="#ffc30d"/><path d="m58.8 115.240627c-32.7341176 0-58.37411765-24.8904494-58.37411765-56.664744 0-32.0200627 26.18588235-58.07147339 58.37411765-58.07147339s58.376471 26.05141069 58.376471 58.07147339c0 31.7742946-25.6423534 56.664744-58.376471 56.664744" fill="url(#e)"/><path d="m58.8 8.58807106c-27.7341176 0-50.29647059 22.44681294-50.29647059 50.03602924 0 27.2147127 22.09176469 48.5333337 50.29647059 48.5333337s50.298824-21.318621 50.298824-48.5333337c0-27.5892163-22.5623534-50.03602924-50.298824-50.03602924" fill="#f0a700"/><path d="m58.8 11.0223448c-27.0494118 0-49.05647059 21.8920794-49.05647059 48.8001672 0 26.5406061 21.54823529 47.334922 49.05647059 47.334922s49.058824-20.7943159 49.058824-47.334922c0-26.9080878-22.0070593-48.8001672-49.058824-48.8001672" fill="url(#f)"/><g fill="#fd0"><path d="m.52323529 75.7548004-7.29411764-7.258349 86.47764705-86.0258307 7.2964706 7.2560083z" mask="url(#j)" opacity=".445145" transform="translate(15.036765 15.09651)"/><path d="m14.9557647 105.386734-17.12705882-17.0375762 93.36470592-92.87456637 17.1270592 17.03523507z" mask="url(#k)" opacity=".445145" transform="translate(15.294118 14.427753)"/></g></g><g filter="url(#g)" transform="translate(115.808824 286.896552)"><path d="m102.653412 66.5373626c0 24.0922884-19.6352944 42.4546704-43.8541179 42.4546704-24.2164706 0-43.8494117-18.362382-43.8494117-42.4546704s19.6329411-43.6249948 43.8494117-43.6249948c24.2188235 0 43.8541179 19.5327064 43.8541179 43.6249948" fill="#ffc30d"/><path d="m58.8 115.240627c-32.7341176 0-58.37411765-24.8904494-58.37411765-56.664744 0-32.0200627 26.18588235-58.07147339 58.37411765-58.07147339s58.376471 26.05141069 58.376471 58.07147339c0 31.7742946-25.6423534 56.664744-58.376471 56.664744" fill="url(#e)"/><path d="m58.8 8.58807106c-27.7341176 0-50.29647059 22.44681294-50.29647059 50.03602924 0 27.2147127 22.09176469 48.5333337 50.29647059 48.5333337s50.298824-21.318621 50.298824-48.5333337c0-27.5892163-22.5623534-50.03602924-50.298824-50.03602924" fill="#f0a700"/><path d="m58.8 11.0223448c-27.0494118 0-49.05647059 21.8920794-49.05647059 48.8001672 0 26.5406061 21.54823529 47.334922 49.05647059 47.334922s49.058824-20.7943159 49.058824-47.334922c0-26.9080878-22.0070593-48.8001672-49.058824-48.8001672" fill="url(#f)"/><g fill="#fd0"><path d="m.52323529 75.7548004-7.29411764-7.258349 86.47764705-86.0258307 7.2964706 7.2560083z" mask="url(#l)" opacity=".445145" transform="translate(15.036765 15.09651)"/><path d="m14.9557647 105.386734-17.12705882-17.0375762 93.36470592-92.87456637 17.1270592 17.03523507z" mask="url(#m)" opacity=".445145" transform="translate(15.294118 14.427753)"/></g></g><g filter="url(#h)" transform="translate(373.161765 131.494253)"><path d="m102.653412 66.5373626c0 24.0922884-19.6352944 42.4546704-43.8541179 42.4546704-24.2164706 0-43.8494117-18.362382-43.8494117-42.4546704s19.6329411-43.6249948 43.8494117-43.6249948c24.2188235 0 43.8541179 19.5327064 43.8541179 43.6249948" fill="#ffc30d"/><path d="m58.8 115.240627c-32.7341176 0-58.37411765-24.8904494-58.37411765-56.664744 0-32.0200627 26.18588235-58.07147339 58.37411765-58.07147339s58.376471 26.05141069 58.376471 58.07147339c0 31.7742946-25.6423534 56.664744-58.376471 56.664744" fill="url(#e)"/><path d="m58.8 8.58807106c-27.7341176 0-50.29647059 22.44681294-50.29647059 50.03602924 0 27.2147127 22.09176469 48.5333337 50.29647059 48.5333337s50.298824-21.318621 50.298824-48.5333337c0-27.5892163-22.5623534-50.03602924-50.298824-50.03602924" fill="#f0a700"/><path d="m58.8 11.0223448c-27.0494118 0-49.05647059 21.8920794-49.05647059 48.8001672 0 26.5406061 21.54823529 47.334922 49.05647059 47.334922s49.058824-20.7943159 49.058824-47.334922c0-26.9080878-22.0070593-48.8001672-49.058824-48.8001672" fill="url(#f)"/><g fill="#fd0"><path d="m.52323529 75.7548004-7.29411764-7.258349 86.47764705-86.0258307 7.2964706 7.2560083z" mask="url(#n)" opacity=".445145" transform="translate(15.036765 15.09651)"/><path d="m14.9557647 105.386734-17.12705882-17.0375762 93.36470592-92.87456637 17.1270592 17.03523507z" mask="url(#o)" opacity=".445145" transform="translate(15.294118 14.427753)"/></g></g><g fill="#eff1f4" transform="translate(99.264706)"><path d="m1.75900101 86.4367816c-.97249905 0-1.75900101-1.5508356-1.75900101-3.4653627v-79.50605622c0-1.9145271.78650196-3.46536268 1.75900101-3.46536268.96984195 0 1.75900102 1.55083558 1.75900102 3.46536268v79.50605622c0 1.9145271-.78915907 3.4653627-1.75900102 3.4653627"/><path d="m17.0036765 81.7645231c-.969842 0-1.759001-.9701533-1.759001-2.1666757v-24.8682639c0-1.1965224.789159-2.1666758 1.759001-2.1666758.972499 0 1.759001.9701534 1.759001 2.1666758v24.8682639c0 1.1965224-.786502 2.1666757-1.759001 2.1666757"/><path d="m32.2483519 86.4367816c-.972499 0-1.759001-.9713989-1.759001-2.1694576v-42.3836694c0-1.1980587.786502-2.1694576 1.759001-2.1694576.969842 0 1.759001.9713989 1.759001 2.1694576v42.3836694c0 1.1980587-.789159 2.1694576-1.759001 2.1694576"/></g><g fill="#eff1f4" transform="translate(422.794118 45.977011)"><path d="m1.72334559 70.8045977c-.95018299 0-1.72334559-1.4701951-1.72334559-3.2834358v-37.686002c0-1.8132406.7731626-3.2834358 1.72334559-3.2834358.95278623 0 1.72334559 1.4701952 1.72334559 3.2834358v37.686002c0 1.8132407-.77055936 3.2834358-1.72334559 3.2834358"/><path d="m16.6590074 70.8045977c-.9527863 0-1.7233456-1.4720827-1.7233456-3.2876515v-64.22929472c0-1.81556873.7705593-3.28765148 1.7233456-3.28765148.9501829 0 1.7233455 1.47208275 1.7233455 3.28765148v64.22929472c0 1.8155688-.7731626 3.2876515-1.7233455 3.2876515"/></g><g filter="url(#i)" transform="matrix(.96592583 .25881905 -.25881905 .96592583 54.381491 103.270399)"><path d="m416.168308 29.9347962v-24.96709303s-4.069846-4.71833651-22.189616-4.37294194c-5.92876.11718745-125.615587-2.47943957-132.495418 3.13322215-6.873655 5.61266172-6.873655 19.96503952-6.873655 19.96503952s-82.168897 82.4999601-102.796039 89.9876201c-20.620965 7.487661-109.0644662 13.98848-118.4331409 18.361422-9.3748505 4.366774-24.37584654 15.598266-24.37584654 15.598266l-2.5011953 2.497942-6.24990035 19.348264c30.62574689 37.444472 134.99043709 36.834473 134.99043709 36.834473h297.049364c29.8723 0 26.679417-33.960297 26.679417-33.960297-4.082198-104.7532379-42.804407-142.4259168-42.804407-142.4259168" fill="#2a3578"/><g fill="#3c4cab"><path d="m273.570532 38.5061325c-2.618535 4.9650469-111.967088 90.8202675-111.967088 90.8202675l6.330186 4.909538s101.449716-76.9181371 108.249262-82.5678054c6.799546-5.6435005 12.820942-22.6973573 12.820942-22.6973573l-9.943024-1.3445717s-2.877918 5.9087142-5.490278 10.8799289"/><path d="m254.61209 23.6948733s-82.168898 82.4999597-102.796039 89.9876207c-1.037533.376233-2.297395.752466-3.66842 1.122532.006176.006168.006176.012336.006176.012336 4.736831 7.48766 3.940154 6.673516 12.518328 1.794818 8.571998-4.884866 103.073949-83.061226 103.073949-94.1015167 0-11.0402906 7.979122-20.79768716 7.997649-20.81619044-5.502629.5119241-9.208104 1.17804219-10.257988 2.03536085-6.873655 5.61266172-6.873655 19.96503959-6.873655 19.96503959"/><path d="m393.977456.59599478c-2.247987.04317433-20.843294-.30222024-43.434337-.44407873-26.957327.12335521-53.253844.30838801-55.421547.35156233-4.483624.11718745-13.265599 24.64636952-13.265599 24.64636952-1.797155 4.7491753 7.991474 2.4732718 7.991474 2.4732718s4.421866-16.1656993 9.294565-21.46997303c4.860347-5.29810596 117.025061-1.18420995 117.025061-1.18420995s-4.06367-4.72450426-22.189617-4.37294194"/></g><path d="m177.185582 132.040215c-24.7958-2.0662-28.871822-16.597443-29.032393-17.220386l-3.507849.888157c.179098.721628 4.72448 17.639794 32.243804 19.934201 27.970157 2.331413 91.395529 20.896371 112.862578 48.07769l2.840864-2.238897c-23.980596-30.370051-91.352299-47.442411-115.407004-49.440765" fill="#131836"/><path d="m6.60344507 150.037739-.10498844.104852-6.24372456 19.342096c30.62574683 37.450639 134.99043693 36.833863 134.99043693 36.833863h297.049364c18.996733 0 24.604351-13.723266 26.185353-23.721205h-340.106978s-68.5265753 2.232729-111.76946293-32.559606" fill="#e6e7e8"/><path d="m347.728194 157.548221c-8.751096 8.110604-13.123556 25.053441-13.123556 25.053441h123.874013c4.125429-12.14432 0-28.791104 0-28.791104s-101.999362-4.372942-110.750457 3.737663" fill="#754c29"/><path d="m347.728194 157.548221c-8.751096 8.110604-13.123556 25.053441-13.123556 25.053441h3.402861c1.031357-6.22327 5.317356-16.467919 12.876524-23.474495 7.861782-7.29646 91.043509-4.502465 107.786078-3.867186-.11734-.918996-.19145-1.449423-.19145-1.449423s-101.999362-4.372942-110.750457 3.737663" fill="#8b5e3c"/><path d="m434.126273 162.083991h-57.613953c-3.057017 0-5.539685 2.473272-5.539685 5.526313 0 3.065377 2.482668 5.532481 5.539685 5.532481h57.613953c3.063192 0 5.539684-2.467104 5.539684-5.532481 0-3.053041-2.476492-5.526313-5.539684-5.526313" fill="#603913"/><path d="m280.1144 29.9347962c10.171528.3577301 136.052673 0 136.052673 0v-4.7800141h-136.052673z" fill="#131836"/><path d="m272.593522 33.1093423c-7.960594 18.9905335-111.923858 94.5455947-111.923858 94.5455947l3.446092 1.659128c10.616184-7.512332 106.266833-73.6800626 112.461151-91.3506954 6.188143-17.6644651 18.533549-37.43830406 18.5459-37.45680734-2.729699.07401312-5.342059.16036177-7.855606.25287817-2.847039 5.85320437-8.868435 18.50328037-14.673679 32.34990187" fill="#131836"/><path d="m169.719051 152.627581c-22.442824-8.597857-27.383457-32.263553-27.383457-32.263553-4.483624-5.008221-9.418081 1.862664-8.973424 5.002054.450833 3.145557 2.692645 11.657066-7.176269 6.722858-9.87509-4.92804-13.018567-.894325-12.123077 1.800986.901665 2.682976-7.633278 6.722859-14.8095469-.450246-7.1824448-7.173105-15.7112119-.900493-13.0185671 7.462989 2.6926448 8.363483-7.1824448 1.949013-13.4632241-5.668171-6.2807793-7.629519-17.0513585-2.251233-19.2993464 1.338404-2.2479879 3.589636 6.731612 4.039883 4.4897999 8.967923-2.241812 4.92804-13.9140568-3.583469-12.1230774.444079 1.7971551 4.033715 18.4038567 13.451885 24.6908118 12.107313 6.2807793-1.35074-7.1824447-13.445717 3.1434776-11.657067 10.3197465 1.788651 16.6005258 13.451885 22.8874809 12.551392 6.2807797-.894325-4.0389672-11.20682 4.0389677-14.340042 8.077934-3.13939 23.789146 16.128693 31.416248 14.340042 7.627101-1.78865-19.299347-19.27425-3.143478-18.410764 16.155869.857319 36.807714 25.133623 43.983983 20.199415 7.182444-4.928041-3.137302-8.147612-3.137302-8.147612" fill="#3c4cab"/><path d="m175.400161 143.297611c-11.696948-10.287824-19.521675-10.990949-14.729261-6.27878 0 0 22.96159 24.658705 37.771137 21.969562 14.809546-2.695312-11.351104-5.402958-23.041876-15.690782" fill="#131836"/><path d="m133.364023 146.706532c-1.346323 7.851558 8.973424 20.119233 16.606701 20.908707 7.627102.789473 8.967249-5.063731 5.38529-8.425161 0 0-20.645669-20.335105-21.991991-12.483546" fill="#131836"/><path d="m164.318322 103.670985c-5.132082 3.706824-8.139693 8.301806-6.719261 10.263153 1.426608 1.961348 6.737788.555099 11.86987-3.151725s8.133517-8.301805 6.713085-10.263153c-1.420432-1.9675155-6.731612-.5550984-11.863694 3.151725" fill="#131836"/><path d="m164.09167 103.357663c-3.736353 2.695311-5.922583 6.038237-4.891226 7.469158 1.037533 1.424752 4.903578.400904 8.639931-2.288239 3.736354-2.701479 5.922584-6.050573 4.885051-7.475326-1.031357-1.4309199-4.897402-.400904-8.633756 2.294407" fill="#939598"/><path d="m190.649424 79.7709149c-5.132083 3.7068238-8.139693 8.3018051-6.713085 10.2631528 1.420432 1.9613478 6.731612.5550984 11.863694-3.1517254 5.132082-3.7006561 8.133517-8.2956374 6.713085-10.2693206-1.420432-1.95518-6.731612-.5489307-11.863694 3.1578932" fill="#131836"/><path d="m190.42339 79.4575927c-3.736354 2.6953111-5.922584 6.0444049-4.891227 7.4753252 1.037533 1.4247526 4.903578.4009044 8.639932-2.2944067 3.736353-2.701479 5.922583-6.0505727 4.88505-7.4753253-1.031357-1.4309204-4.897402-.4009044-8.633755 2.2944068" fill="#939598"/><path d="m218.45901 54.9068234c-5.132082 3.7068239-8.139692 8.3079729-6.713085 10.2693207 1.420432 1.9613477 6.731612.5550984 11.863694-3.1517255 5.132083-3.700656 8.139693-8.3018051 6.719261-10.2693206-1.426608-1.9613477-6.737788-.5550984-11.86987 3.1517254" fill="#131836"/><path d="m218.232358 54.599669c-3.730177 2.6953112-5.922583 6.0382372-4.891226 7.4691575 1.037533 1.4309204 4.903578.4070722 8.639931-2.288239 3.736354-2.7014789 5.922584-6.0505727 4.885051-7.4753253-1.031357-1.4309203-4.897402-.4009044-8.633756 2.2944068" fill="#939598"/><path d="m242.574238 32.2057655c-5.132082 3.7068238-8.139692 8.3018051-6.71926 10.2693206 1.426607 1.9613477 6.737787.5550984 11.86987-3.1578932 5.132082-3.7006561 8.139692-8.2956374 6.713084-10.2631528-1.420432-1.9613478-6.731612-.5550985-11.863694 3.1517254" fill="#131836"/><path d="m242.347586 31.8924433c-3.730177 2.7014789-5.922583 6.0444049-4.891226 7.4753252 1.037533 1.4247526 4.903578.4070722 8.639932-2.2944067 3.736353-2.6953112 5.922583-6.044405 4.88505-7.4691575-1.031357-1.4309204-4.897402-.4070722-8.633756 2.288239" fill="#939598"/></g></g></svg>