<svg height="305" viewBox="0 0 261 305" width="261" xmlns="http://www.w3.org/2000/svg" xmlns:xlink="http://www.w3.org/1999/xlink"><linearGradient id="a" x1="50.000506%" x2="50.000506%" y1="100.000195%" y2=".000255%"><stop offset="0" stop-color="#fff"/><stop offset="1" stop-color="#fff"/></linearGradient><mask id="b" fill="#fff"><path d="m40.5726825.39400508s-40.5513463 94.21693062-25.3101394 193.54722692l-8.64789947.559313s-17.24568683-64.232771 4.27503087-132.5199416" fill="#fff" fill-rule="evenodd"/></mask><g fill="none" fill-rule="evenodd"><ellipse cx="130.5" cy="146.353622" fill="#427fe0" rx="130.5" ry="130.672876"/><g transform="translate(68.956639)"><path d="m40.0517318 196.051134c-11.9905957 31.399223-7.7264145 67.315639 11.21023 94.420027l10.1027243 14.459441 1.551644-109.765216z" fill="#f99653"/><path d="m82.3009284 196.051134c11.9905957 31.399223 7.7264145 67.315639-11.21023 94.420027l-10.1027243 14.459441-1.551644-109.765216z" fill="#fc7b1d"/><path d="m44.0870145 199.297059c-9.8751743 22.926427-6.3635013 49.151679 9.2328256 68.939846l8.3192908 10.559122 1.2771992-80.146031z" fill="#f4cc4d"/><path d="m76.5266091 201.039364c9.8737745 22.926427 6.3621549 49.151679-9.2326853 68.939846l-8.3204139 10.559122-1.2771798-80.146031z" fill="#f5c300"/><path d="m49.4665356 199.058189c-7.053761 14.453735-4.5441656 30.985543 6.5948134 43.461399l5.9429324 6.657253.9120487-50.526845z" fill="#f9eecf"/><path d="m71.1461246 197.315884c7.053761 14.453735 4.5441656 30.985543-6.5948134 43.461399l-5.9429324 6.657253-.9120487-50.526845z" fill="#f4dc90"/><path d="m61.543361 3.48461h5.22v193.395857h-5.22z" fill="#fff"/><path d="m94.2363301 198.649996h-67.86l.8062178-6.96922h66.2475644z" fill="#ba530d"/><path d="m22.6889464 137.66932s-17.32626453 14.615239-19.59901588 21.808648c-4.38959751 13.888783 6.09993528 58.337383 6.09993528 58.337383l22.4064643-24.771888z" fill="#ff5254"/><path d="m104.883517 139.411625s17.325882 14.615239 19.599738 21.808648c4.388346 13.888783-6.100955 58.337383-6.100955 58.337383l-22.4059699-24.771888z" fill="#ff5254"/><path d="m104.413044 144.275686s3.087762 23.439874-11.8853068 56.116615l-5.2514071-4.297523 11.6789643-56.683153z" fill="#a45302"/><path d="m8.12512407 165.754135c-6.83283322 30.970477.60557872 50.318911.60557872 50.318911s-12.36197111-44.4486-7.1893762-58.337383c2.67815491-7.193409 23.09500351-21.808648 23.09500351-21.808648s-14.0194877 18.53086-16.51120603 29.82712z" fill="#ff5254"/><path d="m62.9163301 1.76952854v195.13816246h-32.3348922c-5.5481141-15.375658-9.5269289-35.33534-9.4231231-60.924198.1563193-38.2498503 9.1434581-69.889918 18.7546528-92.8162439 3.3865111-8.1104827 6.8572882-15.1336095 10.0361878-20.9738024 7.0551298-12.95765662 12.7070496-20.10739336 12.9574047-20.42391816z" fill="#e6e6e6"/><path d="m106.414345 134.241188c.103806 25.587617-3.875009 45.547299-9.4133527 60.924198h-32.3446622v-195.13816248h.00977c.0427435.05213349.0830446.0943368.1147969.14771157.8621987 1.10845745 6.296737 8.22592108 12.9671748 20.50832471 2.5035513 4.6038843 5.1744132 9.9376376 7.8538237 15.9466438.0525136.1055082.0940359.2110165.1355582.3165248.6765695 1.5093888 1.3409265 3.0622223 2.0052836 4.6572591 2.2263288 5.3325119 4.4099141 11.1404318 6.4689324 17.3902451.1038058.3090771.2015053.5970526.2857712.8477899.1453281.4431347.2589039.7919327.3321785 1.0352223.0305312.1055083.0720535.2110166.1038058.3165248.1868504.5809161.3737009 1.1618322.5507813 1.7526785.2698951.8664091.5300202 1.7315769.7999152 2.6190876 2.8784734 9.6633161 5.3820243 20.2762066 7.1784753 31.745576.114797.6975958.218603 1.3827789.312639 2.0803747.114797.7497296.218603 1.4994586.322408 2.2392576 1.423972 10.233061 2.275179 21.131444 2.316701 32.610744" fill="#bcb9b9"/><path d="m85.5363301 43.584849c-8.2101696-3.4701213-16.3132609-4.5973742-23.5273529-4.5115363h-.0099608c-10.4351579.0971987-19.0263272 2.6862197-23.4426863 4.3284997 3.452654-8.2480074 6.9912196-15.388959 10.2322071-21.3294431h.0112059c4.7139373-2.2014883 9.2261688-2.9197492 13.1992733-2.8780926h.0099608c6.1333478.0871002 10.9954516 1.9868938 13.336234 3.115409 3.2310267 5.9392218 6.7484257 13.0587139 10.1911189 21.2751633" fill="#ff5254"/><path d="m80.3163301 73.6007351c0 9.3996909-8.0825668 17.0263494-18.0539499 17.0263494-1.431713 0-2.8324083-.1632853-4.1727006-.4605879-6.3765918-2.6248891-10.8333495-8.6325579-10.8333495-15.6076154 0-9.4073931 8.0825668-17.035592 18.0523174-17.035592 1.431713 0 2.8324083.1632853 4.1727006.4605879 6.3782243 2.6248891 10.834982 8.6325579 10.834982 15.616858" fill="#666"/><path d="m71.6163301 72.9543229c0 4.9472058-4.2539825 8.9612365-9.5020789 8.9612365-.7535332 0-1.4907412-.0859396-2.1961582-.2424147-3.356101-1.3815206-5.7017629-4.5434515-5.7017629-8.2145344 0-4.9512595 4.2539825-8.9661011 9.5012197-8.9661011.7535331 0 1.4907412.0859397 2.1961582.2424147 3.3569602 1.3815206 5.7026221 4.5434516 5.7026221 8.219399" fill="#427fe0"/><path d="m40.5726825.39400508s-40.5513463 94.21693062-25.3101394 193.54722692l-8.64789947.559313s-17.24568683-64.232771 4.27503087-132.5199416c0 0 12.1819886-39.8765456 29.683008-61.58659832" fill="url(#a)" mask="url(#b)" transform="translate(22.252969 1.769529)"/><path d="m27.1825479 191.680776-2.3508076 8.711525h74.2830468l-3.138457-8.711525z" fill="#666" stroke="#666"/></g></g></svg>