<svg height="484" viewBox="0 0 351 484" width="351" xmlns="http://www.w3.org/2000/svg" xmlns:xlink="http://www.w3.org/1999/xlink"><linearGradient id="a" x1="61.797538%" x2="37.550279%" y1="94.809674%" y2="15.216714%"><stop offset="0" stop-color="#da3e3f"/><stop offset="1" stop-color="#ff5254"/></linearGradient><filter id="b" height="400.2%" width="135%" x="-17.5%" y="-150.1%"><feGaussianBlur in="SourceGraphic" stdDeviation="16.5"/></filter><g fill="none" fill-rule="evenodd" transform="translate(34)"><path d="m141.5 0c77.596007 0 140.5 63.0102938 140.5 140.73743 0 51.818091-46.833333 130.238948-140.5 235.26257-93.6666667-105.023622-140.5-183.444479-140.5-235.26257 0-77.7271362 62.9039927-140.73743 140.5-140.73743zm0 78c-33.965512 0-61.5 27.534488-61.5 61.5s27.534488 61.5 61.5 61.5 61.5-27.534488 61.5-61.5-27.534488-61.5-61.5-61.5z" fill="url(#a)"/><g fill="#000"><path d="m141.5 376c93.666667-105.023622 140.5-183.444479 140.5-235.26257 0-36.95474-14.219135-70.5828116-37.476003-95.6940541-11.064651-11.9468862 34.489337 35.2374287 9.003347 131.0542801-9.277433 34.879335-46.619881 101.513449-112.027344 199.902344z" fill-opacity=".05"/><ellipse cx="141.468521" cy="426.49115" filter="url(#b)" opacity=".08" rx="141.468521" ry="16.49115"/></g></g></svg>