<svg height="262" viewBox="0 0 271 262" width="271" xmlns="http://www.w3.org/2000/svg" xmlns:xlink="http://www.w3.org/1999/xlink"><linearGradient id="a"><stop offset="0" stop-color="#0e88d4"/><stop offset="1" stop-color="#37b9ff"/></linearGradient><linearGradient id="b" x1="27.971572%" x2="69.619986%" xlink:href="#a" y1="14.055152%" y2="91.986298%"/><linearGradient id="c" x1="9.859158%" x2="85.752109%" xlink:href="#a" y1="14.055152%" y2="91.986298%"/><g fill="none" fill-rule="evenodd" transform="translate(-15 -59)"><ellipse cx="153" cy="312" fill="#000" opacity=".05" rx="94" ry="9"/><path d="m169.880939 318.320594c60.325449.016374 82.481779-51.260113 82.4654-111.659136-.016378-60.399023 15.37272-168.8789732-44.952729-168.8953519-60.325449-.0163786-146.7875931 110.7636999-146.7712144 171.1627229.0163786 60.399023 48.9330944 109.375382 109.2585434 109.391765z" fill="url(#b)" opacity=".332428" transform="matrix(-.20791169 -.9781476 -.9781476 .20791169 364.225753 294.944199)"/><path d="m150.990122 281.376272c58.207183-.033635 118.558219-52.821829 118.591873-110.990195.03358-58.168365-23.110071-129.594013-81.317254-129.5604077-58.207184.033629-142.5735616 77.1199447-142.6071967 135.2883107-.0335992 58.168366 47.1253939 105.295891 105.3325777 105.262292z" fill="url(#c)" transform="matrix(-.8660254 .5 .5 .8660254 213.572008 -57.226447)"/><path d="m227.079213 130.965927c-.655849.192183-1.311453.371112-1.967058.537769-4.007993 1.015404-4.376403-.324478-1.47462-3.280613 1.299466-1.324664 2.447752-2.765424 3.444858-4.321543 2.235171-3.489486.29649-5.011243-3.50626-3.381245-1.356465.581458-2.735436 1.108673-4.133488 1.5787-3.918214 1.320246-9.478375-.671291-12.969713-2.893056-4.407716-2.80445-9.416973-4.205939-15.029485-4.205939-7.861625 0-14.562489 2.781869-20.106504 8.34119-5.542303 5.562266-8.314922 12.287448-8.314922 20.173338 0 1.078484.061402 2.173412.182737 3.283558.199128 1.806963-2.834021 3.116901-6.927145 2.536915-8.854083-1.254221-17.266367-3.946013-25.238565-8.072427-7.906393-4.091808-14.88442-9.24099-20.93286-15.447793-2.891264-2.966444-6.80165-2.710936-7.881195 1.293493-.646798 2.400448-.968485 4.896865-.968485 7.489742 0 4.886311 1.143638 9.418201 3.431404 13.595668 1.137767 2.078916 2.470259 3.960985 4.00041 5.644981 2.573736 2.83464 2.179884 4.479364-1.4027 3.471568-3.581116-1.007795-6.205491-2.504026-6.205491-2.406339v.177211c0 6.884231 2.154443 12.933213 6.46602 18.141057 2.655932 3.208452 5.741431 5.686952 9.255274 7.432554 3.705388 1.841571 5.431487 2.868757 3.359483 3.137764-1.250051.162239-2.507686.243235-3.77266.243235-.8562 0-1.754476-.039025-2.691647-.118549-1.482204-.126159-1.748605 2.972579.498553 6.454702 1.786032 2.766897 4.072085 5.201708 6.856936 7.304923 2.832553 2.140522 5.885272 3.677005 9.153264 4.612886 3.976436 1.137145 4.774414 3.208697 1.229014 5.341611-8.773112 5.281723-18.481927 7.922216-29.124979 7.922216-1.199169 0-2.3430513-.026999-3.4358067-.079524-1.8968493-.091551-.6242919 1.58459 3.0375517 3.508876 11.442498 6.013147 23.834154 9.017144 37.17668 9.017144 10.087745 0 19.561473-1.602508 28.419959-4.809733 8.855307-3.206979 16.423378-7.504714 22.699322-12.889769s11.688105-11.578359 16.23477-18.582857c4.545441-7.004253 7.931834-14.316784 10.162601-21.936858 2.227587-7.621791 3.343093-15.258555 3.343093-22.910291 0-.689454-.005871-1.308465-.01639-1.853598-.021039-1.024485 2.679905-3.797519 5.694951-6.634858 1.360868-1.281221 2.658867-2.625767 3.898644-4.036092 2.734702-3.114201 1.523546-4.541216-2.445551-3.380017z" fill="#fff" fill-rule="nonzero"/></g></svg>