<svg height="167" viewBox="0 0 316 167" width="316" xmlns="http://www.w3.org/2000/svg" xmlns:xlink="http://www.w3.org/1999/xlink"><linearGradient id="a" x1="46.706%" x2="50.824924%" y1="46.803195%" y2="49.342967%"><stop offset="0" stop-color="#80c3f3"/><stop offset="1" stop-color="#4a90e2"/></linearGradient><linearGradient id="b"><stop offset="0" stop-color="#da3e3f"/><stop offset="1" stop-color="#ff5254"/></linearGradient><linearGradient id="c" x1="61.559659%" x2="37.801307%" xlink:href="#b" y1="94.809674%" y2="15.216714%"/><filter id="d" height="588.9%" width="157.6%" x="-28.8%" y="-244.4%"><feGaussianBlur in="SourceGraphic" stdDeviation="4.125"/></filter><linearGradient id="e" x1="61.830052%" x2="37.515967%" xlink:href="#b" y1="94.809674%" y2="15.216714%"/><filter id="f" height="588.9%" width="156.9%" x="-28.5%" y="-244.4%"><feGaussianBlur in="SourceGraphic" stdDeviation="8.25"/></filter><filter id="g" height="588.9%" width="157.6%" x="-28.8%" y="-244.4%"><feGaussianBlur in="SourceGraphic" stdDeviation="4.125"/></filter><filter id="h" height="588.9%" width="157.6%" x="-28.8%" y="-244.4%"><feGaussianBlur in="SourceGraphic" stdDeviation="4.125"/></filter><filter id="i" height="588.9%" width="157.6%" x="-28.8%" y="-244.4%"><feGaussianBlur in="SourceGraphic" stdDeviation="4.125"/></filter><g fill="none" fill-rule="evenodd"><ellipse cx="155.5" cy="113" fill="url(#a)" rx="155.5" ry="28"/><g transform="translate(78 89)"><path d="m21.5 0c11.7902061 0 21.3480565 9.67200897 21.3480565 21.6030367 0 7.9540185-7.1160188 19.9915314-21.3480565 36.1125389-14.23203769-16.1210075-21.34805654-28.1585204-21.34805654-36.1125389 0-11.93102773 9.55785048-21.6030367 21.34805654-21.6030367zm0 11.972912c-5.1608375 0-9.344523 4.2265128-9.344523 9.4401806 0 5.2136677 4.1836855 9.4401805 9.344523 9.4401805s9.344523-4.2265128 9.344523-9.4401805c0-5.2136678-4.1836855-9.4401806-9.344523-9.4401806z" fill="url(#c)"/><g fill="#000"><path d="m21.5 57.7155756c14.2320377-16.1210075 21.3480565-28.1585204 21.3480565-36.1125389 0-5.672511-2.1605046-10.834382-5.6942336-14.68892933-1.6812015-1.83383356 5.2404293 5.40890553 1.3679996 20.11668413-1.4096452 5.3539385-7.083586 15.5821999-17.0218225 30.6847841z" fill-opacity=".05"/><ellipse cx="21.495217" cy="65.46591" filter="url(#d)" opacity=".08" rx="21.495217" ry="2.531373"/></g></g><g transform="translate(112)"><path d="m43.5 0c23.854603 0 43.1925795 19.3440179 43.1925795 43.2060734 0 15.9080369-14.3975265 39.9830629-43.1925795 72.2250776-28.795053-32.2420147-43.1925795-56.3170407-43.1925795-72.2250776 0-23.8620555 19.3379765-43.2060734 43.1925795-43.2060734zm0 23.9458239c-10.4416945 0-18.9063604 8.4530257-18.9063604 18.8803612s8.4646659 18.8803612 18.9063604 18.8803612 18.9063604-8.4530257 18.9063604-18.8803612-8.4646659-18.8803612-18.9063604-18.8803612z" fill="url(#e)"/><g fill="#000"><path d="m43.5 115.431151c28.795053-32.2420147 43.1925795-56.3170407 43.1925795-72.2250776 0-11.345022-4.3712536-21.6687639-11.5208913-29.3778587-3.4015007-3.6676671 10.602729 10.8178111 2.7678132 40.2333683-2.8520729 10.7078769-14.3319067 31.1643997-34.4395014 61.369568z" fill-opacity=".05"/><ellipse cx="43.490323" cy="130.93182" filter="url(#f)" opacity=".08" rx="43.490323" ry="5.062746"/></g></g><g transform="translate(265 85)"><path d="m21.5 0c11.7902061 0 21.3480565 9.67200897 21.3480565 21.6030367 0 7.9540185-7.1160188 19.9915314-21.3480565 36.1125389-14.23203769-16.1210075-21.34805654-28.1585204-21.34805654-36.1125389 0-11.93102773 9.55785048-21.6030367 21.34805654-21.6030367zm0 11.972912c-5.1608375 0-9.344523 4.2265128-9.344523 9.4401806 0 5.2136677 4.1836855 9.4401805 9.344523 9.4401805s9.344523-4.2265128 9.344523-9.4401805c0-5.2136678-4.1836855-9.4401806-9.344523-9.4401806z" fill="url(#c)"/><g fill="#000"><path d="m21.5 57.7155756c14.2320377-16.1210075 21.3480565-28.1585204 21.3480565-36.1125389 0-5.672511-2.1605046-10.834382-5.6942336-14.68892933-1.6812015-1.83383356 5.2404293 5.40890553 1.3679996 20.11668413-1.4096452 5.3539385-7.083586 15.5821999-17.0218225 30.6847841z" fill-opacity=".05"/><ellipse cx="21.495217" cy="65.46591" filter="url(#g)" opacity=".08" rx="21.495217" ry="2.531373"/></g></g><g transform="translate(13 26)"><path d="m21.5 0c11.7902061 0 21.3480565 9.67200897 21.3480565 21.6030367 0 7.9540185-7.1160188 19.9915314-21.3480565 36.1125389-14.23203769-16.1210075-21.34805654-28.1585204-21.34805654-36.1125389 0-11.93102773 9.55785048-21.6030367 21.34805654-21.6030367zm0 11.972912c-5.1608375 0-9.344523 4.2265128-9.344523 9.4401806 0 5.2136677 4.1836855 9.4401805 9.344523 9.4401805s9.344523-4.2265128 9.344523-9.4401805c0-5.2136678-4.1836855-9.4401806-9.344523-9.4401806z" fill="url(#c)"/><g fill="#000"><path d="m21.5 57.7155756c14.2320377-16.1210075 21.3480565-28.1585204 21.3480565-36.1125389 0-5.672511-2.1605046-10.834382-5.6942336-14.68892933-1.6812015-1.83383356 5.2404293 5.40890553 1.3679996 20.11668413-1.4096452 5.3539385-7.083586 15.5821999-17.0218225 30.6847841z" fill-opacity=".05"/><ellipse cx="21.495217" cy="65.46591" filter="url(#h)" opacity=".08" rx="21.495217" ry="2.531373"/></g></g><g transform="translate(224 18)"><path d="m21.5 0c11.7902061 0 21.3480565 9.67200897 21.3480565 21.6030367 0 7.9540185-7.1160188 19.9915314-21.3480565 36.1125389-14.23203769-16.1210075-21.34805654-28.1585204-21.34805654-36.1125389 0-11.93102773 9.55785048-21.6030367 21.34805654-21.6030367zm0 11.972912c-5.1608375 0-9.344523 4.2265128-9.344523 9.4401806 0 5.2136677 4.1836855 9.4401805 9.344523 9.4401805s9.344523-4.2265128 9.344523-9.4401805c0-5.2136678-4.1836855-9.4401806-9.344523-9.4401806z" fill="url(#c)"/><g fill="#000"><path d="m21.5 57.7155756c14.2320377-16.1210075 21.3480565-28.1585204 21.3480565-36.1125389 0-5.672511-2.1605046-10.834382-5.6942336-14.68892933-1.6812015-1.83383356 5.2404293 5.40890553 1.3679996 20.11668413-1.4096452 5.3539385-7.083586 15.5821999-17.0218225 30.6847841z" fill-opacity=".05"/><ellipse cx="21.495217" cy="65.46591" filter="url(#i)" opacity=".08" rx="21.495217" ry="2.531373"/></g></g></g></svg>