<svg height="367" viewBox="0 0 358 367" width="358" xmlns="http://www.w3.org/2000/svg" xmlns:xlink="http://www.w3.org/1999/xlink"><linearGradient id="a"><stop offset="0" stop-color="#ff5d6c"/><stop offset="1" stop-color="#ff0200"/></linearGradient><linearGradient id="b" x1="23.86553%" x2="58.579052%" xlink:href="#a" y1="-9.138967%" y2="87.695753%"/><linearGradient id="c" x1="74.740313%" x2="27.670467%" xlink:href="#a" y1="20.212965%" y2="65.181879%"/><g fill="none" fill-rule="evenodd" transform="translate(-12 -46)"><path d="m49.6102011 240.21699c17.5750781-41.076481 38.6722428-79.787326 63.2914939-116.132536 24.619251-36.3452079 52.760589-70.3247831 84.424016-101.9387249 14.309883-14.28751767 36.787045-16.45776859 53.586938-5.1740114l76.220664 51.1941019c16.997432 11.4164357 23.321567 33.3298224 15.004255 51.9903624-20.25042 45.433404-41.136896 84.03688-62.659429 115.810429s-49.642826 65.518385-84.360878 101.23451c-14.2595 14.669431-37.032575 17.039487-54.030008 5.623052l-76.2206625-51.194103c-16.7998937-11.283757-23.1992208-32.84909-15.2563894-51.41308z" fill="url(#b)" opacity=".38502" transform="matrix(.190809 .98162718 -.98162718 .190809 335.194221 -46.827071)"/><path d="m41.8897157 109.573458c43.4197536-13.7938543 87.2757613-22.6207461 131.5680243-26.4806753 44.292262-3.8599291 89.020781-2.7528962 134.185557 3.3210987 19.60171 2.6361404 34.751633 18.4523036 36.475535 38.0796006l10.385483 118.242777c1.748684 19.909454-10.786064 38.303038-30.007561 44.033322-48.548392 14.473171-92.148103 23.393914-130.799132 26.762228-38.65103 3.368314-83.14351 2.124524-133.4774409-3.731369-19.9284363-2.318491-35.479296-18.264505-37.2279805-38.173959l-10.3854826-118.242777c-1.723902-19.627297 10.4386381-37.823654 29.2829977-43.810246z" fill="url(#c)"/><ellipse cx="204" cy="399.857054" fill="#000" opacity=".05" rx="154.222222" ry="12.521076"/><path d="m155.555556 148.36034 75.555555 47.084419-75.555555 47.084419z" fill="#fff" transform="matrix(.99862953 -.05233596 .05233596 .99862953 -9.963832 10.386135)"/></g></svg>