<?xml version="1.0" encoding="UTF-8"?>
<svg width="500px" height="285px" viewBox="0 0 500 285" version="1.1" xmlns="http://www.w3.org/2000/svg" xmlns:xlink="http://www.w3.org/1999/xlink">
    <!-- Generator: Sketch 63.1 (92452) - https://sketch.com -->
    <title>img_kols</title>
    <desc>Created with Sketch.</desc>
    <defs>
        <polygon id="path-1" points="0.269019148 0.236390918 129.311805 0.236390918 129.311805 258.417508 0.269019148 258.417508"></polygon>
        <polygon id="path-3" points="0.244530656 0.151335393 42.0325356 0.151335393 42.0325356 81.5968872 0.244530656 81.5968872"></polygon>
        <polygon id="path-5" points="0 284.259259 500 284.259259 500 0 0 0"></polygon>
    </defs>
    <g id="Website" stroke="none" stroke-width="1" fill="none" fill-rule="evenodd">
        <g id="Social-Media---WeChat" transform="translate(-836.000000, -3580.000000)">
            <g id="img_kols" transform="translate(836.000000, 3580.000000)">
                <path d="M62.4784924,179.529085 L58.0334377,180.892256 C58.0334377,180.892256 49.1904805,165.703611 45.6896552,157.793565 L53.9952557,153.327722 C57.539378,162.243777 60.7320832,169.294099 62.9310345,177.745343 L62.4784924,179.529085 Z" id="Fill-1" fill="#2E5A99"></path>
                <path d="M9.48275862,263.938621 L12.5335527,265.308642 L16.3793103,260.084598 L12.1851502,257.556117 C11.3032374,259.63602 10.4089034,261.75923 9.48275862,263.938621" id="Fill-3" fill="#B3680A"></path>
                <path d="M51.7241379,193.003149 L28.853564,192.95174 C28.853564,192.95174 26.7781992,207.429112 25.6162798,219.901226 C25.268654,223.631681 24.1379052,227.231522 22.4181815,230.553991 C18.2638895,238.5816 16.0258441,247.828383 12.0689655,257.557577 L16.1784313,260.140292 L35.3210076,234.610836 C36.7094329,232.679703 37.8493844,230.582386 38.7147382,228.363421 C42.3783168,218.970779 51.7241379,193.003149 51.7241379,193.003149" id="Fill-5" fill="#427FE0"></path>
                <path d="M60.8766162,226.972951 L52.1106687,193.052039 L29.3103448,192.95174 C31.2448784,203.757612 39.8551771,215.124327 46.6597143,226.831405 C47.694616,228.611859 48.5393131,230.49736 49.1554103,232.463574 C52.366736,242.713945 56.3506937,252.620687 62.4629337,262.724467 L67.2413793,261.017902 L61.3036904,228.901776 C61.1837788,228.253988 61.0414208,227.61065 60.8766162,226.972951" id="Fill-7" fill="#427FE0"></path>
                <path d="M62.9310345,262.687793 C64.1127946,264.64681 65.3434311,266.656539 66.6380723,268.754209 L68.9655172,267.689838 L67.6380009,261.001684 L62.9310345,262.687793 Z" id="Fill-9" fill="#B3680A"></path>
                <polygon id="Fill-11" fill="#FF5254" points="66.3793103 269.130101 68.728703 267.981127 73.5282185 268.853777 76.8261784 267.892817 77.5862069 269.434595 68.410654 273.922559"></polygon>
                <path d="M51.1842201,179.645123 C51.1842201,173.84061 53.7283485,161.417315 54.2968688,154.373462 C54.4475859,152.506082 53.321205,150.771125 51.564122,150.168494 C43.3273881,147.342463 32.3528736,147.303603 24.1498956,151.300221 C23.8452042,160.831723 29.4611188,181.180697 29.4611188,181.180697 L28.7697152,192.95174 L52.7701549,192.95174 L51.1569785,179.650504 L51.1842201,179.645123 Z" id="Fill-13" fill="#2E5A99"></path>
                <path d="M33.6206897,148.507158 L44.3096543,157.63468 L46.5517241,148.862036 C42.4233664,148.084068 37.9371787,147.931813 33.6206897,148.507158" id="Fill-15" fill="#B3680A"></path>
                <path d="M22.2060205,180.892256 L18.1034483,178.916915 C18.1034483,178.916915 20.1596473,153.195453 23.4302031,151.604938 C28.5338538,153.714376 31.263989,159.425783 29.7612153,164.848867 L25.7436076,179.345848 L22.2060205,180.892256 Z" id="Fill-17" fill="#2E5A99"></path>
                <polygon id="Fill-19" fill="#FF5254" points="9.36615561 263.585859 12.4786601 264.955437 14.5476875 269.390918 17.2413793 271.644785 16.4244628 273.061167 6.89655172 267.868644"></polygon>
                <path d="M18.2323215,179.007143 C17.873422,180.910759 18.2690854,182.625601 19.3575364,183.914673 C20.7280445,185.53748 23.248779,185.628927 24.7841217,184.153433 C30.4303861,178.725453 37.9404571,171.482951 40.5172414,167.575158 L39.9657836,165.387205 L18.2323215,179.007143 Z" id="Fill-21" fill="#B3680A"></path>
                <path d="M40.2211113,167.646892 L44.4455517,167.100894 L47.0862907,167.97138 L47.1199997,167.180109 C47.1598937,166.255345 46.6224064,165.39454 45.7484482,164.983501 L44.3465897,164.323962 L47.1135053,164.267044 L47.4137931,163.692294 L42.9453496,163.664422 L39.6551724,165.46378 L40.2211113,167.646892 Z" id="Fill-23" fill="#B3680A"></path>
                <path d="M53.5897666,170.555556 L61.1233239,170.555556 C61.8675518,170.555556 62.6519423,169.977405 62.8749673,169.263322 L67.1818132,155.481055 C67.4048381,154.767556 66.9822165,154.189113 66.2376844,154.189113 L58.7044313,154.189113 C57.9598992,154.189113 57.1758129,154.767556 56.952788,155.481055 L52.6456378,169.263322 C52.4229171,169.977405 52.8455388,170.555556 53.5897666,170.555556" id="Fill-25" fill="#8CADFF"></path>
                <path d="M55.2690635,170.555556 L62.2587599,170.555556 C62.9700248,170.555556 63.7190766,169.977405 63.9321363,169.263322 L68.0465437,155.481055 C68.2596034,154.767556 67.8558654,154.189113 67.1446005,154.189113 L60.1551947,154.189113 C59.4439298,154.189113 58.694878,154.767556 58.4818183,155.481055 L54.3671203,169.263322 C54.1543512,169.977405 54.5580892,170.555556 55.2690635,170.555556" id="Fill-27" fill="#B3C9FF"></path>
                <polygon id="Fill-29" fill="#B3680A" points="62.0689655 168.427607 62.6822457 165.216882 62.215731 163.036594 63.0487318 160.218855 66.3793103 162.30498 66.045597 165.993052 64.0857794 168.832772"></polygon>
                <path d="M63.7931034,178.979349 L63.3986038,168.377561 L61.3026021,167.97138 L57.7586207,177.152133 L57.7648403,180.601094 C60.0314364,183.805275 63.7931034,183.129002 63.7931034,178.979349" id="Fill-31" fill="#B3680A"></path>
                <polygon id="Fill-33" fill="#B3680A" points="43.0246344 143.537171 43.9655172 151.604938 37.9310345 148.709583 38.5513783 141.268238"></polygon>
                <path d="M45.8933013,144.161474 C45.631265,145.416001 44.0929759,146.251576 41.8755131,144.834592 L38.5368986,141.591281 L37.9310345,135.859005 L41.1642286,131.792929 L48.2758621,133.770942 L45.8933013,144.161474 Z" id="Fill-35" fill="#B3680A"></path>
                <path d="M46.1846975,131.125452 L41.7961776,130.240719 C38.7613528,129.451913 36.9647987,131.452644 37.0736445,135.131193 L37.3598134,139.629402 C37.4372613,140.841634 37.3639997,141.467913 38.3612547,142.12963 L38.653105,141.697344 C39.2685025,140.786643 39.5086212,139.665146 39.3223274,138.575421 C39.1832799,137.747816 39.4350606,137.027137 39.8812088,136.948929 C40.3276561,136.87072 40.7998197,137.464616 40.935877,138.275418 C42.9450392,137.108095 42.5832166,134.120287 44.7365098,134.02772 L44.4431644,136.099634 L47.3715355,135.802686 C48.2587486,135.712563 48.9770114,135.027016 49.1256278,134.129452 C49.3011566,132.705508 47.5629128,131.403153 46.1846975,131.125452" id="Fill-37" fill="#4F2674"></path>
                <polygon id="Fill-39" fill="#FF5254" points="170.24356 264.831273 170.221679 262.056469 164.503366 259.2789 162.068966 263.25528 168.2453 267.811869 174.520985 268.754209 175 267.156408"></polygon>
                <polygon id="Fill-41" fill="#FF5254" points="215.517241 267.997162 221.499199 267.892817 225.653057 272.533663 230.069114 273.103186 230.172414 274.783951 215.803138 274.783951"></polygon>
                <path d="M213.793103,190.3316 L190.019877,186.921998 C187.198343,197.271922 186.078265,206.553124 185.170086,215.64451 C184.696746,220.38461 182.901279,224.8961 179.968126,228.666681 C173.695033,236.731395 168.301469,247.321774 163.793103,259.012264 L169.566294,261.863075 L194.796548,232.959926 C196.625441,230.864533 198.095599,228.489597 199.151212,225.923363 C203.241451,215.981206 213.793103,190.3316 213.793103,190.3316" id="Fill-43" fill="#2E5A99"></path>
                <path d="M217.042736,183.476431 L195.689655,194.1246 C199.256249,204.303805 203.605912,212.633383 208.0213,220.685099 C210.323732,224.88313 211.416181,229.640461 211.159204,234.429097 C210.609723,244.670909 212.211981,256.507442 215.160705,268.754209 L221.615922,268.371404 L225.707128,229.583518 C226.012363,226.809973 225.866111,224.007808 225.272813,221.281964 C222.973638,210.721446 217.042736,183.476431 217.042736,183.476431" id="Fill-45" fill="#2E5A99"></path>
                <path d="M223.804798,161.080247 L216.37931,166.951405 C221.012184,171.697434 225.273049,175.723906 225.273049,175.723906 L229.300696,173.562896 L230.172414,169.852748 L223.804798,161.080247 Z" id="Fill-47" fill="#F4ACC8"></path>
                <path d="M215.353111,149.924181 C212.313636,146.879202 204.88814,152.207691 206.184991,155.891003 C208.370711,158.970567 212.253823,163.271044 215.904823,167.109989 L223.275862,161.127663 L215.353111,149.924181 Z" id="Fill-49" fill="#FF5254"></path>
                <path d="M215.789585,166.888475 L222.923269,161.034175 C223.33699,160.694702 223.395,160.086455 223.052833,159.675991 L220.924153,157.122933 C220.581986,156.712469 219.968912,156.655208 219.55519,156.994681 L212.421507,162.848981 C212.007785,163.188746 211.949776,163.796701 212.292237,164.207165 L214.420623,166.760223 C214.763084,167.170688 215.375863,167.22824 215.789585,166.888475" id="Fill-51" fill="#FF5254"></path>
                <path d="M226.387302,168.832772 L222.413793,171.676342 L224.54834,176.076062 C232.714527,178.925399 244.098973,176.613809 249.09518,175.562824 L250,173.611077 L226.387302,168.832772 Z" id="Fill-53" fill="#F4ACC8"></path>
                <path d="M212.834941,148.667142 C205.747187,145.967082 197.662966,145.545596 190.009756,148.359555 C188.389483,148.955449 187.3088,150.478255 187.260074,152.183478 C186.96742,162.430239 186.401062,186.798406 186.207664,195.207359 C186.170668,196.808174 187.476331,198.12009 189.099913,198.12009 L217.796519,198.12009 C219.477549,198.12009 220.803965,196.713259 220.68185,195.059943 C220.046614,186.462048 218.066916,162.033669 215.390623,151.543982 C215.056763,150.235626 214.110827,149.153289 212.834941,148.667142" id="Fill-55" fill="#FF5254"></path>
                <path d="M209.482759,147.492249 C205.320545,146.396752 200.927501,146.117353 196.551724,146.826427 C197.574708,148.935652 201.745403,151.604938 204.788,151.604938 C207.500709,151.604938 209.482759,149.990107 209.482759,147.492249" id="Fill-57" fill="#F4ACC8"></path>
                <polygon id="Fill-59" fill="#F4ACC8" points="206.163941 141.916531 206.896552 149.020763 199.137931 147.715322 201.374216 139.545455"></polygon>
                <path d="M208.552563,143.113661 C208.464519,144.350581 207.120903,145.336423 204.85239,144.239183 L200.883966,141.918876 L200,136.085497 L202.531759,131.792929 L209.482759,132.846303 L208.552563,143.113661 Z" id="Fill-61" fill="#F4ACC8"></path>
                <path d="M209.730203,136.526814 C210.567549,136.584382 211.262893,135.898199 211.203334,135.07287 L210.797864,130.947384 L209.122585,132.289375 L202.22519,130.96098 C199.237854,130.656653 197.806973,132.735451 198.412537,136.088548 L199.298,140.167749 C199.520392,141.190659 199.452912,141.73625 200.275001,142.18493 L201.534247,139.283117 L202.541175,139.371638 L202.103725,143.370129 L203.46918,144.548095 C205.724204,146.320252 207.464616,145.53687 207.868913,144.172315 L208.092773,141.419194 L203.823013,141.030974 L203.901642,135.96647 L202.368366,134.98811 L209.730203,136.526814 Z" id="Fill-63" fill="#945561"></path>
                <path d="M202.480629,138.033453 C202.70856,138.736341 202.555327,139.404852 202.137551,139.526425 C201.719775,139.647719 201.195709,139.176519 200.967778,138.473352 C200.739551,137.770464 200.89308,137.101952 201.310856,136.980379 C201.728632,136.858806 202.252402,137.330286 202.480629,138.033453" id="Fill-65" fill="#F4ACC8"></path>
                <path d="M169.827586,169.316243 L172.200121,173.312449 L175.965672,174.001122 L184.482759,166.984382 L178.533641,159.357464 C173.853813,164.499823 169.827586,169.316243 169.827586,169.316243" id="Fill-67" fill="#F4ACC8"></path>
                <path d="M189.458781,149.218434 C186.646409,151.446737 182.79682,155.292456 179.310345,158.964515 L185.238173,166.248597 L195.779592,157.924601 C198.610998,154.78231 193.004995,147.756229 189.458781,149.218434" id="Fill-69" fill="#FF5254"></path>
                <polygon id="Fill-71" fill="#F4ACC8" points="172.294129 193.813131 173.332936 194.67398 173.475865 196.96042 175.098845 198.605191 175.862069 201.531467 171.629617 201.565657 169.927855 198.156756 169.827586 195.032362"></polygon>
                <path d="M177.586207,170.180514 L174.65222,166.248597 L170.385611,168.57285 C167.846065,176.964651 169.251773,189.640646 170.452441,194.674523 L173.653749,194.321342 L177.586207,170.180514 Z" id="Fill-73" fill="#F4ACC8"></path>
                <path d="M240.658723,177.446689 L248.19248,177.446689 C248.936638,177.446689 249.720781,176.868162 249.943906,176.154732 L254.250742,162.372204 C254.473867,161.658774 254.05112,161.080247 253.306962,161.080247 L245.773205,161.080247 C245.028742,161.080247 244.244599,161.658774 244.021779,162.372204 L239.714638,176.154732 C239.491818,176.868162 239.914565,177.446689 240.658723,177.446689" id="Fill-75" fill="#8CADFF"></path>
                <path d="M241.520792,177.446689 L249.054549,177.446689 C249.798707,177.446689 250.58285,176.868162 250.805975,176.154732 L255.112811,162.372204 C255.335936,161.658774 254.913189,161.080247 254.169031,161.080247 L246.635274,161.080247 C245.890811,161.080247 245.106667,161.658774 244.883847,162.372204 L240.576707,176.154732 C240.353887,176.868162 240.776634,177.446689 241.520792,177.446689" id="Fill-77" fill="#B3C9FF"></path>
                <path d="M249.451707,173.781394 L249.591103,171.929468 L248.275862,169.927361 L249.13799,167.109989 L252.586207,169.195827 L252.240527,172.883888 L250.211729,175.723906 C249.676931,175.227476 249.396658,174.511736 249.451707,173.781394" id="Fill-79" fill="#F4ACC8"></path>
                <path d="M184.62738,166.770947 L178.680465,159.72245 C178.335636,159.313511 178.379934,158.696105 178.779773,158.343429 L181.265665,156.14949 C181.665504,155.796518 182.268881,155.84212 182.613999,156.251059 L188.560915,163.299556 C188.905743,163.708495 188.861445,164.325901 188.461607,164.678873 L185.975715,166.872516 C185.575876,167.225192 184.972209,167.179886 184.62738,166.770947" id="Fill-81" fill="#FF5254"></path>
                <path d="M140.096777,180.014244 C136.989649,176.346225 128.565512,165.775388 126.433204,163.420223 C123.014603,159.644924 117.873528,163.790718 120.592777,168.113259 C122.258166,170.761538 138.213004,187.983115 142.241379,184.81075 L140.096777,180.014244 Z" id="Fill-83" fill="#B3680A"></path>
                <path d="M138.793103,180.516952 L141.990384,185.199214 C146.391971,182.202116 148.508595,179.602538 153.448276,173.761189 L152.19451,171.416947 L138.793103,180.516952 Z" id="Fill-85" fill="#B3680A"></path>
                <polygon id="Fill-87" fill="#B3680A" points="153.585903 173.139731 154.848935 171.189298 155.860823 169.611051 156.034483 167.109989 152.786688 167.692343 151.962277 170.722792 151.724138 173.104608"></polygon>
                <path d="M126.043696,142.991021 L119.08342,144.912308 L118.478546,151.144564 L118.103448,161.941639 L125.332816,161.941639 C129.489179,155.060653 131.372822,144.875101 126.043696,142.991021" id="Fill-89" fill="#4F2674"></path>
                <path d="M130.172414,170.124821 C130.172414,166.559769 124.871577,162.681914 123.63021,159.868805 C120.605747,159.083759 118.250566,159.173349 115.027916,160.341655 C112.466667,161.270652 110.911529,163.865101 111.253905,166.775088 C111.832703,171.694003 113.484454,176.309832 113.801727,180.892256 L129.711243,180.892256 C129.711243,176.467145 130.172414,174.277215 130.172414,170.124821" id="Fill-91" fill="#427FE0"></path>
                <path d="M107.267874,194.674523 C105.046634,202.818125 105.485107,213.561437 105.60239,223.061357 C105.636325,225.813233 104.622151,228.484833 102.724483,230.466891 C95.6779553,237.826297 90.2144556,246.703772 83.6206897,255.874498 L85.2477731,257.556117 L112.478648,235.239766 C114.228076,233.805867 115.474435,231.845376 116.034656,229.646151 L123.275862,201.207197 L107.267874,194.674523 Z" id="Fill-93" fill="#B3680A"></path>
                <path d="M137.788961,231.794515 C137.788961,231.794515 131.144333,193.560849 131.144333,193.560849 C131.144333,193.560849 130.480463,186.09275 130.426548,180.892256 L114.27948,180.892256 C113.995684,185.097043 106.462341,189.099726 107.953901,197.948183 C108.477058,201.052358 119.150232,216.40373 124.898739,226.399324 C126.711718,229.551211 128.032053,232.950246 128.975572,236.462187 C131.784505,246.919778 136.412934,256.684818 142.524925,268.754209 L144.827586,268.461127 L137.788961,231.794515 Z" id="Fill-95" fill="#B3680A"></path>
                <polygon id="Fill-97" fill="#2E5A99" points="83.9022108 254.971942 85.4705221 256.618164 86.2252629 260.884443 87.9310345 263.378408 86.9822995 264.44725 81.0344828 258.203687"></polygon>
                <polygon id="Fill-99" fill="#2E5A99" points="142.241379 269.027 144.525528 268.754209 148.405319 270.590582 151.452614 270.692188 151.724138 272.026603 143.061827 273.061167"></polygon>
                <path d="M131.147849,193.614028 C131.147849,193.614028 129.729359,186.114581 129.676159,180.892256 L113.6551,180.892256 C113.459933,183.814841 107.340674,188.56222 106.231101,195.115941 C105.03335,202.187759 104.889326,211.589372 105.610328,222.239057 L135.344828,222.239057 L131.147849,193.614028 Z" id="Fill-101" fill="#FF5254"></path>
                <polygon id="Fill-103" fill="#B3680A" points="123.873787 155.407525 124.137931 162.80303 118.103448 160.407454 119.574725 153.327722"></polygon>
                <path d="M124.332839,155.909632 C123.011344,155.851001 121.506056,155.180173 120.58491,154.699521 C120.014187,154.401607 119.573272,153.929587 119.32988,153.353996 C118.384707,151.115619 116.388579,145.179055 121.180597,143.943349 C122.241538,143.66984 123.736528,144.055551 125.018394,144.538881 C126.663164,145.158817 127.686659,146.724579 127.578381,148.408198 C127.455748,150.320089 127.132474,152.254301 126.650682,154.20637 C126.399801,155.222137 125.42592,155.958143 124.332839,155.909632" id="Fill-105" fill="#B3680A"></path>
                <path d="M131.034483,141.110245 C130.118316,141.947312 129.107242,142.424951 127.894012,142.129427 L122.011799,140.729814 C119.396992,140.076961 114.477959,139.723532 114.477959,146.815807 C114.477959,150.250485 110.497424,148.942379 107.758621,159.012094 C109.900946,161.352584 118.655362,163.062722 121.536086,156.299875 C123.552358,151.566991 120.988972,148.356731 123.610242,146.013842 C127.159139,146.013842 131.034483,146.268262 131.034483,141.110245" id="Fill-107" fill="#4F2674"></path>
                <path d="M118.956869,167.71632 C118.82367,162.54104 111.22277,160.728204 110.426956,165.860306 C109.938972,169.003887 111.567122,194.442261 116.884928,194.674523 L118.461518,189.559394 C118.496813,185.281004 119.040041,170.945063 118.956869,167.71632" id="Fill-109" fill="#B3680A"></path>
                <path d="M117.879462,188.644781 L117.241379,194.440452 C121.944407,195.11441 125.157508,194.241654 132.554212,192.986267 L133.62069,190.508471 L117.879462,188.644781 Z" id="Fill-111" fill="#B3680A"></path>
                <polygon id="Fill-113" fill="#B3680A" points="132.927076 192.95174 135.840795 192.53231 137.780375 192.049084 139.655172 190.346932 136.52971 188.644781 133.742857 190.305125 131.896552 191.878597"></polygon>
                <path d="M154.33384,173.139731 L160.981018,173.139731 C161.63776,173.139731 162.329716,172.621822 162.526558,171.983652 L166.326751,159.65215 C166.523593,159.013688 166.150376,158.496072 165.493935,158.496072 L158.846457,158.496072 C158.190016,158.496072 157.498059,159.013688 157.301218,159.65215 L153.500723,171.983652 C153.304183,172.621822 153.677099,173.139731 154.33384,173.139731" id="Fill-115" fill="#8CADFF"></path>
                <path d="M153.47177,173.139731 L160.118935,173.139731 C160.775675,173.139731 161.467631,172.621822 161.664472,171.983652 L165.464658,159.65215 C165.6615,159.013688 165.288584,158.496072 164.631844,158.496072 L157.984679,158.496072 C157.327938,158.496072 156.635682,159.013688 156.439141,159.65215 L152.638654,171.983652 C152.442114,172.621822 152.815029,173.139731 153.47177,173.139731" id="Fill-117" fill="#B3C9FF"></path>
                <path d="M153.596137,173.139731 C153.522864,173.139731 153.476369,173.121423 153.464304,173.10464 C153.448414,173.082366 153.436054,173.006387 153.469307,172.891962 L157.184764,160.032724 C157.284816,159.685177 157.685023,159.357464 158.008132,159.357464 L164.507091,159.357464 C164.580365,159.357464 164.626565,159.375772 164.638924,159.392249 C164.655172,159.415134 164.667469,159.490502 164.633922,159.605537 L160.918759,172.46447 C160.818413,172.812017 160.418206,173.139731 160.095097,173.139731 L153.596137,173.139731 Z" id="Fill-119" fill="#2C72B7"></path>
                <polygon id="Fill-121" fill="#B3680A" points="153.491709 168.832772 152.586207 167.649094 155.722622 165.387205 156.034483 166.427014"></polygon>
                <g id="Group-125" transform="translate(301.724138, 25.841751)">
                    <mask id="mask-2" fill="white">
                        <use xlink:href="#path-1"></use>
                    </mask>
                    <g id="Clip-124"></g>
                    <path d="M0.269019148,12.9846899 L0.269019148,245.669537 C0.269019148,252.709999 5.97416773,258.417538 13.0120471,258.417538 L116.568479,258.417538 C123.606358,258.417538 129.311805,252.709999 129.311805,245.669537 L129.311805,12.9846899 C129.311805,5.94393056 123.606358,0.236390918 116.568479,0.236390918 L13.0120471,0.236390918 C5.97416773,0.236390918 0.269019148,5.94393056 0.269019148,12.9846899" id="Fill-123" fill="#427FE0" mask="url(#mask-2)"></path>
                </g>
                <path d="M315.140838,38.7626263 C310.594706,38.7626263 306.896552,42.4706581 306.896552,47.0286335 L306.896552,256.180945 C306.896552,260.739218 310.594706,264.44725 315.140838,264.44725 L418.480446,264.44725 C423.026281,264.44725 426.724138,260.739218 426.724138,256.180945 L426.724138,47.0286335 C426.724138,42.4706581 423.026281,38.7626263 418.480446,38.7626263 L315.140838,38.7626263 Z" id="Fill-126" fill="#EBF1F9"></path>
                <path d="M368.965517,32.7328844 C368.965517,34.1601051 367.807371,35.3170595 366.37931,35.3170595 C364.950967,35.3170595 363.793103,34.1601051 363.793103,32.7328844 C363.793103,31.3056637 364.950967,30.1487093 366.37931,30.1487093 C367.807371,30.1487093 368.965517,31.3056637 368.965517,32.7328844" id="Fill-128" fill="#EBF1F9"></path>
                <path d="M380.898625,276.506734 L351.860293,276.506734 C350.356456,276.506734 349.137931,275.349498 349.137931,273.922559 C349.137931,272.495338 350.356456,271.338384 351.860293,271.338384 L380.898625,271.338384 C382.402165,271.338384 383.62069,272.495338 383.62069,273.922559 C383.62069,275.349498 382.402165,276.506734 380.898625,276.506734" id="Fill-130" fill="#EBF1F9"></path>
                <path d="M393.965517,213.62514 L327.864319,213.62514 C323.760865,233.439795 322.475098,247.533412 321.551724,264.44725 L355.356243,264.44725 L358.025882,254.333342 C358.598754,258.849352 359.16687,261.783724 359.715067,264.44725 L391.180829,264.44725 L393.965517,213.62514 Z" id="Fill-132" fill="#2E5A99"></path>
                <path d="M420.059581,170.555556 C402.835666,157.40008 386.72674,139.820502 373.100627,121.285236 C362.671495,107.459325 367.354629,100.338953 377.83319,96.4758698 C384.420073,96.9648339 390.001909,99.1534595 395.135891,105.634828 C409.926721,124.306791 416.338957,135.211371 427.586207,153.937005 L420.059581,170.555556 Z" id="Fill-134" fill="#FF5254"></path>
                <path d="M435.344828,109.057332 L429.868038,106.81257 L424.137931,121.819364 L434.514793,126.624579 C435.122528,119.875206 435.297438,113.695381 435.344828,109.057332" id="Fill-136" fill="#E3E3E3"></path>
                <path d="M423.8637,122.317621 L411.206897,154.531635 L419.948147,170.555556 C429.504519,160.529606 435.657276,142.673327 437.068966,127.43241 L423.8637,122.317621 Z" id="Fill-138" fill="#FF5254"></path>
                <path d="M441.116019,118.02718 L437.160073,119.431972 C435.32195,120.084637 433.27473,119.658242 431.840318,118.340291 C424.417525,111.522765 416.805549,96.743746 413.793103,87.801753 L430.605047,81.832211 C432.94102,89.3333526 439.066084,103.074177 443.741348,109.470716 C445.949691,112.491846 444.650151,116.772332 441.116019,118.02718" id="Fill-140" fill="#427FE0"></path>
                <path d="M426.724138,83.6229415 L412.466211,88.7022121 C404.591513,91.5074567 395.932179,87.4032422 393.124439,79.534998 C390.317302,71.6664526 394.424726,63.0138849 402.299123,60.208339 L416.557351,55.1290685 L426.724138,83.6229415 Z" id="Fill-142" fill="#2E5A99"></path>
                <path d="M414.178993,56.5951167 C411.465001,58.0637632 411.368875,64.7629616 413.892112,71.7702407 C416.415049,78.7772232 420.769475,83.9054769 423.806882,83.3349791 C423.809876,83.3426885 490.517241,83.5549944 490.517241,83.5549944 L465.704413,14.6436588 L414.178993,56.5951167 Z" id="Fill-144" fill="#2E5A99"></path>
                <path d="M465.330549,53.8718085 C472.996422,75.1148133 485.276637,90.1988018 492.759232,87.5629492 C500.242127,84.9273928 500.093945,65.5698495 492.428072,44.3268447 C484.762199,23.0838399 472.481984,7.99985136 464.999389,10.635704 C457.516493,13.2712604 457.664676,32.6288037 465.330549,53.8718085" id="Fill-146" fill="#427FE0"></path>
                <path d="M465.188689,53.5329613 C466.878438,58.1287306 468.79034,62.4330824 470.825727,66.3271605 L486.206897,58.1812621 L478.433383,37.0398429 L461.206897,40.1667855 C462.171171,44.4309316 463.498939,48.9374855 465.188689,53.5329613" id="Fill-148" fill="#2E5A99"></path>
                <path d="M478.283528,49.1330067 C480.327865,55.0337778 483.602321,59.2239096 485.597948,58.4915412 C487.593288,57.7594695 487.553802,52.3825391 485.509465,46.4814714 C483.465417,40.5807003 480.190385,36.3905685 478.195045,37.1229369 C476.199994,37.8550086 476.239192,43.231939 478.283528,49.1330067" id="Fill-150" fill="#B3C9FF"></path>
                <g id="Group-154" transform="translate(457.758621, 7.752525)">
                    <mask id="mask-4" fill="white">
                        <use xlink:href="#path-3"></use>
                    </mask>
                    <g id="Clip-153"></g>
                    <path d="M8.07215035,3.95478709 C2.56009344,5.93453146 1.7849789,23.3025999 9.4850211,45.059553 C17.1853587,66.8165062 28.6930329,79.7730745 34.2050898,77.7933301 C39.7168513,75.8135858 40.4922613,58.4455173 32.7919237,36.6885642 C25.0915861,14.9316111 13.5839119,1.97504273 8.07215035,3.95478709 M35.4094122,81.1960623 C31.0712521,82.7541476 25.5887346,79.7379611 19.9718128,72.7033666 C14.7477653,66.1606582 9.82413371,56.7737596 6.10748312,46.2724552 C2.39083253,35.7711507 0.308893779,25.3635813 0.245974801,16.9672989 C0.177738727,7.93986698 2.52966783,2.11014027 6.86782795,0.552054974 C11.2056927,-1.00573275 16.6882102,2.01015619 22.305132,9.04475062 C27.5291795,15.5874591 32.4531065,24.97406 36.1697571,35.4753645 C39.8864076,45.9769665 41.968051,56.3842383 42.0312654,64.7808183 C42.0989107,73.8082503 39.7472769,79.637977 35.4094122,81.1960623" id="Fill-152" fill="#B3C9FF" mask="url(#mask-4)"></path>
                </g>
                <path d="M432.241596,97.2067397 L439.434345,108.47509 L441.37931,104.415952 L439.379378,99.557465 L435.792065,92.1689113 L434.386797,92.2623496 L432.241596,97.2067397 Z M432.392603,118.872054 L423.697942,106.582514 L420.168011,98.989903 L418.103448,99.9456858 L419.841233,108.942884 L425.143076,117.075025 L432.392603,118.872054 Z" id="Fill-155" fill="#F4ACC8"></path>
                <path d="M389.909598,180.628907 C390.303869,166.36351 392.813519,134.554836 393.700853,114.290405 C394.055251,106.206046 388.773501,98.9317869 380.953238,96.8333745 C360.938827,91.4630327 337.36169,89.6929433 320.321425,97.1691324 C315.615461,99.2336419 312.733857,103.818863 312.941556,109.212105 C313.99136,136.495927 327.955414,180.628907 327.955414,180.628907 L320.088731,231.714366 L399.137931,231.714366 L389.836695,180.628907 L389.909598,180.628907 Z" id="Fill-157" fill="#FF5254"></path>
                <path d="M376.724138,181.201337 L372.681332,94.9597836 C362.393028,92.7889783 351.547248,91.6928849 341.37931,92.3661018 L364.004235,181.270233 L362.172108,219.654882 L376.45235,219.654882 L376.724138,181.201337 Z" id="Fill-159" fill="#427FE0"></path>
                <path d="M277.8248,115.426487 L272.413793,118.812249 C272.686071,121.261936 273.070955,124.21664 273.5887,127.485971 L283.62069,124.994103 L277.8248,115.426487 Z" id="Fill-161" fill="#E3E3E3"></path>
                <polygon id="Fill-163" fill="#F4ACC8" points="267.241379 102.789486 282.973582 100.782828 283.651785 104.641233 287.068966 106.766615 279.980467 118.738077 272.525949 118.872054"></polygon>
                <path d="M296.551724,174.921637 C299.139694,155.07358 302.832211,124.385535 314.089908,102.505612 L339.655172,116.295504 C333.489187,137.570235 323.533268,164.976514 313.8666,182.615039 L296.551724,174.921637 Z" id="Fill-165" fill="#FF5254"></path>
                <path d="M308.208611,166.704035 L283.869211,124.901796 L271.551724,127.50075 C274.11258,144.320961 282.357245,169.34128 294.943032,180.300682 C301.027659,185.192268 307.323962,187.077467 313.793103,182.881089 L308.208611,166.704035 Z" id="Fill-167" fill="#FF5254"></path>
                <polygon id="Fill-169" fill="#2E5A99" points="362.640816 219.654882 362.068966 231.714366 378.448276 231.714366 377.15072 219.654882"></polygon>
                <polygon id="Fill-171" fill="#F4ACC8" points="365.517241 81.4859118 362.063782 105.089787 346.551724 92.0823423 354.112677 71.4955107"></polygon>
                <path d="M372.403417,79.6980881 C372.63091,83.4225076 369.115086,86.8836113 362.099942,84.484083 L350.641617,79.369166 L344.827586,62.0238681 L350.50076,48.2379349 L371.092682,48.6992571 L372.403417,79.6980881 Z" id="Fill-173" fill="#F4ACC8"></path>
                <polygon id="Fill-175" fill="#F4ACC8" points="369.827586 62.020202 375 70.7746479 370.670925 71.4955107"></polygon>
                <path d="M372.215222,74.594227 L366.515949,75.5954514 C363.01564,76.2103224 359.611442,74.0916681 358.582707,70.6579146 C358.582707,70.6579146 356.992144,61.7654964 356.912348,59.6911679 L372.246962,54.9021824 L375.862069,43.0695847 L370.749839,44.2807578 L350.809056,45.0693381 C341.928359,45.3212165 338.546705,52.1240318 341.638248,61.9586731 L345.836245,73.864648 C346.967913,77.0737774 347.244378,78.8198552 350.468518,79.8225772 L351.61739,76.4085906 C352.313299,74.340851 351.911654,72.1092857 350.724812,70.2832416 C350.533185,69.9891338 350.356686,69.6677716 350.200655,69.323947 C349.249936,67.2268566 349.426435,65.0890343 350.594588,64.549038 C351.763039,64.0090417 353.48086,65.2714291 354.431876,67.3685195 C355.26661,69.2101375 355.780088,81.7896851 355.780088,81.7896851 L363.200741,85.5897256 C370.397435,87.56492 373.715905,83.8592217 373.257306,80.1229744 L372.215222,74.594227 Z" id="Fill-177" fill="#4F2674"></path>
                <polygon id="Fill-179" fill="#FFFFFF" points="344.827586 91.9925434 353.212045 112.842312 361.206897 105.719924 347.350071 88.7233446"></polygon>
                <polygon id="Fill-181" fill="#FFFFFF" points="365.472894 93.4216991 367.241379 111.119529 361.206897 105.666147 363.644386 89.5847363"></polygon>
                <path d="M282.400613,69.7727273 L282.400613,97.1550152 C282.400613,101.273207 279.080502,104.624106 275.000148,104.624106 C270.919498,104.624106 267.599682,101.273207 267.599682,97.1550152 L267.599682,69.7727273 L256.896552,69.7727273 L256.896552,97.1550152 C256.896552,107.245913 265.001669,115.426487 275.000148,115.426487 C284.998331,115.426487 293.103448,107.245913 293.103448,97.1550152 L293.103448,69.7727273 L282.400613,69.7727273 Z" id="Fill-183" fill="#2E5A99"></path>
                <mask id="mask-6" fill="white">
                    <use xlink:href="#path-5"></use>
                </mask>
                <g id="Clip-186"></g>
                <polygon id="Fill-185" fill="#427FE0" mask="url(#mask-6)" points="256.896552 79.2480359 268.103448 79.2480359 268.103448 69.7727273 256.896552 69.7727273"></polygon>
                <polygon id="Fill-187" fill="#FF5254" mask="url(#mask-6)" points="282.758621 79.2480359 293.965517 79.2480359 293.965517 69.7727273 282.758621 69.7727273"></polygon>
                <polygon id="Fill-188" fill="#F4ACC8" mask="url(#mask-6)" points="270.689655 102.293744 282.527295 99.9214366 283.62069 103.108517 277.513197 107.673962 272.461042 107.506982"></polygon>
                <path d="M275,67.1885522 C274.776149,67.1885522 274.552011,67.0938347 274.387931,66.9305189 C274.232759,66.7752397 274.137931,66.5516491 274.137931,66.3274844 C274.137931,66.0949961 274.232759,65.8797292 274.387931,65.7161263 C274.594828,65.5180807 274.887644,65.4236503 275.172414,65.483638 C275.223851,65.4925357 275.275862,65.5097571 275.327299,65.5269784 C275.37931,65.5525234 275.431034,65.5786425 275.483046,65.6130852 C275.525862,65.6389172 275.568678,65.6733599 275.611782,65.7161263 C275.767529,65.8797292 275.862069,66.0949961 275.862069,66.3274844 C275.862069,66.5516491 275.767529,66.7752397 275.611782,66.9305189 C275.568678,66.9732852 275.525862,67.007728 275.483046,67.0421707 C275.431034,67.0682897 275.37931,67.1027324 275.327299,67.1199538 C275.275862,67.1457858 275.223851,67.1541095 275.172414,67.1713308 C275.111782,67.1802285 275.060345,67.1885522 275,67.1885522" id="Fill-189" fill="#B3C9FF" mask="url(#mask-6)"></path>
                <path d="M217.392694,40.5420497 C217.383732,40.047419 217.778659,39.6328771 218.279936,39.6241783 C218.772549,39.6148796 219.176139,40.0111241 219.185101,40.5147535 C219.193764,41.0099841 218.799733,41.4146274 218.30712,41.4239261 C217.804948,41.4239261 217.401358,41.0366803 217.392694,40.5420497 L217.392694,40.5420497 Z M221.846526,41.4686198 C221.353614,41.4506223 220.968545,41.0279816 220.986171,40.532751 C221.004393,40.0381203 221.425609,39.6508746 221.917923,39.6688721 C222.411731,39.6961682 222.7968,40.1101102 222.778577,40.6140396 C222.75199,41.0909727 222.357361,41.4686198 221.882374,41.4686198 L221.846526,41.4686198 Z M213.816545,40.7670181 C213.772033,40.2630888 214.14814,39.8311493 214.641948,39.7951544 C215.134262,39.7591594 215.56444,40.1281077 215.600288,40.6230383 C215.635837,41.1179689 215.268394,41.5499084 214.775482,41.5949021 L214.704085,41.5949021 C214.247021,41.5949021 213.852094,41.2349526 213.816545,40.7670181 L213.816545,40.7670181 Z M225.368903,41.7208844 C224.87629,41.6755908 224.517809,41.2349526 224.570983,40.739722 C224.616391,40.2450913 225.054634,39.8851417 225.548442,39.9298355 C226.041056,39.9841279 226.398939,40.4250661 226.354727,40.9199967 C226.310215,41.3792323 225.915288,41.7295832 225.458523,41.7295832 C225.431339,41.7295832 225.40505,41.7208844 225.368903,41.7208844 L225.368903,41.7208844 Z M210.249955,41.2076564 C210.18722,40.7130257 210.527479,40.2630888 211.011429,40.1910989 C211.505237,40.118809 211.962001,40.4700598 212.024138,40.9559917 C212.095834,41.4506223 211.755576,41.909858 211.262365,41.9728491 C211.226517,41.9818479 211.182006,41.9818479 211.137494,41.9818479 C210.698056,41.9818479 210.312988,41.6575933 210.249955,41.2076564 L210.249955,41.2076564 Z M228.88202,42.1708214 C228.39807,42.0895328 228.057513,41.6308971 228.138171,41.1359664 C228.209867,40.6500345 228.666632,40.3077825 229.159544,40.3890711 C229.643494,40.461061 229.983752,40.9199967 229.903691,41.4146274 C229.841555,41.8558655 229.45559,42.1795202 229.016152,42.1795202 C228.971341,42.1795202 228.926531,42.1708214 228.88202,42.1708214 L228.88202,42.1708214 Z M206.728175,41.8825618 C206.629293,41.3972298 206.933704,40.9199967 207.426616,40.8210106 C207.910565,40.7223244 208.377189,41.0279816 208.484733,41.5229122 C208.582718,42.0088441 208.269345,42.4767785 207.785396,42.5847634 C207.722661,42.5934621 207.668889,42.6027608 207.605856,42.6027608 C207.184939,42.6027608 206.817795,42.3058025 206.728175,41.8825618 L206.728175,41.8825618 Z M232.36825,42.8004331 C231.884002,42.6927482 231.570629,42.2248138 231.678473,41.7295832 C231.776159,41.2436513 232.251445,40.9379942 232.735395,41.0366803 C233.219345,41.1359664 233.533016,41.6128996 233.426368,42.0988315 C233.344514,42.5220721 232.968408,42.8184306 232.556154,42.8184306 C232.494018,42.8184306 232.430985,42.8097318 232.36825,42.8004331 L232.36825,42.8004331 Z M203.250309,42.7917344 C203.12484,42.3145012 203.403559,41.8108718 203.877651,41.6848895 C204.353236,41.5499084 204.845849,41.8291693 204.98028,42.3058025 C205.114113,42.7917344 204.836887,43.286365 204.361899,43.4126473 C204.280942,43.4393436 204.200583,43.4486423 204.120223,43.4486423 C203.725595,43.4486423 203.367412,43.1876789 203.250309,42.7917344 L203.250309,42.7917344 Z M235.818932,43.6106196 C235.343645,43.4846372 235.05686,42.9894066 235.182627,42.5127735 C235.307797,42.0268416 235.791747,41.7388819 236.275696,41.8645643 C236.750983,41.9908466 237.03717,42.4767785 236.912001,42.9627104 C236.804158,43.3676536 236.445676,43.6376158 236.042982,43.6376158 C235.970987,43.6376158 235.899291,43.628917 235.818932,43.6106196 L235.818932,43.6106196 Z M199.854594,43.9252755 C199.683718,43.4573411 199.934954,42.9447129 200.400382,42.7824357 C200.867005,42.6114596 201.377244,42.8637243 201.539158,43.3316587 C201.709138,43.7995931 201.457902,44.3125212 200.992474,44.4744985 C200.893294,44.5104935 200.79501,44.5287909 200.696129,44.5287909 C200.328985,44.5287909 199.979465,44.2945237 199.854594,43.9252755 L199.854594,43.9252755 Z M239.232868,44.5821834 C238.757881,44.4385035 238.497683,43.9345742 238.641673,43.4573411 C238.784767,42.9807079 239.2962,42.7197444 239.761927,42.8637243 C240.236915,43.0167028 240.496814,43.5206322 240.353122,43.9885666 C240.236915,44.3752124 239.878135,44.6274771 239.501729,44.6274771 C239.412408,44.6274771 239.322489,44.6094796 239.232868,44.5821834 L239.232868,44.5821834 Z M242.593631,45.7250232 C242.128202,45.5540472 241.88563,45.0321203 242.056506,44.5734846 C242.226486,44.0968514 242.737322,43.8625843 243.20275,44.0335603 C243.669373,44.1955376 243.911049,44.7174644 243.741069,45.1853989 C243.606639,45.5453484 243.265783,45.7790157 242.898638,45.7790157 C242.800355,45.7790157 242.692512,45.7610182 242.593631,45.7250232 L242.593631,45.7250232 Z M196.528784,45.2930838 C196.331918,44.834448 196.547007,44.3038224 197.004071,44.114249 C197.452172,43.9165767 197.980634,44.1235477 198.178396,44.5821834 C198.375262,45.041419 198.159874,45.5723446 197.711773,45.7610182 C197.595266,45.8153106 197.470395,45.8423068 197.354187,45.8423068 C197.004071,45.8423068 196.682035,45.6353358 196.528784,45.2930838 L196.528784,45.2930838 Z M245.901218,47.0121428 C245.443258,46.8231693 245.229065,46.2922437 245.417268,45.833308 C245.605172,45.3743724 246.125269,45.1584026 246.590697,45.3473762 C247.047761,45.5360497 247.262849,46.0672753 247.074647,46.5262109 C246.931553,46.867863 246.590697,47.0841327 246.241775,47.0841327 C246.133932,47.0841327 246.017724,47.0568366 245.901218,47.0121428 L245.901218,47.0121428 Z M193.311415,46.8858605 C193.087364,46.4359236 193.257941,45.8965992 193.706043,45.6716307 C194.145481,45.4466622 194.682606,45.6173383 194.906656,46.0582765 C195.130707,46.5082135 194.960429,47.0481378 194.521588,47.2731062 C194.386859,47.3357975 194.253324,47.3720924 194.109633,47.3720924 C193.786402,47.3720924 193.473329,47.1921176 193.311415,46.8858605 L193.311415,46.8858605 Z M249.154436,48.4426423 C248.706334,48.2356713 248.508572,47.7050457 248.715296,47.2551088 C248.930385,46.7964731 249.458846,46.6068996 249.906948,46.8138706 C250.355049,47.0214415 250.552214,47.5607659 250.346386,48.0107029 C250.194031,48.3349574 249.862137,48.5329297 249.530542,48.5329297 C249.404775,48.5329297 249.270643,48.5059335 249.154436,48.4426423 L249.154436,48.4426423 Z M190.210551,48.6856083 C189.950653,48.2629675 190.094045,47.7050457 190.515261,47.453381 C190.936775,47.1921176 191.49272,47.3357975 191.743059,47.7590381 C192.002958,48.1816789 191.859565,48.7399007 191.43835,48.9918653 C191.294957,49.0815528 191.134238,49.1175477 190.981585,49.1175477 C190.677175,49.1175477 190.381129,48.9648691 190.210551,48.6856083 L190.210551,48.6856083 Z M252.34462,50.0174216 C251.896519,49.7924531 251.726539,49.24383 251.959253,48.8118906 C252.183304,48.3619536 252.720727,48.1909776 253.168829,48.4246448 C253.607968,48.6496133 253.778844,49.1898376 253.545234,49.6307758 C253.392879,49.9460316 253.070844,50.1167077 252.748211,50.1167077 C252.612884,50.1167077 252.470686,50.0897115 252.34462,50.0174216 L252.34462,50.0174216 Z M187.226195,50.692327 C186.94867,50.2876837 187.04785,49.7210631 187.450246,49.4418023 C187.8622,49.1535427 188.418145,49.2531287 188.705229,49.6667708 C188.982454,50.071714 188.884768,50.6383346 188.481178,50.9172955 C188.32016,51.0255803 188.140621,51.0795727 187.970043,51.0795727 C187.683856,51.0795727 187.405435,50.9445917 187.226195,50.692327 L187.226195,50.692327 Z M255.463408,51.7184832 C255.03323,51.4755172 254.880577,50.9265942 255.131812,50.4946547 C255.373489,50.0627153 255.920471,49.9097367 256.35035,50.1617014 C256.781125,50.4046673 256.932882,50.9532904 256.681945,51.3852299 C256.520629,51.6734895 256.216218,51.8444655 255.902249,51.8444655 C255.759453,51.8444655 255.607398,51.7991719 255.463408,51.7184832 L255.463408,51.7184832 Z M258.520058,53.5542259 C258.097946,53.2842637 257.964113,52.7263419 258.232676,52.3123999 C258.492575,51.8894592 259.048221,51.7631769 259.460773,52.0241403 C259.881391,52.2851038 260.016419,52.8343268 259.74696,53.2662662 C259.576981,53.5362284 259.290196,53.689207 258.985188,53.689207 C258.82417,53.689207 258.662256,53.6442133 258.520058,53.5542259 L258.520058,53.5542259 Z M261.494855,55.4979535 C261.082602,55.2189926 260.974759,54.6610708 261.262141,54.2471288 C261.539367,53.8331868 262.095013,53.7252019 262.507266,54.0041628 C262.910558,54.2831237 263.018102,54.8410455 262.740877,55.2549875 C262.570001,55.5159509 262.283216,55.650932 261.997028,55.650932 C261.826152,55.650932 261.646911,55.5969396 261.494855,55.4979535 L261.494855,55.4979535 Z M264.407516,57.5586646 C264.003926,57.2617062 263.914305,56.6950857 264.210351,56.2985412 C264.506098,55.893898 265.062043,55.8126094 265.465633,56.1095677 C265.859066,56.3978273 265.949583,56.9647479 265.653537,57.3606924 C265.473998,57.6036583 265.205436,57.7296407 264.935678,57.7296407 C264.747774,57.7296407 264.559572,57.6756482 264.407516,57.5586646 L264.407516,57.5586646 Z M267.230556,59.7270607 C266.835928,59.4121049 266.773791,58.8454843 267.0785,58.4585385 C267.391574,58.0715927 267.956182,58.0086016 268.342147,58.3145587 C268.727216,58.6205158 268.790249,59.1871364 268.484942,59.5833808 C268.306299,59.7993506 268.0464,59.9160342 267.786202,59.9160342 C267.588739,59.9160342 267.391574,59.853343 267.230556,59.7270607 L267.230556,59.7270607 Z M269.972639,61.9950428 C269.596533,61.6710882 269.552021,61.1041677 269.874654,60.7265206 C270.19669,60.3479737 270.760999,60.3032799 271.137704,60.6269346 C271.515005,60.9514891 271.559517,61.5181097 271.236286,61.8960567 C271.057045,62.1030277 270.806706,62.2110126 270.55547,62.2110126 C270.349045,62.2110126 270.143217,62.1390226 269.972639,61.9950428 L269.972639,61.9950428 Z M272.635259,64.3707099 C272.267218,64.0287578 272.249294,63.4615373 272.580591,63.1015877 C272.912783,62.7329394 273.476794,62.7059432 273.844536,63.0475953 C274.211979,63.3808486 274.239463,63.9474692 273.897711,64.3167174 C273.719366,64.5056909 273.476794,64.6043771 273.235417,64.6043771 C273.020029,64.6043771 272.804642,64.5236884 272.635259,64.3707099 L272.635259,64.3707099 Z" id="Fill-190" fill="#B3C9FF" mask="url(#mask-6)"></path>
                <path d="M184.482759,53.4062851 C184.421839,53.4062851 184.370402,53.4062851 184.30977,53.3889489 C184.258908,53.3805697 184.206322,53.3632335 184.154885,53.3458974 C184.103161,53.3196041 184.051724,53.2935999 183.999138,53.2589275 C183.956322,53.2332122 183.913506,53.1985398 183.870402,53.1549104 C183.714655,52.9991737 183.62069,52.7735143 183.62069,52.5394758 C183.62069,52.4267906 183.637644,52.3143944 183.68046,52.2100883 C183.732471,52.1060712 183.793391,52.0107222 183.870402,51.9240413 C184.189368,51.6033218 184.766954,51.6033218 185.086494,51.9240413 C185.171839,52.0107222 185.232471,52.1060712 185.275575,52.2100883 C185.318391,52.3143944 185.344828,52.4267906 185.344828,52.5394758 C185.344828,52.7735143 185.249425,52.9991737 185.086494,53.1549104 C185.051437,53.1985398 185.007759,53.2332122 184.956322,53.2589275 C184.913793,53.2935999 184.861207,53.3196041 184.810057,53.3458974 C184.758046,53.3632335 184.706609,53.3805697 184.64569,53.3889489 C184.59454,53.4062851 184.534195,53.4062851 184.482759,53.4062851" id="Fill-191" fill="#B3C9FF" mask="url(#mask-6)"></path>
                <path d="M275,67.1885522 C274.776149,67.1885522 274.552011,67.0938347 274.387931,66.9305189 C274.232759,66.7752397 274.137931,66.5516491 274.137931,66.3274844 C274.137931,66.0949961 274.232759,65.8797292 274.387931,65.7161263 C274.594828,65.5180807 274.887644,65.4236503 275.172414,65.483638 C275.223851,65.4925357 275.275862,65.5097571 275.327299,65.5269784 C275.37931,65.5525234 275.431034,65.5786425 275.483046,65.6130852 C275.525862,65.6389172 275.568678,65.6733599 275.611782,65.7161263 C275.767529,65.8797292 275.862069,66.0949961 275.862069,66.3274844 C275.862069,66.5516491 275.767529,66.7752397 275.611782,66.9305189 C275.568678,66.9732852 275.525862,67.007728 275.483046,67.0421707 C275.431034,67.0682897 275.37931,67.1027324 275.327299,67.1199538 C275.275862,67.1457858 275.223851,67.1541095 275.172414,67.1713308 C275.111782,67.1802285 275.060345,67.1885522 275,67.1885522" id="Fill-192" fill="#B3C9FF" mask="url(#mask-6)"></path>
                <path d="M198.265089,27.6106763 C198.265089,27.10741 198.658621,26.7032992 199.160157,26.7032992 C199.652147,26.6940128 200.055226,27.0987227 200.055226,27.5927025 C200.063878,28.0872814 199.661097,28.5006786 199.16881,28.5006786 C198.676821,28.5006786 198.273742,28.1052552 198.265089,27.6106763 L198.265089,27.6106763 Z M202.74043,28.5366262 C202.238894,28.5186524 201.854014,28.1052552 201.862965,27.6106763 C201.881165,27.1166965 202.292896,26.721273 202.784885,26.7392468 C203.277173,26.7572206 203.671301,27.1706179 203.653101,27.6645976 C203.644151,28.1498901 203.24137,28.5366262 202.758033,28.5366262 L202.74043,28.5366262 Z M194.676164,27.7278055 C194.649014,27.2332266 195.033595,26.8198293 195.525882,26.7931682 C196.018766,26.7751944 196.43915,27.1526441 196.456753,27.6559103 C196.483605,28.1498901 196.099024,28.5725738 195.607035,28.5905476 C195.087896,28.5905476 194.693469,28.2127984 194.676164,27.7278055 L194.676164,27.7278055 Z M206.293851,28.6980908 C205.801862,28.6621432 205.434287,28.2400586 205.461437,27.7454797 C205.488588,27.2512004 205.917624,26.8740503 206.409911,26.9007114 C206.903094,26.936659 207.278724,27.3593427 207.251574,27.8533225 C207.215771,28.3299276 206.821643,28.6980908 206.356506,28.6980908 L206.293851,28.6980908 Z M191.086344,27.979139 C191.050541,27.4851593 191.417519,27.0537882 191.910702,27.0178406 C192.393144,26.9726066 192.832025,27.3413689 192.867828,27.8446351 C192.912283,28.3386149 192.5462,28.769986 192.053018,28.8059336 L191.97276,28.8059336 C191.516275,28.8059336 191.122147,28.4554446 191.086344,27.979139 L191.086344,27.979139 Z M209.85652,28.9859711 C209.364531,28.9320497 208.997255,28.4913922 209.050362,27.9974124 C209.095116,27.5031331 209.533998,27.1433576 210.025987,27.1885917 C210.518274,27.242513 210.8766,27.6738841 210.831846,28.1678639 C210.787391,28.6351825 210.392965,28.9859711 209.936778,28.9859711 L209.85652,28.9859711 Z M187.506071,28.3658752 C187.452964,27.8712963 187.801444,27.4219514 188.294626,27.36803 C188.786616,27.3141087 189.23415,27.6645976 189.287555,28.1591765 C189.341558,28.6531563 188.991884,29.0935143 188.499895,29.1567221 L188.401139,29.1567221 C187.944953,29.1567221 187.560074,28.8239074 187.506071,28.3658752 L187.506071,28.3658752 Z M213.392338,29.3900819 C212.899156,29.3181867 212.559328,28.8688418 212.621983,28.3745625 C212.685234,27.8892701 213.141122,27.5387811 213.624758,27.6019889 C214.116747,27.6738841 214.465525,28.123229 214.393919,28.6172087 C214.340514,29.0665536 213.955933,29.3993683 213.508399,29.3993683 C213.472596,29.3993683 213.436793,29.3900819 213.392338,29.3900819 L213.392338,29.3900819 Z M183.952651,28.8778287 C183.872691,28.383849 184.21222,27.9252177 184.695856,27.8533225 C185.187845,27.77274 185.645225,28.1139425 185.715935,28.6085214 C185.797088,29.0935143 185.456365,29.551846 184.964078,29.6327281 C184.919623,29.6327281 184.874869,29.6420145 184.830414,29.6420145 C184.400185,29.6420145 184.015604,29.3181867 183.952651,28.8778287 L183.952651,28.8778287 Z M216.91831,29.9206083 C216.434675,29.8394267 216.103798,29.3721081 216.184056,28.8868156 C216.265507,28.3925363 216.730346,28.0600211 217.213981,28.1412027 C217.697019,28.2220848 218.028195,28.6894035 217.947937,29.1746959 C217.876331,29.6147543 217.500403,29.9292957 217.070173,29.9292957 C217.017066,29.9292957 216.972611,29.9292957 216.91831,29.9206083 L216.91831,29.9206083 Z M180.408181,29.5251849 C180.319271,29.030606 180.631948,28.5632873 181.124235,28.4734184 C181.607572,28.3745625 182.073604,28.6980908 182.171465,29.1833832 C182.26127,29.6686757 181.938747,30.1452808 181.455709,30.2348502 C181.402303,30.2441366 181.348002,30.252824 181.285944,30.252824 C180.864665,30.252824 180.488737,29.9472695 180.408181,29.5251849 L180.408181,29.5251849 Z M220.426679,30.5673654 C219.943641,30.4688091 219.630367,29.992204 219.728526,29.5072111 C219.827282,29.0219186 220.293314,28.7073773 220.776651,28.8059336 C221.26864,28.9047894 221.581317,29.3813945 221.482859,29.866687 C221.393651,30.2887716 221.018021,30.5853392 220.605991,30.5853392 C220.543038,30.5853392 220.489632,30.5766518 220.426679,30.5673654 L220.426679,30.5673654 Z M176.899812,30.298058 C176.783453,29.8127656 177.087776,29.3361605 177.571113,29.2193308 C178.054748,29.1114881 178.529134,29.4080557 178.645195,29.8933481 C178.752901,30.3786405 178.448876,30.863933 177.973894,30.9720753 C177.902288,30.9900491 177.839633,30.9987364 177.76773,30.9987364 C177.365844,30.9987364 176.998568,30.7114553 176.899812,30.298058 L176.899812,30.298058 Z M223.909389,31.3402385 C223.434406,31.2234088 223.130382,30.7381164 223.24674,30.252824 C223.362801,29.7765184 223.846138,29.4799508 224.329475,29.5880932 C224.804457,29.7046233 225.108482,30.1899157 224.992422,30.6752081 C224.893368,31.0886054 224.52639,31.3674988 224.114658,31.3674988 C224.051705,31.3674988 223.9801,31.3582123 223.909389,31.3402385 L223.909389,31.3402385 Z M173.418295,31.2147215 C173.292389,30.7294291 173.570456,30.2348502 174.053793,30.1093332 C174.527583,29.9745297 175.020467,30.2621104 175.145776,30.7381164 C175.280037,31.2234088 174.993317,31.7179877 174.51893,31.8435047 C174.438374,31.8614785 174.357818,31.870765 174.286213,31.870765 C173.892084,31.870765 173.526001,31.610145 173.418295,31.2147215 L173.418295,31.2147215 Z M227.372408,32.2299413 C226.889071,32.1041248 226.612197,31.610145 226.746457,31.124553 C226.880419,30.648547 227.372408,30.3699532 227.846794,30.5047567 C228.321479,30.6305732 228.598651,31.124553 228.47364,31.610145 C228.357281,32.0052689 227.999254,32.2661885 227.605722,32.2661885 C227.52457,32.2661885 227.444014,32.256902 227.372408,32.2299413 L227.372408,32.2299413 Z M169.981531,32.256902 C169.828475,31.7805965 170.097592,31.2773302 170.562431,31.1335399 C171.037115,30.9807626 171.538055,31.2506691 171.690217,31.7179877 C171.833726,32.1939937 171.574156,32.69726 171.100367,32.8500372 C171.009965,32.8772975 170.921055,32.8859848 170.830951,32.8859848 C170.455321,32.8859848 170.097592,32.6433386 169.981531,32.256902 L169.981531,32.256902 Z M230.791867,33.2454607 C230.317182,33.1019699 230.057613,32.5987036 230.209774,32.1220985 C230.352985,31.6460926 230.85482,31.3854726 231.328609,31.5292629 C231.803294,31.6820402 232.062565,32.1853064 231.910702,32.6613124 C231.794343,33.038762 231.445565,33.2906947 231.060089,33.2906947 C230.97088,33.2906947 230.881075,33.2727209 230.791867,33.2454607 L230.791867,33.2454607 Z M166.579377,33.443472 C166.418563,32.9761533 166.659933,32.4546137 167.125667,32.2928496 C167.590804,32.1220985 168.101292,32.3647448 168.271653,32.8320634 C168.432467,33.2993821 168.191395,33.8206221 167.725363,33.9826858 C167.626607,34.0186334 167.528746,34.0363076 167.421338,34.0363076 C167.054062,34.0363076 166.713936,33.8026483 166.579377,33.443472 L166.579377,33.443472 Z M234.175225,34.3781093 C233.709491,34.2160455 233.468121,33.704092 233.628935,33.2367733 C233.799594,32.7694547 234.309186,32.5268085 234.77492,32.6882731 C235.240057,32.8500372 235.482024,33.3712772 235.321509,33.829609 C235.186652,34.2073582 234.846526,34.4320306 234.479548,34.4320306 C234.380792,34.4320306 234.273384,34.4140568 234.175225,34.3781093 L234.175225,34.3781093 Z M163.232717,34.7555589 C163.053405,34.2882403 163.277172,33.7667007 163.733359,33.5869628 C164.189844,33.3982379 164.708983,33.6229103 164.896947,34.0815417 C165.084912,34.5395738 164.861145,35.0701003 164.40466,35.2495387 C164.297252,35.2947727 164.180893,35.3127465 164.064832,35.3127465 C163.716054,35.3127465 163.375033,35.1060479 163.232717,34.7555589 L163.232717,34.7555589 Z M237.523376,35.6362748 C237.057344,35.4562373 236.833577,34.9349973 237.021243,34.4766656 C237.200555,34.0093469 237.719695,33.7846745 238.176179,33.964712 C238.642212,34.1534368 238.865979,34.6746769 238.678014,35.132709 C238.543157,35.4921849 238.203031,35.6988835 237.845004,35.6988835 C237.737298,35.6988835 237.629889,35.6809098 237.523376,35.6362748 L237.523376,35.6362748 Z M159.93827,36.2021498 C159.732702,35.7528049 159.93827,35.2228776 160.385804,35.0161789 C160.833338,34.8094803 161.370677,35.0161789 161.567294,35.4655238 C161.772861,35.9148686 161.576244,36.4540825 161.11976,36.6514946 C161.003699,36.705416 160.877793,36.7323767 160.752782,36.7323767 C160.412656,36.7323767 160.090133,36.5349645 159.93827,36.2021498 L159.93827,36.2021498 Z M240.81663,37.020257 C240.360444,36.8222457 240.153982,36.2920187 240.350897,35.833687 C240.548408,35.3843422 241.085151,35.1776435 241.532685,35.3753553 C241.988871,35.5733666 242.195035,36.1035935 241.988871,36.5616257 C241.845661,36.8941408 241.515082,37.0921521 241.174359,37.0921521 C241.04905,37.0921521 240.933288,37.0741783 240.81663,37.020257 L240.81663,37.020257 Z M156.697825,37.7841432 C156.483605,37.3434857 156.662022,36.8042719 157.100904,36.5795995 C157.548438,36.3642135 158.086075,36.5436519 158.299997,36.9843094 C158.523764,37.4243678 158.345645,37.972868 157.906763,38.188254 C157.772205,38.2514619 157.638541,38.2874094 157.503684,38.2874094 C157.172509,38.2874094 156.859534,38.098385 156.697825,37.7841432 L156.697825,37.7841432 Z M244.048423,38.5207692 C243.609542,38.3050837 243.421577,37.7661694 243.635797,37.3255119 C243.850912,36.8761671 244.388251,36.6874422 244.835785,36.9034273 C245.273772,37.1188133 245.461736,37.6583267 245.247516,38.1076715 C245.095355,38.4309002 244.772832,38.6109377 244.441657,38.6109377 C244.307098,38.6109377 244.173136,38.5836775 244.048423,38.5207692 L244.048423,38.5207692 Z M153.538831,39.500341 C153.296864,39.0689699 153.449025,38.5207692 153.887609,38.2874094 C154.317838,38.0447632 154.863233,38.1975405 155.095653,38.6375989 C155.337918,39.0689699 155.185756,39.6174702 154.746874,39.8601164 C154.612316,39.931712 154.460154,39.9676596 154.317838,39.9676596 C154.003968,39.9676596 153.699644,39.7969086 153.538831,39.500341 L153.538831,39.500341 Z M247.225617,40.1563844 C246.786735,39.9137382 246.625921,39.374824 246.858341,38.9341665 C247.09076,38.4941081 247.637348,38.3323439 248.07623,38.5657037 C248.505266,38.7996626 248.66608,39.3475637 248.433362,39.7882212 C248.272548,40.0847888 247.968524,40.2642272 247.646299,40.2642272 C247.502491,40.2642272 247.359281,40.2282796 247.225617,40.1563844 L247.225617,40.1563844 Z M150.441895,41.3429544 C150.182325,40.9202707 150.316287,40.3723695 150.737566,40.11145 C151.157949,39.85083 151.712891,39.9949199 151.972461,40.4170045 C152.222484,40.8396882 152.08882,41.3875893 151.667541,41.6482093 C151.524927,41.7383779 151.363218,41.7830128 151.202404,41.7830128 C150.898379,41.7830128 150.602709,41.6215482 150.441895,41.3429544 L150.441895,41.3429544 Z M250.331504,41.9088294 C249.901274,41.6574958 249.767312,41.1003082 250.01823,40.6776245 C250.268252,40.2555399 250.814542,40.11145 251.243876,40.3630831 C251.665155,40.6150158 251.808366,41.1629169 251.557449,41.594288 C251.387087,41.8728818 251.091715,42.0349455 250.779038,42.0349455 C250.626578,42.0349455 250.474416,41.9897114 250.331504,41.9088294 L250.331504,41.9088294 Z M147.415968,43.3197722 C147.147447,42.9063749 147.255154,42.3402004 147.666885,42.0708931 C148.078616,41.7922993 148.633559,41.9088294 148.911626,42.3222266 C149.179849,42.7356239 149.07244,43.2931111 148.660709,43.5717049 C148.508547,43.6702612 148.338186,43.7151957 148.168421,43.7151957 C147.873049,43.7151957 147.594981,43.5717049 147.415968,43.3197722 L147.415968,43.3197722 Z M253.356237,43.7963773 C252.944804,43.5264708 252.828445,42.9695828 253.096668,42.5561855 C253.365188,42.1335018 253.920429,42.0169717 254.331862,42.286279 C254.753439,42.5561855 254.869499,43.1130736 254.59173,43.5357573 C254.421965,43.7963773 254.135543,43.9398681 253.848525,43.9398681 C253.679059,43.9398681 253.508697,43.8949336 253.356237,43.7963773 L253.356237,43.7963773 Z M144.480741,45.4050319 C144.19402,45.0096084 144.283229,44.4431343 144.68601,44.1555536 C145.080436,43.858986 145.644031,43.9491545 145.930751,44.3535649 C146.226422,44.7576757 146.136318,45.3151629 145.733239,45.6117305 C145.572425,45.7192737 145.393412,45.7824815 145.205447,45.7824815 C144.928275,45.7824815 144.660053,45.6476781 144.480741,45.4050319 L144.480741,45.4050319 Z M256.30131,45.8091427 C255.898231,45.5218615 255.80037,44.955687 256.096041,44.5509771 C256.381866,44.1465667 256.93651,44.0569973 257.339589,44.3442784 C257.742668,44.6411456 257.831578,45.1983332 257.545156,45.602444 C257.375392,45.8450902 257.097622,45.9798937 256.820748,45.9798937 C256.641436,45.9798937 256.453173,45.9262719 256.30131,45.8091427 L256.30131,45.8091427 Z M141.633827,47.6158085 C141.329504,47.2290724 141.392457,46.6631974 141.786884,46.3576429 C142.171465,46.0517889 142.735059,46.1149967 143.039382,46.5011337 C143.343407,46.8965572 143.281349,47.4630313 142.895873,47.7685858 C142.726407,47.8944023 142.528895,47.957011 142.340931,47.957011 C142.072709,47.957011 141.813139,47.8404809 141.633827,47.6158085 L141.633827,47.6158085 Z M259.138378,47.957011 C258.753797,47.6517561 258.690844,47.085282 258.995167,46.699145 C259.29949,46.3037216 259.86398,46.2405137 260.248561,46.5463678 C260.642092,46.8606096 260.704747,47.4177972 260.401021,47.8132207 C260.221709,48.0378931 259.962139,48.1550223 259.693618,48.1550223 C259.505952,48.1550223 259.309037,48.0918145 259.138378,47.957011 L259.138378,47.957011 Z M138.877912,49.9431153 C138.555389,49.5659652 138.599844,48.9997906 138.975773,48.6759628 C139.351702,48.3524345 139.915296,48.3976685 140.237819,48.7751182 C140.560342,49.1525679 140.514992,49.7184428 140.139063,50.0419711 C139.969597,50.1857615 139.763135,50.2579562 139.557866,50.2579562 C139.306948,50.2579562 139.056031,50.1498139 138.877912,49.9431153 L138.877912,49.9431153 Z M261.877883,50.2399824 C261.502253,49.9164541 261.46645,49.3499801 261.788078,48.9725304 C262.119253,48.6043672 262.683146,48.5684196 263.058776,48.8919479 C263.425754,49.2151766 263.461855,49.7813511 263.139333,50.1591004 C262.960916,50.365799 262.709998,50.4646549 262.459379,50.4646549 C262.253812,50.4646549 262.047349,50.3924601 261.877883,50.2399824 L261.877883,50.2399824 Z M136.218963,52.3785643 C135.878837,52.0101016 135.897037,51.4439271 136.263418,51.102425 C136.621744,50.7699098 137.194289,50.7878836 137.525464,51.1566459 C137.86559,51.5158222 137.839335,52.0819967 137.481009,52.4237984 C137.311543,52.585263 137.087776,52.6664446 136.872661,52.6664446 C136.630396,52.6664446 136.389324,52.5672892 136.218963,52.3785643 L136.218963,52.3785643 Z M264.481935,52.6664446 C264.133157,52.3159556 264.124206,51.7497811 264.464332,51.3900057 C264.81311,51.0398163 265.377003,51.0305298 265.735329,51.3813183 C266.084107,51.7225209 266.093654,52.2886954 265.753827,52.6484708 C265.574515,52.8279092 265.3412,52.9177782 265.108781,52.9177782 C264.885014,52.9177782 264.661247,52.8371957 264.481935,52.6664446 L264.481935,52.6664446 Z M133.649819,54.9131689 C133.301041,54.5626799 133.301041,53.9965054 133.649819,53.6460164 C133.999492,53.2865405 134.563385,53.2865405 134.912163,53.6367299 C135.261837,53.9872189 135.270489,54.5533934 134.920816,54.9131689 C134.742399,55.0839199 134.509084,55.1734893 134.285317,55.1734893 C134.052898,55.1734893 133.829131,55.0839199 133.649819,54.9131689 L133.649819,54.9131689 Z M266.95292,55.2274107 C266.621446,54.8592475 266.648895,54.2927734 267.006027,53.9512713 C267.373303,53.6187561 267.937196,53.6460164 268.277322,54.0144792 C268.608497,54.3826424 268.581347,54.9488169 268.215264,55.2813321 C268.044605,55.4433958 267.829788,55.515291 267.614673,55.515291 C267.373303,55.515291 267.131337,55.4161355 266.95292,55.2274107 L266.95292,55.2274107 Z M131.188381,57.5460301 C130.830951,57.2135149 130.8038,56.6473404 131.134976,56.2788776 C131.475102,55.9107144 132.038995,55.8927406 132.405972,56.2252558 C132.764298,56.5667579 132.790553,57.1326329 132.450726,57.4921087 C132.280961,57.69012 132.038995,57.7886763 131.797624,57.7886763 C131.58251,57.7886763 131.358743,57.7080938 131.188381,57.5460301 L131.188381,57.5460301 Z M269.262196,57.9234798 C268.957276,57.5373428 269.011278,56.9708687 269.396157,56.6566269 C269.781633,56.3507728 270.345228,56.4046942 270.658204,56.7914303 C270.971179,57.1775673 270.909121,57.7440414 270.523645,58.0585828 C270.35388,58.1933863 270.157264,58.255995 269.959752,58.255995 C269.700182,58.255995 269.440613,58.1394649 269.262196,57.9234798 L269.262196,57.9234798 Z M128.8257,60.2780468 C128.449771,59.9548181 128.405316,59.3886436 128.726944,59.0108943 C129.049467,58.6334446 129.61336,58.5888097 129.989288,58.9120385 C130.364919,59.2355667 130.409672,59.8020408 130.088044,60.1794905 C129.917385,60.3861891 129.667661,60.4940319 129.407792,60.4940319 C129.201628,60.4940319 128.996359,60.4221367 128.8257,60.2780468 L128.8257,60.2780468 Z M271.40111,60.7546519 C271.11439,60.3502415 271.213146,59.7927544 271.616225,59.5054732 C272.019304,59.217593 272.582899,59.3167484 272.860071,59.7208592 C273.146791,60.1255691 273.047737,60.6914441 272.644957,60.9793243 C272.493093,61.0868675 272.305129,61.1407889 272.135364,61.1407889 C271.848644,61.1407889 271.57177,61.0059855 271.40111,60.7546519 L271.40111,60.7546519 Z M126.570725,63.0909456 C126.185249,62.7853911 126.113345,62.2195161 126.427215,61.83278 C126.731539,61.4463434 127.295133,61.3747478 127.679714,61.6800027 C128.06519,61.9948437 128.137094,62.5520313 127.831876,62.9474548 C127.653757,63.1721272 127.393889,63.2889568 127.124772,63.2889568 C126.936808,63.2889568 126.740191,63.2260486 126.570725,63.0909456 L126.570725,63.0909456 Z M273.334457,63.7290152 C273.083838,63.3069306 273.218397,62.7494435 273.638781,62.4981099 C274.059463,62.2374899 274.614107,62.3722934 274.873975,62.8033648 C275.124594,63.2260486 274.990334,63.7742493 274.569652,64.0348693 C274.426441,64.1247383 274.265627,64.1603863 274.103918,64.1603863 C273.799595,64.1603863 273.504222,64.007609 273.334457,63.7290152 L273.334457,63.7290152 Z M124.421964,65.9937133 C124.019184,65.6974452 123.938628,65.1309712 124.225348,64.7355477 C124.521019,64.3314369 125.075066,64.2415679 125.478145,64.5381355 C125.880925,64.8344036 125.961482,65.3915912 125.675656,65.7963011 C125.496344,66.0389473 125.228122,66.1644643 124.950055,66.1644643 C124.76209,66.1644643 124.583077,66.1108425 124.421964,65.9937133 L124.421964,65.9937133 Z M122.372258,68.9596888 C121.960527,68.681095 121.853119,68.1236079 122.130291,67.7102106 C122.408061,67.3058002 122.971954,67.198257 123.375033,67.4768508 C123.786764,67.7551451 123.894172,68.3123327 123.616105,68.72573 C123.446638,68.9776626 123.159918,69.1211534 122.873198,69.1211534 C122.703732,69.1211534 122.52442,69.0675316 122.372258,68.9596888 L122.372258,68.9596888 Z M120.430259,72.0059474 C120.009577,71.7363405 119.883969,71.1884393 120.152191,70.7657556 C120.411761,70.343671 120.966703,70.2175549 121.378434,70.4784744 C121.799713,70.7477818 121.924724,71.3049694 121.665154,71.7183667 C121.494793,71.9969605 121.200316,72.1410504 120.904645,72.1410504 C120.742936,72.1410504 120.57347,72.0958163 120.430259,72.0059474 L120.430259,72.0059474 Z M118.585821,75.1064268 C118.156487,74.8637806 118.013276,74.306593 118.264194,73.8845084 C118.515111,73.4531373 119.060506,73.3090474 119.490437,73.5609801 C119.919771,73.8033268 120.062982,74.3605144 119.812065,74.7918854 C119.642599,75.0704792 119.347226,75.2325429 119.033356,75.2325429 C118.881194,75.2325429 118.729032,75.1965954 118.585821,75.1064268 L118.585821,75.1064268 Z M116.849986,78.279101 C116.411104,78.0364548 116.25029,77.497241 116.491362,77.0565835 C116.724975,76.6252124 117.261419,76.4544614 117.700301,76.6971076 C118.138287,76.9310665 118.299996,77.4792672 118.057731,77.9106382 C117.905868,78.2158932 117.592892,78.3866442 117.27037,78.3866442 C117.12686,78.3866442 116.983649,78.3506966 116.849986,78.279101 L116.849986,78.279101 Z" id="Fill-193" fill="#B3C9FF" mask="url(#mask-6)"></path>
                <path d="M115.521388,81.832211 C115.290035,81.832211 115.066403,81.73685 114.912263,81.5724245 C114.869653,81.5374588 114.835336,81.4944018 114.800733,81.4423867 C114.774996,81.3987518 114.748972,81.3467368 114.723806,81.2950106 C114.706076,81.2429955 114.689489,81.1909804 114.671759,81.1300072 C114.663466,81.0782811 114.655172,81.0173078 114.655172,80.9652927 C114.655172,80.7312248 114.748972,80.5144952 114.912263,80.3497807 C115.229694,80.0293099 115.804502,80.0293099 116.12222,80.3497807 C116.284653,80.5144952 116.37931,80.7312248 116.37931,80.9652927 C116.37931,81.0173078 116.371017,81.0782811 116.353287,81.1300072 C116.344993,81.1909804 116.328121,81.2429955 116.310677,81.2950106 C116.284653,81.3467368 116.259487,81.3987518 116.233464,81.4423867 C116.199147,81.4944018 116.16483,81.5374588 116.12222,81.5724245 C115.96808,81.73685 115.744162,81.832211 115.521388,81.832211" id="Fill-194" fill="#B3C9FF" mask="url(#mask-6)"></path>
                <path d="M275,67.1885522 C274.776149,67.1885522 274.552011,67.0938347 274.387931,66.9305189 C274.232759,66.7752397 274.137931,66.5516491 274.137931,66.3274844 C274.137931,66.0949961 274.232759,65.8797292 274.387931,65.7161263 C274.594828,65.5180807 274.887644,65.4236503 275.172414,65.483638 C275.223851,65.4925357 275.275862,65.5097571 275.327299,65.5269784 C275.37931,65.5525234 275.431034,65.5786425 275.483046,65.6130852 C275.525862,65.6389172 275.568678,65.6733599 275.611782,65.7161263 C275.767529,65.8797292 275.862069,66.0949961 275.862069,66.3274844 C275.862069,66.5516491 275.767529,66.7752397 275.611782,66.9305189 C275.568678,66.9732852 275.525862,67.007728 275.483046,67.0421707 C275.431034,67.0682897 275.37931,67.1027324 275.327299,67.1199538 C275.275862,67.1457858 275.223851,67.1541095 275.172414,67.1713308 C275.111782,67.1802285 275.060345,67.1885522 275,67.1885522" id="Fill-195" fill="#B3C9FF" mask="url(#mask-6)"></path>
                <path d="M135.688926,1.77557887 C135.187425,1.77557887 134.794454,1.36719573 134.794454,0.87861561 C134.794454,0.390627351 135.205911,0 135.697572,0 C136.189532,0 136.592044,0.399209315 136.583398,0.887789434 C136.583398,1.38495152 136.180587,1.77557887 135.688926,1.77557887 L135.688926,1.77557887 Z M131.207921,0.914127187 C131.198082,0.416965104 131.592246,0.0177557887 132.092554,0.00858196453 C132.585407,-5.20417043e-17 132.987025,0.399209315 132.996864,0.887789434 C133.005511,1.37577769 132.602701,1.78416083 132.111039,1.78416083 C131.609539,1.78416083 131.216568,1.39353348 131.207921,0.914127187 L131.207921,0.914127187 Z M139.258166,1.82884623 C138.756665,1.81967241 138.372341,1.4115852 138.380987,0.923301011 C138.399473,0.434720893 138.81093,0.0440935419 139.302591,0.053267366 C139.794551,0.0710231547 140.188416,0.479406294 140.169931,0.967690483 C140.161284,1.44709678 139.758474,1.82884623 139.275459,1.82884623 L139.258166,1.82884623 Z M127.620195,1.01207995 C127.602902,0.523795766 127.987227,0.106534732 128.478888,0.0976568377 C128.980389,0.079901049 129.391846,0.461650506 129.409139,0.949638764 C129.427624,1.43821888 129.033759,1.85547992 128.541799,1.86435781 C128.031652,1.87323571 127.638681,1.49178218 127.620195,1.01207995 L127.620195,1.01207995 Z M142.826213,1.95284082 C142.334552,1.9356769 141.950227,1.51811993 141.967819,1.02983574 C141.994653,0.541551555 142.415054,0.160098028 142.906716,0.177261957 C143.399271,0.20419157 143.783596,0.612574709 143.756762,1.10056297 C143.739171,1.57996926 143.345305,1.95284082 142.871831,1.95284082 L142.826213,1.95284082 Z M124.033662,1.18075995 C124.00653,0.692179828 124.382208,0.275214724 124.874764,0.248285112 C125.366723,0.221947358 125.795473,0.594818921 125.822606,1.08280718 C125.849738,1.57996926 125.464519,1.99752623 124.972858,2.02386398 C124.453766,2.02386398 124.060795,1.65128835 124.033662,1.18075995 L124.033662,1.18075995 Z M146.395453,2.13957254 C145.903792,2.11293885 145.528114,1.68679992 145.555246,1.19851574 C145.590131,0.709935617 146.011129,0.337359985 146.503088,0.372871562 C147.003396,0.399209315 147.370427,0.825940103 147.344189,1.31392836 C147.317057,1.78416083 146.923191,2.13957254 146.449718,2.13957254 L146.395453,2.13957254 Z M120.455776,1.42934099 C120.419997,0.9410568 120.787028,0.514917872 121.27869,0.479406294 C121.770351,0.434720893 122.200294,0.807888385 122.236073,1.29617257 C122.271851,1.78416083 121.905118,2.21029976 121.413159,2.24581134 L121.341601,2.24581134 C120.875879,2.24581134 120.482908,1.89099149 120.455776,1.42934099 L120.455776,1.42934099 Z M149.956047,2.39673554 C149.463193,2.352642 149.097354,1.92650307 149.141779,1.43821888 C149.177558,0.949638764 149.606606,0.585941026 150.098268,0.621156674 C150.599768,0.665842075 150.95696,1.091981 150.922076,1.57996926 C150.886297,2.05079359 150.492133,2.39673554 150.027604,2.39673554 L149.956047,2.39673554 Z M116.877889,1.74864925 C116.833464,1.260661 117.190656,0.825940103 117.683212,0.781254702 C118.175171,0.73686523 118.613462,1.091981 118.658186,1.57996926 C118.702611,2.06854938 118.344525,2.50327027 117.852863,2.54795567 L117.763714,2.54795567 C117.307832,2.54795567 116.922613,2.21029976 116.877889,1.74864925 L116.877889,1.74864925 Z M153.515447,2.70746184 C153.023786,2.6633683 152.665699,2.22805555 152.711019,1.74006729 C152.764389,1.2517831 153.20268,0.896371398 153.69464,0.9410568 C154.186301,0.994324166 154.544388,1.42046309 154.490421,1.91762518 C154.445698,2.37039779 154.061373,2.71663567 153.605491,2.71663567 C153.578359,2.71663567 153.54258,2.70746184 153.515447,2.70746184 L153.515447,2.70746184 Z M113.308649,2.13957254 C113.246633,1.65128835 113.604123,1.21627152 114.095784,1.15383033 C114.578799,1.10056297 115.026035,1.44709678 115.088946,1.9356769 C115.143211,2.42366515 114.79377,2.86755987 114.302109,2.92082724 C114.266032,2.92082724 114.230253,2.9294092 114.194474,2.9294092 C113.747239,2.9294092 113.362914,2.59234515 113.308649,2.13957254 L113.308649,2.13957254 Z M157.066202,3.08950723 C156.57454,3.02736197 156.225995,2.59234515 156.279365,2.10406096 C156.342276,1.61548084 156.780567,1.26983482 157.272526,1.32251033 C157.764188,1.37577769 158.112733,1.81967241 158.059363,2.30825253 C158.006291,2.76102514 157.621072,3.08950723 157.173836,3.08950723 L157.066202,3.08950723 Z M109.749249,2.6186829 C109.677691,2.13069464 110.026237,1.68679992 110.509251,1.61548084 C111.000912,1.54445768 111.457689,1.8821136 111.519706,2.37039779 C111.591562,2.85838605 111.251663,3.30228076 110.760001,3.37330392 C110.715278,3.38247774 110.679499,3.38247774 110.635074,3.38247774 C110.196484,3.38247774 109.811265,3.06257762 109.749249,2.6186829 L109.749249,2.6186829 Z M160.608309,3.52422812 C160.116648,3.46237879 159.776749,3.00960618 159.83966,2.53019989 C159.901677,2.04161977 160.358454,1.69567782 160.841468,1.76640504 C161.333428,1.82884623 161.681973,2.27274095 161.610416,2.76102514 C161.557046,3.21379775 161.172721,3.53340195 160.734132,3.53340195 C160.689706,3.53340195 160.653629,3.53340195 160.608309,3.52422812 L160.608309,3.52422812 Z M106.207141,3.16911235 C106.126937,2.68970605 106.456997,2.22805555 106.940011,2.15762425 C107.432567,2.06854938 107.888748,2.39673554 107.968952,2.88531566 C108.049454,3.36472195 107.718202,3.82637246 107.235187,3.90627351 C107.182115,3.9151514 107.137391,3.9151514 107.083425,3.9151514 C106.654377,3.9151514 106.278699,3.6044251 106.207141,3.16911235 L106.207141,3.16911235 Z M164.14177,4.0213902 C163.649811,3.95036705 163.318856,3.49789037 163.390414,3.00960618 C163.461972,2.53019989 163.918152,2.19254397 164.409814,2.26356713 C164.902369,2.3437641 165.233622,2.79653672 165.162064,3.27594301 C165.090208,3.71983773 164.714829,4.03056403 164.276239,4.03056403 C164.231516,4.03056403 164.186196,4.03056403 164.14177,4.0213902 L164.14177,4.0213902 Z M102.673978,3.80861667 C102.584829,3.32921038 102.897596,2.85838605 103.389257,2.76990303 C103.872272,2.68112409 104.337993,3.00072829 104.426844,3.48013458 C104.515993,3.95954087 104.203226,4.42977334 103.720212,4.51884822 C103.6573,4.52772611 103.604228,4.53660401 103.549964,4.53660401 C103.12986,4.53660401 102.754182,4.2347556 102.673978,3.80861667 L102.673978,3.80861667 Z M167.666287,4.58099348 C167.174626,4.5007965 166.852318,4.03914599 166.932522,3.5597397 C167.013024,3.07175144 167.478448,2.75214724 167.961462,2.83204829 C168.444477,2.91165341 168.77573,3.36472195 168.694333,3.85300614 C168.622775,4.28802296 168.23845,4.58987137 167.818347,4.58987137 C167.764082,4.58987137 167.719657,4.58987137 167.666287,4.58099348 L167.666287,4.58099348 Z M171.181262,5.19356819 C170.689303,5.10478924 170.366995,4.64313874 170.465685,4.16373244 C170.554834,3.68432615 171.020555,3.36472195 171.503868,3.4535009 C171.986585,3.54198391 172.307998,4.00363442 172.218849,4.48304071 C172.138645,4.90917964 171.762967,5.21132398 171.342267,5.21132398 C171.288897,5.21132398 171.235527,5.20244608 171.181262,5.19356819 L171.181262,5.19356819 Z M99.1587044,4.52772611 C99.0513678,4.04831982 99.3641347,3.57749549 99.8471494,3.47125669 C100.330164,3.37330392 100.804532,3.67544826 100.902328,4.15515048 C101.009664,4.64313874 100.697196,5.10478924 100.214181,5.21132398 C100.15127,5.22907976 100.089253,5.22907976 100.034988,5.22907976 C99.6148849,5.22907976 99.2478534,4.94469122 99.1587044,4.52772611 L99.1587044,4.52772611 Z M174.678646,5.86828816 C174.19593,5.77063132 173.882865,5.29980699 173.980958,4.82099255 C174.07935,4.34129033 174.544177,4.03056403 175.027192,4.12822087 C175.520046,4.22558177 175.832515,4.6964061 175.733825,5.1758124 C175.644676,5.5927775 175.269296,5.88604395 174.858137,5.88604395 C174.794928,5.88604395 174.732016,5.87716605 174.678646,5.86828816 L174.678646,5.86828816 Z M95.6613203,5.33531857 C95.545039,4.85591227 95.8405128,4.37709784 96.3235274,4.26109335 C96.7970011,4.14597666 97.2800158,4.43894717 97.3959989,4.91835346 C97.5122802,5.39775976 97.2179991,5.87716605 96.7349844,5.99257868 C96.6631285,6.01033447 96.6002173,6.01033447 96.5286596,6.01033447 C96.1261474,6.01033447 95.7591158,5.74370171 95.6613203,5.33531857 L95.6613203,5.33531857 Z M178.167682,6.59657142 C177.684369,6.48974076 177.371006,6.01891643 177.486989,5.53951014 C177.585679,5.06010384 178.068694,4.75855136 178.551708,4.8650861 C179.026077,4.97162083 179.330495,5.44214923 179.231507,5.92155552 C179.142358,6.33881656 178.76668,6.62290918 178.355223,6.62290918 C178.292312,6.62290918 178.229699,6.61373535 178.167682,6.59657142 L178.167682,6.59657142 Z M92.1812293,6.223108 C92.0563014,5.75287553 92.3428305,5.26488727 92.8163042,5.14030082 C93.2906723,5.00713241 93.7823335,5.29122502 93.9168024,5.77063132 C94.0417303,6.24086379 93.7560957,6.72944391 93.273081,6.8534385 C93.2015233,6.87119429 93.1210208,6.88036811 93.0494631,6.88036811 C92.6469509,6.88036811 92.2885659,6.62290918 92.1812293,6.223108 L92.1812293,6.223108 Z M181.64658,7.38611216 C181.17251,7.27099546 180.86839,6.79158917 180.984373,6.32106077 C181.100654,5.84165447 181.583967,5.54868396 182.058037,5.65521869 C182.541052,5.77063132 182.836228,6.25003761 182.728891,6.72944391 C182.630201,7.13782705 182.263766,7.41304177 181.852309,7.41304177 C181.790292,7.41304177 181.718138,7.40416388 181.64658,7.38611216 L181.64658,7.38611216 Z M88.7291651,7.19997231 C88.5946962,6.72944391 88.8627396,6.24086379 89.3371077,6.09911341 C89.8114758,5.96564906 90.3120818,6.23228182 90.4465507,6.70251429 C90.5896661,7.17333862 90.3120818,7.67050071 89.8386081,7.80366912 C89.7572112,7.83000688 89.6770069,7.8391807 89.5878579,7.8391807 C89.2035332,7.8391807 88.8454464,7.59030373 88.7291651,7.19997231 L88.7291651,7.19997231 Z M185.125777,8.22980805 C184.642762,8.10551753 184.347586,7.62611124 184.473707,7.15558284 C184.598337,6.67617654 185.081351,6.39178799 185.564366,6.50749655 C186.039032,6.63149114 186.324667,7.11089743 186.208087,7.59030373 C186.101049,7.9901049 185.74326,8.2561458 185.340748,8.2561458 C185.26919,8.2561458 185.197633,8.24756384 185.125777,8.22980805 L185.125777,8.22980805 Z M85.3119853,8.27390159 C85.1599251,7.80366912 85.4193219,7.30650704 85.8844472,7.15558284 C86.3585171,7.00465863 86.8594212,7.2624135 87.0114814,7.72347214 C87.1638398,8.19429647 86.904443,8.69145856 86.4393177,8.84238276 C86.3406277,8.87789434 86.2514787,8.8864763 86.1620315,8.8864763 C85.7771106,8.8864763 85.4285648,8.64677315 85.3119853,8.27390159 L85.3119853,8.27390159 Z M188.578735,9.13535327 C188.104665,9.00218486 187.819031,8.51390067 187.952605,8.04337227 C188.077831,7.57254794 188.570089,7.28875125 189.043563,7.42191967 C189.526577,7.54621019 189.80446,8.03419845 189.678936,8.50502277 C189.562356,8.90423209 189.205164,9.16169103 188.811,9.16169103 C188.731094,9.16169103 188.659238,9.15310906 188.578735,9.13535327 L188.578735,9.13535327 Z M81.9132913,9.42832379 C81.7519882,8.96667328 81.9934956,8.46033737 82.4586208,8.30083121 C82.9329889,8.14102911 83.4428378,8.38073225 83.6038427,8.84238276 C83.7645494,9.30403327 83.5230421,9.80977731 83.0579168,9.9784573 C82.9595249,10.0139689 82.8614312,10.0231427 82.7627412,10.0231427 C82.3870631,10.0231427 82.0471639,9.80119535 81.9132913,9.42832379 L81.9132913,9.42832379 Z M192.022153,10.0941659 C191.548679,9.95211955 191.270797,9.46383536 191.405862,8.99330696 C191.548679,8.51390067 192.040639,8.24756384 192.515007,8.38073225 C192.988481,8.52277856 193.266065,9.01106275 193.131596,9.48188708 C193.015315,9.8722185 192.657228,10.1207995 192.264257,10.1207995 C192.183754,10.1207995 192.102954,10.1119216 192.022153,10.0941659 L192.022153,10.0941659 Z M195.448278,11.1059499 C194.974804,10.9553216 194.705568,10.4578636 194.857628,9.99621309 C195.001042,9.52598062 195.502244,9.25993972 195.975718,9.4016901 C196.441141,9.55231838 196.709483,10.0408985 196.566367,10.5114269 C196.450086,10.8931764 196.092893,11.1414615 195.707674,11.1414615 C195.627172,11.1414615 195.538023,11.1328795 195.448278,11.1059499 L195.448278,11.1059499 Z M78.5590226,10.6889848 C78.3798302,10.2273343 78.6126909,9.7124164 79.0685733,9.53456259 C79.5336986,9.35730063 80.0524921,9.58782995 80.2316846,10.0494805 C80.4016342,10.5114269 80.1780163,11.0174669 79.7128911,11.1950248 C79.6052563,11.2394142 79.4979197,11.2574659 79.3908813,11.2574659 C79.0327945,11.2574659 78.6928952,11.0355186 78.5590226,10.6889848 L78.5590226,10.6889848 Z M198.856513,12.1715931 C198.382145,12.0206689 198.131692,11.514333 198.283455,11.0526825 C198.435515,10.58245 198.936717,10.333869 199.411383,10.4847932 C199.875912,10.6357174 200.135607,11.1328795 199.983249,11.603112 C199.858619,11.9759835 199.509179,12.2156867 199.133501,12.2156867 C199.044352,12.2156867 198.945662,12.1979309 198.856513,12.1715931 L198.856513,12.1715931 Z M75.23129,12.0292509 C75.043451,11.5767742 75.2584223,11.0526825 75.7143047,10.8662467 C76.1707834,10.679811 76.6982235,10.8931764 76.8860625,11.345653 C77.0739016,11.7987216 76.8595265,12.3225173 76.4030479,12.5089531 C76.2870647,12.5533426 76.1707834,12.5799763 76.0634468,12.5799763 C75.7056581,12.5799763 75.3744055,12.3672027 75.23129,12.0292509 L75.23129,12.0292509 Z M202.24656,13.2899119 C201.780839,13.1389877 201.530685,12.6332436 201.692286,12.1624193 C201.852694,11.7013607 202.36314,11.4524837 202.827669,11.6122858 C203.293092,11.771792 203.543246,12.2781279 203.382241,12.7397784 C203.257611,13.1126499 202.907873,13.3431793 202.532195,13.3431793 C202.443046,13.3431793 202.344356,13.3254235 202.24656,13.2899119 L202.24656,13.2899119 Z M71.9485791,13.4677657 C71.7520935,13.023871 71.9485791,12.5000752 72.4050578,12.2958837 C72.8522936,12.0916921 73.3800319,12.2958837 73.5854622,12.7397784 C73.7911907,13.1836731 73.5854622,13.7160508 73.1382264,13.9116604 C73.0130004,13.9649278 72.8880725,13.9912655 72.771493,13.9912655 C72.4315938,13.9912655 72.1006393,13.7962478 71.9485791,13.4677657 L71.9485791,13.4677657 Z M205.61842,14.4798457 C205.153593,14.3111657 204.911489,13.7962478 205.082035,13.3345973 C205.251389,12.8729468 205.761536,12.6418256 206.226661,12.8019236 C206.691786,12.9706036 206.932995,13.4855215 206.763344,13.9379982 C206.629173,14.3022878 206.289274,14.533113 205.922242,14.533113 C205.814906,14.533113 205.717408,14.5153572 205.61842,14.4798457 L205.61842,14.4798457 Z M68.7198347,15.0036414 C68.4962168,14.5597467 68.6840558,14.0267771 69.1312916,13.8140036 C69.5692846,13.6006382 70.1059675,13.787074 70.3209389,14.2223867 C70.5445568,14.6662814 70.3567178,15.1989551 69.9094819,15.4120246 C69.7839578,15.4744658 69.6500852,15.5008035 69.524561,15.5008035 C69.1936065,15.5008035 68.8715967,15.3229497 68.7198347,15.0036414 L68.7198347,15.0036414 Z M208.963744,15.713577 C208.507862,15.5363151 208.274703,15.0213972 208.453895,14.5686246 C208.624441,14.1069741 209.142936,13.8761488 209.607465,14.0537067 C210.063646,14.2309687 210.296805,14.7373046 210.117612,15.1989551 C209.983442,15.5540709 209.643542,15.7668444 209.28635,15.7668444 C209.178715,15.7668444 209.071677,15.7490886 208.963744,15.713577 L208.963744,15.713577 Z M212.29088,17.0100455 C211.834998,16.8233138 211.61138,16.3086919 211.799219,15.8470414 C211.97871,15.3942688 212.505852,15.1723214 212.961734,15.3584613 C213.417915,15.5363151 213.641532,16.0601109 213.453693,16.5128835 C213.320417,16.8588254 212.98022,17.0721908 212.622133,17.0721908 C212.514498,17.0721908 212.407162,17.0452612 212.29088,17.0100455 L212.29088,17.0100455 Z M65.5265709,16.6282961 C65.2937102,16.2021572 65.4636598,15.6606056 65.902249,15.4297804 C66.340242,15.207833 66.876925,15.3762171 67.1094876,15.802356 C67.3423484,16.2376687 67.1723987,16.7792203 66.7338095,17.0100455 C66.5996387,17.0721908 66.4565233,17.1077024 66.3223525,17.1077024 C66.0006409,17.1077024 65.6872777,16.9298486 65.5265709,16.6282961 L65.5265709,16.6282961 Z M215.600723,18.3597814 C215.144841,18.1641718 214.92987,17.640376 215.126654,17.1964813 C215.314194,16.7437087 215.842231,16.5306393 216.29871,16.717075 C216.754592,16.9120928 216.96032,17.4361845 216.772183,17.8800792 C216.629962,18.2260211 216.29871,18.4302127 215.949269,18.4302127 C215.833286,18.4302127 215.70806,18.403875 215.600723,18.3597814 L215.600723,18.3597814 Z M62.3866774,18.3506076 C62.14517,17.9244687 62.2972302,17.3829171 62.7265766,17.143214 C63.155923,16.9035108 63.7018488,17.054435 63.9520027,17.4805739 C64.1935101,17.9067129 64.041748,18.4479685 63.6124016,18.6968455 C63.468988,18.7678686 63.317226,18.8036761 63.1738124,18.8036761 C62.8607473,18.8036761 62.556627,18.6435781 62.3866774,18.3506076 L62.3866774,18.3506076 Z M218.874788,19.7618969 C218.427552,19.5668791 218.221227,19.0427874 218.427552,18.5903107 C218.624038,18.146416 219.151776,17.9422245 219.607956,18.146416 C220.055192,18.3417297 220.261219,18.8655255 220.055192,19.3180021 C219.912375,19.6467802 219.581719,19.8420938 219.241521,19.8420938 C219.115699,19.8420938 218.999418,19.8151642 218.874788,19.7618969 L218.874788,19.7618969 Z M59.3099931,20.17028 C59.0502982,19.7533149 59.1844689,19.2028855 59.6138153,18.9543044 C60.0345151,18.6968455 60.5798447,18.8300139 60.8392414,19.2561528 C61.0989364,19.6734139 60.9555227,20.2149654 60.5354192,20.4724243 C60.3920056,20.5612033 60.2310007,20.5964189 60.070294,20.5964189 C59.7751183,20.5964189 59.4796445,20.4454947 59.3099931,20.17028 L59.3099931,20.17028 Z M222.130068,21.2359233 C221.682832,21.0231497 221.486347,20.499058 221.701318,20.0551633 C221.90645,19.6112686 222.434189,19.4159549 222.881424,19.6290244 C223.32866,19.8332159 223.52604,20.3573076 223.320014,20.8012024 C223.168252,21.1290926 222.845646,21.3155284 222.506045,21.3155284 C222.380818,21.3155284 222.256189,21.2891906 222.130068,21.2359233 L222.130068,21.2359233 Z M56.286679,22.0882011 C56.0180393,21.6709401 56.1346188,21.1205106 56.5460757,20.8538779 C56.9661793,20.587837 57.5210498,20.7029537 57.7890932,21.1205106 C58.0577328,21.5288938 57.9411533,22.0793232 57.5210498,22.34566 C57.3689896,22.443021 57.19904,22.4877064 57.037737,22.4877064 C56.7425613,22.4877064 56.4566286,22.34566 56.286679,22.0882011 L56.286679,22.0882011 Z M225.351061,22.7629211 C224.912471,22.5409737 224.72493,22.016882 224.948548,21.5729873 C225.163222,21.1382664 225.699308,20.9518306 226.137897,21.1649001 C226.585133,21.3868475 226.763729,21.9109392 226.549354,22.3548339 C226.397294,22.6741421 226.075284,22.8514041 225.752678,22.8514041 C225.619402,22.8514041 225.484337,22.8250663 225.351061,22.7629211 L225.351061,22.7629211 Z M228.543728,24.3523601 C228.105437,24.1304127 227.935487,23.5882693 228.159105,23.1535484 C228.382723,22.7185316 228.928947,22.5498516 229.366344,22.771799 C229.804933,22.9937463 229.975181,23.535002 229.751563,23.9703147 C229.589962,24.2721631 229.277195,24.449721 228.954887,24.449721 C228.821312,24.449721 228.677899,24.4142094 228.543728,24.3523601 L228.543728,24.3523601 Z M53.3259779,24.0857273 C53.0394488,23.686518 53.1467854,23.1357926 53.5495958,22.8514041 C53.9610527,22.5767812 54.5156251,22.6741421 54.7929113,23.0733515 C55.0791423,23.4817346 54.9807504,24.032164 54.5692934,24.3165526 C54.4169351,24.4227914 54.2383389,24.4674768 54.0591464,24.4674768 C53.7818602,24.4674768 53.504574,24.3343084 53.3259779,24.0857273 L53.3259779,24.0857273 Z M231.710158,26.0033525 C231.271867,25.7722313 231.110862,25.2309757 231.343126,24.8048368 C231.576285,24.369524 232.121615,24.2100179 232.560204,24.4405472 C232.989848,24.6716684 233.150257,25.2132199 232.917992,25.6393588 C232.756391,25.9409113 232.452569,26.1098872 232.130559,26.1098872 C231.987742,26.1098872 231.844627,26.0743757 231.710158,26.0033525 L231.710158,26.0033525 Z M50.4275916,26.1806145 C50.1416588,25.7899871 50.2218631,25.2309757 50.6154307,24.9468831 C51.018241,24.6539126 51.5728135,24.7338136 51.8679891,25.124145 C52.1628666,25.5239462 52.0823641,26.0743757 51.6798519,26.3670503 C51.5277917,26.4916367 51.3399527,26.5449041 51.1521136,26.5449041 C50.8748274,26.5449041 50.6067841,26.4203176 50.4275916,26.1806145 L50.4275916,26.1806145 Z M234.831864,27.7164902 C234.402517,27.476787 234.250159,26.9355314 234.491964,26.5093925 C234.733174,26.0832536 235.288044,25.9323294 235.717689,26.1720325 C236.146737,26.4203176 236.289852,26.9532872 236.048643,27.388304 C235.887042,27.6723966 235.58322,27.8321987 235.270453,27.8321987 C235.118393,27.8321987 234.966631,27.7966872 234.831864,27.7164902 L234.831864,27.7164902 Z M47.610006,28.3737503 C47.2969409,27.9917049 47.3684986,27.4326935 47.7534196,27.1216713 C48.1377442,26.8201188 48.7015595,26.8819681 49.0056799,27.2725955 C49.3187449,27.6546409 49.2471872,28.2136523 48.8622662,28.5157966 C48.7015595,28.648965 48.5044776,28.7111103 48.307992,28.7111103 C48.0485952,28.7111103 47.7891984,28.5956977 47.610006,28.3737503 L47.610006,28.3737503 Z M237.918387,29.5012429 C237.488444,29.2523659 237.354572,28.7022324 237.604428,28.2849714 C237.863824,27.8677103 238.40975,27.725664 238.830152,27.9739491 C239.260095,28.2228261 239.393371,28.7732555 239.143515,29.1905166 C238.973267,29.4743133 238.677793,29.6255334 238.374269,29.6255334 C238.221911,29.6255334 238.061204,29.5900218 237.918387,29.5012429 L237.918387,29.5012429 Z M240.958696,31.3564269 C240.538593,31.090386 240.413665,30.5399565 240.681708,30.1315734 C240.941105,29.7140164 241.496274,29.5900218 241.916079,29.8474808 C242.327536,30.1138176 242.452762,30.6550732 242.193365,31.0726302 C242.023416,31.3386711 241.728538,31.4895953 241.433064,31.4895953 C241.272656,31.4895953 241.10211,31.4455017 240.958696,31.3564269 L240.958696,31.3564269 Z M243.956071,33.274348 C243.544315,32.9991333 243.428034,32.4484079 243.705022,32.0403207 C243.982308,31.6319375 244.536583,31.5251069 244.94804,31.7917396 C245.359795,32.0669543 245.466833,32.6170879 245.19879,33.025471 C245.019597,33.2829299 244.742609,33.4252722 244.447434,33.4252722 C244.277186,33.4252722 244.107534,33.3720048 243.956071,33.274348 L243.956071,33.274348 Z M246.898584,35.2718742 C246.495774,34.9877816 246.397084,34.4373521 246.683613,34.028969 C246.970142,33.6294637 247.525012,33.5318069 247.92663,33.8158995 C248.329441,34.0999921 248.428429,34.6501257 248.150248,35.0499268 C247.972248,35.298212 247.694366,35.4316763 247.417378,35.4316763 C247.238185,35.4316763 247.059291,35.3784089 246.898584,35.2718742 L246.898584,35.2718742 Z M249.787429,37.3404236 C249.39416,37.0474531 249.313956,36.4881457 249.608535,36.0975184 C249.903412,35.7065951 250.458283,35.6181121 250.860795,35.9199605 C251.254661,36.2037572 251.335462,36.7633604 251.03969,37.1628657 C250.869442,37.3936909 250.601399,37.5176855 250.32441,37.5176855 C250.136571,37.5176855 249.949031,37.4558362 249.787429,37.3404236 L249.787429,37.3404236 Z M252.622606,39.488874 C252.229933,39.1870256 252.166724,38.6274223 252.470844,38.2459688 C252.774666,37.8642193 253.339078,37.7929003 253.732049,38.1039225 C254.116374,38.405475 254.179285,38.9650782 253.875165,39.3465318 C253.69627,39.5684791 253.436575,39.6838918 253.168532,39.6838918 C252.980693,39.6838918 252.784207,39.6220424 252.622606,39.488874 L252.622606,39.488874 Z M255.377877,41.7261034 C254.993254,41.4153771 254.948829,40.8560697 255.270242,40.4743203 C255.592848,40.1014487 256.156067,40.0570592 256.531745,40.3766634 C256.907125,40.6873897 256.952147,41.2466971 256.639082,41.6195687 C256.45989,41.8326381 256.210332,41.9388769 255.950637,41.9388769 C255.74461,41.9388769 255.539478,41.8681497 255.377877,41.7261034 L255.377877,41.7261034 Z M258.052645,44.0521117 C257.685316,43.7236296 257.65878,43.1643223 257.989436,42.8003286 C258.320689,42.436039 258.893747,42.4097012 259.259586,42.7381833 C259.617971,43.0663695 259.644805,43.6259728 259.313552,43.9896705 C259.143304,44.1852801 258.893747,44.282937 258.651643,44.282937 C258.436672,44.282937 258.222893,44.2116179 258.052645,44.0521117 L258.052645,44.0521117 Z M260.637072,46.4757769 C260.288824,46.129539 260.280178,45.5702316 260.628426,45.2154118 C260.977269,44.868878 261.541085,44.8597042 261.889631,45.206238 C262.248016,45.543302 262.248016,46.1117832 261.90752,46.4580211 C261.728924,46.635283 261.495765,46.7243579 261.263202,46.7243579 C261.039584,46.7243579 260.815966,46.6444568 260.637072,46.4757769 L260.637072,46.4757769 Z M263.124001,48.9885169 C262.784102,48.6328092 262.801992,48.0737978 263.168427,47.7364378 C263.526514,47.3990779 264.090329,47.4168337 264.42993,47.7719494 C264.769829,48.1356472 264.752536,48.6952504 264.385206,49.0326104 C264.214959,49.1924125 263.991341,49.2723136 263.777264,49.2723136 C263.535458,49.2723136 263.302896,49.1746567 263.124001,48.9885169 L263.124001,48.9885169 Z M265.494649,51.6160777 C265.172341,51.2429102 265.217065,50.6750209 265.592445,50.3642946 C265.968123,50.0446904 266.532535,50.0890798 266.85365,50.4619514 C267.176256,50.834527 267.131532,51.3941303 266.756153,51.7137345 C266.585607,51.8557808 266.379878,51.926508 266.17415,51.926508 C265.923698,51.926508 265.664301,51.8202692 265.494649,51.6160777 L265.494649,51.6160777 Z M267.721586,54.3415912 C267.417167,53.9509639 267.489023,53.4005344 267.883187,53.098686 C268.27586,52.7965417 268.839675,52.8767387 269.134553,53.267366 C269.439567,53.6579934 269.367712,54.2084228 268.973846,54.5102712 C268.813139,54.6345617 268.616057,54.6878291 268.42792,54.6878291 C268.159877,54.6878291 267.891833,54.5721206 267.721586,54.3415912 L267.721586,54.3415912 Z M269.779168,57.1913953 C269.510529,56.7830122 269.617567,56.2325827 270.020378,55.9570721 C270.431536,55.6818574 270.986407,55.788688 271.263693,56.1967752 C271.540979,56.6051584 271.433643,57.1558837 271.022484,57.4310985 C270.870126,57.5284594 270.699878,57.5820227 270.521878,57.5820227 C270.235051,57.5820227 269.957765,57.4396804 269.779168,57.1913953 L269.779168,57.1913953 Z M271.657261,60.1563161 C271.406511,59.7301772 271.549626,59.1889215 271.979569,58.9403405 C272.408617,58.6917595 272.954245,58.8423877 273.205293,59.2599447 C273.446204,59.6860836 273.303089,60.2276352 272.87404,60.4762162 C272.730627,60.5561173 272.579163,60.6002108 272.426805,60.6002108 C272.122982,60.6002108 271.817968,60.4407046 271.657261,60.1563161 L271.657261,60.1563161 Z M273.294144,63.2372414 C273.079471,62.7933466 273.26731,62.2695509 273.714546,62.0564814 C274.161781,61.843412 274.698762,62.0298477 274.912839,62.4737424 C275.127513,62.9176372 274.931027,63.4414329 274.483791,63.6542065 C274.368106,63.7166477 274.233041,63.7429854 274.099765,63.7429854 C273.768512,63.7429854 273.446204,63.5568456 273.294144,63.2372414 L273.294144,63.2372414 Z" id="Fill-196" fill="#B3C9FF" mask="url(#mask-6)"></path>
                <path d="M45.6896552,31.010101 C45.4652299,31.010101 45.2413793,30.9144671 45.0859195,30.7587369 C44.9224138,30.5937611 44.8275862,30.3684001 44.8275862,30.1433281 C44.8275862,29.9092994 44.9224138,29.6926062 45.0859195,29.5276304 C45.4051724,29.2072134 45.9827586,29.2072134 46.3017241,29.5276304 C46.4655172,29.6926062 46.5517241,29.9092994 46.5517241,30.1433281 C46.5517241,30.3684001 46.4655172,30.5937611 46.3017241,30.7587369 C46.137931,30.9144671 45.9224138,31.010101 45.6896552,31.010101" id="Fill-197" fill="#B3C9FF" mask="url(#mask-6)"></path>
                <path d="M193.69697,52.5448934 L184.751305,52.5448934 C173.17651,52.5448934 163.793103,61.9494467 163.793103,73.5503285 C163.793103,85.1515091 173.17651,94.5560624 184.751305,94.5560624 L185.220058,94.5560624 L189.224138,104.228395 L193.228218,94.5560624 L193.69697,94.5560624 C205.271766,94.5560624 214.655172,85.1515091 214.655172,73.5506273 C214.655172,61.9494467 205.271766,52.5448934 193.69697,52.5448934" id="Fill-198" fill="#427FE0" mask="url(#mask-6)"></path>
                <path d="M63.6477782,30.1487093 L27.7315322,30.1487093 C12.4156476,30.1487093 0,42.52854 0,57.7995744 C0,73.0709072 12.4156476,85.4507379 27.7315322,85.4507379 L40.7436888,85.4507379 L45.6896552,97.3372615 L50.6356216,85.4507379 L63.6477782,85.4507379 C78.9633634,85.4507379 91.3793103,73.0709072 91.3793103,57.7995744 C91.3793103,42.52854 78.9633634,30.1487093 63.6477782,30.1487093" id="Fill-199" fill="#427FE0" mask="url(#mask-6)"></path>
                <path d="M124.065268,80.9708193 L106.107145,80.9708193 C98.4492031,80.9708193 92.2413793,87.1980164 92.2413793,94.8798575 C92.2413793,102.561699 98.4492031,108.788896 106.107145,108.788896 L111.62837,108.788896 L115.086207,117.14927 L118.544043,108.788896 L124.065268,108.788896 C131.723211,108.788896 137.931034,102.561699 137.931034,94.8798575 C137.931034,87.1980164 131.723211,80.9708193 124.065268,80.9708193" id="Fill-200" fill="#427FE0" mask="url(#mask-6)"></path>
                <polygon id="Fill-201" fill="#FFFFFF" mask="url(#mask-6)" points="180.172414 79.2480359 199.137931 79.2480359 199.137931 77.5252525 180.172414 77.5252525"></polygon>
                <polygon id="Fill-202" fill="#FFFFFF" mask="url(#mask-6)" points="180.172414 74.9410774 199.137931 74.9410774 199.137931 73.2182941 180.172414 73.2182941"></polygon>
                <polygon id="Fill-203" fill="#FFFFFF" mask="url(#mask-6)" points="180.172414 69.7727273 199.137931 69.7727273 199.137931 68.0499439 180.172414 68.0499439"></polygon>
                <polygon id="Fill-204" fill="#FFFFFF" mask="url(#mask-6)" points="100.862069 97.3372615 129.310345 97.3372615 129.310345 95.6144781 100.862069 95.6144781"></polygon>
                <polygon id="Fill-205" fill="#FFFFFF" mask="url(#mask-6)" points="100.862069 93.030303 129.310345 93.030303 129.310345 91.3075196 100.862069 91.3075196"></polygon>
                <polygon id="Fill-206" fill="#FFFFFF" mask="url(#mask-6)" points="18.1034483 67.1885522 73.2758621 67.1885522 73.2758621 65.4657688 18.1034483 65.4657688"></polygon>
                <polygon id="Fill-207" fill="#FFFFFF" mask="url(#mask-6)" points="18.1034483 62.8815937 73.2758621 62.8815937 73.2758621 61.1588103 18.1034483 61.1588103"></polygon>
                <polygon id="Fill-208" fill="#FFFFFF" mask="url(#mask-6)" points="18.1034483 58.5746352 73.2758621 58.5746352 73.2758621 56.8518519 18.1034483 56.8518519"></polygon>
                <polygon id="Fill-209" fill="#FFFFFF" mask="url(#mask-6)" points="18.1034483 53.4062851 73.2758621 53.4062851 73.2758621 51.6835017 18.1034483 51.6835017"></polygon>
                <polygon id="Fill-210" fill="#FFFFFF" mask="url(#mask-6)" points="18.1034483 49.0993266 73.2758621 49.0993266 73.2758621 47.3765432 18.1034483 47.3765432"></polygon>
            </g>
        </g>
    </g>
</svg>