<svg height="188" viewBox="0 0 310 188" width="310" xmlns="http://www.w3.org/2000/svg" xmlns:xlink="http://www.w3.org/1999/xlink"><filter id="a" height="127.3%" width="116.1%" x="-8.1%" y="-13.3%"><feOffset dx="0" dy="2" in="SourceAlpha" result="shadowOffsetOuter1"/><feGaussianBlur in="shadowOffsetOuter1" result="shadowBlurOuter1" stdDeviation="4"/><feColorMatrix in="shadowBlurOuter1" result="shadowMatrixOuter1" type="matrix" values="0 0 0 0 0   0 0 0 0 0   0 0 0 0 0  0 0 0 0.2 0"/><feMerge><feMergeNode in="shadowMatrixOuter1"/><feMergeNode in="SourceGraphic"/></feMerge></filter><g fill="none" fill-rule="evenodd" transform="translate(0 8)"><g transform="translate(11)"><g fill="#fff" opacity=".641361"><ellipse cx="3.460965" cy="158.053267" rx="1" ry="1"/><ellipse cx="33.413364" cy="158.053267" rx="1" ry="1"/><ellipse cx="62.314801" cy="158.053267" rx="1" ry="1"/><ellipse cx="92.267199" cy="158.053267" rx="1" ry="1"/><ellipse cx="121.168637" cy="158.053267" rx="1" ry="1"/><ellipse cx="150.070074" cy="158.053267" rx="1" ry="1"/><ellipse cx="180.022473" cy="158.053267" rx="1" ry="1"/><ellipse cx="208.92391" cy="158.053267" rx="1" ry="1"/><ellipse cx="238.350828" cy="158.053267" rx="1" ry="1"/><ellipse cx="267.777746" cy="158.053267" rx="1" ry="1"/><ellipse cx="3.460965" cy="131.706363" rx="1" ry="1"/><ellipse cx="33.413364" cy="131.706363" rx="1" ry="1"/><ellipse cx="62.314801" cy="131.706363" rx="1" ry="1"/><ellipse cx="92.267199" cy="131.706363" rx="1" ry="1"/><ellipse cx="121.168637" cy="131.706363" rx="1" ry="1"/><ellipse cx="150.070074" cy="131.706363" rx="1" ry="1"/><ellipse cx="180.022473" cy="131.706363" rx="1" ry="1"/><ellipse cx="208.92391" cy="131.706363" rx="1" ry="1"/><ellipse cx="238.350828" cy="131.706363" rx="1" ry="1"/><ellipse cx="267.777746" cy="131.706363" rx="1" ry="1"/><ellipse cx="3.460965" cy="110.62884" rx="1" ry="1"/><ellipse cx="33.413364" cy="110.62884" rx="1" ry="1"/><ellipse cx="62.314801" cy="110.62884" rx="1" ry="1"/><ellipse cx="92.267199" cy="110.62884" rx="1" ry="1"/><ellipse cx="121.168637" cy="110.62884" rx="1" ry="1"/><ellipse cx="150.070074" cy="110.62884" rx="1" ry="1"/><ellipse cx="180.022473" cy="110.62884" rx="1" ry="1"/><ellipse cx="208.92391" cy="110.62884" rx="1" ry="1"/><ellipse cx="238.350828" cy="110.62884" rx="1" ry="1"/><ellipse cx="267.777746" cy="110.62884" rx="1" ry="1"/><ellipse cx="3.460965" cy="84.281936" rx="1" ry="1"/><ellipse cx="33.413364" cy="84.281936" rx="1" ry="1"/><ellipse cx="62.314801" cy="84.281936" rx="1" ry="1"/><ellipse cx="92.267199" cy="84.281936" rx="1" ry="1"/><ellipse cx="121.168637" cy="84.281936" rx="1" ry="1"/><ellipse cx="150.070074" cy="84.281936" rx="1" ry="1"/><ellipse cx="180.022473" cy="84.281936" rx="1" ry="1"/><ellipse cx="208.92391" cy="84.281936" rx="1" ry="1"/><ellipse cx="238.350828" cy="84.281936" rx="1" ry="1"/><ellipse cx="267.777746" cy="84.281936" rx="1" ry="1"/><ellipse cx="3.460965" cy="57.935032" rx="1" ry="1"/><ellipse cx="33.413364" cy="57.935032" rx="1" ry="1"/><ellipse cx="62.314801" cy="57.935032" rx="1" ry="1"/><ellipse cx="92.267199" cy="57.935032" rx="1" ry="1"/><ellipse cx="121.168637" cy="57.935032" rx="1" ry="1"/><ellipse cx="150.070074" cy="57.935032" rx="1" ry="1"/><ellipse cx="180.022473" cy="57.935032" rx="1" ry="1"/><ellipse cx="208.92391" cy="57.935032" rx="1" ry="1"/><ellipse cx="238.350828" cy="57.935032" rx="1" ry="1"/><ellipse cx="267.777746" cy="57.935032" rx="1" ry="1"/><ellipse cx="3.460965" cy="31.588128" rx="1" ry="1"/><ellipse cx="33.413364" cy="31.588128" rx="1" ry="1"/><ellipse cx="62.314801" cy="31.588128" rx="1" ry="1"/><ellipse cx="92.267199" cy="31.588128" rx="1" ry="1"/><ellipse cx="121.168637" cy="31.588128" rx="1" ry="1"/><ellipse cx="150.070074" cy="31.588128" rx="1" ry="1"/><ellipse cx="180.022473" cy="31.588128" rx="1" ry="1"/><ellipse cx="208.92391" cy="31.588128" rx="1" ry="1"/><ellipse cx="238.350828" cy="31.588128" rx="1" ry="1"/><ellipse cx="267.777746" cy="31.588128" rx="1" ry="1"/><ellipse cx="3.460965" cy="5.241224" rx="1" ry="1"/><ellipse cx="33.413364" cy="5.241224" rx="1" ry="1"/><ellipse cx="62.314801" cy="5.241224" rx="1" ry="1"/><ellipse cx="92.267199" cy="5.241224" rx="1" ry="1"/><ellipse cx="121.168637" cy="5.241224" rx="1" ry="1"/><ellipse cx="150.070074" cy="5.241224" rx="1" ry="1"/><ellipse cx="180.022473" cy="5.241224" rx="1" ry="1"/><ellipse cx="208.92391" cy="5.241224" rx="1" ry="1"/><ellipse cx="238.350828" cy="5.241224" rx="1" ry="1"/><ellipse cx="267.777746" cy="5.241224" rx="1" ry="1"/></g><g filter="url(#a)" stroke-width="4"><path d="m3.675 161.837061 40.4357501-8.636702 17.7173799-38.980603 9.2164215 8.02148 9.8690399-20.801183h17.3910707l5.7768809-10.7157609 6.835573 19.2113909 15.334115-27.4838916 38.659177-8.004746 22.099592-18.564317 26.005633-9.6168517 16.532998-24.3043057 39.251369-17.7443186" stroke="#427fe0" stroke-linecap="round" stroke-linejoin="round"/><g fill="#fff" stroke="#ff5254"><ellipse cx="3.15" cy="161.837061" rx="3.15" ry="3.162939"/><ellipse cx="269.85" cy="3.162939" rx="3.15" ry="3.162939"/><ellipse cx="175.756452" cy="65.037939" rx="3.15" ry="3.162939"/><ellipse cx="83.582258" cy="101.573654" rx="3.15" ry="3.162939"/></g></g></g><g fill="#427fe0" fill-rule="nonzero"><path d="m65.1260814 178.93361v-3.900415l1.4932818 2.904564h.6120007l1.4932818-2.904564v3.900415h1.1260813v-5.892116h-1.1995214l-1.7299221 3.352697-1.713602-3.352697h-1.2076815v5.892116zm7.6412663 0v-5.892116h-1.1260814v5.892116zm5.8705442 0v-1.004149h-2.9539236v-4.887967h-1.1260813v5.892116zm5.2911835 0v-1.004149h-2.8968035v-1.53527h2.439843v-.929461h-2.439843v-1.419087h2.8233634v-1.004149h-3.9494447v5.892116zm3.3491012.06639c.2828803 0 .5535206-.031812.811921-.095436.2584003-.063623.4868805-.164592.6854408-.302904.1985602-.138313.3563204-.319502.4732805-.543569.1169602-.224066.1754403-.493776.1754403-.809128 0-.271093-.0435201-.499309-.1305602-.684648s-.2108003-.344398-.3712804-.477178c-.1604802-.13278-.3563205-.24343-.5875208-.33195-.2312002-.08852-.4882405-.171508-.7711209-.248963-.2176002-.055325-.4093605-.107884-.5752807-.157676-.1659202-.049793-.3032803-.105118-.4120805-.165975-.1088001-.060858-.1917602-.131397-.2488803-.211619-.05712-.080221-.0856801-.181189-.0856801-.302904 0-.210235.0761601-.373444.2284803-.489627.1523202-.116182.3835205-.174274.6936008-.174274.1740802 0 .3454405.02213.5140807.06639s.3250403.098202.4692005.161826.2665603.128631.3672005.195021c.1006401.06639.1700002.118949.2080802.157676l.4977606-.92946c-.2556803-.17704-.5548807-.330567-.8976011-.460581s-.7180808-.195021-1.1260813-.195021c-.2937604 0-.5684807.040111-.824161.120332s-.4800806.197787-.6732008.352697c-.1931203.15491-.3440804.348548-.4528806.580913-.1088001.232365-.1632002.497925-.1632002.79668 0 .226833.0340001.421854.1020002.585063.068.163208.1700002.307054.3060003.431535.1360002.124481.3060004.232365.5100006.323651.2040003.091287.4447206.175657.7221609.253112.2284803.06639.4352005.127248.6201608.182573.1849602.055325.3427204.116183.4732805.182573.1305602.06639.2312003.143845.3019204.232365s.1060801.196404.1060801.323651c0 .403873-.3100804.605809-.9302411.605809-.2230403 0-.4406405-.027662-.6528008-.082987-.2121602-.055325-.4052805-.123098-.5793607-.20332-.1740802-.080221-.3250404-.160442-.4528805-.240664-.1278402-.080221-.2162403-.145228-.2652004-.19502l-.4977606.987552c.3372805.24343.7180809.431535 1.1424014.564315s.8540811.19917 1.2892816.19917zm6.0174244-.06639v-4.887967h1.8523222v-1.004149h-4.8225658v1.004149h1.8523222v4.887967zm5.3564635.041494c.4080005 0 .786081-.081605 1.1342414-.244814.3481601-.163208.6473611-.381742.8976011-.655601s.446081-.589212.587521-.946058c.14144-.356847.21216-.731674.21216-1.124482 0-.370677-.068-.735823-.204-1.095435-.136-.359613-.326401-.680498-.571201-.962656s-.539921-.510373-.885361-.684647c-.3454405-.174274-.7276009-.261411-1.1464814-.261411-.4080005 0-.786081.081604-1.1342414.244813s-.6487208.383126-.9016811.659751-.4515205.594744-.5956807.954357-.2162403.735823-.2162403 1.128631c0 .37621.0680001.744122.2040003 1.103734.1360002.359613.3277604.679115.5752807.958507.2475203.279391.5440006.503457.8894411.672199.3454404.168741.7303208.253112 1.1546413.253112zm.0081601-1.012448c-.2665604 0-.5045607-.055325-.7140009-.165976-.2094403-.11065-.3862405-.257261-.5304006-.439834-.1441602-.182572-.2543203-.392807-.3304804-.630705s-.1142402-.484094-.1142402-.738589c0-.24343.0367201-.482711.1101602-.717842.07344-.235132.1808802-.445367.3223203-.630706.1414402-.185339.3182404-.334716.5304007-.448133.2121602-.113416.4542405-.170124.7262409-.170124.2611203 0 .4964006.053942.7058408.161826.2094403.107883.3862405.253112.5304006.435684.14416.182573.25568.392808.33456.630706.078881.237897.118321.484094.118321.738589 0 .24343-.03672.482711-.110161.717842-.07344.235132-.18224.44675-.3263999.634855-.1441602.188105-.3209604.338866-.5304007.452282-.2094402.113416-.4501605.170125-.7221608.170125zm5.3972634.970954v-3.775934l2.978404 3.775934h.913921v-5.883817h-1.126081v3.858921l-3.019204-3.86722h-.873121v5.892116zm9.705749 0v-1.004149h-2.896803v-1.53527h2.439842v-.929461h-2.439842v-1.419087h2.823363v-1.004149h-3.949445v5.892116zm7.236763 0v-1.004149h-1.036321v-3.73444h-1.117922c-.0272.049792-.09112.117565-.19176.203319s-.21896.172891-.35496.261411-.274721.164592-.416161.228216-.26112.095435-.35904.095435v1.037345c.10336 0 .22168-.019364.35496-.058091.13328-.038728.262481-.08852.387601-.149378s.24072-.125864.3468-.195021c.10608-.069156.1836-.136929.23256-.203319v2.514523h-1.158721v1.004149z"/><path d="m2.40056261 179c.27926008 0 .54643679-.031812.80153014-.095436.25509334-.063623.48064956-.164592.67666865-.302904.1960191-.138313.35176029-.319502.4672236-.543569.1154633-.224066.17319495-.493776.17319495-.809128 0-.271093-.04296309-.499309-.12888927-.684648s-.20810246-.344398-.36652885-.477178-.3517603-.24343-.58000171-.33195-.48199215-.171508-.76125223-.248963c-.21481545-.055325-.40412156-.107884-.56791834-.157676-.16379678-.049793-.29939903-.105118-.40680675-.165975-.10740773-.060858-.18930611-.131397-.24569517-.211619-.05638905-.080221-.08458358-.181189-.08458358-.302904 0-.210235.07518541-.373444.22555622-.489627.15037081-.116182.37861222-.174274.68472423-.174274.17185236 0 .34101952.02213.50750149.06639.16648198.04426.32088058.098202.46319581.161826s.26314892.128631.36250107.195021c.09935214.06639.16782456.118949.20541727.157676l.49139033-.92946c-.25240815-.17704-.54777939-.330567-.88611372-.460581-.33833432-.130014-.70889097-.195021-1.11166993-.195021-.29000085 0-.56120535.040111-.8136135.120332s-.47393658.197787-.66458529.352697-.33967692.348548-.44708465.580913c-.10740772.232365-.16111158.497925-.16111158.79668 0 .226833.03356491.421854.10069474.585063.06712983.163208.16782457.307054.30208422.431535s.30208422.232365.5034737.323651c.20138948.091287.43902907.175657.71291876.253112.22555622.06639.4296309.127248.61222403.182573s.33833432.116183.46722359.182573.22824141.143845.29805643.232365.10472253.196404.10472253.323651c0 .403873-.30611201.605809-.91833603.605809-.22018583 0-.43500128-.027662-.64444634-.082987s-.40009377-.123098-.57194612-.20332c-.17185236-.080221-.32088058-.160442-.44708465-.240664-.12620408-.080221-.21347285-.145228-.26180633-.19502l-.49139033.987552c.33296394.24343.70889097.431535 1.12778109.564315s.84315063.19917 1.27278152.19917zm5.94041429-.06639v-4.887967h1.8286165v-1.004149h-4.76084734v1.004149h1.82861648v4.887967zm3.1370727 0 .5236127-1.46888h1.9977836l.5316682 1.46888h1.1438923l-2.1750064-5.892116h-.9827807l-2.1830619 5.892116zm2.3200068-2.273859h-1.6111158l.8216691-2.315353zm4.1923536 2.273859v-1.975104h1.0955588l1.168059 1.975104h1.2486148l-1.3050039-2.215768c.3168528-.138312.5679184-.363762.7531967-.676348.1852783-.312587.2779175-.659751.2779175-1.041494 0-.237898-.0456483-.474412-.1369449-.709544-.0912965-.235131-.2175006-.445366-.3786122-.630705s-.3531029-.334716-.5759739-.448133c-.222871-.113416-.465881-.170124-.7290299-.170124h-2.5294519v5.892116zm1.3936152-2.979253h-1.3936152v-1.908714h1.3452818c.0966669 0 .1919913.023513.285973.07054.0939818.047026.1772228.113416.249723.19917s.1302318.186722.1731949.302904c.0429631.116183.0644447.24343.0644447.381743 0 .13278-.0187964.257261-.0563891.373444s-.0886114.217151-.153056.302905c-.0644446.085753-.1409726.153527-.229584.203319-.0886114.049793-.1839357.074689-.2859731.074689zm5.7873583 2.979253v-4.887967h1.8286165v-1.004149h-4.7608473v1.004149h1.8286165v4.887967z"/><path d="m160.118078 178.93361v-3.900415l1.482669 2.904564h.607651l1.482669-2.904564v3.900415h1.118079v-5.892116h-1.190997l-1.717627 3.352697-1.701424-3.352697h-1.199098v5.892116zm7.58696 0v-5.892116h-1.118078v5.892116zm5.828822 0v-1.004149h-2.93293v-4.887967h-1.118078v5.892116zm5.253579 0v-1.004149h-2.876216v-1.53527h2.422503v-.929461h-2.422503v-1.419087h2.803298v-1.004149h-3.921376v5.892116zm3.325299.06639c.28087 0 .549587-.031812.80615-.095436.256564-.063623.483421-.164592.68057-.302904.197149-.138313.353788-.319502.469917-.543569.116129-.224066.174193-.493776.174193-.809128 0-.271093-.043211-.499309-.129632-.684648-.086422-.185339-.209302-.344398-.368642-.477178s-.353788-.24343-.583345-.33195-.484771-.171508-.765641-.248963c-.216053-.055325-.406451-.107884-.571192-.157676-.164741-.049793-.301125-.105118-.409152-.165975-.108026-.060858-.190397-.131397-.247111-.211619-.056714-.080221-.085071-.181189-.085071-.302904 0-.210235.075619-.373444.226856-.489627.151238-.116182.380795-.174274.688672-.174274.172843 0 .342985.02213.510427.06639.167441.04426.32273.098202.465866.161826.143135.063624.264665.128631.36459.195021s.168792.118949.206602.157676l.494223-.92946c-.253863-.17704-.550937-.330567-.891222-.460581s-.712978-.195021-1.118078-.195021c-.291673 0-.564441.040111-.818304.120332s-.476669.197787-.668416.352697c-.191748.15491-.341635.348548-.449662.580913s-.162041.497925-.162041.79668c0 .226833.033759.421854.101276.585063.067516.163208.168792.307054.303825.431535.135034.124481.303826.232365.506376.323651.202551.091287.44156.175657.717029.253112.226856.06639.432107.127248.615753.182573s.340285.116183.469917.182573.229557.143845.299775.232365c.070217.08852.105326.196404.105326.323651 0 .403873-.307877.605809-.92363.605809-.221455 0-.437509-.027662-.648161-.082987-.210653-.055325-.402401-.123098-.575244-.20332-.172843-.080221-.32273-.160442-.449662-.240664-.126931-.080221-.214703-.145228-.263315-.19502l-.494223.987552c.334883.24343.712977.431535 1.134282.564315s.848011.19917 1.280119.19917zm5.974658-.06639v-4.887967h1.839158v-1.004149h-4.788292v1.004149h1.839158v4.887967zm5.318395.041494c.405101 0 .780494-.081605 1.12618-.244814.345687-.163208.64276-.381742.891222-.655601s.442911-.589212.583345-.946058c.140435-.356847.210653-.731674.210653-1.124482 0-.370677-.067517-.735823-.202551-1.095435-.135033-.359613-.32408-.680498-.567141-.962656-.24306-.282158-.536083-.510373-.879068-.684647-.342986-.174274-.72243-.261411-1.138334-.261411-.405101 0-.780494.081604-1.12618.244813s-.64411.383126-.895273.659751c-.251162.276625-.448311.594744-.591447.954357s-.214703.735823-.214703 1.128631c0 .37621.067516.744122.20255 1.103734.135034.359613.325431.679115.571192.958507.245761.279391.540135.503457.88312.672199.342985.168741.72513.253112 1.146435.253112zm.008102-1.012448c-.264666 0-.500974-.055325-.708926-.165976-.207952-.11065-.383496-.257261-.526631-.439834-.143136-.182572-.252513-.392807-.328132-.630705s-.113428-.484094-.113428-.738589c0-.24343.036459-.482711.109377-.717842.072918-.235132.179595-.445367.32003-.630706s.315978-.334716.526631-.448133c.210652-.113416.451012-.170124.721079-.170124.259265 0 .492873.053942.700825.161826.207951.107883.383495.253112.526631.435684.143135.182573.253863.392808.332182.630706.07832.237897.11748.484094.11748.738589 0 .24343-.036459.482711-.109378.717842-.072918.235132-.180945.44675-.32408.634855-.143136.188105-.31868.338866-.526631.452282-.207952.113416-.446962.170125-.717029.170125zm5.358905.970954v-3.775934l2.957236 3.775934h.907426v-5.883817h-1.118078v3.858921l-2.997746-3.86722h-.866916v5.892116zm9.63677 0v-1.004149h-2.876216v-1.53527h2.422503v-.929461h-2.422503v-1.419087h2.803298v-1.004149h-3.921376v5.892116zm7.590432 0v-1.004149h-2.454911c.054013-.08852.132333-.178424.234959-.26971.102625-.091286.214703-.179806.336233-.26556s.244411-.164592.368642-.236515c.124231-.071922.234958-.135546.332183-.190871.118829-.06639.24171-.142462.368641-.228216.126932-.085754.244411-.186722.352438-.302904.108027-.116183.197149-.248963.267367-.398341.070217-.149377.105326-.320885.105326-.514522 0-.204703-.03916-.394191-.117479-.568465-.07832-.174274-.191748-.323652-.340285-.448133s-.330832-.2213-.546886-.290456c-.216054-.069157-.461815-.103735-.737284-.103735-.24306 0-.471267.02628-.68462.078838-.213353.052559-.407802.118949-.583345.19917-.175544.080222-.328132.165976-.457764.257262s-.229557.175657-.299775.253112l.696774.821577c.064816-.082988.136384-.161826.214703-.236515.07832-.074689.164741-.142462.259265-.203319.094523-.060858.195798-.109267.303825-.145229.108027-.035961.226857-.053941.356489-.053941.24306 0 .429407.059474.559039.178423s.194448.261411.194448.427386c0 .105117-.029707.197787-.089122.278008s-.145836.159059-.259264.236515c-.113429.077455-.255214.161825-.425356.253112-.170142.091286-.365941.197787-.587396.319502-.253863.143845-.463166.290456-.627907.439834-.164741.149377-.294373.30982-.388896.481327-.094524.171508-.16069.35823-.1985.560166-.037809.201937-.056714.427386-.056714.676349z"/><path d="m254.118078 178.806265v-3.816706l1.482669 2.842228h.607651l1.482669-2.842228v3.816706h1.118079v-5.765662h-1.190997l-1.717627 3.280743-1.701424-3.280743h-1.199098v5.765662zm7.58696 0v-5.765662h-1.118078v5.765662zm5.828822 0v-.982599h-2.93293v-4.783063h-1.118078v5.765662zm5.253579 0v-.982599h-2.876216v-1.50232h2.422503v-.909513h-2.422503v-1.388631h2.803298v-.982599h-3.921376v5.765662zm3.325299.064965c.28087 0 .549587-.031129.80615-.093388.256564-.062258.483421-.161059.68057-.296403.197149-.135345.353788-.312645.469917-.531903s.174193-.483179.174193-.791763c0-.265275-.043211-.488593-.129632-.669954-.086422-.181361-.209302-.337007-.368642-.466937-.15934-.129931-.353788-.238206-.583345-.324826-.229557-.086621-.484771-.167827-.765641-.24362-.216053-.054137-.406451-.105568-.571192-.154292s-.301125-.102862-.409152-.162413c-.108026-.059552-.190397-.128577-.247111-.207077-.056714-.078499-.085071-.177301-.085071-.296403 0-.205724.075619-.36543.226856-.479119.151238-.113689.380795-.170533.688672-.170533.172843 0 .342985.021655.510427.064965.167441.04331.32273.096094.465866.158352.143135.062259.264665.125871.36459.190836s.168792.116396.206602.154292l.494223-.909513c-.253863-.17324-.550937-.323472-.891222-.450696-.340285-.127223-.712978-.190835-1.118078-.190835-.291673 0-.564441.03925-.818304.117749-.253863.0785-.476669.193543-.668416.345128-.191748.151585-.341635.341067-.449662.568446-.108027.227378-.162041.487238-.162041.779582 0 .221964.033759.4128.101276.572506.067516.159706.168792.300464.303825.422273.135034.12181.303826.227379.506376.316706.202551.089327.44156.171887.717029.24768.226856.064965.432107.124516.615753.178654s.340285.113689.469917.178654.229557.140758.299775.227378c.070217.086621.105326.192189.105326.316706 0 .395205-.307877.592807-.92363.592807-.221455 0-.437509-.027069-.648161-.081206-.210653-.054138-.402401-.120457-.575244-.198956-.172843-.0785-.32273-.156999-.449662-.235499-.126931-.0785-.214703-.142111-.263315-.190835l-.494223.966357c.334883.238206.712977.422274 1.134282.552204.421305.129931.848011.194896 1.280119.194896zm5.974658-.064965v-4.783063h1.839158v-.982599h-4.788292v.982599h1.839158v4.783063zm5.318395.040603c.405101 0 .780494-.079853 1.12618-.239559.345687-.159707.64276-.37355.891222-.641532.248462-.267981.442911-.576566.583345-.925754.140435-.349188.210653-.71597.210653-1.100348 0-.362722-.067517-.720031-.202551-1.071926-.135033-.351894-.32408-.665893-.567141-.941995-.24306-.276102-.536083-.49942-.879068-.669954-.342986-.170533-.72243-.2558-1.138334-.2558-.405101 0-.780494.079853-1.12618.239559s-.64411.374903-.895273.645592c-.251162.270688-.448311.58198-.591447.933875-.143136.351894-.214703.72003-.214703 1.104408 0 .368136.067516.728151.20255 1.080046s.325431.66454.571192.937935c.245761.273396.540135.492653.88312.657773s.72513.24768 1.146435.24768zm.008102-.99072c-.264666 0-.500974-.054137-.708926-.162413-.207952-.108275-.383496-.25174-.526631-.430394-.143136-.178654-.252513-.384377-.328132-.617169s-.113428-.473705-.113428-.722738c0-.238206.036459-.472351.109377-.702436s.179595-.435809.32003-.61717.315978-.327533.526631-.438515c.210652-.110982.451012-.166473.721079-.166473.259265 0 .492873.052784.700825.158353.207951.105568.383495.247679.526631.426334.143135.178654.253863.384377.332182.617169.07832.232792.11748.473705.11748.722738 0 .238206-.036459.472351-.109378.702436-.072918.230085-.180945.437162-.32408.62123-.143136.184068-.31868.331593-.526631.442575-.207952.110982-.446962.166473-.717029.166473zm5.358905.950117v-3.694896l2.957236 3.694896h.907426v-5.757541h-1.118078v3.776102l-2.997746-3.784223h-.866916v5.765662zm9.63677 0v-.982599h-2.876216v-1.50232h2.422503v-.909513h-2.422503v-1.388631h2.803298v-.982599h-3.921376v5.765662zm5.483908 1.193735c.32408 0 .615753-.03925.875018-.117749.259264-.0785.479369-.189482.660314-.332947s.32138-.318059.421305-.523782.149887-.435808.149887-.690255c0-.378964-.103976-.699729-.311928-.962297-.207951-.262568-.479369-.423627-.814252-.483179.151237-.027069.290322-.081206.417254-.162413.126931-.081206.236308-.181361.328131-.300464s.162041-.25174.210653-.397912c.048612-.146171.072918-.300464.072918-.462877 0-.21655-.044561-.412799-.133683-.588747-.089123-.175947-.216054-.326179-.380795-.450696-.164741-.124516-.36054-.221964-.587396-.292343-.226857-.070379-.478019-.105569-.753488-.105569-.210652 0-.415903.020302-.615753.060905s-.384846.097448-.554988.170534c-.170143.073086-.322731.159706-.457764.259861-.135034.100154-.243061.21249-.324081.337007l.680569.763341c.124231-.205723.284921-.36543.48207-.479119.19715-.113689.419955-.170533.668417-.170533.24306 0 .440209.054137.591447.162413.151238.108275.226856.273395.226856.495359 0 .232792-.091822.423628-.275468.572506-.183646.148879-.44291.223318-.777794.223318h-.251162v.812065h.226856c.405101 0 .707576.075793.907426.227378.19985.151586.299775.368136.299775.649652 0 .270688-.086422.470998-.259265.600928-.172843.129931-.424005.194896-.753487.194896-.291673 0-.534733-.048724-.729182-.146172-.194448-.097448-.36189-.235499-.502325-.414153l-.615753.771462c.210652.254447.473968.447989.789947.580626.315978.132637.679219.198956 1.089721.198956z"/></g><path d="m95 115.29375v46.440099" stroke="#d1d1d1" stroke-linecap="square"/><path d="m187 78.096213v83.639117" stroke="#d1d1d1" stroke-linecap="square"/><path d="m281 17.258832v144.468435" stroke="#d1d1d1" stroke-linecap="square"/></g></svg>