<svg height="294" viewBox="0 0 288 294" width="288" xmlns="http://www.w3.org/2000/svg" xmlns:xlink="http://www.w3.org/1999/xlink"><linearGradient id="a"><stop offset="0" stop-color="#ff5d6c"/><stop offset="1" stop-color="#ff0200"/></linearGradient><linearGradient id="b" x1="23.899649%" x2="58.567852%" xlink:href="#a" y1="-9.138967%" y2="87.695753%"/><linearGradient id="c" x1="74.740313%" x2="27.670467%" xlink:href="#a" y1="20.359642%" y2="65.10712%"/><g fill="none" fill-rule="evenodd" transform="translate(-10 -37)"><path d="m39.9440014 192.937747c14.1172285-33.008976 31.0623792-64.117446 50.8354522-93.3254112 19.7730724-29.2079642 42.3740684-56.5154253 67.8029874-81.9223831 11.492276-11.4823504 29.541398-13.22880624 43.030218-4.1636579l61.198412 41.1283335c13.647427 9.1717396 18.723138 26.7795094 12.042324 41.7751188-16.265988 36.5102819-33.041947 67.5324519-50.327876 93.0665099-17.285928 25.534059-39.869998 52.652893-67.752208 81.356504-11.451863 11.789231-29.738622 13.696274-43.386048 4.524535l-61.1984122-41.128334c-13.4888202-9.065149-18.62495-26.393231-12.2448494-41.311215z" fill="url(#b)" opacity=".38502" transform="matrix(.190809 .98162718 -.98162718 .190809 269.245449 -37.717141)"/><path d="m33.6613787 88.0300152c34.8908734-11.0570229 70.1323083-18.1325757 105.7243053-21.2266584 35.591996-3.0940826 71.534556-2.2066955 107.82768 2.6621612 15.751374 2.1131052 27.925419 14.7911915 29.310697 30.5242466l8.345478 94.7822904c1.405193 15.959229-8.667373 30.703352-24.113219 35.296693-39.0121 11.601557-74.047582 18.75234-105.106445 21.452348-31.058863 2.700009-66.8117491 1.702999-107.258658-2.99103-16.0139221-1.85848-28.5101486-14.640654-29.9153415-30.599883l-8.3454771-94.78229c-1.38527844-15.733055 8.3881913-30.3190823 23.5309803-35.1178778z" fill="url(#c)"/><ellipse cx="164" cy="321" fill="#000" opacity=".05" rx="124" ry="10"/><path d="m124.998509 119.126961 60.715652 37.809623-60.712668 37.804836z" fill="#fff" transform="matrix(.99862953 -.05233596 .05233596 .99862953 -8.00039 8.345795)"/></g></svg>