<?xml version="1.0" encoding="UTF-8"?>
<svg width="457px" height="274px" viewBox="0 0 457 274" version="1.1" xmlns="http://www.w3.org/2000/svg" xmlns:xlink="http://www.w3.org/1999/xlink">
    <!-- Generator: Sketch 63.1 (92452) - https://sketch.com -->
    <title>img_business_success</title>
    <desc>Created with Sketch.</desc>
    <defs>
        <filter x="-5.4%" y="-9.1%" width="110.9%" height="118.1%" filterUnits="objectBoundingBox" id="filter-1">
            <feOffset dx="0" dy="2" in="SourceAlpha" result="shadowOffsetOuter1"></feOffset>
            <feGaussianBlur stdDeviation="4" in="shadowOffsetOuter1" result="shadowBlurOuter1"></feGaussianBlur>
            <feColorMatrix values="0 0 0 0 0   0 0 0 0 0   0 0 0 0 0  0 0 0 0.2 0" type="matrix" in="shadowBlurOuter1" result="shadowMatrixOuter1"></feColorMatrix>
            <feMerge>
                <feMergeNode in="shadowMatrixOuter1"></feMergeNode>
                <feMergeNode in="SourceGraphic"></feMergeNode>
            </feMerge>
        </filter>
    </defs>
    <g id="Website" stroke="none" stroke-width="1" fill="none" fill-rule="evenodd">
        <g id="Video-SEO" transform="translate(-156.000000, -2982.000000)">
            <g id="img_business_success" transform="translate(156.000000, 2990.000000)">
                <g id="seo-guarantee" transform="translate(16.000000, 0.000000)">
                    <g id="Graph" transform="translate(4.344086, 6.942857)" fill="#FFFFFF" opacity="0.64136096">
                        <g id="Group">
                            <g id="dot" transform="translate(0.000000, 225.050463)">
                                <ellipse id="Oval" cx="0.777634409" cy="0.77603608" rx="1" ry="1"></ellipse>
                            </g>
                            <g id="dot" transform="translate(44.325161, 225.050463)">
                                <ellipse id="Oval" cx="0.777634409" cy="0.77603608" rx="1" ry="1"></ellipse>
                            </g>
                            <g id="dot" transform="translate(87.095054, 225.050463)">
                                <ellipse id="Oval" cx="0.777634409" cy="0.77603608" rx="1" ry="1"></ellipse>
                            </g>
                            <g id="dot" transform="translate(131.420215, 225.050463)">
                                <ellipse id="Oval" cx="0.777634409" cy="0.77603608" rx="1" ry="1"></ellipse>
                            </g>
                            <g id="dot" transform="translate(174.190108, 225.050463)">
                                <ellipse id="Oval" cx="0.777634409" cy="0.77603608" rx="1" ry="1"></ellipse>
                            </g>
                            <g id="dot" transform="translate(216.960000, 225.050463)">
                                <ellipse id="Oval" cx="0.777634409" cy="0.77603608" rx="1" ry="1"></ellipse>
                            </g>
                            <g id="dot" transform="translate(261.285161, 225.050463)">
                                <ellipse id="Oval" cx="0.777634409" cy="0.77603608" rx="1" ry="1"></ellipse>
                            </g>
                            <g id="dot" transform="translate(304.055054, 225.050463)">
                                <ellipse id="Oval" cx="0.777634409" cy="0.77603608" rx="1" ry="1"></ellipse>
                            </g>
                            <g id="dot" transform="translate(347.602581, 225.050463)">
                                <ellipse id="Oval" cx="0.777634409" cy="0.77603608" rx="1" ry="1"></ellipse>
                            </g>
                            <g id="dot" transform="translate(391.150108, 225.050463)">
                                <ellipse id="Oval" cx="0.777634409" cy="0.77603608" rx="1" ry="1"></ellipse>
                            </g>
                            <g id="dot" transform="translate(0.000000, 186.248659)">
                                <ellipse id="Oval" cx="0.777634409" cy="0.77603608" rx="1" ry="1"></ellipse>
                            </g>
                            <g id="dot" transform="translate(44.325161, 186.248659)">
                                <ellipse id="Oval" cx="0.777634409" cy="0.77603608" rx="1" ry="1"></ellipse>
                            </g>
                            <g id="dot" transform="translate(87.095054, 186.248659)">
                                <ellipse id="Oval" cx="0.777634409" cy="0.77603608" rx="1" ry="1"></ellipse>
                            </g>
                            <g id="dot" transform="translate(131.420215, 186.248659)">
                                <ellipse id="Oval" cx="0.777634409" cy="0.77603608" rx="1" ry="1"></ellipse>
                            </g>
                            <g id="dot" transform="translate(174.190108, 186.248659)">
                                <ellipse id="Oval" cx="0.777634409" cy="0.77603608" rx="1" ry="1"></ellipse>
                            </g>
                            <g id="dot" transform="translate(216.960000, 186.248659)">
                                <ellipse id="Oval" cx="0.777634409" cy="0.77603608" rx="1" ry="1"></ellipse>
                            </g>
                            <g id="dot" transform="translate(261.285161, 186.248659)">
                                <ellipse id="Oval" cx="0.777634409" cy="0.77603608" rx="1" ry="1"></ellipse>
                            </g>
                            <g id="dot" transform="translate(304.055054, 186.248659)">
                                <ellipse id="Oval" cx="0.777634409" cy="0.77603608" rx="1" ry="1"></ellipse>
                            </g>
                            <g id="dot" transform="translate(347.602581, 186.248659)">
                                <ellipse id="Oval" cx="0.777634409" cy="0.77603608" rx="1" ry="1"></ellipse>
                            </g>
                            <g id="dot" transform="translate(391.150108, 186.248659)">
                                <ellipse id="Oval" cx="0.777634409" cy="0.77603608" rx="1" ry="1"></ellipse>
                            </g>
                            <g id="dot" transform="translate(0.000000, 155.207216)">
                                <ellipse id="Oval" cx="0.777634409" cy="0.77603608" rx="1" ry="1"></ellipse>
                            </g>
                            <g id="dot" transform="translate(44.325161, 155.207216)">
                                <ellipse id="Oval" cx="0.777634409" cy="0.77603608" rx="1" ry="1"></ellipse>
                            </g>
                            <g id="dot" transform="translate(87.095054, 155.207216)">
                                <ellipse id="Oval" cx="0.777634409" cy="0.77603608" rx="1" ry="1"></ellipse>
                            </g>
                            <g id="dot" transform="translate(131.420215, 155.207216)">
                                <ellipse id="Oval" cx="0.777634409" cy="0.77603608" rx="1" ry="1"></ellipse>
                            </g>
                            <g id="dot" transform="translate(174.190108, 155.207216)">
                                <ellipse id="Oval" cx="0.777634409" cy="0.77603608" rx="1" ry="1"></ellipse>
                            </g>
                            <g id="dot" transform="translate(216.960000, 155.207216)">
                                <ellipse id="Oval" cx="0.777634409" cy="0.77603608" rx="1" ry="1"></ellipse>
                            </g>
                            <g id="dot" transform="translate(261.285161, 155.207216)">
                                <ellipse id="Oval" cx="0.777634409" cy="0.77603608" rx="1" ry="1"></ellipse>
                            </g>
                            <g id="dot" transform="translate(304.055054, 155.207216)">
                                <ellipse id="Oval" cx="0.777634409" cy="0.77603608" rx="1" ry="1"></ellipse>
                            </g>
                            <g id="dot" transform="translate(347.602581, 155.207216)">
                                <ellipse id="Oval" cx="0.777634409" cy="0.77603608" rx="1" ry="1"></ellipse>
                            </g>
                            <g id="dot" transform="translate(391.150108, 155.207216)">
                                <ellipse id="Oval" cx="0.777634409" cy="0.77603608" rx="1" ry="1"></ellipse>
                            </g>
                            <g id="dot" transform="translate(0.000000, 116.405412)">
                                <ellipse id="Oval" cx="0.777634409" cy="0.77603608" rx="1" ry="1"></ellipse>
                            </g>
                            <g id="dot" transform="translate(44.325161, 116.405412)">
                                <ellipse id="Oval" cx="0.777634409" cy="0.77603608" rx="1" ry="1"></ellipse>
                            </g>
                            <g id="dot" transform="translate(87.095054, 116.405412)">
                                <ellipse id="Oval" cx="0.777634409" cy="0.77603608" rx="1" ry="1"></ellipse>
                            </g>
                            <g id="dot" transform="translate(131.420215, 116.405412)">
                                <ellipse id="Oval" cx="0.777634409" cy="0.77603608" rx="1" ry="1"></ellipse>
                            </g>
                            <g id="dot" transform="translate(174.190108, 116.405412)">
                                <ellipse id="Oval" cx="0.777634409" cy="0.77603608" rx="1" ry="1"></ellipse>
                            </g>
                            <g id="dot" transform="translate(216.960000, 116.405412)">
                                <ellipse id="Oval" cx="0.777634409" cy="0.77603608" rx="1" ry="1"></ellipse>
                            </g>
                            <g id="dot" transform="translate(261.285161, 116.405412)">
                                <ellipse id="Oval" cx="0.777634409" cy="0.77603608" rx="1" ry="1"></ellipse>
                            </g>
                            <g id="dot" transform="translate(304.055054, 116.405412)">
                                <ellipse id="Oval" cx="0.777634409" cy="0.77603608" rx="1" ry="1"></ellipse>
                            </g>
                            <g id="dot" transform="translate(347.602581, 116.405412)">
                                <ellipse id="Oval" cx="0.777634409" cy="0.77603608" rx="1" ry="1"></ellipse>
                            </g>
                            <g id="dot" transform="translate(391.150108, 116.405412)">
                                <ellipse id="Oval" cx="0.777634409" cy="0.77603608" rx="1" ry="1"></ellipse>
                            </g>
                            <g id="dot" transform="translate(0.000000, 77.603608)">
                                <ellipse id="Oval" cx="0.777634409" cy="0.77603608" rx="1" ry="1"></ellipse>
                            </g>
                            <g id="dot" transform="translate(44.325161, 77.603608)">
                                <ellipse id="Oval" cx="0.777634409" cy="0.77603608" rx="1" ry="1"></ellipse>
                            </g>
                            <g id="dot" transform="translate(87.095054, 77.603608)">
                                <ellipse id="Oval" cx="0.777634409" cy="0.77603608" rx="1" ry="1"></ellipse>
                            </g>
                            <g id="dot" transform="translate(131.420215, 77.603608)">
                                <ellipse id="Oval" cx="0.777634409" cy="0.77603608" rx="1" ry="1"></ellipse>
                            </g>
                            <g id="dot" transform="translate(174.190108, 77.603608)">
                                <ellipse id="Oval" cx="0.777634409" cy="0.77603608" rx="1" ry="1"></ellipse>
                            </g>
                            <g id="dot" transform="translate(216.960000, 77.603608)">
                                <ellipse id="Oval" cx="0.777634409" cy="0.77603608" rx="1" ry="1"></ellipse>
                            </g>
                            <g id="dot" transform="translate(261.285161, 77.603608)">
                                <ellipse id="Oval" cx="0.777634409" cy="0.77603608" rx="1" ry="1"></ellipse>
                            </g>
                            <g id="dot" transform="translate(304.055054, 77.603608)">
                                <ellipse id="Oval" cx="0.777634409" cy="0.77603608" rx="1" ry="1"></ellipse>
                            </g>
                            <g id="dot" transform="translate(347.602581, 77.603608)">
                                <ellipse id="Oval" cx="0.777634409" cy="0.77603608" rx="1" ry="1"></ellipse>
                            </g>
                            <g id="dot" transform="translate(391.150108, 77.603608)">
                                <ellipse id="Oval" cx="0.777634409" cy="0.77603608" rx="1" ry="1"></ellipse>
                            </g>
                            <g id="dot" transform="translate(0.000000, 38.801804)">
                                <ellipse id="Oval" cx="0.777634409" cy="0.77603608" rx="1" ry="1"></ellipse>
                            </g>
                            <g id="dot" transform="translate(44.325161, 38.801804)">
                                <ellipse id="Oval" cx="0.777634409" cy="0.77603608" rx="1" ry="1"></ellipse>
                            </g>
                            <g id="dot" transform="translate(87.095054, 38.801804)">
                                <ellipse id="Oval" cx="0.777634409" cy="0.77603608" rx="1" ry="1"></ellipse>
                            </g>
                            <g id="dot" transform="translate(131.420215, 38.801804)">
                                <ellipse id="Oval" cx="0.777634409" cy="0.77603608" rx="1" ry="1"></ellipse>
                            </g>
                            <g id="dot" transform="translate(174.190108, 38.801804)">
                                <ellipse id="Oval" cx="0.777634409" cy="0.77603608" rx="1" ry="1"></ellipse>
                            </g>
                            <g id="dot" transform="translate(216.960000, 38.801804)">
                                <ellipse id="Oval" cx="0.777634409" cy="0.77603608" rx="1" ry="1"></ellipse>
                            </g>
                            <g id="dot" transform="translate(261.285161, 38.801804)">
                                <ellipse id="Oval" cx="0.777634409" cy="0.77603608" rx="1" ry="1"></ellipse>
                            </g>
                            <g id="dot" transform="translate(304.055054, 38.801804)">
                                <ellipse id="Oval" cx="0.777634409" cy="0.77603608" rx="1" ry="1"></ellipse>
                            </g>
                            <g id="dot" transform="translate(347.602581, 38.801804)">
                                <ellipse id="Oval" cx="0.777634409" cy="0.77603608" rx="1" ry="1"></ellipse>
                            </g>
                            <g id="dot" transform="translate(391.150108, 38.801804)">
                                <ellipse id="Oval" cx="0.777634409" cy="0.77603608" rx="1" ry="1"></ellipse>
                            </g>
                            <g id="dot">
                                <ellipse id="Oval" cx="0.777634409" cy="0.77603608" rx="1" ry="1"></ellipse>
                            </g>
                            <g id="dot" transform="translate(44.325161, 0.000000)">
                                <ellipse id="Oval" cx="0.777634409" cy="0.77603608" rx="1" ry="1"></ellipse>
                            </g>
                            <g id="dot" transform="translate(87.095054, 0.000000)">
                                <ellipse id="Oval" cx="0.777634409" cy="0.77603608" rx="1" ry="1"></ellipse>
                            </g>
                            <g id="dot" transform="translate(131.420215, 0.000000)">
                                <ellipse id="Oval" cx="0.777634409" cy="0.77603608" rx="1" ry="1"></ellipse>
                            </g>
                            <g id="dot" transform="translate(174.190108, 0.000000)">
                                <ellipse id="Oval" cx="0.777634409" cy="0.77603608" rx="1" ry="1"></ellipse>
                            </g>
                            <g id="dot" transform="translate(216.960000, 0.000000)">
                                <ellipse id="Oval" cx="0.777634409" cy="0.77603608" rx="1" ry="1"></ellipse>
                            </g>
                            <g id="dot" transform="translate(261.285161, 0.000000)">
                                <ellipse id="Oval" cx="0.777634409" cy="0.77603608" rx="1" ry="1"></ellipse>
                            </g>
                            <g id="dot" transform="translate(304.055054, 0.000000)">
                                <ellipse id="Oval" cx="0.777634409" cy="0.77603608" rx="1" ry="1"></ellipse>
                            </g>
                            <g id="dot" transform="translate(347.602581, 0.000000)">
                                <ellipse id="Oval" cx="0.777634409" cy="0.77603608" rx="1" ry="1"></ellipse>
                            </g>
                            <g id="dot" transform="translate(391.150108, 0.000000)">
                                <ellipse id="Oval" cx="0.777634409" cy="0.77603608" rx="1" ry="1"></ellipse>
                            </g>
                        </g>
                    </g>
                    <g id="Group-2" filter="url(#filter-1)" stroke-width="4">
                        <polyline id="Path-5" stroke="#427FE0" stroke-linecap="round" stroke-linejoin="round" points="5.43846154 238.341853 65.2774471 225.622347 91.4965734 168.214549 105.135527 180.028003 119.74026 149.393533 145.476496 149.393533 154.025434 133.612139 164.14108 161.905278 186.833323 121.429002 244.043242 109.640194 276.747399 82.3000181 315.231926 68.1370183 339.698341 32.3434046 397.784615 6.21086262"></polyline>
                        <ellipse id="Oval-14" stroke="#FF5254" fill="#FFFFFF" cx="4.66153846" cy="238.341853" rx="4.66153846" ry="4.65814696"></ellipse>
                        <ellipse id="Oval-14-Copy" stroke="#FF5254" fill="#FFFFFF" cx="399.338462" cy="4.65814696" rx="4.66153846" ry="4.65814696"></ellipse>
                        <ellipse id="Oval-14-Copy-2" stroke="#FF5254" fill="#FFFFFF" cx="260.093797" cy="95.783147" rx="4.66153846" ry="4.65814696"></ellipse>
                        <ellipse id="Oval-14-Copy-3" stroke="#FF5254" fill="#FFFFFF" cx="123.689495" cy="149.59029" rx="4.66153846" ry="4.65814696"></ellipse>
                    </g>
                </g>
                <path d="M96.6397325,264.900415 L96.6397325,259.049793 L98.8141604,263.406639 L99.7053193,263.406639 L101.879747,259.049793 L101.879747,264.900415 L103.51948,264.900415 L103.51948,256.062241 L101.772808,256.062241 L99.2537988,261.091286 L96.7585537,256.062241 L95,256.062241 L95,264.900415 L96.6397325,264.900415 Z M107.766489,264.900415 L107.766489,256.062241 L106.126756,256.062241 L106.126756,264.900415 L107.766489,264.900415 Z M116.314825,264.900415 L116.314825,263.394191 L112.013498,263.394191 L112.013498,256.062241 L110.373765,256.062241 L110.373765,264.900415 L116.314825,264.900415 Z M124.019531,264.900415 L124.019531,263.394191 L119.801378,263.394191 L119.801378,261.091286 L123.354132,261.091286 L123.354132,259.697095 L119.801378,259.697095 L119.801378,257.568465 L123.912592,257.568465 L123.912592,256.062241 L118.161646,256.062241 L118.161646,264.900415 L124.019531,264.900415 Z M128.896292,265 C129.308206,265 129.702296,264.952282 130.078563,264.856846 C130.45483,264.761411 130.78753,264.609959 131.076661,264.40249 C131.365793,264.195021 131.595514,263.923237 131.765824,263.587137 C131.936134,263.251037 132.02129,262.846473 132.02129,262.373444 C132.02129,261.966805 131.957918,261.624481 131.831176,261.346473 C131.704433,261.068465 131.524221,260.829876 131.290539,260.630705 C131.056858,260.431535 130.771687,260.26556 130.435027,260.13278 C130.098367,260 129.72408,259.875519 129.312166,259.759336 C128.99531,259.676349 128.71608,259.59751 128.474477,259.522822 C128.232874,259.448133 128.032858,259.365145 127.87443,259.273859 C127.716002,259.182573 127.5952,259.076763 127.512025,258.956432 C127.42885,258.8361 127.387263,258.684647 127.387263,258.502075 C127.387263,258.186722 127.498163,257.941909 127.719962,257.767635 C127.941762,257.593361 128.278422,257.506224 128.729943,257.506224 C128.983428,257.506224 129.232952,257.539419 129.478516,257.605809 C129.72408,257.672199 129.95182,257.753112 130.161738,257.848548 C130.371655,257.943983 130.549887,258.041494 130.696433,258.141079 C130.842979,258.240664 130.943977,258.319502 130.999427,258.377593 L130.999427,258.377593 L131.724237,256.983402 C131.35193,256.717842 130.916253,256.487552 130.417204,256.292531 C129.918154,256.09751 129.371577,256 128.777471,256 C128.349715,256 127.949683,256.060166 127.577377,256.180498 C127.205071,256.30083 126.878312,256.477178 126.597102,256.709544 C126.315892,256.941909 126.096073,257.232365 125.937644,257.580913 C125.779216,257.929461 125.700002,258.327801 125.700002,258.775934 C125.700002,259.116183 125.749511,259.408714 125.848529,259.653527 C125.947546,259.89834 126.096073,260.114108 126.294108,260.30083 C126.492143,260.487552 126.739688,260.649378 127.03674,260.786307 C127.333793,260.923237 127.684316,261.049793 128.088308,261.165975 C128.421007,261.26556 128.722021,261.356846 128.991349,261.439834 C129.260677,261.522822 129.490398,261.614108 129.680512,261.713693 C129.870626,261.813278 130.017172,261.929461 130.120151,262.062241 C130.223129,262.195021 130.274618,262.356846 130.274618,262.547718 C130.274618,263.153527 129.823098,263.456432 128.920056,263.456432 C128.595279,263.456432 128.278422,263.414938 127.969487,263.33195 C127.660552,263.248963 127.379342,263.147303 127.125856,263.026971 C126.872371,262.906639 126.652552,262.786307 126.466399,262.665975 C126.280246,262.545643 126.151523,262.448133 126.08023,262.373444 L126.08023,262.373444 L125.355421,263.854772 C125.846548,264.219917 126.401047,264.502075 127.018917,264.701245 C127.636788,264.900415 128.262579,265 128.896292,265 Z M137.658507,264.900415 L137.658507,257.568465 L140.355748,257.568465 L140.355748,256.062241 L133.333415,256.062241 L133.333415,257.568465 L136.030656,257.568465 L136.030656,264.900415 L137.658507,264.900415 Z M145.458269,264.962656 C146.052375,264.962656 146.602914,264.840249 147.109884,264.595436 C147.616854,264.350622 148.052532,264.022822 148.416917,263.612033 C148.781302,263.201245 149.066473,262.728216 149.27243,262.192946 C149.478387,261.657676 149.581365,261.095436 149.581365,260.506224 C149.581365,259.950207 149.482347,259.40249 149.284312,258.863071 C149.086277,258.323651 148.809027,257.842324 148.452564,257.419087 C148.0961,256.995851 147.666363,256.653527 147.163354,256.392116 C146.660344,256.130705 146.103865,256 145.493916,256 C144.89981,256 144.349272,256.122407 143.842301,256.36722 C143.335331,256.612033 142.897673,256.941909 142.529327,257.356846 C142.160981,257.771784 141.87185,258.248963 141.661932,258.788382 C141.452015,259.327801 141.347056,259.892116 141.347056,260.481328 C141.347056,261.045643 141.446074,261.59751 141.644109,262.136929 C141.842144,262.676349 142.121374,263.155602 142.481798,263.574689 C142.842223,263.993776 143.27394,264.329876 143.77695,264.582988 C144.279959,264.8361 144.840399,264.962656 145.458269,264.962656 Z M145.470152,263.443983 C145.082002,263.443983 144.73544,263.360996 144.430466,263.195021 C144.125492,263.029046 143.868046,262.809129 143.658128,262.53527 C143.448211,262.261411 143.287802,261.946058 143.176902,261.589212 C143.066003,261.232365 143.010553,260.863071 143.010553,260.481328 C143.010553,260.116183 143.064022,259.757261 143.170961,259.404564 C143.2779,259.051867 143.434348,258.736515 143.640305,258.458506 C143.846262,258.180498 144.103708,257.956432 144.412643,257.786307 C144.721578,257.616183 145.074081,257.53112 145.470152,257.53112 C145.850379,257.53112 146.19298,257.612033 146.497955,257.773859 C146.802929,257.935685 147.060375,258.153527 147.270293,258.427386 C147.48021,258.701245 147.642599,259.016598 147.75746,259.373444 C147.87232,259.73029 147.92975,260.099585 147.92975,260.481328 C147.92975,260.846473 147.876281,261.205394 147.769342,261.558091 C147.662403,261.910788 147.503974,262.228216 147.294057,262.510373 C147.084139,262.792531 146.826694,263.018672 146.521719,263.188797 C146.216745,263.358921 145.866222,263.443983 145.470152,263.443983 Z M153.329325,264.900415 L153.329325,259.236515 L157.666299,264.900415 L158.997096,264.900415 L158.997096,256.074689 L157.357363,256.074689 L157.357363,261.863071 L152.960979,256.062241 L151.689592,256.062241 L151.689592,264.900415 L153.329325,264.900415 Z M167.462257,264.900415 L167.462257,263.394191 L163.244105,263.394191 L163.244105,261.091286 L166.796859,261.091286 L166.796859,259.697095 L163.244105,259.697095 L163.244105,257.568465 L167.355318,257.568465 L167.355318,256.062241 L161.604372,256.062241 L161.604372,264.900415 L167.462257,264.900415 Z M178,264.900415 L178,263.394191 L176.490971,263.394191 L176.490971,257.792531 L174.86312,257.792531 C174.823513,257.86722 174.730437,257.96888 174.583891,258.09751 C174.437344,258.226141 174.265054,258.356846 174.067018,258.489627 C173.868983,258.622407 173.666987,258.736515 173.46103,258.83195 C173.255074,258.927386 173.080803,258.975104 172.938217,258.975104 L172.938217,258.975104 L172.938217,260.53112 C173.088724,260.53112 173.261015,260.502075 173.455089,260.443983 C173.649164,260.385892 173.837297,260.311203 174.01949,260.219917 C174.201682,260.128631 174.370012,260.03112 174.52448,259.927386 C174.678948,259.823651 174.791828,259.721992 174.86312,259.622407 L174.86312,259.622407 L174.86312,263.394191 L173.175859,263.394191 L173.175859,264.900415 L178,264.900415 Z" id="MILESTONE1" fill="#427FE0" fill-rule="nonzero"></path>
                <path d="M3.55638905,265 C3.97010769,265 4.36592504,264.952282 4.7438411,264.856846 C5.12175717,264.761411 5.45591453,264.609959 5.74631319,264.40249 C6.03671185,264.195021 6.26743955,263.923237 6.43849629,263.587137 C6.60955304,263.251037 6.69508141,262.846473 6.69508141,262.373444 C6.69508141,261.966805 6.63143239,261.624481 6.50413434,261.346473 C6.3768363,261.068465 6.1958344,260.829876 5.96112863,260.630705 C5.72642287,260.431535 5.44000227,260.26556 5.10186685,260.13278 C4.76373142,260 4.38780439,259.875519 3.97408576,259.759336 C3.65584065,259.676349 3.37538715,259.59751 3.13272526,259.522822 C2.89006336,259.448133 2.68917114,259.365145 2.53004859,259.273859 C2.37092604,259.182573 2.24959509,259.076763 2.16605575,258.956432 C2.08251641,258.8361 2.04074674,258.684647 2.04074674,258.502075 C2.04074674,258.186722 2.15213253,257.941909 2.3749041,257.767635 C2.59767567,257.593361 2.9358111,257.506224 3.38931037,257.506224 C3.64390646,257.506224 3.89452448,257.539419 4.14116444,257.605809 C4.38780439,257.672199 4.61654306,257.753112 4.82738044,257.848548 C5.03821783,257.943983 5.2172307,258.041494 5.36441906,258.141079 C5.51160742,258.240664 5.61304805,258.319502 5.66874094,258.377593 L5.66874094,258.377593 L6.39672662,256.983402 C6.02278862,256.717842 5.5852016,256.487552 5.08396556,256.292531 C4.58272952,256.09751 4.03375671,256 3.43704714,256 C3.00741625,256 2.6056318,256.060166 2.2316938,256.180498 C1.8577558,256.30083 1.52956554,256.477178 1.24712301,256.709544 C0.964680476,256.941909 0.743897934,257.232365 0.584775381,257.580913 C0.425652829,257.929461 0.346091552,258.327801 0.346091552,258.775934 C0.346091552,259.116183 0.39581735,259.408714 0.495268946,259.653527 C0.594720541,259.89834 0.743897934,260.114108 0.942801125,260.30083 C1.14170432,260.487552 1.3903333,260.649378 1.68868809,260.786307 C1.98704288,260.923237 2.33910153,261.049793 2.74486404,261.165975 C3.0790214,261.26556 3.38135425,261.356846 3.65186259,261.439834 C3.92237093,261.522822 4.15309863,261.614108 4.34404569,261.713693 C4.53499275,261.813278 4.68218112,261.929461 4.78561077,262.062241 C4.88904043,262.195021 4.94075526,262.356846 4.94075526,262.547718 C4.94075526,263.153527 4.48725599,263.456432 3.58025744,263.456432 C3.2540562,263.456432 2.9358111,263.414938 2.62552212,263.33195 C2.31523314,263.248963 2.03279061,263.147303 1.77819453,263.026971 C1.52359844,262.906639 1.3028159,262.786307 1.1158469,262.665975 C0.928877902,262.545643 0.799590828,262.448133 0.727985679,262.373444 L0.727985679,262.373444 L0,263.854772 C0.493279914,264.219917 1.05020885,264.502075 1.6707868,264.701245 C2.29136476,264.900415 2.91989884,265 3.55638905,265 Z M12.3570028,264.900415 L12.3570028,257.568465 L15.0660643,257.568465 L15.0660643,256.062241 L8.01295712,256.062241 L8.01295712,257.568465 L10.7220186,257.568465 L10.7220186,264.900415 L12.3570028,264.900415 Z M17.0045179,264.900415 L17.7802404,262.697095 L20.7399199,262.697095 L21.5275765,264.900415 L23.2222317,264.900415 L20,256.062241 L18.5440286,256.062241 L15.3098628,264.900415 L17.0045179,264.900415 Z M20.4415651,261.489627 L18.0547268,261.489627 L19.2720143,258.016598 L20.4415651,261.489627 Z M26.6524593,264.900415 L26.6524593,261.937759 L28.2755093,261.937759 L30.0059671,264.900415 L31.8557668,264.900415 L29.9224278,261.576763 C30.3918393,261.369295 30.7637883,261.03112 31.0382747,260.562241 C31.3127611,260.093361 31.4500043,259.572614 31.4500043,259 C31.4500043,258.643154 31.3823772,258.288382 31.247123,257.935685 C31.1118688,257.582988 30.9248998,257.267635 30.686216,256.989627 C30.4475322,256.711618 30.1631006,256.487552 29.8329213,256.317427 C29.502742,256.147303 29.1427272,256.062241 28.752877,256.062241 L28.752877,256.062241 L25.0055409,256.062241 L25.0055409,264.900415 L26.6524593,264.900415 Z M28.7170744,260.431535 L26.6524593,260.431535 L26.6524593,257.568465 L28.6454693,257.568465 C28.7886796,257.568465 28.9299008,257.603734 29.0691331,257.674274 C29.2083653,257.744813 29.3316853,257.844398 29.439093,257.973029 C29.5465007,258.10166 29.6320291,258.253112 29.6956781,258.427386 C29.7593271,258.60166 29.7911516,258.792531 29.7911516,259 C29.7911516,259.19917 29.7633052,259.385892 29.7076123,259.560166 C29.6519194,259.73444 29.5763362,259.885892 29.4808627,260.014523 C29.3853891,260.143154 29.2720143,260.244813 29.1407382,260.319502 C29.0094621,260.394191 28.8682408,260.431535 28.7170744,260.431535 L28.7170744,260.431535 Z M37.2909385,264.900415 L37.2909385,257.568465 L40,257.568465 L40,256.062241 L32.9468928,256.062241 L32.9468928,257.568465 L35.6559543,257.568465 L35.6559543,264.900415 L37.2909385,264.900415 Z" id="START" fill="#427FE0" fill-rule="nonzero"></path>
                <path d="M236.647694,264.900415 L236.647694,259.049793 L238.83268,263.406639 L239.728166,263.406639 L241.913152,259.049793 L241.913152,264.900415 L243.560846,264.900415 L243.560846,256.062241 L241.805694,256.062241 L239.274453,261.091286 L236.767092,256.062241 L235,256.062241 L235,264.900415 L236.647694,264.900415 Z M247.828477,264.900415 L247.828477,256.062241 L246.180783,256.062241 L246.180783,264.900415 L247.828477,264.900415 Z M256.41832,264.900415 L256.41832,263.394191 L252.096107,263.394191 L252.096107,256.062241 L250.448413,256.062241 L250.448413,264.900415 L256.41832,264.900415 Z M264.160436,264.900415 L264.160436,263.394191 L259.921802,263.394191 L259.921802,261.091286 L263.491807,261.091286 L263.491807,259.697095 L259.921802,259.697095 L259.921802,257.568465 L264.052978,257.568465 L264.052978,256.062241 L258.274108,256.062241 L258.274108,264.900415 L264.160436,264.900415 Z M269.060877,265 C269.47479,265 269.870794,264.952282 270.248888,264.856846 C270.626982,264.761411 270.961297,264.609959 271.251833,264.40249 C271.542368,264.195021 271.773204,263.923237 271.944342,263.587137 C272.115479,263.251037 272.201048,262.846473 272.201048,262.373444 C272.201048,261.966805 272.137369,261.624481 272.010011,261.346473 C271.882653,261.068465 271.701566,260.829876 271.466749,260.630705 C271.231933,260.431535 270.945377,260.26556 270.607083,260.13278 C270.268788,260 269.892684,259.875519 269.47877,259.759336 C269.160375,259.676349 268.87979,259.59751 268.637013,259.522822 C268.394237,259.448133 268.19325,259.365145 268.034053,259.273859 C267.874855,259.182573 267.753467,259.076763 267.669889,258.956432 C267.58631,258.8361 267.54452,258.684647 267.54452,258.502075 C267.54452,258.186722 267.655959,257.941909 267.878835,257.767635 C268.101712,257.593361 268.440006,257.506224 268.893719,257.506224 C269.148435,257.506224 269.399172,257.539419 269.645928,257.605809 C269.892684,257.672199 270.12153,257.753112 270.332467,257.848548 C270.543404,257.943983 270.722501,258.041494 270.869759,258.141079 C271.017016,258.240664 271.118505,258.319502 271.174224,258.377593 L271.174224,258.377593 L271.902552,256.983402 C271.528438,256.717842 271.090645,256.487552 270.589173,256.292531 C270.087701,256.09751 269.538469,256 268.941479,256 C268.511645,256 268.109672,256.060166 267.735557,256.180498 C267.361443,256.30083 267.033098,256.477178 266.750523,256.709544 C266.467947,256.941909 266.247061,257.232365 266.087863,257.580913 C265.928666,257.929461 265.849067,258.327801 265.849067,258.775934 C265.849067,259.116183 265.898816,259.408714 265.998315,259.653527 C266.097813,259.89834 266.247061,260.114108 266.446058,260.30083 C266.645055,260.487552 266.893801,260.649378 267.192296,260.786307 C267.490791,260.923237 267.843016,261.049793 268.248969,261.165975 C268.583284,261.26556 268.88576,261.356846 269.156395,261.439834 C269.427031,261.522822 269.657867,261.614108 269.848905,261.713693 C270.039942,261.813278 270.187199,261.929461 270.290678,262.062241 C270.394156,262.195021 270.445895,262.356846 270.445895,262.547718 C270.445895,263.153527 269.992182,263.456432 269.084756,263.456432 C268.758402,263.456432 268.440006,263.414938 268.129571,263.33195 C267.819136,263.248963 267.536561,263.147303 267.281845,263.026971 C267.027129,262.906639 266.806242,262.786307 266.619185,262.665975 C266.432128,262.545643 266.30278,262.448133 266.231141,262.373444 L266.231141,262.373444 L265.502812,263.854772 C265.996325,264.219917 266.553516,264.502075 267.174386,264.701245 C267.795257,264.900415 268.424087,265 269.060877,265 Z M277.865636,264.900415 L277.865636,257.568465 L280.575974,257.568465 L280.575974,256.062241 L273.519544,256.062241 L273.519544,257.568465 L276.229882,257.568465 L276.229882,264.900415 L277.865636,264.900415 Z M285.703271,264.962656 C286.300262,264.962656 286.853473,264.840249 287.362905,264.595436 C287.872337,264.350622 288.310131,264.022822 288.676285,263.612033 C289.042439,263.201245 289.328995,262.728216 289.535951,262.192946 C289.742908,261.657676 289.846387,261.095436 289.846387,260.506224 C289.846387,259.950207 289.746888,259.40249 289.547891,258.863071 C289.348894,258.323651 289.070299,257.842324 288.712104,257.419087 C288.35391,256.995851 287.922087,256.653527 287.416635,256.392116 C286.911182,256.130705 286.352001,256 285.739091,256 C285.1421,256 284.588889,256.122407 284.079457,256.36722 C283.570025,256.612033 283.130241,256.941909 282.760107,257.356846 C282.389973,257.771784 282.099438,258.248963 281.888501,258.788382 C281.677564,259.327801 281.572096,259.892116 281.572096,260.481328 C281.572096,261.045643 281.671594,261.59751 281.870591,262.136929 C282.069588,262.676349 282.350174,263.155602 282.712348,263.574689 C283.074522,263.993776 283.508336,264.329876 284.013788,264.582988 C284.51924,264.8361 285.082401,264.962656 285.703271,264.962656 Z M285.715211,263.443983 C285.325177,263.443983 284.976933,263.360996 284.670477,263.195021 C284.364022,263.029046 284.105326,262.809129 283.89439,262.53527 C283.683453,262.261411 283.522265,261.946058 283.410827,261.589212 C283.299389,261.232365 283.24367,260.863071 283.24367,260.481328 C283.24367,260.116183 283.297399,259.757261 283.404857,259.404564 C283.512315,259.051867 283.669523,258.736515 283.87648,258.458506 C284.083437,258.180498 284.342133,257.956432 284.652568,257.786307 C284.963003,257.616183 285.317217,257.53112 285.715211,257.53112 C286.097285,257.53112 286.44155,257.612033 286.748005,257.773859 C287.05446,257.935685 287.313156,258.153527 287.524093,258.427386 C287.73503,258.701245 287.898207,259.016598 288.013625,259.373444 C288.129043,259.73029 288.186752,260.099585 288.186752,260.481328 C288.186752,260.846473 288.133023,261.205394 288.025565,261.558091 C287.918107,261.910788 287.758909,262.228216 287.547972,262.510373 C287.337036,262.792531 287.07834,263.018672 286.771885,263.188797 C286.465429,263.358921 286.113205,263.443983 285.715211,263.443983 Z M293.612545,264.900415 L293.612545,259.236515 L297.970577,264.900415 L299.307836,264.900415 L299.307836,256.074689 L297.660142,256.074689 L297.660142,261.863071 L293.242411,256.062241 L291.964851,256.062241 L291.964851,264.900415 L293.612545,264.900415 Z M307.8141,264.900415 L307.8141,263.394191 L303.575467,263.394191 L303.575467,261.091286 L307.145471,261.091286 L307.145471,259.697095 L303.575467,259.697095 L303.575467,257.568465 L307.706642,257.568465 L307.706642,256.062241 L301.927772,256.062241 L301.927772,264.900415 L307.8141,264.900415 Z M319,264.900415 L319,263.394191 L315.382236,263.394191 C315.461835,263.261411 315.577253,263.126556 315.728491,262.989627 C315.879729,262.852697 316.044896,262.719917 316.223993,262.591286 C316.403091,262.462656 316.584178,262.344398 316.767255,262.236515 C316.950332,262.128631 317.113509,262.033195 317.256787,261.950207 C317.431904,261.850622 317.612992,261.736515 317.800049,261.607884 C317.987106,261.479253 318.160233,261.327801 318.319431,261.153527 C318.478628,260.979253 318.609966,260.780083 318.713444,260.556017 C318.816923,260.33195 318.868662,260.074689 318.868662,259.784232 C318.868662,259.477178 318.810953,259.192946 318.695535,258.931535 C318.580117,258.670124 318.412959,258.446058 318.194063,258.259336 C317.975166,258.072614 317.70652,257.927386 317.388125,257.823651 C317.06973,257.719917 316.707556,257.66805 316.301602,257.66805 C315.943408,257.66805 315.607103,257.707469 315.292688,257.786307 C314.978273,257.865145 314.691717,257.96473 314.433021,258.085062 C314.174325,258.205394 313.949459,258.334025 313.758422,258.470954 C313.567385,258.607884 313.420127,258.73444 313.316649,258.850622 L313.316649,258.850622 L314.343473,260.082988 C314.438991,259.958506 314.54446,259.840249 314.659878,259.728216 C314.775296,259.616183 314.902654,259.514523 315.041952,259.423237 C315.18125,259.33195 315.330497,259.259336 315.489695,259.205394 C315.648892,259.151452 315.82401,259.124481 316.015047,259.124481 C316.373241,259.124481 316.647857,259.213693 316.838894,259.392116 C317.029931,259.570539 317.125449,259.784232 317.125449,260.033195 C317.125449,260.190871 317.08167,260.329876 316.994111,260.450207 C316.906553,260.570539 316.779195,260.688797 316.612037,260.804979 C316.44488,260.921162 316.235933,261.047718 315.985197,261.184647 C315.734461,261.321577 315.445915,261.481328 315.119561,261.6639 C314.745446,261.879668 314.437001,262.099585 314.194225,262.323651 C313.951449,262.547718 313.760412,262.788382 313.621114,263.045643 C313.481816,263.302905 313.384308,263.582988 313.328589,263.885892 C313.272869,264.188797 313.24501,264.526971 313.24501,264.900415 L313.24501,264.900415 L319,264.900415 Z" id="MILESTONE2" fill="#427FE0" fill-rule="nonzero"></path>
                <path d="M374.647694,264.294664 L374.647694,258.842227 L376.83268,262.902552 L377.728166,262.902552 L379.913152,258.842227 L379.913152,264.294664 L381.560846,264.294664 L381.560846,256.058005 L379.805694,256.058005 L377.274453,260.74478 L374.767092,256.058005 L373,256.058005 L373,264.294664 L374.647694,264.294664 Z M385.828477,264.294664 L385.828477,256.058005 L384.180783,256.058005 L384.180783,264.294664 L385.828477,264.294664 Z M394.41832,264.294664 L394.41832,262.890951 L390.096107,262.890951 L390.096107,256.058005 L388.448413,256.058005 L388.448413,264.294664 L394.41832,264.294664 Z M402.160436,264.294664 L402.160436,262.890951 L397.921802,262.890951 L397.921802,260.74478 L401.491807,260.74478 L401.491807,259.445476 L397.921802,259.445476 L397.921802,257.461717 L402.052978,257.461717 L402.052978,256.058005 L396.274108,256.058005 L396.274108,264.294664 L402.160436,264.294664 Z M407.060877,264.387471 C407.47479,264.387471 407.870794,264.343001 408.248888,264.25406 C408.626982,264.16512 408.961297,264.023975 409.251833,263.830626 C409.542368,263.637278 409.773204,263.383991 409.944342,263.070766 C410.115479,262.757541 410.201048,262.38051 410.201048,261.939675 C410.201048,261.560712 410.137369,261.241686 410.010011,260.982599 C409.882653,260.723511 409.701566,260.50116 409.466749,260.315545 C409.231933,260.12993 408.945377,259.975251 408.607083,259.851508 C408.268788,259.727765 407.892684,259.611756 407.47877,259.50348 C407.160375,259.426141 406.87979,259.352668 406.637013,259.283063 C406.394237,259.213457 406.19325,259.136118 406.034053,259.051044 C405.874855,258.965971 405.753467,258.867363 405.669889,258.75522 C405.58631,258.643078 405.54452,258.501933 405.54452,258.331787 C405.54452,258.037896 405.655959,257.809745 405.878835,257.647332 C406.101712,257.484919 406.440006,257.403712 406.893719,257.403712 C407.148435,257.403712 407.399172,257.434648 407.645928,257.49652 C407.892684,257.558391 408.12153,257.633797 408.332467,257.722738 C408.543404,257.811678 408.722501,257.902552 408.869759,257.99536 C409.017016,258.088167 409.118505,258.16164 409.174224,258.215777 L409.174224,258.215777 L409.902552,256.916473 C409.528438,256.668987 409.090645,256.45437 408.589173,256.272622 C408.087701,256.090874 407.538469,256 406.941479,256 C406.511645,256 406.109672,256.056071 405.735557,256.168213 C405.361443,256.280356 405.033098,256.444702 404.750523,256.661253 C404.467947,256.877804 404.247061,257.148492 404.087863,257.473318 C403.928666,257.798144 403.849067,258.169374 403.849067,258.587007 C403.849067,258.904099 403.898816,259.176721 403.998315,259.404872 C404.097813,259.633024 404.247061,259.834107 404.446058,260.008121 C404.645055,260.182135 404.893801,260.332947 405.192296,260.460557 C405.490791,260.588167 405.843016,260.70611 406.248969,260.814385 C406.583284,260.907193 406.88576,260.992266 407.156395,261.069606 C407.427031,261.146945 407.657867,261.232019 407.848905,261.324826 C408.039942,261.417633 408.187199,261.525909 408.290678,261.649652 C408.394156,261.773395 408.445895,261.924207 408.445895,262.102088 C408.445895,262.666667 407.992182,262.948956 407.084756,262.948956 C406.758402,262.948956 406.440006,262.910286 406.129571,262.832947 C405.819136,262.755607 405.536561,262.660866 405.281845,262.548724 C405.027129,262.436582 404.806242,262.324439 404.619185,262.212297 C404.432128,262.100155 404.30278,262.009281 404.231141,261.939675 L404.231141,261.939675 L403.502812,263.320186 C403.996325,263.66048 404.553516,263.923434 405.174386,264.109049 C405.795257,264.294664 406.424087,264.387471 407.060877,264.387471 Z M415.865636,264.294664 L415.865636,257.461717 L418.575974,257.461717 L418.575974,256.058005 L411.519544,256.058005 L411.519544,257.461717 L414.229882,257.461717 L414.229882,264.294664 L415.865636,264.294664 Z M423.703271,264.352668 C424.300262,264.352668 424.853473,264.238592 425.362905,264.010441 C425.872337,263.782289 426.310131,263.476798 426.676285,263.093968 C427.042439,262.711137 427.328995,262.270302 427.535951,261.771462 C427.742908,261.272622 427.846387,260.748647 427.846387,260.199536 C427.846387,259.681361 427.746888,259.17092 427.547891,258.668213 C427.348894,258.165507 427.070299,257.716937 426.712104,257.322506 C426.35391,256.928074 425.922087,256.609049 425.416635,256.365429 C424.911182,256.12181 424.352001,256 423.739091,256 C423.1421,256 422.588889,256.114076 422.079457,256.342227 C421.570025,256.570379 421.130241,256.877804 420.760107,257.264501 C420.389973,257.651199 420.099438,258.095901 419.888501,258.598608 C419.677564,259.101315 419.572096,259.627224 419.572096,260.176334 C419.572096,260.702243 419.671594,261.216551 419.870591,261.719258 C420.069588,262.221964 420.350174,262.6686 420.712348,263.059165 C421.074522,263.449729 421.508336,263.762954 422.013788,263.99884 C422.51924,264.234725 423.082401,264.352668 423.703271,264.352668 Z M423.715211,262.937355 C423.325177,262.937355 422.976933,262.860015 422.670477,262.705336 C422.364022,262.550657 422.105326,262.345708 421.89439,262.090487 C421.683453,261.835267 421.522265,261.541377 421.410827,261.208817 C421.299389,260.876257 421.24367,260.532096 421.24367,260.176334 C421.24367,259.83604 421.297399,259.501547 421.404857,259.172854 C421.512315,258.844161 421.669523,258.550271 421.87648,258.291183 C422.083437,258.032096 422.342133,257.823279 422.652568,257.664733 C422.963003,257.506187 423.317217,257.426914 423.715211,257.426914 C424.097285,257.426914 424.44155,257.50232 424.748005,257.653132 C425.05446,257.803944 425.313156,258.006961 425.524093,258.262181 C425.73503,258.517401 425.898207,258.811292 426.013625,259.143852 C426.129043,259.476411 426.186752,259.820572 426.186752,260.176334 C426.186752,260.516628 426.133023,260.851121 426.025565,261.179814 C425.918107,261.508507 425.758909,261.804331 425.547972,262.067285 C425.337036,262.33024 425.07834,262.54099 424.771885,262.699536 C424.465429,262.858082 424.113205,262.937355 423.715211,262.937355 Z M431.612545,264.294664 L431.612545,259.016241 L435.970577,264.294664 L437.307836,264.294664 L437.307836,256.069606 L435.660142,256.069606 L435.660142,261.464037 L431.242411,256.058005 L429.964851,256.058005 L429.964851,264.294664 L431.612545,264.294664 Z M445.8141,264.294664 L445.8141,262.890951 L441.575467,262.890951 L441.575467,260.74478 L445.145471,260.74478 L445.145471,259.445476 L441.575467,259.445476 L441.575467,257.461717 L445.706642,257.461717 L445.706642,256.058005 L439.927772,256.058005 L439.927772,264.294664 L445.8141,264.294664 Z M453.895648,266 C454.373241,266 454.803074,265.943929 455.185148,265.831787 C455.567222,265.719644 455.891587,265.561098 456.158243,265.356148 C456.424899,265.151199 456.631856,264.901779 456.779113,264.607889 C456.926371,264.313998 457,263.985305 457,263.62181 C457,263.080433 456.846772,262.622196 456.540317,262.2471 C456.233862,261.872003 455.833878,261.641918 455.340366,261.556845 C455.563242,261.518175 455.768209,261.440835 455.955266,261.324826 C456.142323,261.208817 456.303511,261.065739 456.438829,260.895592 C456.574147,260.725445 456.677625,260.535963 456.749264,260.327146 C456.820903,260.118329 456.856722,259.897912 456.856722,259.665893 C456.856722,259.356535 456.791053,259.076179 456.659715,258.824826 C456.528377,258.573473 456.34132,258.358855 456.098544,258.180974 C455.855768,258.003094 455.567222,257.863882 455.232908,257.763341 C454.898593,257.6628 454.528459,257.612529 454.122505,257.612529 C453.81207,257.612529 453.509594,257.641531 453.215079,257.699536 C452.920564,257.757541 452.647938,257.838747 452.397202,257.943155 C452.146466,258.047564 451.921599,258.171307 451.722602,258.314385 C451.523605,258.457463 451.364408,258.617943 451.24501,258.795824 L451.24501,258.795824 L452.247954,259.886311 C452.431031,259.592421 452.667838,259.364269 452.958373,259.201856 C453.248909,259.039443 453.577253,258.958237 453.943408,258.958237 C454.301602,258.958237 454.592138,259.035576 454.815014,259.190255 C455.037891,259.344934 455.149329,259.58082 455.149329,259.897912 C455.149329,260.230472 455.014011,260.503094 454.743375,260.715777 C454.472739,260.928461 454.090665,261.034803 453.597153,261.034803 L453.597153,261.034803 L453.227019,261.034803 L453.227019,262.194896 L453.561334,262.194896 C454.158324,262.194896 454.604077,262.303171 454.898593,262.519722 C455.193108,262.736272 455.340366,263.04563 455.340366,263.447796 C455.340366,263.834493 455.213008,264.12065 454.958292,264.306265 C454.703576,264.491879 454.333442,264.584687 453.847889,264.584687 C453.418056,264.584687 453.059862,264.515081 452.773306,264.37587 C452.48675,264.236659 452.239994,264.039443 452.033038,263.784223 L452.033038,263.784223 L451.125612,264.886311 C451.436047,265.249807 451.824091,265.526295 452.289744,265.715777 C452.755396,265.905259 453.290698,266 453.895648,266 Z" id="MILESTONE3" fill="#427FE0" fill-rule="nonzero"></path>
                <line x1="140.5" y1="170.43125" x2="140.5" y2="238.609267" id="Line-5" stroke="#D1D1D1" stroke-linecap="square"></line>
                <line x1="276.5" y1="115.142029" x2="276.5" y2="238.609297" id="Line-5-Copy" stroke="#D1D1D1" stroke-linecap="square"></line>
                <line x1="415.5" y1="25.3820006" x2="415.5" y2="238.597484" id="Line-5-Copy-2" stroke="#D1D1D1" stroke-linecap="square"></line>
            </g>
        </g>
    </g>
</svg>