<svg height="260" viewBox="0 0 244 260" width="244" xmlns="http://www.w3.org/2000/svg" xmlns:xlink="http://www.w3.org/1999/xlink"><linearGradient id="a"><stop offset="0" stop-color="#007bb6"/><stop offset="1" stop-color="#39bee6"/></linearGradient><linearGradient id="b" x1="56.5224%" x2="59.28002%" xlink:href="#a" y1="93.955692%" y2="0%"/><linearGradient id="c" x1="61.273928%" x2="66.040458%" xlink:href="#a" y1="93.955692%" y2="0%"/><g fill="none" fill-rule="evenodd" transform="translate(-25 -40)"><path d="m135.451332 266.847692c44.76128-.058885 102.9372-34.944851 103.01521-93.89114.077592-58.946289-21.52943-181.18035721-105.363943-154.1787617-83.8345127 27.0015955-78.480061 82.4983817-78.5578622 141.4446707-.0778013 58.94629 36.1453152 106.684007 80.9065952 106.625231z" fill="url(#b)" opacity=".318105" transform="matrix(.27563736 -.9612617 .9612617 .27563736 -29.328628 242.86611)"/><path d="m148.937493 261.47546c51.875577.111493 119.178629-30.454628 119.066966-82.460959-.111942-52.006332-25.572067-159.9289573-122.638984-136.41283-97.0669176 23.5161274-90.671262 72.498929-90.5594595 124.50526.1118025 52.006332 42.2559004 94.256424 94.1314775 94.368529z" fill="url(#c)" transform="matrix(.8660254 .5 -.5 .8660254 96.809199 -60.524106)"/><path d="m213 156.704553v38.295447h-21.870597v-35.748441c0-8.987866-3.153443-15.096348-11.067021-15.096348-6.051973 0-9.622021 4.135662-11.215701 8.115752-.573819 1.433301-.748098 3.440571-.748098 5.422058v37.302429h-21.849052s.293309-60.523196 0-66.791367h21.853532v9.466933c-.029651.077786-.093432.142355-.123297.228808h.123297v-.228808c2.919649-4.549943 8.091909-11.034138 19.707151-11.034138 14.416074 0 25.189786 9.544936 25.189786 30.067675zm-89.628342-60.704553c-7.475641 0-12.371658 4.981775-12.371658 11.552206 0 6.393409 4.751602 11.54354 12.091148 11.54354h.131829c7.641388 0 12.375925-5.150131 12.375925-11.54354-.148681-6.570431-4.734324-11.552206-12.227244-11.552206zm-11.066807 98.999783h21.857798v-66.799817h-21.857798z" fill="#fff" fill-rule="nonzero"/><ellipse cx="153.5" cy="291.5" fill="#000" opacity=".05" rx="91.5" ry="8.5"/></g></svg>