<?xml version="1.0" encoding="UTF-8"?>
<svg width="329px" height="259px" viewBox="0 0 329 259" version="1.1" xmlns="http://www.w3.org/2000/svg" xmlns:xlink="http://www.w3.org/1999/xlink">
    <!-- Generator: Sketch 63.1 (92452) - https://sketch.com -->
    <title>img_reviews_mob</title>
    <desc>Created with Sketch.</desc>
    <defs>
        <filter x="-13.1%" y="-20.2%" width="126.1%" height="140.4%" filterUnits="objectBoundingBox" id="filter-1">
            <feOffset dx="0" dy="5" in="SourceAlpha" result="shadowOffsetOuter1"></feOffset>
            <feGaussianBlur stdDeviation="5" in="shadowOffsetOuter1" result="shadowBlurOuter1"></feGaussianBlur>
            <feColorMatrix values="0 0 0 0 0   0 0 0 0 0   0 0 0 0 0  0 0 0 0.25 0" type="matrix" in="shadowBlurOuter1" result="shadowMatrixOuter1"></feColorMatrix>
            <feMerge>
                <feMergeNode in="shadowMatrixOuter1"></feMergeNode>
                <feMergeNode in="SourceGraphic"></feMergeNode>
            </feMerge>
        </filter>
        <filter x="-13.1%" y="-20.2%" width="126.1%" height="140.4%" filterUnits="objectBoundingBox" id="filter-2">
            <feOffset dx="0" dy="5" in="SourceAlpha" result="shadowOffsetOuter1"></feOffset>
            <feGaussianBlur stdDeviation="5" in="shadowOffsetOuter1" result="shadowBlurOuter1"></feGaussianBlur>
            <feColorMatrix values="0 0 0 0 0   0 0 0 0 0   0 0 0 0 0  0 0 0 0.25 0" type="matrix" in="shadowBlurOuter1" result="shadowMatrixOuter1"></feColorMatrix>
            <feMerge>
                <feMergeNode in="shadowMatrixOuter1"></feMergeNode>
                <feMergeNode in="SourceGraphic"></feMergeNode>
            </feMerge>
        </filter>
    </defs>
    <g id="Website" stroke="none" stroke-width="1" fill="none" fill-rule="evenodd">
        <g id="Reputation-Management---Mobile" transform="translate(-25.000000, -1832.000000)">
            <g id="img_reviews_mob" transform="translate(35.000000, 1837.000000)">
                <g id="Group-5" filter="url(#filter-1)">
                    <path d="M13,0 L212.370474,0 C219.550175,-1.40726021e-14 225.370474,5.82029825 225.370474,13 L225.370474,133 C225.370474,140.179702 219.550175,146 212.370474,146 L13,146 C5.82029825,146 8.79259876e-16,140.179702 0,133 L0,13 C-8.79259876e-16,5.82029825 5.82029825,1.31888981e-15 13,0 Z" id="Rectangle" fill="#FFFFFF"></path>
                    <g id="Group-4" transform="translate(18.885794, 56.849558)">
                        <path d="M26.7548747,54.9115044 C12.0017909,54.9115044 0,42.5941676 0,27.4557522 C0,12.3173368 12.0017909,0 26.7548747,0 C41.5068437,0 53.5097493,12.3173368 53.5097493,27.4557522 C53.5097493,42.5941676 41.5068437,54.9115044 26.7548747,54.9115044" id="Fill-8" fill="#FFDA00"></path>
                        <path d="M23.6276815,21.3940926 L22.5466765,21.3940926 C22.5466765,18.9472423 20.8494986,16.9567993 18.7631588,16.9567993 C16.6768191,16.9567993 14.9796412,18.9472423 14.9796412,21.3940926 L13.8986362,21.3940926 C13.8986362,18.2486856 16.0811854,15.6890013 18.7631588,15.6890013 C21.4451323,15.6890013 23.6276815,18.2486856 23.6276815,21.3940926" id="Fill-10" fill="#34495E"></path>
                        <path d="M39.6111131,21.3940926 L38.5301081,21.3940926 C38.5301081,18.9472423 36.8329302,16.9567993 34.7465905,16.9567993 C32.6602507,16.9567993 30.9630728,18.9472423 30.9630728,21.3940926 L29.8820678,21.3940926 C29.8820678,18.2486856 32.064617,15.6890013 34.7465905,15.6890013 C37.428564,15.6890013 39.6111131,18.2486856 39.6111131,21.3940926" id="Fill-12" fill="#34495E"></path>
                        <path d="M26.7543116,42.7881853 C33.0874216,42.7881853 38.2212495,37.6792653 38.2212495,31.3780025 L15.2884998,31.3780025 C15.2884998,37.6792653 20.4212016,42.7881853 26.7543116,42.7881853" id="Fill-14" fill="#34495E"></path>
                    </g>
                    <path d="M13,0 L213,0 C220.179702,4.57467025e-16 226,5.82029825 226,13 L226,27.1327434 L226,27.1327434 L0,27.1327434 L0,13 C-8.79259876e-16,5.82029825 5.82029825,3.09524665e-15 13,0 Z" id="Rectangle-2" fill="#FF5254"></path>
                    <polygon id="Fill-5" fill="#E9ECED" points="0 41.3451327 225.370474 41.3451327 225.370474 27.1327434 0 27.1327434"></polygon>
                    <path d="M40.2896936,14.8590013 C40.2896936,16.9993868 38.5988606,18.7345133 36.5131139,18.7345133 C34.4273671,18.7345133 32.735376,16.9993868 32.735376,14.8590013 C32.735376,12.7186158 34.4273671,10.9823009 36.5131139,10.9823009 C38.5988606,10.9823009 40.2896936,12.7186158 40.2896936,14.8590013" id="Fill-6" fill="#FFFFFF"></path>
                    <path d="M29.5877437,14.8590013 C29.5877437,16.9993868 27.8957526,18.7345133 25.8100059,18.7345133 C23.7242592,18.7345133 22.0334262,16.9993868 22.0334262,14.8590013 C22.0334262,12.7186158 23.7242592,10.9823009 25.8100059,10.9823009 C27.8957526,10.9823009 29.5877437,12.7186158 29.5877437,14.8590013" id="Fill-7" fill="#FFFFFF"></path>
                    <path d="M19.5153203,14.8590013 C19.5153203,16.9993868 17.8244873,18.7345133 15.7375825,18.7345133 C13.6518358,18.7345133 11.9610028,16.9993868 11.9610028,14.8590013 C11.9610028,12.7186158 13.6518358,10.9823009 15.7375825,10.9823009 C17.8244873,10.9823009 19.5153203,12.7186158 19.5153203,14.8590013" id="Fill-8" fill="#FFFFFF"></path>
                    <path d="M49.1525378,12.2743363 L190.697044,12.2743363 C191.767402,12.2743363 192.635097,13.1420322 192.635097,14.2123894 C192.635097,15.2827466 191.767402,16.1504425 190.697044,16.1504425 L49.1525378,16.1504425 C48.0821806,16.1504425 47.2144847,15.2827466 47.2144847,14.2123894 C47.2144847,13.1420322 48.0821806,12.2743363 49.1525378,12.2743363 Z" id="Rectangle-3" fill="#FFFFFF"></path>
                    <polygon id="Fill-10" fill="#FFFFFF" points="206.168734 9.69026549 206.986129 12.157807 209.632312 12.157807 207.491234 13.6829009 208.309812 16.1504425 206.168734 14.6253486 204.028838 16.1504425 204.846233 13.6829009 202.707521 12.157807 205.352521 12.157807"></polygon>
                    <g id="Group-6" transform="translate(86.874652, 53.619469)" fill="#FFDA00">
                        <polygon id="Fill-11" points="112.354469 0 114.811034 7.89581373 122.75766 7.89581373 116.327205 12.7767526 118.78377 20.6725664 112.354469 15.7928329 105.925167 20.6725664 108.381733 12.7767526 101.951277 7.89581373 109.897903 7.89581373"></polygon>
                        <polygon id="Fill-12" points="86.6932628 0 89.1498284 7.89581373 97.0964544 7.89581373 90.6659989 12.7767526 93.1225644 20.6725664 86.6932628 15.7928329 80.2639612 20.6725664 82.7205268 12.7767526 76.2900713 7.89581373 84.2366973 7.89581373"></polygon>
                        <polygon id="Fill-13" points="61.032057 0 63.4886226 7.89581373 71.4352486 7.89581373 65.0047931 12.7767526 67.4613586 20.6725664 61.032057 15.7928329 54.6027554 20.6725664 57.0581671 12.7767526 50.6288655 7.89581373 58.5766454 7.89581373"></polygon>
                        <polygon id="Fill-14" points="35.3708512 0 37.8262629 7.89581373 45.7740428 7.89581373 39.3447412 12.7767526 41.8001528 20.6725664 35.3708512 15.7928329 28.9415496 20.6725664 31.3969613 12.7767526 24.9676597 7.89581373 32.9154396 7.89581373"></polygon>
                        <polygon id="Fill-15" points="10.4031915 0 12.8586032 7.89581373 20.8063831 7.89581373 14.3770815 12.7767526 16.8324931 20.6725664 10.4031915 15.7928329 3.97388994 20.6725664 6.4293016 12.7767526 0 7.89581373 7.94777987 7.89581373"></polygon>
                    </g>
                    <g id="Group-7" transform="translate(88.763231, 83.336283)" fill="#DADFE1">
                        <polygon id="Fill-16" points="0 28.4247788 64.4005571 28.4247788 64.4005571 23.4504425 0 23.4504425"></polygon>
                        <polygon id="Fill-17" points="0 16.3442478 91.4072423 16.3442478 91.4072423 11.3699115 0 11.3699115"></polygon>
                        <polygon id="Fill-18" points="0 4.97433628 117.721448 4.97433628 117.721448 0 0 0"></polygon>
                    </g>
                </g>
                <g id="Group-5-Copy" filter="url(#filter-2)" transform="translate(83.000000, 93.000000)">
                    <path d="M13,0 L212.370474,0 C219.550175,-1.31888981e-15 225.370474,5.82029825 225.370474,13 L225.370474,132.637517 C225.370474,139.817219 219.550175,145.637517 212.370474,145.637517 L13,145.637517 C5.82029825,145.637517 8.79259876e-16,139.817219 0,132.637517 L0,13 C-8.79259876e-16,5.82029825 5.82029825,1.31888981e-15 13,0 Z" id="Rectangle" fill="#FFFFFF"></path>
                    <g id="Group-4" transform="translate(18.885794, 56.708414)">
                        <path d="M26.7548747,54.7751724 C12.0017909,54.7751724 0,42.4884166 0,27.3875862 C0,12.2867559 12.0017909,0 26.7548747,0 C41.5068437,0 53.5097493,12.2867559 53.5097493,27.3875862 C53.5097493,42.4884166 41.5068437,54.7751724 26.7548747,54.7751724" id="Fill-8" fill="#FFDA00"></path>
                        <path d="M23.6276815,21.3409763 L22.5466765,21.3409763 C22.5466765,18.9002009 20.8494986,16.9146997 18.7631588,16.9146997 C16.6768191,16.9146997 14.9796412,18.9002009 14.9796412,21.3409763 L13.8986362,21.3409763 C13.8986362,18.2033785 16.0811854,15.6500493 18.7631588,15.6500493 C21.4451323,15.6500493 23.6276815,18.2033785 23.6276815,21.3409763" id="Fill-10" fill="#34495E"></path>
                        <path d="M39.6111131,21.3409763 L38.5301081,21.3409763 C38.5301081,18.9002009 36.8329302,16.9146997 34.7465905,16.9146997 C32.6602507,16.9146997 30.9630728,18.9002009 30.9630728,21.3409763 L29.8820678,21.3409763 C29.8820678,18.2033785 32.064617,15.6500493 34.7465905,15.6500493 C37.428564,15.6500493 39.6111131,18.2033785 39.6111131,21.3409763" id="Fill-12" fill="#34495E"></path>
                        <path d="M26.7543116,42.6819525 C33.0874216,42.6819525 38.2212495,37.5857168 38.2212495,31.3000985 L15.2884998,31.3000985 C15.2884998,37.5857168 20.4212016,42.6819525 26.7543116,42.6819525" id="Fill-14" fill="#34495E"></path>
                    </g>
                    <path d="M13,0 L213,0 C220.179702,1.14348225e-14 226,5.82029825 226,13 L226,27.0653793 L226,27.0653793 L0,27.0653793 L0,13 C-8.79259876e-16,5.82029825 5.82029825,3.09524665e-15 13,0 Z" id="Rectangle-2" fill="#FF5254"></path>
                    <polygon id="Fill-5" fill="#E9ECED" points="0 41.2424828 225.370474 41.2424828 225.370474 27.0653793 0 27.0653793"></polygon>
                    <path d="M40.2896936,14.82211 C40.2896936,16.9571814 38.5988606,18.688 36.5131139,18.688 C34.4273671,18.688 32.735376,16.9571814 32.735376,14.82211 C32.735376,12.6870386 34.4273671,10.9550345 36.5131139,10.9550345 C38.5988606,10.9550345 40.2896936,12.6870386 40.2896936,14.82211" id="Fill-6" fill="#FFFFFF"></path>
                    <path d="M29.5877437,14.82211 C29.5877437,16.9571814 27.8957526,18.688 25.8100059,18.688 C23.7242592,18.688 22.0334262,16.9571814 22.0334262,14.82211 C22.0334262,12.6870386 23.7242592,10.9550345 25.8100059,10.9550345 C27.8957526,10.9550345 29.5877437,12.6870386 29.5877437,14.82211" id="Fill-7" fill="#FFFFFF"></path>
                    <path d="M19.5153203,14.82211 C19.5153203,16.9571814 17.8244873,18.688 15.7375825,18.688 C13.6518358,18.688 11.9610028,16.9571814 11.9610028,14.82211 C11.9610028,12.6870386 13.6518358,10.9550345 15.7375825,10.9550345 C17.8244873,10.9550345 19.5153203,12.6870386 19.5153203,14.82211" id="Fill-8" fill="#FFFFFF"></path>
                    <path d="M49.1477261,12.2438621 L190.701856,12.2438621 C191.769556,12.2438621 192.635097,13.1094037 192.635097,14.1771034 C192.635097,15.2448032 191.769556,16.1103448 190.701856,16.1103448 L49.1477261,16.1103448 C48.0800263,16.1103448 47.2144847,15.2448032 47.2144847,14.1771034 C47.2144847,13.1094037 48.0800263,12.2438621 49.1477261,12.2438621 Z" id="Rectangle-3" fill="#FFFFFF"></path>
                    <polygon id="Fill-10" fill="#FFFFFF" points="206.168734 9.6662069 206.986129 12.1276221 209.632312 12.1276221 207.491234 13.6489296 208.309812 16.1103448 206.168734 14.5890374 204.028838 16.1103448 204.846233 13.6489296 202.707521 12.1276221 205.352521 12.1276221"></polygon>
                    <g id="Group-6" transform="translate(86.874652, 53.486345)" fill="#FFDA00">
                        <polygon id="Fill-11" points="112.354469 0 114.811034 7.87621033 122.75766 7.87621033 116.327205 12.745031 118.78377 20.6212414 112.354469 15.7536231 105.925167 20.6212414 108.381733 12.745031 101.951277 7.87621033 109.897903 7.87621033"></polygon>
                        <polygon id="Fill-12" points="86.6932628 0 89.1498284 7.87621033 97.0964544 7.87621033 90.6659989 12.745031 93.1225644 20.6212414 86.6932628 15.7536231 80.2639612 20.6212414 82.7205268 12.745031 76.2900713 7.87621033 84.2366973 7.87621033"></polygon>
                        <polygon id="Fill-13" points="61.032057 0 63.4886226 7.87621033 71.4352486 7.87621033 65.0047931 12.745031 67.4613586 20.6212414 61.032057 15.7536231 54.6027554 20.6212414 57.0581671 12.745031 50.6288655 7.87621033 58.5766454 7.87621033"></polygon>
                        <polygon id="Fill-14" points="35.3708512 0 37.8262629 7.87621033 45.7740428 7.87621033 39.3447412 12.745031 41.8001528 20.6212414 35.3708512 15.7536231 28.9415496 20.6212414 31.3969613 12.745031 24.9676597 7.87621033 32.9154396 7.87621033"></polygon>
                        <polygon id="Fill-15" points="10.4031915 0 12.8586032 7.87621033 20.8063831 7.87621033 14.3770815 12.745031 16.8324931 20.6212414 10.4031915 15.7536231 3.97388994 20.6212414 6.4293016 12.745031 0 7.87621033 7.94777987 7.87621033"></polygon>
                    </g>
                    <g id="Group-7" transform="translate(88.763231, 83.129379)" fill="#DADFE1">
                        <polygon id="Fill-16" points="0 28.3542069 64.4005571 28.3542069 64.4005571 23.3922207 0 23.3922207"></polygon>
                        <polygon id="Fill-17" points="0 16.303669 91.4072423 16.303669 91.4072423 11.3416828 0 11.3416828"></polygon>
                        <polygon id="Fill-18" points="0 4.96198621 117.721448 4.96198621 117.721448 0 0 0"></polygon>
                    </g>
                </g>
            </g>
        </g>
    </g>
</svg>