<svg height="282" viewBox="0 0 544 282" width="544" xmlns="http://www.w3.org/2000/svg" xmlns:xlink="http://www.w3.org/1999/xlink"><linearGradient id="a" x1="46.706%" x2="50.824924%" y1="46.811441%" y2="49.344661%"><stop offset="0" stop-color="#80c3f3"/><stop offset="1" stop-color="#4a90e2"/></linearGradient><linearGradient id="b" x1="61.784073%" x2="37.564487%" y1="94.809674%" y2="15.216714%"><stop offset="0" stop-color="#da3e3f"/><stop offset="1" stop-color="#ff5254"/></linearGradient><filter id="c" height="381.8%" width="132.9%" x="-16.4%" y="-140.9%"><feGaussianBlur in="SourceGraphic" stdDeviation="4.125"/></filter><filter id="d" height="381.8%" width="132.9%" x="-16.4%" y="-140.9%"><feGaussianBlur in="SourceGraphic" stdDeviation="8.25"/></filter><filter id="e" height="381.8%" width="132.9%" x="-16.4%" y="-140.9%"><feGaussianBlur in="SourceGraphic" stdDeviation="4.125"/></filter><filter id="f" height="381.8%" width="132.9%" x="-16.4%" y="-140.9%"><feGaussianBlur in="SourceGraphic" stdDeviation="4.125"/></filter><filter id="g" height="381.8%" width="132.9%" x="-16.4%" y="-140.9%"><feGaussianBlur in="SourceGraphic" stdDeviation="4.125"/></filter><g fill="none" fill-rule="evenodd"><ellipse cx="270" cy="196.487395" fill="url(#a)" rx="270" ry="48.554622"/><g transform="translate(134.319328 154.285714)"><path d="m37.6638655 0c20.6541738 0 37.3976899 16.7813898 37.3976899 37.4822831 0 13.8005956-12.4658966 34.6862459-37.3976899 62.6569509-24.9317932-27.970705-37.39768977-48.8563553-37.39768977-62.6569509 0-20.7008933 16.74351607-37.4822831 37.39768977-37.4822831zm0 20.7735645c-9.0407949 0-16.3698072 7.3331982-16.3698072 16.3791566 0 9.0459585 7.3290123 16.3791567 16.3698072 16.3791567 9.040795 0 16.3698073-7.3331982 16.3698073-16.3791567 0-9.0459584-7.3290123-16.3791566-16.3698073-16.3791566z" fill="url(#b)"/><g fill="#000"><path d="m37.6638655 100.139234c24.9317933-27.970705 37.3976899-48.8563553 37.3976899-62.6569509 0-9.8420729-3.7847888-18.7981614-9.9752024-25.4859821-2.9451417-3.18178738 9.1802244 9.3847051 2.3964724 34.9033916-2.4694274 9.2893347-12.4090807 27.0358485-29.8189599 53.2395414z" fill-opacity=".05"/><ellipse cx="37.655487" cy="113.586429" filter="url(#c)" opacity=".08" rx="37.655487" ry="4.392051"/></g></g><g transform="translate(195.12605)"><path d="m75.3277311 0c41.3083479 0 74.7953799 33.5627795 74.7953799 74.9645663 0 27.6011907-24.931793 69.3724917-74.7953799 125.3139017-49.8635864-55.94141-74.79537964-97.712711-74.79537964-125.3139017 0-41.4017868 33.48703214-74.9645663 74.79537964-74.9645663zm0 41.547129c-18.0815899 0-32.7396146 14.6663964-32.7396146 32.7583133 0 18.0919168 14.6580247 32.7583137 32.7396146 32.7583137 18.0815898 0 32.7396149-14.6663969 32.7396149-32.7583137 0-18.0919169-14.6580251-32.7583133-32.7396149-32.7583133z" fill="url(#b)"/><g fill="#000"><path d="m75.3277311 200.278468c49.8635869-55.94141 74.7953799-97.712711 74.7953799-125.3139017 0-19.6841458-7.569578-37.596323-19.950405-50.9719644-5.890283-6.3635747 18.360449 18.7694102 4.792945 69.8067833-4.938855 18.5786698-24.818162 54.0716968-59.6379199 106.4790828z" fill-opacity=".05"/><ellipse cx="75.310973" cy="227.172857" filter="url(#d)" opacity=".08" rx="75.310973" ry="8.784102"/></g></g><g transform="translate(460.134454 147.932773)"><path d="m37.6638655 0c20.6541738 0 37.3976899 16.7813898 37.3976899 37.4822831 0 13.8005956-12.4658966 34.6862459-37.3976899 62.6569509-24.9317932-27.970705-37.39768977-48.8563553-37.39768977-62.6569509 0-20.7008933 16.74351607-37.4822831 37.39768977-37.4822831zm0 20.7735645c-9.0407949 0-16.3698072 7.3331982-16.3698072 16.3791566 0 9.0459585 7.3290123 16.3791567 16.3698072 16.3791567 9.040795 0 16.3698073-7.3331982 16.3698073-16.3791567 0-9.0459584-7.3290123-16.3791566-16.3698073-16.3791566z" fill="url(#b)"/><g fill="#000"><path d="m37.6638655 100.139234c24.9317933-27.970705 37.3976899-48.8563553 37.3976899-62.6569509 0-9.8420729-3.7847888-18.7981614-9.9752024-25.4859821-2.9451417-3.18178738 9.1802244 9.3847051 2.3964724 34.9033916-2.4694274 9.2893347-12.4090807 27.0358485-29.8189599 53.2395414z" fill-opacity=".05"/><ellipse cx="37.655487" cy="113.586429" filter="url(#e)" opacity=".08" rx="37.655487" ry="4.392051"/></g></g><g transform="translate(22.689076 44.470588)"><path d="m37.6638655 0c20.6541738 0 37.3976899 16.7813898 37.3976899 37.4822831 0 13.8005956-12.4658966 34.6862459-37.3976899 62.6569509-24.9317932-27.970705-37.39768977-48.8563553-37.39768977-62.6569509 0-20.7008933 16.74351607-37.4822831 37.39768977-37.4822831zm0 20.7735645c-9.0407949 0-16.3698072 7.3331982-16.3698072 16.3791566 0 9.0459585 7.3290123 16.3791567 16.3698072 16.3791567 9.040795 0 16.3698073-7.3331982 16.3698073-16.3791567 0-9.0459584-7.3290123-16.3791566-16.3698073-16.3791566z" fill="url(#b)"/><g fill="#000"><path d="m37.6638655 100.139234c24.9317933-27.970705 37.3976899-48.8563553 37.3976899-62.6569509 0-9.8420729-3.7847888-18.7981614-9.9752024-25.4859821-2.9451417-3.18178738 9.1802244 9.3847051 2.3964724 34.9033916-2.4694274 9.2893347-12.4090807 27.0358485-29.8189599 53.2395414z" fill-opacity=".05"/><ellipse cx="37.655487" cy="113.586429" filter="url(#f)" opacity=".08" rx="37.655487" ry="4.392051"/></g></g><g transform="translate(389.344538 30.857143)"><path d="m37.6638655 0c20.6541738 0 37.3976899 16.7813898 37.3976899 37.4822831 0 13.8005956-12.4658966 34.6862459-37.3976899 62.6569509-24.9317932-27.970705-37.39768977-48.8563553-37.39768977-62.6569509 0-20.7008933 16.74351607-37.4822831 37.39768977-37.4822831zm0 20.7735645c-9.0407949 0-16.3698072 7.3331982-16.3698072 16.3791566 0 9.0459585 7.3290123 16.3791567 16.3698072 16.3791567 9.040795 0 16.3698073-7.3331982 16.3698073-16.3791567 0-9.0459584-7.3290123-16.3791566-16.3698073-16.3791566z" fill="url(#b)"/><g fill="#000"><path d="m37.6638655 100.139234c24.9317933-27.970705 37.3976899-48.8563553 37.3976899-62.6569509 0-9.8420729-3.7847888-18.7981614-9.9752024-25.4859821-2.9451417-3.18178738 9.1802244 9.3847051 2.3964724 34.9033916-2.4694274 9.2893347-12.4090807 27.0358485-29.8189599 53.2395414z" fill-opacity=".05"/><ellipse cx="37.655487" cy="113.586429" filter="url(#g)" opacity=".08" rx="37.655487" ry="4.392051"/></g></g></g></svg>