<?xml version="1.0" encoding="UTF-8"?>
<svg width="84px" height="80px" viewBox="0 0 84 80" version="1.1" xmlns="http://www.w3.org/2000/svg" xmlns:xlink="http://www.w3.org/1999/xlink">
    <!-- Generator: sketchtool 63.1 (101010) - https://sketch.com -->
    <title>22AADE1D-3373-424C-BFAC-9A78668CFF6D</title>
    <desc>Created with sketchtool.</desc>
    <g id="Website" stroke="none" stroke-width="1" fill="none" fill-rule="evenodd">
        <g id="Social-Media---WeChat" transform="translate(-691.000000, -2676.000000)" fill="#FF5254" fill-rule="nonzero">
            <g id="img_turnkey_solution" transform="translate(691.000000, 2676.000000)">
                <path d="M61.5005106,0 C53.1523404,0 45.8818723,4.56054884 42,11.3128785 C38.1181277,4.56054884 30.8476596,0 22.4994894,0 C10.0710638,0 0,10.0811191 0,22.5077655 C0,34.9415629 10.0710638,45.0191066 22.4994894,45.0191066 C26.2955745,45.0191066 29.8646809,44.0662361 32.9994894,42.4107801 L32.9994894,76.4245011 C32.9994894,78.3928132 34.608,80 36.5739574,80 L47.4260426,80 C49.3937872,80 51.0005106,78.3928132 51.0005106,76.4245011 L51.0005106,42.4107801 C54.1353191,44.0662361 57.7044255,45.0191066 61.5005106,45.0191066 C73.9289362,45.0191066 84,34.9415629 84,22.5077655 C84,10.0811191 73.9289362,0 61.5005106,0 Z M22.4994894,33.0107935 C16.7034894,33.0107935 11.9994894,28.3072247 11.9994894,22.5077655 C11.9994894,16.7118818 16.7034894,12.0047375 22.4994894,12.0047375 C28.2972766,12.0047375 32.9994894,16.7118818 32.9994894,22.5077655 C32.9994894,28.3072247 28.2972766,33.0107935 22.4994894,33.0107935 Z M61.5005106,33.0107935 C55.7027234,33.0107935 51.0005106,28.3072247 51.0005106,22.5077655 C51.0005106,16.7118818 55.7027234,12.0047375 61.5005106,12.0047375 C67.2965106,12.0047375 72.0005106,16.7118818 72.0005106,22.5077655 C72.0005106,28.3072247 67.2965106,33.0107935 61.5005106,33.0107935 Z" id="Shape"></path>
            </g>
        </g>
    </g>
</svg>