<?xml version="1.0" encoding="UTF-8"?>
<svg width="386px" height="386px" viewBox="0 0 386 386" version="1.1" xmlns="http://www.w3.org/2000/svg" xmlns:xlink="http://www.w3.org/1999/xlink">
    <!-- Generator: sketchtool 63.1 (101010) - https://sketch.com -->
    <title>E02FBA12-09C4-444C-85C8-7C7A7D0E8B74</title>
    <desc>Created with sketchtool.</desc>
    <defs>
        <polygon id="path-1" points="0.000275714286 0.351427797 385.64295 0.351427797 385.64295 385.881503 0.000275714286 385.881503"></polygon>
    </defs>
    <g id="Website" stroke="none" stroke-width="1" fill="none" fill-rule="evenodd">
        <g id="Hubspot" transform="translate(-220.000000, -2984.000000)">
            <g id="img_partnership" transform="translate(220.000000, 2984.000000)">
                <g id="Group-26">
                    <g id="Group-3">
                        <mask id="mask-2" fill="white">
                            <use xlink:href="#path-1"></use>
                        </mask>
                        <g id="Clip-2"></g>
                        <path d="M385.643226,193.114398 C385.643226,299.581861 299.304676,385.881503 192.816926,385.881503 C86.3264186,385.881503 0.000275714286,299.581861 0.000275714286,193.114398 C0.000275714286,86.6524478 86.3264186,0.351427797 192.816926,0.351427797 C299.304676,0.351427797 385.643226,86.6524478 385.643226,193.114398" id="Fill-1" fill="#427FE0" mask="url(#mask-2)"></path>
                    </g>
                    <path d="M222.848317,383.534328 C314.934818,369.356443 385.507765,290.280598 386,194.6822 L310.751512,118.98806 L245.553161,177.997568 L137.661375,153.842143 L115.570101,130.141366 L43.9161677,205.283336 L222.848317,383.534328 Z" id="Fill-4" fill="#285398"></path>
                    <path d="M255.407186,260.354625 L250.604973,261.117741 L248.355625,262.937688 L232.424476,273.079159 C232.424476,273.079159 229.828648,273.370131 229.458608,274.520293 C229.078866,275.629281 209.77023,281.024615 209.77023,281.024615 L205.92846,283.029851 L169.886228,253.276595 L188.192843,213.611078 L212.643242,209.095522 L255.407186,260.354625 Z" id="Fill-6" fill="#C69463"></path>
                    <path d="M257.967493,159.489396 C264.747625,168.085087 270.804012,177.257403 276.180601,186.791657 C279.957259,193.470314 283.367239,200.362281 286.328139,207.426272 C288.021455,211.432365 289.559585,215.499011 290.919182,219.608318 C292.19638,223.44514 289.350839,226.401199 286.538259,228.769625 C285.594781,229.525154 281.743962,232.83627 276.913959,236.234087 C272.059236,239.640161 263.481415,245.081622 262.842816,245.290803 C266.357169,252.608013 257.716174,262.136762 250.175217,261.349581 C241.502636,253.677313 233.196733,245.961008 225.27811,237.533212 C221.471239,233.433537 217.68222,229.335239 213.895948,225.227308 C212.934617,224.17865 207.931574,219.733552 207.232549,220.676243 C206.552751,221.62031 211.260527,226.547075 211.960926,227.302605 C215.644198,231.327965 219.324723,235.310663 223.038209,239.294737 C230.969192,247.743176 239.27372,255.489758 247.946302,263.17441 C248.227834,270.88934 238.500535,274.433033 232.159869,273.343089 C227.766585,270.344368 223.163182,267.534185 218.896244,264.368945 C216.134477,262.314291 213.698189,259.652737 211.228941,257.282935 C206.676351,252.954813 202.21028,248.593662 197.734596,244.210493 C196.656532,243.152201 191.635636,239.452999 191.33213,239.923656 C191.008024,240.38468 191.844382,242.388415 193.308353,243.843049 C199.094194,249.629934 204.148049,254.474128 210.07809,260.113761 C216.06169,265.815322 222.35841,270.093901 229.220942,274.789466 C228.561743,278.374445 222.935209,282.127319 219.462056,282.504395 C216.167437,282.829177 212.92363,281.980066 209.711411,281.309861 C203.580864,277.012015 197.650823,272.628846 192.294835,267.408952 C189.836573,265.040526 185.305957,261.078471 182.25167,258.688026 C180.567967,257.366883 179.364929,256.517773 179.206996,256.676035 C178.778517,257.11504 180.243861,259.672003 180.923659,260.300923 C189.166388,268.353019 197.304744,276.025286 206.802697,282.734219 C200.850683,287.136656 190.818505,285.62835 185.421316,280.701585 L181.749031,277.305144 C181.143392,278.18453 109.998012,222.98274 110.155945,222.626306 C105.636315,219.294547 95.615123,213.675557 92.4550898,211.36906 C100.813178,193.873538 114.768962,155.637436 119.015299,143.817327 C126.61119,146.045381 140.523026,148.262426 148.379849,148.629869 C159.008053,149.137684 169.64587,149.682655 180.285061,150.227627 C186.86606,147.577082 193.769792,142.553984 200.955056,142.119107 C208.122467,141.689736 214.58536,146.56971 220.987826,149.137684 C226.732467,151.412528 232.516935,153.573149 238.322002,155.611288 C242.318394,157.00537 246.523531,158.865981 250.738282,159.485267 C253.272077,159.427467 255.842951,156.779675 257.967493,159.489396 C264.862985,168.215825 257.339881,158.660928 257.967493,159.489396" id="Fill-8" fill="#D0A072"></path>
                    <path d="M188.361888,147.274673 C179.13252,151.51746 170.195776,154.31554 170.195776,154.31554 C160.987015,154.89536 158.641892,170.864622 156.350349,177.980215 C154.686645,183.176453 152.897922,188.657756 152.572325,194.154282 C152.238485,199.577466 155.837912,201.307239 161.112033,201.307239 C168.530698,201.307239 173.355578,195.024704 177.143218,189.427159 C179.508948,185.933018 182.198901,182.249294 183.725223,178.265282 L195.529143,177.86951 L195.540134,177.88058 C201.924307,181.812008 205.398715,181.258481 210.347239,186.987488 C215.978556,193.506655 224.600693,204.902398 229.655002,211.858852 C232.406777,215.599313 235.945755,218.826377 239.168753,222.135086 C241.638893,224.664706 243.887848,227.385292 246.388213,229.883084 C250.972673,234.489815 257.78548,241.741022 262.640584,246.062687 C263.017013,246.043313 263.363217,245.936759 263.750637,245.810832 C264.50212,245.810832 278.516527,236.302617 280.273652,234.953394 C280.273652,234.953394 311.907389,213.881994 314.347305,209.845397 C307.333919,188.030887 288.947995,165.853816 274.800326,147.918149 C273.41963,148.460606 254.655903,156.719233 253.139198,156.719233 C249.476576,156.719233 243.499055,157.430515 240.100207,156.261189 C234.343873,154.268491 228.608146,152.160935 222.946605,149.931604 C217.182028,147.685667 211.542469,143.900925 205.555331,142.447916 C199.265952,140.907726 193.824224,144.718761 188.361888,147.274673 C179.13252,151.51746 189.230147,146.863679 188.361888,147.274673" id="Fill-10" fill="#FBD099"></path>
                    <path d="M178.521443,268.896163 C174.740164,265.58934 170.293633,264.736011 170.241077,264.757856 C170.14288,264.845237 170.032235,264.942175 169.931272,265.033652 C171.571578,262.976104 171.22858,255.952861 168.860785,253.555347 C166.185952,249.989113 158.789359,248.950099 155.250114,251.527836 L154.005362,252.658327 C153.916847,252.775745 154.005362,252.658327 154.005362,252.658327 C155.317884,250.89569 156.276343,247.136944 152.795187,242.688708 C149.751077,238.830294 143.935319,237.114078 139.573155,239.463806 C139.549643,239.566205 139.528897,239.652221 139.506768,239.747794 C139.501236,239.781927 139.505385,239.81606 139.499853,239.850193 C139.483256,239.964881 139.472192,240.074107 139.459744,240.184698 C139.443148,240.168315 139.427934,240.154661 139.41272,240.139643 C139.443148,240.018129 139.474958,239.880231 139.506768,239.747794 C140.437566,232.220745 131.926229,224.751041 125.067646,227.838045 L121.296047,230.582353 L109.244083,224.113433 C108.82225,229.230679 107.76836,238.819371 110.0753,243.561152 C110.444577,244.975631 112.711408,248.805374 113.025362,249.178108 C116.870263,253.721917 122.457816,254.461924 122.445368,254.461924 C122.431538,254.467386 123.455001,265.099188 135.159818,267.741096 C136.011781,267.933607 137.854014,267.201792 137.928699,267.158101 C137.935615,267.163562 137.274513,268.9262 138.423834,271.24316 C140.704496,275.842947 146.446952,282.288656 152.992964,279.141577 C150.681875,285.050713 161.995287,292.901344 167.59667,288.842227 L179.670764,280.252954 C182.967974,277.903226 181.124358,271.184451 178.521443,268.896163" id="Fill-12" fill="#FBD099"></path>
                    <path d="M123.658683,139.186822 C123.658683,139.186822 119.87771,155.763551 91.3528476,216.026866 L70.497006,210.649099 L104.370019,131.695522 L123.658683,139.186822 Z" id="Fill-14" fill="#F9F5ED"></path>
                    <path d="M114.413174,135.056523 C114.413174,135.056523 99.9334946,176.192593 81.9064738,213.716418 L63.5628743,208.374287 L97.6275842,128.229851 L114.413174,135.056523 Z" id="Fill-16" fill="#BFBFBF"></path>
                    <path d="M115.568862,129.2767 C115.568862,129.2767 99.8363906,171.558586 78.8694195,218.337313 L42.760479,205.75332 L82.7587326,112.056716 L115.568862,129.2767 Z" id="Fill-18" fill="#FF5254"></path>
                    <path d="M269.275449,146.123568 C269.275449,146.123568 273.08691,162.695881 301.600584,222.958209 L322.437126,217.579149 L288.578788,138.626866 L269.275449,146.123568 Z" id="Fill-20" fill="#F9F5ED"></path>
                    <path d="M278.520958,140.836468 C278.520958,140.836468 292.997095,181.969151 311.029381,219.492537 L329.371257,214.150666 L295.312116,134.00597 L278.520958,140.836468 Z" id="Fill-22" fill="#BFBFBF"></path>
                    <path d="M277.365269,136.207635 C277.365269,136.207635 293.127383,178.489269 314.068122,225.268657 L350.173653,212.676326 L310.180704,118.98806 L277.365269,136.207635 Z" id="Fill-24" fill="#FF5254"></path>
                </g>
            </g>
        </g>
    </g>
</svg>