<svg height="340" viewBox="0 0 491 340" width="491" xmlns="http://www.w3.org/2000/svg" xmlns:xlink="http://www.w3.org/1999/xlink"><filter id="a" height="118.4%" width="112.5%" x="-6.3%" y="-9.2%"><feOffset dx="0" dy="5" in="SourceAlpha" result="shadowOffsetOuter1"/><feGaussianBlur in="shadowOffsetOuter1" result="shadowBlurOuter1" stdDeviation="5"/><feColorMatrix in="shadowBlurOuter1" result="shadowMatrixOuter1" type="matrix" values="0 0 0 0 0   0 0 0 0 0   0 0 0 0 0  0 0 0 0.25 0"/><feMerge><feMergeNode in="shadowMatrixOuter1"/><feMergeNode in="SourceGraphic"/></feMerge></filter><linearGradient id="b" x1="50%" x2="50%" y1="0%" y2="100%"><stop offset="0" stop-color="#ff5254"/><stop offset=".67232659" stop-color="#ff5254" stop-opacity=".133693"/><stop offset="1" stop-color="#ff5254" stop-opacity="0"/></linearGradient><g fill="none" fill-rule="evenodd" transform="translate(10 5)"><g filter="url(#a)"><rect fill="#fff" height="320" rx="13" width="470"/><path d="m13 0h445c7.179702 0 13 5.82029825 13 13v29h-471v-29c0-7.17970175 5.82029825-13 13-13z" fill="#ff5254"/><path d="m0 64h470v-22h-470z" fill="#e9eced"/><g fill="#fff"><path d="m64 23.0009198c0 3.3131995-2.6858807 5.9990802-5.9990802 5.9990802-3.3131994 0-6.0009198-2.6858807-6.0009198-5.9990802 0-3.3131994 2.6877204-6.0009198 6.0009198-6.0009198 3.3131995 0 5.9990802 2.6877204 5.9990802 6.0009198"/><path d="m47 23.0009198c0 3.3131995-2.6877204 5.9990802-6.0009198 5.9990802-3.3131995 0-5.9990802-2.6858807-5.9990802-5.9990802 0-3.3131994 2.6858807-6.0009198 5.9990802-6.0009198 3.3131994 0 6.0009198 2.6877204 6.0009198 6.0009198"/><path d="m31 23.0009198c0 3.3131995-2.6858807 5.9990802-6.0009198 5.9990802-3.3131995 0-5.9990802-2.6858807-5.9990802-5.9990802 0-3.3131994 2.6858807-6.0009198 5.9990802-6.0009198 3.3150391 0 6.0009198 2.6877204 6.0009198 6.0009198"/><path d="m77.5 19h335c1.380712 0 2.5 1.1192881 2.5 2.5v1c0 1.3807119-1.119288 2.5-2.5 2.5h-335c-1.3807119 0-2.5-1.1192881-2.5-2.5v-1c0-1.3807119 1.1192881-2.5 2.5-2.5z"/><path d="m439.498121 15 1.298428 3.8196191h4.203451l-3.401093 2.3607618 1.300307 3.8196191-3.401093-2.3607618-3.399214 2.3607618 1.298428-3.8196191-3.397335-2.3607618h4.201572z"/></g><g transform="translate(31 170)"><path d="m0 44h223.778498v-7.7h-223.778498z" fill="#dadfe1"/><path d="m0 25.3h317.621094v-7.7h-317.621094z" fill="#dadfe1"/><path d="m0 7.7h187v-7.7h-187z" fill="#427fe0"/></g><g transform="translate(31 237)"><path d="m0 44h223.778498v-7.7h-223.778498z" fill="#dadfe1"/><path d="m0 25.3h317.621094v-7.7h-317.621094z" fill="#dadfe1"/><path d="m0 7.7h187v-7.7h-187z" fill="#427fe0"/></g><path d="m23 85h417v62h-417z" fill="#eff1f4"/><g transform="translate(31 94)"><path d="m0 44h223.778498v-7.7h-223.778498z" fill="#dadfe1"/><path d="m0 25.3h317.621094v-7.7h-317.621094z" fill="#dadfe1"/><path d="m0 7.7h187v-7.7h-187z" fill="#427fe0"/></g></g><path d="m394 163h19v111h-19z" fill="url(#b)"/><path d="m404 130 25 37h-50z" fill="#ff5254"/></g></svg>