<svg height="471" viewBox="0 0 402 471" width="402" xmlns="http://www.w3.org/2000/svg" xmlns:xlink="http://www.w3.org/1999/xlink"><filter id="a" height="119.2%" width="113.7%" x="-6.9%" y="-9.6%"><feOffset dx="0" dy="2" in="SourceAlpha" result="shadowOffsetOuter1"/><feGaussianBlur in="shadowOffsetOuter1" result="shadowBlurOuter1" stdDeviation="5"/><feColorMatrix in="shadowBlurOuter1" result="shadowMatrixOuter1" type="matrix" values="0 0 0 0 0   0 0 0 0 0   0 0 0 0 0  0 0 0 0.3 0"/><feMerge><feMergeNode in="shadowMatrixOuter1"/><feMergeNode in="SourceGraphic"/></feMerge></filter><linearGradient id="b" x1="8.417612%" x2="83.161423%" y1="39.664766%" y2="62.916217%"><stop offset="0" stop-color="#77b6f2"/><stop offset="1" stop-color="#427fe0"/></linearGradient><linearGradient id="c"><stop offset="0" stop-color="#fde765"/><stop offset="1" stop-color="#f9ca35"/></linearGradient><linearGradient id="d" x1="30.050369%" x2="81.532764%" xlink:href="#c" y1="24.617513%" y2="50%"/><linearGradient id="e" x1="0%" x2="100%" xlink:href="#c" y1="37.431582%" y2="60.059817%"/><filter id="f" height="119.2%" width="113.7%" x="-6.9%" y="-9.6%"><feOffset dx="0" dy="2" in="SourceAlpha" result="shadowOffsetOuter1"/><feGaussianBlur in="shadowOffsetOuter1" result="shadowBlurOuter1" stdDeviation="5"/><feColorMatrix in="shadowBlurOuter1" result="shadowMatrixOuter1" type="matrix" values="0 0 0 0 0   0 0 0 0 0   0 0 0 0 0  0 0 0 0.3 0"/><feMerge><feMergeNode in="shadowMatrixOuter1"/><feMergeNode in="SourceGraphic"/></feMerge></filter><linearGradient id="g" x1="100%" x2="38.86611%" y1="62.77822%" y2="45.104985%"><stop offset="0" stop-color="#da3e3f"/><stop offset="1" stop-color="#ff5254"/></linearGradient><linearGradient id="h" x1="30.05564%" x2="81.524432%" xlink:href="#c" y1="24.617513%" y2="50%"/><linearGradient id="i" x1="0%" x2="100%" xlink:href="#c" y1="37.42826%" y2="60.062476%"/><g fill="none" fill-rule="evenodd" transform="translate(10 8)"><g filter="url(#a)"><path d="m13.1740273 51.3842389 273.4056817-50.95419113c8.754159-1.6303758 17.176364 4.14215924 18.808727 12.89534393l29.021659 155.6422803c1.633887 8.753185-4.140295 17.171465-12.895977 18.803363l-273.4072044 50.952669c-8.7556818 1.631898-17.1763636-4.140637-18.8087272-12.893822l-29.02165913-155.6422801c-1.63236363-8.7531847 4.14181818-17.171465 12.89750003-18.803363" fill="url(#b)"/><path d="m55.6051571 89.5333333c-2.1633793-11.6181543 5.4908411-22.7929485 17.0984065-24.9583013s22.7721748 5.4973632 24.935554 17.1140044c2.1648911 11.6196675-5.490841 22.7929486-17.0984064 24.9598146-11.6090773 2.165353-22.7721748-5.497363-24.9355541-17.1155177" fill="#ff5254"/><path d="m29.7677977 93.9922567c-2.1648938-11.6181408 5.4908481-22.7914087 17.0984283-24.9582721 11.6075802-2.1653503 22.7722038 5.4973567 24.9355858 17.1154975 2.1633821 11.6181407-5.4923598 22.7914089-17.09994 24.9582719-11.6075803 2.16535-22.770692-5.495843-24.9340741-17.1154973" fill="url(#d)"/><g fill="#1f4b80"><path d="m233.430851 90.9780933 56.743736-10.7168993 2.950413 16.0383728-56.743736 10.7153582z" opacity=".376415"/><path d="m135.425532 72.1253972 148.598574-27.535845 2.864192 15.2701252-148.598575 27.535845z" opacity=".376415"/><path d="m166.609043 103.463168 56.743811-10.7168993 2.950337 16.0383723-56.743811 10.715359z" opacity=".376415"/><path d="m99.787234 115.948243 56.743811-10.7169 2.950338 16.036832-56.743811 10.7169z" opacity=".376415"/><path d="m32.9654255 128.433317 56.7452571-10.716899 2.9488919 16.036832-56.7437363 10.716899z" opacity=".376415"/></g><path d="m242.118186 129.06427 50.980393-9.457664c3.406093-.631016 6.679895 1.60402 7.313976 4.99062l5.078728 27.107935c.634081 3.389626-1.611812 6.647603-5.016384 7.278618l-50.980392 9.457664c-3.404573.632528-6.679896-1.602507-7.313977-4.99062l-5.078728-27.107935c-.63408-3.388114 1.611812-6.647603 5.016384-7.278618" fill="url(#e)"/><path d="m284.215426 161.414179-7.12766-39.238806" stroke="#d5b566" stroke-width=".882"/><path d="m263.723404 165.873134-7.127659-39.238806" stroke="#d5b566" stroke-width=".882"/><path d="m237.885638 140.011194 63.257979-12.485075" stroke="#d5b566" stroke-width=".882"/><path d="m241.449468 160.522388 63.257979-12.485075" stroke="#d5b566" stroke-width=".882"/><path d="m213.283239 139.675747c-5.401558 9.335857-3.189957 21.305221 5.183299 28.049154.670043.543642.923408 1.467679.505203 2.102185-.418204.634506-1.448454.688408-2.222285.063142-9.435557-7.600207-11.926471-21.089612-5.841132-31.609777.499099-.865515 1.480506-1.188929 2.095603-.748471.61815.440458.711254 1.393757.279312 2.143767" fill="#fff" opacity=".232394"/><path d="m219.29169 142.256271c-3.66509 6.757771-2.115401 15.273548 3.681641 20.225549.618371.531562.859099 1.415958.464907 2.026098-.391184.6086-1.387198.64866-2.128943.013867-6.750928-5.767062-8.554887-15.683389-4.287975-23.553588.469421-.865907 1.411271-1.19717 1.992028-.773462.582262.42525.668021 1.33738.278342 2.061536" fill="#fff" opacity=".232394"/><path d="m225.699357 143.851325c-2.654089 5.0969-1.511786 11.463437 2.730634 15.224925.51227.455845.715411 1.206919.385674 1.72854-.048577.071895-.095682.14379-.141316.215685-.328264.518563-1.18352.539978-1.820913-.026004-5.112395-4.530918-6.488752-12.200743-3.290009-18.340887.39745-.7679 1.202656-1.067718 1.688429-.706713.069186.04895.138372.099429.207558.148379.487245.361005.559375 1.138084.239943 1.756075" fill="#fff" opacity=".232394"/></g><g filter="url(#f)" transform="matrix(.80901699 .58778525 -.58778525 .80901699 141.084025 108.70676)"><path d="m13.1806995 51.4170564 273.5441525-50.98673397c8.758593-1.63141707 17.185063 4.14480471 18.818254 12.90357977l29.036357 155.7416848c1.634714 8.758775-4.142392 17.182431-12.902509 18.815372l-273.5456758 50.98521c-8.7601163 1.632941-17.1850629-4.143281-18.8182533-12.902056l-29.03635757-155.7416844c-1.63319038-8.7587751 4.14391587-17.1824318 12.90403217-18.8153722" fill="url(#g)"/><path d="m55.6333193 89.5905156c-2.164475-11.6255745 5.493622-22.8075057 17.1070662-24.9742415 11.6134443-2.1667357 22.7837082 5.5008742 24.9481831 17.1249346 2.1659875 11.6270886-5.493622 22.8075053-17.1070662 24.9757553-11.6149569 2.166736-22.7837082-5.500874-24.9481831-17.1264484" fill="#f7f7f7"/><path d="m29.7828741 94.0522867c-2.1659903-11.6255609 5.493629-22.8059649 17.1070881-24.9742122 11.6134591-2.1667332 22.7837372 5.5008678 24.9482149 17.1264286 2.1644777 11.6255609-5.4951416 22.8059649-17.1086006 24.9742119-11.6134591 2.166734-22.7822247-5.499353-24.9467024-17.1264283" fill="url(#h)"/><g fill="#1f4b80"><path d="m233.549076 91.0361982 56.772475-10.7237438 2.951907 16.0486161-56.772475 10.7222025z" opacity=".376415"/><path d="m135.49412 72.1714615 148.673835-27.5534313 2.865642 15.2798778-148.673834 27.5534313z" opacity=".376415"/><path d="m166.693425 103.529247 56.77255-10.7237441 2.951832 16.0486161-56.772551 10.722202z" opacity=".376415"/><path d="m99.837773 116.022295 56.77255-10.723744 2.951832 16.047075-56.77255 10.723744z" opacity=".376415"/><path d="m32.9821214 128.515344 56.7739967-10.723744 2.9503854 16.047074-56.7724751 10.723744z" opacity=".376415"/></g><path d="m242.240811 129.146699 51.006212-9.463704c3.407818-.631418 6.683279 1.605044 7.317681 4.993807l5.0813 27.125248c.634402 3.391792-1.612628 6.651849-5.018925 7.283267l-51.006212 9.463704c-3.406296.632933-6.683279-1.60353-7.31768-4.993807l-5.081301-27.125248c-.634401-3.390277 1.612629-6.651848 5.018925-7.283267" fill="url(#i)"/><path d="m284.359371 161.517269-7.131269-39.263866" stroke="#d5b566" stroke-width=".882"/><path d="m263.856971 165.979073-7.131269-39.263867" stroke="#d5b566" stroke-width=".882"/><path d="m238.00612 140.100615 63.290016-12.493048" stroke="#d5b566" stroke-width=".882"/><path d="m241.571754 160.624909 63.290017-12.493049" stroke="#d5b566" stroke-width=".882"/><path d="m213.39126 139.764954c-5.404294 9.34182-3.191572 21.318828 5.185924 28.067068.670383.543989.923876 1.468616.505459 2.103527-.418416.634911-1.449187.688848-2.223411.063183-9.440335-7.605061-11.932511-21.103082-5.84409-31.629966.499351-.866068 1.481256-1.189687 2.096665-.748948.618462.440739.711614 1.394646.279453 2.145136" fill="#fff" opacity=".232394"/><path d="m219.402754 142.347126c-3.666947 6.762087-2.116472 15.283303 3.683505 20.238466.618685.531902.859535 1.416862.465143 2.027393-.391382.608988-1.387901.649074-2.130021.013875-6.754347-5.770745-8.55922-15.693406-4.290147-23.568631.469658-.86646 1.411985-1.197935 1.993037-.773955.582557.425521.66836 1.338233.278483 2.062852" fill="#fff" opacity=".232394"/><path d="m225.813666 143.943199c-2.655433 5.100155-1.512551 11.470758 2.732017 15.234648.512529.456136.715774 1.20769.38587 1.729644-.048602.071941-.095731.143882-.141388.215823-.328431.518894-1.184119.540323-1.821835-.026021-5.114985-4.533812-6.492039-12.208535-3.291676-18.3526.397652-.768391 1.203266-1.0684 1.689285-.707165.069221.048981.138442.099493.207663.148474.487492.361236.559658 1.138811.240064 1.757197" fill="#fff" opacity=".232394"/></g></g></svg>