<svg height="442" viewBox="0 0 348 442" width="348" xmlns="http://www.w3.org/2000/svg"><g fill="none"><path d="m215.301404 17.8920399 130.485203 318.7477271c6.127131 14.767357-.907723 31.579426-15.658224 37.486368l-159.986206 65.657943c-14.750502 6.134133-31.54338-.908761-37.443581-15.676118l-130.48520315-318.747727c-6.1271313-14.7673573.90772315-31.5794256 15.65822445-37.4863685l159.9862057-65.65794232c14.523571-6.13413302 31.316449.90876045 37.443581 15.67611772z" fill="#6f6f6f"/><path d="m76.1955641 55.2232193 183.3255709-.2241237-.367252 301.1445224-183.3255713.224124z" fill="#eff1ec" transform="matrix(.92519293 -.37949709 .37949709 .92519293 -65.513005 79.018644)"/><path d="m49.7929164 76.0739365 149.0654706-.1822392-.057696 47.3097137-149.0654699.182239z" fill="#427fe0" transform="matrix(.92519293 -.37949709 .37949709 .92519293 -28.513928 54.623879)"/><path d="m83.1164308 136.568913 149.0654702-.182239-.107901 88.478262-149.0654704.182239z" fill="#ff5254" transform="matrix(.92519293 -.37949709 .37949709 .92519293 -56.792311 73.32583)"/><g fill="#aaa"><path d="m117.889583 238.161845 148.606021-.181644-.07654 62.773983-148.606021.181643z" transform="matrix(.92522804 -.37941149 .37941149 .92522804 -87.867711 93.053464)"/><path d="m135.553868 304.801165 149.05978-.182198-.012202 10.007447-149.05978.182198z" transform="matrix(.92522804 -.37941149 .37941149 .92522804 -101.801053 102.863786)"/><path d="m143.180833 323.194027 149.06547-.182239-.012205 10.007824-149.06547.182239z" transform="matrix(.92519293 -.37949709 .37949709 .92519293 -108.229527 107.164061)"/></g><g fill="#fff"><path d="m273 158.674333-57.831603-140.8418519c-6.123346-14.71819987-22.90585-21.73764906-37.420448-15.62393525l-159.8873722 65.43938115c-14.74138892 6.1137138-21.77189747 22.8698183-15.64855131 37.361584l46.49207271 112.990489z" opacity=".3"/><path d="m250.841322 366.627751c3.212456 8.039036-.458922 16.996818-8.490063 20.212432-8.03114 3.215614-16.980125-.459373-20.192581-8.498409-3.212456-8.039035.458922-16.996817 8.490063-20.212431 7.801679-3.215614 16.980125.68906 20.192581 8.498408z"/><path d="m123.448705 38.4007968-41.1462024 16.999004c-2.6834479 1.1332669-4.0251719 4.3064143-2.9070686 7.2529084 1.1181033 2.7198406 4.2487926 4.0797609 7.1558612 2.946494l41.1462018-16.999004c2.683448-1.1332669 4.025172-4.3064143 2.907069-7.2529084-1.118103-2.7198406-4.248793-4.0797609-7.155861-2.946494z"/></g></g></svg>