<svg height="278" viewBox="0 0 270 278" width="270" xmlns="http://www.w3.org/2000/svg" xmlns:xlink="http://www.w3.org/1999/xlink"><filter id="a" height="416.9%" width="117.2%" x="-8.6%" y="-158.5%"><feGaussianBlur in="SourceGraphic" stdDeviation="2.64107143"/></filter><filter id="b" height="240.9%" width="117.4%" x="-8.7%" y="-70.4%"><feGaussianBlur in="SourceGraphic" stdDeviation="2.11285714"/></filter><filter id="c" height="430.1%" width="117.4%" x="-8.7%" y="-165.1%"><feGaussianBlur in="SourceGraphic" stdDeviation="3.30133929"/></filter><linearGradient id="d"><stop offset="0" stop-color="#facf00"/><stop offset="1" stop-color="#f2a100"/></linearGradient><linearGradient id="e" x1="82.260298%" x2="34.890715%" xlink:href="#d" y1="3.361304%" y2="105.628734%"/><linearGradient id="f" x1="50%" x2="50%" y1="0%" y2="100%"><stop offset="0" stop-color="#fff400"/><stop offset="1" stop-color="#ffe600"/></linearGradient><linearGradient id="g"><stop offset="0" stop-color="#fce141"/><stop offset="1" stop-color="#efbe23"/></linearGradient><linearGradient id="h" x1="50%" x2="62.900717%" xlink:href="#g" y1="0%" y2="91.790386%"/><linearGradient id="i" x1="0%" x2="91.346927%" xlink:href="#d" y1="41.47086%" y2="61.371403%"/><linearGradient id="j"><stop offset="0" stop-color="#fde765"/><stop offset="1" stop-color="#f9ca35"/></linearGradient><linearGradient id="k" x1="50%" x2="64.605575%" xlink:href="#j" y1="42.038152%" y2="56.654574%"/><linearGradient id="l" x1="16.81455%" x2="64.605575%" xlink:href="#g" y1="42.052868%" y2="56.642274%"/><linearGradient id="m" x1="0%" x2="91.346927%" xlink:href="#d" y1="42.953033%" y2="59.395309%"/><linearGradient id="n" x1="50%" x2="64.605575%" xlink:href="#j" y1="43.935796%" y2="55.068509%"/><linearGradient id="o" x1="12.733994%" x2="113.113027%" xlink:href="#g" y1="50%" y2="51.910184%"/><linearGradient id="p" x1="19.259366%" x2="67.903471%" xlink:href="#j" y1="6.34996%" y2="98.888668%"/><linearGradient id="q" x1="50%" x2="64.605575%" xlink:href="#g" y1="1.402297%" y2="90.618335%"/><linearGradient id="r" x1="0%" x2="91.346927%" xlink:href="#d" y1="37.105362%" y2="67.191665%"/><linearGradient id="s" x1="0%" x2="91.218656%" y1="36.038363%" y2="63.961637%"><stop offset="0" stop-color="#db8f00"/><stop offset="1" stop-color="#c98300"/></linearGradient><mask id="t" fill="#fff"><path d="m11.0854644 13.2393543c-9.81467553 10.785937-13.73549532 23.2097323-8.755768 27.7492284 4.97804385 4.539496 16.7287189-.7481575 26.5433944-11.5357796 9.8146756-10.785937 13.9745492-22.99067712 8.9981889-27.52848814-1.2390397-1.13066142-2.9124166-1.6648189-4.8787187-1.6648189-5.9342592 0-14.5351473 4.8748189-21.9070966 12.97985824z" fill="#fff" fill-rule="evenodd"/></mask><mask id="u" fill="#fff"><path d="m11.0854644 13.2393543c-9.81467553 10.785937-13.73549532 23.2097323-8.755768 27.7492284 4.97804385 4.539496 16.7287189-.7481575 26.5433944-11.5357796 9.8146756-10.785937 13.9745492-22.99067712 8.9981889-27.52848814-1.2390397-1.13066142-2.9124166-1.6648189-4.8787187-1.6648189-5.9342592 0-14.5351473 4.8748189-21.9070966 12.97985824z" fill="#fff" fill-rule="evenodd"/></mask><mask id="v" fill="#fff"><path d="m.17460795 2.24615748c-.9326467 2.90669291 8.16823427 8.27522832 20.26907265 12.16429922 12.1008384 3.8890709 22.6225747 4.8259527 23.5552214 1.9209449.9326467-2.9066929-8.1210969-8.41677168-20.2253023-12.30584254-7.1867667-2.31187402-13.83313705-3.53015748-18.24048192-3.53015748-3.01342526 0-4.97972733.5695433-5.35850983 1.7507559z" fill="#fff" fill-rule="evenodd"/></mask><mask id="w" fill="#fff"><path d="m.17460795 2.24615748c-.9326467 2.90669291 8.16823427 8.27522832 20.26907265 12.16429922 12.1008384 3.8890709 22.6225747 4.8259527 23.5552214 1.9209449.9326467-2.9066929-8.1210969-8.41677168-20.2253023-12.30584254-7.1867667-2.31187402-13.83313705-3.53015748-18.24048192-3.53015748-3.01342526 0-4.97972733.5695433-5.35850983 1.7507559z" fill="#fff" fill-rule="evenodd"/></mask><mask id="x" fill="#fff"><path d="m0 .45203161h60.0429117v20.91060229h-60.0429117z" fill="#fff" fill-rule="evenodd"/></mask><mask id="y" fill="#fff"><path d="m21.2839729 3.04149606c-12.31632354 3.13922835-21.6916114 8.08313384-20.93909682 11.04206304.75251457 2.9589291 11.31128732 2.6674173 23.62761092-.4718111 12.3163235-3.1392283 21.7286479-7.93990548 20.9778168-10.89714957-.3619477-1.42217323-2.9965905-2.12820473-7.0032676-2.1265227-4.3315884 0-10.2658476.82230222-16.6630633 2.45342033z" fill="#fff" fill-rule="evenodd"/></mask><mask id="z" fill="#fff"><path d="m21.2839729 3.04149606c-12.31632354 3.13922835-21.6916114 8.08313384-20.93909682 11.04206304.75251457 2.9589291 11.31128732 2.6674173 23.62761092-.4718111 12.3163235-3.1392283 21.7286479-7.93990548 20.9778168-10.89714957-.3619477-1.42217323-2.9965905-2.12820473-7.0032676-2.1265227-4.3315884 0-10.2658476.82230222-16.6630633 2.45342033z" fill="#fff" fill-rule="evenodd"/></mask><mask id="A" fill="#fff"><path d="m.24723437 31.2626157c0 17.1823464 13.91899443 30.2801575 31.08541753 30.2801575 17.1681066 0 31.0854175-13.0978111 31.0854175-30.2801575 0-17.1840315-13.9173109-31.11593703-31.0854175-31.11593703-17.1664231 0-31.08541753 13.93190553-31.08541753 31.11593703z" fill="#fff" fill-rule="evenodd"/></mask><mask id="B" fill="#fff"><path d="m.04208694 31.6939055c0 17.1823465 13.91899446 30.2801575 31.08541756 30.2801575 17.1681066 0 31.0854175-13.097811 31.0854175-30.2801575 0-17.1840315-13.9173109-31.115937-31.0854175-31.115937-17.1664231 0-31.08541756 13.9319055-31.08541756 31.115937z" fill="#fff" fill-rule="evenodd"/></mask><g fill="none" fill-rule="evenodd" transform="translate(4)"><g fill="#000"><ellipse cx="215" cy="265.5" filter="url(#a)" opacity=".1" rx="46" ry="2.5"/><ellipse cx="36.5" cy="268.5" fill-opacity=".6" filter="url(#b)" opacity=".1" rx="36.5" ry="4.5"/><ellipse cx="122" cy="254" filter="url(#c)" opacity=".1" rx="57" ry="3"/></g><g transform="translate(190.869583 133.323725)"><path d="m49.0519291 4.10340787c-7.9864187-.22411023-19.7842311 6.35765353-29.8463779 17.41656693-10.06046328 11.0589134-15.50651396 23.4304724-14.53851423 31.3686929l-1.68347779 1.8501732 8.89381322 8.1084095c6.6278521 6.0408661 22.3077643-.7532126 35.6964632-15.4703465 13.3886989-14.7154488 18.6849201-30.9760787 12.0553845-37.0169448l-8.8938132-8.10840949z" fill="url(#e)"/><path d="m46.4560063 10.2955906c5.0251813 4.579937.8249042 16.8975748-9.0806792 27.7862992-9.9055834 10.8870393-21.7656844 16.223559-26.7925491 11.641937-5.02349779-4.579937-1.06732497-17.12 8.8365749-28.0087244 9.9072669-10.8870394 22.0114722-16.0011339 27.0366534-11.4195118" fill="#ffc30d"/><path d="m38.6796857 39.2695055c-13.3886989 14.7154488-29.06861113 21.5112126-35.69646322 15.4703465-6.67835642-6.0880473-1.402337-22.8137481 11.76245942-37.2848662 13.1664798-14.47111808 29.3093484-21.29047241 35.9893883-15.20242517 6.6278521 6.04086614 1.3316309 22.30149607-12.0553845 37.01694487" fill="url(#f)"/><path d="m16.4328633 18.9922472c-11.3432734 12.4676063-15.89034693 26.8797481-10.13621982 32.1252756 5.67837062 5.1730709 19.15966082-.7060315 30.69653412-13.3842677 11.5351899-12.6799212 16.1260339-26.665748 10.4493467-31.84050392-5.7558106-5.24552756-19.6663876.63020473-31.009661 13.09949602" fill="#f0a700"/><path d="m16.9409369 19.454622c-11.06381608 12.1609292-15.49978008 26.2175276-9.8870651 31.3316221 5.5369585 5.0466929 18.688287-.685811 29.9389691-13.054 11.2523656-12.3665039 15.7287331-26.0068976 10.1917746-31.05359056-5.6127149-5.11577952-19.181546.61503937-30.2436786 12.77596846" fill="url(#h)"/><g fill="#fd0"><path d="m9.1728653 47.0547244-4.49825268 1.9007244 17.42736218-55.23559053 4.4982527-1.89903937z" mask="url(#t)" opacity=".326004" transform="translate(6.733911 7.016504)"/><path d="m21.2218526 45.9579323-10.5570893 4.4602992 18.8111809-59.63185827 10.5604563 6.01053543z" mask="url(#u)" opacity=".326004" transform="translate(6.733911 7.016504)"/></g></g><g transform="translate(158.246913 8.425197)"><path d="m60.8201808 87.6665724c-3.488166-4.0036535-13.5233771-9.2744567-25.9306085-13.2629449-12.4055479-3.9868031-23.6326613-5.5505197-28.79757119-4.325496l-2.07572813-.6672756-3.50836773 10.9342204c-1.24072314 3.8688504 10.71701965 11.0555433 27.22688645 16.3617323 16.5081833 5.3061894 30.4120264 6.4317954 31.6527495 2.5612599l3.5083677-10.9342205z" fill="url(#i)"/><path d="m55.2601587 86.9490826c-.9410641 2.9336536-11.5587586 1.9883465-23.7740735-1.9377952-12.2136314-3.9261418-21.3986862-9.3435433-20.4559387-12.2788819.9393806-2.9336536 11.6042125-2.1282048 23.8195274 1.7962519 12.2136314 3.9261418 21.3532324 9.4867717 20.4104848 12.4204252" fill="#ffc30d"/><path d="m31.242486 85.7725882c-16.5098668-5.306189-28.46760955-12.4928819-27.22688641-16.3617323 1.24914053-3.8991811 15.47621141-2.8274961 31.70830431 2.3893858 16.2337764 5.2185669 28.4238391 12.6344252 27.1730151 16.5336063-1.2424066 3.8688504-15.1462497 2.7432441-31.654433-2.5612598" fill="url(#k)"/><path d="m35.4085885 72.7851472c-13.988017-4.495685-26.24373537-5.4190866-27.32116116-2.0608031-1.06395797 3.3144724 9.24566006 9.4918267 23.47104746 14.0633385 14.2237039 4.5715119 26.1982815 5.5572599 27.2622394 2.2427874 1.0791093-3.3599685-9.4241087-9.7513228-23.4121257-14.2453228" fill="#f0a700"/><path d="m35.3131353 73.0813771c-13.642904-4.3844724-25.59559641-5.2859685-26.64608656-2.0085669-1.03702232 3.2319055 9.01670706 9.2559213 22.89193106 13.7145354 13.8735406 4.4602992 25.551826 5.4207717 26.5888484 2.1888662 1.0504901-3.2774016-9.1917888-9.5103622-22.8346929-13.8948347" fill="url(#l)"/><path d="m-.9858133 6.22453543-3.39725819-2.06585826 46.97744789 3.54195275 3.3938913 2.06585827z" fill="#fd0" mask="url(#v)" opacity=".401842" transform="translate(11.37405 69.568576)"/><path d="m5.29103367 12.1329575-7.97126737-4.85122837 50.7147686 3.82503937 7.9712674 4.8495433z" fill="#fd0" mask="url(#w)" opacity=".401842" transform="translate(11.37405 69.568576)"/><g fill="#eff1f4"><path d="m28.3031338 42.3927661c-.4562225 0-.8232207-1.1289764-.8232207-2.5208189v-37.24779527c0-1.39184252.3669982-2.5208189.8232207-2.5208189s.8249041 1.12897638.8249041 2.5208189v37.24779527c0 1.3918425-.3686816 2.5208189-.8249041 2.5208189"/><path d="m37.4322972 38.2532984c-.4562225 0-.8249041-.7110866-.8249041-1.5889921v-21.7993544c0-.8779055.3686816-1.5906771.8249041-1.5906771s.8249041.7127716.8249041 1.5906771v21.7993544c0 .8779055-.3686816 1.5889921-.8249041 1.5889921"/></g></g><g transform="translate(0 39.598425)"><path d="m57.8724112 71.7262685c-5.080736-1.538441-16.380239-.6672756-29.0080059 2.5511496-12.627767 3.2184252-22.96768762 7.8640787-26.69490746 11.6469921l-2.11276464.5375276 2.83160966 11.13137c1.00166929 3.9362522 14.94928284 3.6666462 31.75207474-.6167244 16.8011084-4.2833701 29.1797207-10.7219055 28.1780514-14.6598425l-2.8332932-11.129685z" fill="url(#m)"/><path d="m52.7825844 74.0743708c.7592485 2.9842048-8.7389332 7.8286929-21.1714168 10.998252-12.4308 3.1695591-23.08889795 3.4627559-23.84814643.4768661-.75924849-2.9875748 8.70189673-7.9769763 21.13438023-11.1448504 12.4308001-3.169559 23.1242511-3.3161574 23.885183-.3302677" fill="#ffc30d"/><path d="m31.8081345 17.9647102c-16.8027918 4.2816851-30.7504054 4.5512914-31.75207469.6133544-1.0084032-3.9682677 11.61262989-10.62248822 28.13428099-14.83340161 16.5233345-4.21091338 30.7857584-4.40974803 31.7958451-.44148031 1.0016693 3.93962204-11.3752595 10.37815752-28.1780514 14.66152752" fill="url(#n)" mask="url(#x)" transform="translate(0 67.883536)"/><path d="m28.4452193 72.6296181c-14.2371717 3.6278897-25.11075483 9.3620787-24.24039681 12.7810236.8568902 3.3734488 12.87018781 3.124063 27.34809681-.5644882 14.4779091-3.6902362 25.1477914-9.2239055 24.2892177-12.5973543-.870358-3.4189449-13.159746-3.2487559-27.3969177.3808189" fill="#f0a700"/><path d="m28.5216492 72.9307346c-13.8853249 3.5402677-24.49123501 9.1312284-23.6427622 12.4659213.83668847 3.2908819 12.5536939 3.0482362 26.6747057-.5510079 14.1193283-3.5975591 24.526588-8.9964252 23.6882161-12.2856221-.8484728-3.3346929-12.8348347-3.169559-26.7201596.3707087" fill="url(#o)"/><path d="m1.4731429 18.0717102-3.9730076.0539213 41.6778598-21.97796851 3.9730076-.05392126z" fill="#fd0" mask="url(#y)" opacity=".398549" transform="translate(7.370503 70.411095)"/><path d="m9.92672666 19.7387197-9.32815048.129748 44.99599462-23.72703935 9.3281504-.12974804z" fill="#fd0" mask="url(#z)" opacity=".398549" transform="translate(7.370503 70.411095)"/><g fill="#eff1f4"><path d="m28.0260333 42.4470244c-.4562225 0-.8249041-1.1289764-.8249041-2.5208189v-37.2477953c0-1.39184252.3686816-2.5208189.8249041-2.5208189s.8249041 1.12897638.8249041 2.5208189v37.2477953c0 1.3918425-.3686816 2.5208189-.8249041 2.5208189"/><path d="m37.1553651 38.3067141c-.4562225 0-.8249041-.7110866-.8249041-1.5889921v-21.8010394c0-.8762204.3686816-1.587307.8249041-1.587307s.8249041.7110866.8249041 1.587307v21.8010394c0 .8779055-.3686816 1.5889921-.8249041 1.5889921"/></g></g><g transform="translate(77.439979)"><path d="m73.4462643 156.7911c0 17.34411-14.0486222 30.563244-31.3766592 30.563244-17.3263535 0-31.3732922-13.219134-31.3732922-30.563244s14.0469387-31.405764 31.3732922-31.405764c17.328037 0 31.3766592 14.061654 31.3766592 31.405764" fill="#ffc30d"/><path d="m42.0701102 191.852725c-23.4205432 0-41.76540072-17.918709-41.76540072-40.793118 0-23.051339 18.73542442-41.805827 41.76540072-41.805827 23.0299762 0 41.7670841 18.754488 41.7670841 41.805827 0 22.874409-18.346541 40.793118-41.7670841 40.793118" fill="url(#p)"/><path d="m42.0701102 115.073232c-19.8431528 0-35.98602144 16.159528-35.98602144 36.021087 0 19.591953 15.80617304 34.939291 35.98602144 34.939291 20.1798483 0 35.9877048-15.347338 35.9877048-34.939291 0-19.861559-16.1428686-36.021087-35.9877048-36.021087" fill="#f0a700"/><path d="m42.0701102 116.825673c-19.3532608 0-35.09882864 15.760173-35.09882864 35.131386 0 19.106661 15.41728964 34.076551 35.09882864 34.076551 19.6815389 0 35.100512-14.96989 35.100512-34.076551 0-19.371213-15.7455678-35.131386-35.100512-35.131386" fill="url(#q)"/><path d="m.39538041 54.5862566-5.21878117-5.2253071 61.87285946-61.9302519 5.2204647 5.22362201z" fill="#fd0" mask="url(#A)" opacity=".445145" transform="translate(10.737458 119.708527)"/><path d="m10.7005216 75.8682236-12.25403491-12.2654016 66.80039901-66.86067712 12.2540349 12.26371654z" fill="#fd0" mask="url(#B)" opacity=".445145" transform="translate(10.942606 119.277237)"/><g fill="#eff1f4"><path d="m24.5136253 84.9400102c-.6161529 0-1.1144623-1.5232756-1.1144623-3.4037795v-78.09314964c0-1.88050393.4983094-3.40377952 1.1144623-3.40377952.6144693 0 1.1144623 1.52327559 1.1144623 3.40377952v78.09314964c0 1.8805039-.499993 3.4037795-1.1144623 3.4037795"/><path d="m35.3262665 80.2254385c-.6144624 0-1.1144624-.9604724-1.1144624-2.1450551v-24.6201102c0-1.1845827.5-2.1450551 1.1144624-2.1450551.6161528 0 1.1144623.9604724 1.1144623 2.1450551v24.6201102c0 1.1845827-.4983095 2.1450551-1.1144623 2.1450551"/><path d="m46.1399177 84.9400102c-.6161528 0-1.1144623-.9604724-1.1144623-2.1450551v-41.9069292c0-1.1845826.4983095-2.1450551 1.1144623-2.1450551.6144694 0 1.1144623.9604725 1.1144623 2.1450551v41.9069292c0 1.1845827-.4999929 2.1450551-1.1144623 2.1450551"/></g></g><g transform="translate(16.629631 182.189867)"><path d="m1.69670875 10.7060661c2.11276463 3.5234174 8.99313835 8.4909134 17.82297945 12.5434331 8.829841 4.0542047 17.0805657 6.0307559 21.1259629 5.3348347l1.4780935.6790708 3.7743572-8.2398425c1.4309561-3.1206929-6.6531043-9.7917638-18.4004123-15.18388976-11.7489916-5.39381102-22.07376091-7.1732126-23.50303356-4.05083464l-3.77435722 8.2398425z" fill="url(#r)"/><path d="m5.79025336 11.6390724c1.0841597-2.36748027 8.95778534-.9368818 17.64958124 3.0532914 8.6934793 3.9901732 14.9139298 9.0284409 13.8297701 11.3959212-1.0841597 2.3657953-9.0116567 1.0497796-17.7034525-2.9387086-8.6917959-3.9901733-14.86174202-9.1447087-13.77589884-11.510504" fill="#ffc30d"/><path d="m23.7224905 14.0778299c11.7489916 5.393811 19.8313685 12.0631969 18.4004123 15.1855748-1.441057 3.1459685-12.0132975 1.3901575-23.5653222-3.9126614-11.55370809-5.3028189-19.77918061-12.1760945-18.33812362-15.322063 1.43095613-3.12237794 11.75404202-1.34297636 23.50303352 4.0491496" fill="#f2a500"/><path d="m18.9210435 24.5567528c9.9544042 4.5698267 19.0637026 6.081307 20.3061092 3.3700787 1.2255718-2.6741575-5.7457097-8.4066614-15.8684617-13.054-10.1244355-4.6473386-19.01319828-6.19251969-20.23877012-3.5183622-1.24240662 2.7095433 5.84671839 8.6324567 15.80112262 13.2022835" fill="url(#s)"/></g></g></svg>