<svg height="327" viewBox="0 0 337 327" width="337" xmlns="http://www.w3.org/2000/svg" xmlns:xlink="http://www.w3.org/1999/xlink"><linearGradient id="a"><stop offset="0" stop-color="#0e88d4"/><stop offset="1" stop-color="#37b9ff"/></linearGradient><linearGradient id="b" x1="27.914833%" x2="69.670522%" xlink:href="#a" y1="14.055152%" y2="91.986298%"/><linearGradient id="c" x1="9.906698%" x2="85.709767%" xlink:href="#a" y1="14.055152%" y2="91.986298%"/><g fill="none" fill-rule="evenodd" transform="translate(-19 -73)"><ellipse cx="190.28931" cy="388.075357" fill="#000" opacity=".05" rx="116.68931" ry="11.275357"/><path d="m211.387761 395.194206c75.167561 0 102.792429-63.82191 102.792429-138.98947 0-75.167561 19.211996-210.177824-55.955565-210.177824s-182.9397724 137.896824-182.9397724 213.064385 60.9353474 136.102909 136.1029084 136.102909z" fill="url(#b)" opacity=".332428" transform="matrix(-.20791169 -.9781476 -.9781476 .20791169 452.337049 366.29532)"/><path d="m187.970624 349.326989c72.459759 0 147.550361-65.714336 147.550361-138.174095s-28.861988-161.4506636-101.321747-161.4506636-177.4286139 95.9649996-177.4286139 168.4247586 58.7402409 131.2 131.1999999 131.2z" fill="url(#c)" transform="matrix(-.8660254 .5 .5 .8660254 266.255748 -71.343013)"/><path d="m282.411344 162.224764c-.817079.238632-1.633854.460807-2.450628.667744-4.993297 1.260819-5.452275-.402902-1.837133-4.073511 1.61892-1.644826 3.049494-3.433806 4.291723-5.366026 2.784653-4.332867.369377-6.22242-4.36822-4.198465-1.689931.721992-3.4079 1.376631-5.149641 1.960259-4.881447 1.63934-11.808488-.833537-16.158117-3.592284-5.491285-3.482264-11.731991-5.222481-18.724252-5.222481-9.794285 0-18.142452 3.454225-25.049378 10.357189-6.904793 6.906621-10.359017 15.257226-10.359017 25.049073 0 1.339145.076496 2.698709.22766 4.077168.24808 2.243692-3.530721 3.870231-8.630076 3.150068-11.030723-1.557358-21.511038-4.899733-31.443077-10.02347-9.850058-5.080764-18.543525-11.474463-26.07888-19.181401-3.602037-3.68341-8.473731-3.366147-9.818666 1.60612-.805803 2.980618-1.206571 6.080399-1.206571 9.299953 0 6.067294 1.424784 11.694505 4.274961 16.881633 1.41747 2.581373 3.077533 4.918324 4.983849 7.009328 3.206449 3.519749 2.715775 5.56199-1.747532 4.310619-4.461479-1.251372-7.731015-3.109229-7.731015-2.987932v.220041c0 8.548094 2.68408 16.059068 8.055591 22.525606 3.308851 3.983909 7.152873 7.061443 11.530541 9.228943 4.6163 2.286664 6.766733 3.562112 4.18536 3.896136-1.557358.201451-3.124163.302024-4.700111.302024-1.066683 0-2.185786-.048458-3.353347-.147202-1.846581-.15665-2.178472 3.691028.621114 8.014752 2.225101 3.435634 5.073145 6.458919 8.542608 9.070465 3.528893 2.657869 7.332076 4.565708 11.403453 5.727783 4.953981 1.411984 5.94813 3.984214 1.531148 6.632636-10.929846 6.558273-23.025423 9.836953-36.284905 9.836953-1.493966 0-2.919055-.033525-4.280447-.098745-2.36316-.113678-.777764 1.967574 3.784287 4.356944 14.255459 7.466477 29.693412 11.196516 46.315993 11.196516 12.567661 0 24.370358-1.989821 35.406567-5.972207 11.032247-3.98208 20.460812-9.318544 28.2796-16.005124 7.818787-6.686579 14.561444-14.376755 20.225836-23.074185 5.662869-8.697125 9.881753-17.777037 12.66092-27.238822 2.775205-9.463918 4.164941-18.946426 4.164941-28.447526 0-.856089-.007315-1.624711-.02042-2.301597-.026209-1.272096 3.338719-4.715349 7.094967-8.238452 1.695417-1.590881 3.312509-3.260393 4.857066-5.011582 3.406986-3.866879 1.898087-5.638792-3.046752-4.196941z" fill="#fff" fill-rule="nonzero"/></g></svg>