<svg height="313" viewBox="0 0 313 313" width="313" xmlns="http://www.w3.org/2000/svg" xmlns:xlink="http://www.w3.org/1999/xlink"><mask id="a" fill="#fff"><path d="m0 .14727324h312.852372v312.83143376h-312.852372z" fill="#fff" fill-rule="evenodd"/></mask><g fill="none" fill-rule="evenodd"><g fill="#ff5254"><path d="m143.976005 84h-36.95201c-8.8661225 0-16.023995 7.1211744-16.023995 15.927604v36.542478c0 8.041529 5.9692775 14.830599 13.756992 15.949862v40.464848c0 8.80643 7.171023 16.115208 16.030748 16.115208h9.42452c8.866478 0 16.023995-7.308778 16.023995-16.115208v-40.464141c7.785937-1.117144 13.763745-7.907627 13.763745-15.950569v-36.542478c0-8.8064296-7.16427-15.927604-16.023995-15.927604"/><path d="m125.095796 77c9.28747 0 16.904204-7.6166557 16.904204-17.09597 0-9.2870241-7.616734-16.90403-16.904204-16.90403-9.479062 0-17.095796 7.6170059-17.095796 16.90403 0 9.4793143 7.616734 17.09597 17.095796 17.09597"/><path d="m218.28123 87h-28.114267c-8.341061 0-15.166963 6.7813231-15.166963 14.871304v34.435896c0 7.341113 5.620995 13.5928 12.893688 14.687546v34.230498c0 5.465926 2.969555 10.191141 7.386715 12.774756.318473-.307919.639805-.612646.954347-.924823 18.387079-18.241745 29.76525-43.459213 29.76525-71.308897 0-13.767335-2.749376-26.8507191-7.71877-38.76628"/><path d="m59.0193824 87h-27.3945616c-4.9095133 11.9310037-7.6248208 25.031345-7.6248208 38.816522 0 27.885777 11.2386406 53.135928 29.4065936 71.401315.2619631.263918.5309872.521442.7961277.782163 4.2327164-2.615735 7.061353-7.273547 7.061353-12.647454v-34.274506c7.1884511-1.095455 12.7359257-7.3556 12.7359257-14.706936v-34.480527c0-8.1004652-6.7354879-14.890577-14.9806176-14.890577"/><path d="m207.917428 81c2.546336 0 4.950033-.6000079 7.082572-1.6627878-4.764318-9.212887-10.895016-17.5864012-18.128701-24.8542271-.162412-.1627681-.329061-.3212808-.492179-.4829851-2.712632 2.8659951-4.37912 6.7405141-4.37912 11.0132652 0 8.8455063 7.11682 15.9867348 15.917428 15.9867348"/><path d="m58.164059 64.335695c0-4.1797211-1.5983583-7.9800805-4.2166282-10.8279546-.0983004.0975907-.199085.1919875-.2966757.2899331-7.3114955 7.3114954-13.5030045 15.740848-18.3034025 25.0179977 2.0675034.9727132 4.3773866 1.5185113 6.8182188 1.5185113 8.8456213 0 15.9984876-7.1464784 15.9984876-15.9984875" mask="url(#a)"/></g><path d="m202.9223 203.069219c-19.954637 19.766198-47.437953 32.191447-77.742528 32.191447-30.4986915 0-57.9756201-12.425249-77.9362901-32.191447-19.7661985-19.947895-32.185059-47.437954-32.185059-77.742174 0-30.4923035 12.4188605-57.9756198 32.185059-77.9366448 19.96067-19.7598106 47.4375986-32.1850589 77.9362901-32.1850589 30.304575 0 57.787891 12.4252483 77.742528 32.1850589 19.759456 19.961025 32.184705 47.4443413 32.184705 77.9366448 0 30.30422-12.425249 57.794279-32.184705 77.742174zm104.278328 77.366005-28.423736-28.611819-2.444736-2.451479h-.187729l-28.42409-28.416993c-5.412203-5.555927-13.484906-7.010206-20.296027-4.373128l-8.633761-8.596854c19.598697-22.02285 31.374524-50.985641 31.374524-82.657906 0-34.6361822-13.929565-65.8872094-36.704751-88.4682786-22.587457-22.7819285-53.838484-36.71149316-88.28055-36.71149316-34.6425702 0-65.8872096 13.92956466-88.4743117 36.71149316-22.7755408 22.5810692-36.7054603 53.8320964-36.7054603 88.4682786 0 34.448454 13.9299195 65.692738 36.7054603 88.286938 22.5871021 22.775186 53.8317415 36.704751 88.4743117 36.704751 31.66907 0 60.639669-11.777601 82.658261-31.379138l8.595079 8.633406c-2.636723 6.810057-1.183864 14.880986 4.36816 20.294963l28.423736 28.61182 2.451124 2.450768h.188438l28.423381 28.417703c7.341305 7.535777 19.572082 7.535777 26.912677 0 7.535777-7.341305 7.535777-19.572081 0-26.913032z" fill="#427fe0" mask="url(#a)"/></g></svg>