<svg height="466" viewBox="0 0 389 466" width="389" xmlns="http://www.w3.org/2000/svg"><g fill="none" fill-rule="evenodd"><g><path d="m99.9266055 372.345566c-4.7932211-2.606655-9.1638266-3.568808-13.0073829-3.568808-.3601503 0-.7154206.008387-1.0667869.024397.3513663-.01601.7076126-.024397 1.067763-.024397 3.8416041 0 8.2141618.962915 13.0064068 3.568808m-14.2752294-3.533737c.0009761 0 .0019521-.000762.0039041-.000762-.000976 0-.002928.000762-.0039041.000762m.0283045-.001525c.0009761 0 .0039041-.000762.0048801-.000762-.000976 0-.003904.000762-.0048801.000762m.0283046-.001525c.002928-.000762.00488-.000762.0078081-.000762-.0029281 0-.0048801 0-.0078081.000762m.0283045-.001524c.003904-.000763.0068321-.000763.0107361-.000763-.002928 0-.0078081 0-.0107361.000763m.0292805-.001525c.0048801-.000763.0097601-.000763.0146402-.000763-.0048801 0-.0097601 0-.0146402.000763m.0283045-.001525c.0068321-.000762.0136642-.000762.0204963-.000762-.0068321 0-.0136642 0-.0204963.000762m.0292805-.001525c.0087842-.000762.0175683-.000762.0263525-.001525-.0087842.000763-.0175683.000763-.0263525.001525" fill="#9cb9a6"/><path d="m107.593593 378.881242-.001189-.00119c.001189 0 .001189.00119.001189.00119m-.033309-.038068c-.001189-.001189-.001189-.001189-.002379-.002379.00119.00119.002379.00119.002379.002379m-.033308-.038067c0-.00119-.00238-.003569-.003569-.004758.001189.001189.003569.003568.003569.004758m-.033309-.038067c-.00238-.002379-.00238-.003569-.004759-.005948.002379.002379.003569.003569.004759.005948m-.033309-.038068c-.002379-.002379-.004759-.004758-.005948-.007137.001189.002379.004758.004758.005948.007137m-.033309-.038067c-.002379-.002379-.005948-.005948-.008327-.008327.003569.003569.004758.005948.008327.008327m-.033309-.036877c-.003569-.003569-.005948-.007138-.009517-.010707.003569.003569.005948.007138.009517.010707m-.034498-.038068c-.003569-.004758-.007138-.008327-.009517-.011896.002379.003569.005948.007138.009517.011896m-.034499-.039257c-.003569-.003568-.007137-.007137-.010706-.010706.003569.003569.007137.007138.010706.010706m-.035688-.039257c-.003569-.003568-.005948-.007137-.009517-.010706.003569.003569.005948.007138.009517.010706m-.034498-.038067c-.00238-.002379-.008328-.008327-.010707-.010706.003569.002379.007138.007137.010707.010706m-.035688-.039257c-.003569-.003568-.007138-.007137-.010707-.010706.003569.003569.007138.007138.010707.010706m-.035689-.038067c-.003568-.003569-.007137-.008327-.010706-.011896.003569.004758.007138.008327.010706.011896m-.036877-.040446c-.003569-.003569-.005948-.005948-.009517-.009517.003569.002379.005948.005948.009517.009517m-.036878-.039257c-.002379-.00238-.005948-.007138-.008327-.009517.002379.003569.005948.005948.008327.009517m-.036878-.040447c-.003568-.003569-.004758-.004758-.008327-.008327.003569.003569.004759.004758.008327.008327" fill="#93ae9d"/><path d="m66.617737 366.397554-7.1393777-31.157478zm-16.5076525-14.775935-15.6116136-45.89379z" fill="#9cb9a6"/><path d="m389 194.5c0 107.418987-87.080803 194.5-194.499531 194.5-107.4196664 0-194.500469-87.081013-194.500469-194.5 0-107.4189875 87.0808026-194.5 194.500469-194.5 107.418728 0 194.499531 87.0810125 194.499531 194.5" fill="#e23739"/><path d="m375.914373 195.095271c0 99.863543-80.955559 180.819102-180.819102 180.819102-99.8644824 0-180.8200416-80.955559-180.8200416-180.819102 0-99.8644824 80.9555592-180.8200416 180.8200416-180.8200416 99.863543 0 180.819102 80.9555592 180.819102 180.8200416" fill="#ff5254"/><path d="m342.605505 195.689602c0 81.139084-65.776088 146.915903-146.915432 146.915903-81.140285 0-146.9163727-65.776819-146.9163727-146.915903 0-81.139083 65.7760877-146.9159017 146.9163727-146.9159017 81.139344 0 146.915432 65.7768187 146.915432 146.9159017" fill="#f8f7f5"/><path d="m342.605505 195.094801c0-79.011668-62.791743-143.4068013-141.354383-146.3211007 78.56264 2.9142994 141.354383 67.3084947 141.354383 146.3211007m-293.8318047 0c0-79.012606 62.7917427-143.4068013 141.3543827-146.3211007-78.56264 2.9142994-141.3543827 67.3094327-141.3543827 146.3211007" fill="#b35635"/><path d="m342.444519 201.042813c-3.339265-77.658874-67.753098-139.6069838-146.754446-139.6069838-79.002289 0-143.4151809 61.9481098-146.7553875 139.6069838-.0903777-2.10225-.1609852-4.207305-.1609852-6.331064 0-78.749277 62.7917427-142.9305593 141.3543827-145.8351806 1.84521-.068267 3.699834-.1028681 5.56199-.1028681s3.715839.0346011 5.561049.1028681c78.56264 2.9046213 141.354383 67.0859036 141.354383 145.8351806 0 2.123759-.070608 4.228814-.160986 6.331064" fill="#e9e9e4"/><path d="m196.284879 199.853211c-2.628084 0-4.758885-2.10845-4.758885-4.712231v-114.2941928c0-2.6028388 2.130801-4.7122306 4.758885-4.7122306 2.626182 0 4.757934 2.1093918 4.757934 4.7122306v114.2941928c0 2.603781-2.131752 4.712231-4.757934 4.712231" fill="#463828"/><path d="m151.084144 249.816514c-2.437081 0-4.87226-.929353-6.731937-2.787107-3.719355-3.719313-3.719355-9.748215 0-13.465626l45.195389-45.19679c3.720306-3.719313 9.74547-3.717411 13.464825-.001903 3.718403 3.719314 3.718403 9.747265 0 13.465627l-45.196341 45.196789c-1.859677 1.859657-4.296758 2.78901-6.731936 2.78901" fill="#463828"/><path d="m211.749235 195.094801c0 9.197322-7.456389 16.654434-16.653968 16.654434-9.198511 0-16.6549-7.457112-16.6549-16.654434 0-9.198253 7.456389-16.654434 16.6549-16.654434 9.197579 0 16.653968 7.456181 16.653968 16.654434" fill="#ff5254"/></g><ellipse cx="195.5" cy="445.5" fill="#000" opacity=".05" rx="142.5" ry="20.5"/></g></svg>