<svg height="441" viewBox="0 0 540 441" width="540" xmlns="http://www.w3.org/2000/svg" xmlns:xlink="http://www.w3.org/1999/xlink"><mask id="a" fill="#fff"><path d="m0 .21397836h171.10454v99.92848164h-171.10454z" fill="#fff" fill-rule="evenodd"/></mask><mask id="b" fill="#fff"><path d="m.00720175.12719441h153.62189325v99.36483429h-153.62189325z" fill="#fff" fill-rule="evenodd"/></mask><mask id="c" fill="#fff"><path d="m29.6778664.55910813c5.0716028 4.68755442 8.9646882 11.72549967 10.0383222 18.31600587.2185501.1020029.4515669.1892523.6551337.3057543l24.0015048 13.7340156v18.5688509l-46.2512504-26.4660625 3.9134938-2.2249858.0002583-.0844513c.01085-3.7540117-2.6776265-8.3393089-5.9954033-10.2252177l-5.9140283-3.36227996-3.91401044 2.22524016c-4.35911907 2.4780853-6.37799519 5.7869472-6.0987367 9.03883-.01627501-.1892522-.04856669-.3779958-.04856669-.5675024l.02996668 10.4666161c.00878334 3.0270186 2.02430112 6.0497128 6.05120334 8.3538081l50.08646931 28.6607781c2.3611679 1.350966 5.1625361 2.2964642 8.1406044 2.8606597v12.7534142s40.5865139-14.882502 45.5715749-29.1885986c4.034394-11.5789818-13.8585574-34.6400301-13.8585574-34.6400301l-31.7130175-6.6418891-15.2445167-8.72315521c-4.0465356-2.315542-9.3700135-3.46784401-14.7025331-3.46784401-1.5934009 0-3.1865434.10276601-4.7479109.30804365" fill="#fff" fill-rule="evenodd"/></mask><mask id="d" fill="#fff"><path d="m29.6778664.55910813c5.0716028 4.68755442 8.9646882 11.72549967 10.0383222 18.31600587.2185501.1020029.4515669.1892523.6551337.3057543l24.0015048 13.7340156v18.5688509l-46.2512504-26.4660625 3.9134938-2.2249858.0002583-.0844513c.01085-3.7540117-2.6776265-8.3393089-5.9954033-10.2252177l-5.9140283-3.36227996-3.91401044 2.22524016c-4.35911907 2.4780853-6.37799519 5.7869472-6.0987367 9.03883-.01627501-.1892522-.04856669-.3779958-.04856669-.5675024l.02996668 10.4666161c.00878334 3.0270186 2.02430112 6.0497128 6.05120334 8.3538081l50.08646931 28.6607781c2.3611679 1.350966 5.1625361 2.2964642 8.1406044 2.8606597v12.7534142s40.5865139-14.882502 45.5715749-29.1885986c4.034394-11.5789818-13.8585574-34.6400301-13.8585574-34.6400301l-31.7130175-6.6418891-15.2445167-8.72315521c-4.0465356-2.315542-9.3700135-3.46784401-14.7025331-3.46784401-1.5934009 0-3.1865434.10276601-4.7479109.30804365z" fill="#fff" fill-rule="evenodd"/></mask><mask id="e" fill="#fff"><path d="m29.6778664.55910813c5.0716028 4.68755442 8.9646882 11.72549967 10.0383222 18.31600587.2185501.1020029.4515669.1892523.6551337.3057543l24.0015048 13.7340156v18.5688509l-46.2512504-26.4660625 3.9134938-2.2249858.0002583-.0844513c.01085-3.7540117-2.6776265-8.3393089-5.9954033-10.2252177l-5.9140283-3.36227996-3.91401044 2.22524016c-4.35911907 2.4780853-6.37799519 5.7869472-6.0987367 9.03883-.01627501-.1892522-.04856669-.3779958-.04856669-.5675024l.02996668 10.4666161c.00878334 3.0270186 2.02430112 6.0497128 6.05120334 8.3538081l50.08646931 28.6607781c2.3611679 1.350966 5.1625361 2.2964642 8.1406044 2.8606597v12.7534142s40.5865139-14.882502 45.5715749-29.1885986c4.034394-11.5789818-13.8585574-34.6400301-13.8585574-34.6400301l-31.7130175-6.6418891-15.2445167-8.72315521c-4.0465356-2.315542-9.3700135-3.46784401-14.7025331-3.46784401-1.5934009 0-3.1865434.10276601-4.7479109.30804365" fill="#fff" fill-rule="evenodd"/></mask><mask id="f" fill="#fff"><path d="m19.2014559.18668887-2.1697823.45328253c-1.0718331.23189495-2.2317068.5972089-3.3616952 1.03094286.0673093.17007258.1028486.36555831.1036563.58621282.0035001 1.17609101-.9891773 2.69379333-2.3639023 3.75357033-.0083463 2.38517024-.4603955 4.53038179-1.022832 4.82507649-.56216714.2946947-1.02579354-1.37011061-1.04921717-3.7384202-1.37795579.38339639-2.37763337-.09138958-2.38140269-1.2679693-.00080771-.21185766.0325777-.43495574.09288682-.66416276-1.11464185.7438232-2.22632209 1.56144225-3.34850258 2.4606766l-2.20962938 1.84660705c-.82251953.68762101-1.38710986 1.77525481-1.38442707 2.67106811l.00539433 1.6853313c.56243643.1412385 1.51095895-.1263326 2.485059-.6367947.3333156-.174471.66905434-.3775318.99375436-.6020961.45662623 1.6618731 1.36449394 5.486307 1.37741732 9.7232158.00269237.7619056-.08992521 1.4842254-.23773641 2.1916393 1.32330064.0390972 3.35146418-.6722265 5.43832137-1.7654804 2.1517434-1.127464 4.3659499-2.6615382 5.9353333-4.1997665-.1513113-.5488262-.2479675-1.1707152-.2503906-1.9304216-.0131926-4.2452169.8653282-9.01555741 1.3103773-11.14341955.3036995-.1312198.6154761-.27807845.9250989-.44008725.9595612-.50264267 1.8959681-1.15238836 2.5041748-1.93457563l-.0051155-1.68533133c-.0024231-.7763227-.4227024-1.25379659-1.0710254-1.25379659-.1001563 0-.2056972.01124043-.3158152.03469872" fill="#fff" fill-rule="evenodd"/></mask><mask id="g" fill="#fff"><path d="m19.2014559.18668887-2.1697823.45328253c-1.0718331.23189495-2.2317068.5972089-3.3616952 1.03094286.0673093.17007258.1028486.36555831.1036563.58621282.0035001 1.17609101-.9891773 2.69379333-2.3639023 3.75357033-.0083463 2.38517024-.4603955 4.53038179-1.022832 4.82507649-.56216714.2946947-1.02579354-1.37011061-1.04921717-3.7384202-1.37795579.38339639-2.37763337-.09138958-2.38140269-1.2679693-.00080771-.21185766.0325777-.43495574.09288682-.66416276-1.11464185.7438232-2.22632209 1.56144225-3.34850258 2.4606766l-2.20962938 1.84660705c-.82251953.68762101-1.38710986 1.77525481-1.38442707 2.67106811l.00539433 1.6853313c.56243643.1412385 1.51095895-.1263326 2.485059-.6367947.3333156-.174471.66905434-.3775318.99375436-.6020961.45662623 1.6618731 1.36449394 5.486307 1.37741732 9.7232158.00269237.7619056-.08992521 1.4842254-.23773641 2.1916393 1.32330064.0390972 3.35146418-.6722265 5.43832137-1.7654804 2.1517434-1.127464 4.3659499-2.6615382 5.9353333-4.1997665-.1513113-.5488262-.2479675-1.1707152-.2503906-1.9304216-.0131926-4.2452169.8653282-9.01555741 1.3103773-11.14341955.3036995-.1312198.6154761-.27807845.9250989-.44008725.9595612-.50264267 1.8959681-1.15238836 2.5041748-1.93457563l-.0051155-1.68533133c-.0024231-.7763227-.4227024-1.25379659-1.0710254-1.25379659-.1001563 0-.2056972.01124043-.3158152.03469872" fill="#fff" fill-rule="evenodd"/></mask><mask id="h" fill="#fff"><path d="m29.6543056.34263815c5.0595232 4.68755442 8.9435339 11.72524535 10.0146651 18.31600585.2180407.1017485.4502566.1892523.6536066.3057543l23.9455573 13.7340156v18.5685966l-46.1434387-26.4658082 3.9046292-2.2252402v-.0841969c.0108247-3.7540117-2.6713849-8.3393089-5.981428-10.2252177l-5.9002426-3.36227994-3.90488696 2.22498584c-4.34921568 2.478594-6.36338579 5.7872016-6.08452052 9.03883-.01623707-.1889979-.04871122-.3777414-.04871122-.5669937l.03015456 10.4661074c.00850514 3.0272729 2.01958247 6.0499671 6.03709797 8.3540624l49.96971757 28.6607782c2.3556641 1.3512203 5.1505023 2.2964641 8.1216287 2.860914v12.7531598s40.4919064-14.882502 45.4653474-29.1888529c4.025248-11.5787275-13.826253-34.6397757-13.826253-34.6397757l-31.6390944-6.6418892-15.208724-8.72315519c-4.0373608-2.31579637-9.3486874-3.46784401-14.6685192-3.46784401-1.5896866 0-3.1791155.10276601-4.7365858.30804365" fill="#fff" fill-rule="evenodd"/></mask><mask id="i" fill="#fff"><path d="m29.6543056.34263815c5.0595232 4.68755442 8.9435339 11.72524535 10.0146651 18.31600585.2180407.1017485.4502566.1892523.6536066.3057543l23.9455573 13.7340156v18.5685966l-46.1434387-26.4658082 3.9046292-2.2252402v-.0841969c.0108247-3.7540117-2.6713849-8.3393089-5.981428-10.2252177l-5.9002426-3.36227994-3.90488696 2.22498584c-4.34921568 2.478594-6.36338579 5.7872016-6.08452052 9.03883-.01623707-.1889979-.04871122-.3777414-.04871122-.5669937l.03015456 10.4661074c.00850514 3.0272729 2.01958247 6.0499671 6.03709797 8.3540624l49.96971757 28.6607782c2.3556641 1.3512203 5.1505023 2.2964641 8.1216287 2.860914v12.7531598s40.4919064-14.882502 45.4653474-29.1888529c4.025248-11.5787275-13.826253-34.6397757-13.826253-34.6397757l-31.6390944-6.6418892-15.208724-8.72315519c-4.0373608-2.31579637-9.3486874-3.46784401-14.6685192-3.46784401-1.5896866 0-3.1791155.10276601-4.7365858.30804365z" fill="#fff" fill-rule="evenodd"/></mask><mask id="j" fill="#fff"><path d="m29.6543056.34263815c5.0595232 4.68755442 8.9435339 11.72524535 10.0146651 18.31600585.2180407.1017485.4502566.1892523.6536066.3057543l23.9455573 13.7340156v18.5685966l-46.1434387-26.4658082 3.9046292-2.2252402v-.0841969c.0108247-3.7540117-2.6713849-8.3393089-5.981428-10.2252177l-5.9002426-3.36227994-3.90488696 2.22498584c-4.34921568 2.478594-6.36338579 5.7872016-6.08452052 9.03883-.01623707-.1889979-.04871122-.3777414-.04871122-.5669937l.03015456 10.4661074c.00850514 3.0272729 2.01958247 6.0499671 6.03709797 8.3540624l49.96971757 28.6607782c2.3556641 1.3512203 5.1505023 2.2964641 8.1216287 2.860914v12.7531598s40.4919064-14.882502 45.4653474-29.1888529c4.025248-11.5787275-13.826253-34.6397757-13.826253-34.6397757l-31.6390944-6.6418892-15.208724-8.72315519c-4.0373608-2.31579637-9.3486874-3.46784401-14.6685192-3.46784401-1.5896866 0-3.1791155.10276601-4.7365858.30804365" fill="#fff" fill-rule="evenodd"/></mask><g fill="none" fill-rule="evenodd"><g><path d="m171.10454 11.8006979-151.0127244 88.3417621-20.09194273-11.5864632 151.01297813-88.34201844z" fill="#d9d9d9" mask="url(#a)" transform="translate(0 123.611467)"/><path d="m15.8703058 96.7423518.0078818 2.7496513 147.2696384-85.5857131.308451 109.473693c.014702 5.23826-3.644989 11.618966-8.173964 14.250892l-130.8658633 76.052531c-4.5315182 2.633717-8.2153631.52055-8.2301097-4.71771l-.3081524-109.4736929z" fill="#f0f0f0"/><path d="m154.912911 6.43716309c4.528976-2.63192613 8.212567-.5190146 8.227313 4.71924521l.007628 2.7499073-147.2696389 85.5857131-.0079262-2.7496514c-.0147022-5.2382598 3.6449888-11.618966 8.1767613-14.2526836z" fill="#5b96fd"/><path d="m25.3919351 86.1459827c.5949477-.3457538 1.0744653-.0603981 1.0762451.6175455l.007634 2.7419736c.0020275.6776877-.4741849 1.5081623-1.0691325 1.8539161l-3.86716 2.2472718c-.5860489.3406353-1.0742111.070891-1.0762451-.6067967l-.0078867-2.7422295c-.0017749-.6776877.4833363-1.5237736 1.0693852-1.864153z" fill="#fff"/><path d="m34.4621668 80.868157c.5949477-.3457538 1.0742111-.0603982 1.0762452.6172895l.007634 2.7422296c.0020275.6776877-.4744392 1.5079063-1.0691326 1.8536601l-3.8582612 2.2421534c-.5952019.3457538-1.0744653.070891-1.0762451-.6067967l-.007634-2.7422295c-.0020275-.6776877.4741849-1.5183993 1.0691326-1.8641531z" fill="#fff"/><path d="m43.823389 75.4903672c.5860489-.3406353 1.0742111-.0603982 1.0762451.6172895l.007634 2.7422296c.0020276.6776877-.4833379 1.5132807-1.0691325 1.8536601l-3.8674142 2.2475278c-.5949477.3457538-1.0742111.070891-1.0759909-.6070526l-.0078867-2.7422295c-.0017748-.6776878.4744376-1.5183993 1.0693853-1.8641531z" fill="#fff"/><path d="m144.88489.68423937c-1.491183-.87219022-3.556211-.74934653-5.835064.57506204l-130.8658629 76.05278659c-4.53177248 2.6334617-8.19146351 9.0141678-8.17676135 14.2524277l.00767194 2.7496513 8.74420551 5.1778617-.00788179-2.7496514c-.01474657-5.2382598 3.64494449-11.618966 8.17671699-14.2526836l130.8658626-76.05253061c2.279108-1.32440857 4.344135-1.44725226 5.835318-.57506204z" fill="#497acf" mask="url(#b)" transform="translate(7.119032)"/><path d="m16.1863655 208.965798-.3081524-109.4739485-8.74420554-5.1776057.30815239 109.4736932c.00737328 2.601983.91988065 4.432866 2.3919948 5.293795l8.74420555 5.178118c-1.4721142-.861442-2.3846216-2.692069-2.3919948-5.294052" fill="#c9c9c9"/><path d="m119.619292 48.4087584-69.1524984 39.8461434v27.6480202l69.1524984-39.8463989z" fill="#fff"/><path d="m119.619292 83.7854132-69.1524984 39.8461438v65.338257l69.1524984-39.846144z" fill="#fff"/><path d="m115.292065 107.641377-60.498044 34.859457v38.385327l60.498044-34.859457z" fill="#6ebceb"/><path d="m54.7938176 180.88611 60.4982984-34.767836v-5.224952l-60.4982984 34.768092z" fill="#c4c4c4"/><path d="m100.778646 151.758335v.599887l-30.1770683 17.537217v-.599887z" fill="#d4d4d4"/><path d="m75.8852471 165.099646c-.209503.12182-.3788343.417157-.3783269.659517l.0050862 1.821414c.0007627.24236.1713652.340124.3808682.218559l1.5748316-.915441c.209503-.121564.3790885-.417157.3783283-.659261l-.0050876-1.82167c-.0007628-.24236-.1713653-.340123-.3808682-.218559z" fill="#fff"/><path d="m82.6326912 139.979314 7.8800058.681526-7.8505127 9.822889z" fill="#fff"/><path d="m85.0701969 152.971596c-4.4755829 2.601215-8.1271379.506474-8.1419278-4.668573-.014449-5.17479 3.6134606-11.499961 8.0890436-14.10092 4.4740575-2.600192 8.1256125-.505451 8.1404023 4.66934.014449 5.17479-3.6134606 11.500217-8.0875181 14.100153m-.0551725-19.590498c-4.866367 2.827964-8.8108193 9.706699-8.7951028 15.333708.0160649 5.626753 3.9861966 7.906015 8.8525636 5.077795 4.8648415-2.827196 8.8092938-9.705931 8.7933246-15.332684-.0158122-5.626754-3.9859439-7.906016-8.8507854-5.078819" fill="#fff"/><path d="m154.316133 81.7151642v-54.0676042l-27.121479 15.6277652v54.0673483z" fill="#fff"/><path d="m150.633229 77.2139922-13.227162 7.6869441.002288.8266357 13.224874-7.6854086z" fill="#e8e8e8"/><path d="m143.781465 78.3040508-12.529242 7.2815599.002288.8266357 12.526954-7.2802803z" fill="#e8e8e8"/><path d="m145.152794 77.5071535v.8279153l5.480384-3.1847227v-.8281713z" fill="#e8e8e8"/><path d="m136.200128 85.6017596.002289.8266356-4.939846 2.8709595-.002288-.8268916z" fill="#e8e8e8"/><path d="m150.633229 80.1058863-19.364785 11.2537619.002289.8268916 19.362496-11.2527382z" fill="#e8e8e8"/><path d="m151.144452 69.2987123v-33.439077l-20.778167 11.9723975v33.4390771z" fill="#6ebceb"/><path d="m146.60406 50.4061712c-.197045 0-.424091.071147-.665884.2121613l-10.093516 5.8657864c-.90666.5264364-1.669922 1.857499-1.667133 2.906533l.017806 6.3341279c.001271.4488913.137549.7746831.384173.9174888.247386.1430618.600287.0980191.992088-.1294977l10.093516-5.8657863c.907169-.5269483 1.671193-1.8585228 1.668404-2.9073008l-.018059-6.3341279c-.001526-.4486354-.137804-.7741712-.384174-.9167211-.094836-.0552797-.205435-.0826636-.327221-.0826636m-11.699875 16.9283728c-.225775 0-.437566-.0545118-.626729-.1637915-.44138-.2559244-.685716-.7685409-.687241-1.4439253l-.018061-6.3341279c-.003296-1.2834607.86192-2.7926467 1.969693-3.4365524l10.093262-5.8657863c.586303-.3411472 1.1543-.3872136 1.598223-.1300096.441125.2559244.685461.7682849.68724 1.4434134l.018063 6.3341279c.003549 1.2829489-.862176 2.7929026-1.970711 3.4370642l-10.093517 5.8657864c-.336374.1952703-.666392.2938011-.970222.2938011" fill="#fff"/><path d="m140.89869 55.9730124c-1.278121.7424365-2.314703 2.5492625-2.310647 4.0272257.001792.6467209.205193 1.119925.572586 1.33311.370698.2152324.886319.1527868 1.451265-.17582 1.278121-.7424366 2.314194-2.5484948 2.309885-4.0259462-.002047-.6474886-.205702-1.1212046-.573095-1.3341337-.370953-.2149764-.885811-.152275-1.449994.1755642m-1.24456 6.0956064c-.287812 0-.556301-.0685877-.795552-.2070428-.562403-.3263036-.873607-.9863325-.875908-1.8595464-.004563-1.7008733 1.143126-3.7024578 2.613206-4.5569892.759703-.4417255 1.488387-.5036591 2.054858-.17582.562658.3260476.874116.9868443.876165 1.860826.004815 1.6722098-1.167028 3.7155099-2.612192 4.5554536-.438837.2549007-.867759.3831188-1.260577.3831188" fill="#fff"/><path d="m142.704127 50.8632777-3.63452 2.1121438c-.276625.1609764-.53647.5405122-.61783.9026452l-.099413.4447966 4.861537-2.825405-.183824-.5957919c-.017289-.0545119-.040934-.0885498-.071699-.1005783-.04246-.016891-.13221-.0092133-.254505.0621896zm-5.246218 4.682904.403496-1.8019634c.118481-.5297635.482315-1.0508255.905389-1.2967688l3.634774-2.1121437c.269252-.1561139.54486-.1924551.777246-.1018579.203909.0803602.35646.2531092.428922.4867681l.328238 1.0615743z" fill="#fff"/><path d="m154.316133 129.744719v-40.9681154l-27.121479 15.6277654v40.96786z" fill="#fff"/><path d="m150.633229 125.245544-13.227162 7.686944.002288.826635 13.224874-7.685664z" fill="#e8e8e8"/><path d="m143.781465 126.335474-12.529242 7.28156.002288.826636 12.526954-7.280024z" fill="#e8e8e8"/><path d="m145.152794 125.538577v.827915l5.480384-3.184722v-.828172z" fill="#e8e8e8"/><path d="m136.200128 133.633311.002289.826636-4.939846 2.870703-.002288-.826635z" fill="#e8e8e8"/><path d="m150.633229 128.13731-19.364785 11.253762.002289.826891 19.362496-11.252482z" fill="#e8e8e8"/><path d="m112.644878 100.599593-31.9886081 18.590089.0033052 1.181603 31.9853029-18.588042z" fill="#b3b3b3"/><path d="m77.0636249 121.277462.0033052 1.181603-9.2163499 5.356241-.0035595-1.181603z" fill="#b3b3b3"/><path d="m105.070126 100.868134.003305 1.180067-37.2345717 21.638917-.0033053-1.180323z" fill="#34a2d1"/><path d="m112.644878 92.3325191-44.8209179 26.0477259.0033053 1.180067 44.8176126-26.0456783z" fill="#ff6c63"/><path d="m59.0849159 121.965515c3.0723709-1.785585 5.5724225-.351385 5.5826221 3.202381.0098862 3.557093-2.4738933 7.884262-5.5462642 9.66959-3.0756761 1.787376-5.5726766.355223-5.5826236-3.202125-.0101389-3.553766 2.4705896-7.882471 5.5462657-9.669846" fill="#ffdd45"/><path d="m129.288285 130.153712-.117464-19.909891 22.843195-13.2755648.117464 19.9098918z" fill="#6cf"/><path d="m152.399079 96.292232-.579692.3367964-22.843195 13.2755646-.196027.113886.001525.227517.117464 19.909892.004068.673848.579693-.336796 22.843194-13.275564.195774-.113887-.001272-.227517-.117464-19.9101471zm-.38519.6761522.117718 19.9098918-22.843194 13.275564-.117719-19.910147z" fill="#fff"/><path d="m146.483519 115.479444-1.000986 1.343859-.61478.825356.938187-.492142.342476-.569944.297983.304038.686224-.717612.873861-.163279z" fill="#fff"/><path d="m140.321031 118.303211-.489688.853764 2.21885 2.281566 2.820917-3.79152.611474-.823564-2.03401-1.166759-.096615.778777-.871319-.209346-.843605 1.418589-.345527-.488815z" fill="#666"/><path d="m142.237474 114.961965-1.916545 3.341349.970477-1.147565.345527.488815.843606-1.418332.871572.20909.096362-.778778z" fill="#ccc"/><path d="m138.988577 118.290594-2.579632 3.50514.905897-.765213.459431.316578.913016-1.352816 1.169301.328095.378072-.750114z" fill="#fff"/><path d="m136.409301 121.795197-.94378 1.282437 2.46293 2.069404 4.927896-2.879661-.023137-.023801-.782839-.805138-2.219104-2.281309-.842588-.86656 1.24583 1.281669-.378071.750114-1.169047-.328095-.91327 1.352816-.459178-.316578z" fill="#966"/><path d="m142.050269 121.438541 2.820663-3.79152.934881-.490351.342731-.569943.297982.303782.68597-.717612.873861-.163024 3.512734 1.223063-2.653874 1.530939-5.121381 2.995339-.895218.516455-2.420725 1.39658z" fill="#996"/><path d="m134.6509 122.393267-1.202354 2.10421.460195-.45401.276879.449659.479009-.702512.664613-.015356.310441-.551005z" fill="#fff"/><path d="m134.6509 122.393267.988783.830986-.310441.551005-.664613.015356-.479009.702512-.276879-.449659-.459941.453498-2.764218 4.844392.306118-.17582 4.676442-2.696931 2.261818-1.321081-2.463439-2.069917z" fill="#996"/><path d="m146.598466 108.942624-.825553.168655.600541-.751906.148991-.186569-.646306-.297384.86242-.606797-.354935-.711726.826062-.170189-.002542-1.003224.646815.295849.350612-1.121461.355697.710958.643256-1.045451.003305 1.002712.824028-.788759-.349595 1.121205.862674-.395915-.641984 1.045962.75182.066285-.823519.789526.511553.515944-.862928.397195.182552.876541-.752838-.064237-.008644.054-.169331 1.032143-.512571-.514664-.507739 1.10764-.183824-.875773-.749787.937451.176959-1.085887-.86242.605517z" fill="#fc0"/><path d="m134.680571 112.58366c-.02873.016635-.057715.03455-.086445.053488-.045003.028408-.089497.060655-.133737.094181-.045256.03327-.088225.068587-.133227.106976l-.06636.058607-.06102.056559c-.047036.046066-.086191.085479-.12916.131033-.041951.044787-.08314.090853-.123311.138967-.040681.047602-.080598.09674-.11899.148436-.0389.050929-.07653.103906-.113396.157906-.036866.053488-.072207.109791-.106023.167118-.034069.056815-.066868.115166-.097632.175308-.030764.059375-.059241.121053-.085937.183242-.00356.008446-.007119.016891-.010679.025593-.006356.001535-.012712.003583-.019068.00563-.046783.014332-.094328.031223-.141618.052976-.047545.021498-.094327.046067-.141364.072939-.004576.002559-.009153.005118-.013729.007933-.042206.024569-.084666.051441-.126109.081128-.046019.031735-.091785.065517-.136787.101858-.045765.035318-.089751.073707-.133991.114399-.044493.039668-.086953.08036-.130176.124379-.021611.022265-.044748.045554-.06458.066796l-.060003.065773c-.04068.046066-.080598.093412-.119752.142294-.039155.048369-.077547.097763-.114159.149459-.036612.050418-.07297.10237-.10704.156114-.034324.052721-.067376.106721-.098649.162-.031528.05528-.061021.110816-.088734.166863-.027713.056303-.05441.112607-.076784.169934-.023645.056815-.044494.114142-.062546.170701-.017543.056816-.032035.112351-.042968.167119.026442-.055536.051613-.109536.080343-.161232.027714-.051953.056444-.10365.087971-.153043.030765-.049649.061783-.098531.094073-.145877.032036-.047602.065597-.093668.100175-.138455.03407-.045299.068394-.089574.103734-.132057.035596-.042739.070937-.084711.107549-.125147.036103-.040436.07297-.079848.11009-.118237.036613-.038389.07475-.074218.112379-.111071l.058224-.054512c.02034-.018427.037629-.032503.056189-.048882.037121-.03199.076276-.065772.114414-.095204.038391-.030966.077292-.059374.11543-.086502.038391-.02764.077038-.052976.114921-.076265.017289-.010493.034324-.02073.051359-.030455.058986-.03455.117718-.064749.17467-.087527.036867-.015611.072716-.028407.107549-.037876.035595-.010749.068647-.01638.1017-.020986.01856-.002304.036866-.009213.054664-.01945.018815-.011005.037375-.025849.054664-.043508.04068-.041715.067631-.087526.082886-.133592.01678-.050161.033053-.095972.052884-.142294.019323-.046834.040426-.093924.064071-.140503.045257-.093924.099158-.187336.156111-.278957.02873-.046322.058732-.092133.089496-.136152.031019-.044787.0628-.089317.095598-.133081.032545-.044019.066614-.086502.100684-.128218.033307-.041203.071699-.085734.102972-.122331l.057969-.063982.053647-.057327c.036104-.037876.074241-.076009.11187-.112606.037884-.037109.076276-.072427.11543-.106209.038901-.035062.07831-.067564.118227-.099043.039155-.03199.079581-.062701.120261-.090853.04068-.028919.08136-.054.122549-.079592.009153-.005631.018306-.011261.027713-.016379.03229-.018939.064326-.035574.097124-.050929.042206-.02201.083395-.037109.126363-.054-.036358-.005375-.075258-.005887-.115684-.00256-.040426.004095-.082632.012029-.125092.024057-.042968.010493-.086445.027128-.130685.045555-.043985.018426-.088225.039668-.132973.062957-.015764.008446-.031781.017403-.047545.026616" fill="#fff"/><path d="m139.520038 106.438968c-.216876.125914-.414175.368019-.530368.636739-.086191-.028919-.190942-.022777-.307644.025849-.030764.012796-.06102.028151-.091022.045554-.313745.182218-.586811.608332-.631305 1.004247-.002288.022522-.004068.044019-.004831.065517-.205943.214721-.363325.522854-.395869.814863-.048816.433792.195773.667195.546132.521318.03051-.01254.060766-.02764.090767-.045298.099412-.057583.194757-.139991.279931-.237754.060766.000256.127634-.013564.19857-.042995.03051-.012797.060766-.027896.090513-.045299.155856-.090597.301542-.241081.41443-.418181.098395.10365.251454.130266.433244.054512.030764-.012796.06102-.027895.091021-.045554.246878-.143318.468331-.437631.573337-.749347.010424-.003839.02034-.007421.031018-.011772.030511-.012796.060766-.028152.091022-.045555.313492-.182218.586812-.608332.630797-1.004247.048817-.434048-.195773-.667451-.545877-.521318-.030764.01254-.06102.027896-.091022.045299-.084411.048881-.165771.115678-.240521.194758-.049071-.277422-.261625-.403081-.541555-.286635-.03051.012796-.060766.027896-.090768.045299" fill="#fff"/><path d="m147.651244 100.803155c-.118227.068843-.226029.2009-.289338.347545-.047036-.015867-.104243-.012284-.16806.014332-.016526.006654-.033052.015099-.049579.024569-.171111.099554-.320102.331933-.34451.547934-.001271.012284-.002034.024312-.002542.035829-.112379.117213-.198316.285356-.216114.444541-.026442.236986.106786.36418.297982.284588.016781-.00691.033307-.0151.049579-.024825.05441-.031479.106277-.076266.152805-.129498.033053 0 .069665-.007678.108311-.023801.016527-.00691.033053-.015099.049325-.024569.08492-.049393.164501-.131545.226284-.228028.053647.056303.137295.070891.236453.029687.016781-.007166.033307-.015355.049579-.024825.134753-.078312.255522-.239033.312983-.408967.00534-.002047.010933-.004095.016781-.006398.016526-.00691.033307-.015355.049579-.024824.171111-.099555.320356-.33219.34451-.54819.026442-.236731-.10704-.364181-.298236-.284332-.016527.00691-.033307.015099-.049579.024824-.04602.026616-.09026.062958-.131194.106209-.026696-.151251-.142635-.220095-.29544-.156626-.01678.007166-.033307.015356-.049579.024825" fill="#fff"/><g fill="#c9c9c9"><path d="m43.0962816 140.48653-9.4113605 5.46936.0035595 1.23765 9.407801-5.467312z"/><path d="m43.0962816 136.15757-18.6236424 10.823041.0035595 1.237394 18.6200829-10.820994z"/><path d="m31.87956 147.005103.0035595 1.237394-7.3948947 4.297482-.0033053-1.237394z"/><path d="m43.0962816 144.815644-18.5992343 10.808966.0033053 1.237394 18.595929-10.806918z"/><path d="m40.907586 160.953237.0035595 1.237394-16.4228444 9.544187-.0035595-1.237394z"/><path d="m43.0962816 164.01033-7.5939733 4.41316.0035595 1.23765 7.5904138-4.411113z"/><path d="m43.0962816 155.352281-18.6236424 10.823297.0035595 1.235859 18.6200829-10.82125z"/><path d="m32.643305 170.085053.0035595 1.237394-8.1464611 4.734345-.0035595-1.237394z"/><path d="m40.907586 179.291701.0035595 1.237395-16.4228444 9.544187-.0035595-1.23765z"/><path d="m43.0962816 182.348795-7.5939733 4.413159.0035595 1.237651 7.5904138-4.411369z"/><path d="m43.0962816 173.69072-18.6236424 10.823041.0035595 1.236115 18.6200829-10.82125z"/><path d="m32.643305 188.423492.0035595 1.237394-8.1464611 4.734345-.0035595-1.237394z"/><path d="m40.907586 102.768065.0035595 1.237395-16.4228444 9.544187-.0035595-1.23765z"/><path d="m43.0962816 105.825159-7.5939733 4.413159.0035595 1.23765 7.5904138-4.411368z"/><path d="m43.0962816 97.1670838-18.6236424 10.8230412.0035595 1.236115 18.6200829-10.82125z"/><path d="m32.643305 111.899728.0035595 1.23765-8.1464611 4.734089-.0035595-1.237394z"/><path d="m40.907586 121.106402.0035595 1.237394-16.4228444 9.544188-.0035595-1.237395z"/><path d="m43.0962816 124.163495-7.5939733 4.41316.0035595 1.23765 7.5904138-4.411112z"/><path d="m43.0962816 115.505421-18.6236424 10.823297.0035595 1.235859 18.6200829-10.82125z"/><path d="m32.643305 130.238193.0035595 1.237394-8.1464611 4.734345-.0035595-1.237394z"/></g><path d="m113.338628 62.796007-44.4812386 25.850152.0033052 1.1803231 44.4779334-25.8483605z" fill="#ff6c63"/><path d="m105.828151 75.4277681.003305 1.1816028-25.4317255 14.7796318-.0033053-1.1816027z" fill="#b3b3b3"/><path d="m77.6652339 91.7945661.0033053 1.1816028-8.7846314 5.1051791-.0033053-1.1816028z" fill="#b3b3b3"/><path d="m92.3105069 79.1500344.0033053 1.1816027-23.4414474 13.6231097-.0033053-1.1818587z" fill="#34a2d1"/><path d="m58.9168305 91.4904c2.979315-1.7315843 5.4035997-.3408913 5.4135444 3.1051302.0096326 3.4496045-2.3991428 7.6454848-5.3784577 9.3768128-2.982366 1.73312-5.4035997.344218-5.4132903-3.10513-.0096325-3.4460219 2.3958376-7.6436933 5.3782036-9.376813" fill="#ff7b57"/><path d="m113.338628 66.9295437-17.4357812 10.1328133.0035595 1.1813468 17.4322217-10.1305099z" fill="#34a2d1"/><g fill="#dcdcdc" transform="translate(84.919884 176.075961)"><path d="m95.3427824 45.6410644c1.7911993 0 3.5025638.4000097 4.6950016 1.0971477l49.295484 28.8352537c.856826.5013559 1.239983 1.0431477 1.238715 1.356911 0 .3209291-.392313.8711665-1.2677 1.3799441l-13.204787 7.673892c-1.203879.6991854-2.922109 1.100219-4.713562 1.100219-1.792471 0-3.504852-.4005218-4.699579-1.0991953l-49.2954835-28.8352537c-.8545381-.5000762-1.2364233-1.0400766-1.2364233-1.3538399.0012712-.3206732.3935808-.8719343 1.2689675-1.3807119l13.2047876-7.6741479c1.2038792-.6994413 2.9221085-1.1002188 4.7145791-1.1002188m36.0027256 53.3348928c5.900915 0 11.485287-1.356655 15.723908-3.8206948l13.204787-7.673636c4.662458-2.7089594 7.232683-6.4595309 7.238794-10.5612307.005584-4.0802021-2.531334-7.8133707-7.142432-10.5110694l-49.294467-28.8352537c-4.215484-2.4660872-9.789178-3.8242778-15.6926354-3.8242778-5.9011692 0-11.4865584 1.356911-15.7251793 3.820183l-13.2047877 7.673636c-4.6624576 2.7099831-7.2329367 6.4613224-7.2387937 10.5637899-.0055843 4.0794343 2.5298082 7.8108115 7.138873 10.5067187l49.2944671 28.8352538c4.217772 2.4676227 9.792483 3.826581 15.697466 3.826581"/><path d="m86.9492655 60.1870117-86.74845794-50.68428424 16.02316164-9.31180789 86.7482038 50.68428423z"/></g><path d="m106.682663 123.285009c.00534-1.876693.66563-3.198286 1.728908-3.820182l9.044985-5.290981c-1.063279.621896-1.723569 1.94349-1.728908 3.820183l-.042969 15.26768c-.010678 3.772069 2.635314 8.385617 5.896593 10.280737l49.617366 28.835254c1.643734.95511 3.134917 1.04238 4.21167.412294l-9.04473 5.29098c-1.077262.630086-2.568191.542816-4.211925-.412294l-49.61762-28.835253c-3.261025-1.89512-5.907017-6.508669-5.89637-10.280482z" fill="#f2c300"/><path d="m106.639535 138.552868.043001-15.267935c.010679-3.776676 2.674214-5.304289 5.935239-3.409169l49.617366 28.834998c3.265347 1.897679 5.911339 6.511228 5.900693 10.287903l-.043001 15.26768c-.010424 3.772069-2.673959 5.299682-5.939307 3.402259l-49.617366-28.835254c-3.261025-1.89512-5.907271-6.508669-5.896625-10.280482zm6.006462-28.680419c-8.030014-4.666525-14.5858801-.905972-14.6120679 8.386641l-.0430472 15.26768c-.0261091 9.287751 6.4872971 20.643371 14.5170561 25.309895l49.617366 28.835254c8.034082 4.668828 14.589948.908276 14.616136-8.379219l.043047-15.267936c.026109-9.292358-6.487042-20.647977-14.521124-25.317062z" fill="#ad8500"/><path d="m111.333654 103.569083c2.649806-1.550134 6.317124-1.335669 10.357175 1.012437l49.61762 28.835253c8.033828 4.668829 14.547234 16.024448 14.521125 25.316806l-.043048 15.267936c-.013221 4.613292-1.637123 7.86302-4.253113 9.393447l-9.044984 5.290725c2.61599-1.530172 4.239892-4.7799 4.252859-9.393192l.043222-15.26768c.025934-9.292357-6.487218-20.648233-14.521046-25.317061l-49.61762-28.835254c-4.04005-2.34785-7.707369-2.562571-10.357175-1.012437z" fill="#f2c300"/></g><path d="m14.9420599 16.3414232 13.4162907-7.62706926c3.3136435-1.88361952 8.6908548-1.88361952 11.9827983.00025438l50.0864693 28.66052378c1.6378342.9373582 2.4575263 2.166226 2.461143 3.39662l.0299667 10.4661074c-.0033584-1.2301396-.8230505-2.4590074-2.461143-3.39662l-50.086211-28.6602694c-3.2922018-1.8838739-8.6694131-1.8838739-11.9827983-.0002544l-13.4162907 7.6270692c-1.6675426.9480419-2.5001514 2.1954788-2.4965347 3.4411351l-.0302367-10.4663618c-.003605-1.2456563.8292621-2.4930932 2.4965464-3.441135" fill="#cda410" mask="url(#c)" transform="translate(148.080439 136.234004)"/><path d="m64.989495 51.8365478-50.0864693-28.6605238c-3.2919435-1.8838738-3.2743768-4.9508287.0390084-6.8344482l13.4162907-7.62706923c3.3136435-1.88387389 8.6908548-1.88387389 11.9827983 0l50.0864692 28.66052373c3.2960769 1.8861633 3.2785102 4.9531181-.0351333 6.8367376l-13.4162907 7.6270693c-3.3133852 1.8838739-8.6905965 1.8838739-11.9866733-.0022894zm-58.77758241-40.4908244c-8.15894616 4.6384607-8.20208785 12.187438-.09610005 16.8256444l50.08621096 28.6607781c8.1098628 4.6404957 21.3458367 4.6407501 29.5045246.0022893l13.4162907-7.6268148c8.1586882-4.6384608 8.2018292-12.187438.0919667-16.8281881l-50.0862109-28.66052381c-8.1059878-4.63820639-21.3417035-4.63846076-29.5003913-.00025437z" fill="#ffde61" mask="url(#d)" transform="translate(148.080439 136.234004)"/><path d="m6.1157092 28.1714441 50.0862109 28.6605237c8.1101212 4.6407501 21.3458368 4.6410045 29.504783.0025437l13.4162907-7.6270692c4.1049192-2.3338567 6.1555702-5.4043728 6.1467872-8.4708188l.030253 10.4663617c.008755 3.0664461-2.041896 6.1369621-6.1470735 8.4708189l-13.4162907 7.6270692c-8.1589462 4.6382064-21.3944035 4.6382064-29.5045246-.0025437l-50.08646931-28.6605238c-4.02664389-2.3043496-6.04242-5.3267895-6.05120334-8.353808l-.02996668-10.4666162c.008525 3.0272729 2.02430111 6.0497128 6.05120333 8.3540625" fill="#b58f0d" mask="url(#e)" transform="translate(148.080439 136.234004)"/><g transform="translate(183.619744 107.605119)"><path d="m171.567462 135.326476-152.1520425 88.5972-19.38584484-11.121006 152.15178734-88.5972z" fill="#e6e6e6"/><path d="m163.858317 122.116879-.267118-89.8569987-.040387-18.7904352-148.3806982 85.8330195.0403871 18.7904354.2668622 89.857254.0033229 1.142245c.0148257 5.253556 3.7261005 7.372856 8.292152 4.731607l131.853141-76.272228c4.56324-2.639711 8.250231-9.038586 8.235704-14.292142z" fill="#fff"/><path d="m19.6584839 118.337022.2502471 84.232085 139.501143-80.696761-.249992-84.2315719zm-.196568 85.011167-.2533145-85.271373.1127262-.065052 140.2856254-81.1495602.253315 85.2700922-.112982.065052z" fill="#50c7c3"/><path d="m155.253522 5.97885631c4.56324-2.6397118 8.274515-.52041277 8.289596 4.73288779l.007668 2.7577778-148.3806978 85.8330195-.0079686-2.7575218c-.0147811-5.2535566 3.6724659-11.6526872 8.2385174-14.2939356z" fill="#fd5b5b"/><path d="m25.9934426 85.2057069c.5408814-.3129647.9767051-.0545511.9784944.5588291l.0069071 2.4816928c.0017838.6133802-.4312281 1.3648029-.9721095 1.6777677l-3.5162405 2.0340149c-.5329574.3080987-.9767051.0640271-.9784944-.5493531l-.0071612-2.4816927c-.0015297-.6133803.4394062-1.378889.9723636-1.6872438z" fill="#fff"/><path d="m34.2404019 80.4289222c.5408814-.3129648.9769607-.0545512.9784944.558829l.0071612 2.4816928c.0015297.6133802-.4314822 1.364803-.9723637 1.6777677l-3.5080608 2.0294049c-.5408814.3127087-.9767051.0640272-.9784944-.549353l-.0069071-2.4819489c-.0017838-.6131241.4312281-1.3740229.9721095-1.6869876z" fill="#fff"/><path d="m42.7520761 75.5618591c.5327017-.3083548.976705-.0545511.9784943.558573l.0069071 2.4819488c.0017839.6133802-.4391521 1.369413-.9721095 1.6777678l-3.5162405 2.0340148c-.5408814.3127087-.9767051.0640272-.9784944-.549353l-.0069071-2.4816928c-.0017838-.6133802.4312281-1.374279.9721095-1.6872437z" fill="#fff"/><path d="m153.180152.7083709c-1.502505-.87486713-3.583212-.75142276-5.879146.57675667l-131.8531409 76.27248373c-4.5657959 2.6412485-8.25329854 9.040123-8.23851741 14.2936796l.00796861 2.7575218 7.9526952 4.6937031-.0076684-2.7575218c-.0148257-5.2535566 3.6724213-11.6524311 8.2382172-14.2936795l131.8528857-76.2724838c2.296445-1.32817943 4.376896-1.4516238 5.879146-.57675667z" fill="#cf4949"/><path d="m15.2231795 118.087649-7.95269527-4.675263.25433697 89.853669 7.9524396 4.675007z" fill="#c9c9c9"/><path d="m13.0307181 211.572068 4.8597532 2.829745c-1.4830785-.863599-2.4025258-2.699641-2.4099386-5.309389l-.003323-1.151464-7.95243962-4.675007.00332299 1.133024c.00715722 2.609491 4.01954653 6.309493 5.50262503 7.173091" fill="#c9c9c9"/><path d="m7.21734186 94.6089407.05316793 18.8034963 7.95269521 4.675264-.0531679-18.7853133z" fill="#c9c9c9"/><path d="m57.9489527 89.7683849c-1.1827308 0-2.3784979-.8620617-2.3836102-2.7877426l-.0097326-3.4541373c-.00586-1.9856103 1.3399532-4.3220895 3.0635655-5.3191204l60.5552036-35.0292599c.55494-.3209041 1.105791-.4835331 1.637726-.4835331 1.182475 0 2.377986.8618056 2.383354 2.7879987l.009988 3.4536251c.00586 1.9858664-1.339953 4.3223456-3.063565 5.3193765l-60.5552037 35.0290038c-.5549402.3211602-1.1060463.4837892-1.63747.4837892z" fill="#fff"/><path d="m59.0896093 79.0238333 52.3517497-30.2838228.026584 9.4445185-52.3517497 30.2838228c-1.4368122.8310726-2.6054842.1639095-2.6100852-1.4902962l-.0097286-3.4541373c-.0048415-1.6539496 1.1564176-3.6690124 2.5932298-4.500085" fill="#fff"/><g fill="#969696"><path d="m63.675062 81.2715452c.0040898-.2497059-.0897209-.5805983-.4693092-.3608571-.3409905.1972037-.4889916.6448816-.5150643.9304428zm.3259163-.0911747c.0002485.0793937-.0063975.1441892-.0099761.1867033l-1.3031255.7539838c.0084353.5206689.3008589.5677929.6385264.372382.2413006-.1393231.3864899-.2722435.5130194-.4059322l.0580246.2445837c-.1193722.1298471-.3218194.3185992-.6170547.4894236-.5707884.3301241-.913057.094248-.9148536-.5490969-.001782-.6448816.3259165-1.3427776.8662867-1.6554863.6058077-.3503566.7681232.1705684.7691528.563439z"/><path d="m61.3520836 80.8652289c.2635391-.1526408.4560172-.1936182.571044-.1843983l-.0917658.3664915c-.0833305-.0043538-.2568931.0069149-.490014.1418842-.3527488.2038625-.4869467.5247666-.4864355.7270924.0007669.2791585.1595038.3239775.5160868.2771096.4378686-.0583928.6599981.0548072.6612803.4919847.0012739.4586906-.292939 1.027764-.9025809 1.3801695-.2482022.1436769-.5204322.2174362-.6589756.1908009l.0833305-.3713575c.1492792.0204887.3685969-.0186959.5983949-.1513602.3409904-.1972037.5396033-.5204128.5388365-.8198038-.0007669-.2778779-.1395658-.3572715-.4882248-.3096353-.422276.0711982-.6830034-.0291964-.6842814-.4487024-.0012781-.4630444.3305102-.999592.833305-1.2902753"/><path d="m65.3981187 80.8316018-.0010293-.3711014c-.0168706.009476-.0339968.018952-.0508674.0289402-.354538.2051431-.7341264.5104246-.7328515.9071369.00077.2507303.146215.2855611.3184995.1859348.2413006-.1398353.3946697-.4041394.4478376-.6174779.0117583-.0458434.0186599-.094248.0184111-.1334326zm.3264136.0192081c.0005112.1849105.0092021.3608571.0319519.4937775l-.3059712.1769711-.0276065-.2543159-.0117583.0069149c-.1027572.2281928-.3013701.4932653-.5664429.6464183-.3760097.2176923-.5679766.0233058-.568748-.2858173-.0015292-.5104245.388795-1.0195685 1.0932701-1.4272935.006646-.0035855.013292-.0074271.0201936-.0112688l-.0002557-.0445629c-.0005112-.1767149-.0434545-.4694471-.4232985-.2497059-.1722845.0996263-.3524931.2645602-.4823455.4371775l-.0779626-.2105213c.1531134-.2033503.3754985-.407725.608875-.5426943.5672098-.3280751.7067756.0371358.7080537.4663739z"/><path d="m67.0850689 78.3880692c.0373198-.0215131.064415-.0332941.0948332-.0414896l.0012781.3657232c-.0342524.0115249-.0682492.0271475-.1150268.054295-.2366995.1370181-.4048942.4410191-.4509049.7596182-.0069016.0566-.0148257.1234444-.0148257.1895204l.003323 1.1386591-.3328108.1925937-.0040898-1.4692953c-.0007669-.252267-.0051123-.4661178-.0173819-.657687l.295491-.1708245.0117583.4133594.0163594-.0094761c.082308-.3352462.2857776-.634125.5119969-.7649965"/><path d="m68.3426694 77.6647672c.1991241-.1152489.3749872-.1590435.4677755-.1598118l-.0766845.34421c-.0807744-.0058905-.2062814.0181837-.3903242.1247249-.4253434.2458643-.655397.7411784-.6541189 1.1875758.0015337.4937775.278876.638735.6469617.4259087.1909444-.1103828.3174739-.2417666.4133295-.3457467l.0582802.2581575c-.0876759.1034679-.2832214.2881222-.5329573.4325675-.5587745.3234652-.9245596.0970652-.9266091-.5560118-.0015291-.6569187.3882838-1.3609614.9943471-1.7115741"/><path d="m69.5316372 76.0228034.0038342 1.3330455.0069016-.0040977c.0536792-.1418842.1377765-.2878661.2418118-.4143838.0984118-.1229321.2177841-.2366444.3443135-.3098914.2487134-.143677.6484954-.197972.6507959.5385964l.0035786 1.2710672-.3376675.1951548-.003323-1.2265043c-.0010224-.3439539-.1132374-.5711223-.4319894-.386724-.217784.1262615-.3895573.4026028-.4514161.6502598-.0184043.063515-.0217273.1221638-.0214717.1977159l.0035786 1.2884826-.3374119.1954109-.0089465-3.1329771z"/><path d="m71.4787081 77.5264429c.133431-.0773448.2264749-.0161348.2269884.1470064.000509.1592995-.087167.3288435-.2290333.4107982-.1347092.0778571-.226475.0122932-.2269867-.1470063-.0002551-.1633973.0956005-.3334535.2290316-.4107983"/><path d="m72.2720094 77.0674962c.1347091-.0781131.2264749-.0161348.2269884.1470064.000509.1592996-.087167.3288435-.2290334.4107982-.1347091.0778571-.2264749.0122933-.2269866-.1470063-.0002551-.1633973.0956005-.3334535.2290316-.4107983"/><path d="m73.0653107 76.6085495c.1347091-.0781131.2267305-.0161348.2272423.1470064.000255.1592996-.0871653.3288435-.2290316.4107983-.1347092.077857-.2267306.0122932-.2272418-.1470064 0-.1633973.0956-.3334535.2290311-.4107983"/></g><path d="m111.441257 48.740113.026584 9.4445185-52.3514944 30.2838227c-1.4368121.8310726-2.6057397.1636535-2.6103408-1.4902962l-.009727-3.4541372c-.0045874-1.6542058 1.1564161-3.6690125 2.5932283-4.500085zm11.203863-3.4807726c-.005368-1.8998139-1.351692-2.668396-3.001687-1.7138791l-60.555204 35.0290038c-1.6489727.9537486-2.9876286 3.2756296-2.9822768 5.1754435l.0099851 3.4538812c.0053679 1.8998139 1.3527148 2.6676276 3.0016874 1.713879l60.5549483-35.0290037c1.650251-.9547731 2.987884-3.2758857 2.982278-5.1754435z" fill="#5cbcff"/><path d="m115.735794 47.9242789c.394414-.2281928.78934-.2830001 1.090965-.1101267.604274.3449783.607597 1.4690392.006902 2.5111452-.299581.5204128-.693484.9219912-1.087898 1.150184s-.789594.283-1.091731.1106389c-.60453-.3449784-.607597-1.4690392-.007158-2.5108892.300092-.5211811.694251-.9227594 1.08892-1.1509522" fill="#5cbcff"/><path d="m115.745789 51.4754045c-.394414.2281928-.789595.2830001-1.091732.110639-.604529-.3452345-.607597-1.4690392-.007157-2.5108892.300092-.520925.69425-.9227594 1.08892-1.1509522.394414-.2281928.789339-.2830001 1.090965-.1098707.604274.3449784.607341 1.4687831.006902 2.5108892-.299581.5206689-.693484.9219911-1.087898 1.1501839m4.09981-.3547104-1.905866-1.0894862c-.043455-.0248426-.100457-.0169032-.157203.0158787-.05598.0325258-.11196.0893819-.155159.1628851l-.256893-.1467502c.536792-1.2014057.458318-2.3920548-.233121-2.7869743-.388535-.2217901-.896442-.1513602-1.403582.1421403-.50714.2932444-1.013769.8095594-1.399492 1.4795396-.771191 1.3379116-.766845 2.7828766.008946 3.2259445.388535.2217901.896442.1516163 1.403582-.1418842.396971-.2294733.793174-.5957087 1.132119-1.0654119l.256638.1467502c-.084609.1490552-.083586.3091231.002812.3585521l1.905865 1.0894862c.075407.0430262.174074.0291964.272486-.0276597.098156-.0571123.196568-.1569946.271463-.2868417l.259194-.4515196c.149535-.2591819.148768-.5385964-.001789-.6246489" fill="#fff"/><path d="m69.7066057 96.2038829.1398214 60.7702271 42.8167979-24.76801-.139822-60.7699719zm-.6464505 62.1383601-.1436556-62.5942335 44.3931754-25.6797577.143656 62.5939772z" fill="#c2c2c2"/><path d="m41.8676736 140.871075.0120139 4.226817-.4803007.277877-.0104802-3.693598-.0112471.006402-.6369926.766021-.0973894-.380321.800842-.958103z" fill="#969696"/><path d="m44.3356879 139.371686c.790873-.45741 1.1257287-.026123 1.127518.578806.0020449.780619-.4874579 1.695439-1.2589041 3.001337l-.2926792.481997v.013061l1.6492282-.953748.0012781.474569-2.3439899 1.355839-.0007669-.351125.3885349-.661016c.9345286-1.569946 1.356549-2.361322 1.3603833-3.00185-.0012781-.429238-.1830204-.721202-.7310591-.404395-.3330664.19285-.6093862.548072-.7783478.808535l-.1592481-.311684c.2535701-.394152.6144985-.78523 1.0380526-1.030326" fill="#969696"/><path d="m48.2953695 137.152736.001278.481228-1.4007704.810327-.1380321 1.167856c.0846085-.062235.1635936-.120883.2993252-.199253.2824546-.163397.5649092-.25534.7913842-.229729.2885893.021769.5268226.248681.5283632.7819.0022936.82595-.5664499 1.773552-1.3629464 2.234291-.40106.232035-.7402611.298111-.915613.269427l.1229508-.507864c.1528578.015879.4524386-.027147.7857606-.219997.468798-.271219.8688356-.854379.8673019-1.420123-.0071572-.54295-.3246311-.750142-1.0590131-.325258-.2088375.120884-.3726868.241767-.5081628.339601l.2315873-2.166167z" fill="#969696"/><path d="m38.7764442 142.105595.0017893.630796c.3389455-.183118.5707884-.213083.7348932-.197204l-.140077.510937c-.1186054-.009476-.3507039-.018696-.7121435.190545-.4348012.251498-.5978836.645393-.5971168.9056.0010225.338063.2103712.386468.7024302.336014.5825467-.063259.8772708.104749.8788102.683554.001528.513754-.3077662 1.174771-.8892904 1.62168l.0020449.674334-.3558162.205912-.0020449-.65487c-.3274429.183117-.6668996.262255-.8647457.21385l.1341979-.51401c.2037252.038417.4976825-.007939.8141339-.191057.40106-.231778.6712451-.655126.6704783-1.025971-.0012781-.357528-.2221295-.451263-.6405713-.404652-.5769232.073248-.9335061-.020232-.9350398-.585976-.0015337-.539365.3302546-1.141989.8496644-1.540237l-.0017893-.656663z" fill="#969696"/><path d="m34.5561887 119.711839.0526567 20.937138 16.1451573-9.33977-.0531679-20.936882zm-.6150098 22.098847-.0564909-22.486595.1681947-.096809 17.3156186-10.016665.0570022 22.486595-.1681947.096809z" fill="#c2c2c2"/><path d="m37.5783765 121.118439 10.1200551-5.854131.0329744 11.615551-10.1200552 5.854132z" fill="#ffd078"/><path d="m45.4684971 132.218162.0028118.987299-5.5867224 3.232091-.0028118-.987555z" fill="#6cc5c1"/><path d="m46.9927041 129.420969.0028117.987299-8.6459232 5.001546-.0028117-.987555z" fill="#6cc5c1"/><path d="m41.8774125 181.162163.0120139 4.224769-.4803006.277621-.0102247-3.691294-.0115026.006403-.6369927.766021-.0973893-.380321.8008419-.958103z" fill="#969696"/><path d="m44.3003875 179.689026c.7228793-.418225 1.0518559-.113456 1.0533896.400042.0012781.435897-.2236632.935053-.6750793 1.385036v.01511c.4524386-.157251.8205243.01844.8223188.610051.0017841.676383-.4539776 1.53281-1.3350826 2.042466-.4125627.238437-.774258.298111-.955489.266097l.1344535-.520669c.1413551.022282.4695648-.00461.8138783-.203862.6382707-.369309.8345831-.951956.8281927-1.299752-.0074128-.586488-.4713541-.572146-.9513992-.294268l-.2768311.160067-.001278-.431286.276831-.160324c.3616953-.208985.8184794-.688164.8169457-1.186552-.0007668-.338319-.1881327-.529632-.6456836-.264816-.2937017.1698-.5756451.482509-.7333595.704299l-.1311306-.341137c.1917113-.27378.5638868-.651797.9593233-.880502" fill="#969696"/><path d="m48.3051084 177.44408.0012781.480972-1.4007705.810328-.1380321 1.167856c.0846086-.062235.1635936-.120884.2993252-.199253.2824546-.163397.5651649-.25534.7913842-.229729.2885894.01972.5268226.246632.5283632.77985.0022936.825695-.5661942 1.773553-1.3626907 2.234292-.4013156.232035-.7405168.297855-.9158687.26917l.1229508-.507351c.1528578.015623.4526943-.027659.7857607-.220253.468798-.271219.8688355-.854379.8673018-1.420123-.0071572-.54295-.3246311-.748093-1.0590131-.323209-.2088375.120884-.3724311.241767-.5079071.337295l.2313316-2.163862z" fill="#969696"/><path d="m34.5561887 159.226868.0526567 20.935089 16.1451573-9.33977-.0531679-20.934833zm-.6150098 22.096797-.0564909-22.484546.1681947-.096809 17.3156186-10.016921.0570022 22.484546-.1681947.097065z" fill="#c2c2c2"/><path d="m37.5785043 160.633211 10.1200551-5.853619.0329744 11.613247-10.1203108 5.854387z" fill="#6edb75"/><path d="m46.9927041 168.933974.0028117.989348-8.6459232 5.001802-.0028117-.98986z" fill="#6cc5c1"/><path d="m45.4684971 171.733421.0028118.987043-5.5867224 3.232091-.0028118-.987555z" fill="#6cc5c1"/><path d="m141.569401 85.1022903c.028118-.068381.044988-.1431648.044735-.2343394-.002047-.7217142-.235168-1.1404518-.754834-.8397803-.423809.2448399-.721857.8472074-.720075 1.4454772.001541.5268155.279395.7373368.708573.4889114.333066-.1925937.592515-.5314254.721601-.8602689m-.671756-1.5328103c.751252-.4346163 1.216472-.0002561 1.219554 1.0792419.002285.9299305-.266622 1.7371849-.627294 2.3492846-.281433.4819964-.670734.9025268-1.065659 1.1832219-.140078.1065412-.266607.1892643-.37192.249962-.030419.0176715-.059047.0332942-.085631.0473801l-.001278-.4684227c.029906-.0135737.061347-.0299647.094577-.0491728.085631-.0496851.184043-.1172978.306483-.2020698.287822-.212314.558518-.5055584.766845-.8541223.242067-.3941512.416141-.8659033.482601-1.4060364l-.017126.0097321c-.202447.4038833-.495638.7427151-.862701.9552852-.661021.3823702-1.086108.0550634-1.08816-.6669069-.002038-.7998273.498456-1.7927605 1.249709-2.2273769" fill="#969696"/><path d="m137.336515 86.7171065c.001281.4225793.278879.4901919.702689.3751992.31594-.306306.558263-.707116.55699-1.0907667-.000772-.3380635-.177146-.5880255-.623194-.329868-.412308.2384372-.637504.681249-.636485 1.0454355zm.64083 2.5019254c.446304-.2581576.73336-.7434834.732086-1.1791242-.001538-.513754-.312877-.5811106-.810304-.4561295-.428922.391334-.659487.8505368-.658209 1.2536518-.016104.4389702.267629.6528209.736427.3816019zm.491803-2.1928023c.458062-.0566.741284.1505919.742825.6643459.002293.7347757-.544467 1.5458717-1.244597 1.9510356-.768379.4443485-1.232831.1856788-1.234627-.4323114-.001527-.5332182.274026-1.070278.725442-1.5527867l-.005879-.0163909c-.407451.014342-.583314-.2486815-.584336-.612868-.002045-.6697241.488224-1.4091098 1.132119-1.7817479.711632-.4115666 1.068726-.103724 1.07026.4230915.001022.3575277-.150302.8295359-.601207 1.3379116z" fill="#969696"/><path d="m135.236666 86.3621911.001789.6307956c.338946-.1831176.570789-.2130824.734894-.1972036l-.140077.5109367c-.118861-.009476-.350704-.0186959-.712144.1905449-.434801.2514986-.597884.6453937-.597117.9056001.001023.3380634.210371.3862119.70243.3360146.582547-.0632589.877271.1047484.878809.6835539.001274.513754-.30802 1.1747704-.889289 1.6219361l.002045.6761268-.356072.2059114-.001789-.6566626c-.327698.1828616-.6669.2619991-.864746.2135946l.134198-.51401c.203725.0384162.497683-.0079394.814134-.190801.40106-.2320344.671245-.655382.670478-1.0262273-.001022-.3575277-.222129-.4512635-.640571-.4046517-.576923.0732471-.933762-.0199765-.93504-.5857205-.001533-.539877.330255-1.1422445.84992-1.5404935l-.002045-.6566625z" fill="#969696"/><path d="m131.011043 63.918315.053168 20.935345 16.145157-9.3392578-.053168-20.9353451zm-.614499 22.0973099-.056746-22.4842901.167683-.0975774 17.316385-10.0164091.056747 22.4842901-.167683.0973213z" fill="#c2c2c2"/><path d="m134.033742 65.3251454 10.120055-5.8541314.032974 11.6132465-10.120055 5.8543875z" fill="#78e6ff"/><path d="m143.448069 73.6255497.002812.9872988-8.645923 5.0015457-.002812-.9872988z" fill="#6cc5c1"/><path d="m141.923862 76.4228451.002812.9893477-5.586978 3.231835-.002556-.9893477z" fill="#6cc5c1"/><path d="m139.337013 123.898627.012013 4.227073-.480045.277622-.01048-3.693599-.011503.006402-.636992.766021-.09739-.380321.800842-.958102z" fill="#969696"/><path d="m145.764581 120.180544.001533.481228-1.401026.810328-.138032 1.167599c.084609-.062234.163849-.120883.299325-.199253.282455-.163141.56491-.25534.791384-.229729.28859.022025.526823.248681.528364.7819.002293.82595-.566195 1.773808-1.362691 2.234548-.40106.231778-.740261.297854-.915869.26917l.123207-.507864c.152602.016135.452438-.027147.78576-.219741.468798-.271475.86858-.854378.867302-1.420122-.007413-.542951-.324631-.750399-1.059013-.325258-.208837.120627-.372687.24151-.508163.339344l.231332-2.165911z" fill="#969696"/><path d="m136.245911 125.133147.001789.630796c.338946-.183118.570533-.212827.734893-.197204l-.140077.510937c-.118861-.009476-.350703-.018696-.712143.190801-.435057.251242-.598139.645137-.597372.905344.001022.338063.210371.386468.702685.33627.582291-.063515.877271.104749.878555.683554.001528.513754-.307766 1.174515-.889035 1.62168l.001789.676383-.355816.205912-.001789-.656919c-.327699.182861-.6669.261999-.865001.213851l.134198-.514267c.20398.038673.497938-.007939.814389-.1908.400804-.232035.67099-.655382.670223-1.026228-.001023-.357527-.22213-.451007-.640316-.404651-.576923.073247-.933762-.019977-.935295-.585721-.001534-.539621.33051-1.142244.84992-1.540493l-.00179-.656663z" fill="#969696"/><path d="m142.234639 122.222652.011758 4.226817-.480045.277621-.01048-3.693598-.011247.006402-.636993.766021-.097389-.380321.800842-.958103z" fill="#969696"/><path d="m130.974848 103.294379.052401 20.935089 16.145157-9.339514-.053168-20.9350891zm-.615266 22.096798-.05598-22.484547 17.483303-10.113474.057002 22.484546z" fill="#c2c2c2"/><path d="m133.997291 104.700979 10.119799-5.8541317.032975 11.6132467-10.120055 5.854387z" fill="#e2b3ff"/><path d="m143.411363 113.001511.003067.987299-8.646179 5.001546-.002811-.987555z" fill="#6cc5c1"/><path d="m141.887156 115.798678.003067.989348-5.586978 3.231835-.002556-.989348z" fill="#6cc5c1"/><path d="m97.5409367 109.481247c.2034696.765508.3417573 1.675206.3454325 2.854843.0165184 6.006516-2.1153111 14.873253-2.1022747 19.398949.0092022 3.257446.4583178 4.259087.48209 4.311845-1.5027609 1.869849-3.6578513 3.616766-5.7375353 4.819709-2.079684 1.203198-4.0844728 1.862422-5.2863747 1.557396.023261-.080162.4649638-1.597093.4557616-4.854539-.0127807-4.525952-2.1883203-10.901008-2.205254-16.907524-.0032599-1.161453.1250588-2.213035.3180482-3.197773.282199.292476.7121435.422067 1.3660068.043795.2464129-.142397.5242664-.357016.8379061-.661785.2891006-.280951.6602536-.547048 1.0585019-.77729.9347842-.540901 2.0175695-.883831 2.5300777-.755777.153369.038673.3706418-.040977.6252344-.187983.3420129-.197972.750997-.518108 1.1602366-.838756.4094953-.320904.8197575-.642577 1.1638153-.841573.2482022-.143421.4618964-.223327.6162879-.19413.1104257.021.2512696-.026124.4135851-.119603.3680857-.213083.8460858-.668444 1.3225523-1.123293.4769776-.45408.952166-.908161 1.3151394-1.117914.1086364-.062747.2073038-.103724.2926792-.116273.0881872-.013062.1715177-.043795.2499915-.089126.3504482-.202838.6029959-.698408.7780922-1.203198" fill="#28a3d2"/><path d="m97.5456911 109.46775c-.1796973.518107-.432245 1.013934-.7829488 1.216772-.0782182.045331-.1612931.076064-.2497359.088869-.0856311.01255-.1842985.053783-.2929349.11653-.3627177.209753-.8381617.663834-1.3148838 1.11817-.4764664.454337-.9544665.909954-1.3228078 1.123037-.1623156.093735-.3029038.140603-.4130739.119602-.1549027-.029452-.3683413.05071-.6162879.194131-.3443134.199252-.7545756.520669-1.1643265.841317-.4089841.320648-.8179681.64104-1.1599811.839012-.2545926.147006-.472121.226656-.6252344.187983-.5125081-.128054-1.5955491.214875-2.5303333.755521-.3979926.230498-.7691456.496594-1.0582463.777546-.3136396.304769-.5917488.519388-.8379061.661784-.6538632.378273-1.0838077.248426-1.3660068-.043794-.0066459-.006915-.0130363-.01383-.0196823-.020745.3161958.039953.7195563-.047892 1.1942335-.322697.3131284-.181069.6574419-.443324 1.0278281-.803413.2891006-.280951.6602536-.547048 1.0582462-.777289.9350399-.540646 2.0178252-.883831 2.5303333-.755521.1531135.038416.3708975-.040977.6252344-.18824.342013-.197972.750997-.518364 1.1599811-.838756.4097509-.32116.8200131-.642576 1.1643265-.841573.2479466-.14342.4616408-.223326.6160323-.19413.1104257.020745.251014-.026123.4133295-.119859.3683413-.213082.8463414-.668443 1.3228079-1.12278.476722-.454337.952166-.908161 1.3151394-1.11817.1083807-.063003.2070481-.103981.2926792-.11653.1260182-.01844.2482022-.065051.3652739-.132664.2479466-.143421.4736546-.38109.6689445-.644113" fill="#2599c2"/><path d="m99.0042306 86.248274c.7826932-.1836299 1.3141174.3383195 1.3166734 1.2774699l.005112 1.7663814c-.57769.8200598-1.4667192 1.5007966-2.3777312 2.0276121-.2937017.1698-.5897039.3239774-.8780376.4612517-.4227873 2.2304502-1.2568592 7.229947-1.2443341 11.6795789.0023006.796241.094322 1.447782.237722 2.023258-1.4899801 1.611948-3.5921582 3.219798-5.6350336 4.401483-1.9812722 1.146086-3.9068203 1.891362-5.1631683 1.850385.1403327-.741178.2282643-1.498492.2259637-2.297038-.0125251-4.440668-.874459-8.449025-1.3077265-10.1905633-.3085274.2353639-.627535.447934-.9437308.6310517-.9248152.5350106-1.825347.8154496-2.3593268.6674196l-.0051214-1.7663818c-.0025471-.9391504.5334777-2.0788339 1.3146373-2.7997797l2.097577-1.9351569c1.0656591-.9427359 2.120838-1.7996755 3.1790843-2.5790141-.0572578.24023-.0886984.4740571-.0879316.6961033.003323 1.2331632.9524217 1.7305261 2.2606595 1.3289478.0222385 2.4819489.4626632 4.2268171.9963874 3.9182061.5339798-.308867.9629019-2.5572448.9710815-5.0573774 1.3049148-1.1107431 2.2476231-2.7014339 2.2440445-3.9338287-.0007668-.2315223-.034508-.4361531-.0981562-.6144047 1.0725608-.4548489 2.174006-.8377314 3.1913538-1.0807785z" fill="#28a3d2"/><path d="m93.752415 87.8021876c-.0838417.0355991-.1543915.0701738-.2139498.1050046-.6709895.3880045-.0495893.7739603-2.9186125 2.4353371-.0061348.0035855-.0127808.0074271-.0189155.0110126-1.4582839.8433658-2.0157803.9844817-2.2921001.9634807-.2763199-.0217692-.270952-.2061674-.6052965-.0130615-.0334855.0197204-.0705497.0427701-.1117037.0704299-.0375754.0253547-.0782182.0540389-.1239733.0911747-.0572578.2399738-.1382878.473801-.1377789.6958471.003581 1.2323948.6183352 1.7292456 2.208772 1.3289478v.0007683c0 2.4819489.5130193 4.2268171 1.0464879 3.9184623.5339799-.308867.9884634-2.5572448.9963875-5.0573774 1.3049148-1.1107432 2.2604038-2.7016901 2.2568352-3.9338288-.0007769-.2315222-.0219929-.4364091-.0861523-.6161974" fill="#1b6685"/><path d="m96.1457898 105.394265 2.1525343 2.682226c-.0145701.03816-.2901231.767813-.7525307 1.391182-.1952899.263279-.4212536.500692-.6692002.644113-.1170717.067869-.2390001.114224-.3650183.132664-.085631.01255-.1842984.053527-.2929348.116786-.3629734.209753-.8381617.663577-1.3148838 1.117914s-.9547222.909954-1.3228078 1.123036c-.1623156.093736-.3031595.140348-.4133296.119603-.1546471-.029196-.3683412.050966-.6162878.194131-.3440579.198996-.7545756.520412-1.1640709.841573-.4092397.320391-.8179682.640783-1.1599811.839011-.254337.147007-.472121.226401-.62549.187984-.5122526-.12831-1.5952935.214875-2.5300777.755521-.3982483.230498-.7694013.496594-1.0585019.777289-.3703862.360345-.7146997.622344-1.0275725.803413-.4749327.274805-.8782933.36265-1.1942335.322697-.3438022-.043538-.5838247-.238693-.699874-.5094l2.0978327-5.201823c.0247947.001537.0506118.002818.0761733.003586 1.2566035.040977 3.181896-.704299 5.1634239-1.850385 2.0428754-1.181685 4.1447979-2.789535 5.634778-4.401483.0276064-.029965.0549572-.059673.0820524-.089638" fill="#45abff"/></g><path d="m17.1074369.63994697c.273545.33403623.3004687.77094683.3758551 1.16827158.0586937.40709902.0856174.81713034.1006947 1.22740601.0140003.41027567.0115772.82152877-.0166927 1.23302623-.0336546.41174181-.0662323.82226184-.2226591 1.23693594-.0201928.05400293-.085079.08259272-.1443112.06426593-.0595014-.01857114-.0910021-.07721686-.0708093-.13097544.0005385-.00146614.0010769-.00268792.0016154-.00390971l.0040386-.00952993c.1537344-.35578402.2129666-.76923634.2619677-1.16949337.0471165-.40392238.0683863-.81175448.0729633-1.21934222.0040385-.40758774-.0037693-.81639727-.0433472-1.22276323-.0565398-.39781346-.0630015-.83203613-.3193153-1.17389179" fill="#0f0f0f" mask="url(#f)" transform="translate(263.583181 194.478976)"/><path d="m3.31614027 7.79240321c.2065049.36409217.25308293.78145419.31177663 1.18219994.05034735.40489981.07807878.81199884.09396377 1.21934225.01534652.4073434.01426957.8154198-.00269237 1.2237406-.02288516.4100313-.04092405.8149312-.16288848 1.2337593-.01615423.0552247-.07834802.0879686-.13919562.0733072-.06084759-.0146615-.09665614-.071108-.08077114-.1260883.00026923-.0012218.00080771-.0024436.00107694-.0039097l.00350009-.0097743c.12519528-.3640922.16908094-.7773001.20812032-1.1765797.03527007-.402945.05546286-.8080892.05923218-1.2132333.00323085-.40538857-.00565398-.81126581-.03688549-1.21592127-.0398471-.4009901-.06677082-.81615291-.25523683-1.18684272" fill="#0f0f0f" mask="url(#g)" transform="translate(263.583181 194.478976)"/><g transform="translate(265.557587 207.312614)"><path d="m18.6383564 45.9224173.0058667 2.1096654-18.4420268 10.6640542-.00612175-2.1099208z" fill="#6cc5c1"/><path d="m15.3871715 51.8910228.0058667 2.1050669-11.91649641 6.8910284-.00612175-2.1050669z" fill="#6cc5c1"/><g fill="#dcdcdc" transform="translate(9.437698 73.575153)"><path d="m95.6957818 45.5978436c1.7972437 0 3.5138844.399554 4.7101762 1.0954523l49.455067 28.7839795c.859341.5004643 1.243736 1.0410373 1.242718 1.3544981 0 .320103-.393835.869362-1.272051 1.3774904l-13.247467 7.659991c-1.208025.6981975-2.931553 1.098518-4.728542 1.098518-1.798519 0-3.516435-.3998096-4.715023-1.0972407l-49.4548115-28.7839795c-.8573001-.499187-1.2404196-1.0384826-1.2404196-1.3514325.0010203-.3203585.3948529-.8703839 1.2730689-1.3785123l13.2474669-7.6602464c1.2077703-.698453 2.931553-1.0985179 4.7298171-1.0985179m36.1190902 53.2400539c5.919987 0 11.522153-1.3539872 15.774729-3.8136454l13.247467-7.6602465c4.677527-2.7038869 7.256059-6.4477892 7.26219-10.5421954.005602-4.0732022-2.53926-7.7994772-7.165518-10.4926343l-49.453791-28.7839795c-4.228854-2.461702-9.820818-3.8172221-15.7433556-3.8172221-5.9202423 0-11.5236841 1.3542427-15.7760046 3.81339l-13.2474669 7.659991c-4.6775271 2.7051642-7.2560592 6.4495775-7.2621902 10.5447501-.0056024 4.0724358 2.5379847 7.7969225 7.1619465 10.4880359l49.4537918 28.7839795c4.231404 2.4632348 9.824388 3.8197767 15.748202 3.8197767"/><path d="m87.2751362 60.1181811-87.02858272-50.59441399 16.07469502-9.29524984 87.0288375 50.59441403z"/></g><path d="m31.3155313 20.9161132c.0053565-1.8733563.6677808-3.1923442 1.7347508-3.81339l9.074219-5.2818274c-1.06697.6210458-1.7291393 1.9402892-1.7347509 3.8136454l-.0431073 15.240531c-.0107131 3.7653618 2.6440858 8.3707065 5.9159061 10.2624566l49.7777342 28.7839795c1.6487914.9534113 3.144794 1.0402709 4.2252828.4118165l-9.0742189 5.2813164c-1.0804888.6289654-2.5762364.5418504-4.2252828-.411561l-49.7779893-28.7839795c-3.2715652-1.89175-5.9263641-6.4970948-5.9156834-10.2624565z" fill="#f2c300"/><path d="m31.2723916 36.1566953.0431397-15.240531c.010713-3.7699602 2.6828569-5.2951118 5.9544221-3.4033618l49.7777343 28.7839795c3.2759014 1.8940493 5.9304452 6.499394 5.9197645 10.2696097l-.0431397 15.240531c-.010713 3.7651062-2.6826018 5.2902579-5.9582482 3.3962086l-49.7779893-28.7839795c-3.2715652-1.89175-5.9263641-6.4970948-5.9156834-10.2624565zm6.0258749-28.62916516c-8.0559679-4.65848237-14.6327679-.90436126-14.6592955 8.37147286l-.0431848 15.240531c-.02594 9.2712357 6.5082629 20.6066633 14.5639757 25.2651456l49.7777343 28.7837241c8.060049 4.6607816 14.6371038.9069159 14.6633768-8.3643198l.043186-15.2407864c.026194-9.2758342-6.5080092-20.6112617-14.5680583-25.2720433z" fill="#ad8500"/><path d="m35.9818096 1.23524507c2.6583699-1.54737744 6.3372866-1.33329418 10.3906503 1.01063648l49.7779893 28.78397955c8.0597938 4.6605261 14.5942518 15.9959536 14.5678048 25.2720432l-.043188 15.240531c-.013009 4.6050893-1.642159 7.8490382-4.266604 9.3764891l-9.0744744 5.2818274c2.6244452-1.5277063 4.2538514-4.7716553 4.2668594-9.3767445l.043108-15.240531c.026272-9.2760897-6.5079307-20.6115172-14.5679798-25.2720433l-49.7777343-28.7839795c-4.0533636-2.34393067-7.7322803-2.55801393-10.3906502-1.01063648z" fill="#f2c300"/></g><path d="m14.9525391 16.1250549 13.385275-7.62706919c3.3056617-1.88387389 8.6703387-1.88387389 11.9546087 0l49.9697175 28.66052379c1.6340165.9373582 2.4517979 2.166226 2.4554061 3.39662l.0301546 10.4663618c-.0036082-1.230394-.8213897-2.4592618-2.4556638-3.3966201l-49.9694599-28.6605237c-3.2845277-1.8836196-8.6489469-1.8836196-11.9548663 0l-13.3850173 7.6270692c-1.6636556.9477875-2.4945813 2.1952244-2.4907153 3.441135l-.0301663-10.4666161c-.0035965-1.2454019.8273292-2.4928388 2.490727-3.4408807" fill="#cda410" mask="url(#h)" transform="translate(336.636197 240.877514)"/><path d="m64.8834423 51.6200524-49.9697175-28.6607781c-3.28427-1.8836196-3.267002-4.9505744.0389174-6.8341939l13.3850173-7.62706925c3.3056617-1.88387389 8.6705964-1.88387389 11.9548663 0l49.9697176 28.66052375c3.2883937 1.8861633 3.2706102 4.9531181-.0350514 6.8367376l-13.3850173 7.6273236c-3.3056617 1.8836195-8.6703387 1.8836195-11.9587324-.0025437zm-58.64057166-40.4908245c-8.13992765 4.6384608-8.18296877 12.1871837-.09613378 16.8258988l49.96945984 28.6605238c8.0912164 4.6407501 21.2960796 4.6407501 29.4360072.0022893l13.3850174-7.6270692c8.1399277-4.637952 8.1827107-12.1871837.0917523-16.8279338l-49.9694599-28.66052373c-8.0870927-4.63820639-21.2919558-4.63820639-29.4318835-.00025437z" fill="#ffde61" mask="url(#i)" transform="translate(336.636197 240.877514)"/><path d="m6.14663377 27.9550758 49.96971763 28.6605238c8.0909587 4.6407501 21.2960795 4.6407501 29.4360072.0025437l13.3847596-7.6273236c4.0956078-2.3336024 6.1412218-5.4043728 6.1324588-8.4705645l.030184 10.4663618c.008991 3.0664461-2.03688 6.1369621-6.1324883 8.4708188l-13.3850173 7.6270693c-8.1399276 4.6382064-21.344533 4.6382064-29.4357495-.0025437l-49.96971757-28.6605238c-4.0175155-2.3043497-6.0283351-5.3270439-6.03709797-8.3540624l-.03015456-10.4663618c.00876287 3.0272729 2.0198402 6.0497128 6.03709797 8.3540624" fill="#b58f0d" mask="url(#j)" transform="translate(336.636197 240.877514)"/><g transform="translate(368.226691 217.184644)"><path d="m171.57475 134.991156-151.3722974 88.116628-20.13952852-11.556936 151.37255292-88.116628z" fill="#d9d9d9"/><path d="m15.970942 96.4198912.0079005 2.742644 147.6205545-85.3678578.309184 109.1949606c.014484 5.225166-3.653666 11.589356-8.193681 14.21483l-131.1772102 75.858715c-4.542563 2.627005-8.2349246.519223-8.2497063-4.705942l-.309141-109.1947058z" fill="#f0f0f0"/><path d="m155.344594 6.34496803c4.539759-2.62547408 8.232376-.51769192 8.246902 4.70721847l.007901 2.742644-147.6205545 85.3678579-.007945-2.7428993c-.0147372-5.2249104 3.6539227-11.5891004 8.1962308-14.2161061z" fill="#ccdefb"/><path d="m25.5153704 85.8505265c.5963643-.3448727 1.0770238-.059989 1.0788078.6157164l.0079055 2.7352411c.001779.6759607-.4758221 1.5043188-1.0719316 1.8489362l-3.876368 2.2418c-.5874443.339512-1.0770237.0707104-1.0788077-.6052502l-.0079055-2.7352411c-.0017791-.6759607.4844872-1.5198904 1.0719315-1.8594024z" fill="#fff"/><path d="m34.6070717 80.5860489c.5963643-.3448727 1.0770238-.059989 1.0788078.6159717l.0079055 2.7352411c.001779.6757054-.4755673 1.5040635-1.0719316 1.8489362l-3.867448 2.2364393c-.5963643.3448727-1.0767689.0704551-1.0788078-.6052503l-.0076522-2.7352411c-.0020323-.6762159.475314-1.5147849 1.0716783-1.8594023z" fill="#fff"/><path d="m43.9907112 75.2220917c.5874443-.3397672 1.0770237-.0602442 1.0785529.6157164l.0079069 2.7352412c.0020325.6759606-.4844887 1.5094242-1.0716782 1.8489362l-3.8763679 2.2418c-.5966192.3448727-1.0770238.0707104-1.0790626-.6055055l-.0076522-2.7352412c-.0020324-.6757053.4753139-1.5142744 1.0719331-1.8594023z" fill="#fff"/><path d="m152.428704.60657769c-1.494479-.8699675-3.564424-.74743686-5.848958.57359652l-131.1774654 75.85897019c-4.5423082 2.6267505-8.21096808 8.9911958-8.1959776 14.2161062l.00769175 2.742644 8.76502615 5.1646662-.0079005-2.742644c-.0147817-5.2251657 3.6536233-11.5893557 8.1959315-14.2163615l131.1774651-75.8587149c2.284534-1.32103339 4.354479-1.44381929 5.848958-.5738518z" fill="#abbedd"/><path d="m16.288009 208.357215-.309141-109.1947053-8.76477131-5.1646662.30888613 109.1949605c.00739084 2.595352.92207097 4.421569 2.39769034 5.280305l8.76477134 5.164666c-1.4756194-.858991-2.3902995-2.685208-2.3974355-5.28056" fill="#c9c9c9"/><path d="m154.899818 27.2944899-69.6420985 39.9306911v65.477052l69.6420985-39.9309466z" fill="#fff"/><path d="m150.541899 35.8859805-60.9265149 34.9334835v38.466705l60.9265149-34.9337385z" fill="#7fa3eb"/><path d="m130.26016 58.2983394c-.370816 0-.792604.1301888-1.238093.3877584l-17.5693 10.1595764c-1.647903.9536967-2.98488 3.2728442-2.979291 5.1702821l.031365 10.970576c.002294.8357611.2676 1.4486695.746475 1.7246187.482189.2779914 1.150422.1986017 1.88288-.2243842l17.568536-10.1605975c1.648667-.9531862 2.986664-3.2728443 2.981074-5.1707927l-.03111-10.9710866c-.002548-.8352505-.266834-1.4471378-.745965-1.7225765-.189103-.109767-.407006-.1633741-.646571-.1633741m-20.365331 29.3205594c-.367248 0-.709266-.0870478-1.014329-.2626751-.718186-.4145619-1.115762-1.2551731-1.11882-2.3668834l-.030855-10.9708313c-.005845-2.1350962 1.497554-4.7444882 3.351126-5.8171418l17.5693-10.1598316c.969729-.5628751 1.903014-.6420095 2.625532-.2248948.718695.4137962 1.115762 1.2538968 1.11882 2.3650965l.031107 10.9710866c.005338 2.1358621-1.498316 4.745254-3.352907 5.8179076l-17.569045 10.1603422c-.56043.3241956-1.107862.4878251-1.609929.4878251" fill="#fff"/><path d="m120.250083 67.9600329c-2.267713 1.3120989-4.107013 4.502235-4.099138 7.1116269.003084 1.1788468.384604 2.0460063 1.074501 2.4437204.696778.4007772 1.648412.2927971 2.681855-.304795 2.266694-1.3105672 4.105484-4.4989164 4.097862-7.1075425-.003082-1.1801232-.385112-2.0488143-1.075773-2.4470389-.694484-.4002667-1.646373-.293563-2.679307.3040291m-2.088039 10.538145c-.474288 0-.915445-.1120644-1.30665-.337725-.929716-.5360715-1.442743-1.6316996-1.447355-3.0862403-.008131-2.8473056 1.997336-6.3274309 4.471228-7.7582313 1.269695-.7349285 2.485106-.844185 3.420939-.3042844.928698.5353057 1.443508 1.632976 1.447607 3.088793.007624 2.8465398-1.997077 6.3248782-4.469695 7.7546575-.739084.4275808-1.459054.6430305-2.116074.6430305" fill="#fff"/><path d="m123.392974 59.109773-6.326813 3.659071c-.523731.3027528-.99598.9871374-1.148384 1.6638639l-.251289 1.1173262 8.876909-5.133523-.357309-1.1517879c-.044345-.1416761-.116979-.2343399-.215609-.2726307-.14272-.0551388-.352466-.0127636-.577505.1176805zm-8.824408 7.9336032.624909-2.7740425c.197259-.8776257.800759-1.739935 1.502124-2.1447966l6.326559-3.6590711c.427394-.2481245.860396-.3050502 1.217959-.1666927.31067.1222754.543354.3864821.655491.7448842l.53367 1.7195132z" fill="#fff"/><path d="m128.887579 100.915821v.995561l-26.336365 15.230303-.002803-.99403z" fill="#b3b3b3"/><path d="m127.619999 98.2843225 5.678459-3.2835657v.994285l-5.678459 3.283821z" fill="#34a2d1"/><path d="m124.966917 99.8187123v.9945407l-22.38456 12.944595-.003058-.992753z" fill="#34a2d1"/><path d="m123.507711 97.135853 15.978995-9.2405966v.994285l-15.978995 9.240852z" fill="#ff6c63"/><path d="m117.889169 100.385085v.99454l-15.586262 9.013149-.002803-.992753z" fill="#ff6c63"/><path d="m94.7004602 111.278032c2.5187472-1.456327 4.5680486-.28667 4.5762285 2.611945.008131 2.901934-2.0279179 6.431327-4.5464103 7.88791-2.5210409 1.457859-4.5680486.289478-4.5762285-2.6122-.008131-2.898616 2.0253694-6.429795 4.5464103-7.887655" fill="#ade070"/><path d="m154.899818 101.682378-69.6420985 39.930946v27.706474l69.6420985-39.930691z" fill="#fff"/><path d="m128.624236 129.592814v.995561l-26.336365 15.230303-.002804-.99403z" fill="#b3b3b3"/><path d="m144.235958 126.114475v.995307l-54.1320394 31.376266-.0030583-.993775z" fill="#b3b3b3"/><path d="m132.122805 137.289627v.995561l-28.035749 16.25037v-.995817z" fill="#ff6c63"/><path d="m90.0336546 161.688539h-.005352l11.5200254-6.676899v.995307l-11.5146734 6.674345z" fill="#ff6c63"/><path d="m127.093364 126.858594 5.678458-3.283566v.994285l-5.678458 3.283821z" fill="#34a2d1"/><path d="m124.440282 128.392984v.99454l-22.38456 12.944595-.003058-.992498z" fill="#34a2d1"/><path d="m123.507711 124.861804 15.978995-9.240597v.994285l-15.978995 9.240852z" fill="#ff6c63"/><path d="m117.889169 128.111035v.994286l-15.586262 9.013404-.002803-.992753z" fill="#ff6c63"/><path d="m94.4615322 139.243531c2.5184923-1.456583 4.5680486-.286671 4.5762285 2.611944.008131 2.901679-2.0281728 6.431327-4.5466652 7.887655-2.520786 1.457859-4.5680486.289733-4.5762285-2.6122-.0081309-2.898616 2.0253694-6.42954 4.5466652-7.887399" fill="#d596e0"/><g fill="#c9c9c9"><path d="m78.665906 123.76444-9.477605 5.481204.0033131 1.239856 9.4742919-5.478906z"/><path d="m78.665906 119.426294-18.7554026 10.846003.003568 1.240368 18.7518346-10.844217z"/><path d="m67.3698231 130.296803.003568 1.240112-7.4469082 4.306697-.0038228-1.240112z"/><path d="m78.665906 128.10256-18.7306815 10.832219.003568 1.239857 18.7271135-10.829921z"/><path d="m76.5486343 144.230834.003568 1.240112-16.5391701 9.564537-.003568-1.240112z"/><path d="m78.665906 147.338211-7.6474802 4.422334.003568 1.240368 7.6439122-4.420548z"/><path d="m78.665906 138.661714-18.7554026 10.846004.003568 1.238835 18.7518346-10.844216z"/><path d="m68.139133 153.425864.003568 1.240112-8.2040869 4.744233-.0033131-1.240112z"/><path d="m76.6046518 162.552329.003568 1.239857-16.5391701 9.564537-.003568-1.240113z"/><path d="m78.665906 165.715559-7.6474802 4.422335.003568 1.240367 7.6439122-4.420548z"/><path d="m78.665906 157.039063-18.7554026 10.846003.003568 1.238836 18.7518346-10.844216z"/><path d="m68.139133 171.803213.003568 1.239857-8.2040869 4.744488-.0033131-1.240112z"/><path d="m76.3664629 86.0861171.003568 1.2401122-16.5391701 9.5642817-.003568-1.2401121z"/><path d="m78.665906 89.0623607-7.6474802 4.4223348.003568 1.2403673 7.6439122-4.4205478z"/><path d="m78.665906 80.3858644-18.7554026 10.8460033.003568 1.2388357 18.7518346-10.8442163z"/><path d="m68.139133 95.1500144.003568 1.2398568-8.2040869 4.7444878-.0033131-1.2401117z"/><path d="m76.2686489 104.374452.003568 1.240112-16.5391701 9.564282-.003568-1.239857z"/><path d="m78.665906 107.439735-7.6474802 4.422335.003568 1.240367 7.6439122-4.420548z"/><path d="m78.665906 98.763213-18.7554026 10.846003.003568 1.238836 18.7518346-10.844216z"/><path d="m68.139133 113.527108.003568 1.240112-8.2040869 4.744488-.0033131-1.240112z"/></g><path d="m52.1015716 188.049626v-54.18228l-27.3134853 15.660946v54.182281z" fill="#fff"/><path d="m48.3924659 183.538993-13.3205868 7.703347.0022937.828359 13.3182931-7.701817z" fill="#e8e8e8"/><path d="m41.4924289 184.631379-12.6182022 7.296699.0025486.828613 12.6156536-7.295678z" fill="#e8e8e8"/><path d="m42.8734965 183.832658v.82989l5.5189185-3.191923v-.829635z" fill="#e8e8e8"/><path d="m33.8574367 191.944518.0022937.828358-4.9747997 2.877172-.0025486-.828613z" fill="#e8e8e8"/><path d="m48.3924659 186.43697-19.5018774 11.277668.0025486.828614 19.4993288-11.276392z" fill="#e8e8e8"/><path d="m48.9074036 175.60687v-33.510086l-20.9249964 11.998046v33.509831z" fill="#ff6a66"/><path d="m38.4617769 170.666435c-2.787366 1.611788-5.0614509.313729-5.0706536-2.892999-.009147-3.206984 2.250666-7.126944 5.0377771-8.738732 2.7866014-1.611533 5.0606864-.313474 5.0698875 2.893765.0088937 3.206729-2.2504096 7.126688-5.037011 8.737966m-.0344056-12.140744c-3.0304992 1.752954-5.4870614 6.015744-5.477152 9.502761.0097146 3.487018 2.4823327 4.899439 5.5130867 3.14674 3.0297346-1.751932 5.4862968-6.014722 5.4763875-9.50174-.0099695-3.487273-2.4823328-4.899693-5.5123222-3.147761" fill="#fff"/><path d="m36.8823545 162.744038 4.7405865.407925-4.7227466 5.880194z" fill="#fff"/><path d="m52.1015716 128.241914v-41.0549102l-27.3134853 15.6606912v41.055165z" fill="#fff"/><path d="m26.8966674 128.651753-.1185083-19.952327 23.0051354-13.3035079.1185083 19.9520709z" fill="#66e370"/><path d="m48.3924659 123.733016-13.3205868 7.703348.0022937.828358 13.3182931-7.701816z" fill="#e8e8e8"/><path d="m41.4924289 124.825402-12.6182022 7.296955.0025486.828358 12.6156536-7.295423z" fill="#e8e8e8"/><path d="m42.8734965 124.026936v.829635l5.5189185-3.191668v-.82989z" fill="#e8e8e8"/><path d="m33.8574367 132.138796.0022937.828358-4.9747997 2.876917-.0025486-.828358z" fill="#e8e8e8"/><path d="m48.3924659 126.630993-19.5018774 11.277924.0025486.828358 19.4993288-11.276392z" fill="#e8e8e8"/><path d="m42.4135569 105.919564-7.866402 4.549205c-.6881126.397969-1.2674015 1.402975-1.2651146 2.19534l.013769 4.911947c.0007646.318069.0976101.555472.2653057.65222.1684602.095727.4248458.060244.7041686-.100577l7.8666569-4.548694c.6888772-.39848 1.2686758-1.403742 1.2658825-2.195852l-.0140272-4.912202c-.0007646-.317303-.0971003-.554706-.2642862-.651199-.1689699-.097769-.4268847-.060499-.7059527.099812m-8.6342847 12.974207c-.1878293 0-.3646997-.044928-.5227108-.136571-.3664837-.21111-.5693495-.630267-.5703689-1.179868l-.013768-4.911947c-.002288-1.017259.687099-2.214485 1.5696672-2.72503l7.8666568-4.549205c.4798949-.277481.9465372-.313729 1.3148049-.100577.3657192.21111.568585.629501.5698592 1.179102l.0145339 4.912202c.0025415 1.01726-.68761 2.214231-1.5711976 2.725541l-7.8666569 4.54895c-.2732062.158268-.541825.237403-.7908198.237403" fill="#fff"/><path d="m38.4864215 110.072459c-.961064.555982-1.7694689 1.958958-1.7666728 3.064031.0012816.476083.1473144.821977.4121103.973863.2658154.154695.6440225.105938 1.0622421-.135804.9597897-.555217 1.7681947-1.957427 1.7648917-3.0625-.0012845-.476083-.1475721-.822742-.4118583-.97514-.2668348-.152908-.6437677-.104917-1.060713.13555m-1.0048993 4.738106c-.2357423 0-.4567029-.056926-.6539619-.170267-.4610355-.265993-.7156372-.799512-.7174384-1.502787-.0045702-1.340434.9057774-2.919292 2.0714912-3.59321.6134397-.355339 1.2070006-.402565 1.6698201-.136571.4610354.265483.7153823.799512.7174365 1.503042.0043172 1.34069-.9052658 2.919293-2.0699602 3.59219-.3529763.204473-.6988166.307603-1.0173873.307603" fill="#fff"/><path d="m39.8931022 106.109512-2.8327305 1.638592c-.200572.115893-.3891659.391332-.4482926.654773l-.0428159.191454 3.6044361-2.084808-.1269186-.409201c-.0237017-.037015-.0708501-.038291-.1536785.00919zm-4.2247569 3.711401.3491535-1.551799c.0955712-.427581.3924791-.850312.7378097-1.049424l2.8329853-1.638592c.2288612-.132741.4646035-.162098.6649207-.083474.179419.06969.3124541.219279.3761683.421199l.2709125.87635z" fill="#fff"/><path d="m48.9074036 175.638524-20.9249964 11.966137v-3.154398l20.9249964-11.966392z" fill="#c4c4c4"/><path d="m47.682665 174.708159v.362231l-18.3111877 10.588944v-.362231z" fill="#d4d4d4"/><path d="m32.5776746 182.763706c-.1271735.073518-.2298806.251698-.2293728.398224l.0028053 1.099713c.0005097.146271.1039815.205494.2311549.131975l.955712-.552664c.1271734-.073263.2298806-.251954.2293728-.398224l-.0030602-1.099713c-.0005097-.146526-.1039815-.205494-.2311549-.131976z" fill="#fff"/></g></g></svg>