<svg height="459" viewBox="0 0 434 459" width="434" xmlns="http://www.w3.org/2000/svg" xmlns:xlink="http://www.w3.org/1999/xlink"><linearGradient id="a" x1="85.544353%" x2="50%" y1="35.08889%" y2="65.953221%"><stop offset="0" stop-color="#da3e3f"/><stop offset="1" stop-color="#ff5254"/></linearGradient><linearGradient id="b" x1="36.177536%" x2="69.323096%" y1="94.144014%" y2="5.562805%"><stop offset="0" stop-color="#427fdf"/><stop offset="1" stop-color="#396bb1"/></linearGradient><filter id="c" height="308.5%" width="110.5%" x="-5.3%" y="-104.3%"><feGaussianBlur in="SourceGraphic" stdDeviation="6.60267857"/></filter><g fill="none" fill-rule="evenodd" transform="translate(14)"><g transform="translate(10)"><path d="m49.9120849 339.574112 47.4487972-43.429879c.0599528.068557.1672877-.619917.2272405-.551359 28.7483494 32.83626 70.1486794 26.492255 103.0289384-2.214125l75.062878-65.530578 113.577736-29.123521 10.336061 11.806416-153.885378 134.348063c-61.321108 53.53587-144.468915 59.1016-198.0812495-2.131083-.0580189-.068558-.463184-.536875-.5231368-.604467l.0067689-.005793c.1730896.200845.3452122.407484.5202358.607363z" fill="#ad3551"/><path d="m330.806856 179.719866 34.144104-8.755113 24.306038 27.76009-113.577736 29.123521z" fill="#cccacd"/><path d="m180.537601 9.90688305 34.738798-9.89645455 24.386297 27.8527887-112.831227 28.9313661z" fill="#cccacd"/><path d="m239.662309 27.8629275 10.568137 12.0709902-153.8863446 134.3470983c-32.8135377 28.648445-36.2250472 78.563307-7.6691273 111.401499l-38.7624057 53.891211-2.8023113 2.564639c-53.03117927-61.227855-73.4731604-151.598543 4.1425471-219.360627l75.5782788-65.9834444z" fill="#2a3e61"/><path d="m47.6305896 342.745342c-.1750236-.199879-.3461792-.406518-.5202358-.607363l2.8013443-2.563674z" fill="#2a3e61"/><path d="m364.950573 170.964366 44.774127 51.137315-55.429292 48.391142-44.886297-51.268636z" fill="#f1f2f2"/><path d="m98.9769009 297.460155c28.7473821 32.83626 78.8882551 36.194624 111.7704481 7.488243l98.661085-85.724211 44.887264 51.268636-98.458986 85.955956c-61.320141 53.534904-154.825283 47.27201-208.4356837-13.961639-.1595519-.181533-.309434-.365963-.4670519-.547496 14.8499293-12.965138 35.2948113-30.81429 51.5807076-45.030848.1576179.179602.3016981.369826.4622169.551359" fill="url(#a)"/><path d="m215.267696 0 45.092264 51.5032776-55.427359 48.3901769-45.092264-51.502312z" fill="#f1f2f2"/><path d="m204.933085 99.8936477-98.459953 85.9569213c-32.6984669 28.547057-36.1941037 78.214725-7.9582546 111.057745-16.2868632 14.217523-36.7307783 32.06571-51.5816746 45.031813-53.09790091-61.239442-46.69165091-154.215325 14.4495991-207.59187l98.4570521-85.9569214z" fill="url(#b)"/></g><ellipse cx="188" cy="433.5" fill="#000" filter="url(#c)" opacity=".2" rx="188" ry="9.5"/></g></svg>