<svg height="306" viewBox="0 0 259 306" width="259" xmlns="http://www.w3.org/2000/svg" xmlns:xlink="http://www.w3.org/1999/xlink"><filter id="a" height="496.2%" width="119.8%" x="-9.9%" y="-198.1%"><feGaussianBlur in="SourceGraphic" stdDeviation="6.60267857"/></filter><linearGradient id="b" x1="100%" x2="0%" y1="50%" y2="50%"><stop offset="0" stop-color="#da3e3f"/><stop offset="1" stop-color="#ff5254"/></linearGradient><g fill="none" fill-rule="evenodd"><ellipse cx="130" cy="285" fill="#000" filter="url(#a)" opacity=".2" rx="100" ry="5"/><circle cx="129.5" cy="129.5" fill="url(#b)" r="129.5"/><g fill="#fff" fill-rule="nonzero"><path d="m54.9955567 170.390811 1.2227085-3.917788c.020525-.060741.0417832-.127267.0637743-.199578.0219912-.07231.0432493-.14896.0637744-.229947.0205251.080987.0417832.157637.0637743.229947.0219912.072311.0432493.138837.0637744.199578l1.2051155 3.917788h1.3458589l1.9792044-6.321393h-1.1699297c-.1231505 0-.2287081.031817-.3166727.09545-.0879646.063634-.1436756.13739-.1671328.221271l-.8796464 3.297363c-.0263894.101235-.0520457.209701-.076969.325398s-.0491136.237179-.0725708.364445c-.0263894-.130159-.0571771-.252364-.0923629-.366615-.0351859-.11425-.0689056-.221993-.1011593-.323228l-1.0291863-3.297363c-.0322537-.098343-.0901637-.175715-.1737301-.232117-.0835664-.056403-.1898571-.084604-.3188719-.084604h-.4398231c-.1231505 0-.227975.03254-.3144736.097619-.0864986.06508-.1429425.138114-.1693319.219102l-1.0379827 3.297363c-.0322537.10702-.0659735.220547-.1011594.340583-.0351858.120036-.0674395.248025-.0967611.383969-.0146607-.133051-.0366519-.260318-.0659734-.3818-.0293216-.121482-.0586431-.235732-.0879647-.342752l-.8796463-3.297363c-.0263894-.09545-.0828334-.1721-.169332-.229948-.0864985-.057849-.1942552-.086773-.32327-.086773h-1.2490978l1.9792043 6.321393zm12.2182878 0v-1.128045h-2.6301426v-1.505507h2.0143901v-1.084659h-2.0143901v-1.475136h2.6301426v-1.128046h-4.1255415v6.321393zm4.917223 0c.3841122 0 .7257082-.048448 1.024788-.145344.2990797-.096897.550512-.231394.7542967-.403493.2037848-.1721.3584559-.373846.4640135-.60524.1055575-.231394.1583363-.481589.1583363-.750584 0-.355768-.1011593-.64718-.303478-.874235-.2023186-.227056-.5145931-.391201-.9368233-.492436.1935222-.069418.3591889-.151129.4970001-.245133.1378113-.094003.2506993-.198854.3386639-.314551s.152472-.239348.1935222-.370953.0615752-.268272.0615752-.410001c0-.260318-.0447153-.496051-.134146-.707198s-.2323733-.390477-.4288276-.537991c-.1964544-.147513-.4500858-.261764-.7608941-.342752-.3108084-.080988-.6875903-.121482-1.1303456-.121482h-2.3574523v6.321393zm-.2990798-3.661809h-.7740888v-1.561909h.8708499c.1671328 0 .3115414.013016.4332258.039048s.2221107.069418.3012789.130159.1378113.141006.1759293.240794c.038118.099789.057177.224886.057177.375292 0 .153299-.0241903.280565-.0725708.3818-.0483806.101235-.1187523.180777-.2111152.238625-.0923628.057849-.2045177.098343-.3364647.121482-.1319469.023139-.2800208.034709-.4442214.034709zm.2726904 2.555457h-1.0467792v-1.574925h1.0379827c.1876579 0 .3430621.017354.4662126.052064.1231505.034709.2221107.08388.2968806.147513.07477.063633.1275487.141729.1583364.234286.0307876.092558.0461814.196685.0461814.312382 0 .101235-.0131947.201024-.0395841.299366-.0263894.098343-.0747699.186562-.1451416.264657s-.1678659.141729-.2924825.1909c-.1246165.049171-.285152.073757-.4816063.073757zm6.4829935 1.17577c.3635871 0 .6883232-.054233.9742083-.162699s.5263217-.257425.72131-.446879.3437951-.411448.4464206-.665981c.1026254-.254533.1539381-.527867.1539381-.820002 0-.263211-.0410502-.488097-.1231505-.674658-.0821004-.186561-.189857-.344922-.3232701-.475081-.133413-.130159-.285885-.237178-.4574161-.321059-.171531-.08388-.3467272-.156914-.5255887-.219101-.1788614-.062187-.3540576-.118589-.5255887-.169207-.171531-.050617-.324003-.106296-.4574161-.167037-.133413-.060741-.2411697-.133052-.32327-.216932s-.1231505-.189454-.1231505-.31672c0-.199578.0681726-.357938.2045178-.475081s.3437951-.175715.6223498-.175715c.1612685 0 .304944.02097.4310267.06291.1260826.041941.2382375.088942.3364647.141006s.1861918.099066.2638939.141006.1502729.06291.2177125.06291c.076236 0 .1385443-.017355.1869249-.052064.0483805-.034709.0945619-.086772.1385443-.156191l.3694514-.681165c-.114354-.104128-.2441018-.197408-.3892435-.279842-.1451416-.082435-.3012789-.153299-.4684117-.212594-.1671328-.059294-.3437951-.104127-.5299869-.134497-.1861918-.030371-.3775149-.045556-.5739693-.045556-.3518585 0-.664133.052787-.9368233.15836-.2726904.105574-.5028645.246579-.6905224.423017s-.3298674.377462-.4266285.603071-.1451417.457003-.1451417.694181c0 .295028.0410502.543053.1231505.744077.0821004.201023.189857.368784.3232701.503281.133413.134498.285152.242964.455217.325398.1700649.082434.3445281.151852.5233895.208255.1788615.056402.3533247.107742.5233896.154021.170065.046279.321804.099789.455217.16053.1334131.060741.2411697.13739.3232701.229947.0821003.092558.1231505.212594.1231505.360107 0 .254534-.07477.440372-.2243099.557515s-.3591889.175715-.6289471.175715c-.1993865 0-.3723836-.027478-.5189914-.082434-.1466077-.054956-.2763555-.115697-.3892435-.182223-.1128879-.066526-.2140473-.127267-.303478-.182223s-.1781284-.082434-.266093-.082434c-.0674396 0-.1304809.015908-.189124.047725s-.1040915.073757-.1363452.125821l-.4398231.685504c.1260826.124374.2741564.237179.4442214.338414.1700649.101234.3518585.18873.5453807.262487s.3936418.130882.6003587.171376.4097686.060741.6091551.060741zm6.1751172-.069418v-6.321393h-1.4953988v6.321393zm5.5505684 0v-5.158638h1.803275v-1.162755h-5.0931524v1.162755h1.803275v5.158638zm8.0575605 0v-1.128045h-2.6301426v-1.505507h2.0143901v-1.084659h-2.0143901v-1.475136h2.6301426v-1.128046h-4.1255415v6.321393zm8.9547993 0 2.568568-6.321393h-1.205116c-.12315 0-.227242.03254-.312274.097619-.085033.06508-.14221.138114-.171531.219102l-1.231505 3.384136c-.052779.147513-.106291.308043-.160536.481588-.054245.173546-.101892.355769-.142942.546669-.049847-.1909-.103359-.373123-.160536-.546669-.057177-.173545-.113621-.334075-.169332-.481588l-1.240301-3.384136c-.035186-.09545-.093829-.1721-.175929-.229948-.082101-.057849-.187658-.086773-.316673-.086773h-1.196319l2.568567 6.321393zm6.236693 0v-6.321393h-1.495399v6.321393zm4.433417.069418c.363587 0 .688324-.054233.974209-.162699s.526321-.257425.72131-.446879c.194988-.189454.343795-.411448.44642-.665981.102626-.254533.153938-.527867.153938-.820002 0-.263211-.04105-.488097-.12315-.674658-.082101-.186561-.189857-.344922-.32327-.475081s-.285885-.237178-.457416-.321059c-.171531-.08388-.346728-.156914-.525589-.219101-.178862-.062187-.354058-.118589-.525589-.169207-.171531-.050617-.324003-.106296-.457416-.167037s-.24117-.133052-.32327-.216932-.12315-.189454-.12315-.31672c0-.199578.068172-.357938.204517-.475081.136346-.117143.343795-.175715.62235-.175715.161269 0 .304944.02097.431027.06291.126083.041941.238237.088942.336465.141006.098227.052064.186191.099066.263894.141006.077702.04194.150272.06291.217712.06291.076236 0 .138544-.017355.186925-.052064.04838-.034709.094562-.086772.138544-.156191l.369452-.681165c-.114354-.104128-.244102-.197408-.389244-.279842-.145142-.082435-.301279-.153299-.468412-.212594-.167132-.059294-.343795-.104127-.529987-.134497-.186191-.030371-.377514-.045556-.573969-.045556-.351858 0-.664133.052787-.936823.15836-.272691.105574-.502865.246579-.690523.423017-.187657.176438-.329867.377462-.426628.603071s-.145142.457003-.145142.694181c0 .295028.04105.543053.123151.744077.0821.201023.189857.368784.32327.503281.133413.134498.285152.242964.455217.325398s.344528.151852.523389.208255c.178862.056402.353325.107742.52339.154021s.321804.099789.455217.16053.24117.13739.32327.229947c.0821.092558.123151.212594.123151.360107 0 .254534-.07477.440372-.22431.557515s-.359189.175715-.628947.175715c-.199387 0-.372384-.027478-.518992-.082434s-.276355-.115697-.389243-.182223-.214048-.127267-.303478-.182223c-.089431-.054956-.178129-.082434-.266093-.082434-.06744 0-.130481.015908-.189124.047725s-.104092.073757-.136345.125821l-.439824.685504c.126083.124374.274157.237179.444222.338414.170065.101234.351858.18873.545381.262487.193522.073757.393641.130882.600358.171376s.409769.060741.609155.060741zm6.175118-.069418v-6.321393h-1.495399v6.321393zm5.550568 0v-5.158638h1.803275v-1.162755h-5.093153v1.162755h1.803276v5.158638zm6.667719.069418c.498466 0 .952217-.082434 1.361253-.247302.409035-.164868.758695-.392647 1.048978-.683335.290283-.290689.515326-.632718.675129-1.026088.159802-.393369.239703-.818556.239703-1.275559 0-.45411-.079901-.87785-.239703-1.27122-.159803-.39337-.384846-.734676-.675129-1.023918-.290283-.289243-.639943-.517021-1.048978-.683335-.409036-.166315-.862787-.249472-1.361253-.249472s-.95295.082434-1.363452.247302c-.410501.164868-.761627.391924-1.053376.681166-.29175.289243-.517526.630549-.677328 1.023918-.159802.39337-.239704.818556-.239704 1.275559s.079902.88219.239704 1.275559c.159802.39337.385578.735399.677328 1.026088.291749.290688.642875.518467 1.053376.683335.410502.164868.864986.247302 1.363452.247302zm0-1.214818c-.287351 0-.543182-.045556-.767491-.136667-.22431-.091111-.413434-.22344-.567372-.396985-.153938-.173546-.271958-.385416-.354058-.63561-.0821-.250195-.12315-.53293-.12315-.848204 0-.312382.04105-.59367.12315-.843864.0821-.250195.20012-.462065.354058-.635611.153938-.173545.343062-.306597.567372-.399154.224309-.092558.48014-.138837.767491-.138837.284419 0 .53805.046279.760894.138837.222844.092557.411235.225609.565173.399154.153938.173546.271957.385416.354058.635611.0821.250194.12315.531482.12315.843864 0 .315274-.04105.598009-.12315.848204-.082101.250194-.20012.462064-.354058.63561-.153938.173545-.342329.305874-.565173.396985s-.476475.136667-.760894.136667zm7.037171 1.1454v-2.338525h.378248c.114354 0 .203051.017355.266093.052064.063041.034709.118019.092557.164933.173545l1.064373 1.835243c.108489.185115.287351.277673.536584.277673h1.345859l-1.363452-2.199689c-.064507-.104127-.14001-.192346-.226509-.264656-.086499-.072311-.179594-.133052-.279288-.182223.208183-.078095.392176-.177884.551978-.299366.159803-.121482.294682-.259595.404638-.41434.109955-.154744.192789-.323228.2485-.505451s.083566-.376015.083566-.581377c0-.268995-.046914-.517744-.140743-.746245-.093829-.228502-.244102-.426633-.450819-.594394-.206717-.16776-.473543-.298642-.800478-.392646s-.722043-.141006-1.185324-.141006h-2.084762v6.321393zm.598159-3.349427h-.598159v-1.874291h.598159c.384113 0 .667799.078096.851058.234286.18326.156191.27489.373123.27489.650796 0 .138836-.020525.268272-.061576.388308-.04105.120035-.107023.224886-.19792.314551s-.20745.159806-.349659.210424c-.14221.050617-.314474.075926-.516793.075926zm7.010782 3.418845c.363587 0 .688323-.054233.974208-.162699s.526322-.257425.72131-.446879.343795-.411448.446421-.665981c.102625-.254533.153938-.527867.153938-.820002 0-.263211-.041051-.488097-.123151-.674658s-.189857-.344922-.32327-.475081-.285885-.237178-.457416-.321059c-.171531-.08388-.346727-.156914-.525589-.219101-.178861-.062187-.354057-.118589-.525588-.169207-.171531-.050617-.324003-.106296-.457416-.167037-.133414-.060741-.24117-.133052-.323271-.216932-.0821-.08388-.12315-.189454-.12315-.31672 0-.199578.068173-.357938.204518-.475081s.343795-.175715.62235-.175715c.161268 0 .304944.02097.431026.06291.126083.041941.238238.088942.336465.141006s.186192.099066.263894.141006.150273.06291.217712.06291c.076236 0 .138545-.017355.186925-.052064.048381-.034709.094562-.086772.138545-.156191l.369451-.681165c-.114354-.104128-.244102-.197408-.389243-.279842-.145142-.082435-.301279-.153299-.468412-.212594-.167133-.059294-.343795-.104127-.529987-.134497-.186192-.030371-.377515-.045556-.573969-.045556-.351859 0-.664133.052787-.936824.15836-.27269.105574-.502864.246579-.690522.423017s-.329868.377462-.426629.603071-.145141.457003-.145141.694181c0 .295028.04105.543053.12315.744077.082101.201023.189857.368784.32327.503281.133413.134498.285152.242964.455217.325398s.344528.151852.52339.208255c.178861.056402.353324.107742.523389.154021s.321804.099789.455217.16053.24117.13739.32327.229947c.082101.092558.123151.212594.123151.360107 0 .254534-.07477.440372-.22431.557515s-.359189.175715-.628947.175715c-.199387 0-.372384-.027478-.518991-.082434-.146608-.054956-.276356-.115697-.389244-.182223s-.214047-.127267-.303478-.182223-.178128-.082434-.266093-.082434c-.067439 0-.130481.015908-.189124.047725s-.104091.073757-.136345.125821l-.439823.685504c.126082.124374.274156.237179.444221.338414.170065.101234.351859.18873.545381.262487s.393642.130882.600359.171376c.206716.040494.409768.060741.609155.060741zm10.599738-.069418 1.222708-3.917788c.020525-.060741.041784-.127267.063775-.199578.021991-.07231.043249-.14896.063774-.229947.020525.080987.041783.157637.063774.229947.021992.072311.04325.138837.063775.199578l1.205115 3.917788h1.345859l1.979205-6.321393h-1.16993c-.123151 0-.228708.031817-.316673.09545-.087964.063634-.143675.13739-.167133.221271l-.879646 3.297363c-.026389.101235-.052046.209701-.076969.325398s-.049114.237179-.072571.364445c-.026389-.130159-.057177-.252364-.092363-.366615-.035186-.11425-.068905-.221993-.101159-.323228l-1.029186-3.297363c-.032254-.098343-.090164-.175715-.17373-.232117-.083567-.056403-.189857-.084604-.318872-.084604h-.439823c-.123151 0-.227975.03254-.314474.097619-.086499.06508-.142943.138114-.169332.219102l-1.037983 3.297363c-.032253.10702-.065973.220547-.101159.340583s-.067439.248025-.096761.383969c-.014661-.133051-.036652-.260318-.065974-.3818-.029321-.121482-.058643-.235732-.087964-.342752l-.879647-3.297363c-.026389-.09545-.082833-.1721-.169331-.229948-.086499-.057849-.194256-.086773-.32327-.086773h-1.249098l1.979204 6.321393zm9.588145 0v-2.6726h2.603753v2.6726h1.495399v-6.321393h-1.495399v2.64223h-2.603753v-2.64223h-1.495399v6.321393zm9.667313.069418c.498467 0 .952218-.082434 1.361253-.247302.409036-.164868.758695-.392647 1.048978-.683335.290284-.290689.515327-.632718.675129-1.026088.159802-.393369.239704-.818556.239704-1.275559 0-.45411-.079902-.87785-.239704-1.27122s-.384845-.734676-.675129-1.023918c-.290283-.289243-.639942-.517021-1.048978-.683335-.409035-.166315-.862786-.249472-1.361253-.249472-.498466 0-.95295.082434-1.363451.247302-.410502.164868-.761628.391924-1.053377.681166-.291749.289243-.517525.630549-.677328 1.023918-.159802.39337-.239703.818556-.239703 1.275559s.079901.88219.239703 1.275559c.159803.39337.385579.735399.677328 1.026088.291749.290688.642875.518467 1.053377.683335.410501.164868.864985.247302 1.363451.247302zm0-1.214818c-.287351 0-.543181-.045556-.767491-.136667s-.413434-.22344-.567372-.396985c-.153938-.173546-.271957-.385416-.354058-.63561-.0821-.250195-.12315-.53293-.12315-.848204 0-.312382.04105-.59367.12315-.843864.082101-.250195.20012-.462065.354058-.635611.153938-.173545.343062-.306597.567372-.399154.22431-.092558.48014-.138837.767491-.138837.284419 0 .538051.046279.760895.138837.222843.092557.411234.225609.565172.399154.153938.173546.271958.385416.354058.635611.0821.250194.12315.531482.12315.843864 0 .315274-.04105.598009-.12315.848204-.0821.250194-.20012.462064-.354058.63561-.153938.173545-.342329.305874-.565172.396985-.222844.091111-.476476.136667-.760895.136667zm9.40342 1.1454c.12315 0 .227242-.03254.312274-.097619.085033-.06508.14221-.138114.171531-.219101l.378248-1.102014h2.436621l.378247 1.102014c.032254.092557.090164.168483.173731.227778.083566.059295.189857.088942.318871.088942h1.152337l-2.480603-6.321393h-1.521788l-2.480603 6.321393zm2.955611-2.41662h-1.750496l.589363-1.722439c.043983-.109912.090897-.240071.140744-.390477.049846-.150406.098227-.313828.145141-.490266.049847.173545.100427.334798.151739.483758.051313.14896.096028.278396.134146.388308zm5.884834 2.41662v-2.338525h.378248c.114354 0 .203052.017355.266093.052064.063042.034709.11802.092557.164934.173545l1.064372 1.835243c.10849.185115.287351.277673.536584.277673h1.345859l-1.363452-2.199689c-.064507-.104127-.14001-.192346-.226508-.264656-.086499-.072311-.179595-.133052-.279288-.182223.208183-.078095.392176-.177884.551978-.299366s.294681-.259595.404637-.41434c.109956-.154744.192789-.323228.2485-.505451s.083567-.376015.083567-.581377c0-.268995-.046915-.517744-.140744-.746245-.093829-.228502-.244102-.426633-.450818-.594394-.206717-.16776-.473543-.298642-.800479-.392646-.326935-.094004-.722043-.141006-1.185323-.141006h-2.084762v6.321393zm.59816-3.349427h-.59816v-1.874291h.59816c.384112 0 .667798.078096.851058.234286.183259.156191.274889.373123.274889.650796 0 .138836-.020525.268272-.061575.388308-.04105.120035-.107024.224886-.19792.314551-.090897.089665-.20745.159806-.34966.210424-.142209.050617-.314473.075926-.516792.075926zm9.403419 3.349427v-1.128045h-2.630142v-1.505507h2.01439v-1.084659h-2.01439v-1.475136h2.630142v-1.128046h-4.125541v6.321393zm-165.4350863 10.84659v-2.338525h.3782479c.1143541 0 .2030517.017355.2660931.052064.0630413.034709.1180192.092558.1649337.173545l1.0643721 1.835244c.1084897.185115.2873511.277672.5365842.277672h1.345859l-1.3634519-2.199688c-.0645074-.104128-.1400104-.192346-.2265089-.264657-.0864986-.072311-.1795945-.133052-.2792877-.182223.2081829-.078095.3921756-.177884.551978-.299366.1598025-.121481.2946816-.259595.4046374-.414339.1099558-.154745.1927891-.323229.2485001-.505452.0557109-.182222.0835664-.376015.0835664-.581377 0-.268995-.0469145-.517744-.1407434-.746245-.093829-.228502-.2441019-.426633-.4508188-.594393-.2067169-.167761-.473543-.298643-.8004782-.392647s-.7220431-.141006-1.1853235-.141006h-2.0847618v6.321393zm.5981595-3.349427h-.5981595v-1.874291h.5981595c.3841123 0 .6677982.078096.8510579.234287.1832596.156191.2748895.373122.2748895.650795 0 .138837-.0205251.268272-.0615753.388308-.0410501.120036-.1070236.224886-.1979204.314551s-.2074499.159807-.3496594.210424-.3144736.075926-.5167923.075926zm9.4034194 3.349427v-1.128045h-2.6301426v-1.505507h2.0143902v-1.084659h-2.0143902v-1.475136h2.6301426v-1.128046h-4.1255414v6.321393zm5.2075063 0v-5.158638h1.8032751v-1.162755h-5.0931525v1.162755h1.8032751v5.158638zm3.8704438 0c.1231505 0 .227242-.03254.3122745-.097619.0850325-.06508.1422095-.138113.171531-.219101l.378248-1.102014h2.4366204l.3782479 1.102014c.0322537.092557.0901638.168484.1737302.227778.0835664.059295.189857.088942.3188718.088942h1.1523367l-2.4806027-6.321393h-1.5217882l-2.4806028 6.321393zm2.9556118-2.41662h-1.7504963l.5893631-1.722439c.0439823-.109912.0908968-.240071.1407434-.390477s.0982272-.313828.1451417-.490266c.0498466.173546.1004263.334798.151739.483758s.096028.278396.134146.388308zm5.884834 2.41662v-2.338525h.3782479c.114354 0 .2030517.017355.266093.052064.0630414.034709.1180193.092558.1649337.173545l1.0643721 1.835244c.1084897.185115.2873512.277672.5365843.277672h1.3458589l-1.3634518-2.199688c-.0645074-.104128-.1400104-.192346-.226509-.264657-.0864985-.072311-.1795944-.133052-.2792877-.182223.208183-.078095.3921757-.177884.5519781-.299366.1598024-.121481.2946815-.259595.4046373-.414339.1099558-.154745.1927892-.323229.2485001-.505452.055711-.182222.0835664-.376015.0835664-.581377 0-.268995-.0469144-.517744-.1407434-.746245-.0938289-.228502-.2441018-.426633-.4508187-.594393-.2067169-.167761-.473543-.298643-.8004782-.392647-.3269353-.094004-.7220431-.141006-1.1853235-.141006h-2.0847619v6.321393zm.5981595-3.349427h-.5981595v-1.874291h.5981595c.3841122 0 .6677982.078096.8510579.234287.1832596.156191.2748894.373122.2748894.650795 0 .138837-.020525.268272-.0615752.388308s-.1070236.224886-.1979204.314551-.20745.159807-.3496595.210424-.3144735.075926-.5167922.075926zm7.9607994 3.418845c.2609617 0 .5050636-.013015.7323056-.039047s.4412892-.066526.6421418-.121482.3899766-.125097.5673719-.210424c.1773954-.085326.3481934-.187284.512394-.305874v-2.668261h-2.278284v.806986c0 .075203.0263893.13739.0791681.186562.0527788.049171.1260827.073756.2199116.073756h.6333454v.958839c-.1407434.057849-.2902833.104127-.4486196.138836-.1583364.03471-.34013.052064-.5453808.052064-.2697582 0-.5182583-.047002-.7455003-.141006-.227242-.094003-.4236963-.23067-.589363-.410001-.1656668-.17933-.2954146-.399154-.3892436-.659472-.0938289-.260319-.1407434-.558238-.1407434-.893759 0-.303705.0425163-.579208.1275487-.826511.0850325-.247302.2059839-.459172.3628542-.63561.1568702-.176438.3467272-.313105.569571-.410001.2228437-.096896.4735429-.145344.7520976-.145344.1495399 0 .284419.007231.4046374.021693.1202183.014462.2345723.037601.343062.069418.1084898.031817.2147804.073034.3188718.123651.1040915.050618.2147804.110635.3320665.180054.093829.057848.1847258.086772.2726904.086772.0674396 0 .1297479-.017354.1869249-.052063s.1062906-.082434.1473407-.143175l.4310267-.646457c-.1290148-.121482-.2756225-.234286-.4398231-.338414-.1642007-.104127-.3452612-.193792-.5431817-.268995-.1979204-.075203-.4141668-.134498-.6487392-.177884-.2345723-.043387-.4852715-.06508-.7520976-.06508-.5160592 0-.9830048.079542-1.4008368.238625-.417832.159084-.7740888.3818-1.0687703.66815-.2946816.28635-.5211905.626933-.6795269 1.021749-.1583363.394816-.2375045.827956-.2375045 1.299422 0 .462787.0828334.891589.2485001 1.286405s.3943748.736122.6861242 1.023918.6370106.513406 1.0357836.676828c.398773.163421.8327319.245132 1.3018766.245132zm8.9987821-.069418v-1.128045h-2.6301426v-1.505507h2.0143901v-1.084659h-2.0143901v-1.475136h2.6301426v-1.128046h-4.1255415v6.321393zm5.2075062 0v-5.158638h1.8032751v-1.162755h-5.0931524v1.162755h1.803275v5.158638zm8.0575603 0v-1.128045h-2.6301424v-1.505507h2.0143904v-1.084659h-2.0143904v-1.475136h2.6301424v-1.128046h-4.1255412v6.321393zm4.846851 0c.498467 0 .952218-.078818 1.361253-.236455.409036-.157638.758695-.377462 1.048979-.659473.290283-.282011.515326-.616086.675128-1.002225.159803-.386139.239704-.807709.239704-1.264712 0-.454111-.079901-.874236-.239704-1.260374-.159802-.386139-.384845-.719491-.675128-1.000056-.290284-.280565-.639943-.500389-1.048979-.659473-.409035-.159083-.862786-.238625-1.361253-.238625h-2.489399v6.321393zm0-1.128045h-.994v-4.065302h.994c.284419 0 .538051.047002.760895.141006.222843.094003.411234.228501.565172.403493.153939.174991.271958.388308.354058.639949.0821.25164.123151.533652.123151.846034 0 .315274-.041051.598731-.123151.850372s-.200119.464957-.354058.639949c-.153938.174992-.342329.309489-.565172.403493-.222844.094004-.476476.141006-.760895.141006zm11.602536 1.128045 1.222708-3.917788c.020525-.060741.041783-.127267.063774-.199577.021992-.072311.04325-.14896.063775-.229948.020525.080988.041783.157637.063774.229948.021991.07231.043249.138836.063775.199577l1.205115 3.917788h1.345859l1.979204-6.321393h-1.169929c-.123151 0-.228708.031817-.316673.09545-.087965.063634-.143676.137391-.167133.221271l-.879646 3.297363c-.02639.101235-.052046.209701-.076969.325398-.024924.115697-.049114.237179-.072571.364445-.02639-.130159-.057177-.252364-.092363-.366614-.035186-.114251-.068906-.221994-.101159-.323229l-1.029187-3.297363c-.032253-.098343-.090163-.175715-.17373-.232117-.083566-.056402-.189857-.084604-.318872-.084604h-.439823c-.12315 0-.227975.03254-.314473.09762-.086499.065079-.142943.138113-.169332.219101l-1.037983 3.297363c-.032254.10702-.065973.220548-.101159.340583-.035186.120036-.06744.248026-.096761.38397-.014661-.133052-.036652-.260319-.065974-.3818-.029321-.121482-.058643-.235733-.087964-.342753l-.879647-3.297363c-.026389-.09545-.082833-.172099-.169332-.229948-.086498-.057848-.194255-.086773-.32327-.086773h-1.249098l1.979205 6.321393zm9.720092 0v-6.321393h-1.495399v6.321393zm5.550568 0v-5.158638h1.803275v-1.162755h-5.093152v1.162755h1.803275v5.158638zm5.427418 0v-2.6726h2.603753v2.6726h1.495399v-6.321393h-1.495399v2.64223h-2.603753v-2.64223h-1.495399v6.321393zm12.367827 0c.498467 0 .952218-.078818 1.361253-.236455.409036-.157638.758695-.377462 1.048978-.659473.290284-.282011.515327-.616086.675129-1.002225s.239704-.807709.239704-1.264712c0-.454111-.079902-.874236-.239704-1.260374-.159802-.386139-.384845-.719491-.675129-1.000056-.290283-.280565-.639942-.500389-1.048978-.659473-.409035-.159083-.862786-.238625-1.361253-.238625h-2.489399v6.321393zm0-1.128045h-.994v-4.065302h.994c.284419 0 .538051.047002.760895.141006.222843.094003.411234.228501.565172.403493.153938.174991.271958.388308.354058.639949.0821.25164.12315.533652.12315.846034 0 .315274-.04105.598731-.12315.850372s-.20012.464957-.354058.639949-.342329.309489-.565172.403493c-.222844.094004-.476476.141006-.760895.141006zm7.177915 1.128045v-6.321393h-1.495399v6.321393zm4.433417.069418c.363587 0 .688323-.054233.974208-.162698.285885-.108466.526322-.257426.72131-.44688.194989-.189454.343796-.411447.446421-.665981.102625-.254533.153938-.527867.153938-.820002 0-.26321-.04105-.488096-.12315-.674658-.082101-.186561-.189857-.344921-.32327-.47508-.133414-.130159-.285886-.237179-.457417-.321059-.171531-.083881-.346727-.156914-.525588-.219102-.178862-.062187-.354058-.118589-.525589-.169206-.171531-.050618-.324003-.106297-.457416-.167038s-.24117-.133051-.32327-.216932c-.0821-.08388-.123151-.189453-.123151-.31672 0-.199577.068173-.357938.204518-.475081s.343795-.175715.62235-.175715c.161268 0 .304944.020971.431027.062911.126082.04194.238237.088942.336464.141005.098228.052064.186192.099066.263894.141006s.150273.06291.217713.06291c.076236 0 .138544-.017354.186925-.052063.04838-.034709.094562-.086773.138544-.156191l.369451-.681166c-.114354-.104127-.244101-.197408-.389243-.279842s-.301279-.153299-.468412-.212593c-.167133-.059295-.343795-.104128-.529987-.134498s-.377515-.045556-.573969-.045556c-.351859 0-.664133.052787-.936823.15836-.272691.105574-.502865.24658-.690523.423018-.187658.176437-.329867.377461-.426628.60307s-.145142.457003-.145142.694182c0 .295027.04105.543052.123151.744076.0821.201023.189857.368784.32327.503282.133413.134497.285152.242963.455217.325397s.344528.151853.523389.208255c.178862.056402.353325.107743.52339.154021.170065.046279.321804.099789.455217.16053s.241169.13739.32327.229948c.0821.092557.12315.212593.12315.360106 0 .254534-.07477.440372-.22431.557515-.149539.117143-.359188.175715-.628947.175715-.199386 0-.372383-.027478-.518991-.082434s-.276356-.115697-.389244-.182223c-.112887-.066526-.214047-.127266-.303478-.182223-.08943-.054956-.178128-.082434-.266093-.082434-.067439 0-.13048.015909-.189124.047725-.058643.031817-.104091.073757-.136345.125821l-.439823.685504c.126083.124375.274157.237179.444222.338414.170064.101235.351858.188731.54538.262487.193522.073757.393642.130883.600359.171377.206717.040493.409769.06074.609155.06074zm6.034374-.069418v-2.112916h.774089c.442755 0 .826134-.052786 1.150137-.15836.324003-.105573.591562-.252364.802678-.440371.211115-.188008.367985-.413617.47061-.676828.102626-.26321.153939-.552453.153939-.867727 0-.292135-.049847-.564022-.14954-.815663-.099694-.251641-.254365-.470019-.464014-.655134-.209649-.185116-.476475-.33046-.800478-.436033-.324003-.105574-.711781-.158361-1.163332-.158361h-2.260691v6.321393zm.774089-3.219268h-.774089v-2.00445h.774089c.187658 0 .349659.02314.486004.069419.136345.046278.249233.112081.338664.197408.089431.085326.156137.187284.20012.305873.043982.11859.065973.250195.065973.394816 0 .326844-.085032.581377-.255097.7636s-.44862.273334-.835664.273334zm8.726091 3.219268v-1.171431h-2.375045v-5.149962h-1.486602v6.321393zm2.858851 0c.12315 0 .227242-.03254.312274-.097619.085033-.06508.14221-.138113.171531-.219101l.378248-1.102014h2.436621l.378248 1.102014c.032253.092557.090163.168484.17373.227778.083566.059295.189857.088942.318872.088942h1.152336l-2.480602-6.321393h-1.521789l-2.480602 6.321393zm2.955612-2.41662h-1.750497l.589363-1.722439c.043983-.109912.090897-.240071.140744-.390477s.098227-.313828.145142-.490266c.049846.173546.100426.334798.151739.483758.051312.14896.096028.278396.134146.388308zm6.711701 2.41662v-2.403604l2.322267-3.917789h-1.31947c-.061575 0-.118019.009401-.169332.028202-.051313.0188-.096761.043386-.136345.073756-.039584.030371-.07477.064357-.105558.101958-.030787.037602-.054978.075203-.07257.112805l-.89724 1.839582c-.070371.144621-.136345.279119-.19792.403493s-.114354.248748-.158337.373122c-.046914-.121481-.101159-.244409-.162734-.368784-.061575-.124374-.129015-.260318-.202319-.407831l-.906035-1.839582c-.046915-.092558-.10849-.168484-.184726-.227779-.076236-.059294-.178862-.088942-.307876-.088942h-1.310674l2.322267 3.917789v2.403604zm8.127932 0c.123151 0 .227242-.03254.312275-.097619.085032-.06508.142209-.138113.171531-.219101l.378248-1.102014h2.43662l.378248 1.102014c.032254.092557.090164.168484.17373.227778.083567.059295.189857.088942.318872.088942h1.152337l-2.480603-6.321393h-1.521788l-2.480603 6.321393zm2.955612-2.41662h-1.750496l.589363-1.722439c.043982-.109912.090897-.240071.140743-.390477.049847-.150406.098227-.313828.145142-.490266.049846.173546.100426.334798.151739.483758s.096028.278396.134146.388308zm6.887631 2.41662c.498466 0 .952217-.078818 1.361253-.236455.409035-.157638.758695-.377462 1.048978-.659473s.515326-.616086.675128-1.002225c.159803-.386139.239704-.807709.239704-1.264712 0-.454111-.079901-.874236-.239704-1.260374-.159802-.386139-.384845-.719491-.675128-1.000056s-.639943-.500389-1.048978-.659473c-.409036-.159083-.862787-.238625-1.361253-.238625h-2.489399v6.321393zm0-1.128045h-.994001v-4.065302h.994001c.284419 0 .53805.047002.760894.141006.222844.094003.411235.228501.565173.403493.153938.174991.271957.388308.354057.639949.082101.25164.123151.533652.123151.846034 0 .315274-.04105.598731-.123151.850372-.0821.251641-.200119.464957-.354057.639949s-.342329.309489-.565173.403493-.476475.141006-.760894.141006zm7.283472 1.197463c.363587 0 .688323-.054233.974208-.162698.285885-.108466.526322-.257426.72131-.44688s.343795-.411447.44642-.665981c.102626-.254533.153939-.527867.153939-.820002 0-.26321-.041051-.488096-.123151-.674658-.0821-.186561-.189857-.344921-.32327-.47508s-.285885-.237179-.457416-.321059c-.171531-.083881-.346727-.156914-.525589-.219102-.178861-.062187-.354057-.118589-.525589-.169206-.171531-.050618-.324003-.106297-.457416-.167038s-.241169-.133051-.32327-.216932c-.0821-.08388-.12315-.189453-.12315-.31672 0-.199577.068172-.357938.204518-.475081.136345-.117143.343795-.175715.622349-.175715.161269 0 .304944.020971.431027.062911s.238238.088942.336465.141005c.098227.052064.186192.099066.263894.141006s.150273.06291.217712.06291c.076236 0 .138545-.017354.186925-.052063.048381-.034709.094562-.086773.138544-.156191l.369452-.681166c-.114354-.104127-.244102-.197408-.389244-.279842-.145141-.082434-.301279-.153299-.468411-.212593-.167133-.059295-.343795-.104128-.529987-.134498s-.377515-.045556-.57397-.045556c-.351858 0-.664133.052787-.936823.15836-.27269.105574-.502864.24658-.690522.423018-.187658.176437-.329868.377461-.426629.60307s-.145141.457003-.145141.694182c0 .295027.04105.543052.12315.744076.0821.201023.189857.368784.32327.503282.133413.134497.285152.242963.455217.325397s.344528.151853.52339.208255c.178861.056402.353324.107743.523389.154021.170065.046279.321804.099789.455217.16053s.24117.13739.32327.229948c.082101.092557.123151.212593.123151.360106 0 .254534-.07477.440372-.22431.557515s-.359189.175715-.628947.175715c-.199387 0-.372384-.027478-.518992-.082434-.146607-.054956-.276355-.115697-.389243-.182223s-.214047-.127266-.303478-.182223c-.089431-.054956-.178128-.082434-.266093-.082434-.06744 0-.130481.015909-.189124.047725-.058643.031817-.104092.073757-.136345.125821l-.439823.685504c.126082.124375.274156.237179.444221.338414s.351859.188731.545381.262487c.193522.073757.393642.130883.600358.171377.206717.040493.409769.06074.609156.06074zm-182.7245358 10.777173c.1231505 0 .227242-.03254.3122745-.09762.0850324-.065079.1422095-.138113.171531-.219101l.3782479-1.102013h2.4366205l.3782479 1.102013c.0322537.092558.0901637.168484.1737301.227779.0835664.059294.189857.088942.3188718.088942h1.1523368l-2.4806028-6.321393h-1.5217882l-2.4806027 6.321393zm2.9556118-2.416621h-1.7504963l.5893631-1.722438c.0439823-.109912.0908968-.240072.1407434-.390478s.0982272-.313828.1451416-.490265c.0498467.173545.1004263.334798.151739.483757.0513127.14896.0960281.278396.1341461.388308zm5.8848339 2.416621v-2.338525h.378248c.114354 0 .2030517.017354.266093.052063s.1180192.092558.1649337.173546l1.0643721 1.835243c.1084897.185115.2873511.277673.5365843.277673h1.3458589l-1.3634519-2.199689c-.0645074-.104127-.1400103-.192346-.2265089-.264657-.0864986-.07231-.1795945-.133051-.2792877-.182222.208183-.078096.3921757-.177885.5519781-.299366.1598024-.121482.2946815-.259595.4046373-.41434s.1927892-.323229.2485001-.505451c.0557109-.182223.0835664-.376015.0835664-.581377 0-.268996-.0469145-.517744-.1407434-.746246-.093829-.228501-.2441019-.426632-.4508188-.594393s-.4735429-.298643-.8004782-.392647c-.3269352-.094003-.722043-.141005-1.1853234-.141005h-2.0847619v6.321393zm.5981596-3.349428h-.5981596v-1.87429h.5981596c.3841122 0 .6677982.078095.8510578.234286.1832597.156191.2748895.373123.2748895.650795 0 .138837-.0205251.268273-.0615752.388308-.0410502.120036-.1070237.224886-.1979205.314551-.0908968.089666-.2074499.159807-.3496594.210424-.1422095.050618-.3144736.075926-.5167922.075926zm9.4034194 3.349428v-1.128046h-2.6301426v-1.505507h2.0143901v-1.084659h-2.0143901v-1.475136h2.6301426v-1.128045h-4.1255414v6.321393zm6.799666 0c.1876579 0 .3386638-.042664.4530179-.12799.114354-.085327.2008525-.190177.2594956-.314551l2.2387-4.67705c.0322537-.069418.0659735-.153299.1011594-.251641.0351858-.098342.0527787-.227055.0527787-.386139v-.564022h-4.5037893v.885081c0 .037602.0087964.07448.0263894.110636.0175929.036155.0403171.067972.0681726.09545.0278554.027478.0601091.049171.0967611.065079.0366519.015909.0755029.023863.1165531.023863h2.8192666c-.0850325.089665-.1634676.183669-.2353054.282011-.0718378.098343-.1385443.209701-.2001196.334075l-2.2870805 4.525198zm7.3978257.069418c.3401299 0 .6560696-.06508.947819-.195239.2917493-.130159.5439146-.32829.7564958-.594393s.378981-.601624.4991993-1.006564c.1202184-.404939.1803275-.883635.1803275-1.436088s-.0601091-1.031149-.1803275-1.436089c-.1202183-.404939-.2866181-.74046-.4991993-1.006563s-.4647465-.463511-.7564958-.592224c-.2917494-.128713-.6076891-.193069-.947819-.193069s-.6546035.064356-.9434207.193069-.5387834.326121-.7498985.592224c-.2111152.266103-.3760489.601624-.4948011 1.006563-.1187523.40494-.1781284.883636-.1781284 1.436089s.0593761 1.031149.1781284 1.436088c.1187522.40494.2836859.740461.4948011 1.006564.2111151.266103.4610813.464234.7498985.594393s.6032908.195239.9434207.195239zm0-1.080321c-.1202183 0-.2382376-.029647-.3540577-.088942-.1158201-.059294-.2184455-.169207-.3078762-.329736-.0894307-.16053-.1612685-.379631-.2155133-.657303-.0542449-.277673-.0813673-.636334-.0813673-1.075982 0-.436756.0271224-.794694.0813673-1.073813.0542448-.279119.1260826-.49822.2155133-.657303s.1920561-.268272.3078762-.327567.2338394-.088942.3540577-.088942.2389706.029647.3562568.088942.2221107.168484.3144736.327567c.0923628.159083.1663997.378184.2221107.657303.0557109.279119.0835664.637057.0835664 1.073813 0 .439648-.0278555.798309-.0835664 1.075982-.055711.277672-.1297479.496773-.2221107.657303-.0923629.160529-.1971874.270442-.3144736.329736-.1172862.059295-.2360385.088942-.3562568.088942zm5.8232587-2.221381c.2023187 0 .3965739-.037602.5827657-.112805.1861919-.075203.3496595-.1815.4904029-.31889s.2536314-.301535.3386638-.492435c.0850325-.1909.1275488-.402047.1275488-.633441 0-.240071-.038118-.457726-.1143541-.652964-.076236-.195239-.1825266-.362277-.3188718-.501113s-.2990797-.246579-.4882037-.323228c-.189124-.07665-.3951078-.114974-.6179516-.114974-.2228437 0-.4273615.038324-.6135533.114974-.1861918.076649-.3474603.184392-.4838055.323228s-.2426358.305874-.3188718.501113c-.076236.195238-.114354.412893-.114354.652964 0 .231394.038118.442541.114354.633441s.1825266.355045.3188718.492435.2976137.243687.4838055.31889.3907096.112805.6135533.112805zm-.2550974 3.232284c.0938289 0 .1737301-.018078.2397036-.054233.0659735-.036156.1209514-.081711.1649337-.136667l4.8292585-6.130493h-.9940004c-.114354 0-.2037847.02097-.2682921.06291s-.1187523.087496-.1627346.136667l-4.8292585 6.121816zm.2550974-4.069641c-.0703717 0-.1348791-.01157-.1935222-.034709-.0586431-.02314-.1084897-.062187-.1495399-.117143-.0410501-.054956-.0733038-.128713-.0967611-.221271-.0234572-.092557-.0351858-.208254-.0351858-.347091 0-.147513.0117286-.269718.0351858-.366614.0234573-.096897.055711-.174269.0967611-.232118.0410502-.057848.0908968-.098342.1495399-.121481.0586431-.02314.1231505-.034709.1935222-.034709s.1356122.011569.1957213.034709c.0601092.023139.112155.063633.1561373.121481.0439823.057849.0784351.135221.1033584.232118.0249233.096896.037385.219101.037385.366614 0 .138837-.0124617.254534-.037385.347091-.0249233.092558-.0593761.166315-.1033584.221271s-.0960281.094003-.1561373.117143c-.0601091.023139-.1253496.034709-.1957213.034709zm3.6857183 4.147736c.2023186 0 .3965739-.037602.5827657-.112805s.3496594-.181499.4904028-.318889c.1407435-.13739.2536314-.302259.3386639-.494605s.1275487-.404216.1275487-.63561c0-.240071-.038118-.457726-.114354-.652965-.076236-.195238-.1825266-.362276-.3188718-.501112-.1363452-.138837-.2990798-.246579-.4882038-.323229-.1891239-.076649-.3951078-.114973-.6179515-.114973-.2228438 0-.4273615.038324-.6135534.114973-.1861918.07665-.3474603.184392-.4838055.323229-.1363451.138836-.2426357.305874-.3188718.501112-.076236.195239-.114354.412894-.114354.652965 0 .231394.038118.443264.114354.63561.0762361.192346.1825267.357215.3188718.494605.1363452.13739.2976137.243686.4838055.318889.1861919.075203.3907096.112805.6135534.112805zm0-.841695c-.0703717 0-.1348791-.01157-.1935222-.034709-.0586431-.02314-.1084897-.062188-.1495399-.117144s-.0733039-.128713-.0967611-.22127c-.0234572-.092558-.0351859-.208255-.0351859-.347091 0-.144621.0117287-.26538.0351859-.362276s.0557109-.174269.0967611-.232117c.0410502-.057849.0908968-.098343.1495399-.121482s.1231505-.034709.1935222-.034709.1356121.01157.1957213.034709.1121549.063633.1561372.121482c.0439823.057848.0784352.135221.1033585.232117s.0373849.217655.0373849.362276c0 .138836-.0124616.254533-.0373849.347091-.0249233.092557-.0593762.166314-.1033585.22127s-.096028.094004-.1561372.117144c-.0601092.023139-.1253496.034709-.1957213.034709zm8.3214542.7636v-3.635778c0-.08388-.0029322-.175714-.0087965-.275503s-.0146607-.2003-.0263894-.301535l1.706514 3.253977c.0527788.101235.1238835.177884.2133142.229948.0894307.052063.1913231.078095.3056771.078095h.2023187c.114354 0 .2162464-.026032.3056771-.078095.0894307-.052064.1605355-.128713.2133142-.229948l1.6977175-3.249638c-.0175929.205362-.0263894.396262-.0263894.572699v3.635778h1.3106731v-6.321393h-1.1347438c-.0645074 0-.1209514.001446-.1693319.004338-.0483806.002893-.0916299.01157-.1297479.026032s-.0725708.036879-.1033584.067249-.0608422.073034-.0901638.12799l-1.6449387 3.193236c-.058643.112805-.1158201.229225-.171531.34926-.0557109.120036-.1084897.243687-.1583363.370954-.0498467-.124375-.1018924-.245856-.1561373-.364446-.0542448-.118589-.1106888-.23284-.1693319-.342752l-1.6493369-3.206252c-.0293216-.054956-.0593762-.09762-.0901638-.12799s-.0652404-.052787-.1033584-.067249-.0813673-.023139-.1297479-.026032c-.0483805-.002892-.1048245-.004338-.1693319-.004338h-1.1347438v6.321393zm11.4617919.069418c.4984663 0 .9522172-.082434 1.3612527-.247303.4090356-.164868.758695-.392646 1.0489783-.683335.2902833-.290688.5153262-.632717.6751286-1.026087s.2397036-.818556.2397036-1.275559c0-.454111-.0799012-.877851-.2397036-1.271221-.1598024-.393369-.3848453-.734675-.6751286-1.023918-.2902833-.289242-.6399427-.51702-1.0489783-.683335-.4090355-.166314-.8627864-.249471-1.3612527-.249471s-.9529502.082434-1.3634519.247302c-.4105016.164868-.7616271.391923-1.0533765.681166-.2917494.289242-.5175253.630548-.6773277 1.023918-.1598024.393369-.2397036.818556-.2397036 1.275559s.0799012.882189.2397036 1.275559.3855783.735399.6773277 1.026087c.2917494.290689.6428749.518467 1.0533765.683335.4105017.164869.8649856.247303 1.3634519.247303zm0-1.214818c-.2873512 0-.5431816-.045556-.7674915-.136667-.2243098-.091112-.4134337-.22344-.5673719-.396986-.1539381-.173545-.2719573-.385415-.3540576-.63561s-.1231505-.532929-.1231505-.848203c0-.312382.0410502-.59367.1231505-.843865s.2001195-.462065.3540576-.63561c.1539382-.173546.3430621-.306597.5673719-.399155.2243099-.092557.4801403-.138836.7674915-.138836.284419 0 .5380503.046279.7608941.138836.2228437.092558.4112347.225609.5651728.399155.1539381.173545.2719573.385415.3540576.63561.0821004.250195.1231505.531483.1231505.843865 0 .315274-.0410501.598008-.1231505.848203-.0821003.250195-.2001195.462065-.3540576.63561-.1539381.173546-.3423291.305874-.5651728.396986-.2228438.091111-.4764751.136667-.7608941.136667zm7.0371703 1.1454v-2.338525h.378248c.114354 0 .203052.017354.266093.052063.063042.034709.11802.092558.164934.173546l1.064372 1.835243c.10849.185115.287351.277673.536584.277673h1.345859l-1.363452-2.199689c-.064507-.104127-.14001-.192346-.226508-.264657-.086499-.07231-.179595-.133051-.279288-.182222.208183-.078096.392176-.177885.551978-.299366.159802-.121482.294681-.259595.404637-.41434s.192789-.323229.2485-.505451c.055711-.182223.083567-.376015.083567-.581377 0-.268996-.046915-.517744-.140744-.746246-.093829-.228501-.244102-.426632-.450818-.594393-.206717-.167761-.473543-.298643-.800479-.392647-.326935-.094003-.722043-.141005-1.185323-.141005h-2.084762v6.321393zm.59816-3.349428h-.59816v-1.87429h.59816c.384112 0 .667798.078095.851058.234286.183259.156191.274889.373123.274889.650795 0 .138837-.020525.268273-.061575.388308-.04105.120036-.107024.224886-.19792.314551-.090897.089666-.20745.159807-.34966.210424-.142209.050618-.314473.075926-.516792.075926zm9.403419 3.349428v-1.128046h-2.630142v-1.505507h2.01439v-1.084659h-2.01439v-1.475136h2.630142v-1.128045h-4.125541v6.321393zm9.429809 0v-1.171432h-2.375045v-5.149961h-1.486603v6.321393zm3.844054 0v-6.321393h-1.495398v6.321393zm4.187117 0v-2.689955h.360655c.137811 0 .247034.016632.327668.049894.080634.033263.147341.090389.20012.171377l1.451416 2.199688c.029322.043386.060109.081711.092363.114974s.070372.061464.114354.084603c.043982.02314.096028.040494.156137.052064s.13268.017355.217713.017355h1.328266l-1.935222-2.932918c-.076236-.11859-.160536-.213317-.252899-.284181-.092362-.070865-.194255-.126544-.305677-.167038.076236-.040494.151006-.091111.22431-.151852s.143676-.13739.211115-.229948l1.900036-2.555456h-1.29308c-.146607 0-.270491.020247-.37165.060741-.10116.040494-.191323.117143-.270492.229947l-1.44262 2.065191c-.096761.135944-.255097.203916-.475009.203916h-.237504v-2.559795h-1.486602v6.321393zm10.432606 0v-1.128046h-2.630143v-1.505507h2.01439v-1.084659h-2.01439v-1.475136h2.630143v-1.128045h-4.125542v6.321393zm6.219099 0v-1.171432h-2.375045v-5.149961h-1.486602v6.321393zm4.354249 0v-2.403605l2.322267-3.917788h-1.31947c-.061575 0-.118019.0094-.169332.028201-.051312.018801-.096761.043386-.136345.073757-.039584.03037-.07477.064356-.105557.101958-.030788.037601-.054978.075203-.072571.112804l-.89724 1.839582c-.070371.144621-.136345.279119-.19792.403493s-.114354.248749-.158336.373123c-.046915-.121482-.10116-.24441-.162735-.368784-.061575-.124375-.129015-.260318-.202319-.407832l-.906035-1.839582c-.046915-.092557-.10849-.168484-.184726-.227778-.076236-.059295-.178861-.088942-.307876-.088942h-1.310673l2.322266 3.917788v2.403605zm10.335845 0v-5.158639h1.803275v-1.162754h-5.093153v1.162754h1.803275v5.158639zm6.667719.069418c.498466 0 .952217-.082434 1.361253-.247303.409035-.164868.758695-.392646 1.048978-.683335.290283-.290688.515326-.632717.675129-1.026087.159802-.39337.239703-.818556.239703-1.275559 0-.454111-.079901-.877851-.239703-1.271221-.159803-.393369-.384846-.734675-.675129-1.023918-.290283-.289242-.639943-.51702-1.048978-.683335-.409036-.166314-.862787-.249471-1.361253-.249471s-.95295.082434-1.363452.247302c-.410501.164868-.761627.391923-1.053376.681166-.29175.289242-.517526.630548-.677328 1.023918-.159802.393369-.239704.818556-.239704 1.275559s.079902.882189.239704 1.275559.385578.735399.677328 1.026087c.291749.290689.642875.518467 1.053376.683335.410502.164869.864986.247303 1.363452.247303zm0-1.214818c-.287351 0-.543182-.045556-.767491-.136667-.22431-.091112-.413434-.22344-.567372-.396986-.153938-.173545-.271958-.385415-.354058-.63561s-.12315-.532929-.12315-.848203c0-.312382.04105-.59367.12315-.843865s.20012-.462065.354058-.63561c.153938-.173546.343062-.306597.567372-.399155.224309-.092557.48014-.138836.767491-.138836.284419 0 .53805.046279.760894.138836.222844.092558.411235.225609.565173.399155.153938.173545.271957.385415.354058.63561.0821.250195.12315.531483.12315.843865 0 .315274-.04105.598008-.12315.848203-.082101.250195-.20012.462065-.354058.63561-.153938.173546-.342329.305874-.565173.396986-.222844.091111-.476475.136667-.760894.136667zm11.514571 1.214818c.53072 0 .990335-.084604 1.378845-.25381.388511-.169207.711781-.420125.96981-.752754l-.589363-.611748c-.032253-.031816-.065973-.054232-.101159-.067248s-.070372-.019524-.105558-.019524c-.043982 0-.086498.0094-.127548.028201-.041051.018801-.079169.042663-.114354.071587-.087965.075203-.175197.138114-.261695.188731-.086499.050617-.177396.091834-.272691.123651s-.198653.054233-.310075.067249-.234572.019524-.369451.019524c-.234573 0-.454484-.044833-.659735-.134498s-.384845-.220547-.538784-.392646c-.153938-.1721-.275622-.38397-.365053-.635611-.08943-.25164-.134146-.539437-.134146-.863388 0-.30949.044716-.588608.134146-.837357.089431-.248748.214048-.460618.37385-.63561s.351125-.30949.573969-.403493c.222844-.094004.469145-.141006.738903-.141006.155404 0 .291016.01157.406837.034709.11582.02314.216979.051341.303478.084604.086498.033262.161268.069418.224309.108465.063042.039048.120952.075203.173731.108466.052778.033263.102625.061464.149539.084604.046915.023139.096762.034709.14954.034709.079168 0 .140744-.016632.184726-.049894.043982-.033263.0821-.070142.114354-.110636l.501398-.663811c-.120218-.124374-.258029-.237902-.413433-.340583s-.325469-.1909-.510195-.264657-.383379-.131605-.595961-.173545c-.212581-.04194-.43909-.06291-.679526-.06291-.495535 0-.948552.079541-1.359054.238625-.410502.159083-.763093.3818-1.057775.66815-.294681.286349-.524122.626932-.688323 1.021748s-.246301.827957-.246301 1.299422c0 .462788.071838.89159.215513 1.286405.143676.394816.34966.736122.617952 1.023919.268292.287796.595227.513405.980806.676827.385578.163422.821736.245133 1.308474.245133zm7.538569 0c.498466 0 .952217-.082434 1.361252-.247303.409036-.164868.758695-.392646 1.048979-.683335.290283-.290688.515326-.632717.675128-1.026087.159803-.39337.239704-.818556.239704-1.275559 0-.454111-.079901-.877851-.239704-1.271221-.159802-.393369-.384845-.734675-.675128-1.023918-.290284-.289242-.639943-.51702-1.048979-.683335-.409035-.166314-.862786-.249471-1.361252-.249471-.498467 0-.952951.082434-1.363452.247302-.410502.164868-.761627.391923-1.053377.681166-.291749.289242-.517525.630548-.677327 1.023918-.159803.393369-.239704.818556-.239704 1.275559s.079901.882189.239704 1.275559c.159802.39337.385578.735399.677327 1.026087.29175.290689.642875.518467 1.053377.683335.410501.164869.864985.247303 1.363452.247303zm0-1.214818c-.287351 0-.543182-.045556-.767492-.136667-.22431-.091112-.413434-.22344-.567372-.396986-.153938-.173545-.271957-.385415-.354057-.63561-.082101-.250195-.123151-.532929-.123151-.848203 0-.312382.04105-.59367.123151-.843865.0821-.250195.200119-.462065.354057-.63561.153938-.173546.343062-.306597.567372-.399155.22431-.092557.480141-.138836.767492-.138836.284419 0 .53805.046279.760894.138836.222844.092558.411234.225609.565173.399155.153938.173545.271957.385415.354057.63561.082101.250195.123151.531483.123151.843865 0 .315274-.04105.598008-.123151.848203-.0821.250195-.200119.462065-.354057.63561-.153939.173546-.342329.305874-.565173.396986-.222844.091111-.476475.136667-.760894.136667zm6.861241 1.1454v-3.388475c0-.092558-.002932-.191623-.008796-.297197-.005865-.105573-.013195-.213316-.021992-.323228l3.021586 3.765936c.073304.092557.14954.156191.228708.1909s.175929.052064.290283.052064h.774089v-6.321393h-1.310673v3.345088c0 .101235.002932.208978.008796.323229.005865.11425.014661.232117.02639.353598l-3.043577-3.796306c-.04105-.049171-.077702-.088219-.109956-.117143-.032253-.028925-.065973-.051341-.101159-.067249-.035186-.015909-.07477-.026755-.118752-.03254s-.098227-.008677-.162735-.008677h-.782885v6.321393zm10.239084 0 2.568567-6.321393h-1.205116c-.12315 0-.227242.03254-.312274.097619-.085033.06508-.14221.138113-.171531.219101l-1.231505 3.384136c-.052779.147514-.106291.308043-.160535.481589-.054245.173545-.101893.355768-.142943.546668-.049847-.1909-.103358-.373123-.160535-.546668-.057177-.173546-.113621-.334075-.169332-.481589l-1.240302-3.384136c-.035186-.09545-.093829-.172099-.175929-.229948-.0821-.057848-.187658-.086772-.316673-.086772h-1.196319l2.568568 6.321393zm8.734888 0v-1.128046h-2.630143v-1.505507h2.01439v-1.084659h-2.01439v-1.475136h2.630143v-1.128045h-4.125542v6.321393zm3.844054 0v-2.338525h.378248c.114354 0 .203052.017354.266093.052063s.118019.092558.164934.173546l1.064372 1.835243c.10849.185115.287351.277673.536584.277673h1.345859l-1.363452-2.199689c-.064507-.104127-.14001-.192346-.226509-.264657-.086498-.07231-.179594-.133051-.279287-.182222.208183-.078096.392175-.177885.551978-.299366.159802-.121482.294681-.259595.404637-.41434s.192789-.323229.2485-.505451c.055711-.182223.083567-.376015.083567-.581377 0-.268996-.046915-.517744-.140744-.746246-.093829-.228501-.244102-.426632-.450819-.594393s-.473543-.298643-.800478-.392647c-.326935-.094003-.722043-.141005-1.185323-.141005h-2.084762v6.321393zm.59816-3.349428h-.59816v-1.87429h.59816c.384112 0 .667798.078095.851058.234286.183259.156191.274889.373123.274889.650795 0 .138837-.020525.268273-.061575.388308-.04105.120036-.107024.224886-.197921.314551-.090896.089666-.20745.159807-.349659.210424-.14221.050618-.314474.075926-.516792.075926zm7.864038 3.349428v-5.158639h1.803275v-1.162754h-5.093152v1.162754h1.803275v5.158639zm-158.28796 10.916008c.4984663 0 .9522172-.082434 1.3612528-.247302.4090355-.164868.7586949-.392647 1.0489782-.683335.2902833-.290689.5153262-.632718.6751286-1.026088s.2397037-.818556.2397037-1.275559c0-.45411-.0799013-.877851-.2397037-1.27122-.1598024-.39337-.3848453-.734676-.6751286-1.023918-.2902833-.289243-.6399427-.517021-1.0489782-.683336-.4090356-.166314-.8627865-.249471-1.3612528-.249471s-.9529502.082434-1.3634518.247302c-.4105017.164868-.7616272.391924-1.0533766.681166-.2917493.289242-.5175252.630548-.6773277 1.023918-.1598024.39337-.2397036.818556-.2397036 1.275559s.0799012.882189.2397036 1.275559c.1598025.39337.3855784.735399.6773277 1.026088.2917494.290688.6428749.518467 1.0533766.683335.4105016.164868.8649855.247302 1.3634518.247302zm0-1.214818c-.2873511 0-.5431816-.045556-.7674914-.136667-.2243099-.091112-.4134338-.22344-.5673719-.396985-.1539382-.173546-.2719574-.385416-.3540577-.635611-.0821003-.250194-.1231505-.532929-.1231505-.848203 0-.312382.0410502-.59367.1231505-.843865.0821003-.250194.2001195-.462064.3540577-.63561.1539381-.173545.343062-.306597.5673719-.399154.2243098-.092558.4801403-.138837.7674914-.138837.284419 0 .5380504.046279.7608941.138837.2228438.092557.4112347.225609.5651728.399154.1539381.173546.2719573.385416.3540577.63561.0821003.250195.1231505.531483.1231505.843865 0 .315274-.0410502.598009-.1231505.848203-.0821004.250195-.2001196.462065-.3540577.635611-.1539381.173545-.342329.305873-.5651728.396985-.2228437.091111-.4764751.136667-.7608941.136667zm6.8612414 1.1454v-3.388475c0-.092558-.0029321-.191623-.0087964-.297197-.0058643-.105573-.0131947-.213316-.0219912-.323228l3.0215853 3.765936c.0733038.092558.1495399.156191.228708.1909.0791682.034709.1759293.052064.2902833.052064h.7740888v-6.321393h-1.3106731v3.345088c0 .101235.0029322.208978.0087965.323229s.0146608.232117.0263894.353599l-3.0435764-3.796307c-.0410502-.049171-.0777021-.088219-.1099558-.117143s-.0659735-.051341-.1011593-.067249c-.0351859-.015908-.07477-.026755-.1187523-.03254s-.0982272-.008677-.1627346-.008677h-.7828852v6.321393zm11.5497564 0v-2.338525h.3782479c.1143541 0 .2030517.017355.2660931.052064.0630413.034709.1180192.092557.1649337.173545l1.064372 1.835243c.1084898.185115.2873512.277673.5365843.277673h1.345859l-1.3634519-2.199689c-.0645074-.104127-.1400104-.192346-.2265089-.264656-.0864986-.072311-.1795945-.133052-.2792878-.182223.208183-.078096.3921757-.177884.5519781-.299366.1598025-.121482.2946816-.259595.4046374-.41434s.1927891-.323228.2485001-.505451c.0557109-.182223.0835664-.376015.0835664-.581377 0-.268996-.0469145-.517744-.1407435-.746246-.0938289-.228501-.2441018-.426632-.4508187-.594393-.2067169-.16776-.473543-.298643-.8004782-.392646-.3269352-.094004-.7220431-.141006-1.1853235-.141006h-2.0847619v6.321393zm.5981595-3.349427h-.5981595v-1.874291h.5981595c.3841123 0 .6677982.078095.8510579.234286.1832596.156191.2748895.373123.2748895.650796 0 .138836-.0205251.268272-.0615753.388308-.0410501.120035-.1070236.224886-.1979204.314551s-.2074499.159806-.3496594.210424c-.1422095.050617-.3144736.075926-.5167923.075926zm9.4034194 3.349427v-1.128046h-2.6301426v-1.505506h2.0143902v-1.084659h-2.0143902v-1.475137h2.6301426v-1.128045h-4.1255414v6.321393zm5.2075063 0v-5.158639h1.803275v-1.162754h-5.0931524v1.162754h1.8032754v5.158639zm3.870444 0c.12315 0 .227242-.03254.312274-.097619.085033-.06508.14221-.138114.171531-.219102l.378248-1.102013h2.436621l.378248 1.102013c.032253.092558.090163.168484.17373.227779.083566.059294.189857.088942.318872.088942h1.152336l-2.480602-6.321393h-1.521789l-2.480602 6.321393zm2.955612-2.41662h-1.750497l.589363-1.722439c.043983-.109912.090897-.240071.140744-.390477.049846-.150406.098227-.313828.145141-.490266.049847.173545.100427.334798.151739.483758.051313.14896.096029.278396.134147.388308zm6.025577 2.41662v-6.321393h-1.495399v6.321393zm6.562162 0v-1.171432h-2.375046v-5.149961h-1.486602v6.321393zm6.34225 0v-1.128046h-2.630143v-1.505506h2.01439v-1.084659h-2.01439v-1.475137h2.630143v-1.128045h-4.125542v6.321393zm3.844054 0v-2.338525h.378248c.114354 0 .203052.017355.266093.052064s.118019.092557.164934.173545l1.064372 1.835243c.10849.185115.287351.277673.536584.277673h1.345859l-1.363452-2.199689c-.064507-.104127-.14001-.192346-.226509-.264656-.086498-.072311-.179594-.133052-.279287-.182223.208183-.078096.392175-.177884.551978-.299366.159802-.121482.294681-.259595.404637-.41434s.192789-.323228.2485-.505451.083567-.376015.083567-.581377c0-.268996-.046915-.517744-.140744-.746246-.093829-.228501-.244102-.426632-.450819-.594393-.206717-.16776-.473543-.298643-.800478-.392646-.326935-.094004-.722043-.141006-1.185323-.141006h-2.084762v6.321393zm.59816-3.349427h-.59816v-1.874291h.59816c.384112 0 .667798.078095.851058.234286.183259.156191.274889.373123.274889.650796 0 .138836-.020525.268272-.061575.388308-.04105.120035-.107024.224886-.197921.314551-.090896.089665-.20745.159806-.349659.210424-.14221.050617-.314474.075926-.516792.075926zm5.823258-.564023c.155405 0 .266826-.041217.334266-.123651s.114354-.201747.140743-.357938l.123151-.685504v-1.24085h-1.187523v1.24085l.123151.685504c.029321.156191.081367.275504.156137.357938s.178128.123651.310075.123651zm4.855648 3.982868c.363587 0 .688323-.054233.974208-.162699.285886-.108466.526322-.257426.72131-.446879.194989-.189454.343796-.411448.446421-.665981s.153938-.527867.153938-.820002c0-.263211-.04105-.488097-.12315-.674658-.082101-.186562-.189857-.344922-.32327-.475081s-.285885-.237179-.457417-.321059c-.171531-.08388-.346727-.156914-.525588-.219101-.178862-.062187-.354058-.118589-.525589-.169207-.171531-.050617-.324003-.106296-.457416-.167037s-.24117-.133052-.32327-.216932-.123151-.189454-.123151-.316721c0-.199577.068173-.357937.204518-.47508s.343795-.175715.62235-.175715c.161269 0 .304944.02097.431027.06291.126082.04194.238237.088942.336464.141006.098228.052064.186192.099065.263894.141006.077702.04194.150273.06291.217713.06291.076236 0 .138544-.017355.186925-.052064.04838-.034709.094562-.086773.138544-.156191l.369451-.681166c-.114354-.104127-.244101-.197408-.389243-.279842s-.301279-.153298-.468412-.212593c-.167133-.059294-.343795-.104127-.529987-.134497-.186191-.030371-.377515-.045556-.573969-.045556-.351858 0-.664133.052787-.936823.15836-.272691.105574-.502865.246579-.690523.423017s-.329867.377461-.426628.60307c-.096761.22561-.145142.457003-.145142.694182 0 .295028.04105.543053.123151.744076.0821.201024.189857.368784.32327.503282s.285152.242964.455217.325398.344528.151852.523389.208254c.178862.056403.353325.107743.52339.154022s.321804.099789.455217.16053c.133413.06074.24117.13739.32327.229947.0821.092558.12315.212593.12315.360107 0 .254533-.07477.440372-.224309.557515-.14954.117143-.359189.175715-.628948.175715-.199386 0-.372383-.027479-.518991-.082435s-.276355-.115697-.389243-.182222c-.112888-.066526-.214048-.127267-.303478-.182223-.089431-.054956-.178129-.082434-.266093-.082434-.06744 0-.130481.015908-.189124.047725s-.104092.073757-.136346.12582l-.439823.685505c.126083.124374.274157.237179.444222.338413.170065.101235.351858.188731.54538.262488.193523.073757.393642.130882.600359.171376s.409769.060741.609155.060741zm10.599738-.069418 1.222709-3.917789c.020525-.06074.041783-.127266.063774-.199577.021991-.07231.043249-.14896.063775-.229948.020525.080988.041783.157638.063774.229948.021991.072311.043249.138837.063774.199577l1.205116 3.917789h1.345859l1.979204-6.321393h-1.16993c-.12315 0-.228708.031817-.316672.09545-.087965.063633-.143676.13739-.167133.22127l-.879646 3.297364c-.02639.101235-.052046.209701-.07697.325398-.024923.115697-.049113.237178-.07257.364445-.02639-.130159-.057177-.252364-.092363-.366615-.035186-.11425-.068906-.221993-.10116-.323228l-1.029186-3.297364c-.032253-.098342-.090164-.175714-.17373-.232117-.083566-.056402-.189857-.084603-.318872-.084603h-.439823c-.12315 0-.227975.03254-.314474.097619-.086498.06508-.142942.138114-.169331.219101l-1.037983 3.297364c-.032254.10702-.065974.220547-.101159.340583-.035186.120035-.06744.248025-.096762.383969-.01466-.133051-.036651-.260318-.065973-.3818s-.058643-.235732-.087965-.342752l-.879646-3.297364c-.026389-.09545-.082833-.172099-.169332-.229947-.086499-.057849-.194255-.086773-.32327-.086773h-1.249098l1.979204 6.321393zm12.218288 0v-1.128046h-2.630142v-1.505506h2.01439v-1.084659h-2.01439v-1.475137h2.630142v-1.128045h-4.125541v6.321393zm4.917223 0c.384112 0 .725708-.048448 1.024788-.145344.29908-.096897.550512-.231394.754297-.403494.203785-.172099.358456-.373845.464013-.605239.105558-.231394.158337-.481589.158337-.750584 0-.355769-.10116-.64718-.303478-.874236-.202319-.227055-.514593-.3912-.936824-.492435.193523-.069418.359189-.151129.497001-.245133.137811-.094004.250699-.198854.338663-.314551.087965-.115697.152472-.239348.193523-.370953.04105-.131606.061575-.268273.061575-.410001 0-.260319-.044716-.496051-.134146-.707198-.089431-.211147-.232373-.390477-.428828-.537991-.196454-.147514-.450086-.261764-.760894-.342752s-.68759-.121482-1.130346-.121482h-2.357452v6.321393zm-.29908-3.661809h-.774088v-1.561909h.870849c.167133 0 .311542.013016.433226.039048.121685.026031.222111.069418.301279.130159s.137811.141005.175929.240794.057177.224886.057177.375292c0 .153299-.02419.280565-.07257.3818-.048381.101235-.118753.180777-.211115.238625-.092363.057849-.204518.098342-.336465.121482-.131947.023139-.280021.034709-.444222.034709zm.272691 2.555457h-1.046779v-1.574925h1.037982c.187658 0 .343062.017354.466213.052063.12315.034709.222111.083881.296881.147514.074769.063633.127548.141729.158336.234286.030787.092558.046181.196685.046181.312382 0 .101235-.013194.201024-.039584.299366-.026389.098342-.07477.186561-.145141.264657-.070372.078095-.167866.141729-.292483.1909-.124616.049171-.285152.073757-.481606.073757zm6.482993 1.17577c.363587 0 .688324-.054233.974209-.162699s.526321-.257426.72131-.446879c.194988-.189454.343795-.411448.44642-.665981.102626-.254533.153938-.527867.153938-.820002 0-.263211-.04105-.488097-.12315-.674658-.082101-.186562-.189857-.344922-.32327-.475081s-.285885-.237179-.457416-.321059-.346728-.156914-.525589-.219101-.354058-.118589-.525589-.169207c-.171531-.050617-.324003-.106296-.457416-.167037s-.24117-.133052-.32327-.216932-.12315-.189454-.12315-.316721c0-.199577.068172-.357937.204517-.47508.136346-.117143.343795-.175715.62235-.175715.161269 0 .304944.02097.431027.06291s.238237.088942.336465.141006c.098227.052064.186191.099065.263894.141006.077702.04194.150272.06291.217712.06291.076236 0 .138544-.017355.186925-.052064.04838-.034709.094562-.086773.138544-.156191l.369452-.681166c-.114354-.104127-.244102-.197408-.389244-.279842s-.301279-.153298-.468412-.212593c-.167132-.059294-.343795-.104127-.529987-.134497-.186191-.030371-.377514-.045556-.573969-.045556-.351858 0-.664133.052787-.936823.15836-.27269.105574-.502865.246579-.690523.423017-.187657.176438-.329867.377461-.426628.60307-.096761.22561-.145142.457003-.145142.694182 0 .295028.041051.543053.123151.744076.0821.201024.189857.368784.32327.503282s.285152.242964.455217.325398.344528.151852.523389.208254c.178862.056403.353325.107743.52339.154022s.321804.099789.455217.16053c.133413.06074.24117.13739.32327.229947.0821.092558.123151.212593.123151.360107 0 .254533-.07477.440372-.22431.557515s-.359189.175715-.628947.175715c-.199387 0-.372384-.027479-.518992-.082435-.146607-.054956-.276355-.115697-.389243-.182222-.112888-.066526-.214048-.127267-.303478-.182223-.089431-.054956-.178129-.082434-.266093-.082434-.06744 0-.130481.015908-.189124.047725s-.104092.073757-.136345.12582l-.439824.685505c.126083.124374.274157.237179.444222.338413.170065.101235.351858.188731.545381.262488.193522.073757.393641.130882.600358.171376s.409769.060741.609155.060741zm6.175118-.069418v-6.321393h-1.495399v6.321393zm5.550568 0v-5.158639h1.803275v-1.162754h-5.093152v1.162754h1.803275v5.158639zm8.05756 0v-1.128046h-2.630142v-1.505506h2.01439v-1.084659h-2.01439v-1.475137h2.630142v-1.128045h-4.125541v6.321393z"/><path d="m65.6612078 150.054399c2.5038098 0 4.5185943-.581151 6.0443534-1.743452 1.5257592-1.162301 2.679859-2.590553 3.4622996-4.284755l29.8696692-63.7098723c.430342-.9456011.880246-2.0882024 1.34971-3.4278039s.704196-3.0929035.704196-5.259906v-7.6830087h-60.091436v12.0564137c0 .5122006.1173661 1.0145511.3520983 1.5070517.2347321.4925005.5379279.925901.9095871 1.3002015.3716593.3743004.8020016.6698007 1.291027.886501.4890253.2167002 1.0073922.3250503 1.5551006.3250503h37.6158308c-1.1345388 1.2214014-2.1810531 2.5019029-3.1395428 3.8415044s-1.8485159 2.8565033-2.6700785 4.5507052l-30.5151825 61.6413701zm75.5837602.945601c4.538155 0 8.753554-.886501 12.646195-2.659503 3.892642-1.773002 7.257137-4.471905 10.093484-8.096709s5.056522-8.19521 6.660525-13.711216 2.406005-12.036713 2.406005-19.562122c0-7.5254086-.802002-14.046116-2.406005-19.5621223-1.604003-5.5160062-3.824178-10.0864114-6.660525-13.7112155-2.836347-3.6248042-6.200842-6.3138572-10.093484-8.0671592-3.892641-1.753302-8.10804-2.629953-12.646195-2.629953-4.538156 0-8.733993.876651-12.587513 2.629953s-7.188673 4.442355-10.005459 8.0671592c-2.816786 3.6248041-5.0174 8.1952093-6.601842 13.7112155-1.584443 5.5160063-2.376664 12.0367137-2.376664 19.5621223 0 7.525409.792221 14.046116 2.376664 19.562122 1.584442 5.516006 3.785056 10.086412 6.601842 13.711216s6.151939 6.323707 10.005459 8.096709 8.049357 2.659503 12.587513 2.659503zm0-14.715917c-1.604004 0-3.178665-.40385-4.723985-1.211551-1.545321-.807701-2.914592-2.304903-4.107813-4.491605-1.193222-2.186703-2.151712-5.171256-2.87547-8.95366-.723757-3.782405-1.085636-8.66801-1.085636-14.656817 0-5.949407.361879-10.8251623 1.085636-14.6272667.723758-3.8021043 1.682248-6.7866577 2.87547-8.9536601 1.193221-2.1670025 2.562492-3.6543542 4.107813-4.4620551 1.54532-.8077009 3.119981-1.2115514 4.723985-1.2115514 1.604003 0 3.188445.4038505 4.753326 1.2115514s2.963494 2.2950526 4.195838 4.4620551c1.232344 2.1670024 2.220175 5.1515558 2.963493 8.9536601.743319 3.8021044 1.114978 8.6778597 1.114978 14.6272667 0 5.988807-.371659 10.874412-1.114978 14.656817-.743318 3.782404-1.731149 6.766957-2.963493 8.95366-1.232344 2.186702-2.630957 3.683904-4.195838 4.491605s-3.149323 1.211551-4.753326 1.211551zm42.897304-8.244459c1.34971 0 2.645627-.2561 3.887752-.768301 1.242124-.512201 2.332651-1.236176 3.27158-2.171927.938928-.935751 1.692027-2.053728 2.259297-3.353929.567269-1.300202.850904-2.738303.850904-4.314305 0-1.635102-.254293-3.117529-.76288-4.44728-.508586-1.329752-1.217673-2.467428-2.12726-3.413029s-1.995224-1.679427-3.256909-2.201478c-1.261685-.52205-2.635847-.783075-4.122484-.783075s-2.851018.261025-4.093142.783075c-1.242124.522051-2.31798 1.255877-3.227567 2.201478-.909588.945601-1.618674 2.083277-2.127261 3.413029-.508586 1.329751-.762879 2.812178-.762879 4.44728 0 1.576002.254293 3.014103.762879 4.314305.508587 1.300201 1.217673 2.418178 2.127261 3.353929.909587.935751 1.985443 1.659726 3.227567 2.171927s2.606505.768301 4.093142.768301zm-1.701808 22.014775c.625952 0 1.15899-.123125 1.599113-.369375.440123-.246251.806892-.556526 1.100307-.930827l32.216991-41.754197h-6.631184c-.76288 0-1.359491.142825-1.789833.428475-.430342.285651-.792221.595926-1.085636.930827l-32.216991 41.695097zm1.701808-27.717932c-.469464 0-.899806-.0788-1.291027-.2364-.39122-.1576-.723757-.42355-.997611-.797851-.273855-.3743-.489026-.876651-.645514-1.507051-.156488-.630401-.234732-1.418402-.234732-2.364003 0-1.004701.078244-1.837027.234732-2.496978s.371659-1.186926.645514-1.580927c.273854-.394.606391-.669801.997611-.827401.391221-.1576.821563-.2364 1.291027-.2364.469465 0 .904697.0788 1.305698.2364s.748209.433401 1.041624.827401c.293415.394001.523257.920976.689526 1.580927.166268.659951.249403 1.492277.249403 2.496978 0 .945601-.083135 1.733602-.249403 2.364003-.166269.6304-.396111 1.132751-.689526 1.507051-.293415.374301-.640623.640251-1.041624.797851s-.836233.2364-1.305698.2364zm24.588195 28.249833c1.34971 0 2.645628-.256101 3.887752-.768301 1.242124-.512201 2.332651-1.236177 3.27158-2.171928.938928-.935751 1.692027-2.058652 2.259297-3.368704.567269-1.310051.850904-2.753078.850904-4.32908 0-1.635101-.254293-3.117528-.76288-4.44728-.508586-1.329751-1.217673-2.467427-2.12726-3.413028-.909587-.945602-1.995223-1.679427-3.256909-2.201478-1.261685-.522051-2.635846-.783076-4.122484-.783076-1.486637 0-2.851017.261025-4.093142.783076-1.242124.522051-2.31798 1.255876-3.227567 2.201478-.909587.945601-1.618674 2.083277-2.127261 3.413028-.508586 1.329752-.762879 2.812179-.762879 4.44728 0 1.576002.254293 3.019029.762879 4.32908.508587 1.310052 1.217674 2.432953 2.127261 3.368704s1.985443 1.659727 3.227567 2.171928c1.242125.5122 2.606505.768301 4.093142.768301zm0-5.732707c-.469464 0-.899806-.0788-1.291027-.2364-.39122-.1576-.723757-.423551-.997611-.797851-.273854-.374301-.489026-.876651-.645514-1.507052s-.234732-1.418401-.234732-2.364003c0-.985001.078244-1.807477.234732-2.467427.156488-.659951.37166-1.186927.645514-1.580927.273854-.394001.606391-.669801.997611-.827401.391221-.1576.821563-.2364 1.291027-.2364.469465 0 .904697.0788 1.305698.2364s.748209.4334 1.041624.827401c.293415.394.523257.920976.689526 1.580927.166269.65995.249403 1.482426.249403 2.467427 0 .945602-.083134 1.733602-.249403 2.364003s-.396111 1.132751-.689526 1.507052c-.293415.3743-.640623.640251-1.041624.797851s-.836233.2364-1.305698.2364z"/></g></g></svg>