<svg height="306" viewBox="0 0 259 306" width="259" xmlns="http://www.w3.org/2000/svg" xmlns:xlink="http://www.w3.org/1999/xlink"><filter id="a" height="496.2%" width="119.8%" x="-9.9%" y="-198.1%"><feGaussianBlur in="SourceGraphic" stdDeviation="6.60267857"/></filter><linearGradient id="b" x1="100%" x2="0%" y1="50%" y2="50%"><stop offset="0" stop-color="#da3e3f"/><stop offset="1" stop-color="#ff5254"/></linearGradient><g fill="none" fill-rule="evenodd"><ellipse cx="130" cy="285" fill="#000" filter="url(#a)" opacity=".2" rx="100" ry="5"/><circle cx="129.5" cy="129.5" fill="url(#b)" r="129.5"/><g fill="#fff" fill-rule="nonzero"><path d="m55.2522891 178.345701c.500327 0 .9557717-.080973 1.3663342-.242918.4105625-.161946.7615272-.385686 1.0528941-.671221s.5172498-.621501.6776488-1.007897.2405984-.804044.2405984-1.252946c0-.44606-.0801994-.862287-.2405984-1.248683s-.3862819-.721652-.6776488-1.005766c-.2913669-.284115-.6423316-.507855-1.0528941-.671221s-.8660072-.245049-1.3663342-.245049c-.5003271 0-.9565076.080973-1.3685416.242918s-.7644703.384975-1.0573087.66909c-.2928385.284115-.5194572.61937-.6798562 1.005766-.1603989.386396-.2405984.804044-.2405984 1.252945 0 .448902.0801995.86655.2405984 1.252946.160399.386396.3870177.722362.6798562 1.007897.2928384.285535.6452747.509275 1.0573087.671221.412034.161945.8682145.242918 1.3685416.242918zm0-1.193282c-.2884238 0-.5452093-.044748-.7703565-.134244s-.4149771-.219479-.5694899-.389947c-.1545127-.170469-.2729725-.378583-.3553793-.624342s-.1236102-.523482-.1236102-.833167c0-.306843.0412034-.583145.1236102-.828904s.2008666-.453873.3553793-.624342c.1545128-.170469.3443427-.301161.5694899-.392078s.4819327-.136375.7703565-.136375c.2854807 0 .5400588.045458.7637345.136375.2236756.090917.4127698.221609.5672825.392078.1545128.170469.2729726.378583.3553794.624342s.1236102.522061.1236102.828904c0 .309685-.0412034.587408-.1236102.833167s-.2008666.453873-.3553794.624342c-.1545127.170468-.3436069.300451-.5672825.389947-.2236757.089496-.4782538.134244-.7637345.134244zm7.0722694 1.125094v-2.416395h2.1984959v-1.112309h-2.1984959v-1.572574h2.6399609v-1.108047h-4.1409419v6.209325zm12.0343362 0v-1.150664h-2.3839111v-5.058661h-1.4921518v6.209325zm4.8826029.068188c.5003271 0 .9557718-.080973 1.3663343-.242918.4105625-.161946.7615272-.385686 1.0528941-.671221s.5172498-.621501.6776488-1.007897c.1603989-.386396.2405984-.804044.2405984-1.252946 0-.44606-.0801995-.862287-.2405984-1.248683-.160399-.386396-.3862819-.721652-.6776488-1.005766-.2913669-.284115-.6423316-.507855-1.0528941-.671221s-.8660072-.245049-1.3663343-.245049c-.500327 0-.9565075.080973-1.3685415.242918s-.7644703.384975-1.0573088.66909c-.2928384.284115-.5194571.61937-.6798561 1.005766-.1603989.386396-.2405984.804044-.2405984 1.252945 0 .448902.0801995.86655.2405984 1.252946.160399.386396.3870177.722362.6798561 1.007897.2928385.285535.6452748.509275 1.0573088.671221.412034.161945.8682145.242918 1.3685415.242918zm0-1.193282c-.2884238 0-.5452093-.044748-.7703564-.134244-.2251472-.089496-.4149771-.219479-.5694899-.389947-.1545128-.170469-.2729725-.378583-.3553793-.624342s-.1236102-.523482-.1236102-.833167c0-.306843.0412034-.583145.1236102-.828904s.2008665-.453873.3553793-.624342.3443427-.301161.5694899-.392078c.2251471-.090917.4819326-.136375.7703564-.136375.2854808 0 .5400589.045458.7637345.136375s.4127698.221609.5672826.392078c.1545127.170469.2729725.378583.3553793.624342s.1236102.522061.1236102.828904c0 .309685-.0412034.587408-.1236102.833167s-.2008666.453873-.3553793.624342c-.1545128.170468-.343607.300451-.5672826.389947s-.4782537.134244-.7637345.134244zm8.3348595 1.193282c.5327011 0 .9940321-.083104 1.3839928-.249311.3899608-.166207.7144376-.412676.9734304-.739408l-.5915631-.600903c-.0323741-.031252-.0662198-.053271-.101537-.066056-.0353172-.012786-.0706344-.019178-.1059516-.019178-.0441465 0-.0868214.009234-.1280248.027701s-.0794638.041907-.114781.070318c-.088293.07387-.1758502.135665-.2626716.185385-.0868215.04972-.1780576.090207-.2737084.121459-.0956507.031253-.199395.053272-.3112328.066057s-.235448.019178-.3708306.019178c-.235448 0-.4561805-.044038-.6621975-.132114-.2060171-.088075-.3862819-.216637-.5407947-.385685-.1545128-.169049-.2766514-.377163-.366416-.624342-.0897645-.24718-.1346468-.529874-.1346468-.848083 0-.304002.0448823-.578173.1346468-.822511.0897646-.244339.2148463-.452453.3752453-.624342.160399-.17189.3524362-.304003.5761119-.39634.2236756-.092338.470896-.138506.7416612-.138506.1559843 0 .2921027.011364.4083551.034094.1162525.022729.2177894.05043.3046109.083103s.1618705.068188.2251472.106543c.0632766.038356.1214028.07387.1743786.106543.0529759.032673.1030086.060374.1500982.083104.0470896.022729.0971223.034093.1500981.034093.0794637 0 .1412688-.016336.1854153-.049009.0441465-.032674.0824068-.068898.1147809-.108674l.5032701-.652043c-.1206671-.12217-.2589928-.233685-.4149771-.334545-.1559843-.100861-.3266841-.187516-.5120994-.259965-.1854154-.07245-.3848104-.129272-.5981851-.170469-.2133748-.041197-.4407293-.061795-.6820635-.061795-.4973839 0-.9520929.078132-1.3641269.234395s-.7659418.375031-1.0617234.656304c-.2957816.281274-.5260792.615819-.6908928 1.003635-.1648136.387817-.2472204.813279-.2472204 1.276385 0 .454584.072106.875784.2163179 1.2636.1442119.387817.3509647.723072.6202583 1.005766.2692937.282694.5974494.504304.984467.664829.3870177.160524.8248039.240787 1.3133585.240787zm5.2004578-.068188c.1236102 0 .2280902-.031963.3134401-.095889.0853499-.063925.1427404-.135664.1721714-.215216l.3796599-1.082477h2.4457162l.3796599 1.082477c.0323741.090916.0905004.165496.1743787.22374.0838784.058243.1905658.087365.3200622.087365h1.1566383l-2.4898627-6.209325h-1.527469l-2.4898627 6.209325zm2.9666449-2.373778h-1.7570308l.5915631-1.691902c.0441466-.107964.0912362-.235816.1412689-.383555.0500327-.14774.0985938-.308265.1456834-.481575.0500327.170469.1008012.328863.1523054.475182.0515043.146319.0963866.273461.1346469.381424zm8.2907132 2.373778v-1.150664h-2.383911v-5.058661h-1.492152v6.209325zm6.763244 0v-3.571321c0-.082393-.002944-.1726-.00883-.270619-.005886-.09802-.014715-.19675-.026488-.29619l1.712885 3.19629c.052975.09944.124346.174731.21411.225871.089765.051141.192037.076711.306818.076711h.203074c.114781 0 .217054-.02557.306818-.076711.089765-.05114.161135-.126431.214111-.225871l1.704055-3.192028c-.017659.201721-.026488.389237-.026488.562547v3.571321h1.315566v-6.209325h-1.13898c-.064748 0-.121403.00142-.169964.004261s-.091972.011365-.130232.025571c-.03826.014205-.072842.036224-.103744.066056-.030903.029832-.06107.071739-.090501.125721l-1.651079 3.136626c-.058862.110804-.116252.225161-.172171.343068-.055919.117908-.108895.239367-.158928.364377-.050032-.122169-.102272-.241497-.15672-.357984-.054447-.116487-.111102-.228713-.169964-.336676l-1.655494-3.149411c-.029431-.053982-.059597-.095889-.0905-.125721s-.065484-.051851-.103744-.066056c-.038261-.014206-.081671-.02273-.130232-.025571-.048562-.002841-.105216-.004261-.169964-.004261h-1.13898v6.209325zm11.504578.068188c.500327 0 .955772-.080973 1.366334-.242918.410563-.161946.761527-.385686 1.052894-.671221s.51725-.621501.677649-1.007897.240598-.804044.240598-1.252946c0-.44606-.080199-.862287-.240598-1.248683s-.386282-.721652-.677649-1.005766c-.291367-.284115-.642331-.507855-1.052894-.671221-.410562-.163366-.866007-.245049-1.366334-.245049s-.956508.080973-1.368542.242918-.76447.384975-1.057308.66909c-.292839.284115-.519458.61937-.679857 1.005766s-.240598.804044-.240598 1.252945c0 .448902.080199.86655.240598 1.252946s.387018.722362.679857 1.007897c.292838.285535.645274.509275 1.057308.671221.412034.161945.868215.242918 1.368542.242918zm0-1.193282c-.288424 0-.545209-.044748-.770357-.134244-.225147-.089496-.414977-.219479-.56949-.389947-.154512-.170469-.272972-.378583-.355379-.624342s-.12361-.523482-.12361-.833167c0-.306843.041203-.583145.12361-.828904s.200867-.453873.355379-.624342c.154513-.170469.344343-.301161.56949-.392078.225148-.090917.481933-.136375.770357-.136375.285481 0 .540059.045458.763734.136375.223676.090917.41277.221609.567283.392078s.272972.378583.355379.624342.12361.522061.12361.828904c0 .309685-.041203.587408-.12361.833167s-.200866.453873-.355379.624342c-.154513.170468-.343607.300451-.567283.389947-.223675.089496-.478253.134244-.763734.134244zm8.140615 1.125094c.385546 0 .728417-.047589 1.028613-.142767.300196-.095179.552567-.227292.757113-.39634.204545-.169049.359794-.367219.465745-.59451.105952-.227292.158928-.473051.158928-.737278 0-.349461-.101537-.635706-.304611-.858736s-.516514-.384265-.940321-.483706c.194245-.068187.36053-.148449.498856-.240787.138325-.092337.251635-.195329.339928-.308974.088293-.113646.153041-.235105.194244-.364377.041204-.129273.061806-.263517.061806-.402733 0-.255703-.044883-.487257-.134647-.69466-.089765-.207404-.233241-.383555-.430429-.528453-.197187-.144899-.451766-.257124-.763734-.336676-.311969-.079552-.690157-.119328-1.134565-.119328h-2.366253v6.209325zm-.300197-3.596891h-.776978v-1.534219h.874101c.167756 0 .312704.012785.434843.038355.122138.02557.22294.068188.302403.127852.079464.059664.138326.138506.176586.236525.038261.09802.057391.220899.057391.368639 0 .150581-.024281.275591-.072842.375031s-.119196.177572-.211903.234395c-.092708.056823-.205281.096599-.337721.119328-.132439.022729-.281066.034094-.44588.034094zm.273709 2.510153h-1.050687v-1.547005h1.041857c.188359 0 .344343.017047.467953.051141.123611.034094.22294.082393.297989.144898.075049.062506.128025.139217.158928.230133.030902.090917.046353.193198.046353.306844 0 .09944-.013243.19746-.039731.294059s-.075049.183254-.145684.259965c-.070634.076711-.168492.139216-.293574.187515-.125082.0483-.286217.07245-.483404.07245zm6.401242 1.086738v-6.209325h-1.500981v6.209325zm6.586658 0v-1.150664h-2.383911v-5.058661h-1.492152v6.209325zm6.365926 0v-1.108047h-2.639961v-1.478817h2.02191v-1.06543h-2.02191v-1.448984h2.639961v-1.108047h-4.140942v6.209325zm7.328319.068188c.364944 0 .690893-.053272.977845-.159815s.528286-.252862.724002-.438957c.195717-.186095.345079-.404153.448087-.654174.103009-.250021.154513-.518509.154513-.805465 0-.258544-.041203-.479443-.12361-.662697s-.190566-.338807-.324477-.466659c-.133911-.127851-.286952-.232974-.459123-.315367-.172172-.082393-.348022-.154132-.527551-.215217-.179529-.061084-.355379-.116487-.527551-.166207-.172171-.04972-.325212-.104412-.459123-.164076-.133912-.059664-.24207-.130693-.324477-.213086s-.12361-.186095-.12361-.311106c0-.196039.068427-.351591.205281-.466658.136854-.115066.345078-.1726.624673-.1726.16187 0 .306082.020599.432635.061795.126554.041197.239127.087366.337721.138506.098594.051141.186887.09731.264879.138506.077992.041197.150834.061795.218525.061795.076521 0 .139062-.017047.187623-.051141.048561-.034093.094915-.085234.139062-.153421l.37083-.66909c-.114781-.102282-.245013-.193909-.390696-.274881-.145684-.080973-.302404-.150581-.470161-.208825-.167756-.058243-.345078-.102281-.531965-.132113s-.378924-.044748-.576112-.044748c-.353172 0-.666612.051851-.94032.155553-.273709.103702-.504742.242208-.6931.415517-.188359.17331-.331099.37077-.428221.592379-.097123.22161-.145684.448902-.145684.681876 0 .289797.041203.533425.12361.730885.082407.197459.190566.362246.324477.494359s.286217.238656.456916.319629c.1707.080973.345815.14916.525344.204563.179529.055402.354643.105832.525343.151291.1707.045458.323005.098019.456916.157683s.24207.134955.324477.225871c.082407.090917.12361.208825.12361.353723 0 .250021-.075049.432565-.225147.547631-.150098.115067-.36053.1726-.631295.1726-.200131 0-.373773-.026991-.520928-.080973s-.277388-.113646-.390697-.178992-.214846-.125011-.304611-.178992c-.089764-.053982-.178793-.080973-.267086-.080973-.067692 0-.130968.015626-.18983.046879s-.10448.072449-.136854.12359l-.441465.673351c.126553.12217.27518.232975.445879.332415.1707.09944.353172.185384.547417.257834.194245.072449.395111.128562.6026.168338.207488.039776.411298.059664.611429.059664zm8.70569-.068188v-1.108047h-2.639961v-1.478817h2.02191v-1.06543h-2.02191v-1.448984h2.639961v-1.108047h-4.140942v6.209325zm3.010791 0c.12361 0 .22809-.031963.31344-.095889.08535-.063925.142741-.135664.172172-.215216l.37966-1.082477h2.445716l.37966 1.082477c.032374.090916.0905.165496.174378.22374.083879.058243.190566.087365.320062.087365h1.156639l-2.489863-6.209325h-1.527469l-2.489863 6.209325zm2.966645-2.373778h-1.757031l.591563-1.691902c.044147-.107964.091236-.235816.141269-.383555.050033-.14774.098594-.308265.145684-.481575.050032.170469.100801.328863.152305.475182s.096387.273461.134647.381424zm5.906802 2.373778v-2.297067h.37966c.114781 0 .203809.017047.267086.051141s.11846.090917.165549.170469l1.068346 1.802707c.108895.181833.288424.27275.538587.27275h1.350883l-1.368541-2.160692c-.064749-.102281-.140533-.188936-.227355-.259965-.086821-.071028-.180265-.130692-.28033-.178992.20896-.076711.393639-.17473.554038-.294059.160399-.119328.295782-.254992.406148-.406994.110366-.152001.193509-.317498.249428-.49649s.083878-.369349.083878-.571071c0-.264226-.047089-.508565-.141268-.733015-.09418-.224451-.245014-.419069-.452502-.583856-.207489-.164786-.475311-.293348-.803466-.385686-.328156-.092337-.724739-.138505-1.189749-.138505h-2.092544v6.209325zm.600392-3.290047h-.600392v-1.841063h.600392c.385546 0 .670291.076711.854235.230132.183944.153422.275916.366508.275916.639258 0 .136375-.020602.263517-.061805.381424-.041204.117908-.107424.220899-.19866.308975s-.208224.156973-.350964.206693c-.142741.04972-.315648.074581-.518722.074581zm7.840419 3.358235c.532701 0 .994032-.083104 1.383993-.249311s.714437-.412676.97343-.739408l-.591563-.600903c-.032374-.031252-.06622-.053271-.101537-.066056-.035317-.012786-.070634-.019178-.105952-.019178-.044146 0-.086821.009234-.128024.027701-.041204.018467-.079464.041907-.114781.070318-.088293.07387-.175851.135665-.262672.185385s-.178058.090207-.273708.121459c-.095651.031253-.199395.053272-.311233.066057s-.235448.019178-.370831.019178c-.235448 0-.45618-.044038-.662197-.132114-.206017-.088075-.386282-.216637-.540795-.385685-.154513-.169049-.276651-.377163-.366416-.624342-.089765-.24718-.134647-.529874-.134647-.848083 0-.304002.044882-.578173.134647-.822511.089765-.244339.214846-.452453.375245-.624342.160399-.17189.352437-.304003.576112-.39634.223676-.092338.470896-.138506.741661-.138506.155985 0 .292103.011364.408356.034094.116252.022729.217789.05043.30461.083103.086822.032673.161871.068188.225148.106543.063276.038356.121402.07387.174378.106543s.103009.060374.150098.083104c.04709.022729.097123.034093.150098.034093.079464 0 .141269-.016336.185416-.049009.044146-.032674.082407-.068898.114781-.108674l.50327-.652043c-.120667-.12217-.258993-.233685-.414977-.334545-.155985-.100861-.326684-.187516-.5121-.259965-.185415-.07245-.38481-.129272-.598185-.170469s-.440729-.061795-.682063-.061795c-.497384 0-.952093.078132-1.364127.234395s-.765942.375031-1.061724.656304c-.295781.281274-.526079.615819-.690892 1.003635-.164814.387817-.247221.813279-.247221 1.276385 0 .454584.072106.875784.216318 1.2636.144212.387817.350965.723072.620258 1.005766.269294.282694.59745.504304.984467.664829.387018.160524.824804.240787 1.313359.240787zm6.0569-.068188v-2.625219h2.613473v2.625219h1.500981v-6.209325h-1.500981v2.595387h-2.613473v-2.595387h-1.500981v6.209325zm10.833551 0v-1.108047h-2.639961v-1.478817h2.02191v-1.06543h-2.02191v-1.448984h2.639961v-1.108047h-4.140942v6.209325zm4.105625.068188c.364944 0 .690893-.053272.977845-.159815s.528286-.252862.724002-.438957c.195717-.186095.345079-.404153.448087-.654174.103009-.250021.154513-.518509.154513-.805465 0-.258544-.041203-.479443-.12361-.662697s-.190566-.338807-.324477-.466659c-.133911-.127851-.286952-.232974-.459123-.315367-.172172-.082393-.348022-.154132-.527551-.215217-.179529-.061084-.355379-.116487-.527551-.166207-.172171-.04972-.325212-.104412-.459123-.164076s-.24207-.130693-.324477-.213086-.12361-.186095-.12361-.311106c0-.196039.068427-.351591.205281-.466658.136854-.115066.345078-.1726.624673-.1726.16187 0 .306082.020599.432636.061795.126553.041197.239126.087366.33772.138506.098594.051141.186887.09731.264879.138506.077992.041197.150834.061795.218525.061795.076521 0 .139062-.017047.187623-.051141.048561-.034093.094915-.085234.139062-.153421l.37083-.66909c-.114781-.102282-.245013-.193909-.390696-.274881-.145684-.080973-.302404-.150581-.470161-.208825-.167756-.058243-.345078-.102281-.531965-.132113s-.378924-.044748-.576112-.044748c-.353172 0-.666612.051851-.94032.155553-.273709.103702-.504742.242208-.6931.415517-.188359.17331-.331099.37077-.428221.592379-.097123.22161-.145684.448902-.145684.681876 0 .289797.041204.533425.12361.730885.082407.197459.190566.362246.324477.494359s.286217.238656.456916.319629c.1707.080973.345815.14916.525344.204563.179529.055402.354643.105832.525343.151291.1707.045458.323005.098019.456916.157683.133912.059664.24207.134955.324477.225871.082407.090917.12361.208825.12361.353723 0 .250021-.075049.432565-.225147.547631-.150098.115067-.360529.1726-.631295.1726-.200131 0-.373773-.026991-.520928-.080973s-.277388-.113646-.390697-.178992-.214846-.125011-.304611-.178992c-.089764-.053982-.178793-.080973-.267086-.080973-.067691 0-.130968.015626-.18983.046879s-.10448.072449-.136854.12359l-.441465.673351c.126553.12217.27518.232975.445879.332415.1707.09944.353172.185384.547417.257834.194245.072449.395111.128562.6026.168338.207488.039776.411298.059664.611429.059664zm-169.6329302 10.586111v-2.297066h.3796599c.1147809 0 .2038097.017046.2670863.05114.0632767.034094.1184598.090917.1655494.170469l1.0683454 1.802707c.1088947.181834.2884238.27275.5385873.27275h1.350883l-1.3685416-2.160691c-.0647482-.102282-.140533-.188937-.2273545-.259965-.0868214-.071029-.1802649-.130693-.2803303-.178993.2089601-.076711.3936397-.17473.5540386-.294058.160399-.119328.2957816-.254993.4061478-.406994.1103663-.152002.1935089-.317499.2494278-.496491s.0838783-.369349.0838783-.57107c0-.264227-.0470896-.508565-.1412688-.733016s-.2450131-.419069-.4525016-.583856c-.2074886-.164786-.4753107-.293348-.8034664-.385685-.3281556-.092338-.7247384-.138506-1.1897482-.138506h-2.0925442v6.209325zm.6003924-3.290047h-.6003924v-1.841063h.6003924c.3855461 0 .6702911.076711.8542348.230133.1839438.153422.2759157.366508.2759157.639258 0 .136375-.0206017.263516-.0618051.381424-.0412034.117907-.1074232.220899-.1986593.308974-.0912361.088076-.2082243.156974-.3509647.206694-.1427403.04972-.3156475.07458-.5187214.07458zm9.438522 3.290047v-1.108047h-2.6399608v-1.478816h2.0219098v-1.06543h-2.0219098v-1.448985h2.6399608v-1.108047h-4.1409419v6.209325zm4.1056245.068188c.3649444 0 .6908928-.053271.977845-.159814.2869523-.106543.5282865-.252863.7240027-.438958.1957161-.186095.3450785-.404153.448087-.654174.1030085-.25002.1545127-.518509.1545127-.805465 0-.258544-.0412034-.479443-.1236102-.662697s-.1905657-.338807-.3244768-.466658c-.133911-.127852-.2869522-.232974-.4591236-.315368-.1721713-.082393-.3480216-.154132-.5275507-.215216-.1795291-.061085-.3553793-.116487-.5275507-.166208-.1721713-.04972-.3252126-.104412-.4591236-.164076-.1339111-.059664-.24207-.130692-.3244768-.213086-.0824068-.082393-.1236102-.186095-.1236102-.311105 0-.196039.0684271-.351592.2052812-.466659.1368542-.115066.3450785-.172599.624673-.172599.1618705 0 .3060825.020598.4326358.061795.1265533.041196.2391268.087365.3377207.138506.0985939.05114.1868869.097309.264879.138505.0779922.041197.1508339.061795.2185252.061795.0765206 0 .1390615-.017046.1876226-.05114.0485612-.034094.094915-.085235.1390615-.153422l.3708306-.66909c-.1147809-.102281-.2450131-.193908-.3906965-.274881-.1456835-.080973-.3024036-.150581-.4701603-.208824-.1677567-.058244-.3450785-.102282-.5319653-.132114-.1868869-.029832-.3789242-.044748-.5761119-.044748-.353172 0-.6666121.051851-.9403205.155553-.2737083.103702-.5047416.242208-.6931.415518-.1883585.17331-.3310988.370769-.4282211.592379-.0971223.221609-.1456835.448901-.1456835.681875 0 .289797.0412034.533425.1236102.730885s.1905658.362246.3244768.494359c.1339111.132114.2862165.238657.4569163.319629.1706998.080973.3458143.149161.5253434.204563s.3546436.105833.5253434.151291.3230052.09802.4569163.157684c.133911.059664.24207.134954.3244768.225871.0824068.090916.1236102.208824.1236102.353722 0 .250021-.0750491.432565-.2251472.547631-.1500981.115067-.3605298.1726-.631295.1726-.2001308 0-.3737737-.026991-.5209287-.080973-.147155-.053981-.2773872-.113645-.3906965-.178992-.1133094-.065346-.2148464-.12501-.3046109-.178992-.0897646-.053982-.1787933-.080973-.2670864-.080973-.0676913 0-.1309679.015627-.1898299.046879-.058862.031253-.1044801.072449-.1368542.12359l-.441465.673352c.1265533.122169.2751799.232974.4458797.332414s.353172.185385.5474166.257834.3951112.128562.6025998.168338c.2074885.039776.4112982.059664.611429.059664zm7.2400262 0c.4267495 0 .8108241-.063926 1.1522237-.191777.3413996-.127852.631295-.306844.8696861-.536977s.4215991-.504304.549624-.822512c.1280248-.318208.1920372-.667669.1920372-1.048383v-3.677864h-1.4921517v3.677864c0 .218768-.0286953.414097-.0860857.585986-.0573905.17189-.140533.317499-.2494277.436827-.1088948.119328-.24207.210955-.3995259.274881-.1574559.063925-.3362492.095888-.53638.095888s-.3789241-.031963-.53638-.095888c-.1574559-.063926-.2906311-.156263-.3995258-.277012-.1088948-.120749-.1920373-.267068-.2494278-.438957-.0573904-.17189-.0860857-.367218-.0860857-.585987v-3.673602h-1.4921517v3.677864c0 .380714.0632766.730175.1898299 1.048383s.3090255.592379.5474167.822512c.2383911.230133.5282864.409125.869686.536977.3413997.127851.7269458.191777 1.1566384.191777zm9.1294965-.068188v-1.150664h-2.3839111v-5.058661h-1.4921518v6.209325zm4.2910398 0v-5.067184h1.8100066v-1.142141h-5.112165v1.142141h1.8100066v5.067184zm8.8028122 0v-6.209325h-1.5009811v6.209325zm4.0261608 0v-3.328403c0-.090916-.0029431-.188226-.0088293-.291927-.0058862-.103702-.0132439-.209535-.0220732-.317499l3.0328647 3.699173c.0735775.090917.1500981.153422.2295618.187516s.176586.05114.2913669.05114h.7769784v-6.209325h-1.3155657v3.285786c0 .09944.0029431.205273.0088293.317498s.0147155.228002.0264879.34733l-3.054938-3.729005c-.0412034-.048299-.0779921-.086655-.1103663-.115066-.0323741-.028412-.0662197-.050431-.1015369-.066057s-.0750491-.02628-.1191956-.031963c-.0441465-.005682-.0985938-.008523-.163342-.008523h-.7858078v6.209325zm10.7452583 0c.1236102 0 .2280902-.031962.3134401-.095888.08535-.063926.1427404-.135665.1721714-.215217l.3796599-1.082477h2.4457162l.37966 1.082477c.0323741.090917.0905003.165497.1743787.22374.0838783.058244.1905657.087365.3200622.087365h1.156638l-2.4898625-6.209325h-1.527469l-2.4898627 6.209325zm2.9666449-2.373777h-1.7570308l.5915632-1.691903c.0441465-.107964.0912361-.235815.1412688-.383555s.0985938-.308264.1456834-.481574c.0500327.170469.1008012.328862.1523055.475182.0515042.146319.0963865.27346.1346468.381423zm5.7302156 2.373777v-3.328403c0-.090916-.002943-.188226-.008829-.291927-.005886-.103702-.013244-.209535-.022073-.317499l3.032864 3.699173c.073578.090917.150098.153422.229562.187516s.176586.05114.291367.05114h.776979v-6.209325h-1.315566v3.285786c0 .09944.002943.205273.008829.317498s.014716.228002.026488.34733l-3.054938-3.729005c-.041203-.048299-.077992-.086655-.110366-.115066-.032374-.028412-.06622-.050431-.101537-.066057s-.075049-.02628-.119196-.031963c-.044146-.005682-.098594-.008523-.163342-.008523h-.785808v6.209325zm13.111511.068188c.500327 0 .955772-.080973 1.366334-.242918.410563-.161945.761527-.385686 1.052894-.671221s.51725-.621501.677649-1.007897.240599-.804044.240599-1.252945c0-.44606-.0802-.862288-.240599-1.248684s-.386282-.721651-.677649-1.005766-.642331-.507855-1.052894-.671221c-.410562-.163366-.866007-.245049-1.366334-.245049s-.956508.080973-1.368542.242918c-.412034.161946-.76447.384976-1.057308.66909-.292839.284115-.519457.61937-.679856 1.005766s-.240599.804045-.240599 1.252946.0802.866549.240599 1.252945.387017.722362.679856 1.007897c.292838.285535.645274.509276 1.057308.671221s.868215.242918 1.368542.242918zm0-1.193282c-.288424 0-.545209-.044748-.770356-.134244-.225148-.089496-.414978-.219478-.56949-.389947-.154513-.170469-.272973-.378583-.35538-.624342-.082406-.245759-.12361-.523481-.12361-.833166 0-.306844.041204-.583146.12361-.828905.082407-.245759.200867-.453873.35538-.624342.154512-.170468.344342-.301161.56949-.392078.225147-.090917.481932-.136375.770356-.136375.285481 0 .540059.045458.763735.136375.223675.090917.412769.22161.567282.392078.154513.170469.272973.378583.355379.624342.082407.245759.123611.522061.123611.828905 0 .309685-.041204.587407-.123611.833166-.082406.245759-.200866.453873-.355379.624342s-.343607.300451-.567282.389947c-.223676.089496-.478254.134244-.763735.134244zm7.07227 1.125094v-2.416395h2.198495v-1.112308h-2.198495v-1.572575h2.63996v-1.108047h-4.140942v6.209325zm6.436559 0v-2.416395h2.198496v-1.112308h-2.198496v-1.572575h2.639961v-1.108047h-4.140942v6.209325zm8.811642 0v-1.150664h-2.383911v-5.058661h-1.492152v6.209325zm3.858404 0v-6.209325h-1.500981v6.209325zm4.026161 0v-3.328403c0-.090916-.002943-.188226-.008829-.291927-.005887-.103702-.013244-.209535-.022074-.317499l3.032865 3.699173c.073578.090917.150098.153422.229562.187516s.176586.05114.291367.05114h.776978v-6.209325h-1.315566v3.285786c0 .09944.002944.205273.00883.317498s.014715.228002.026488.34733l-3.054938-3.729005c-.041204-.048299-.077992-.086655-.110367-.115066-.032374-.028412-.066219-.050431-.101536-.066057-.035318-.015626-.07505-.02628-.119196-.031963-.044147-.005682-.098594-.008523-.163342-.008523h-.785808v6.209325zm11.018967 0v-1.108047h-2.639961v-1.478816h2.02191v-1.06543h-2.02191v-1.448985h2.639961v-1.108047h-4.140942v6.209325zm7.081098 0v-2.075457h.776979c.444408 0 .829218-.051851 1.154431-.155553.325212-.103702.59377-.24789.805673-.432564.211904-.184675.36936-.406284.472368-.664829.103009-.258544.154513-.542659.154513-.852344 0-.286955-.050033-.554023-.150098-.801203-.100066-.24718-.255314-.461686-.465746-.64352-.210432-.181833-.478254-.324601-.803466-.428302-.325213-.103702-.714438-.155553-1.167675-.155553h-2.26913v6.209325zm.776979-3.162196h-.776979v-1.968914h.776979c.188358 0 .350964.022729.487819.068187.136854.045459.250163.110095.339928.193909.089764.083814.15672.183964.200866.300451.044147.116487.06622.245759.06622.387816 0 .32105-.08535.571071-.25605.750063s-.450294.268488-.838783.268488zm7.557881 3.230384c.426749 0 .810824-.063926 1.152223-.191777.3414-.127852.631295-.306844.869687-.536977.238391-.230133.421599-.504304.549623-.822512.128025-.318208.192038-.667669.192038-1.048383v-3.677864h-1.492152v3.677864c0 .218768-.028695.414097-.086086.585986-.05739.17189-.140533.317499-.249427.436827-.108895.119328-.24207.210955-.399526.274881-.157456.063925-.336249.095888-.53638.095888s-.378924-.031963-.53638-.095888c-.157456-.063926-.290631-.156263-.399526-.277012s-.192037-.267068-.249428-.438957c-.05739-.17189-.086086-.367218-.086086-.585987v-3.673602h-1.492151v3.677864c0 .380714.063276.730175.18983 1.048383.126553.318208.309025.592379.547416.822512s.528287.409125.869686.536977c.3414.127851.726946.191777 1.156639.191777zm6.745585-.068188v-2.297066h.37966c.114781 0 .20381.017046.267086.05114.063277.034094.11846.090917.16555.170469l1.068345 1.802707c.108895.181834.288424.27275.538587.27275h1.350883l-1.368541-2.160691c-.064748-.102282-.140533-.188937-.227355-.259965-.086821-.071029-.180265-.130693-.28033-.178993.20896-.076711.39364-.17473.554039-.294058s.295781-.254993.406147-.406994c.110367-.152002.193509-.317499.249428-.496491s.083879-.369349.083879-.57107c0-.264227-.04709-.508565-.141269-.733016s-.245013-.419069-.452502-.583856c-.207488-.164786-.475311-.293348-.803466-.385685-.328156-.092338-.724739-.138506-1.189748-.138506h-2.092545v6.209325zm.600393-3.290047h-.600393v-1.841063h.600393c.385546 0 .670291.076711.854234.230133.183944.153422.275916.366508.275916.639258 0 .136375-.020602.263516-.061805.381424-.041204.117907-.107423.220899-.198659.308974-.091236.088076-.208225.156974-.350965.206694s-.315648.07458-.518721.07458zm7.840418 3.358235c.532701 0 .994032-.083104 1.383993-.249311s.714438-.412676.97343-.739408l-.591563-.600902c-.032374-.031253-.06622-.053272-.101537-.066057s-.070634-.019178-.105951-.019178c-.044147 0-.086822.009234-.128025.027701-.041204.018468-.079464.041907-.114781.070319-.088293.07387-.17585.135664-.262672.185385-.086821.04972-.178057.090206-.273708.121459-.095651.031252-.199395.053271-.311233.066056s-.235448.019178-.370831.019178c-.235448 0-.45618-.044038-.662197-.132113-.206017-.088076-.386282-.216638-.540795-.385686s-.276651-.377162-.366416-.624342c-.089764-.24718-.134647-.529874-.134647-.848082 0-.304003.044883-.578174.134647-.822512.089765-.244339.214847-.452453.375246-.624342s.352436-.304003.576111-.39634c.223676-.092337.470896-.138506.741662-.138506.155984 0 .292102.011365.408355.034094.116252.022729.217789.05043.304611.083103.086821.032674.16187.068188.225147.106543.063276.038356.121403.07387.174378.106543.052976.032674.103009.060375.150099.083104.047089.022729.097122.034094.150098.034094.079463 0 .141269-.016337.185415-.04901.044147-.032673.082407-.068898.114781-.108674l.50327-.652043c-.120667-.122169-.258993-.233684-.414977-.334545s-.326684-.187516-.512099-.259965c-.185416-.072449-.384811-.129272-.598186-.170469-.213374-.041196-.440729-.061795-.682063-.061795-.497384 0-.952093.078132-1.364127.234395s-.765942.375031-1.061723.656305c-.295782.281273-.52608.615818-.690893 1.003635-.164814.387816-.247221.813278-.247221 1.276385 0 .454583.072106.875783.216318 1.2636.144212.387816.350965.723071.620259 1.005766.269293.282694.597449.504303.984467.664828.387017.160525.824804.240787 1.313358.240787zm6.0569-.068188v-2.625219h2.613473v2.625219h1.500981v-6.209325h-1.500981v2.595387h-2.613473v-2.595387h-1.500981v6.209325zm7.337149 0c.12361 0 .22809-.031962.31344-.095888s.14274-.135665.172171-.215217l.37966-1.082477h2.445716l.37966 1.082477c.032374.090917.0905.165497.174379.22374.083878.058244.190566.087365.320062.087365h1.156638l-2.489862-6.209325h-1.527469l-2.489863 6.209325zm2.966644-2.373777h-1.75703l.591563-1.691903c.044146-.107964.091236-.235815.141269-.383555.050032-.14774.098593-.308264.145683-.481574.050033.170469.100801.328862.152306.475182.051504.146319.096386.27346.134646.381423zm6.154023 2.441965c.364944 0 .690892-.053271.977845-.159814.286952-.106543.528286-.252863.724002-.438958.195717-.186095.345079-.404153.448087-.654174.103009-.25002.154513-.518509.154513-.805465 0-.258544-.041203-.479443-.12361-.662697s-.190566-.338807-.324477-.466658c-.133911-.127852-.286952-.232974-.459123-.315368-.172172-.082393-.348022-.154132-.527551-.215216-.179529-.061085-.35538-.116487-.527551-.166208-.172171-.04972-.325212-.104412-.459124-.164076-.133911-.059664-.24207-.130692-.324476-.213086-.082407-.082393-.123611-.186095-.123611-.311105 0-.196039.068428-.351592.205282-.466659.136854-.115066.345078-.172599.624673-.172599.16187 0 .306082.020598.432635.061795.126554.041196.239127.087365.337721.138506.098594.05114.186887.097309.264879.138505.077992.041197.150834.061795.218525.061795.076521 0 .139062-.017046.187623-.05114s.094915-.085235.139062-.153422l.37083-.66909c-.114781-.102281-.245013-.193908-.390696-.274881-.145684-.080973-.302404-.150581-.470161-.208824-.167756-.058244-.345078-.102282-.531965-.132114s-.378924-.044748-.576112-.044748c-.353172 0-.666612.051851-.94032.155553-.273709.103702-.504742.242208-.6931.415518-.188359.17331-.331099.370769-.428222.592379-.097122.221609-.145683.448901-.145683.681875 0 .289797.041203.533425.12361.730885s.190566.362246.324477.494359c.133911.132114.286217.238657.456916.319629.1707.080973.345815.149161.525344.204563s.354643.105833.525343.151291.323005.09802.456916.157684.24207.134954.324477.225871c.082407.090916.12361.208824.12361.353722 0 .250021-.075049.432565-.225147.547631-.150098.115067-.36053.1726-.631295.1726-.200131 0-.373774-.026991-.520929-.080973-.147155-.053981-.277387-.113645-.390696-.178992-.113309-.065346-.214846-.12501-.304611-.178992-.089764-.053982-.178793-.080973-.267086-.080973-.067692 0-.130968.015627-.18983.046879-.058862.031253-.10448.072449-.136854.12359l-.441465.673352c.126553.122169.275179.232974.445879.332414s.353172.185385.547417.257834.395111.128562.6026.168338c.207488.039776.411298.059664.611429.059664zm8.70569-.068188v-1.108047h-2.639961v-1.478816h2.02191v-1.06543h-2.02191v-1.448985h2.639961v-1.108047h-4.140942v6.209325zm3.973185-2.20757c.052976-.267068.095651-.529164.128025-.786288.032374-.257123.048561-.516378.048561-.777763v-2.437704h-1.280249v2.437704c0 .261385.016187.52064.048561.777763.032374.257124.075049.51922.128025.786288zm-.476782 2.267235c.108894 0 .210431-.018468.30461-.055403.09418-.036935.176586-.088075.247221-.153422.070634-.065346.125817-.142767.165549-.232263.039732-.089497.059598-.185385.059598-.287667 0-.102281-.019866-.197459-.059598-.285535-.039732-.088075-.094915-.164786-.165549-.230133-.070635-.065346-.153041-.117197-.247221-.155552-.094179-.038356-.195716-.057534-.30461-.057534-.111838 0-.214847.019178-.309026.057534-.094179.038355-.17585.090206-.245013.155552-.069163.065347-.12361.142058-.163342.230133-.039732.088076-.059598.183254-.059598.285535 0 .102282.019866.19817.059598.287667.039732.089496.094179.166917.163342.232263.069163.065347.150834.116487.245013.153422s.197188.055403.309026.055403z"/><path d="m65.6612078 161.054399c2.5038098 0 4.5185943-.581151 6.0443534-1.743452 1.5257592-1.162301 2.679859-2.590553 3.4622996-4.284755l29.8696692-63.7098723c.430342-.9456011.880246-2.0882024 1.34971-3.4278039s.704196-3.0929035.704196-5.259906v-7.6830087h-60.091436v12.0564137c0 .5122006.1173661 1.0145511.3520983 1.5070517.2347321.4925005.5379279.925901.9095871 1.3002015.3716593.3743004.8020016.6698007 1.291027.886501.4890253.2167002 1.0073922.3250503 1.5551006.3250503h37.6158308c-1.1345388 1.2214014-2.1810531 2.5019029-3.1395428 3.8415044s-1.8485159 2.8565033-2.6700785 4.5507052l-30.5151825 61.6413701zm75.7011262.945601c4.538155 0 8.68509-.610701 12.440805-1.832102s6.973502-2.945153 9.65336-5.171256c2.679859-2.226102 4.753327-4.915156 6.220403-8.067159 1.467076-3.152004 2.200614-6.658608 2.200614-10.519812 0-2.324603-.273854-4.521155-.821562-6.589658-.547709-2.068502-1.398613-3.959704-2.552713-5.673606s-2.640737-3.240654-4.459911-4.580255c-1.819174-1.339602-4.000228-2.462503-6.543159-3.368704 3.87308-1.773002 6.768111-4.235505 8.68509-7.387508 1.916979-3.152004 2.875469-6.934408 2.875469-11.3472133 0-3.3490038-.684635-6.4517574-2.053906-9.3082606-1.369271-2.8565033-3.286251-5.3288561-5.750939-7.4170584-2.464687-2.0882024-5.389059-3.7331543-8.773115-4.9348557-3.384055-1.2017013-7.090867-1.802552-11.120436-1.802552s-7.736382.6008507-11.120437 1.802552c-3.384056 1.2017014-6.308427 2.8466533-8.773115 4.9348557-2.464688 2.0882023-4.381667 4.5605551-5.750938 7.4170584-1.369271 2.8565032-2.053907 5.9592568-2.053907 9.3082606 0 4.4128053.948709 8.1952093 2.846128 11.3472133 1.897418 3.152003 4.802229 5.614506 8.714432 7.387508-2.582054.906201-4.782668 2.029102-6.601843 3.368704-1.819174 1.339601-3.305811 2.866353-4.459911 4.580255s-1.995223 3.605104-2.523371 5.673606c-.528147 2.068503-.792221 4.265055-.792221 6.589658 0 3.861204.733538 7.367808 2.200614 10.519812 1.467076 3.152003 3.540544 5.841057 6.220403 8.067159 2.679859 2.226103 5.897646 3.949855 9.65336 5.171256 3.755715 1.221401 7.90265 1.832102 12.440806 1.832102zm0-52.36266c-2.034346 0-3.697032-.3349-4.988059-1.004701-1.291027-.6698-2.3082-1.556301-3.051518-2.659503-.743319-1.103201-1.251905-2.364002-1.525759-3.782404-.273855-1.418402-.410782-2.8762032-.410782-4.3734049 0-1.3396016.176049-2.639803.528148-3.9006045.352098-1.2608014.929148-2.3738527 1.731149-3.3391538.802002-.9653011 1.828955-1.7434519 3.08086-2.3344526s2.797225-.886501 4.635961-.886501c1.799613 0 3.335153.2955003 4.606619.886501s2.308199 1.3691515 3.110201 2.3344526c.802001.9653011 1.379051 2.0783524 1.73115 3.3391538.352098 1.2608015.528147 2.5610029.528147 3.9006045 0 1.4972017-.136927 2.9550029-.410781 4.3734049s-.782441 2.679203-1.525759 3.782404c-.743319 1.103202-1.760492 1.989703-3.051519 2.659503-1.291027.669801-2.953713 1.004701-4.988058 1.004701zm0 38.533244c-2.073468 0-3.84374-.3152-5.310816-.945601s-2.679859-1.487351-3.638348-2.570853c-.95849-1.083501-1.662687-2.364002-2.11259-3.841504s-.674855-3.063354-.674855-4.757555c0-1.851803.19561-3.546005.58683-5.082606.391221-1.536602 1.036734-2.846653 1.936541-3.930155.899807-1.083501 2.102809-1.930602 3.609007-2.541303 1.506198-.6107 3.374275-.916051 5.604231-.916051 2.229955 0 4.098032.305351 5.60423.916051 1.506198.610701 2.709201 1.457802 3.609007 2.541303.899807 1.083502 1.545321 2.393553 1.936541 3.930155.39122 1.536601.58683 3.230803.58683 5.082606 0 1.694201-.224951 3.280053-.674855 4.757555-.449903 1.477502-1.1541 2.758003-2.112589 3.841504-.95849 1.083502-2.181053 1.940452-3.66769 2.570853-1.486638.630401-3.247129.945601-5.281474.945601zm42.779938-9.13096c1.34971 0 2.645627-.2561 3.887752-.768301 1.242124-.512201 2.332651-1.236176 3.27158-2.171927.938928-.935751 1.692027-2.053728 2.259297-3.353929.567269-1.300202.850904-2.738303.850904-4.314305 0-1.635102-.254293-3.117529-.76288-4.44728-.508586-1.329752-1.217673-2.467428-2.12726-3.413029s-1.995224-1.679427-3.256909-2.201478c-1.261685-.52205-2.635847-.783075-4.122484-.783075s-2.851018.261025-4.093142.783075c-1.242124.522051-2.31798 1.255877-3.227567 2.201478-.909588.945601-1.618674 2.083277-2.127261 3.413029-.508586 1.329751-.762879 2.812178-.762879 4.44728 0 1.576002.254293 3.014103.762879 4.314305.508587 1.300201 1.217673 2.418178 2.127261 3.353929.909587.935751 1.985443 1.659726 3.227567 2.171927s2.606505.768301 4.093142.768301zm-1.701808 22.014775c.625952 0 1.15899-.123125 1.599113-.369375.440123-.246251.806892-.556526 1.100307-.930827l32.216991-41.754197h-6.631184c-.76288 0-1.359491.142825-1.789833.428475-.430342.285651-.792221.595926-1.085636.930827l-32.216991 41.695097zm1.701808-27.717932c-.469464 0-.899806-.0788-1.291027-.2364-.39122-.1576-.723757-.42355-.997611-.797851-.273855-.3743-.489026-.876651-.645514-1.507051-.156488-.630401-.234732-1.418402-.234732-2.364003 0-1.004701.078244-1.837027.234732-2.496978s.371659-1.186926.645514-1.580927c.273854-.394.606391-.669801.997611-.827401.391221-.1576.821563-.2364 1.291027-.2364.469465 0 .904697.0788 1.305698.2364s.748209.433401 1.041624.827401c.293415.394001.523257.920976.689526 1.580927.166268.659951.249403 1.492277.249403 2.496978 0 .945601-.083135 1.733602-.249403 2.364003-.166269.6304-.396111 1.132751-.689526 1.507051-.293415.374301-.640623.640251-1.041624.797851s-.836233.2364-1.305698.2364zm24.588195 28.249833c1.34971 0 2.645628-.256101 3.887752-.768301 1.242124-.512201 2.332651-1.236177 3.27158-2.171928.938928-.935751 1.692027-2.058652 2.259297-3.368704.567269-1.310051.850904-2.753078.850904-4.32908 0-1.635101-.254293-3.117528-.76288-4.44728-.508586-1.329751-1.217673-2.467427-2.12726-3.413028-.909587-.945602-1.995223-1.679427-3.256909-2.201478-1.261685-.522051-2.635846-.783076-4.122484-.783076-1.486637 0-2.851017.261025-4.093142.783076-1.242124.522051-2.31798 1.255876-3.227567 2.201478-.909587.945601-1.618674 2.083277-2.127261 3.413028-.508586 1.329752-.762879 2.812179-.762879 4.44728 0 1.576002.254293 3.019029.762879 4.32908.508587 1.310052 1.217674 2.432953 2.127261 3.368704s1.985443 1.659727 3.227567 2.171928c1.242125.5122 2.606505.768301 4.093142.768301zm0-5.732707c-.469464 0-.899806-.0788-1.291027-.2364-.39122-.1576-.723757-.423551-.997611-.797851-.273854-.374301-.489026-.876651-.645514-1.507052s-.234732-1.418401-.234732-2.364003c0-.985001.078244-1.807477.234732-2.467427.156488-.659951.37166-1.186927.645514-1.580927.273854-.394001.606391-.669801.997611-.827401.391221-.1576.821563-.2364 1.291027-.2364.469465 0 .904697.0788 1.305698.2364s.748209.4334 1.041624.827401c.293415.394.523257.920976.689526 1.580927.166269.65995.249403 1.482426.249403 2.467427 0 .945602-.083134 1.733602-.249403 2.364003s-.396111 1.132751-.689526 1.507052c-.293415.3743-.640623.640251-1.041624.797851s-.836233.2364-1.305698.2364z"/></g></g></svg>