<?xml version="1.0" encoding="UTF-8"?>
<svg width="457px" height="132px" viewBox="0 0 457 132" version="1.1" xmlns="http://www.w3.org/2000/svg" xmlns:xlink="http://www.w3.org/1999/xlink">
    <!-- Generator: Sketch 63.1 (92452) - https://sketch.com -->
    <title>img_hubspot_logo</title>
    <desc>Created with Sketch.</desc>
    <defs>
        <polygon id="path-1" points="64.2475654 88.0772042 0.0348741763 88.0772042 0.0348741763 0.158705151 64.2475654 0.158705151"></polygon>
        <polygon id="path-3" points="0.587035272 0.0332366808 122.252075 0.0332366808 122.252075 129.439423 0.587035272 129.439423"></polygon>
    </defs>
    <g id="Website" stroke="none" stroke-width="1" fill="none" fill-rule="evenodd">
        <g id="Hubspot" transform="translate(-821.000000, -1370.000000)">
            <g id="img_hubspot_logo" transform="translate(821.000000, 1370.000000)">
                <g id="Marketing/Logos/HubSpot-Primary">
                    <polygon id="Fill-1" fill="#33475B" fill-rule="nonzero" points="49.403937 22.4021376 49.403937 59.4261383 15.9067176 59.4261383 15.9067176 22.4021376 0.000491185583 22.4021376 0.000491185583 110.775148 15.9067176 110.775148 15.9067176 74.9593011 49.403937 74.9593011 49.403937 110.775148 65.3085263 110.775148 65.3085263 22.4021376"></polygon>
                    <path d="M116.20534,82.2118772 C116.20534,89.5721401 110.299652,95.56139 103.049752,95.56139 C95.796579,95.56139 89.8941657,89.5721401 89.8941657,82.2118772 L89.8941657,44.3602832 L74.8295038,44.3602832 L74.8295038,82.2118772 C74.8295038,98.0026243 87.4906309,110.848602 103.049752,110.848602 C118.6056,110.848602 131.263453,98.0026243 131.263453,82.2118772 L131.263453,44.3602832 L116.20534,44.3602832 L116.20534,82.2118772 Z" id="Fill-2" fill="#33475B" fill-rule="nonzero"></path>
                    <path d="M227.975601,48.2579488 C227.975601,40.4971838 233.036451,38.0376694 238.578661,38.0376694 C243.038627,38.0376694 248.942677,41.4826513 252.793572,45.6704732 L262.671314,33.8531713 C257.736537,27.0828594 247.735998,22.4031348 239.541385,22.4031348 C223.153796,22.4031348 211.345695,32.1298494 211.345695,48.2579488 C211.345695,78.1726233 247.375795,68.6901983 247.375795,85.4381617 C247.375795,90.6031419 242.436106,95.1615527 236.774373,95.1615527 C227.85608,95.1615527 224.961359,90.7294413 220.866509,86.0513785 L209.899972,97.621067 C216.891181,106.362314 225.565517,110.797749 235.927897,110.797749 C251.472283,110.797749 264.004064,100.948059 264.004064,85.556152 C264.004064,52.3178093 227.975601,62.6610644 227.975601,48.2579488" id="Fill-4" fill="#33475B" fill-rule="nonzero"></path>
                    <path d="M450.871854,96.6588652 C441.960109,96.6588652 439.430504,92.7469079 439.430504,86.7526725 L439.430504,60.2131828 L453.283575,60.2131828 L453.283575,46.7622981 L439.430504,46.7622981 L439.430504,29.0255434 L424.130073,35.9969372 L424.130073,90.0547367 C424.130073,103.876211 433.524816,110.849266 446.413525,110.849266 C448.342247,110.849266 450.99465,110.722967 452.44201,110.360687 L456.178295,96.4178993 C454.491891,96.5358895 452.564806,96.6588652 450.871854,96.6588652" id="Fill-6" fill="#33475B" fill-rule="nonzero"></path>
                    <path d="M173.526206,95.4131544 C164.06106,95.4131544 156.387104,87.6241383 156.387104,78.0170757 C156.387104,68.4100131 164.06106,60.620997 173.526206,60.620997 C182.991353,60.620997 190.665309,68.4100131 190.665309,78.0170757 C190.665309,87.6241383 182.991353,95.4131544 173.526206,95.4131544 M173.621169,44.8036605 C166.148599,44.8036605 160.935482,47.0055906 155.897555,52.0226675 L155.897555,22.9306008 L140.78705,22.9306008 L140.78705,76.8471445 C140.78705,97.0267952 155.160778,110.848269 171.312597,110.848269 C189.267067,110.848269 204.999741,96.7808439 204.999741,77.8276266 C204.999741,59.1137135 190.491756,44.8036605 173.621169,44.8036605" id="Fill-8" fill="#33475B" fill-rule="nonzero"></path>
                    <g id="Group-12" transform="translate(273.426641, 43.851430)">
                        <g id="Fill-10-Clipped">
                            <mask id="mask-2" fill="white">
                                <use xlink:href="#path-1"></use>
                            </mask>
                            <g id="path-1"></g>
                            <path d="M32.7756678,50.3859772 C23.3088843,50.3859772 15.6349283,42.5969611 15.6349283,32.9898985 C15.6349283,23.3828359 23.3088843,15.5938198 32.7756678,15.5938198 C42.2391767,15.5938198 49.9131328,23.3828359 49.9131328,32.9898985 C49.9131328,42.5969611 42.2391767,50.3859772 32.7756678,50.3859772 M64.2475654,33.1793475 C64.2475654,14.2261303 48.5148912,0.158705151 30.5604209,0.158705151 C14.4086016,0.158705151 0.0348741763,13.9801788 0.0348741763,34.1598297 L0.0348741763,88.0780351 L15.14538,88.0780351 L15.14538,58.9843065 C20.1833068,64.0030454 25.3964231,66.2049755 32.8689931,66.2049755 C49.7395806,66.2049755 64.2475654,51.8932607 64.2475654,33.1793475" id="Fill-10" fill="#33475B" fill-rule="nonzero" mask="url(#mask-2)"></path>
                        </g>
                    </g>
                    <g id="Group-15" transform="translate(292.421693, 0.643745)">
                        <g id="Fill-13-Clipped">
                            <mask id="mask-4" fill="white">
                                <use xlink:href="#path-3"></use>
                            </mask>
                            <g id="path-3"></g>
                            <path d="M88.9709775,93.2845611 C79.5467635,93.2845611 71.9071904,85.5304435 71.9071904,75.9665886 C71.9071904,66.4010718 79.5467635,58.6469542 88.9709775,58.6469542 C98.3951916,58.6469542 106.034765,66.4010718 106.034765,75.9665886 C106.034765,85.5304435 98.3951916,93.2845611 88.9709775,93.2845611 M94.0793076,42.6235504 L94.0793076,27.216687 C98.0415377,25.3172107 100.816736,21.2490409 100.816736,16.5277705 L100.816736,16.172138 C100.816736,9.6560867 95.5643253,4.32492309 89.1445298,4.32492309 L88.795788,4.32492309 C82.3759924,4.32492309 77.1235813,9.6560867 77.1235813,16.172138 L77.1235813,16.5277705 C77.1235813,21.2490409 79.8987798,25.3188726 83.8610102,27.2183488 L83.8610102,42.6235504 C77.9618714,43.5491919 72.5719282,46.0186773 68.1266987,49.6531084 L26.449602,16.7471325 C26.7246659,15.6752496 26.9178656,14.5717918 26.9195029,13.4118316 C26.926052,6.03328849 21.0416487,0.0423767681 13.7688275,0.0323971069 C6.49928093,0.0240965936 0.595230228,5.99838997 0.58703527,13.3785949 C0.578857376,20.7587999 6.46326065,26.7497116 13.7360818,26.7580208 C16.1052336,26.7613445 18.2991959,26.0783307 20.2213688,24.9682256 L61.2173548,57.3390908 C57.7315745,62.6802254 55.6882424,69.0782865 55.6882424,75.9665886 C55.6882424,83.1772865 57.9329605,89.8478883 61.7249133,95.3336025 L49.2586231,107.988468 C48.2729775,107.687676 47.2513114,107.478286 46.1674286,107.478286 C40.1929746,107.478286 35.3482475,112.393991 35.3482475,118.458023 C35.3482475,124.523718 40.1929746,129.439423 46.1674286,129.439423 C52.1435199,129.439423 56.9866097,124.523718 56.9866097,118.458023 C56.9866097,117.361213 56.7803117,116.322566 56.4839631,115.322142 L68.8159958,102.805208 C74.4138742,107.140933 81.3854349,109.746689 88.9709775,109.746689 C107.35278,109.746689 122.252075,94.6223375 122.252075,75.9665886 C122.252075,59.0773692 110.028103,45.1246106 94.0793076,42.6235504" id="Fill-13" fill="#FF7A59" fill-rule="nonzero" mask="url(#mask-4)"></path>
                        </g>
                    </g>
                </g>
            </g>
        </g>
    </g>
</svg>