<svg height="346" viewBox="0 0 467 346" width="467" xmlns="http://www.w3.org/2000/svg" xmlns:xlink="http://www.w3.org/1999/xlink"><defs><linearGradient id="a" x1="24.441015%" x2="78.919215%" y1="6.261489%" y2="96.019072%"><stop offset="0" stop-color="#427fdf"/><stop offset="1" stop-color="#396bb1"/></linearGradient><path id="b" d="m353.752665 179.968347c0 84.995784-68.871614 153.898841-153.828191 153.898841-84.954779 0-153.826393-68.903057-153.826393-153.898841 0-84.9957835 68.871614-153.9006387 153.826393-153.9006387 84.956577 0 153.828191 68.9048552 153.828191 153.9006387"/><filter id="c" height="110.4%" width="110.4%" x="-5.2%" y="-4.5%"><feOffset dx="0" dy="2" in="SourceAlpha" result="shadowOffsetOuter1"/><feGaussianBlur in="shadowOffsetOuter1" result="shadowBlurOuter1" stdDeviation="5"/><feColorMatrix in="shadowBlurOuter1" type="matrix" values="0 0 0 0 0   0 0 0 0 0   0 0 0 0 0  0 0 0 0.15 0"/></filter><mask id="d" fill="#fff"><path d="m0 .23098596h324.843685v156.19706904h-324.843685z" fill="#fff" fill-rule="evenodd"/></mask><mask id="e" fill="#fff"><path d="m.08642554.23260417h237.72435446v180.80717783h-237.72435446z" fill="#fff" fill-rule="evenodd"/></mask><mask id="f" fill="#fff"><path d="m.87267238.12848997h329.18257262v158.28296803h-329.18257262z" fill="#fff" fill-rule="evenodd"/></mask></defs><g fill="none" fill-rule="evenodd"><use fill="#000" filter="url(#c)" xlink:href="#b"/><use fill="url(#a)" fill-rule="evenodd" xlink:href="#b"/><g transform="matrix(-.97437006 .22495105 .22495105 .97437006 420.553518 98.272461)"><path d="m320.434876 26.6284648c-25.832963 43.505-75.924541 71.2741276-132.345586 95.1621742-66.780085 28.273438-109.8797868 37.329961-155.0969936 33.97224-25.56439235-1.89793-30.62115141-6.191081-32.25863542-10.157383-8.98010661-21.753503 66.00243072-79.4413411 140.71940302-110.943164 75.888465-31.99510414 173.380895-45.7027083 182.668657-23.6534375 2.165607 5.1403516-.976077 11.0547136-3.686845 15.6195703" fill="#1e1c1d" mask="url(#d)" transform="translate(0 60.92625)"/><path d="m313.746846 89.7841055c-24.738635 41.6592055-72.70469 68.2502735-126.732643 91.1256905-63.946056 27.074322-105.2188704 35.745846-148.5179962 32.531497-24.4790831-1.817721-29.3213859-5.928398-30.88972279-9.727266-8.59929638-20.831106 63.20347549-76.071588 134.75070399-106.2369398 72.668614-30.6375781 166.026247-43.7636718 174.919168-22.6498307 2.074414 4.9217839-.933987 10.5864974-3.52951 14.956849" fill="#272d35"/><path d="m237.81078 94.7991315-81.815074-86.42648436c-8.499083-8.97832032-22.135096-10.74390625-32.638444-4.22597657l-110.9510658 68.85283853c-10.29289982 6.3875912-14.82654588 19.0304297-10.93927509 30.5072399l25.74076759 76.000403s86.5631773 20.027019 210.6030913-84.7080205" fill="#272d35" mask="url(#e)" transform="translate(27.057569 .77)"/><path d="m236.161772 65.2442656c-96.234755 78.4337244-168.7530492 81.7002084-193.798337 79.8905074l11.9023241 35.142279s86.5631769 20.027018 210.6020899-84.7080208z" fill="#eef1f8"/><path d="m154.562456 22.7310417c2.276845 3.8610286-6.774413 14.6851432-15.224392 20.9965364-9.543305 7.1295183-13.392495 4.8375651-26.870171 12.2458073-13.4997224 7.4202735-12.9305113 11.5289453-25.14049 17.4934375-10.4843071 5.1213021-26.2959488 9.6119662-28.5577612 5.8201172-3.0785501-5.1583984 18.8491045-25.7729427 41.4892752-39.1396615 26.452281-15.6175651 50.765011-23.4148177 54.303539-17.4162369" fill="#22282d"/><path d="m133.633126 127.745005s26.859147 24.272044 92.929723-2.786237c0 0-93.006887 68.554063-172.297591 55.318685l-11.9023241-35.142279s63.5391901-4.737304 91.2701921-17.390169" fill="#d9dadd"/></g><path d="m325.587439 26.8781133c-26.177697 44.0865104-76.937697 72.2255989-134.113347 96.4334767-67.670981 28.650417-111.3479108 37.828255-157.1684012 34.426419-25.90511724-1.923997-31.03002129-6.274297-32.68955221-10.293737-9.09936034-22.044258 66.88430701-80.5030988 142.60040541-112.4250129 76.900618-32.42221353 175.695821-46.3122917 185.107846-23.9692578 2.193668 5.2085286-.990106 11.203099-3.736951 15.828112" fill="#e6e7ec" mask="url(#f)" transform="translate(0 60.92625)"/><path d="m318.81032 90.0631302c-25.068337 42.2156508-73.675757 69.1616408-128.425245 92.3428518-64.799872 27.436263-106.6238596 36.224088-150.5012157 32.965625-24.8067804-1.841784-29.7142218-6.007604-31.3026013-9.856602-8.71454158-21.108828 64.0472708-77.087226 136.549531-107.6556248 73.640682-31.0466406 168.244968-44.3481901 177.256141-22.9526172 2.101471 4.9869531-.947015 10.726862-3.57661 15.1563672" fill="#eef1f8"/><path d="m269.279134 95.9260586-82.907398-87.58148438c-8.613327-9.09863281-22.430725-10.88727865-33.075374-4.28111979l-112.4332191 69.77222657c-10.4291898 6.4728125-15.0229638 19.2840885-11.0845843 30.914297l26.084499 77.015039s87.7196374 20.294713 213.4160764-85.8389584" fill="#eef1f8"/><path d="m240.18894 65.1958398c-97.52049 79.4814452-171.0068441 82.7920442-196.3868441 80.9572782l12.060661 35.6125s87.7206401 20.294714 213.4160771-85.8399604z" fill="#272d35"/><path d="m154.973431 19.5870755c2.30791 3.9111589-6.865608 14.8816537-15.427825 21.2772656-9.670576 7.2237631-13.570875 4.9017318-27.228934 12.4092318-13.6811091 7.5195313-13.103881 11.6823438-25.476205 17.7260417-10.6246056 5.1904818-26.6476973 9.7402995-28.9395736 5.8983203-3.1196375-5.2275781 19.1006396-26.1178385 42.0434541-39.6620182 26.8060345-15.8271094 51.4434545-23.7276302 55.0290835-17.6488412" fill="#e6e7ec"/><path d="m136.291081 128.531247s27.216908 24.596888 94.171365-2.82233c0 0-94.249531 69.468437-174.5994886 56.056601l-12.060661-35.6125s64.3879956-4.799466 92.4887846-17.621771" fill="#1e1c1d"/></g></svg>