<svg height="330" viewBox="0 0 332 330" width="332" xmlns="http://www.w3.org/2000/svg" xmlns:xlink="http://www.w3.org/1999/xlink"><defs><linearGradient id="a" x1="24.416935%" x2="78.946461%" y1="6.261489%" y2="96.019072%"><stop offset="0" stop-color="#427fdf"/><stop offset="1" stop-color="#396bb1"/></linearGradient><path id="b" d="m310 155.000906c0 85.603435-69.396659 154.999094-155.000906 154.999094-85.602435 0-154.999094-69.395659-154.999094-154.999094 0-85.603436 69.396659-155.000906 154.999094-155.000906 85.604247 0 155.000906 69.39747 155.000906 155.000906"/><filter id="c" height="110.3%" width="110.3%" x="-5.2%" y="-4.5%"><feOffset dx="0" dy="2" in="SourceAlpha" result="shadowOffsetOuter1"/><feGaussianBlur in="shadowOffsetOuter1" result="shadowBlurOuter1" stdDeviation="5"/><feColorMatrix in="shadowBlurOuter1" type="matrix" values="0 0 0 0 0   0 0 0 0 0   0 0 0 0 0  0 0 0 0.15 0"/></filter><filter id="d" height="117.6%" width="115.1%" x="-7.5%" y="-8.8%"><feOffset dx="0" dy="2" in="SourceAlpha" result="shadowOffsetOuter1"/><feGaussianBlur in="shadowOffsetOuter1" result="shadowBlurOuter1" stdDeviation="5"/><feColorMatrix in="shadowBlurOuter1" result="shadowMatrixOuter1" type="matrix" values="0 0 0 0 0   0 0 0 0 0   0 0 0 0 0  0 0 0 0.2 0"/><feMerge><feMergeNode in="shadowMatrixOuter1"/><feMergeNode in="SourceGraphic"/></feMerge></filter><linearGradient id="e"><stop offset="0" stop-color="#da3e3f"/><stop offset="1" stop-color="#ff5254"/></linearGradient><linearGradient id="f" x1="85.583146%" x2="0%" xlink:href="#e" y1="76.227092%" y2="23.772908%"/><linearGradient id="g" x1="100%" x2="12.146335%" xlink:href="#e" y1="76.227259%" y2="23.772742%"/><linearGradient id="h" x1="50%" x2="50%" xlink:href="#e" y1="0%" y2="100%"/></defs><g fill="none" fill-rule="evenodd" transform="translate(10 8)"><use fill="#000" filter="url(#c)" xlink:href="#b"/><use fill="url(#a)" fill-rule="evenodd" xlink:href="#b"/><g filter="url(#d)" transform="translate(8 17)"><path d="m296.892742 185.716525c7.494068 4.410502 9.645815 14.376112 5.033769 21.731838l-4.121306 6.574278c-4.612047 7.355726-14.508561 9.745085-21.805217 5.017452l-134.131489-86.923811c-8.466414 10.899807 22.845566-40.2261044 16.931306-27.665784z" fill="#0e2054"/><path d="m28.4566522 126.921398c3.4981115-5.579386 10.940416-7.291996 16.5385109-3.805575l64.3844339 40.096622c5.597588 3.486926 7.31594 10.904359 3.817829 16.483745-3.498112 5.579892-10.940416 7.29149-16.5385109 3.805575l-64.3839267-40.097633c-5.5980949-3.485915-7.3164476-10.903347-3.8183362-16.482734" fill="url(#f)"/><path d="m104.512894 5.61292008c3.498111-5.5793861 10.940415-7.29199614 16.53851-3.80557529l64.383927 40.09712741c5.598095 3.4864209 7.316448 10.9038533 3.817829 16.4832394-3.497604 5.5793861-10.939909 7.2919961-16.538004 3.8055753l-64.384434-40.0971274c-5.597587-3.4864209-7.31594-10.9038533-3.817828-16.48323942" fill="url(#g)"/><path d="m132.108238 222.023302h-112.224268c-4.7470382 0-8.6313477 3.870822-8.6313477 8.602501v11.107688h-2.62168054c-4.74703827 0-8.63084026 3.870822-8.63084026 8.602502v11.605386h151.9920045v-11.605386c0-4.73168-3.883802-8.602502-8.63084-8.602502h-2.62168v-11.107688c0-4.731679-3.88431-8.602501-8.631348-8.602501" fill="url(#h)"/><path d="m141.868499 132.116282c-8.466414 10.899807-18.022404 19.669726-27.038427 23.206726l-65.5968224-40.525027c-5.6767554-18.8291007 30.5573461-78.8195138 52.7005494-84.4504907l65.596822 40.5250271c.668361 8.7340077-2.816556 21.0176602-8.730816 33.5779806z" fill="#fff"/></g></g></svg>