<svg height="346" viewBox="0 0 326 346" width="326" xmlns="http://www.w3.org/2000/svg" xmlns:xlink="http://www.w3.org/1999/xlink"><linearGradient id="a" x1="85.544353%" x2="50%" y1="35.120616%" y2="65.919279%"><stop offset="0" stop-color="#da3e3f"/><stop offset="1" stop-color="#ff5254"/></linearGradient><linearGradient id="b" x1="36.148065%" x2="69.364296%" y1="94.144014%" y2="5.562805%"><stop offset="0" stop-color="#427fdf"/><stop offset="1" stop-color="#396bb1"/></linearGradient><filter id="c" height="383%" width="114.1%" x="-7.1%" y="-141.5%"><feGaussianBlur in="SourceGraphic" stdDeviation="6.60267857"/></filter><g fill="none" fill-rule="evenodd" transform="translate(13)"><g transform="translate(7)"><path d="m37.2514585 253.168486 35.4130047-32.37902c.0447453.051113.1248538-.462177.1695991-.411064 21.4560849 24.480978 52.3548677 19.751224 76.8947687-1.650734l56.022538-48.856131 84.767773-21.712955 7.714232 8.802238-114.851038 100.162806c-45.766486 39.913511-107.8231417 44.063024-147.8362502-1.588823-.0433018-.051113-.3456933-.400266-.3904386-.450659l.0050519-.004319c.1291839.149739.2576462.303798.3882735.452818z" fill="#ad3551"/><path d="m246.894873 133.98962 25.48316-6.527349 18.140604 20.696455-84.767773 21.712955z" fill="#cccacd"/><path d="m134.742698 7.38604767 25.927004-7.37827273 18.200505 20.76556506-84.2106226 21.5696954z" fill="#cccacd"/><path d="m178.869918 20.7731241 7.887439 8.9994914-114.8517594 100.1620855c-24.4901037 21.358765-27.0362547 58.572644-5.7237877 83.055062l-28.9299906 40.178435-2.0914811 1.912059c-39.57936792-45.648248-54.836066-113.02385 3.0917547-163.5436735l56.4072029-49.1937641z" fill="#2a3e61"/><path d="m35.548684 255.532787c-.1306274-.14902-.258368-.303079-.3882736-.452818l2.0907594-1.911339z" fill="#2a3e61"/><path d="m272.377745 127.461983 33.416788 38.125275-41.36918 36.077875-33.500504-38.223182z" fill="#f1f2f2"/><path d="m73.8705651 221.770548c21.4553632 24.480978 58.8775759 26.984796 83.4189199 5.582838l73.634858-63.911435 33.501227 38.223182-73.484024 64.084211c-45.765764 39.912791-115.5525281 35.243509-155.5641932-10.409059-.1190802-.135341-.2309434-.272842-.3485802-.408184 11.083118-9.66612 26.3419812-22.973504 38.4968208-33.572617.1176368.133902.2251698.275723.3449717.411064" fill="url(#a)"/><path d="m160.663207 0 33.654226 38.3981179-41.367735 36.0771548-33.654227-38.397398z" fill="#f1f2f2"/><path d="m152.950058 74.4754167-73.4847448 64.0849313c-24.4042217 21.283174-27.0131604 58.312759-5.9395755 82.798776-12.1555613 10.599833-27.4137028 23.906497-38.4975424 33.573337-39.62916511-45.656887-34.84791511-114.974784 10.7843349-154.769511l73.4825798-64.0849313z" fill="url(#b)"/></g><ellipse cx="140" cy="323" fill="#000" filter="url(#c)" opacity=".2" rx="140" ry="7"/></g></svg>