<?xml version="1.0" encoding="UTF-8"?>
<svg width="312px" height="91px" viewBox="0 0 312 91" version="1.1" xmlns="http://www.w3.org/2000/svg" xmlns:xlink="http://www.w3.org/1999/xlink">
    <!-- Generator: sketchtool 63.1 (101010) - https://sketch.com -->
    <title>200BEB4A-AC21-4DD6-A2D6-9A1B6114FB21</title>
    <desc>Created with sketchtool.</desc>
    <defs>
        <polygon id="path-1" points="43.8626705 60.5944675 0.0238090657 60.5944675 0.0238090657 0.109184371 43.8626705 0.109184371"></polygon>
        <polygon id="path-3" points="0.400776816 0.0228150507 83.4631234 0.0228150507 83.4631234 88.8526446 0.400776816 88.8526446"></polygon>
    </defs>
    <g id="Website" stroke="none" stroke-width="1" fill="none" fill-rule="evenodd">
        <g id="Hubspot---Mobile" transform="translate(-32.000000, -1888.000000)">
            <g id="img_hubspot_logo_mob" transform="translate(32.000000, 1888.000000)">
                <polygon id="Fill-1" fill="#33475B" fill-rule="nonzero" points="34.0410649 16 34.0410649 41.1370868 10.9600632 41.1370868 10.9600632 16 0 16 0 76 10.9600632 76 10.9600632 51.6831773 34.0410649 51.6831773 34.0410649 76 45 76 45 16"></polygon>
                <path d="M79.8605665,56.6183607 C79.8605665,61.5998649 75.8839499,65.6534528 71.0022045,65.6534528 C66.1182545,65.6534528 62.1438435,61.5998649 62.1438435,56.6183607 L62.1438435,31 L52,31 L52,56.6183607 C52,67.3057061 60.5254149,76 71.0022045,76 C81.4767897,76 90,67.3057061 90,56.6183607 L90,31 L79.8605665,31 L79.8605665,56.6183607 Z" id="Fill-2" fill="#33475B" fill-rule="nonzero"></path>
                <path d="M156.361325,32.8420785 C156.361325,27.4864732 159.822273,25.7891936 163.612408,25.7891936 C166.66243,25.7891936 170.700015,28.1665319 173.333515,31.0564945 L180.088576,22.9015246 C176.713845,18.2294185 169.874807,15 164.270782,15 C153.063852,15 144.988682,21.7122821 144.988682,32.8420785 C144.988682,53.4858152 169.628477,46.9421142 169.628477,58.4996709 C169.628477,62.0639581 166.250386,65.2096594 162.378514,65.2096594 C156.279589,65.2096594 154.299985,62.1511156 151.499652,58.922844 L144,66.906939 C148.781056,72.9391622 154.713149,76 161.799637,76 C172.429929,76 181,69.2028539 181,58.5810945 C181,35.6437367 156.361325,42.7814855 156.361325,32.8420785" id="Fill-4" fill="#33475B" fill-rule="nonzero"></path>
                <path d="M308.357311,66.2881169 C302.239705,66.2881169 300.503218,63.6107807 300.503218,59.5083374 L300.503218,41.3447611 L310.012874,41.3447611 L310.012874,32.1390012 L300.503218,32.1390012 L300.503218,20 L290,24.7712087 L290,61.7682639 C290,71.2276544 296.449167,76 305.296822,76 C306.620823,76 308.441606,75.9135614 309.435169,75.6656175 L312,66.1232002 C310.842342,66.2039525 309.519464,66.2881169 308.357311,66.2881169" id="Fill-6" fill="#33475B" fill-rule="nonzero"></path>
                <path d="M119.433616,65.4662031 C112.947882,65.4662031 107.689512,60.150537 107.689512,53.5941329 C107.689512,47.0377288 112.947882,41.7220627 119.433616,41.7220627 C125.919351,41.7220627 131.17772,47.0377288 131.17772,53.5941329 C131.17772,60.150537 125.919351,65.4662031 119.433616,65.4662031 M119.498687,30.9274158 C114.378312,30.9274158 110.806165,32.4301377 107.354063,35.8540753 L107.354063,16 L97,16 L97,52.7957056 C97,66.567443 106.849206,76 117.916801,76 C130.219613,76 141,66.3995919 141,53.4648421 C141,40.693407 131.058798,30.9274158 119.498687,30.9274158" id="Fill-8" fill="#33475B" fill-rule="nonzero"></path>
                <g id="Group-12" transform="translate(186.000000, 30.000000)">
                    <g id="Fill-10-Clipped">
                        <mask id="mask-2" fill="white">
                            <use xlink:href="#path-1"></use>
                        </mask>
                        <g id="path-1"></g>
                        <path d="M22.3763859,34.664037 C15.9132865,34.664037 10.6741743,29.3054281 10.6741743,22.696058 C10.6741743,16.0866879 15.9132865,10.728079 22.3763859,10.728079 C28.8372498,10.728079 34.076362,16.0866879 34.076362,22.696058 C34.076362,29.3054281 28.8372498,34.664037 22.3763859,34.664037 M43.8626705,22.8263932 C43.8626705,9.78714981 33.1217638,0.109184371 20.8640072,0.109184371 C9.83694465,0.109184371 0.0238090657,9.61794259 0.0238090657,23.5009354 L0.0238090657,60.5950392 L10.3399531,60.5950392 L10.3399531,40.5794289 C13.779413,44.0321703 17.338477,45.547032 22.4401003,45.547032 C33.9578756,45.547032 43.8626705,35.7010027 43.8626705,22.8263932" id="Fill-10" fill="#33475B" fill-rule="nonzero" mask="url(#mask-2)"></path>
                    </g>
                </g>
                <g id="Group-15" transform="translate(199.000000, 0.000000)">
                    <g id="Fill-13-Clipped">
                        <mask id="mask-4" fill="white">
                            <use xlink:href="#path-3"></use>
                        </mask>
                        <g id="path-3"></g>
                        <path d="M60.7416739,64.0344324 C54.3076372,64.0344324 49.0919987,58.7116811 49.0919987,52.1466503 C49.0919987,45.5804787 54.3076372,40.2577273 60.7416739,40.2577273 C67.1757107,40.2577273 72.3913495,45.5804787 72.3913495,52.1466503 C72.3913495,58.7116811 67.1757107,64.0344324 60.7416739,64.0344324 M64.229199,29.2585914 L64.229199,18.6826746 C66.9342664,17.3787945 68.8289315,14.5862323 68.8289315,11.3453544 L68.8289315,11.1012333 C68.8289315,6.62834261 65.2430405,2.96880847 60.8601604,2.96880847 L60.6220697,2.96880847 C56.2391896,2.96880847 52.6532984,6.62834261 52.6532984,11.1012333 L52.6532984,11.3453544 C52.6532984,14.5862323 54.5479634,17.3799353 57.253031,18.6838154 L57.253031,29.2585914 C53.2256102,29.8939905 49.545824,31.5891488 46.5110066,34.0839746 L18.0574963,11.4959337 C18.2452861,10.7601483 18.3771862,10.0026886 18.3783039,9.20644333 C18.3827751,4.14150208 14.3654145,0.0290891897 9.40016233,0.022238732 C4.43714584,0.0165409118 0.406371622,4.11754627 0.400776815,9.18362827 C0.395193657,14.2497103 4.41255432,18.3621232 9.37780639,18.367827 C10.995258,18.3701084 12.4931053,17.9012591 13.8053984,17.1392365 L41.7939053,39.3599551 C39.4141165,43.0263337 38.0191064,47.418231 38.0191064,52.1466503 C38.0191064,57.0963755 39.5516054,61.6753562 42.1404222,65.4409803 L33.6295195,74.1278105 C32.9566061,73.9213344 32.259101,73.7776002 31.5191197,73.7776002 C27.4402802,73.7776002 24.1327204,77.1519459 24.1327204,81.3145519 C24.1327204,85.4782989 27.4402802,88.8526446 31.5191197,88.8526446 C35.599077,88.8526446 38.9055191,85.4782989 38.9055191,81.3145519 C38.9055191,80.5616552 38.7646767,79.8486848 38.5623556,79.1619519 L46.9815989,70.5698035 C50.8033452,73.5460269 55.5629227,75.3347268 60.7416739,75.3347268 C73.2911756,75.3347268 83.4631234,64.9527382 83.4631234,52.1466503 C83.4631234,40.5531822 75.1176546,30.975424 64.229199,29.2585914" id="Fill-13" fill="#FF7A59" fill-rule="nonzero" mask="url(#mask-4)"></path>
                    </g>
                </g>
            </g>
        </g>
    </g>
</svg>