<svg height="330" viewBox="0 0 260 330" width="260" xmlns="http://www.w3.org/2000/svg"><g fill="none"><path d="m160.85737 13.3583103 97.488946 237.9790727c4.577741 11.025402-.678184 23.577399-11.698674 27.98756l-119.529924 49.020635c-11.020489 4.579783-23.566893-.678486-27.9750885-11.703888l-97.48894519-237.9790726c-4.57774177-11.0254025.67818397-23.5773992 11.69867339-27.9875602l119.5299243-49.02063566c10.850943-4.57978258 23.397347.67848631 27.975088 11.70388876z" fill="#6f6f6f"/><path d="m56.9070966 41.2020301 136.9536074-.1338716-.219363 224.8588975-136.9536082.133872z" fill="#eff1ec" transform="matrix(.92519293 -.37949709 .37949709 .92519293 -48.9059 59.028916)"/><path d="m37.2028818 56.7819126 111.3595552-.1088535-.034462 35.3252649-111.3595552.1088535z" fill="#427fe0" transform="matrix(.92519293 -.37949709 .37949709 .92519293 -21.283843 40.807067)"/><path d="m62.0959996 101.946308 111.3595544-.108853-.06445 66.065038-111.359555.108854z" fill="#ff5254" transform="matrix(.92519293 -.37949709 .37949709 .92519293 -42.395368 54.776635)"/><g fill="#aaa"><path d="m88.0782702 177.79724 111.0163278-.108498-.045718 46.872139-111.0163279.108498z" transform="matrix(.92522804 -.37941149 .37941149 .92522804 -65.595117 69.512224)"/><path d="m101.280561 227.552507 111.355309-.108829-.007288 7.47237-111.35531.108829z" transform="matrix(.92522804 -.37941149 .37941149 .92522804 -75.997141 76.840209)"/><path d="m106.97887 241.284731 111.359555-.108854-.00729 7.472653-111.359555.108853z" transform="matrix(.92519293 -.37949709 .37949709 .92519293 -80.79638 80.052337)"/></g><g fill="#fff"><path d="m204 118.641818-43.214824-105.3083573c-4.575687-11.00489262-17.11646-16.25337986-27.962533-11.68211678l-119.4762779 48.92944558c-11.01554339 4.571263-16.26911022 17.09991-11.69342298 27.9354966l34.74132908 84.4837139z" opacity=".3"/><path d="m187.140336 274.14317c2.383435 5.964446-.340491 12.610542-6.299079 14.996321-5.958588 2.385778-12.598157-.340826-14.981593-6.305271-2.383435-5.964446.340491-12.610542 6.299079-14.996321 5.788343-2.385778 12.598157.511239 14.981593 6.305271z"/><path d="m92.3365286 28.3005976-30.8596516 12.749253c-2.012586.8499502-3.018879 3.2298107-2.1803015 5.4396813.8385775 2.0398804 3.1865945 3.0598207 5.3668959 2.2098705l30.8596516-12.749253c2.012586-.8499502 3.018879-3.2298107 2.1803015-5.4396813-.8385775-2.0398804-3.1865945-3.0598207-5.3668959-2.2098705z"/></g></g></svg>