<svg enable-background="new 0 0 333 224.2" viewBox="0 0 333 224.2" xmlns="http://www.w3.org/2000/svg" xmlns:xlink="http://www.w3.org/1999/xlink"><filter id="a" height="146.6%" width="106.1%" x="-3%" y="-20.4%"><feOffset dx="0" dy="2" in="SourceAlpha" result="shadowOffsetOuter1"/><feGaussianBlur in="shadowOffsetOuter1" result="shadowBlurOuter1" stdDeviation="5"/><feColorMatrix in="shadowBlurOuter1" type="matrix" values="0 0 0 0 0   0 0 0 0 0   0 0 0 0 0  0 0 0 0.2 0"/></filter><filter id="b" height="117.1%" width="111.3%" x="-5.6%" y="-8.6%"><feOffset dx="0" dy="5" in="SourceAlpha" result="shadowOffsetOuter1"/><feGaussianBlur in="shadowOffsetOuter1" result="shadowBlurOuter1" stdDeviation="5"/><feColorMatrix in="shadowBlurOuter1" result="shadowMatrixOuter1" type="matrix" values="0 0 0 0 0   0 0 0 0 0   0 0 0 0 0  0 0 0 0.25 0"/><feMerge><feMergeNode in="shadowMatrixOuter1"/><feMergeNode in="SourceGraphic"/></feMerge></filter><linearGradient id="c" gradientTransform="matrix(22.0333 0 0 -118.3824 26130.9609 144447.6562)" gradientUnits="userSpaceOnUse" x1="-1173.8478" x2="-1173.8478" y1="1219.292" y2="1218.7117"><stop offset="0" stop-color="#b8e986"/><stop offset="1" stop-color="#fff" stop-opacity="0"/></linearGradient><g clip-rule="evenodd" fill-rule="evenodd" transform="translate(11 9)"><g filter="url(#b)"><path d="m5.6-.5h297.4c4.3 0 7.8 3.5 7.8 7.8v191.3c0 4.3-3.5 7.8-7.8 7.8h-297.4c-4.3 0-7.8-3.5-7.8-7.8v-191.3c0-4.3 3.5-7.8 7.8-7.8z" fill="#fff"/><path d="m5.6-.5h298.1c4.3 0 7.8 3.5 7.8 7.8v19.4h-313.7v-19.4c0-4.3 3.5-7.8 7.8-7.8z" fill="#ff5254"/><path d="m-2.2 40.9h313v-14.2h-313z" fill="#e9eced"/><g fill="#fff"><path d="m40.4 14.4c0 2.1-1.8 3.9-4 3.9s-4-1.7-4-3.9 1.8-3.9 4-3.9 4 1.7 4 3.9"/><path d="m29.1 14.4c0 2.1-1.8 3.9-4 3.9s-4-1.7-4-3.9 1.8-3.9 4-3.9 4 1.7 4 3.9"/><path d="m18.4 14.4c0 2.1-1.8 3.9-4 3.9s-4-1.7-4-3.9 1.8-3.9 4-3.9 4 1.7 4 3.9"/><path d="m49.2 11.8h223.4c.8 0 1.5.7 1.5 1.5v.9c0 .8-.7 1.5-1.5 1.5h-223.4c-.8 0-1.5-.7-1.5-1.5v-.9c0-.8.7-1.5 1.5-1.5z"/><path d="m290.4 9.2.9 2.5h2.8l-2.3 1.5.9 2.5-2.3-1.6-2.2 1.6.8-2.5-2.2-1.5h2.8z"/></g><g transform="translate(34.422505 183.28125)"><path d="m-16-45.4h149v-5h-149z" fill="#dadfe1"/><path d="m-16-57.5h211.5v-5h-211.5z" fill="#dadfe1"/><path d="m-16-68.9h124.5v-5h-124.5z" fill="#427fe0"/></g><g transform="translate(34.422505 255.515625)"><path d="m-16-74.3h149v-5h-149z" fill="#dadfe1"/><path d="m-16-86.4h211.5v-5h-211.5z" fill="#dadfe1"/><path d="m-16-97.8h124.5v-5h-124.5z" fill="#427fe0"/></g><path d="m13.1 54.5h277.7v40.1h-277.7z" fill="#b8e986" opacity=".2883"/><g transform="translate(34.422505 101.34375)"><path d="m-16-12.6h149v-5h-149z" fill="#dadfe1"/><path d="m-16-24.7h211.5v-5h-211.5z" fill="#dadfe1"/><path d="m-16-36.1h124.5v-5h-124.5z" fill="#427fe0"/></g></g><path d="m260.7 105h13.2v71h-13.2z" fill="url(#c)"/><path d="m267.3 83.4 16.3 23.6h-32.7z" fill="#b8e986"/></g><g transform="translate(10 7)"><g filter="url(#a)"><path clip-rule="evenodd" d="m-1.8.8h316.6v41.2h-316.6z" fill-rule="evenodd"/></g><path clip-rule="evenodd" d="m-1.8.8h316.6v41.2h-316.6z" fill="#fff" fill-rule="evenodd"/><text fill="#666" font-family="'HelveticaNeue'" font-size="11.9941" transform="translate(9.573 24.3906)">Your Industry</text><path clip-rule="evenodd" d="m201.3.8h113.5v41.2h-113.5z" fill="#ff5254" fill-rule="evenodd" stroke="#ff5254"/><text fill="#fff" font-family="'HelveticaNeue'" font-size="11.9941" transform="translate(239.1834 25.4746)">Search</text></g></svg>