<svg height="276" viewBox="0 0 227 276" width="227" xmlns="http://www.w3.org/2000/svg" xmlns:xlink="http://www.w3.org/1999/xlink"><filter id="a" height="161.9%" width="105.8%" x="-2.9%" y="-31%"><feGaussianBlur in="SourceGraphic" stdDeviation="1.65066964"/></filter><linearGradient id="b"><stop offset="0" stop-color="#9f3fa9"/><stop offset=".217248618" stop-color="#db2e87"/><stop offset=".760780392" stop-color="#f2554b"/><stop offset="1" stop-color="#ffb461"/></linearGradient><linearGradient id="c" x1="49.195481%" x2="46.765427%" xlink:href="#b" y1="10.161977%" y2="94.295096%"/><linearGradient id="d" x1="48.835372%" x2="45.317608%" xlink:href="#b" y1="10.161977%" y2="94.295096%"/><g fill="none" fill-rule="evenodd" transform="translate(-41 -40)"><ellipse cx="161.5" cy="304" fill="#000" filter="url(#a)" opacity=".14786" rx="85.5" ry="8"/><path d="m150.83795 289.976158c48.502355-.003323 87.824537-47.496535 87.828551-106.079057.004015-58.582523-39.309387-139.233331-87.811742-139.2300077-48.502356.0033234-87.8268101 80.6595197-87.8308243 139.2420417-.0040143 58.582523 39.3116593 106.070347 87.8140153 106.067023z" fill="url(#c)" opacity=".265342" transform="matrix(.57357644 -.81915204 .81915204 .57357644 -72.737897 194.915053)"/><path d="m173.590492 256.92571c53.157965.003357 96.248278-43.253972 96.244908-96.617949-.00337-53.363978-43.101054-126.8355675-96.259019-126.8389245-53.157964-.003357-96.2463697 73.4627905-96.2429999 126.8267675s43.0991459 96.626749 96.2571109 96.630106z" fill="url(#d)" transform="matrix(.8660254 .5 -.5 .8660254 95.854535 -67.339449)"/><g fill="#fff" fill-rule="nonzero" transform="translate(115 107)"><path d="m70.9115554 0h-40.8231108c-16.5908383 0-30.0884446 13.4972752-30.0884446 30.0877065v40.8221093c0 16.5904314 13.4976063 30.0877062 30.0884446 30.0877062h40.8231108c16.5908383 0 30.0884446-13.4972748 30.0884446-30.0877062v-40.8221093c0-16.5904313-13.4977896-30.0877065-30.0884446-30.0877065zm19.9278483 70.9098158c0 11.0054847-8.9220937 19.9273596-19.9278483 19.9273596h-40.8231108c-11.0057546 0-19.9278483-8.9218749-19.9278483-19.9273596v-40.8221093c0-11.0056679 8.9220937-19.9273595 19.9278483-19.9273595h40.8231108c11.0057546 0 19.9278483 8.9216916 19.9278483 19.9273595z"/><path d="m49.7887324 24.1825054c-14.1189692 0-25.6056338 11.4864231-25.6056338 25.6049158s11.4866646 25.6050955 25.6056338 25.6050955c14.1189691 0 25.6056338-11.4864232 25.6056338-25.6050955s-11.4866647-25.6049158-25.6056338-25.6049158zm0 41.2525091c-8.6421591 0-15.6478873-7.0055564-15.6478873-15.6475035s7.0059079-15.6475034 15.6478873-15.6475034c8.6421591 0 15.6478873 7.0055563 15.6478873 15.6475034 0 8.6417674-7.0059079 15.6475035-15.6478873 15.6475035z"/><ellipse cx="76.105634" cy="23.471255" rx="6.401408" ry="6.401251"/></g></g></svg>