<svg height="369" viewBox="0 0 548 369" width="548" xmlns="http://www.w3.org/2000/svg" xmlns:xlink="http://www.w3.org/1999/xlink"><defs><filter id="a" height="117.1%" width="111.3%" x="-5.6%" y="-8.6%"><feOffset dx="0" dy="5" in="SourceAlpha" result="shadowOffsetOuter1"/><feGaussianBlur in="shadowOffsetOuter1" result="shadowBlurOuter1" stdDeviation="5"/><feColorMatrix in="shadowBlurOuter1" result="shadowMatrixOuter1" type="matrix" values="0 0 0 0 0   0 0 0 0 0   0 0 0 0 0  0 0 0 0.25 0"/><feMerge><feMergeNode in="shadowMatrixOuter1"/><feMergeNode in="SourceGraphic"/></feMerge></filter><linearGradient id="b" x1="50%" x2="50%" y1="0%" y2="96.777908%"><stop offset="0" stop-color="#b8e986"/><stop offset="1" stop-color="#fff" stop-opacity="0"/></linearGradient><path id="c" d="m0 .77490775h528v68.69372695h-528z"/><filter id="d" height="146.6%" width="106.1%" x="-3%" y="-20.4%"><feOffset dx="0" dy="2" in="SourceAlpha" result="shadowOffsetOuter1"/><feGaussianBlur in="shadowOffsetOuter1" result="shadowBlurOuter1" stdDeviation="5"/><feColorMatrix in="shadowBlurOuter1" type="matrix" values="0 0 0 0 0   0 0 0 0 0   0 0 0 0 0  0 0 0 0.2 0"/></filter></defs><g fill="none" fill-rule="evenodd"><g transform="translate(11 9)"><g filter="url(#a)"><rect fill="#fff" height="345" rx="13" width="521.889597"/><path d="m13 0h497c7.179702 0 13 5.82029825 13 13v32.28125h-523v-32.28125c0-7.17970175 5.82029825-13 13-13z" fill="#ff5254"/><path d="m0 69h521.889597v-23.71875h-521.889597z" fill="#e9eced"/><g fill="#fff"><path d="m71.0658174 24.7978667c0 3.5720431-2.9824111 6.4677583-6.661399 6.4677583s-6.6634418-2.8957152-6.6634418-6.4677583c0-3.5720432 2.9844539-6.4697417 6.6634418-6.4697417s6.661399 2.8976985 6.661399 6.4697417"/><path d="m52.1889597 24.7978667c0 3.5720431-2.9844539 6.4677583-6.6634418 6.4677583s-6.661399-2.8957152-6.661399-6.4677583c0-3.5720432 2.9824111-6.4697417 6.661399-6.4697417s6.6634418 2.8976985 6.6634418 6.4697417"/><path d="m34.4225053 24.7978667c0 3.5720431-2.9824111 6.4677583-6.6634417 6.4677583-3.678988 0-6.6613991-2.8957152-6.6613991-6.4677583 0-3.5720432 2.9824111-6.4697417 6.6613991-6.4697417 3.6810306 0 6.6634417 2.8976985 6.6634417 6.4697417"/><path d="m85.7802548 20.484375h372.5371552c1.380712 0 2.5 1.1192881 2.5 2.5v1.46875c0 1.3807119-1.119288 2.5-2.5 2.5h-372.5371552c-1.3807119 0-2.5-1.1192881-2.5-2.5v-1.46875c0-1.3807119 1.1192881-2.5 2.5-2.5z"/><path d="m488.020206 16.171875 1.44178 4.1180269h4.667526l-3.776586 2.5451962 1.443866 4.1180269-3.776586-2.5451963-3.774499 2.5451963 1.44178-4.1180269-3.772413-2.5451962h4.66544z"/></g><g transform="translate(34.422505 183.28125)"><path d="m0 47.4375h248.484404v-8.3015625h-248.484404z" fill="#dadfe1"/><path d="m0 27.2765625h352.687541v-8.3015625h-352.687541z" fill="#dadfe1"/><path d="m0 8.3015625h207.645435v-8.3015625h-207.645435z" fill="#427fe0"/></g><g transform="translate(34.422505 255.515625)"><path d="m0 47.4375h248.484404v-8.3015625h-248.484404z" fill="#dadfe1"/><path d="m0 27.2765625h352.687541v-8.3015625h-352.687541z" fill="#dadfe1"/><path d="m0 8.3015625h207.645435v-8.3015625h-207.645435z" fill="#427fe0"/></g><path d="m25.5392781 91.640625h463.0382169v66.84375h-463.0382169z" fill="#b8e986" opacity=".288281"/><g transform="translate(34.422505 101.34375)"><path d="m0 47.4375h248.484404v-8.3015625h-248.484404z" fill="#dadfe1"/><path d="m0 27.2765625h352.687541v-8.3015625h-352.687541z" fill="#dadfe1"/><path d="m0 8.3015625h207.645435v-8.3015625h-207.645435z" fill="#427fe0"/></g></g><path d="m438.345898 175.882353h22.033259v118.382353h-22.033259z" fill="url(#b)"/><path d="m449.362528 139.803922 27.251663 39.460784h-54.503326z" fill="#b8e986"/></g><g transform="translate(10 7)"><use fill="#000" filter="url(#d)" xlink:href="#c"/><use fill="#fff" fill-rule="evenodd" xlink:href="#c"/><text fill="#666" font-family="HelveticaNeue, Helvetica Neue" font-size="20"><tspan x="19" y="40.153137">Your Industry</tspan></text><path d="m338.708333.77490775h189.291667v68.69372695h-189.291667z" fill="#ff5254" stroke="#ff5254"/><text fill="#fff" font-family="HelveticaNeue, Helvetica Neue" font-size="20"><tspan x="401.874167" y="41.961255">Search</tspan></text></g></g></svg>