<svg height="458" viewBox="0 0 392 458" width="392" xmlns="http://www.w3.org/2000/svg" xmlns:xlink="http://www.w3.org/1999/xlink"><linearGradient id="a" x1="50.000506%" x2="50.000506%" y1="100.000195%" y2=".000255%"><stop offset="0" stop-color="#fff"/><stop offset="1" stop-color="#fff"/></linearGradient><mask id="b" fill="#fff"><path d="m60.9367492.59165353s-60.90470402 141.47984947-38.013696 290.63813047l-12.98841602.839887s-25.90156798-96.454456 6.42073602-198.9971583" fill="#fff" fill-rule="evenodd"/></mask><g fill="none" fill-rule="evenodd"><ellipse cx="196" cy="219.770356" fill="#427fe0" rx="196" ry="196.223533"/><g transform="translate(103.567059)"><path d="m60.1543251 294.398096c-18.0088639 47.150309-11.6044233 101.083812 16.8368206 141.784828l15.1734404 21.712865 2.3304384-164.827767z" fill="#f99653"/><path d="m123.609057 294.398096c18.008864 47.150309 11.604424 101.083812-16.83682 141.784828l-15.1734407 21.712865-2.3304385-164.827767z" fill="#fc7b1d"/><path d="m66.2149797 299.272306c-14.8316795 34.427223-9.5574427 73.808095 13.8669258 103.522785l12.4948735 15.855992 1.9182455-120.350434z" fill="#f4cc4d"/><path d="m114.936516 301.888619c14.829577 34.427224 9.555421 73.808095-13.866715 103.522786l-12.4965601 15.855991-1.9182164-120.350433z" fill="#f5c300"/><path d="m74.2945668 298.913608c-10.5941544 21.704298-6.8249536 46.529111 9.9048539 65.263347l8.9257836 9.996794 1.3698202-75.8731z" fill="#f9eecf"/><path d="m106.855482 296.297294c10.594155 21.704298 6.824954 46.529111-9.9048537 65.263347l-8.9257836 9.996794-1.3698202-75.873099z" fill="#f4dc90"/><path d="m92.432941 5.232628h7.84v290.410828h-7.84z" fill="#fff"/><path d="m141.535025 298.300649h-101.9200005l1.2108711-10.465255h99.4982574z" fill="#ba530d"/><path d="m34.076885 206.729668s-26.02258886 21.946817-29.43606982 32.748723c-6.59280544 20.855943 9.16158862 87.60171 9.16158862 87.60171l33.6526207-37.198441z" fill="#ff5254"/><path d="m157.526202 209.345981s26.022014 21.946818 29.437154 32.748724c6.590926 20.855943-9.163121 87.60171-9.163121 87.60171l-33.651877-37.198441z" fill="#ff5254"/><path d="m156.81959 216.650047s4.637559 35.198236-17.850728 84.266916l-7.887171-6.453329 17.54082-85.117653z" fill="#a45302"/><path d="m12.2032515 248.902931c-10.26233957 46.506486.9095282 75.560856.9095282 75.560856s-18.56663863-66.745767-10.79783708-87.60171c4.02236293-10.801905 34.68674858-32.748723 34.68674858-32.748723s-21.0560889 27.826668-24.7984397 44.789577z" fill="#ff5254"/><path d="m94.4950245 2.65719367v293.02714233h-48.5642826c-8.3327996-23.088693-14.308644-53.060937-14.1527365-91.486173.2347784-57.43748 13.7327033-104.9494503 28.1679076-139.3765234 5.0862543-12.1790198 10.2990688-22.7252234 15.0735081-31.4950869 10.5962103-19.4577269 19.0849174-30.19405293 19.4609298-30.66935903z" fill="#e6e6e6"/><path d="m159.825377 201.581849c.155907 38.423373-5.819937 68.395616-14.138063 91.486173h-48.5789562v-293.0271421h.0146737c.0641972.07828571.124726.14165986.1724154.22180952 1.2949497 1.66450331 9.4571681 12.35236668 19.4756031 30.79610728 3.760123 6.9133738 7.771533 14.9227476 11.795782 23.9461077.07887.1584354.141234.3168707.203597.4753061 1.01615 2.2665577 2.013958 4.5983535 3.011766 6.9935234 3.343759 8.0075099 6.62332 16.7289108 9.715792 26.1138763.155907.4641224.302644.8965578.429204 1.2730748.218271.6654285.388852 1.1891972.498904 1.5545305.045855.1584354.108218.3168707.155908.4753061.280633.8723265.561267 1.744653.827227 2.631891.405359 1.301034.796045 2.600204 1.201405 3.932925 4.323224 14.5108154 8.083347 30.4475494 10.781465 47.6704054.172415 1.047538.328323 2.076436.469557 3.123973.172415 1.125823.328323 2.251646.48423 3.362558 2.138685 15.366366 3.417127 31.731808 3.47949 48.969575" fill="#bcb9b9"/><path d="m128.468358 65.4487241c-12.330983-5.2108706-24.501143-6.903598-35.3361011-6.7747005h-.0149602c-15.6727277.1459575-28.5759398 4.0337332-35.2089389 6.4998455 5.1855953-12.3855324 10.5002227-23.1086663 15.3679127-32.0291309h.0168303c7.0799364-3.3058415 13.8569278-4.3844102 19.8241959-4.321857h.0149602c9.2117711.130793 16.5142411 2.9835978 20.0298991 4.6782207 4.85273 8.918569 10.135567 19.6094785 15.306202 31.9476222" fill="#ff5254"/><path d="m120.628358 110.52176c0 14.114945-12.139334 25.567436-27.1155112 25.567436-2.1503122 0-4.2540384-.245196-6.2670446-.691637-9.5771033-3.941637-16.2707777-12.962989-16.2707777-23.43701 0-14.1265112 12.139334-25.5813148 27.1130591-25.5813148 2.1503124 0 4.2540384.2451957 6.2670444.691637 9.579555 3.9416368 16.27323 12.9629888 16.27323 23.4508888" fill="#666"/><path d="m107.561691 109.551082c0 7.428918-6.389123 13.456545-14.2713214 13.456545-1.1317433 0-2.2389676-.12905-3.2984445-.364019-5.0405807-2.074546-8.5635673-6.822626-8.5635673-12.335269 0-7.435006 6.3891232-13.4638497 14.2700312-13.4638497 1.1317432 0 2.2389676.1290504 3.2984445.3640194 5.0418715 2.0745457 8.5648575 6.8226253 8.5648575 12.3425733" fill="#427fe0"/><path d="m60.9367492.59165353s-60.90470402 141.47984947-38.013696 290.63813047l-12.98841602.839887s-25.90156798-96.454456 6.42073602-198.9971583c0 0 18.29632-59.8801898 44.581376-92.48085917" fill="url(#a)" mask="url(#b)" transform="translate(33.422083 2.657194)"/><path d="m40.8258956 287.835394-3.5307148 13.081569h111.5668752l-4.713698-13.081569z" fill="#666" stroke="#666"/></g></g></svg>