<?xml version="1.0" encoding="UTF-8"?>
<svg width="494px" height="620px" viewBox="0 0 494 620" version="1.1" xmlns="http://www.w3.org/2000/svg" xmlns:xlink="http://www.w3.org/1999/xlink">
    <!-- Generator: Sketch 63.1 (92452) - https://sketch.com -->
    <title>img_we_chat_messages</title>
    <desc>Created with Sketch.</desc>
    <defs>
        <polygon id="path-1" points="0.227399336 0.409337696 219.222138 0.409337696 219.222138 411.485586 0.227399336 411.485586"></polygon>
        <polygon id="path-3" points="0.71459726 0.893745812 203.336776 0.893745812 203.336776 384.297105 0.71459726 384.297105"></polygon>
        <polygon id="path-5" points="0.227399336 0.409337696 267.073856 0.409337696 267.073856 411.485586 0.227399336 411.485586"></polygon>
        <polygon id="path-7" points="0.017695605 0.746621531 224.199818 0.746621531 224.199818 131.102419 0.017695605 131.102419"></polygon>
        <polygon id="path-9" points="0.838203093 0.0297681525 198.427268 0.0297681525 198.427268 108.464419 0.838203093 108.464419"></polygon>
        <polygon id="path-11" points="0.0367731797 0.0772427184 311.931902 0.0772427184 311.931902 155.666796 0.0367731797 155.666796"></polygon>
        <path d="M92.9336942,131.370175 L92.180071,155.666796 L135.964368,131.370175 L298.771189,131.370175 C306.039567,131.370175 311.932356,125.472466 311.932356,118.198019 L311.932356,13.2509126 C311.932356,5.97495146 306.039567,0.0772427184 298.771189,0.0772427184 L13.1979396,0.0772427184 C5.92956173,0.0772427184 0.0367731797,5.97495146 0.0367731797,13.2509126 L0.0367731797,118.198019 C0.0367731797,125.472466 5.92956173,131.370175 13.1979396,131.370175 L92.9336942,131.370175 Z" id="path-13"></path>
        <filter x="-2.2%" y="-3.2%" width="104.5%" height="109.0%" filterUnits="objectBoundingBox" id="filter-14">
            <feOffset dx="0" dy="2" in="SourceAlpha" result="shadowOffsetOuter1"></feOffset>
            <feGaussianBlur stdDeviation="2" in="shadowOffsetOuter1" result="shadowBlurOuter1"></feGaussianBlur>
            <feColorMatrix values="0 0 0 0 0   0 0 0 0 0   0 0 0 0 0  0 0 0 0.5 0" type="matrix" in="shadowBlurOuter1"></feColorMatrix>
        </filter>
        <rect id="path-15" x="20.0481928" y="21.3870968" width="82.6987952" height="85.5483871"></rect>
        <filter x="-8.5%" y="-5.8%" width="116.9%" height="116.4%" filterUnits="objectBoundingBox" id="filter-16">
            <feOffset dx="0" dy="2" in="SourceAlpha" result="shadowOffsetOuter1"></feOffset>
            <feGaussianBlur stdDeviation="2" in="shadowOffsetOuter1" result="shadowBlurOuter1"></feGaussianBlur>
            <feColorMatrix values="0 0 0 0 0   0 0 0 0 0   0 0 0 0 0  0 0 0 0.5 0" type="matrix" in="shadowBlurOuter1"></feColorMatrix>
        </filter>
        <path d="M12.5058364,12.234 C-3.31547273,28.2435 -3.08307273,53.9685 13.0264727,69.6915 L13.0264727,69.6915 C29.1345091,85.4145 55.0184364,85.1835 70.8397455,69.174 L70.8397455,69.174 C86.6610545,53.1645 86.4286545,27.441 70.3191091,11.7165 L70.3191091,11.7165 C62.3601636,3.948 52.0123273,0.0735 41.6735455,0.0735 L41.6735455,0.0735 C31.0872727,0.0735 20.5100545,4.134 12.5058364,12.234 L12.5058364,12.234 Z" id="path-17"></path>
        <path d="M12.5058364,12.234 C-3.31547273,28.2435 -3.08307273,53.9685 13.0264727,69.6915 L13.0264727,69.6915 C29.1345091,85.4145 55.0184364,85.1835 70.8397455,69.174 L70.8397455,69.174 C86.6610545,53.1645 86.4286545,27.441 70.3191091,11.7165 L70.3191091,11.7165 C62.3601636,3.948 52.0123273,0.0735 41.6735455,0.0735 L41.6735455,0.0735 C31.0872727,0.0735 20.5100545,4.134 12.5058364,12.234 L12.5058364,12.234 Z" id="path-19"></path>
        <path d="M12.5058364,12.234 C-3.31547273,28.2435 -3.08307273,53.9685 13.0264727,69.6915 L13.0264727,69.6915 C29.1345091,85.4145 55.0184364,85.1835 70.8397455,69.174 L70.8397455,69.174 C86.6610545,53.1645 86.4286545,27.441 70.3191091,11.7165 L70.3191091,11.7165 C62.3601636,3.948 52.0123273,0.0735 41.6735455,0.0735 L41.6735455,0.0735 C31.0872727,0.0735 20.5100545,4.134 12.5058364,12.234 L12.5058364,12.234 Z" id="path-21"></path>
        <path d="M12.5058364,12.234 C-3.31547273,28.2435 -3.08307273,53.9685 13.0264727,69.6915 L13.0264727,69.6915 C29.1345091,85.4145 55.0184364,85.1835 70.8397455,69.174 L70.8397455,69.174 C86.6610545,53.1645 86.4286545,27.441 70.3191091,11.7165 L70.3191091,11.7165 C62.3601636,3.948 52.0123273,0.0735 41.6735455,0.0735 L41.6735455,0.0735 C31.0872727,0.0735 20.5100545,4.134 12.5058364,12.234 L12.5058364,12.234 Z" id="path-23"></path>
        <path d="M12.5058364,12.234 C-3.31547273,28.2435 -3.08307273,53.9685 13.0264727,69.6915 L13.0264727,69.6915 C29.1345091,85.4145 55.0184364,85.1835 70.8397455,69.174 L70.8397455,69.174 C86.6610545,53.1645 86.4286545,27.441 70.3191091,11.7165 L70.3191091,11.7165 C62.3601636,3.948 52.0123273,0.0735 41.6735455,0.0735 L41.6735455,0.0735 C31.0872727,0.0735 20.5100545,4.134 12.5058364,12.234" id="path-25"></path>
        <path d="M12.5058364,12.234 C-3.31547273,28.2435 -3.08307273,53.9685 13.0264727,69.6915 L13.0264727,69.6915 C29.1345091,85.4145 55.0184364,85.1835 70.8397455,69.174 L70.8397455,69.174 C86.6610545,53.1645 86.4286545,27.441 70.3191091,11.7165 L70.3191091,11.7165 C62.3601636,3.948 52.0123273,0.0735 41.6735455,0.0735 L41.6735455,0.0735 C31.0872727,0.0735 20.5100545,4.134 12.5058364,12.234 L12.5058364,12.234 Z" id="path-27"></path>
        <path d="M12.5058364,12.234 C-3.31547273,28.2435 -3.08307273,53.9685 13.0264727,69.6915 L13.0264727,69.6915 C29.1345091,85.4145 55.0184364,85.1835 70.8397455,69.174 L70.8397455,69.174 C86.6610545,53.1645 86.4286545,27.441 70.3191091,11.7165 L70.3191091,11.7165 C62.3601636,3.948 52.0123273,0.0735 41.6735455,0.0735 L41.6735455,0.0735 C31.0872727,0.0735 20.5100545,4.134 12.5058364,12.234 L12.5058364,12.234 Z" id="path-29"></path>
        <path d="M12.5058364,12.234 C-3.31547273,28.2435 -3.08307273,53.9685 13.0264727,69.6915 L13.0264727,69.6915 C29.1345091,85.4145 55.0184364,85.1835 70.8397455,69.174 L70.8397455,69.174 C86.6610545,53.1645 86.4286545,27.441 70.3191091,11.7165 L70.3191091,11.7165 C62.3601636,3.948 52.0123273,0.0735 41.6735455,0.0735 L41.6735455,0.0735 C31.0872727,0.0735 20.5100545,4.134 12.5058364,12.234" id="path-31"></path>
        <path d="M298.73487,135.765869 L218.999115,135.765869 L219.752738,159.941313 L175.966929,135.765869 L13.1616204,135.765869 C5.89172924,135.765869 0.000453989873,129.897575 0.000453989873,122.659409 L0.000453989873,13.7704486 C0.000453989873,6.5307757 5.89172924,0.663988318 13.1616204,0.663988318 L298.73487,0.663988318 C306.003248,0.663988318 311.894523,6.5307757 311.894523,13.7704486 L311.894523,122.659409 C311.894523,129.897575 306.003248,135.765869 298.73487,135.765869" id="path-33"></path>
        <filter x="-2.2%" y="-3.1%" width="104.5%" height="108.8%" filterUnits="objectBoundingBox" id="filter-34">
            <feOffset dx="0" dy="2" in="SourceAlpha" result="shadowOffsetOuter1"></feOffset>
            <feGaussianBlur stdDeviation="2" in="shadowOffsetOuter1" result="shadowBlurOuter1"></feGaussianBlur>
            <feColorMatrix values="0 0 0 0 0   0 0 0 0 0   0 0 0 0 0  0 0 0 0.5 0" type="matrix" in="shadowBlurOuter1"></feColorMatrix>
        </filter>
        <rect id="path-35" x="19" y="165" width="83" height="85"></rect>
        <filter x="-8.4%" y="-5.9%" width="116.9%" height="116.5%" filterUnits="objectBoundingBox" id="filter-36">
            <feOffset dx="0" dy="2" in="SourceAlpha" result="shadowOffsetOuter1"></feOffset>
            <feGaussianBlur stdDeviation="2" in="shadowOffsetOuter1" result="shadowBlurOuter1"></feGaussianBlur>
            <feColorMatrix values="0 0 0 0 0   0 0 0 0 0   0 0 0 0 0  0 0 0 0.5 0" type="matrix" in="shadowBlurOuter1"></feColorMatrix>
        </filter>
        <path d="M12.3926545,12.3659828 C-3.42714545,28.4934889 -3.19474545,54.4065971 12.9132909,70.2470025 L12.9132909,70.2470025 C29.0228364,86.0858968 54.9052545,85.851683 70.7265636,69.725688 L70.7265636,69.725688 C86.5463636,53.5981818 86.3154727,27.6835627 70.2059273,11.8431572 L70.2059273,11.8431572 C62.2469818,4.01739558 51.9006545,0.115847666 41.5633818,0.115847666 L41.5633818,0.115847666 C30.9771091,0.115847666 20.3968727,4.20627764 12.3926545,12.3659828 L12.3926545,12.3659828 Z" id="path-37"></path>
        <path d="M12.3926545,12.3659828 C-3.42714545,28.4934889 -3.19474545,54.4065971 12.9132909,70.2470025 L12.9132909,70.2470025 C29.0228364,86.0858968 54.9052545,85.851683 70.7265636,69.725688 L70.7265636,69.725688 C86.5463636,53.5981818 86.3154727,27.6835627 70.2059273,11.8431572 L70.2059273,11.8431572 C62.2469818,4.01739558 51.9006545,0.115847666 41.5633818,0.115847666 L41.5633818,0.115847666 C30.9771091,0.115847666 20.3968727,4.20627764 12.3926545,12.3659828 L12.3926545,12.3659828 Z" id="path-39"></path>
        <path d="M12.3926545,12.3659828 C-3.42714545,28.4934889 -3.19474545,54.4065971 12.9132909,70.2470025 L12.9132909,70.2470025 C29.0228364,86.0858968 54.9052545,85.851683 70.7265636,69.725688 L70.7265636,69.725688 C86.5463636,53.5981818 86.3154727,27.6835627 70.2059273,11.8431572 L70.2059273,11.8431572 C62.2469818,4.01739558 51.9006545,0.115847666 41.5633818,0.115847666 L41.5633818,0.115847666 C30.9771091,0.115847666 20.3968727,4.20627764 12.3926545,12.3659828" id="path-41"></path>
        <path d="M12.3926545,12.3659828 C-3.42714545,28.4934889 -3.19474545,54.4065971 12.9132909,70.2470025 L12.9132909,70.2470025 C29.0228364,86.0858968 54.9052545,85.851683 70.7265636,69.725688 L70.7265636,69.725688 C86.5463636,53.5981818 86.3154727,27.6835627 70.2059273,11.8431572 L70.2059273,11.8431572 C62.2469818,4.01739558 51.9006545,0.115847666 41.5633818,0.115847666 L41.5633818,0.115847666 C30.9771091,0.115847666 20.3968727,4.20627764 12.3926545,12.3659828" id="path-43"></path>
        <path d="M12.3926545,12.3659828 C-3.42714545,28.4934889 -3.19474545,54.4065971 12.9132909,70.2470025 L12.9132909,70.2470025 C29.0228364,86.0858968 54.9052545,85.851683 70.7265636,69.725688 L70.7265636,69.725688 C86.5463636,53.5981818 86.3154727,27.6835627 70.2059273,11.8431572 L70.2059273,11.8431572 C62.2469818,4.01739558 51.9006545,0.115847666 41.5633818,0.115847666 L41.5633818,0.115847666 C30.9771091,0.115847666 20.3968727,4.20627764 12.3926545,12.3659828" id="path-45"></path>
        <path d="M12.3926545,12.3659828 C-3.42714545,28.4934889 -3.19474545,54.4065971 12.9132909,70.2470025 L12.9132909,70.2470025 C29.0228364,86.0858968 54.9052545,85.851683 70.7265636,69.725688 L70.7265636,69.725688 C86.5463636,53.5981818 86.3154727,27.6835627 70.2059273,11.8431572 L70.2059273,11.8431572 C62.2469818,4.01739558 51.9006545,0.115847666 41.5633818,0.115847666 L41.5633818,0.115847666 C30.9771091,0.115847666 20.3968727,4.20627764 12.3926545,12.3659828" id="path-47"></path>
    </defs>
    <g id="Page-1" stroke="none" stroke-width="1" fill="none" fill-rule="evenodd">
        <g id="Social-Media---WeChat" transform="translate(-145.000000, -1774.000000)">
            <g id="img_we_chat_messages" transform="translate(149.000000, 1774.000000)">
                <g id="Group-29" transform="translate(106.000000, 44.000000)">
                    <path d="M308.53704,575.381613 L44.2116247,575.381613 C32.1066977,575.381613 22.2915653,565.574124 22.2915653,553.475249 L22.2915653,50.5970921 C22.2915653,38.4997283 32.1066977,28.6907283 44.2116247,28.6907283 L308.53704,28.6907283 C320.643479,28.6907283 330.4571,38.4997283 330.4571,50.5970921 L330.4571,553.475249 C330.4571,565.574124 320.643479,575.381613 308.53704,575.381613" id="Fill-1" fill="#000000"></path>
                    <path d="M269.213636,531.322679 L24.7784484,531.322679 C11.1757087,531.322679 0.148421005,520.302281 0.148421005,506.706529 L0.148421005,24.6713644 C0.148421005,11.0771236 11.1757087,0.0567256545 24.7784484,0.0567256545 L269.213636,0.0567256545 C282.816375,0.0567256545 293.843663,11.0771236 293.843663,24.6713644 L293.843663,506.706529 C293.843663,520.302281 282.816375,531.322679 269.213636,531.322679" id="Fill-3" fill="#393F40"></path>
                    <g id="Group-17" transform="translate(13.345112, 57.908377)">
                        <polygon id="Fill-5" fill="#C7C6C6" points="0.227399336 411.485586 267.073856 411.485586 267.073856 0.409337696 0.227399336 0.409337696"></polygon>
                        <g id="Group-16">
                            <g id="Group-9">
                                <mask id="mask-2" fill="white">
                                    <use xlink:href="#path-1"></use>
                                </mask>
                                <g id="Clip-8"></g>
                                <polygon id="Fill-7" fill="#D7D4D4" mask="url(#mask-2)" points="-34.1077294 454.343092 -53.4734966 444.404192 199.859394 -48.5441277 219.222138 -38.6052272"></polygon>
                            </g>
                            <g id="Group-12" transform="translate(63.737080, 27.188482)">
                                <mask id="mask-4" fill="white">
                                    <use xlink:href="#path-3"></use>
                                </mask>
                                <g id="Clip-11"></g>
                                <polygon id="Fill-10" fill="#D7D4D4" mask="url(#mask-4)" points="50.9041726 519.601641 0.71459726 493.840555 254.045976 0.893745812 304.235552 26.6533217"></polygon>
                            </g>
                            <g id="Group-15">
                                <mask id="mask-6" fill="white">
                                    <use xlink:href="#path-5"></use>
                                </mask>
                                <g id="Clip-14"></g>
                                <polygon id="Fill-13" fill="#D7D4D4" mask="url(#mask-6)" points="57.1314381 505.092961 -23.7126669 463.598807 229.618712 -29.3495128 310.462817 12.1446416"></polygon>
                            </g>
                        </g>
                    </g>
                    <path d="M171.663855,36.1994317 L122.329741,36.4411605 C119.8087,36.4531908 117.765266,34.4155652 117.763754,31.8900573 C117.763754,29.3660599 119.807188,27.3103086 122.328229,27.2967144 L171.662343,27.0549855 C174.183384,27.0429552 176.22833,29.0805809 176.22833,31.6045783 C176.22833,34.1300861 174.184896,36.1873479 171.663855,36.1994317" id="Fill-18" fill="#4F6363"></path>
                    <path d="M189.907094,504.621022 L104.087409,504.862751 C101.566368,504.874781 99.5214224,502.837155 99.5214224,500.311647 C99.5214224,497.78765 101.563345,495.730388 104.084386,495.718304 L189.905582,495.476576 C192.426623,495.464545 194.471568,497.502171 194.471568,500.026168 C194.471568,502.551676 192.428135,504.608938 189.907094,504.621022" id="Fill-20" fill="#4F6363"></path>
                    <g id="Group-28" transform="translate(22.671233, 68.222831)" fill="#F1F1F2">
                        <path d="M27.2202913,9.96800216 L5.18234155,9.96800216 C2.43307671,9.96800216 0.203738813,7.74005713 0.203738813,4.99099954 C0.203738813,2.24194195 2.43307671,0.0139969239 5.18234155,0.0139969239 L27.2202913,0.0139969239 C29.9710676,0.0139969239 32.2004055,2.24194195 32.2004055,4.99099954 C32.2004055,7.74005713 29.9710676,9.96800216 27.2202913,9.96800216" id="Fill-22"></path>
                        <path d="M48.0731402,9.96800216 L40.5568708,9.96800216 C37.8076059,9.96800216 35.5767566,7.74005713 35.5767566,4.99099954 C35.5767566,2.24194195 37.8076059,0.0139969239 40.5568708,0.0139969239 L48.0731402,0.0139969239 C50.8239164,0.0139969239 53.0532543,2.24194195 53.0532543,4.99099954 C53.0532543,7.74005713 50.8239164,9.96800216 48.0731402,9.96800216" id="Fill-24"></path>
                        <path d="M245.704021,9.96800216 L226.357902,9.96800216 C223.607126,9.96800216 221.377788,7.74005713 221.377788,4.99099954 C221.377788,2.24194195 223.607126,0.0139969239 226.357902,0.0139969239 L245.704021,0.0139969239 C248.453285,0.0139969239 250.684135,2.24194195 250.684135,4.99099954 C250.684135,7.74005713 248.453285,9.96800216 245.704021,9.96800216" id="Fill-26"></path>
                    </g>
                </g>
                <g id="Group-36" transform="translate(389.000000, 0.000000)" fill="#F5F5EB">
                    <path d="M37.1051,15.8733 L22.0241,30.9528 C21.1076,31.8723 21.1076,33.3663 22.0241,34.2858 C22.9136,35.1738 24.4646,35.1723 25.3556,34.2858 L40.4366,19.2033 C40.8821,18.7593 41.1266,18.1683 41.1266,17.5398 C41.1266,16.9098 40.8821,16.3188 40.4366,15.8733 C39.9776,15.4143 39.3731,15.1848 38.7701,15.1848 C38.1656,15.1848 37.5641,15.4143 37.1051,15.8733" id="Fill-30"></path>
                    <path d="M4.77305,21.52395 L4.77305,2.86845 C4.77305,1.57095 3.71705,0.51345 2.41805,0.51345 C1.11755,0.51345 0.06005,1.57095 0.06005,2.86845 L0.06005,21.52395 C0.06005,22.82295 1.11755,23.88045 2.41805,23.88045 C3.71705,23.88045 4.77305,22.82295 4.77305,21.52395" id="Fill-32"></path>
                    <path d="M34.78475,56.24745 L53.44175,56.24745 C54.73925,56.24745 55.79525,55.18995 55.79525,53.89245 C55.79525,52.59195 54.73925,51.53595 53.44175,51.53595 L34.78475,51.53595 C33.48575,51.53595 32.42975,52.59195 32.42975,53.89245 C32.42975,55.18995 33.48575,56.24745 34.78475,56.24745" id="Fill-34"></path>
                </g>
                <g id="Group-43" transform="translate(106.000000, 174.000000)">
                    <g id="Group-39">
                        <mask id="mask-8" fill="white">
                            <use xlink:href="#path-7"></use>
                        </mask>
                        <g id="Clip-38"></g>
                        <path d="M211.019829,120.734942 L131.170035,120.734942 L113.617932,131.102419 L88.0763028,120.734942 L-74.9618518,120.734942 C-82.240625,120.734942 -88.1418415,114.850821 -88.1418415,107.593134 L-88.1418415,13.8884298 C-88.1418415,6.62923157 -82.240625,0.746621531 -74.9618518,0.746621531 L211.019829,0.746621531 C218.300117,0.746621531 224.199818,6.62923157 224.199818,13.8884298 L224.199818,107.593134 C224.199818,114.850821 218.300117,120.734942 211.019829,120.734942" id="Fill-37" fill="#C7C6C6" mask="url(#mask-8)"></path>
                    </g>
                    <g id="Group-42" transform="translate(94.368964, 197.950659)">
                        <mask id="mask-10" fill="white">
                            <use xlink:href="#path-9"></use>
                        </mask>
                        <g id="Clip-41"></g>
                        <path d="M70.5934918,98.0969422 L69.5796464,108.464419 L124.942574,98.0969422 L221.215451,98.0969422 C228.492708,98.0969422 242.363749,86.2697682 242.363749,79.0105699 L234.393925,13.1700653 C234.393925,5.91237819 228.492708,0.0297681525 221.215451,0.0297681525 L14.0181928,0.0297681525 C6.73941959,0.0297681525 0.838203093,5.91237819 0.838203093,13.1700653 L0.838203093,84.955134 C0.838203093,92.2128211 6.73941959,98.0969422 14.0181928,98.0969422 L70.5934918,98.0969422 Z" id="Fill-40" fill="#C7C6C6" mask="url(#mask-10)"></path>
                    </g>
                </g>
                <g id="Group-65" transform="translate(178.000000, 324.000000)">
                    <g id="Group-46">
                        <mask id="mask-12" fill="white">
                            <use xlink:href="#path-11"></use>
                        </mask>
                        <g id="Clip-45"></g>
                        <g id="Fill-44" mask="url(#mask-12)">
                            <use fill="black" fill-opacity="1" filter="url(#filter-14)" xlink:href="#path-13"></use>
                            <use fill="#A0E759" fill-rule="evenodd" xlink:href="#path-13"></use>
                        </g>
                    </g>
                    <g id="Rectangle">
                        <use fill="black" fill-opacity="1" filter="url(#filter-16)" xlink:href="#path-15"></use>
                        <use fill="#FFFFFF" fill-rule="evenodd" xlink:href="#path-15"></use>
                    </g>
                    <g id="Group-50" transform="translate(124.090565, 33.063890)">
                        <line x1="0.736068913" y1="0.957135484" x2="161.870694" y2="0.957135484" id="Fill-47" fill="#BDFF7B"></line>
                        <line x1="0.736068913" y1="0.957135484" x2="161.870694" y2="0.957135484" id="Stroke-49" stroke="#BDFF7B" stroke-width="3.822" stroke-linecap="round"></line>
                    </g>
                    <g id="Group-54" transform="translate(124.090565, 48.466019)">
                        <line x1="0.736068913" y1="0.827860194" x2="161.870694" y2="0.827860194" id="Fill-51" fill="#BDFF7B"></line>
                        <line x1="0.736068913" y1="0.827860194" x2="161.870694" y2="0.827860194" id="Stroke-53" stroke="#BDFF7B" stroke-width="3.822" stroke-linecap="round"></line>
                    </g>
                    <g id="Group-58" transform="translate(124.090565, 63.611650)">
                        <line x1="0.736068913" y1="0.956598058" x2="161.870694" y2="0.956598058" id="Fill-55" fill="#BDFF7B"></line>
                        <line x1="0.736068913" y1="0.956598058" x2="161.870694" y2="0.956598058" id="Stroke-57" stroke="#BDFF7B" stroke-width="3.822" stroke-linecap="round"></line>
                    </g>
                    <g id="Group-62" transform="translate(124.090565, 78.757282)">
                        <line x1="0.736068913" y1="1.08382136" x2="128.164973" y2="1.08382136" id="Fill-59" fill="#BDFF7B"></line>
                        <line x1="0.736068913" y1="1.08382136" x2="128.164973" y2="1.08382136" id="Stroke-61" stroke="#BDFF7B" stroke-width="3.822" stroke-linecap="round"></line>
                    </g>
                    <path d="M32.2131541,35.0712233 C16.3492346,51.2361553 16.5822828,77.2093981 32.7352424,93.0865631 C48.8897154,108.962214 74.8443164,108.728971 90.7097491,92.5640388 C106.575182,76.3991068 106.342134,50.4258641 90.1876608,34.548699 C74.0347011,18.6730485 48.0785868,18.9062913 32.2131541,35.0712233" id="Fill-63" fill="#FFFFFF"></path>
                </g>
                <g id="Group-90" transform="translate(197.000000, 342.000000)">
                    <g id="Group-68" transform="translate(0.000000, 2.500000)">
                        <mask id="mask-18" fill="white">
                            <use xlink:href="#path-17"></use>
                        </mask>
                        <g id="Clip-67"></g>
                        <path d="M70.7092091,83.1105 L64.4117727,84.2895 C49.3917909,87.102 33.9734091,87.102 18.9519182,84.2895 L12.6559909,83.1105 L16.7999545,67.284 C17.7899182,63.507 20.9514636,60.681 24.8373727,60.1035 L27.8827182,59.652 C37.0323364,58.2945 46.3328636,58.2945 55.4824818,59.652 L58.5278273,60.1035 C62.4122273,60.681 65.5752818,63.507 66.5652455,67.284 L70.7092091,83.1105 Z" id="Fill-66" fill="#E0284D" mask="url(#mask-18)"></path>
                    </g>
                    <g id="Group-71" transform="translate(0.000000, 2.500000)">
                        <mask id="mask-20" fill="white">
                            <use xlink:href="#path-19"></use>
                        </mask>
                        <g id="Clip-70"></g>
                        <path d="M27.2647455,65.8692 C27.2647455,65.8692 27.2647455,52.8657 41.6886364,52.8657 C56.1110182,52.8657 56.1110182,56.8677 56.1110182,56.8677 L58.7941818,39.8637 L22.5684545,39.8637 L27.2647455,65.8692 Z" id="Fill-69" fill="#332009" mask="url(#mask-20)"></path>
                    </g>
                    <g id="Group-74" transform="translate(0.000000, 2.500000)">
                        <mask id="mask-22" fill="white">
                            <use xlink:href="#path-21"></use>
                        </mask>
                        <g id="Clip-73"></g>
                        <path d="M48.5850309,60.17985 L48.5563582,60.20835 C44.7489218,63.98085 38.5842855,63.96735 34.7904309,60.17985 L35.8513218,51.58785 L47.5256491,51.58785 L48.5850309,60.17985 Z" id="Fill-72" fill="#FAD5A8" mask="url(#mask-22)"></path>
                    </g>
                    <g id="Group-77" transform="translate(0.000000, 2.500000)">
                        <mask id="mask-24" fill="white">
                            <use xlink:href="#path-23"></use>
                        </mask>
                        <g id="Clip-76"></g>
                        <path d="M47.1592418,48.61335 C45.51886,49.16535 43.6626782,49.47885 41.6887873,49.47885 C39.7133873,49.47885 37.8572055,49.16535 36.2168236,48.61335 L35.3204236,55.88535 C37.16906,56.59185 43.7109691,58.11885 48.2457873,57.42435 L47.1592418,48.61335 Z" id="Fill-75" fill="#FAD5A8" mask="url(#mask-24)"></path>
                    </g>
                    <g id="Group-80" transform="translate(0.000000, 2.500000)">
                        <mask id="mask-26" fill="white">
                            <use xlink:href="#path-25"></use>
                        </mask>
                        <g id="Clip-79"></g>
                        <path d="M45.7775182,54.86685 L37.5982455,54.86685 C31.8908636,54.86685 27.2639909,50.26935 27.2639909,44.59485 L27.2639909,24.67035 C27.2639909,21.02985 30.2323727,18.08085 33.8934273,18.08085 L49.4823364,18.08085 C53.1433909,18.08085 56.1117727,21.02985 56.1117727,24.67035 L56.1117727,44.59485 C56.1117727,50.26935 51.4849,54.86685 45.7775182,54.86685" id="Fill-78" fill="#FAD5A8" mask="url(#mask-26)"></path>
                    </g>
                    <g id="Group-83" transform="translate(0.000000, 2.500000)">
                        <mask id="mask-28" fill="white">
                            <use xlink:href="#path-27"></use>
                        </mask>
                        <g id="Clip-82"></g>
                        <path d="M31.6792891,43.09245 L31.6792891,43.09245 C32.8322345,33.45195 35.7583618,25.70595 45.9235982,21.11445 L46.1801436,20.87595 L39.66238,13.95045 L24.4613073,30.21195 L31.6792891,43.09245 Z" id="Fill-81" fill="#FAD5A8" mask="url(#mask-28)"></path>
                    </g>
                    <g id="Group-86" transform="translate(0.000000, 2.500000)">
                        <mask id="mask-30" fill="white">
                            <use xlink:href="#path-29"></use>
                        </mask>
                        <g id="Clip-85"></g>
                        <path d="M53.3952582,43.09245 C52.56224,47.79495 50.85244,50.83245 48.6159673,53.10795 C53.0828764,50.67195 56.1116218,45.95295 56.1116218,40.53045 L56.1116218,18.07995 C56.1116218,18.07995 52.7629491,20.31195 53.5522036,28.36845 C54.0049309,33.00345 54.0607673,36.81495 53.79064,39.99495 L53.3952582,43.09245 Z" id="Fill-84" fill="#FAD5A8" mask="url(#mask-30)"></path>
                    </g>
                    <g id="Group-89">
                        <mask id="mask-32" fill="white">
                            <use xlink:href="#path-31"></use>
                        </mask>
                        <g id="Clip-88"></g>
                        <path d="M24.7762545,70.981 L27.2647455,41.1925 L30.4957091,46.66 L30.9454182,45.0775 C28.2245273,31.132 36.3343818,23.9605 50.0399455,23.203 L53.3131636,31.702 C54.1144909,33.7885 54.7483091,35.929 55.2070727,38.104 C56.1985455,42.8005 55.776,47.683 54.1371273,52.1965 L50.3296909,62.68 C58.5436727,57.319 63.4904727,48.205 63.4904727,38.4385 L63.4904727,32.8615 C63.4904727,20.8915 53.7296727,11.191 41.6886364,11.191 C29.6476,11.191 19.8852909,20.8915 19.8852909,32.8615 L19.8852909,39.4645 C19.8852909,49.1665 21.2555455,58.819 23.9538,68.14 L24.7762545,70.981" id="Fill-87" fill="#422C10" mask="url(#mask-32)"></path>
                    </g>
                </g>
                <g id="Group-115" transform="translate(0.000000, 145.000000)">
                    <g id="Fill-91">
                        <use fill="black" fill-opacity="1" filter="url(#filter-34)" xlink:href="#path-33"></use>
                        <use fill="#FFFFFF" fill-rule="evenodd" xlink:href="#path-33"></use>
                    </g>
                    <g id="Group-96" transform="translate(123.577266, 48.224299)">
                        <line x1="0.0922996333" y1="1.13643575" x2="161.226925" y2="1.13643575" id="Fill-93" fill="#383838"></line>
                        <line x1="0.0922996333" y1="1.13643575" x2="161.226925" y2="1.13643575" id="Stroke-95" stroke="#FF6E83" stroke-width="3.822" stroke-linecap="round"></line>
                    </g>
                    <g id="Group-100" transform="translate(123.577266, 63.294393)">
                        <line x1="0.0922996333" y1="1.26377804" x2="161.226925" y2="1.26377804" id="Fill-97" fill="#383838"></line>
                        <line x1="0.0922996333" y1="1.26377804" x2="161.226925" y2="1.26377804" id="Stroke-99" stroke="#FF6E83" stroke-width="3.822" stroke-linecap="round"></line>
                    </g>
                    <g id="Group-104" transform="translate(123.577266, 78.364486)">
                        <line x1="0.0922996333" y1="1.39112033" x2="161.226925" y2="1.39112033" id="Fill-101" fill="#383838"></line>
                        <line x1="0.0922996333" y1="1.39112033" x2="161.226925" y2="1.39112033" id="Stroke-103" stroke="#FF6E83" stroke-width="3.822" stroke-linecap="round"></line>
                    </g>
                    <g id="Group-108" transform="translate(123.577266, 93.434579)">
                        <line x1="0.0922996333" y1="1.51755841" x2="38.6647925" y2="1.51755841" id="Fill-105" fill="#383838"></line>
                        <line x1="0.0922996333" y1="1.51755841" x2="38.6647925" y2="1.51755841" id="Stroke-107" stroke="#FF6E83" stroke-width="3.822" stroke-linecap="round"></line>
                    </g>
                    <g id="Group-112" transform="translate(123.577266, 33.154206)">
                        <line x1="0.0922996333" y1="1.06138668" x2="161.226925" y2="1.06138668" id="Fill-109" fill="#383838"></line>
                        <line x1="0.0922996333" y1="1.06138668" x2="161.226925" y2="1.06138668" id="Stroke-111" stroke="#FF6E83" stroke-width="3.822" stroke-linecap="round"></line>
                    </g>
                    <path d="M30.586811,33.0286717 C14.7228916,49.1129825 14.9559397,74.9566857 31.1088994,90.7546647 C47.2633723,106.551137 73.2179733,106.319057 89.0834061,90.2347465 C104.948839,74.1504357 104.714277,48.3052255 88.5613177,32.5087535 C72.4083581,16.7107745 46.4522438,16.944361 30.586811,33.0286717" id="Fill-113" fill="#FFFFFF"></path>
                </g>
                <g id="Rectangle">
                    <use fill="black" fill-opacity="1" filter="url(#filter-36)" xlink:href="#path-35"></use>
                    <use fill="#FFFFFF" fill-rule="evenodd" xlink:href="#path-35"></use>
                </g>
                <g id="Group-134" transform="translate(19.000000, 164.000000)">
                    <g id="Group-118">
                        <mask id="mask-38" fill="white">
                            <use xlink:href="#path-37"></use>
                        </mask>
                        <g id="Clip-117"></g>
                        <path d="M73.5432818,82.2592973 L66.6044818,83.5678722 C50.0542818,86.6882039 33.0664455,86.6882039 16.5147364,83.5678722 L9.57593636,82.2592973 L14.1424455,64.6917543 C15.2335182,60.4985725 18.7180091,57.3616192 22.9977909,56.7224423 L26.3540091,56.2207715 C36.4362455,54.7142482 46.6844818,54.7142482 56.7667182,56.2207715 L60.1214273,56.7224423 C64.4012091,57.3616192 67.8872091,60.4985725 68.9767727,64.6917543 L73.5432818,82.2592973 Z" id="Fill-116" fill="#00ACBF" mask="url(#mask-38)"></path>
                    </g>
                    <g id="Group-121">
                        <mask id="mask-40" fill="white">
                            <use xlink:href="#path-39"></use>
                        </mask>
                        <g id="Clip-120"></g>
                        <path d="M49.6631255,56.0466978 L49.2511436,56.3594865 C44.5503255,59.9361572 38.0114345,59.8062064 33.4569982,56.0466978 L33.4569982,47.9323243 L49.6631255,47.9323243 L49.6631255,56.0466978 Z" id="Fill-119" fill="#F2C063" mask="url(#mask-40)"></path>
                    </g>
                    <g id="Group-124">
                        <mask id="mask-42" fill="white">
                            <use xlink:href="#path-41"></use>
                        </mask>
                        <g id="Clip-123"></g>
                        <path d="M59.4773473,30.9394361 C59.4773473,33.4885885 56.9043473,36.1964017 56.1105655,31.7856278 C55.4420382,28.0805172 49.3936018,18.5412174 47.1178927,22.6800012 C43.8703291,28.582188 37.51102,21.1568563 32.6276018,21.1568563 C22.2043109,21.1568563 36.0985109,31.873269 23.6183291,33.4417457 C22.6630745,33.5611192 21.5161655,32.995984 21.5206794,32.033441 C21.5735109,20.668785 31.2150927,12.9336867 41.5599109,12.9336867 C52.4223473,12.9336867 59.4773473,20.0628514 59.4773473,30.9394361" id="Fill-122" fill="#1F1F1F" mask="url(#mask-42)"></path>
                    </g>
                    <g id="Group-127">
                        <mask id="mask-44" fill="white">
                            <use xlink:href="#path-43"></use>
                        </mask>
                        <g id="Clip-126"></g>
                        <path d="M59.4773473,34.8550369 C59.4773473,44.9594717 51.2980745,53.149398 41.2067836,53.149398 C31.1154927,53.149398 22.9347109,44.9594717 22.9347109,34.8550369 C22.9347109,24.750602 31.1154927,16.5606757 41.2067836,16.5606757 C51.2980745,16.5606757 59.4773473,24.750602 59.4773473,34.8550369" id="Fill-125" fill="#F2C063" mask="url(#mask-44)"></path>
                    </g>
                    <g id="Group-130">
                        <mask id="mask-46" fill="white">
                            <use xlink:href="#path-45"></use>
                        </mask>
                        <g id="Clip-129"></g>
                        <path d="M59.4773473,33.236242 C59.4773473,43.3406769 51.2980745,51.5306032 41.2067836,51.5306032 C31.1154927,51.5306032 22.9347109,43.3406769 22.9347109,33.236242 C22.9347109,23.1318071 31.1154927,14.9418808 41.2067836,14.9418808 C51.2980745,14.9418808 59.4773473,23.1318071 59.4773473,33.236242" id="Fill-128" fill="#FBDFAB" mask="url(#mask-46)"></path>
                    </g>
                    <g id="Group-133">
                        <mask id="mask-48" fill="white">
                            <use xlink:href="#path-47"></use>
                        </mask>
                        <g id="Clip-132"></g>
                        <path d="M41.55976,9.51764128 C28.1288509,9.51764128 19.2508691,20.7236364 21.3153055,32.2288206 C24.4104509,36.5640418 17.5637055,21.970258 29.7616873,21.970258 C35.2442145,21.970258 46.1353236,28.5342875 47.1252873,26.6409337 C51.7204691,17.8647174 55.3287055,21.0454914 57.1547055,30.0090786 C57.9922509,34.1131081 60.6844691,38.467973 61.8042145,32.2288206 C63.8686509,20.7236364 54.9906691,9.51764128 41.55976,9.51764128" id="Fill-131" fill="#33302F" mask="url(#mask-48)"></path>
                    </g>
                </g>
            </g>
        </g>
    </g>
</svg>