<svg height="469" viewBox="0 0 469 469" width="469" xmlns="http://www.w3.org/2000/svg" xmlns:xlink="http://www.w3.org/1999/xlink"><mask id="a" fill="#fff"><path d="m0 .2206746h468.778794v468.7474204h-468.778794z" fill="#fff" fill-rule="evenodd"/></mask><g fill="none" fill-rule="evenodd"><g fill="#ff5254"><path d="m215.080124 125h-55.160248c-13.234936 0-23.919876 10.710246-23.919876 23.955116v54.959888c0 12.094459 8.910661 22.30522 20.535799 23.988592v60.859131c0 13.24487 10.704572 24.237273 23.929958 24.237273h14.068486c13.235467 0 23.919877-10.992403 23.919877-24.237273v-60.858068c11.622485-1.680184 20.54588-11.893071 20.54588-23.989655v-54.959888c0-13.24487-10.694491-23.955116-23.919876-23.955116"/><path d="m187.643694 115c13.931205 0 25.356306-11.424984 25.356306-25.643955 0-13.9305361-11.425101-25.356045-25.356306-25.356045-14.218593 0-25.643694 11.4255089-25.643694 25.356045 0 14.218971 11.425101 25.643955 25.643694 25.643955"/><path d="m327.346171 130h-42.44703c-12.593367 0-22.899141 10.141438-22.899141 22.239968v51.498728c0 10.9786 8.4866 20.327971 19.466941 21.965158v51.191557c0 8.174266 4.483446 15.240805 11.152491 19.104589.480832-.460492.965981-.91621 1.440876-1.383068 27.760884-27.280448 44.939692-64.993059 44.939692-106.642135 0-20.588987-4.151019-40.155129-11.653829-57.974797"/><path d="m88.5290737 130h-41.0918425c-7.3642699 17.842762-11.4372312 37.434263-11.4372312 58.049934 0 41.703054 16.8579609 79.464541 44.1098903 106.780345.3929447.394688.7964808.779814 1.1941917 1.169721 6.3490746-3.911819 10.5920295-10.877556 10.5920295-18.91421v-51.25737c10.7826765-1.638247 19.1038885-11.000266 19.1038885-21.994157v-51.565471c0-12.11421-10.103232-22.268792-22.4709263-22.268792"/><path d="m311.222173 121c3.87486 0 7.532659-.911123 10.777827-2.524974-7.25005-13.98994-16.579372-26.7052759-27.587154-37.7416042-.247149-.2471664-.500745-.4878709-.748968-.7334218-4.127919 4.3520666-6.663878 10.2355954-6.663878 16.7238472 0 13.4320648 10.829943 24.2761528 24.222173 24.2761528"/><path d="m87.1531746 96.4007698c0-6.2629047-2.3949841-11.957373-6.3182063-16.2246349-.1472937.1462302-.2983096.2876746-.4445397.4344365-10.9555635 10.9555635-20.2329365 23.5861266-27.4258651 37.4870316 3.0979524 1.457516 6.5590873 2.275341 10.2164365 2.275341 13.2543016 0 23.9721746-10.708301 23.9721746-23.9721742" mask="url(#a)"/></g><path d="m304.059294 304.279437c-29.90008 29.617722-71.081151 48.235746-116.489604 48.235746-45.699317 0-86.870817-18.618024-116.779936-48.235746-29.6177223-29.889977-48.2261746-71.081151-48.2261746-116.489072 0-45.689746 18.6084523-86.870817 48.2261746-116.7804682 29.909119-29.6081508 71.080619-48.2261746 116.779936-48.2261746 45.408453 0 86.589524 18.6180238 116.489604 48.2261746 29.607619 29.9096512 48.225643 71.0907222 48.225643 116.7804682 0 45.407921-18.618024 86.599095-48.225643 116.489072zm156.250912 115.92542-42.590198-42.872024-3.663198-3.673301h-.281294l-42.59073-42.580095c-8.109659-8.325016-20.205818-10.504112-30.411619-6.552707l-12.93685-12.881547c29.366739-32.999096 47.011667-76.397016 47.011667-123.854818 0-51.898944-20.872095-98.7255634-54.998492-132.5610952-33.845103-34.1365-80.671722-55.0085952-132.279802-55.0085952-51.908515 0-98.725563 20.8720952-132.5701344 55.0085952-34.1269286 33.8355318-54.9995556 80.6621512-54.9995556 132.5610952 0 51.617651 20.872627 98.434167 54.9995556 132.289373 33.8445714 34.126397 80.6616194 54.998492 132.5701344 54.998492 47.453016 0 90.862635-17.647587 123.85535-47.018579l12.878889 12.936317c-3.950873 10.204207-1.773905 22.297707 6.545261 30.410024l42.590199 42.872024 3.67277 3.672238h.282357l42.589667 42.581159c11.00023 11.291627 29.326857 11.291627 40.326023 0 11.291627-11.00023 11.291627-29.326857 0-40.326556z" fill="#427fe0" mask="url(#a)"/></g></svg>