<svg height="331" viewBox="0 0 309 331" width="309" xmlns="http://www.w3.org/2000/svg" xmlns:xlink="http://www.w3.org/1999/xlink"><linearGradient id="a"><stop offset="0" stop-color="#007bb6"/><stop offset="1" stop-color="#39bee6"/></linearGradient><linearGradient id="b" x1="56.523605%" x2="59.281734%" xlink:href="#a" y1="93.955692%" y2="0%"/><linearGradient id="c" x1="61.272879%" x2="66.038965%" xlink:href="#a" y1="93.955692%" y2="0%"/><g fill="none" fill-rule="evenodd" transform="translate(-32 -51)"><path d="m171.875343 338.640783c56.806167-.076504 130.638124-44.347866 130.739481-119.148613.100801-74.800746-27.315633-229.9105711-133.710381-195.643176-106.3947488 34.2673951-99.6016642 104.69063-99.7027433 179.491377-.1010791 74.800746 45.8674773 135.376772 102.6736433 135.300412z" fill="url(#b)" opacity=".318105" transform="matrix(.27563736 -.9612617 .9612617 .27563736 -37.237667 308.201307)"/><path d="m189.001349 331.834775c65.829623.144842 151.234574-38.641197 151.089505-104.640645-.145438-65.999448-32.461104-202.9619825-155.636574-173.1247796-123.175471 29.8372028-115.0562639 92.0000016-114.9110106 157.9994496.1452534 65.999449 53.6284576 119.62032 119.4580796 119.765975z" fill="url(#c)" transform="matrix(.8660254 .5 -.5 .8660254 122.857893 -76.799565)"/><path d="m269.300813 198.332205v48.326076h-27.846399v-45.111939c0-11.342035-4.015072-19.050496-14.090912-19.050496-7.705582 0-12.25109 5.218906-14.280218 10.24149-.730606 1.808722-.952504 4.341752-.952504 6.842244v47.072959h-27.818967s.373451-76.375883 0-84.285859h27.824671v11.946583c-.037753.09816-.118961.179641-.156985.288739h.156985v-.288739c3.717398-5.741699 10.302898-13.924282 25.091825-13.924282 18.355042 0 32.072504 12.045016 32.072504 37.943224zm-114.117897-76.604742c-9.518244 0-15.752022 6.286639-15.752022 14.578047 0 8.068017 6.049905 14.567109 15.394868 14.567109h.167849c9.729278 0 15.757454-6.499092 15.757454-14.567109-.189306-8.291408-6.027905-14.578047-15.568149-14.578047zm-14.090641 124.930544h27.830103v-84.296522h-27.830103z" fill="#fff" fill-rule="nonzero"/><ellipse cx="194.296264" cy="370.062857" fill="#000" opacity=".05" rx="116.214963" ry="11.287176"/></g></svg>