<svg height="361" viewBox="0 0 526 361" width="526" xmlns="http://www.w3.org/2000/svg"><g fill="none"><g fill="#ff5254" transform="translate(183 116)"><ellipse cx="80.449273" cy="68.127972" rx="25.340647" ry="25.37742" transform="matrix(.0496479 -.99876678 .99876678 .0496479 8.41118 145.095623)"/><path d="m80.5 0c-44.0066667 0-79.88666667 35.7511962-79.88666667 79.7703349 0 43.9425841 35.80333337 79.7703351 79.88666667 79.7703351 44.006667 0 79.886667-35.751196 79.886667-79.7703351-.076667-44.0191387-35.88-79.7703349-79.886667-79.7703349zm41.936667 125.397129v-3.827751c0-13.167464-10.733334-23.8851675-23.9200003-23.8851675h-36.0333334c-13.1866666 0-23.92 10.7177035-23.92 23.8851675v3.827751c-12.42-11.330143-20.1633333-27.6363634-20.1633333-45.7033491 0-34.2200957 27.83-62.0095694 62.1-62.0095694s62.1 27.7894737 62.1 62.0095694c0 18.0669857-7.82 34.3732061-20.163333 45.7033491z"/></g><g fill="#427fe0"><g transform="translate(356 100)"><path d="m44.4226087 26.6315789c-6.5782609 0-11.8408696 5.3263158-11.8408696 11.8105264 0 6.5614035 5.34 11.8105263 11.8408696 11.8105263 6.5782609 0 11.8408696-5.3263158 11.8408696-11.8105263 0-6.5614035-5.34-11.8105264-11.8408696-11.8105264z"/><path d="m44.4226087 0c-24.2234783 0-43.95826087 19.6842105-43.95826087 43.845614s19.73478257 43.8456141 43.95826087 43.8456141 43.9582609-19.6842106 43.9582609-43.8456141-19.8121739-43.845614-43.9582609-43.845614zm19.58 70.554386v-7.1789474c0-6.1754386-5.0304348-11.1157895-11.1443478-11.1157895h-16.8713044c-6.1913043 0-11.1443478 5.0175439-11.1443478 11.1157895v7.1789474c-8.2034783-6.0210527-13.5434783-15.7473685-13.5434783-26.708772 0-18.2947368 14.8591305-33.1157894 33.2008696-33.1157894s33.2008696 14.8210526 33.2008696 33.1157894c-.1547826 10.9614035-5.4947826 20.6877193-13.6982609 26.708772z"/></g><g transform="translate(334 257)"><path d="m52.8088235 30.2823529c-8.1838235 0-14.8235294 6.5764706-14.8235294 14.682353 0 8.1058823 6.6397059 14.6823529 14.8235294 14.6823529 8.1838236 0 14.8235294-6.5764706 14.8235294-14.6823529 0-8.1058824-6.6397058-14.682353-14.8235294-14.682353z"/><path d="m52.8088235 0c-28.7977941 0-52.19117644 23.1705882-52.19117644 51.6941176 0 28.5235295 23.39338234 51.6941174 52.19117644 51.6941174s52.1911765-23.1705879 52.1911765-51.6941174c0-28.5235294-23.3933824-51.6941176-52.1911765-51.6941176zm24.4742647 84.8058824v-8.8705883c0-7.6470588-6.2536764-13.8411765-13.9742647-13.8411765h-21.0772059c-7.7205882 0-13.9742647 6.1941177-13.9742647 13.8411765v8.8705883c-10.2683823-7.4941177-16.9852941-19.5-16.9852941-33.1117648 0-22.7117647 18.5294118-41.0647058 41.4595588-41.0647058 22.9301471 0 41.460225 18.3529411 41.460225 41.0647058.0765398 13.6117648-6.5631661 25.6176471-16.9087544 33.1117648z"/></g><g transform="translate(454 179)"><path d="m36.1531915 23.2085106c-4.9021277 0-8.8851064 3.9829788-8.8851064 8.8851064 0 4.9021277 3.9829787 8.8851064 8.8851064 8.8851064 4.9021276 0 8.8851064-3.9829787 8.8851064-8.8851064 0-4.9021276-3.9829788-8.8851064-8.8851064-8.8851064z"/><path d="m36.1531915.6893617c-19.5319149 0-35.4638298 15.9319149-35.4638298 35.4638298s15.9319149 35.4638298 35.4638298 35.4638298 35.4638298-15.9319149 35.4638298-35.4638298-15.9319149-35.4638298-35.4638298-35.4638298zm14.6297872 55.4553192v-5.3617022c0-4.5957447-3.7531915-8.3489361-8.3489361-8.3489361h-12.5617022c-4.5957447 0-8.3489361 3.7531914-8.3489361 8.3489361v5.3617022c-6.1276596-4.519149-10.1106383-11.7957447-10.1106383-19.9914894 0-13.7106383 11.1063829-24.8170213 24.8170212-24.8170213s24.8170213 11.106383 24.8170213 24.8170213c-.0765957 8.1957447-4.0595745 15.4723404-10.2638298 19.9914894z"/></g><g transform="translate(98 25)"><path d="m54.8450704 32.013986c-8.6760563 0-15.6478873 6.9363637-15.6478873 15.3972028 0 8.5370629 7.0492958 15.3972028 15.6478873 15.3972028 8.6760564 0 15.6478873-6.9363636 15.6478873-15.3972028.0774648-8.4608391-6.9718309-15.3972028-15.6478873-15.3972028z"/><path d="m54.8450704.68601399c-30.1338028 0-54.69014082 24.08671331-54.69014082 53.81398601 0 29.651049 24.47887322 53.813986 54.69014082 53.813986s54.6901406-24.0867133 54.6901406-53.813986c0-29.651049-24.5563378-53.81398601-54.6901406-53.81398601zm25.9507042 88.64825171v-9.2993007c0-8.0034965-6.584507-14.5587412-14.7957746-14.5587412h-22.3098592c-8.1338028 0-14.7957746 6.479021-14.7957746 14.5587412v9.2993007c-10.8450704-7.8510489-17.971831-20.5041958-17.971831-34.8342657 0-23.858042 19.6760563-43.2188811 43.9225352-43.2188811s43.9225352 19.3608391 43.9225352 43.2188811c0 14.2538462-7.0492957 26.906993-17.971831 34.8342657z"/></g><g transform="translate(44 164)"><path d="m49.7709924 29.4656489c-7.7099237 0-13.8931298 6.2595419-13.8931298 13.8931297 0 7.7099237 6.259542 13.8931298 13.8931298 13.8931298 7.7099236 0 13.8931297-6.259542 13.8931297-13.8931298s-6.1832061-13.8931297-13.8931297-13.8931297z"/><path d="m49.7709924.15267176c-27.3282443 0-49.61832064 22.21374044-49.61832064 49.61832064 0 27.4045801 22.21374044 49.6183206 49.61832064 49.6183206 27.4045801 0 49.6183206-22.2137405 49.6183206-49.6183206 0-27.4045802-22.2900764-49.61832064-49.6183206-49.61832064zm23.0534351 80.99236644v-8.3969466c0-7.2519084-5.8778626-13.129771-13.129771-13.129771h-19.7709924c-7.2519084 0-13.129771 5.8778626-13.129771 13.129771v8.3969466c-9.6946565-7.0992367-15.9541984-18.5496184-15.9541984-31.4503817 0-21.5267176 17.480916-39.0076336 39.0076335-39.0076336 21.5267176 0 39.0076336 17.480916 39.0076336 39.0076336-.1526717 12.9770992-6.4122137 24.351145-16.0305343 31.4503817z"/></g><g transform="translate(127 276)"><circle cx="38.752624" cy="34.274096" r="9.884632" transform="matrix(.97295088 -.23101209 .23101209 .97295088 -6.869506 9.879409)"/><path d="m38.7683168.30891089c-21.2376237 0-38.53663363 17.29900991-38.53663363 38.53663371 0 21.2376237 17.29900993 38.5366336 38.53663363 38.5366336 21.2376238 0 38.5366337-17.2990099 38.5366337-38.5366336 0-21.3148515-17.2990099-38.53663371-38.5366337-38.53663371zm16.449505 60.85544551v-6.0237623c0-5.1742575-4.170297-9.3445545-9.3445545-9.3445545h-14.1326732c-5.1742575 0-9.3445545 4.170297-9.3445545 9.3445545v6.0237623c-6.8732673-5.0198019-11.3524752-13.2059406-11.3524752-22.3960396 0-15.3683168 12.4336633-27.8019802 27.8019802-27.8019802 15.3683168 0 27.8019802 12.4336634 27.8019802 27.8019802-.0772278 9.190099-4.5564357 17.3762377-11.429703 22.3960396z"/></g><g transform="translate(0 82)"><path d="m35.7677419 22.9795699c-4.8774193 0-8.8258064 3.8935484-8.8258064 8.7032258s3.9483871 8.7032258 8.8258064 8.7032258c4.8774194 0 8.8258065-3.8935484 8.8258065-8.7032258s-3.9483871-8.7032258-8.8258065-8.7032258z"/><path d="m35.7677419.61075269c-19.5870967 0-35.53548383 15.72688171-35.53548383 35.04193551 0 19.3150537 15.94838713 35.0419355 35.53548383 35.0419355 19.5870968 0 35.5354839-15.7268818 35.5354839-35.0419355 0-19.3150538-15.9483871-35.04193551-35.5354839-35.04193551zm14.6322581 54.73870971v-5.267742c0-4.5806451-3.716129-8.2451613-8.3612903-8.2451613h-12.6193549c-4.6451613 0-8.3612903 3.6645162-8.3612903 8.2451613v5.267742c-6.116129-4.427957-10.1419355-11.6043011-10.1419355-19.6967742 0-13.5129033 11.0709678-24.4301076 24.7741936-24.4301076s24.7741935 10.9172043 24.7741935 24.4301076c.0774194 8.0924731-3.8709677 15.2688172-10.0645161 19.6967742z"/></g><g transform="translate(439 37)"><circle cx="31.200392" cy="27.922545" r="7.052213" transform="matrix(.99194042 -.12670515 .12670515 .99194042 -3.286468 4.178294)"/><path d="m31.2325.62c-16.8175 0-30.535 13.7175-30.535 30.535s13.7175 30.535 30.535 30.535 30.535-13.7175 30.535-30.535-13.64-30.535-30.535-30.535zm11.7025 46.4225v-4.2625c0-3.6425-2.945-6.665-6.665-6.665h-9.9975c-3.6425 0-6.665 2.945-6.665 6.665v4.2625c-4.8825-3.565-8.06-9.3775-8.06-15.8875 0-10.9275 8.835-19.7625 19.7625-19.7625s19.7625 8.835 19.7625 19.7625c-.0775 6.51-3.255 12.3225-8.1375 15.8875z"/></g><g transform="translate(28 296)"><ellipse cx="30.7675" cy="27.334177" rx="7.0525" ry="7.026582"/><path d="m30.7675.15443038c-16.8175 0-30.535 13.66708862-30.535 30.42278482s13.7175 30.4227848 30.535 30.4227848 30.535-13.6670886 30.535-30.4227848-13.7175-30.42278482-30.535-30.42278482zm11.7025 46.25189872v-4.2468354c0-3.629114-2.945-6.6405064-6.665-6.6405064h-9.9975c-3.6425 0-6.665 2.9341773-6.665 6.6405064v4.2468354c-4.8825-3.5518987-8.06-9.343038-8.06-15.8291139 0-10.8873418 8.835-19.6898734 19.7625-19.6898734s19.7625 8.8025316 19.7625 19.6898734c-.0775 6.4860759-3.255 12.2772152-8.1375 15.8291139z"/></g><g transform="translate(288)"><path d="m35.6903226 23.055914c-4.8774194 0-8.8258065 3.8935484-8.8258065 8.7032258s3.9483871 8.7032258 8.8258065 8.7032258c4.8774193 0 8.8258064-3.8935484 8.8258064-8.7032258.0774194-4.8096774-3.9483871-8.7032258-8.8258064-8.7032258z"/><path d="m35.6903226.68709677c-19.5870968 0-35.53548389 15.72688173-35.53548389 35.04193553 0 19.3150537 15.94838709 35.0419354 35.53548389 35.0419354s35.5357645-15.7268817 35.5357645-35.0419354c.0771387-19.3150538-15.8712484-35.04193553-35.5357645-35.04193553zm14.7096774 54.73870973v-5.267742c0-4.5806451-3.716129-8.2451613-8.3612903-8.2451613h-12.6193549c-4.6451613 0-8.3612903 3.6645162-8.3612903 8.2451613v5.267742c-6.116129-4.427957-10.1419355-11.6043011-10.1419355-19.6967742 0-13.5129033 11.0709678-24.4301076 24.7741936-24.4301076s24.7741935 10.9172043 24.7741935 24.4301076c.0774194 8.0924731-3.9483871 15.2688172-10.0645161 19.6967742z"/></g><path d="m191.182893 112.23877 5.91774.003545.020855 34.814815-5.91774-.003545z" transform="matrix(.70660659 -.70760661 .70760661 .70660659 -34.776774 175.421228)"/><path d="m94.5234192 147.840552 52.6243808.024864.002795 5.919802-52.6243808-.024865z" transform="matrix(.43871323 -.89862712 .89862712 .43871323 -67.700335 193.236689)"/><path d="m137.169324 207.298073 48.828868.00712.000863 5.914105-48.828868-.00712z" transform="matrix(.99244315 -.12270533 .12270533 .99244315 -24.578795 21.416136)"/><path d="m333.119329 160.746153 30.601081.012325.002385 5.915064-30.601081-.012325z" transform="matrix(.93271789 -.36060691 .36060691 .93271789 -35.592397 136.657786)"/><path d="m270.460907 91.8868143 59.077696.0255821.002561 5.920353-59.077696-.0255822z" transform="matrix(.39289322 -.9195841 .9195841 .39289322 94.901117 333.4662)"/><path d="m395.312756 4.06780334 5.91466.00160319.025838 95.42778357-5.914659-.0016032z" transform="matrix(.23249918 -.97259659 .97259659 .23249918 255.319051 427.111802)"/><path d="m430.39801 123-5.39801-2.533049c1.850746-3.761194 22.363184-28.554371 26.450249-33.466951l4.549751 3.761194c-11.567164 13.970149-24.522388 30.012793-25.60199 32.238806z"/><path d="m333.31455 242.36585 5.917696.00354.025788 43.117478-5.917696-.00354z" transform="matrix(.68738953 -.72628895 .72628895 .68738953 -86.560181 326.747161)"/><path d="m187.839024 292-4.839024-3.487705c1.717073-2.19877 26.22439-32.223361 27.317073-33.512295l4.682927 3.639344c-.234146.379099-25.443902 31.237705-27.160976 33.360656z"/><path d="m396.904024 149.700929 5.914613.000774.015414 117.969223-5.914613-.000774z" transform="matrix(.10979494 -.99395426 .99395426 .10979494 148.541172 583.224801)"/><path d="m53.7278463 144.545421 5.9191318.003311.0183177 32.733391-5.9191318-.00331z" transform="matrix(.82379092 -.56689375 .56689375 .82379092 -81.23056 60.495399)"/><path d="m47.5846378 275.281836 46.1675793.017757.002275 5.920418-46.1675793-.017757z" transform="matrix(.34140581 -.93991599 .93991599 .34140581 -214.989927 249.677894)"/><path d="m127.681831 247.666543 5.918477.00349.02624 44.49449-5.918477-.003489z" transform="matrix(.76679316 -.64189427 .64189427 .76679316 -142.787783 146.812326)"/></g></g></svg>