<svg height="397" viewBox="0 0 295 397" width="295" xmlns="http://www.w3.org/2000/svg" xmlns:xlink="http://www.w3.org/1999/xlink"><linearGradient id="a" x1="61.724803%" x2="37.627034%" y1="94.809674%" y2="15.216714%"><stop offset="0" stop-color="#da3e3f"/><stop offset="1" stop-color="#ff5254"/></linearGradient><filter id="b" height="480.8%" width="143.6%" x="-21.8%" y="-190.4%"><feGaussianBlur in="SourceGraphic" stdDeviation="16.5"/></filter><g fill="none" fill-rule="evenodd" transform="translate(34)"><path d="m113.5 0c62.132034 0 112.5 50.6093317 112.5 113.039106 0 41.61985-37.5 104.606814-112.5 188.960894-75-84.35408-112.5-147.341044-112.5-188.960894 0-62.4297743 50.3679656-113.039106 112.5-113.039106zm0 62.6489362c-27.1965844 0-49.2437722 22.1154663-49.2437722 49.3962768 0 27.28081 22.0471878 49.396276 49.2437722 49.396276 27.196584 0 49.243772-22.115466 49.243772-49.396276 0-27.2808105-22.047188-49.3962768-49.243772-49.3962768z" fill="url(#a)"/><g fill="#000"><path d="m113 302c75.333333-84.264329 113-147.184276 113-188.759843 0-29.6501526-11.436031-56.6311954-30.140842-76.778872-8.898973-9.5854278 27.738755 28.2722896 7.241126 105.149686-7.461565 27.984978-37.494993 81.447987-90.100284 160.389029z" fill-opacity=".05"/><ellipse cx="113.5" cy="343" filter="url(#b)" opacity=".08" rx="113.5" ry="13"/></g></g></svg>