<svg height="355" viewBox="0 0 312 355" width="312" xmlns="http://www.w3.org/2000/svg" xmlns:xlink="http://www.w3.org/1999/xlink"><linearGradient id="a" x1="46.706%" x2="50.824924%" y1="-48.596354%" y2="29.735677%"><stop offset="0" stop-color="#80c3f3"/><stop offset="1" stop-color="#4a90e2"/></linearGradient><g fill="none" fill-rule="evenodd"><circle cx="156" cy="156" fill="url(#a)" r="156"/><ellipse cx="156.5" cy="342.5" fill="#000" opacity=".05" rx="142.5" ry="12.5"/><g fill="#fff" fill-rule="nonzero"><path d="m62.0218357 214.838807c.6013299 0 1.148717-.100025 1.6421612-.300075.4934442-.200051.9152594-.476436 1.2654457-.829156.3501862-.35272.6216689-.767736.8144482-1.245049.1927793-.477312.289169-.993231.289169-1.547756 0-.551015-.0963897-1.065179-.289169-1.542492-.1927793-.477312-.464262-.891451-.8144482-1.242416-.3501863-.350966-.7720015-.627351-1.2654457-.829156s-1.0408313-.302707-1.6421612-.302707c-.6013298 0-1.1496012.100025-1.6448141.300075-.4952128.20005-.9187966.475558-1.2707515.826523-.3519548.350965-.6243219.765104-.8171012 1.242417-.1927793.477312-.2891689.993231-.2891689 1.547756s.0963896 1.070444.2891689 1.547756c.1927793.477313.4651464.892329.8171012 1.245049.3519549.35272.7755387.629105 1.2707515.829156.4952129.20005 1.0434843.300075 1.6448141.300075zm0-1.474054c-.346649 0-.6552727-.055277-.9258711-.165831-.2705985-.110554-.4987501-.271121-.6844549-.4817s-.3280785-.467661-.4271211-.771246c-.0990426-.303584-.1485638-.646653-.1485638-1.029205 0-.379042.0495212-.720356.1485638-1.023941s.2414163-.560667.4271211-.771246.4138564-.372023.6844549-.484332c.2705984-.112308.5792221-.168463.9258711-.168463.3431118 0 .6490826.056155.9179124.168463.2688298.112309.4960972.273753.681802.484332s.3280785.467661.4271211.771246c.0990425.303585.1485638.644899.1485638 1.023941 0 .382552-.0495213.725621-.1485638 1.029205-.0990426.303585-.2414163.560667-.4271211.771246s-.4129722.371146-.681802.4817-.5748006.165831-.9179124.165831zm8.4999745 1.389822v-2.984959h2.6423143v-1.374028h-2.6423143v-1.942592h3.1728995v-1.368764h-4.9768891v7.670343zm13.4238049.084232c.6013299 0 1.1487169-.100025 1.6421611-.300075.4934443-.200051.9152595-.476436 1.2654457-.829156s.621669-.767736.8144483-1.245049c.1927793-.477312.2891689-.993231.2891689-1.547756 0-.551015-.0963896-1.065179-.2891689-1.542492-.1927793-.477312-.4642621-.891451-.8144483-1.242416-.3501862-.350966-.7720014-.627351-1.2654457-.829156-.4934442-.201805-1.0408312-.302707-1.6421611-.302707s-1.1496013.100025-1.6448141.300075c-.4952129.20005-.9187967.475558-1.2707515.826523-.3519549.350965-.6243219.765104-.8171012 1.242417-.1927793.477312-.289169.993231-.289169 1.547756s.0963897 1.070444.289169 1.547756c.1927793.477313.4651463.892329.8171012 1.245049.3519548.35272.7755386.629105 1.2707515.829156.4952128.20005 1.0434842.300075 1.6448141.300075zm0-1.474054c-.346649 0-.6552727-.055277-.9258712-.165831-.2705984-.110554-.4987501-.271121-.6844549-.4817s-.3280785-.467661-.4271211-.771246c-.0990425-.303584-.1485638-.646653-.1485638-1.029205 0-.379042.0495213-.720356.1485638-1.023941.0990426-.303585.2414163-.560667.4271211-.771246s.4138565-.372023.6844549-.484332c.2705985-.112308.5792222-.168463.9258712-.168463.3431117 0 .6490825.056155.9179124.168463.2688298.112309.4960971.273753.6818019.484332s.3280785.467661.4271211.771246.1485638.644899.1485638 1.023941c0 .382552-.0495212.725621-.1485638 1.029205-.0990426.303585-.2414163.560667-.4271211.771246s-.4129721.371146-.6818019.4817c-.2688299.110554-.5748007.165831-.9179124.165831zm8.2771287 1.389822v-4.111557c0-.112309-.0035372-.232514-.0106117-.360616-.0070745-.128103-.0159176-.258837-.0265293-.392204l3.6451203 4.569566c.0884308.112309.1803989.189522.2759043.231637.0955053.042116.2122341.063174.3501862.063174h.9338299v-7.670343h-1.5811438v4.058912c0 .122837.0035372.253572.0106117.392203.0070744.138631.0176862.28165.0318351.429055l-3.6716495-4.606418c-.0495213-.059664-.0937367-.107044-.1326463-.14214-.0389096-.035097-.0795878-.062297-.1220346-.0816s-.0901995-.032464-.143258-.039483c-.0530585-.00702-.1184974-.010529-.1963165-.010529h-.9444417v7.670343zm12.9250552 0v-1.421409h-2.86516v-6.248934h-1.793378v7.670343zm4.637314 0v-7.670343h-1.80399v7.670343zm4.838937 0v-4.111557c0-.112309-.003537-.232514-.010612-.360616-.007074-.128103-.015917-.258837-.026529-.392204l3.64512 4.569566c.088431.112309.180399.189522.275904.231637.095506.042116.212234.063174.350187.063174h.93383v-7.670343h-1.581144v4.058912c0 .122837.003537.253572.010611.392203.007075.138631.017687.28165.031836.429055l-3.67165-4.606418c-.049521-.059664-.093737-.107044-.132646-.14214-.03891-.035097-.079588-.062297-.122035-.0816s-.090199-.032464-.143258-.039483c-.053058-.00702-.118497-.010529-.196316-.010529h-.944442v7.670343zm13.243406 0v-1.368764h-3.1729v-1.826774h2.430081v-1.316119h-2.430081v-1.789922h3.1729v-1.368764h-4.976889v7.670343zm11.694097 0v-1.368764h-3.172899v-1.826774h2.43008v-1.316119h-2.43008v-1.789922h3.172899v-1.368764h-4.976889v7.670343zm3.936942 0c.106117 0 .194548-.028955.265292-.086864.070745-.057909.127341-.123715.169788-.197418l1.443191-2.484833c.035373-.056154.067208-.122838.095506-.20005l1.549309 2.684883c.042446.077213.099926.143896.17244.20005.072513.056155.167134.084232.283863.084232h1.793378l-2.477833-4.022061 2.424774-3.648282h-1.719096c-.152101 0-.272367.073702-.360798.221108l-1.347686 2.295312c-.028298.045625-.053943.089496-.076935.131612s-.043331.085986-.061017.131612l-1.538697-2.584859c-.042447-.070193-.091084-.120205-.145911-.150037s-.140605-.044748-.257334-.044748h-1.793378l2.392939 3.72725-2.488444 3.943093zm10.081118 0v-2.5638h.93383c.534123 0 .996616-.064052 1.38748-.192154.390865-.128102.713638-.306217.968318-.534344.254681-.228128.443923-.50188.567727-.821259.123803-.319378.185704-.670343.185704-1.052895 0-.354475-.060133-.684382-.180399-.989722s-.306855-.570318-.559767-.794936-.574801-.400978-.965665-.52908-.858664-.192153-1.403398-.192153h-2.727208v7.670343zm.93383-3.906242h-.93383v-2.432189h.93383c.226383 0 .421815.028078.586297.084232.164481.056154.300665.135999.40855.239534.107886.103534.188358.22725.241417.371145.053058.143896.079587.303585.079587.479068 0 .39659-.102579.70544-.307739.926548s-.541197.331662-1.008112.331662zm10.845161 3.906242v-1.368764h-3.172899v-1.826774h2.43008v-1.316119h-2.43008v-1.789922h3.172899v-1.368764h-4.976889v7.670343zm4.637315 0v-2.837553h.456303c.137952 0 .244953.021058.321004.063174.07605.042115.142374.112308.198969.210579l1.284016 2.226874c.130878.224617.346649.336926.647314.336926h1.623591l-1.644814-2.66909c-.077819-.126347-.168903-.233392-.273251-.321133-.104349-.087741-.216656-.161444-.336922-.221108.251144-.094761.473105-.215844.665884-.363249.19278-.147405.355493-.314991.488139-.502758.132646-.187766.232573-.392203.29978-.613311.067208-.221108.100812-.456255.100812-.70544 0-.326398-.056596-.628228-.169788-.90549-.113191-.277263-.294474-.517674-.543849-.721234-.249375-.203559-.571264-.362371-.965665-.476435-.394402-.114064-.871045-.171095-1.429928-.171095h-2.514973v7.670343zm.721595-4.064176h-.721595v-2.274255h.721595c.463378 0 .805606.094761 1.026683.284282s.331616.452745.331616.789672c0 .168463-.024761.32552-.074282.47117-.049522.145651-.129109.272876-.238764.381675-.109654.108799-.250259.193908-.421815.255327s-.379368.092129-.623438.092129zm8.330188 4.064176v-7.670343h-1.80399v7.670343zm8.234682 0v-1.368764h-3.1729v-1.826774h2.43008v-1.316119h-2.43008v-1.789922h3.1729v-1.368764h-4.976889v7.670343zm4.42508 0v-4.111557c0-.112309-.003537-.232514-.010612-.360616-.007074-.128103-.015917-.258837-.026529-.392204l3.64512 4.569566c.088431.112309.180399.189522.275904.231637.095506.042116.212235.063174.350187.063174h.93383v-7.670343h-1.581144v4.058912c0 .122837.003537.253572.010611.392203.007075.138631.017687.28165.031836.429055l-3.67165-4.606418c-.049521-.059664-.093737-.107044-.132646-.14214-.03891-.035097-.079588-.062297-.122035-.0816s-.090199-.032464-.143258-.039483c-.053058-.00702-.118497-.010529-.196316-.010529h-.944442v7.670343zm11.58798.084232c.64024 0 1.194701-.102658 1.663385-.307972.468683-.205315.858663-.509777 1.16994-.913387l-.710984-.742291c-.03891-.038606-.079588-.065806-.122035-.0816-.042447-.015793-.084893-.02369-.12734-.02369-.053059 0-.104349.011407-.15387.034219-.049521.022813-.095505.051768-.137952.086864-.106117.091251-.21135.167586-.315698.229005-.104349.061419-.214003.111431-.328963.150037-.11496.038607-.239648.065806-.374063.0816-.134414.015793-.282978.02369-.445691.02369-.282979 0-.548271-.0544-.795878-.163199-.247606-.108799-.464262-.267611-.649967-.476435s-.3325-.465906-.440385-.771246c-.107886-.30534-.161829-.65455-.161829-1.047631 0-.375533.053943-.714214.161829-1.016044.107885-.30183.258218-.558912.450997-.771246s.423584-.375533.692414-.489596c.268829-.114064.565957-.171096.891383-.171096.187473 0 .35107.014039.490791.042116s.261755.062296.366104.102657c.104348.040361.194548.084232.270598.131612.076051.047381.145911.091251.209581.131612.063671.040361.123804.07458.180399.102657.056596.028078.116729.042116.180399.042116.095506 0 .169788-.02018.222846-.060541.053059-.040361.099043-.085109.137952-.134244l.604867-.805465c-.145026-.150915-.311276-.288669-.49875-.413262-.187473-.124593-.392633-.231637-.615479-.321133-.222845-.089496-.462493-.159689-.718942-.210579-.25645-.05089-.529701-.076335-.819755-.076335-.597792 0-1.144295.096515-1.639508.289546s-.920565.463274-1.276057.81073c-.355492.347455-.632281.760717-.830366 1.239784-.198085.479068-.297128 1.004638-.297128 1.576711 0 .561544.086663 1.08185.259987 1.560918.173325.479067.421815.893206.745472 1.242416.323657.349211.718059.622963 1.183205.821259.465147.198295.99131.297443 1.578491.297443zm10.452528-.084232v-1.368764h-3.172899v-1.826774h2.43008v-1.316119h-2.43008v-1.789922h3.172899v-1.368764h-4.976889v7.670343zm4.934442.084232c.438617 0 .830366-.065806 1.175246-.197418.344881-.131612.634934-.312359.87016-.542241.235226-.229883.414741-.499248.538544-.808098.123803-.308849.185705-.640511.185705-.994986 0-.319378-.049521-.592254-.148564-.818626-.099043-.226373-.229036-.418526-.38998-.57646-.160944-.157935-.34488-.287792-.551809-.389572-.206928-.10178-.418278-.190398-.634049-.265856-.215771-.075457-.427121-.143895-.634049-.205314-.206929-.061419-.390865-.12898-.551809-.202683-.160944-.073702-.290937-.161444-.38998-.263224-.099043-.101779-.148564-.229882-.148564-.384306 0-.242166.082241-.43432.246722-.576461.164482-.142141.414741-.213211.750778-.213211.194548 0 .367873.025445.519974.076335s.2874.107922.405897.171095c.118498.063174.224615.120206.318352.171096.093736.05089.181283.076335.262639.076335.091968 0 .167135-.021058.225499-.063174s.114076-.105289.167134-.189521l.445692-.826523c-.137952-.126347-.294475-.239534-.469568-.339559s-.363451-.186011-.565073-.257959c-.201623-.071948-.414741-.126348-.639355-.163199-.224615-.036851-.455419-.055277-.692414-.055277-.424468 0-.801184.064051-1.130147.192153-.328962.128103-.606635.299198-.833018.513287s-.397939.458009-.514668.731762-.175093.554525-.175093.842317c0 .357984.049521.658937.148564.902858.099042.24392.229036.44748.38998.610679s.343996.294811.549156.394836c.205159.100025.415625.184256.631396.252695.215771.068438.426237.130734.631396.186889.20516.056154.388212.121083.549156.194785.160944.073703.290938.166709.38998.279018.099043.112308.148564.257959.148564.436951 0 .308849-.0902.534345-.270598.676485-.180399.142141-.433312.213212-.758737.213212-.240532 0-.449229-.033342-.626091-.100025-.176862-.066684-.333384-.140386-.469568-.221108-.136183-.080722-.258218-.154425-.366103-.221108-.107886-.066684-.214887-.100025-.321005-.100025-.081356 0-.157406.019303-.228151.057909s-.125572.089496-.164482.15267l-.530585.831787c.152101.150915.330732.287792.535891.410629.20516.122838.424468.229005.657926.318501.233457.089496.474874.158812.724249.207947s.494328.073703.73486.073703zm12.447528-.084232c.463378 0 .875466-.058787 1.236264-.17636s.664116-.280772.909953-.489596c.245838-.208825.432427-.453623.559768-.734395.12734-.280772.19101-.584357.19101-.910754 0-.431688-.122034-.785285-.366103-1.060793-.24407-.275507-.620785-.47468-1.130147-.597518.233458-.084231.433311-.183379.599561-.297443.16625-.114063.302434-.241288.408551-.381674s.183936-.290424.233458-.450113c.049521-.159689.074281-.32552.074281-.497493 0-.315869-.053942-.601906-.161828-.85811-.107886-.256205-.280326-.473803-.517321-.652795-.236994-.178993-.542965-.317624-.917912-.415894s-.829481-.147405-1.363604-.147405h-2.843937v7.670343zm-.360798-4.443219h-.93383v-1.895212h1.050559c.201622 0 .375831.015794.522626.047381.146796.031587.267946.084231.363451.157934.095506.073703.16625.171096.212234.292179.045984.121082.068976.272875.068976.455377 0 .186011-.029182.340436-.087546.463274s-.143258.219353-.254681.289546-.246722.119328-.405898.147405c-.159175.028078-.337806.042116-.535891.042116zm.328963 3.100777h-1.262793v-1.911005h1.252181c.226383 0 .413857.021058.562421.063174s.267945.10178.358145.178992c.090199.077212.153869.171973.19101.284282s.055712.238656.055712.379042c0 .122838-.015918.243921-.047753.363249s-.090199.226373-.175093.321133c-.084894.094761-.202507.171973-.352839.231637-.150333.059664-.343996.089496-.580991.089496zm10.707209 1.342442v-1.368764h-3.172899v-1.826774h2.43008v-1.316119h-2.43008v-1.789922h3.172899v-1.368764h-4.976889v7.670343zm6.345799.084232c.314814 0 .609288-.015794.883424-.047381.274136-.031586.532354-.080722.774654-.147405.242301-.066683.470453-.151792.684455-.255327.214003-.103535.420047-.22725.618132-.371146v-3.237653h-2.748431v.979192c0 .091251.031835.166709.095505.226373s.152101.089496.265293.089496h.764042v1.16345c-.169787.070193-.350186.126347-.541197.168463-.19101.042116-.410319.063174-.657925.063174-.325426 0-.625206-.057032-.899342-.171096s-.51113-.279895-.710984-.497493-.356377-.484332-.469568-.800201c-.113192-.315868-.169787-.677362-.169787-1.084482 0-.368513.05129-.702808.153869-1.002883.10258-.300075.248491-.557157.437733-.771246.189242-.214088.418278-.37992.687108-.497493s.571263-.17636.907301-.17636c.180399 0 .343111.008774.488138.026323.145027.017548.282979.045625.413856.084231.130878.038606.259103.088619.384675.150038s.259102.134244.400592.218476c.113191.070193.222845.105289.328962.105289.081357 0 .156523-.021058.225499-.063174.068976-.042115.128225-.100025.177746-.173727l.519974-.784407c-.155639-.147406-.3325-.284282-.530586-.41063-.198085-.126347-.416509-.235146-.655272-.326397-.238764-.091251-.499635-.163199-.782613-.215844-.282979-.052645-.585413-.078967-.907301-.078967-.622553 0-1.185858.096515-1.689914.289546s-.93383.463274-1.289322.81073c-.355492.347455-.628743.760717-.819754 1.239784-.191011.479068-.286516 1.004638-.286516 1.576711 0 .561544.099927 1.08185.299781 1.560918.199853.479067.475758.893206.827712 1.242416.351955.349211.768465.622963 1.249529.821259.481063.198295 1.004574.297443 1.570532.297443zm7.842049-.084232v-7.670343h-1.80399v7.670343zm4.838936 0v-4.111557c0-.112309-.003537-.232514-.010611-.360616-.007075-.128103-.015918-.258837-.02653-.392204l3.645121 4.569566c.08843.112309.180399.189522.275904.231637.095505.042116.212234.063174.350186.063174h.93383v-7.670343h-1.581144v4.058912c0 .122837.003537.253572.010612.392203.007074.138631.017686.28165.031835.429055l-3.67165-4.606418c-.049521-.059664-.093736-.107044-.132646-.14214-.038909-.035097-.079588-.062297-.122034-.0816-.042447-.019303-.0902-.032464-.143258-.039483-.053059-.00702-.118498-.010529-.196317-.010529h-.944442v7.670343zm-173.628692 13.161193 1.4750268-4.753823c.0247607-.073702.0504056-.154424.0769349-.242166.0265293-.087741.0521742-.180747.0769349-.279017.0247606.09827.0504055.191276.0769348.279017.0265293.087742.0521742.168464.0769349.242166l1.4538034 4.753823h1.6235907l2.3876333-7.670343h-1.4113566c-.1485639 0-.2759043.038606-.3820213.115818-.1061171.077213-.1733245.166709-.2016224.268489l-1.0611704 4.001003c-.0318351.122837-.0627859.254449-.0928524.394835s-.0592487.287792-.0875465.442216c-.0318352-.157934-.0689761-.306217-.1114229-.444848-.0424469-.138631-.0831251-.269366-.1220346-.392203l-1.2415694-4.001003c-.0389096-.119328-.1087699-.213212-.2095811-.28165s-.229036-.102657-.3846743-.102657h-.5305852c-.1485638 0-.27502.039483-.3793684.118451-.1043484.078967-.1724402.167586-.2042753.265856l-1.252181 4.001003c-.0389096.129857-.0795878.26761-.1220346.413261s-.0813564.300953-.1167288.465906c-.0176861-.161444-.0442154-.315868-.0795877-.463274-.0353724-.147405-.0707447-.286036-.1061171-.415893l-1.0611704-4.001003c-.0318351-.115819-.0999268-.208825-.2042753-.279018-.1043484-.070193-.2343417-.105289-.3899801-.105289h-1.5068619l2.3876333 7.670343zm11.7259325 0v-7.670343h-1.8039897v7.670343zm6.6959845 0v-6.259463h2.1754v-1.41088h-6.144177v1.41088h2.175399v6.259463zm6.547421 0v-3.242918h3.141065v3.242918h1.803989v-7.670343h-1.803989v3.206067h-3.141065v-3.206067h-1.803989v7.670343zm12.691598 0c.148563 0 .274135-.039483.376715-.11845.10258-.078968.171556-.167586.206928-.265856l.456304-1.337178h2.939442l.456303 1.337178c.038909.112308.10877.204437.209581.276385.100811.071947.229036.107921.384674.107921h1.390133l-2.9925-7.670343h-1.835825l-2.9925 7.670343zm3.565532-2.932314h-2.111729l.710984-2.089997c.053059-.133367.109654-.291301.169787-.473803s.118498-.380797.175094-.594886c.060133.210579.12115.406242.183051.586989.061902.180747.115845.337804.161829.471171zm11.269629 3.016546c.438617 0 .830366-.065806 1.175246-.197418.344881-.131612.634934-.312359.87016-.542241s.414741-.499248.538544-.808097c.123803-.30885.185705-.640512.185705-.994987 0-.319378-.049522-.592253-.148564-.818626-.099043-.226372-.229036-.418526-.38998-.57646s-.344881-.287791-.551809-.389571-.418278-.190399-.634049-.265856c-.215771-.075458-.427121-.143896-.634049-.205315-.206929-.061419-.390865-.12898-.551809-.202682-.160944-.073703-.290938-.161444-.38998-.263224-.099043-.10178-.148564-.229882-.148564-.384307 0-.242166.082241-.43432.246722-.57646.164482-.142141.414741-.213212.750778-.213212.194548 0 .367873.025445.519974.076335s.2874.107922.405897.171096c.118498.063173.224615.120205.318351.171095.093737.05089.181284.076335.26264.076335.091968 0 .167134-.021058.225499-.063174.058364-.042115.114076-.105289.167134-.189521l.445692-.826523c-.137952-.126347-.294475-.239533-.469568-.339559-.175093-.100025-.363451-.186011-.565073-.257959-.201623-.071948-.414741-.126347-.639356-.163199-.224614-.036851-.455419-.055277-.692413-.055277-.424468 0-.801184.064051-1.130147.192154-.328963.128102-.606635.299197-.833018.513286s-.397939.45801-.514668.731763c-.116729.273752-.175093.554525-.175093.842316 0 .357984.049521.658937.148564.902858.099042.243921.229036.44748.38998.610679s.343996.294811.549155.394836c.20516.100025.415626.184257.631397.252695s.426237.130734.631396.186889c.20516.056154.388212.121083.549156.194785.160944.073703.290937.166709.38998.279018s.148564.257959.148564.436951c0 .30885-.0902.534345-.270599.676486s-.433311.213211-.758736.213211c-.240532 0-.449229-.033342-.626091-.100025s-.333384-.140386-.469568-.221108c-.136183-.080722-.258218-.154425-.366104-.221108-.107885-.066683-.214887-.100025-.321004-.100025-.081356 0-.157407.019303-.228151.057909-.070745.038606-.125572.089496-.164482.15267l-.530585.831787c.152101.150915.330732.287792.535891.41063.20516.122837.424468.229004.657926.3185.233457.089497.474874.158812.724249.207947s.494328.073703.73486.073703zm10.46314-.084232v-1.368764h-3.1729v-1.826773h2.430081v-1.31612h-2.430081v-1.789922h3.1729v-1.368764h-4.976889v7.670343zm3.618591 0c.148563 0 .274135-.039483.376715-.11845.10258-.078968.171556-.167586.206928-.265856l.456304-1.337178h2.939441l.456304 1.337178c.038909.112308.10877.204437.209581.276385.100811.071947.229036.107921.384674.107921h1.390133l-2.9925-7.670343h-1.835825l-2.9925 7.670343zm3.565532-2.932314h-2.111729l.710984-2.089997c.053059-.133367.109654-.291301.169787-.473803s.118498-.380797.175093-.594886c.060133.210579.121151.406242.183052.586989.061902.180747.115845.337804.161829.471171zm7.09923 2.932314v-2.837553h.456303c.137952 0 .244953.021058.321004.063174.07605.042116.142374.112309.198969.210579l1.284017 2.226874c.130877.224618.346649.336926.647313.336926h1.623591l-1.644814-2.66909c-.077819-.126347-.168903-.233391-.273251-.321133-.104349-.087741-.216656-.161444-.336922-.221108.251144-.09476.473105-.215843.665884-.363249.19278-.147405.355493-.314991.488139-.502757.132646-.187767.232573-.392204.29978-.613312.067208-.221108.100812-.456255.100812-.70544 0-.326397-.056596-.628228-.169788-.90549-.113191-.277262-.294474-.517674-.543849-.721233-.249375-.20356-.571264-.362372-.965665-.476436-.394402-.114063-.871044-.171095-1.429928-.171095h-2.514973v7.670343zm.721595-4.064176h-.721595v-2.274254h.721595c.463378 0 .805606.09476 1.026683.284281.221077.189522.331616.452746.331616.789672 0 .168463-.024761.32552-.074282.471171-.049522.14565-.129109.272875-.238764.381674-.109654.1088-.250259.193909-.421815.255328-.171556.061418-.379368.092128-.623438.092128zm9.423193 4.148408c.64024 0 1.194701-.102657 1.663385-.307972.468683-.205315.858663-.509777 1.16994-.913387l-.710984-.742291c-.03891-.038606-.079588-.065806-.122035-.081599-.042446-.015794-.084893-.023691-.12734-.023691-.053059 0-.104349.011407-.15387.03422-.049521.022812-.095505.051767-.137952.086863-.106117.091251-.21135.167586-.315698.229005-.104349.061419-.214003.111432-.328963.150038s-.239648.065806-.374062.081599c-.134415.015794-.282979.02369-.445692.02369-.282979 0-.548271-.054399-.795878-.163198-.247606-.1088-.464262-.267611-.649967-.476436-.185705-.208824-.3325-.465906-.440385-.771246-.107886-.305339-.161829-.65455-.161829-1.047631 0-.375532.053943-.714214.161829-1.016044.107885-.30183.258218-.558912.450997-.771246s.423584-.375532.692414-.489596.565957-.171096.891383-.171096c.187473 0 .35107.014039.490791.042116s.261755.062297.366104.102658c.104348.040361.194548.084231.270598.131612.076051.04738.145911.09125.209581.131611.063671.040361.123804.074581.180399.102658.056596.028077.116729.042116.180399.042116.095506 0 .169788-.020181.222846-.060542.053059-.040361.099043-.085109.137952-.134244l.604867-.805465c-.145026-.150915-.311276-.288669-.49875-.413262-.187473-.124592-.392633-.231637-.615478-.321133-.222846-.089496-.462494-.159689-.718943-.210579-.25645-.05089-.529701-.076335-.819755-.076335-.597792 0-1.144295.096516-1.639508.289547-.495213.19303-.920565.463274-1.276057.810729-.355492.347456-.632281.760717-.830366 1.239784-.198085.479068-.297128 1.004638-.297128 1.576711 0 .561545.086663 1.08185.259987 1.560918.173325.479067.421815.893206.745472 1.242417.323657.34921.718059.622963 1.183205.821258.465147.198295.99131.297443 1.578491.297443zm7.279629-.084232v-3.242918h3.141064v3.242918h1.80399v-7.670343h-1.80399v3.206067h-3.141064v-3.206067h-1.80399v7.670343zm16.893832 0v-1.368764h-3.1729v-1.826773h2.43008v-1.31612h-2.43008v-1.789922h3.1729v-1.368764h-4.976889v7.670343zm4.42508 0v-4.111556c0-.112309-.003537-.232515-.010612-.360617-.007074-.128102-.015917-.258837-.026529-.392204l3.64512 4.569567c.088431.112308.180399.189521.275905.231637.095505.042115.212234.063173.350186.063173h.93383v-7.670343h-1.581144v4.058912c0 .122838.003537.253572.010612.392203.007074.138632.017686.28165.031835.429055l-3.67165-4.606417c-.049521-.059664-.093737-.107045-.132646-.142141-.03891-.035097-.079588-.062296-.122035-.0816-.042447-.019303-.090199-.032464-.143258-.039483-.053058-.007019-.118497-.010529-.196316-.010529h-.944442v7.670343zm11.768379.084232c.314814 0 .609289-.015793.883425-.04738.274135-.031587.532353-.080722.774654-.147406.242301-.066683.470452-.151792.684455-.255327s.420046-.22725.618132-.371145v-3.237654h-2.748432v.979193c0 .091251.031835.166708.095506.226372.06367.059664.152101.089496.265292.089496h.764043v1.16345c-.169787.070193-.350186.126347-.541197.168463s-.410319.063174-.657926.063174c-.325425 0-.625206-.057032-.899341-.171096-.274136-.114063-.511131-.279894-.710985-.497493-.199853-.217598-.356376-.484332-.469568-.8002-.113191-.315869-.169787-.677363-.169787-1.084483 0-.368513.05129-.702807.15387-1.002883.10258-.300075.248491-.557157.437733-.771245.189242-.214089.418278-.37992.687108-.497494.268829-.117573.571263-.17636.9073-.17636.180399 0 .343112.008775.488139.026323.145026.017548.282978.045625.413856.084231.130878.038607.259102.088619.384674.150038s.259103.134244.400592.218476c.113192.070193.222846.105289.328963.105289.081356 0 .156523-.021057.225499-.063173s.128224-.100025.177746-.173728l.519973-.784407c-.155638-.147406-.3325-.284282-.530585-.410629-.198085-.126348-.416509-.235147-.655273-.326398-.238763-.091251-.499634-.163199-.782613-.215844-.282979-.052644-.585412-.078967-.907301-.078967-.622553 0-1.185857.096516-1.689913.289547-.504056.19303-.93383.463274-1.289322.810729-.355492.347456-.628744.760717-.819755 1.239784-.19101.479068-.286516 1.004638-.286516 1.576711 0 .561545.099927 1.08185.299781 1.560918.199854.479067.475758.893206.827713 1.242417.351955.34921.768464.622963 1.249528.821258s1.004575.297443 1.570532.297443zm7.842049-.084232v-7.670343h-1.80399v7.670343zm4.838937 0v-4.111556c0-.112309-.003537-.232515-.010612-.360617-.007074-.128102-.015917-.258837-.026529-.392204l3.64512 4.569567c.088431.112308.180399.189521.275904.231637.095506.042115.212234.063173.350187.063173h.93383v-7.670343h-1.581144v4.058912c0 .122838.003537.253572.010611.392203.007075.138632.017687.28165.031836.429055l-3.67165-4.606417c-.049521-.059664-.093737-.107045-.132646-.142141-.03891-.035097-.079588-.062296-.122035-.0816-.042447-.019303-.090199-.032464-.143258-.039483-.053058-.007019-.118497-.010529-.196316-.010529h-.944442v7.670343zm13.243406 0v-1.368764h-3.172899v-1.826773h2.43008v-1.31612h-2.43008v-1.789922h3.172899v-1.368764h-4.976889v7.670343z"/><path d="m88.1258187 193.871726c2.5563599 0 4.8523497-.470114 6.8879696-1.410343 2.03562-.940228 3.5268299-2.092008 4.4736298-3.455339l22.2971389-31.450638c1.70424-2.397582 3.24279-4.830423 4.61565-7.298522 1.37286-2.4681 2.544525-5.053728 3.514995-7.756884s1.72791-5.535594 2.27232-8.497314c.54441-2.961719.816615-6.13499.816615-9.519812 0-5.077233-.816615-9.71961-2.449845-13.927132s-3.97656-7.839154-7.02999-10.8948958c-3.05343-3.0557421-6.781455-5.4298187-11.184074-7.1222297-4.40262-1.692411-9.39699-2.5386165-14.9831098-2.5386165-5.4914397 0-10.4621395.9049698-14.9120992 2.7149093-4.4499598 1.8099396-8.2726646 4.2662861-11.4681145 7.3690397-3.1954498 3.102753-5.6571297 6.722633-7.3850396 10.859637-1.7279099 4.137005-2.5918649 8.532572-2.5918649 13.186703 0 5.077233.85212 9.4728 2.5563599 13.186702s3.9173848 6.79315 6.6394347 9.237744c2.7220498 2.444593 5.7636447 4.266286 9.1247845 5.465077s6.7222797 1.798187 10.0834195 1.798187c2.7457199 0 5.3730898-.282069 7.8821096-.846206 2.5090199-.564137 4.8286798-1.410342 6.9589798-2.538616-.56808.752182-1.147995 1.492612-1.739745 2.221289s-1.219005 1.492613-1.881765 2.291807l-32.8066183 38.925453zm9.2312995-55.990598c-9.5626795 0-14.3440193-5.124244-14.3440193-15.372733 0-2.162525.319545-4.172263.958635-6.029214s1.5622199-3.467092 2.7693899-4.830423c1.2071699-1.363332 2.6747098-2.432841 4.4026197-3.20853 1.72791-.775688 3.7043549-1.163532 5.9293347-1.163532 2.1776399 0 4.1895898.32908 6.0358498.98724 1.84626.658159 3.420315 1.621893 4.722165 2.891202 1.30185 1.269308 2.31966 2.855943 3.05343 4.759906.73377 1.903962 1.100655 4.101746 1.100655 6.593351 0 4.65413-1.266345 8.379785-3.799035 11.176964-2.53269 2.79718-6.142365 4.195769-10.8290248 4.195769zm76.8328168 57.118872c4.781339 0 9.373319-.669913 13.775939-2.009738s8.272664-3.349564 11.610134-6.029214c3.33747-2.679651 6.000345-6.040967 7.988625-10.083949s2.98242-8.791135 2.98242-14.24446c0-11.517797-5.72814-19.251175-17.184419-23.200134 2.461679-.846205 4.651154-1.903962 6.568424-3.173271 1.91727-1.269308 3.52683-2.808932 4.82868-4.618871 1.30185-1.80994 2.284155-3.948959 2.946915-6.417059.66276-2.468099.99414-5.324043.99414-8.567831 0-3.572867-.7101-6.969442-2.1303-10.189724s-3.50316-6.05272-6.24888-8.4973138c-2.74572-2.4445937-6.106859-4.3838146-10.083419-5.8176629-3.97656-1.4338482-8.5212-2.1507723-13.63392-2.1507723-4.733999 0-9.160289.6229013-13.278869 1.8687038-4.11858 1.2458026-7.775595 3.1380121-10.971044 5.6766286-3.19545 2.5386166-5.87016 5.7118876-8.02413 9.5198116-2.15397 3.807925-3.609675 8.27401-4.367115 13.398254l11.64564 2.044997c.56808.094023 1.124325.16454 1.668735.211551.544409.047012 1.053314.070517 1.526714.070517 1.98828 0 3.562335-.470114 4.722165-1.410342s2.118465-2.4681 2.875905-4.583613c.4734-1.269309 1.100655-2.444594 1.881765-3.525857.78111-1.081262 1.716075-2.02149 2.804895-2.820685 1.08882-.799194 2.31966-1.433848 3.69252-1.903962s2.88774-.705171 4.544639-.705171c4.0239 0 7.018155 1.093015 8.982765 3.279046s2.946915 5.300537 2.946915 9.343519c0 1.97448-.2367 3.784419-.7101 5.429819s-1.432035 3.043989-2.875905 4.195769-3.491325 2.056749-6.142365 2.714909-6.130529.98724-10.438469.98724v15.090665c5.11272 0 9.101114.340833 11.965184 1.022498 2.86407.681666 5.006205 1.657153 6.426405 2.926461s2.284155 2.785426 2.591865 4.548354c.30771 1.762929.461565 3.749161.461565 5.958698 0 1.692411-.30771 3.361316-.92313 5.006716-.61542 1.645399-1.526715 3.114506-2.733885 4.40732s-2.72205 2.350571-4.54464 3.173271c-1.82259.822699-3.964725 1.234049-6.426404 1.234049-3.21912 0-6.024015-.881464-8.414685-2.644392s-4.651155-4.595366-6.781455-8.497314c-.61542-1.128274-1.526715-1.986232-2.733885-2.573875-1.20717-.587642-2.568194-.881464-4.083074-.881464-.80478 0-1.621395.070517-2.449845.211552-.82845.141034-1.668735.399597-2.520855.775688l-9.79938 3.948959c1.6569 4.795165 3.609675 8.932169 5.858325 12.411014s4.864185 6.334789 7.846605 8.567831c2.982419 2.233042 6.390899 3.878442 10.225439 4.936199s8.21349 1.586635 13.13685 1.586635zm50.630127-27.395903c1.63323 0 3.201367-.305575 4.704412-.916723s2.822648-1.474983 3.958808-2.591504 2.047455-2.45047 2.733884-4.001847c.68643-1.551377 1.029645-3.267294 1.029645-5.14775 0-1.950974-.30771-3.719779-.92313-5.306414-.615419-1.586635-1.473457-2.94409-2.574112-4.072364s-2.41434-2.003862-3.941055-2.626763-3.189532-.934352-4.988452-.934352-3.449902.311451-4.952947.934352-2.804895 1.498489-3.90555 2.626763-1.958692 2.485729-2.574112 4.072364-.92313 3.35544-.92313 5.306414c0 1.880456.30771 3.596373.92313 5.14775s1.473457 2.885326 2.574112 4.001847 2.402505 1.980356 3.90555 2.591504 3.154027.916723 4.952947.916723zm-2.05929 26.267629c.75744 0 1.402448-.146911 1.935023-.440732s.976387-.664036 1.331437-1.110645l38.984488-49.820349h-8.02413c-.923129 0-1.645064.170416-2.165804.511249s-.958635.711048-1.313685 1.110645l-38.984488 49.749832zm2.05929-33.072532c-.56808 0-1.08882-.094023-1.56222-.282068-.4734-.188046-.87579-.505373-1.20717-.951982-.33138-.446608-.59175-1.046004-.78111-1.798186-.18936-.752183-.28404-1.692411-.28404-2.820685 0-1.198791.09468-2.191908.28404-2.979349s.44973-1.416219.78111-1.886333.73377-.799194 1.20717-.98724c.4734-.188045.99414-.282068 1.56222-.282068s1.094737.094023 1.579972.282068c.485235.188046.905378.517126 1.260428.98724s.633172 1.098892.834367 1.886333.301793 1.780558.301793 2.979349c0 1.128274-.100598 2.068502-.301793 2.820685-.201195.752182-.479317 1.351578-.834367 1.798186-.35505.446609-.775193.763936-1.260428.951982-.485235.188045-1.011892.282068-1.579972.282068zm29.753189 33.707186c1.63323 0 3.201367-.305574 4.704412-.916723 1.503045-.611148 2.822647-1.474983 3.958807-2.591504s2.047455-2.456346 2.733885-4.019476 1.029645-3.284923 1.029645-5.165379c0-1.950974-.30771-3.719779-.92313-5.306414-.61542-1.586636-1.473457-2.94409-2.574112-4.072364s-2.41434-2.003862-3.941055-2.626763-3.189532-.934352-4.988452-.934352-3.449903.311451-4.952948.934352-2.804895 1.498489-3.905549 2.626763c-1.100655 1.128274-1.958693 2.485728-2.574113 4.072364-.61542 1.586635-.92313 3.35544-.92313 5.306414 0 1.880456.30771 3.602249.92313 5.165379s1.473458 2.902955 2.574113 4.019476c1.100654 1.116521 2.402504 1.980356 3.905549 2.591504 1.503045.611149 3.154028.916723 4.952948.916723zm0-6.840161c-.56808 0-1.08882-.094023-1.56222-.282069-.4734-.188045-.87579-.505372-1.20717-.951981-.33138-.446608-.59175-1.046004-.78111-1.798186-.18936-.752183-.28404-1.692411-.28404-2.820685 0-1.175286.09468-2.156649.28404-2.94409.18936-.787442.44973-1.416219.78111-1.886334.33138-.470114.73377-.799194 1.20717-.987239.4734-.188046.99414-.282069 1.56222-.282069s1.094737.094023 1.579972.282069c.485235.188045.905377.517125 1.260427.987239.35505.470115.633173 1.098892.834368 1.886334.201195.787441.301792 1.768804.301792 2.94409 0 1.128274-.100597 2.068502-.301792 2.820685-.201195.752182-.479318 1.351578-.834368 1.798186-.35505.446609-.775192.763936-1.260427.951981-.485235.188046-1.011892.282069-1.579972.282069z"/></g></g></svg>