<?xml version="1.0" encoding="UTF-8"?>
<svg width="513px" height="531px" viewBox="0 0 513 531" version="1.1" xmlns="http://www.w3.org/2000/svg" xmlns:xlink="http://www.w3.org/1999/xlink">
    <!-- Generator: Sketch 63.1 (92452) - https://sketch.com -->
    <title>img_pay</title>
    <desc>Created with Sketch.</desc>
    <defs>
        <filter x="-4.5%" y="-88.0%" width="109.0%" height="276.1%" filterUnits="objectBoundingBox" id="filter-1">
            <feGaussianBlur stdDeviation="2.64107143" in="SourceGraphic"></feGaussianBlur>
        </filter>
        <filter x="-4.5%" y="-39.6%" width="109.0%" height="179.2%" filterUnits="objectBoundingBox" id="filter-2">
            <feGaussianBlur stdDeviation="2.11285714" in="SourceGraphic"></feGaussianBlur>
        </filter>
        <filter x="-4.5%" y="-90.0%" width="109.0%" height="280.1%" filterUnits="objectBoundingBox" id="filter-3">
            <feGaussianBlur stdDeviation="3.30133929" in="SourceGraphic"></feGaussianBlur>
        </filter>
        <linearGradient x1="82.2590646%" y1="3.36130428%" x2="34.8912921%" y2="105.628734%" id="linearGradient-4">
            <stop stop-color="#FACF00" offset="0%"></stop>
            <stop stop-color="#F2A100" offset="100%"></stop>
        </linearGradient>
        <linearGradient x1="50%" y1="0%" x2="50%" y2="100%" id="linearGradient-5">
            <stop stop-color="#FFF400" offset="0%"></stop>
            <stop stop-color="#FFE600" offset="100%"></stop>
        </linearGradient>
        <linearGradient x1="50%" y1="0%" x2="62.9002238%" y2="91.7903857%" id="linearGradient-6">
            <stop stop-color="#FCE141" offset="0%"></stop>
            <stop stop-color="#EFBE23" offset="100%"></stop>
        </linearGradient>
        <path d="M21.3417012,25.4888504 C2.44651872,46.2542992 -5.10183119,70.1730079 4.48512417,78.9125984 L4.48512417,78.9125984 C14.0688385,87.652189 36.6912011,77.4722205 55.5863835,56.7035276 L55.5863835,56.7035276 C74.481566,35.9380787 82.4901416,12.4411024 72.9096683,3.70475591 L72.9096683,3.70475591 C70.5242731,1.5279685 67.3026931,0.499590551 63.5171745,0.499590551 L63.5171745,0.499590551 C52.0925573,0.499590551 35.5341547,9.88475591 21.3417012,25.4888504 L21.3417012,25.4888504 Z" id="path-7"></path>
        <path d="M21.3417012,25.4888504 C2.44651872,46.2542992 -5.10183119,70.1730079 4.48512417,78.9125984 L4.48512417,78.9125984 C14.0688385,87.652189 36.6912011,77.4722205 55.5863835,56.7035276 L55.5863835,56.7035276 C74.481566,35.9380787 82.4901416,12.4411024 72.9096683,3.70475591 L72.9096683,3.70475591 C70.5242731,1.5279685 67.3026931,0.499590551 63.5171745,0.499590551 L63.5171745,0.499590551 C52.0925573,0.499590551 35.5341547,9.88475591 21.3417012,25.4888504 L21.3417012,25.4888504 Z" id="path-9"></path>
        <linearGradient x1="0%" y1="41.4705338%" x2="91.3469267%" y2="61.3718372%" id="linearGradient-11">
            <stop stop-color="#FACF00" offset="0%"></stop>
            <stop stop-color="#F2A100" offset="100%"></stop>
        </linearGradient>
        <linearGradient x1="50%" y1="42.0378479%" x2="64.6055751%" y2="56.6548282%" id="linearGradient-12">
            <stop stop-color="#FDE765" offset="0%"></stop>
            <stop stop-color="#F9CA35" offset="100%"></stop>
        </linearGradient>
        <linearGradient x1="16.8145502%" y1="42.0525643%" x2="64.6055751%" y2="56.6425281%" id="linearGradient-13">
            <stop stop-color="#FCE141" offset="0%"></stop>
            <stop stop-color="#EFBE23" offset="100%"></stop>
        </linearGradient>
        <path d="M0.336154672,4.32437795 C-1.45937382,9.92044094 16.0616136,20.256126 39.3581096,27.7434961 L39.3581096,27.7434961 C62.6546056,35.2308661 82.911019,37.0345827 84.7065475,31.4417638 L84.7065475,31.4417638 C86.502076,25.8457008 69.0718373,15.2375118 45.7688593,7.75014173 L45.7688593,7.75014173 C31.9329186,3.29924409 19.1373474,0.95376378 10.6523409,0.95376378 L10.6523409,0.95376378 C4.8509041,0.95376378 1.06538556,2.05026772 0.336154672,4.32437795 L0.336154672,4.32437795 Z" id="path-14"></path>
        <path d="M0.336154672,4.32437795 C-1.45937382,9.92044094 16.0616136,20.256126 39.3581096,27.7434961 L39.3581096,27.7434961 C62.6546056,35.2308661 82.911019,37.0345827 84.7065475,31.4417638 L84.7065475,31.4417638 C86.502076,25.8457008 69.0718373,15.2375118 45.7688593,7.75014173 L45.7688593,7.75014173 C31.9329186,3.29924409 19.1373474,0.95376378 10.6523409,0.95376378 L10.6523409,0.95376378 C4.8509041,0.95376378 1.06538556,2.05026772 0.336154672,4.32437795 L0.336154672,4.32437795 Z" id="path-16"></path>
        <linearGradient x1="0%" y1="42.9527632%" x2="91.3469267%" y2="59.3956677%" id="linearGradient-18">
            <stop stop-color="#FACF00" offset="0%"></stop>
            <stop stop-color="#F2A100" offset="100%"></stop>
        </linearGradient>
        <polygon id="path-19" points="0 0.870266472 115.594424 0.870266472 115.594424 41.1280616 0 41.1280616"></polygon>
        <linearGradient x1="50%" y1="43.9355639%" x2="64.6055751%" y2="55.0687025%" id="linearGradient-21">
            <stop stop-color="#FDE765" offset="0%"></stop>
            <stop stop-color="#F9CA35" offset="100%"></stop>
        </linearGradient>
        <linearGradient x1="12.7339944%" y1="50%" x2="113.113027%" y2="51.9102568%" id="linearGradient-22">
            <stop stop-color="#FCE141" offset="0%"></stop>
            <stop stop-color="#EFBE23" offset="100%"></stop>
        </linearGradient>
        <path d="M40.9758376,4.85559055 C17.2644903,10.8993386 -0.784784353,20.4175118 0.663954338,26.1141417 L0.663954338,26.1141417 C2.11269303,31.8107717 22.4404091,31.2495433 46.1517564,25.2057953 L46.1517564,25.2057953 C69.8631037,19.1620472 87.983681,9.91962205 86.5381833,4.22623622 L86.5381833,4.22623622 C85.8413627,1.48822047 80.7691567,0.128944882 73.0555145,0.132183183 L73.0555145,0.132183183 C64.7163542,0.132183183 53.291737,1.71530709 40.9758376,4.85559055 L40.9758376,4.85559055 Z" id="path-23"></path>
        <path d="M40.9758376,4.85559055 C17.2644903,10.8993386 -0.784784353,20.4175118 0.663954338,26.1141417 L0.663954338,26.1141417 C2.11269303,31.8107717 22.4404091,31.2495433 46.1517564,25.2057953 L46.1517564,25.2057953 C69.8631037,19.1620472 87.983681,9.91962205 86.5381833,4.22623622 L86.5381833,4.22623622 C85.8413627,1.48822047 80.7691567,0.128944882 73.0555145,0.132183183 L73.0555145,0.132183183 C64.7163542,0.132183183 53.291737,1.71530709 40.9758376,4.85559055 L40.9758376,4.85559055 Z" id="path-25"></path>
        <linearGradient x1="19.2593657%" y1="6.34829184%" x2="67.9034713%" y2="98.8905365%" id="linearGradient-27">
            <stop stop-color="#FDE765" offset="0%"></stop>
            <stop stop-color="#F9CA35" offset="100%"></stop>
        </linearGradient>
        <linearGradient x1="50%" y1="1.40043906%" x2="64.6055751%" y2="90.6198879%" id="linearGradient-28">
            <stop stop-color="#FCE141" offset="0%"></stop>
            <stop stop-color="#EFBE23" offset="100%"></stop>
        </linearGradient>
        <path d="M0.475974821,60.1878395 C0.475974821,93.267871 27.2727791,118.484217 60.3215227,118.484217 L60.3215227,118.484217 C93.3735075,118.484217 120.167071,93.267871 120.167071,60.1878395 L120.167071,60.1878395 C120.167071,27.1045639 93.3735075,0.282390701 60.3215227,0.282390701 L60.3215227,0.282390701 C27.2727791,0.282390701 0.475974821,27.1045639 0.475974821,60.1878395 L0.475974821,60.1878395 Z" id="path-29"></path>
        <path d="M0.0810256538,60.0181732 C0.0810256538,93.0982047 26.8778299,118.314551 59.9265736,118.314551 L59.9265736,118.314551 C92.9785583,118.314551 119.772121,93.0982047 119.772121,60.0181732 L119.772121,60.0181732 C119.772121,26.9348976 92.9785583,0.112724409 59.9265736,0.112724409 L59.9265736,0.112724409 C26.8778299,0.112724409 0.0810256538,26.9348976 0.0810256538,60.0181732 L0.0810256538,60.0181732 Z" id="path-31"></path>
        <linearGradient x1="0%" y1="37.1048688%" x2="91.3469267%" y2="67.1923224%" id="linearGradient-33">
            <stop stop-color="#FACF00" offset="0%"></stop>
            <stop stop-color="#F2A100" offset="100%"></stop>
        </linearGradient>
        <linearGradient x1="0%" y1="36.0378291%" x2="91.2186557%" y2="63.9621709%" id="linearGradient-34">
            <stop stop-color="#DB8F00" offset="0%"></stop>
            <stop stop-color="#C98300" offset="100%"></stop>
        </linearGradient>
    </defs>
    <g id="Page-1" stroke="none" stroke-width="1" fill="none" fill-rule="evenodd">
        <g id="Amazon-SEO" transform="translate(-833.000000, -2321.000000)">
            <g id="img_pay" transform="translate(837.000000, 2321.000000)">
                <ellipse id="Oval-4-Copy" fill="#000000" opacity="0.1" filter="url(#filter-1)" cx="415" cy="511.5" rx="88" ry="4.5"></ellipse>
                <ellipse id="Oval-4-Copy-3" fill-opacity="0.6" fill="#000000" opacity="0.1" filter="url(#filter-2)" cx="70.5" cy="518" rx="70.5" ry="8"></ellipse>
                <ellipse id="Oval-4-Copy-2" fill="#000000" opacity="0.1" filter="url(#filter-3)" cx="235.5" cy="490.5" rx="110.5" ry="5.5"></ellipse>
                <g id="Group-17">
                    <g id="Group-5" transform="translate(367.461519, 256.679321)">
                        <path d="M94.4346194,7.9000189 C79.0591913,7.46855433 56.3460801,20.1399874 36.9744667,41.4309795 C17.6060945,62.7219717 7.12137485,86.5401134 8.98496488,101.823043 L5.74393873,105.385058 L22.8662799,120.995641 C35.6261999,132.62572 65.8131175,119.545531 91.5889985,91.2116094 C117.364879,62.8809323 127.561148,31.5754205 114.797987,19.9453417 L97.6756456,4.33475906 L94.4346194,7.9000189 Z" id="Fill-21" fill="url(#linearGradient-4)"></path>
                        <path d="M89.4369571,19.8214173 C99.1114202,28.6388661 91.0250599,52.3531969 71.954862,73.3165354 C52.8846641,94.2766299 30.0516349,104.550677 20.3739308,95.7299843 C10.7027087,86.9125354 18.3191202,62.7699843 37.3860771,41.8066457 C56.459516,20.8465512 79.762494,11.0007244 89.4369571,19.8214173" id="Fill-23" fill="#FFC30D"></path>
                        <path d="M74.4660091,75.6029732 C48.6901281,103.93365 18.5032105,117.017083 5.74329053,105.387005 C-7.11386023,93.6660913 3.04351574,61.4652094 28.3883403,33.604926 C53.7364058,5.74464252 84.8146056,-7.38420787 97.6749974,4.33670551 C110.434917,15.9667843 100.238649,47.2722961 74.4660091,75.6029732" id="Fill-25" fill="url(#linearGradient-5)"></path>
                        <path d="M31.6364967,36.5645134 C9.79846245,60.5675685 1.04445081,88.3143087 12.1222782,98.4131748 C23.0542594,108.372545 49.0083969,97.0538992 71.2191491,72.6453323 C93.4266603,48.2335213 102.264939,21.307537 91.3361984,11.3449228 C80.25513,1.24605669 53.4745309,12.5582142 31.6364967,36.5645134" id="Fill-27" fill="#F0A700"></path>
                        <path d="M32.6146384,37.4546929 C11.3146145,60.8673228 2.77451057,87.9295591 13.5800918,97.7753858 C24.2398268,107.491449 49.5587231,96.4550394 71.2185009,72.6433858 C92.8815197,48.8349764 101.499408,22.5740315 90.8396732,12.8579685 C80.034092,3.00889764 53.9114212,14.042063 32.6146384,37.4546929" id="Fill-29" fill="url(#linearGradient-6)"></path>
                        <g id="Group-34" opacity="0.326004464" style="mix-blend-mode: multiply;" transform="translate(12.964105, 13.508409)">
                            <mask id="mask-8" fill="white">
                                <use xlink:href="#path-7"></use>
                            </mask>
                            <g id="Clip-33"></g>
                            <polygon id="Fill-32" fill="#FFDD00" mask="url(#mask-8)" points="17.6595714 90.5913386 8.9995495 94.2506772 42.5506522 -12.0907402 51.2106741 -15.7468346"></polygon>
                        </g>
                        <g id="Group-37" opacity="0.326004464" style="mix-blend-mode: multiply;" transform="translate(12.964105, 13.508409)">
                            <mask id="mask-10" fill="white">
                                <use xlink:href="#path-9"></use>
                            </mask>
                            <g id="Clip-36"></g>
                            <polygon id="Fill-35" fill="#FFDD00" mask="url(#mask-10)" points="40.8562438 88.4797575 20.5317688 97.0668756 56.746995 -17.7383843 77.0779521 -6.16669921"></polygon>
                        </g>
                    </g>
                    <g id="Group-4" transform="translate(304.656458, 16.220472)">
                        <path d="M117.090821,168.778635 C110.375414,161.070666 91.0556575,150.923139 67.1692947,143.244367 C43.286173,135.568839 21.6717696,132.55832 11.7283013,134.916776 L7.73211609,133.632115 L0.97781759,154.683044 C-1.41081868,162.131485 21.6101901,175.967548 53.3949336,186.183202 C85.176436,196.398855 111.944071,198.56591 114.332707,191.114225 L121.087006,170.063296 L117.090821,168.778635 Z" id="Fill-39" fill="url(#linearGradient-11)"></path>
                        <path d="M106.386683,167.397299 C104.57495,173.045268 84.1337979,171.225331 60.6169121,163.666591 C37.1032674,156.10785 19.4202287,145.678087 21.2352034,140.026874 C23.043696,134.378906 43.5755966,135.929583 67.0924824,143.485079 C90.6061271,151.043819 108.201658,161.749331 106.386683,167.397299" id="Fill-41" fill="#FFC30D"></path>
                        <path d="M60.1479357,165.132273 C28.3631922,154.916619 5.34218341,141.080556 7.73081968,133.632115 C10.1356611,126.12528 37.5255731,128.188524 68.7755473,138.232241 C100.028762,148.279202 123.497033,162.556461 121.08895,170.063296 C118.697073,177.511737 91.9294381,175.344682 60.1479357,165.132273" id="Fill-43" fill="url(#linearGradient-12)"></path>
                        <path d="M68.1685031,140.128414 C41.2388168,131.47317 17.6441464,129.695406 15.5698896,136.160887 C13.5215611,142.542021 33.3696053,154.434871 60.7562763,163.236099 C88.1397062,172.037328 111.193125,173.935123 113.241454,167.553989 C115.318952,161.085265 95.0981894,148.780414 68.1685031,140.128414" id="Fill-45" fill="#F0A700"></path>
                        <path d="M67.9847369,140.698726 C41.719461,132.257592 18.7081753,130.522002 16.6857749,136.831765 C14.6893028,143.053939 34.044711,154.651576 60.7572486,163.23545 C87.4665451,171.822569 109.949544,173.671702 111.946016,167.449529 C113.968416,161.139765 94.2500128,149.13986 67.9847369,140.698726" id="Fill-47" fill="url(#linearGradient-13)"></path>
                        <g id="Group-52" opacity="0.401841518" style="mix-blend-mode: multiply;" transform="translate(21.897285, 133.935762)">
                            <mask id="mask-15" fill="white">
                                <use xlink:href="#path-14"></use>
                            </mask>
                            <g id="Clip-51"></g>
                            <polygon id="Fill-50" fill="#FFDD00" mask="url(#mask-15)" points="-1.89788466 11.983685 -8.43827543 8.0064252 82.0025594 14.8255118 88.5364681 18.8027717"></polygon>
                        </g>
                        <g id="Group-55" opacity="0.401841518" style="mix-blend-mode: multiply;" transform="translate(21.897285, 133.935762)">
                            <mask id="mask-17" fill="white">
                                <use xlink:href="#path-16"></use>
                            </mask>
                            <g id="Clip-54"></g>
                            <polygon id="Fill-53" fill="#FFDD00" mask="url(#mask-17)" points="10.1862814 23.358778 -5.15997748 14.0190299 92.4759354 21.3831244 107.822194 30.7196283"></polygon>
                        </g>
                        <path d="M54.489104,81.6159796 C53.6107859,81.6159796 52.9042422,79.4424363 52.9042422,76.7628142 L52.9042422,5.05210559 C52.9042422,2.37248354 53.6107859,0.198940232 54.489104,0.198940232 C55.3674221,0.198940232 56.0772068,2.37248354 56.0772068,5.05210559 L56.0772068,76.7628142 C56.0772068,79.4424363 55.3674221,81.6159796 54.489104,81.6159796" id="Fill-93" fill="#EFF1F4"></path>
                        <path d="M72.0645406,73.6465371 C71.1862225,73.6465371 70.4764378,72.2775292 70.4764378,70.587356 L70.4764378,28.6185056 C70.4764378,26.9283324 71.1862225,25.5560804 72.0645406,25.5560804 C72.9428587,25.5560804 73.6526434,26.9283324 73.6526434,28.6185056 L73.6526434,70.587356 C73.6526434,72.2775292 72.9428587,73.6465371 72.0645406,73.6465371" id="Fill-95" fill="#EFF1F4"></path>
                    </g>
                    <g id="Group-14" transform="translate(0.000000, 76.236220)">
                        <path d="M111.415784,138.089825 C101.634367,135.127967 79.8805993,136.805164 55.5696621,143.001384 C31.2587249,149.197605 11.3523423,158.141573 4.1767104,165.424565 L0.109222581,166.459432 L5.56062857,187.88992 C7.48903913,195.468124 34.3409408,194.949069 66.6896229,186.702581 C99.0350639,178.456093 122.866329,166.060408 120.937919,158.478959 L115.483272,137.051715 L111.415784,138.089825 Z" id="Fill-97" fill="url(#linearGradient-18)"></path>
                        <path d="M101.616865,142.610471 C103.078568,148.355762 84.7926985,157.682534 60.8577204,163.784676 C36.9259833,169.886817 16.4070467,170.45129 14.9453439,164.702754 C13.4836411,158.950975 31.6982081,149.345211 55.6331862,143.246313 C79.5649233,137.144172 100.151921,136.861936 101.616865,142.610471" id="Fill-99" fill="#FFC30D"></path>
                        <g id="Group-103" transform="translate(0.000000, 130.691668)">
                            <mask id="mask-20" fill="white">
                                <use xlink:href="#path-19"></use>
                            </mask>
                            <g id="Clip-102"></g>
                            <path d="M61.2369205,34.5862646 C28.8882384,42.8295087 2.03633673,43.3485638 0.107926171,35.767115 C-1.83344849,28.1272724 22.4645246,15.3163433 54.2719552,7.20935118 C86.0826269,-0.897640945 113.540601,-1.28044409 115.485216,6.35939843 C117.413627,13.9440913 93.5856025,26.3397764 61.2369205,34.5862646" id="Fill-101" fill="url(#linearGradient-21)" mask="url(#mask-20)"></path>
                        </g>
                        <path d="M54.7626466,139.828984 C27.3532884,146.81352 6.4195005,157.853173 8.09511102,164.435441 C9.74479334,170.930118 32.872756,170.449992 60.7455809,163.348669 C88.6184058,156.244102 109.16003,145.590496 107.507106,139.095819 C105.831496,132.513551 82.1720048,132.841205 54.7626466,139.828984" id="Fill-104" fill="#F0A700"></path>
                        <path d="M54.9097892,140.408704 C28.1778055,147.224547 7.75934071,157.988452 9.3928179,164.408515 C11.0036079,170.744232 33.5611499,170.277082 60.7468773,163.347696 C87.9293636,156.421554 107.965387,146.027476 106.351356,139.695003 C104.717879,133.27494 81.6417729,133.592861 54.9097892,140.408704" id="Fill-106" fill="url(#linearGradient-22)"></path>
                        <g id="Group-111" opacity="0.398549107" style="mix-blend-mode: multiply;" transform="translate(14.189669, 136.557810)">
                            <mask id="mask-24" fill="white">
                                <use xlink:href="#path-23"></use>
                            </mask>
                            <g id="Clip-110"></g>
                            <polygon id="Fill-109" fill="#FFDD00" mask="url(#mask-24)" points="2.83609007 33.7922646 -4.81273166 33.8960756 75.4253528 -8.41664882 83.0741745 -8.52045984"></polygon>
                        </g>
                        <g id="Group-114" opacity="0.398549107" style="mix-blend-mode: multiply;" transform="translate(14.189669, 136.557810)">
                            <mask id="mask-26" fill="white">
                                <use xlink:href="#path-25"></use>
                            </mask>
                            <g id="Clip-113"></g>
                            <polygon id="Fill-112" fill="#FFDD00" mask="url(#mask-26)" points="19.1109029 37.0016472 1.15237698 37.2514425 87.778524 -8.42865197 105.73705 -8.67844724"></polygon>
                        </g>
                        <path d="M53.9556311,81.7204394 C53.077313,81.7204394 52.3675283,79.5468961 52.3675283,76.8672741 L52.3675283,5.15656543 C52.3675283,2.47694338 53.077313,0.303400075 53.9556311,0.303400075 C54.8339492,0.303400075 55.5437339,2.47694338 55.5437339,5.15656543 L55.5437339,76.8672741 C55.5437339,79.5468961 54.8339492,81.7204394 53.9556311,81.7204394" id="Fill-116" fill="#EFF1F4"></path>
                        <path d="M71.5313918,73.7493749 C70.6530737,73.7493749 69.943289,72.380367 69.943289,70.6901938 L69.943289,28.7180993 C69.943289,27.0311702 70.6530737,25.6621623 71.5313918,25.6621623 C72.4097099,25.6621623 73.1194946,27.0311702 73.1194946,28.7180993 L73.1194946,70.6901938 C73.1194946,72.380367 72.4097099,73.7493749 71.5313918,73.7493749" id="Fill-118" fill="#EFF1F4"></path>
                    </g>
                    <g id="Group-8" transform="translate(149.087203, 0.000000)">
                        <path d="M141.398517,301.859501 C141.398517,335.250965 114.352153,360.700887 80.9922713,360.700887 C47.6356301,360.700887 20.5925079,335.250965 20.5925079,301.859501 C20.5925079,268.468036 47.6356301,241.396068 80.9922713,241.396068 C114.352153,241.396068 141.398517,268.468036 141.398517,301.859501" id="Fill-1" fill="#FFC30D"></path>
                        <path d="M80.9932436,369.361321 C35.9040877,369.361321 0.586625734,334.863621 0.586625734,290.825038 C0.586625734,246.445825 36.6560058,210.339054 80.9932436,210.339054 C125.330481,210.339054 161.403102,246.445825 161.403102,290.825038 C161.403102,334.863621 126.082399,369.361321 80.9932436,369.361321" id="Fill-3" fill="url(#linearGradient-27)"></path>
                        <path d="M80.9932436,221.542858 C42.7912683,221.542858 11.7130685,252.653724 11.7130685,290.891866 C11.7130685,328.610953 42.1430631,358.158165 80.9932436,358.158165 C119.843424,358.158165 150.27666,328.610953 150.27666,290.891866 C150.27666,252.653724 119.19846,221.542858 80.9932436,221.542858" id="Fill-5" fill="#F0A700"></path>
                        <path d="M80.9932436,224.916717 C43.7344069,224.916717 13.4210893,255.258732 13.4210893,292.552843 C13.4210893,329.33763 43.1024068,358.158165 80.9932436,358.158165 C118.88408,358.158165 148.568639,329.33763 148.568639,292.552843 C148.568639,255.258732 118.255321,224.916717 80.9932436,224.916717" id="Fill-7" fill="url(#linearGradient-28)"></path>
                        <g id="Group-12" opacity="0.445145089" style="mix-blend-mode: multiply;" transform="translate(20.671721, 230.466883)">
                            <mask id="mask-30" fill="white">
                                <use xlink:href="#path-29"></use>
                            </mask>
                            <g id="Clip-11"></g>
                            <polygon id="Fill-10" fill="#FFDD00" mask="url(#mask-30)" points="0.761185122 105.091298 -9.28599595 95.0313608 109.831438 -24.1988439 119.88186 -14.142151"></polygon>
                        </g>
                        <g id="Group-15" opacity="0.445145089" style="mix-blend-mode: multiply;" transform="translate(21.066670, 230.636550)">
                            <mask id="mask-32" fill="white">
                                <use xlink:href="#path-31"></use>
                            </mask>
                            <g id="Clip-14"></g>
                            <polygon id="Fill-13" fill="#FFDD00" mask="url(#mask-32)" points="20.6006104 145.064057 -2.99081893 121.450293 125.613099 -7.27213228 149.204528 16.3383874"></polygon>
                        </g>
                        <path d="M47.1935541,163.529365 C46.0073386,163.529365 45.0479948,160.596704 45.0479948,156.976295 L45.0479948,6.62873551 C45.0479948,3.00832606 46.0073386,0.0756646419 47.1935541,0.0756646419 C48.3765287,0.0756646419 49.3391134,3.00832606 49.3391134,6.62873551 L49.3391134,156.976295 C49.3391134,160.596704 48.3765287,163.529365 47.1935541,163.529365" id="Fill-195" fill="#EFF1F4"></path>
                        <path d="M68.0100169,154.452713 C66.8270424,154.452713 65.8644576,152.60358 65.8644576,150.322981 L65.8644576,102.923517 C65.8644576,100.642918 66.8270424,98.7937843 68.0100169,98.7937843 C69.1962325,98.7937843 70.1555762,100.642918 70.1555762,102.923517 L70.1555762,150.322981 C70.1555762,152.60358 69.1962325,154.452713 68.0100169,154.452713" id="Fill-197" fill="#EFF1F4"></path>
                        <path d="M88.8284243,163.529365 C87.6422087,163.529365 86.682865,161.680232 86.682865,159.399633 L86.682865,78.7190032 C86.682865,76.4384048 87.6422087,74.5892709 88.8284243,74.5892709 C90.0113988,74.5892709 90.9739836,76.4384048 90.9739836,78.7190032 L90.9739836,159.399633 C90.9739836,161.680232 90.0113988,163.529365 88.8284243,163.529365" id="Fill-199" fill="#EFF1F4"></path>
                    </g>
                    <g id="Group-9" transform="translate(32.015312, 350.758061)">
                        <path d="M3.26649834,20.6116787 C7.33398616,27.3950803 20.5800601,36.9586709 37.5792422,44.7607181 C54.5784244,52.5660094 70.4626936,56.3713323 78.2508794,55.0315213 L81.0965004,56.3388913 L88.362881,40.4752693 C91.1177533,34.4672063 75.5543457,21.6238362 52.9384652,11.2427339 C30.3193436,0.858387402 10.4421302,-2.56737638 7.69049904,3.44393071 L0.424118402,19.3075528 L3.26649834,20.6116787 Z" id="Fill-249" fill="url(#linearGradient-33)"></path>
                        <path d="M11.1473775,22.4079339 C13.2345984,17.8499811 28.3928777,20.6042173 45.1262957,28.2862331 C61.8629548,35.9682488 73.8385464,45.6680913 71.7513256,50.2260441 C69.6641047,54.7807528 54.4021126,52.247115 37.6686945,44.5683433 C20.9352765,36.8863276 9.05691566,26.9626425 11.1473775,22.4079339" id="Fill-251" fill="#FFC30D"></path>
                        <path d="M45.670464,27.1031118 C68.2895855,37.4874583 83.8497521,50.3275843 81.0948799,56.3388913 C78.3205615,62.3956157 57.9669172,59.0152693 35.7269958,48.8061039 C13.4838333,38.5969386 -2.3518205,25.3642772 0.422497889,19.3075528 C3.17737012,13.2962457 23.0513425,16.7220094 45.670464,27.1031118" id="Fill-253" fill="#F2A500"></path>
                        <path d="M36.4267333,47.2774866 C55.590921,56.0754709 73.1281135,58.9854236 75.5199908,53.7656756 C77.8794578,48.6172976 64.4583685,37.5808882 44.9700783,28.6336756 C25.478547,19.686463 8.36592889,16.7116283 6.00646185,21.8600063 C3.61458455,27.0765102 17.2625457,38.4795024 36.4267333,47.2774866" id="Fill-255" fill="url(#linearGradient-34)"></path>
                    </g>
                </g>
            </g>
        </g>
    </g>
</svg>