<svg height="344" viewBox="0 0 283 344" width="283" xmlns="http://www.w3.org/2000/svg" xmlns:xlink="http://www.w3.org/1999/xlink"><filter id="a" height="149.5%" width="104.6%" x="-2.3%" y="-24.8%"><feGaussianBlur in="SourceGraphic" stdDeviation="1.65066964"/></filter><linearGradient id="b"><stop offset="0" stop-color="#9f3fa9"/><stop offset=".217248618" stop-color="#db2e87"/><stop offset=".760780392" stop-color="#f2554b"/><stop offset="1" stop-color="#ffb461"/></linearGradient><linearGradient id="c" x1="49.196165%" x2="46.768178%" xlink:href="#b" y1="10.161977%" y2="94.295096%"/><linearGradient id="d" x1="48.833922%" x2="45.311777%" xlink:href="#b" y1="10.161977%" y2="94.295096%"/><g fill="none" fill-rule="evenodd" transform="translate(-52 -50)"><ellipse cx="202.084257" cy="380.266075" fill="#000" filter="url(#a)" opacity=".14786" rx="107.343681" ry="9.995565"/><path d="m188.993467 362.831627c60.693469.031323 109.864565-59.39588 109.826738-132.734385-.03787-73.338505-49.291757-174.33271-109.985226-174.3640519-60.69347-.0313272-109.84314 100.9120749-109.8053132 174.2505799.0378705 73.338504 49.2703312 132.81651 109.9638012 132.847857z" fill="url(#c)" opacity=".265342" transform="matrix(.57357644 -.81915204 .81915204 .57357644 -90.872069 244.001198)"/><path d="m217.330072 321.411016c66.55413-.031666 120.532668-54.185509 120.564455-120.956009.031758-66.770499-53.877282-158.6711416-120.431411-158.6394978-66.55413.0316601-120.5506542 91.9836198-120.5824405 158.7541198-.0317583 66.770499 53.8952675 120.873025 120.4493965 120.841387z" fill="url(#d)" transform="matrix(.8660254 .5 -.5 .8660254 119.931048 -84.362237)"/><g fill="#fff" fill-rule="nonzero" transform="translate(144.283814 133.853659)"><path d="m88.4857151 0h-50.940388c-20.7025807 0-37.5453271 16.8423333-37.5453271 37.544406v50.9391384c0 20.7020726 16.8427464 37.5444056 37.5453271 37.5444056h50.940388c20.7025809 0 37.5453269-16.842333 37.5453269-37.5444056v-50.9391384c0-20.7020727-16.842975-37.544406-37.5453269-37.544406zm24.8666089 88.4835444c0 13.7329966-11.133275 24.8659986-24.8666089 24.8659986h-50.940388c-13.733334 0-24.8666089-11.133002-24.8666089-24.8659986v-50.9391384c0-13.7332257 11.1332749-24.8659988 24.8666089-24.8659988h50.940388c13.7333339 0 24.8666089 11.1327731 24.8666089 24.8659988z"/><path d="m62.1279785 30.1757065c-17.6181029 0-31.9515318 14.3331275-31.9515318 31.9506359 0 17.6175083 14.3334289 31.9508601 31.9515318 31.9508601s31.9515318-14.3331276 31.9515318-31.9508601c0-17.6177326-14.3334289-31.9506359-31.9515318-31.9506359zm0 51.4762051c-10.7839635 0-19.5259361-8.7417581-19.5259361-19.5254571s8.7421968-19.5254572 19.5259361-19.5254572c10.7839636 0 19.5259361 8.7417582 19.5259361 19.5254572 0 10.7834747-8.7421968 19.5254571-19.5259361 19.5254571z"/><ellipse cx="94.967053" cy="29.288186" rx="7.987883" ry="7.987687"/></g></g></svg>