<?xml version="1.0" encoding="UTF-8"?>
<svg width="75px" height="75px" viewBox="0 0 75 75" version="1.1" xmlns="http://www.w3.org/2000/svg" xmlns:xlink="http://www.w3.org/1999/xlink">
    <!-- Generator: sketchtool 63.1 (101010) - https://sketch.com -->
    <title>93C32101-B656-4A3E-AD73-87F5474E563C</title>
    <desc>Created with sketchtool.</desc>
    <g id="Website" stroke="none" stroke-width="1" fill="none" fill-rule="evenodd">
        <g id="Social-Media---WeChat" transform="translate(-1084.000000, -2676.000000)" fill="#FF5254" fill-rule="nonzero">
            <g id="img_intelligent_strategy" transform="translate(1084.000000, 2676.000000)">
                <path d="M54.8719231,35.5022051 C53.8898265,27.4367375 47.5656014,21.0872007 39.5499795,20.1191372 C38.8598178,20.0398606 38.1658284,20 37.4711028,20 C30.3872287,20.0109654 24.0088271,24.3200559 21.3150175,30.9145351 C18.6212079,37.5090143 20.1435975,45.087857 25.1711195,50.1110296 C27.8446129,52.6880376 29.3756884,56.2393328 29.4194123,59.9650364 L29.4194123,62 L45.5713756,62 L45.5713756,59.9545156 C45.5835947,56.2993459 47.0609354,52.8039148 49.6686219,50.259951 C53.6073137,46.4349664 55.5338189,40.9711048 54.8717759,35.5027978 L54.8717759,35.5022051 L54.8719231,35.5022051 Z" id="Path"></path>
                <path d="M37.9999227,75 C39.7971889,74.9978672 41.3987974,73.7966204 42,72 L34,72 C34.6010479,73.7966204 36.2026565,74.9978672 37.9999227,75 Z" id="Path"></path>
                <path d="M31,67.75 C31.0009953,68.4400087 31.5823973,68.999043 32.3000142,69 L42.6999858,69 C43.4176027,68.999043 43.9990047,68.4400087 44,67.75 L44,64 L31,64 L31,67.75 L31,67.75 Z" id="Path"></path>
                <path d="M37.5,12 C38.8807011,12 40,10.8060666 40,9.33330093 L40,2.66669907 C40,1.19393335 38.8807011,0 37.5,0 C36.1192989,0 35,1.19393335 35,2.66669907 L35,9.33330093 C35,10.8060666 36.1192989,12 37.5,12 Z" id="Path"></path>
                <path d="M14.468809,18.2457793 C15.5190572,19.2514069 17.1722256,19.2514069 18.2224738,18.2457793 C18.7203112,17.7468215 19,17.0699036 19,16.3641744 C19,15.6584453 18.7203112,14.9815274 18.2224738,14.4825696 L13.5304653,9.7795033 C13.0329182,9.28040001 12.3578623,9 11.6540683,9 C10.9502743,9 10.2752184,9.28040001 9.7775262,9.7795033 C9.27968882,10.2783156 9,10.955088 9,11.6608171 C9,12.3665463 9.27968882,13.0431732 9.7775262,13.5421309 L14.468809,18.2457793 Z" id="Path"></path>
                <path d="M12,37.5 C12,36.1192989 10.8060666,35 9.33330093,35 L2.66669907,35 C1.19451669,35.0013672 0.00145832827,36.1198458 0,37.5 C0.00145832827,38.8801542 1.19451669,39.9986328 2.66669907,40 L9.33330093,40 C10.8060666,40 12,38.8807011 12,37.5 Z" id="Path"></path>
                <path d="M17.0316138,56.0902605 C16.1146271,55.8445834 15.1367014,56.1085881 14.4668078,56.7827819 L9.7772623,61.484829 C9.27959389,61.983456 9,62.6599771 9,63.3654441 C9,64.0709112 9.27959389,64.7472869 9.7772623,65.2460593 C10.8268639,66.2513136 12.4793261,66.2513136 13.5289277,65.2460593 L18.2191986,60.5447395 C18.8915588,59.873164 19.1550474,58.8927829 18.9099856,57.9734939 C18.6649238,57.0542049 17.9486005,56.3359376 17.0316138,56.0902605 Z" id="Path"></path>
                <path d="M60.5330581,56.7827862 C59.8631658,56.1087169 58.8852421,55.8445585 57.9682572,56.0902432 C57.0512723,56.335928 56.3350955,57.0539267 56.0900342,57.9732443 C55.8449729,58.8925619 56.1083159,59.8729735 56.7808198,60.5445699 L61.4710814,65.2460359 C62.5206808,66.2513214 64.1731398,66.2513214 65.2227392,65.2460359 C65.7204067,64.7473934 66,64.0708512 66,63.3653622 C66,62.6598732 65.7204067,61.9834765 65.2227392,61.4846885 L60.5330581,56.7827862 Z" id="Path"></path>
                <path d="M72.3333009,35 L65.6666991,35 C64.1939334,35 63,36.1192989 63,37.5 C63,38.8807011 64.1939334,40 65.6666991,40 L72.3333009,40 C73.8060666,40 75,38.8807011 75,37.5 C75,36.1192989 73.8060666,35 72.3333009,35 Z" id="Path"></path>
                <path d="M60.5314278,18.2457918 L65.2226603,13.5419625 C65.8930852,12.8698413 66.1549268,11.8902528 65.9094866,10.9720704 C65.6640463,10.0538881 64.9487716,9.33680365 64.0329065,9.09074242 C63.1170414,8.84468119 62.139925,9.10718531 61.4695001,9.77930643 L56.7775419,14.4824082 C56.2796945,14.9813697 56,15.6582928 56,16.3640272 C56,17.0697617 56.2796945,17.7466847 56.7775419,18.2456463 C57.8279565,19.251427 59.4813035,19.251427 60.5314278,18.2457918 Z" id="Path"></path>
            </g>
        </g>
    </g>
</svg>