<?xml version="1.0" encoding="UTF-8"?>
<svg width="261px" height="261px" viewBox="0 0 261 261" version="1.1" xmlns="http://www.w3.org/2000/svg" xmlns:xlink="http://www.w3.org/1999/xlink">
    <!-- Generator: sketchtool 63.1 (101010) - https://sketch.com -->
    <title>6162A3AE-C277-4B7D-A6C1-568299F0CAFF</title>
    <desc>Created with sketchtool.</desc>
    <defs>
        <polygon id="path-1" points="0.000186428571 0.237623459 260.758575 0.237623459 260.758575 260.919876 0.000186428571 260.919876"></polygon>
    </defs>
    <g id="Website" stroke="none" stroke-width="1" fill="none" fill-rule="evenodd">
        <g id="Hubspot---Mobile" transform="translate(-58.000000, -4380.000000)">
            <g id="img_partnership_mob" transform="translate(58.000000, 4380.000000)">
                <g id="Group-26">
                    <g id="Group-3">
                        <mask id="mask-2" fill="white">
                            <use xlink:href="#path-1"></use>
                        </mask>
                        <g id="Clip-2"></g>
                        <path d="M260.758761,130.577352 C260.758761,202.56701 202.379586,260.919876 130.376211,260.919876 C58.3709721,260.919876 0.000186428571,202.56701 0.000186428571,130.577352 C0.000186428571,58.5914219 58.3709721,0.237623459 130.376211,0.237623459 C202.379586,0.237623459 260.758761,58.5914219 260.758761,130.577352" id="Fill-1" fill="#427FE0" mask="url(#mask-2)"></path>
                    </g>
                    <path d="M150.682411,259.332797 C212.948154,249.746196 260.667168,196.277813 261,131.637446 L210.119546,80.4556569 L166.03465,120.355868 L93.0819144,104.022796 L78.1445504,87.9971415 L29.6946108,138.805572 L150.682411,259.332797 Z" id="Fill-4" fill="#285398"></path>
                    <path d="M172.697605,176.042894 L169.450513,176.558887 L167.929581,177.789473 L157.157483,184.646789 C157.157483,184.646789 155.402273,184.843534 155.152064,185.621235 C154.895295,186.371094 141.839456,190.019234 141.839456,190.019234 L139.241783,191.375106 L114.871257,171.256972 L127.249565,144.436506 L143.782088,141.383242 L172.697605,176.042894 Z" id="Fill-6" fill="#C69463"></path>
                    <path d="M174.428797,107.841275 C179.013291,113.653388 183.108413,119.855394 186.743878,126.302131 C189.297525,130.818011 191.603237,135.478123 193.605296,140.254552 C194.750259,142.963335 195.79029,145.713062 196.709603,148.491635 C197.5732,151.085963 195.649143,153.084749 193.747372,154.686197 C193.109424,155.19706 190.505632,157.435924 187.23975,159.733411 C183.957152,162.036482 178.157122,165.715812 177.725324,165.857253 C180.101609,170.8049 174.258864,177.247914 169.159926,176.715649 C163.295824,171.527924 157.679657,166.310423 152.325354,160.611835 C149.751278,157.839775 147.189273,155.068646 144.629126,152.291004 C143.979106,151.581937 140.59622,148.576313 140.123563,149.213729 C139.663907,149.852075 142.847144,153.183385 143.32073,153.694248 C145.811232,156.416059 148.299878,159.109023 150.810809,161.802918 C156.173469,167.515464 161.788707,172.753437 167.65281,177.949537 C167.843173,183.166108 161.265906,185.562232 156.978564,184.825249 C154.007976,182.797617 150.895312,180.897467 148.010155,178.75724 C146.142742,177.367953 144.495407,175.568301 142.825786,173.965922 C139.747481,171.039394 136.727676,168.090533 133.701372,165.126784 C132.972422,164.411203 129.577464,161.909929 129.372243,162.228172 C129.153094,162.5399 129.718611,163.894757 130.708498,164.878331 C134.620685,168.791225 138.03793,172.066703 142.04762,175.88003 C146.093526,179.735231 150.351153,182.62826 154.991362,185.80324 C154.545635,188.22728 150.741165,190.764845 148.392738,191.019811 C146.165028,191.239417 143.971678,190.665278 141.799684,190.212108 C137.654418,187.306052 133.644728,184.342302 130.023191,180.812788 C128.360999,179.21134 125.297551,176.532334 123.232347,174.915997 C122.093884,174.022685 121.280431,173.448546 121.173643,173.555557 C120.88392,173.852397 121.874735,175.581329 122.334391,176.006583 C127.907843,181.451135 133.410721,186.638859 139.832912,191.17521 C135.808363,194.151987 129.024947,193.132123 125.375553,189.800812 L122.892479,187.504255 C122.482967,188.098866 74.3768942,150.773303 74.483683,150.532295 C71.4276636,148.279473 64.6516764,144.480105 62.5149701,142.92053 C68.1664238,131.090657 77.6028472,105.236712 80.4740754,97.2443587 C85.6101567,98.7508926 95.0168649,100.249982 100.32938,100.498435 C107.515808,100.841802 114.708736,101.210293 121.902593,101.578784 C126.352439,99.7865765 131.020507,96.3901289 135.878937,96.0960803 C140.725295,95.8057538 145.095282,99.1054259 149.424411,100.841802 C153.308741,102.379974 157.22,103.840911 161.145188,105.219032 C163.847411,106.161662 166.690782,107.419743 169.540652,107.838484 C171.253917,107.799401 172.992255,106.009055 174.428797,107.841275 C179.091293,113.741789 174.004428,107.281094 174.428797,107.841275" id="Fill-8" fill="#D0A072"></path>
                    <path d="M127.363868,99.5820978 C121.123284,102.450925 115.080564,104.342891 115.080564,104.342891 C108.853914,104.734946 107.268223,115.532814 105.718759,120.344135 C104.593819,123.857653 103.384346,127.563923 103.164189,131.280486 C102.938458,134.947457 105.372267,136.117071 108.938447,136.117071 C113.954695,136.117071 117.217113,131.869036 119.778187,128.084167 C121.377812,125.721549 123.196666,123.230741 124.228713,120.536887 L132.21012,120.26928 L132.217552,120.276765 C136.534311,122.935062 138.883587,122.560786 142.22961,126.434545 C146.037314,130.842583 151.867308,138.547995 155.284859,143.251711 C157.145515,145.780883 159.538451,147.962913 161.717732,150.200149 C163.387956,151.910591 164.908623,153.750159 166.599284,155.43908 C169.699139,158.553994 174.305726,163.457013 177.588582,166.379174 C177.84311,166.366074 178.077201,166.294026 178.339161,166.208878 C178.847288,166.208878 188.323351,159.779749 189.511459,158.86745 C189.511459,158.86745 210.90111,144.619691 212.550898,141.890281 C207.808686,127.140056 195.376753,112.144679 185.810583,100.017194 C184.877004,100.383985 172.189613,105.968186 171.164069,105.968186 C168.687529,105.968186 164.645734,106.449131 162.34755,105.658472 C158.455313,104.311078 154.577011,102.886021 150.748871,101.378624 C146.85106,99.8599979 143.037783,97.3008843 138.989486,96.3184092 C134.736823,95.2769856 131.057312,97.8538774 127.363868,99.5820978 C121.123284,102.450925 127.950954,99.3041977 127.363868,99.5820978" id="Fill-10" fill="#FBD099"></path>
                    <path d="M120.710095,181.81839 C118.153323,179.58243 115.146731,179.005437 115.111194,179.020208 C115.044797,179.079292 114.969983,179.144839 114.901715,179.206692 C116.010834,177.815449 115.77891,173.066572 114.177888,171.445455 C112.369257,169.034089 107.367934,168.331543 104.974818,170.074521 L104.133159,170.838921 C104.073308,170.918315 104.133159,170.838921 104.133159,170.838921 C105.020642,169.647086 105.668719,167.10555 103.31488,164.097805 C101.256557,161.488878 97.3241406,160.328431 94.3745945,161.917237 C94.3586965,161.986476 94.3446689,162.044636 94.329706,162.10926 C94.3259653,162.132339 94.3287709,162.155419 94.3250302,162.178499 C94.313808,162.256046 94.3063266,162.329901 94.29791,162.40468 C94.2866879,162.393601 94.276401,162.384369 94.266114,162.374214 C94.2866879,162.292051 94.308197,162.198809 94.329706,162.10926 C94.9590797,157.019727 89.2040046,151.968968 84.5664652,154.056295 L82.0162393,155.911902 L73.8671128,151.537839 C73.581884,154.997946 72.8692797,161.481492 74.4291538,164.687722 C74.6788459,165.644145 76.2115999,168.233685 76.4238849,168.485716 C79.0236751,171.558084 82.8017874,172.058451 82.7933709,172.058451 C82.7840191,172.062144 83.4760496,179.251005 91.3904468,181.037373 C91.9665155,181.167543 93.2121703,180.672714 93.2626698,180.643172 C93.2673457,180.646865 92.8203314,181.8387 93.597463,183.405349 C95.1395687,186.515568 99.0224209,190.873936 103.44861,188.745989 C101.885931,192.741544 109.535673,198.049873 113.323137,195.305236 L121.487227,189.497463 C123.716687,187.908658 122.470097,183.365652 120.710095,181.81839" id="Fill-12" fill="#FBD099"></path>
                    <path d="M83.6137725,94.1133695 C83.6137725,94.1133695 81.0572078,105.321986 61.7696716,146.069979 L47.6676647,142.433717 L70.5714376,89.0480087 L83.6137725,94.1133695 Z" id="Fill-14" fill="#F9F5ED"></path>
                    <path d="M77.3622754,91.3206022 C77.3622754,91.3206022 67.5716116,119.135406 55.3823566,144.507733 L42.9790419,140.895567 L66.0124339,86.70464 L77.3622754,91.3206022 Z" id="Fill-16" fill="#BFBFBF"></path>
                    <path d="M78.1437126,87.4124836 C78.1437126,87.4124836 67.5059532,116.002049 53.3288044,147.632225 L28.9131737,139.123359 L55.9586249,75.7689197 L78.1437126,87.4124836 Z" id="Fill-18" fill="#FF5254"></path>
                    <path d="M182.07485,98.8037599 C182.07485,98.8037599 184.65203,110.009391 203.932001,150.756716 L218.020958,147.11958 L195.127108,93.734746 L182.07485,98.8037599 Z" id="Fill-20" fill="#F9F5ED"></path>
                    <path d="M188.326347,95.2288037 C188.326347,95.2288037 198.114616,123.041317 210.307431,148.413348 L222.709581,144.801357 L199.679954,90.6102544 L188.326347,95.2288037 Z" id="Fill-22" fill="#BFBFBF"></path>
                    <path d="M187.54491,92.098945 C187.54491,92.098945 198.202712,120.68834 212.362124,152.318962 L236.775449,143.804459 L209.733585,80.4556569 L187.54491,92.098945 Z" id="Fill-24" fill="#FF5254"></path>
                </g>
            </g>
        </g>
    </g>
</svg>