<svg height="315" viewBox="0 0 261 315" width="261" xmlns="http://www.w3.org/2000/svg" xmlns:xlink="http://www.w3.org/1999/xlink"><linearGradient id="a" x1="70.80744%" x2="25.285201%" y1="91.649281%" y2="6.511896%"><stop offset="0" stop-color="#da3e3f"/><stop offset="1" stop-color="#ff5254"/></linearGradient><g fill="none" fill-rule="evenodd"><circle cx="130.5" cy="130.5" fill="url(#a)" r="130.5"/><ellipse cx="127" cy="305" fill="#000" opacity=".05" rx="101" ry="10"/><g fill="#fff" fill-rule="nonzero"><path d="m188 174v-16.285322h-17.431579v-89.714678h-18.593684l-32.974737 27.6995885 7.117895 9.4513035c.48421.630087 1.222631 1.223822 2.215263 1.781207.992631.557384 2.118421.836077 3.377368.836077.726316 0 1.476842-.133288 2.251579-.399863s1.549474-.714907 2.324211-1.344993l11.98421-9.9602199c-.145263 2.8596251-.217894 5.5980799-.217894 8.2153639v53.436214h-20.336843v16.285322z"/><path d="m74.2183099 173c.7605633 0 1.4973591-.094715 2.2103873-.284146.7130282-.18943 1.3705986-.489361 1.9727113-.899794.6021126-.410432 1.1091549-.939258 1.5211267-1.586479.4119718-.64722.6971831-1.42862.8556338-2.3442l2.3292254-13.591627h7.8433098l-2.2816901 12.881263c-.0316902.157859-.0554578.331503-.0713028.520934-.0158451.18943-.0237676.363074-.0237676.520933 0 .663006.1109155 1.286548.3327464 1.870625.221831.584076.5228874 1.089224.9031691 1.515442.3802816.426219.8318662.765615 1.3547535 1.018188.5228873.252574 1.0853873.378861 1.6875.378861h6.8450704l3.3274649-18.706246h9.411972l.760563-4.546328c.06338-.347289.110916-.678792.142606-.994509s.047535-.615649.047535-.899794c0-1.389156-.332747-2.375772-.998239-2.959849-.665493-.584077-1.600353-.876115-2.804578-.876115h-5.181338l1.996479-11.17639h2.994718c2.091549 0 3.620599-.339396 4.587148-1.018188s1.59243-1.760124 1.877641-3.243995l1.140845-5.967055h-9.221831l2.471831-13.781057c.03169-.157859.047535-.292039.047535-.40254v-.355182c0-1.199725-.435739-2.178449-1.307218-2.93617s-2.004402-1.136582-3.398768-1.136582h-6.5598589l-3.3274647 18.611531h-7.8908451l3.3274648-18.611531h-6.75c-1.5211268 0-2.8679578.418325-4.040493 1.254976s-1.8855634 1.996911-2.1390845 3.480782l-2.471831 13.875773h-3.2323943c-2.0915493 0-3.6205986.347288-4.5871479 1.041866s-1.5924296 1.768017-1.8776409 3.220316l-1.140845 5.967056h9.459507l-1.9964789 11.17639h-8.4137324l-.7605634 4.546328c-.0633802.347289-.1109154.678792-.1426056.994509-.0316901.315717-.0475352.615648-.0475352.899794 0 1.389156.3327465 2.375772.9982394 2.959849.665493.584077 1.6003521.876115 2.8045775.876115h4.1830986l-3.3274648 18.706246zm18.1109155-28.982841h-7.8908451l1.9964789-11.17639h7.890845z"/></g></g></svg>