<svg height="211" viewBox="0 0 353 211" width="353" xmlns="http://www.w3.org/2000/svg" xmlns:xlink="http://www.w3.org/1999/xlink"><filter id="a" height="181.7%" width="178.4%" x="-39.2%" y="-40.8%"><feOffset dx="0" dy="10" in="SourceAlpha" result="shadowOffsetOuter1"/><feGaussianBlur in="shadowOffsetOuter1" result="shadowBlurOuter1" stdDeviation="10"/><feColorMatrix in="shadowBlurOuter1" result="shadowMatrixOuter1" type="matrix" values="0 0 0 0 0   0 0 0 0 0   0 0 0 0 0  0 0 0 0.25 0"/><feMerge><feMergeNode in="shadowMatrixOuter1"/><feMergeNode in="SourceGraphic"/></feMerge></filter><filter id="b" height="166.3%" width="163.4%" x="-31.7%" y="-33.1%"><feOffset dx="0" dy="10" in="SourceAlpha" result="shadowOffsetOuter1"/><feGaussianBlur in="shadowOffsetOuter1" result="shadowBlurOuter1" stdDeviation="10"/><feColorMatrix in="shadowBlurOuter1" result="shadowMatrixOuter1" type="matrix" values="0 0 0 0 0   0 0 0 0 0   0 0 0 0 0  0 0 0 0.25 0"/><feMerge><feMergeNode in="shadowMatrixOuter1"/><feMergeNode in="SourceGraphic"/></feMerge></filter><linearGradient id="c" x1="18.342891%" x2="94.255015%" y1="90.193465%" y2="9.539592%"><stop offset="0" stop-color="#427fdf"/><stop offset="1" stop-color="#396bb1"/></linearGradient><mask id="d" fill="#fff"><path d="m0 .1546199h147.65072v141.8163831h-147.65072z" fill="#fff" fill-rule="evenodd"/></mask><g fill="none" fill-rule="evenodd" transform="translate(20 10)"><g filter="url(#a)" transform="translate(165 33)"><path d="m0 .15402899h147.65072v112.56722301h-84.212l-31.39968 29.249751 9.77984-29.249751h-41.81888z" fill="#427fe0" mask="url(#d)"/><path d="m68.6128509 59.8620489 7.675985-18.8344537 7.6783792 18.8344537zm37.7598121 24.1784606-24.7015395-60.5981195c-.8930575-2.1873813-3.0191569-3.6161194-5.3822876-3.6161194-2.3607365 0-4.4916244 1.4287381-5.3822877 3.6161194l-24.7015399 60.5981195c-1.2114936 2.9723496.2130888 6.3587222 3.1867548 7.5696794 2.9784546 1.2109573 6.3663269-.2153876 7.5778205-3.1853441l6.9050345-16.9462218h24.8284355l6.9050345 16.9462218c.9193944 2.2519976 3.0933789 3.6185126 5.3846819 3.6185126.730248 0 1.474862-.1388054 2.190744-.4331685 2.973666-1.2109572 4.400643-4.5973298 3.189149-7.5696794z" fill="#fff"/></g><g filter="url(#b)"><path d="m183 .35079891h-183v138.60000009h104.375604l38.916849 36.019565-12.122887-36.019565h51.830434z" fill="url(#c)"/><path d="m118.943306 47.5843752c3.370503 0 6.106694-2.7303405 6.106694-6.0936366 0-3.3661732-2.736191-6.0965137-6.106694-6.0965137h-20.9553616v-4.1918926c0-3.3661732-2.733308-6.0936366-6.1066944-6.0936366-3.3762697 0-6.1066944 2.7274634-6.1066944 6.0936366v4.1918926h-20.952478c-3.3733864 0-6.1095776 2.7303405-6.1095776 6.0965137 0 3.3632961 2.7361912 6.0936366 6.1095776 6.0936366h39.3965404c-2.08458 8.6024426-6.6804584 16.6208398-12.0778767 23.6149997-3.1946258-4.2005238-6.1557095-8.7836981-8.5257297-13.6804732-1.4675672-3.0324329-5.1206276-4.3069754-8.1566754-2.8396691-3.038931 1.4644292-4.307555 5.1068012-2.8457542 8.1392341 3.1427276 6.4935495 7.1158271 12.4490867 11.3426515 17.76016-10.1864737 10.4351369-20.2028365 16.9660884-20.4017798 17.0926795-2.8342213 1.8183089-3.6559436 5.5872718-1.8395047 8.4183098 1.1705939 1.812555 3.1398442 2.805145 5.1494599 2.805145 1.1273454 0 2.269107-.313601 3.2897726-.966696.8736206-.558152 11.1465914-7.241588 21.9183621-18.1456878 10.7256394 11.0537068 20.8169654 17.6796018 21.5060594 18.1255478 1.026432.667481 2.18261.983959 3.321488.983959 1.9952 0 3.952917-.975328 5.120628-2.77062 1.842388-2.81953 1.043731-6.5913699-1.78184-8.4298183-.155695-.1035746-9.901034-6.5223202-19.983711-17.0408922 7.513714-9.3130792 14.090376-20.5681814 16.44598-33.0661783z" fill="#fff"/></g></g></svg>