<svg height="411" viewBox="0 0 352 411" width="352" xmlns="http://www.w3.org/2000/svg" xmlns:xlink="http://www.w3.org/1999/xlink"><filter id="a" height="391.3%" width="114.6%" x="-7.3%" y="-145.6%"><feGaussianBlur in="SourceGraphic" stdDeviation="6.60267857"/></filter><linearGradient id="b" x1="100%" x2="0%" y1="50%" y2="50%"><stop offset="0" stop-color="#da3e3f"/><stop offset="1" stop-color="#ff5254"/></linearGradient><g fill="none" fill-rule="evenodd" transform="translate(-3)"><ellipse cx="179" cy="387.6" fill="#000" filter="url(#a)" opacity=".2" rx="136" ry="6.8"/><circle cx="179" cy="176" fill="url(#b)" r="176"/><g fill="#fff" fill-rule="nonzero"><path d="m76.658003 242.096c.68 0 1.299-.114 1.857-.342s1.035-.543 1.431-.945.703-.875.921-1.419.327-1.132.327-1.764c0-.628-.109-1.214-.327-1.758s-.525-1.016-.921-1.416-.873-.715-1.431-.945-1.177-.345-1.857-.345-1.3.114-1.86.342-1.039.542-1.437.942-.706.872-.924 1.416-.327 1.132-.327 1.764.109 1.22.327 1.764.526 1.017.924 1.419.877.717 1.437.945 1.18.342 1.86.342zm0-1.68c-.392 0-.741-.063-1.047-.189s-.564-.309-.774-.549-.371-.533-.483-.879-.168-.737-.168-1.173c0-.432.056-.821.168-1.167s.273-.639.483-.879.468-.424.774-.552.655-.192 1.047-.192c.388 0 .734.064 1.038.192s.561.312.771.552.371.533.483.879.168.735.168 1.167c0 .436-.056.827-.168 1.173s-.273.639-.483.879-.467.423-.771.549-.65.189-1.038.189zm9.6119998 1.584v-3.402h2.988v-1.566h-2.988v-2.214h3.588v-1.56h-5.628v8.742zm16.3559992 0v-1.62h-3.2399997v-7.122h-2.028v8.742zm6.636.096c.68 0 1.299-.114 1.857-.342s1.035-.543 1.431-.945.703-.875.921-1.419.327-1.132.327-1.764c0-.628-.109-1.214-.327-1.758s-.525-1.016-.921-1.416-.873-.715-1.431-.945-1.177-.345-1.857-.345-1.3.114-1.86.342-1.039.542-1.437.942-.706.872-.924 1.416-.327 1.132-.327 1.764.109 1.22.327 1.764.526 1.017.924 1.419.877.717 1.437.945 1.18.342 1.86.342zm0-1.68c-.392 0-.741-.063-1.047-.189s-.564-.309-.774-.549-.371-.533-.483-.879-.168-.737-.168-1.173c0-.432.056-.821.168-1.167s.273-.639.483-.879.468-.424.774-.552.655-.192 1.047-.192c.388 0 .734.064 1.038.192s.561.312.771.552.371.533.483.879.168.735.168 1.167c0 .436-.056.827-.168 1.173s-.273.639-.483.879-.467.423-.771.549-.65.189-1.038.189zm11.328 1.68c.724 0 1.351-.117 1.881-.351s.971-.581 1.323-1.041l-.804-.846c-.044-.044-.09-.075-.138-.093s-.096-.027-.144-.027c-.06 0-.118.013-.174.039s-.108.059-.156.099c-.12.104-.239.191-.357.261s-.242.127-.372.171-.271.075-.423.093-.32.027-.504.027c-.32 0-.62-.062-.9-.186s-.525-.305-.735-.543-.376-.531-.498-.879-.183-.746-.183-1.194c0-.428.061-.814.183-1.158s.292-.637.51-.879.479-.428.783-.558.64-.195 1.008-.195c.212 0 .397.016.555.048s.296.071.414.117.22.096.306.15.165.104.237.15.14.085.204.117.132.048.204.048c.108 0 .192-.023.252-.069s.112-.097.156-.153l.684-.918c-.164-.172-.352-.329-.564-.471s-.444-.264-.696-.366-.523-.182-.813-.24-.599-.087-.927-.087c-.676 0-1.294.11-1.854.33s-1.041.528-1.443.924-.715.867-.939 1.413-.336 1.145-.336 1.797c0 .64.098 1.233.294 1.779s.477 1.018.843 1.416.812.71 1.338.936 1.121.339 1.785.339zm7.068-.096c.168 0 .31-.045.426-.135s.194-.191.234-.303l.516-1.524h3.324l.516 1.524c.044.128.123.233.237.315s.259.123.435.123h1.572l-3.384-8.742h-2.076l-3.384 8.742zm4.032-3.342h-2.388l.804-2.382c.06-.152.124-.332.192-.54s.134-.434.198-.678c.068.24.137.463.207.669s.131.385.183.537zm11.267999 3.342v-1.62h-3.24v-7.122h-2.028v8.742zm9.192 0v-5.028c0-.116-.004-.243-.012-.381s-.02-.277-.036-.417l2.328 4.5c.072.14.169.246.291.318s.261.108.417.108h.276c.156 0 .295-.036.417-.108s.219-.178.291-.318l2.316-4.494c-.024.284-.036.548-.036.792v5.028h1.788v-8.742h-1.548c-.088 0-.165.002-.231.006s-.125.016-.177.036-.099.051-.141.093-.083.101-.123.177l-2.244 4.416c-.08.156-.158.317-.234.483s-.148.337-.216.513c-.068-.172-.139-.34-.213-.504s-.151-.322-.231-.474l-2.25-4.434c-.04-.076-.081-.135-.123-.177s-.089-.073-.141-.093-.111-.032-.177-.036-.143-.006-.231-.006h-1.548v8.742zm15.636.096c.68 0 1.299-.114 1.857-.342s1.035-.543 1.431-.945.703-.875.921-1.419.327-1.132.327-1.764c0-.628-.109-1.214-.327-1.758s-.525-1.016-.921-1.416-.873-.715-1.431-.945-1.177-.345-1.857-.345-1.3.114-1.86.342-1.039.542-1.437.942-.706.872-.924 1.416-.327 1.132-.327 1.764.109 1.22.327 1.764.526 1.017.924 1.419.877.717 1.437.945 1.18.342 1.86.342zm0-1.68c-.392 0-.741-.063-1.047-.189s-.564-.309-.774-.549-.371-.533-.483-.879-.168-.737-.168-1.173c0-.432.056-.821.168-1.167s.273-.639.483-.879.468-.424.774-.552.655-.192 1.047-.192c.388 0 .734.064 1.038.192s.561.312.771.552.371.533.483.879.168.735.168 1.167c0 .436-.056.827-.168 1.173s-.273.639-.483.879-.467.423-.771.549-.65.189-1.038.189zm11.063999 1.584c.524 0 .99-.067 1.398-.201s.751-.32 1.029-.558.489-.517.633-.837.216-.666.216-1.038c0-.492-.138-.895-.414-1.209s-.702-.541-1.278-.681c.264-.096.49-.209.678-.339s.342-.275.462-.435.208-.331.264-.513.084-.371.084-.567c0-.36-.061-.686-.183-.978s-.317-.54-.585-.744-.614-.362-1.038-.474-.938-.168-1.542-.168h-3.216v8.742zm-.408-5.064h-1.056v-2.16h1.188c.228 0 .425.018.591.054s.303.096.411.18.188.195.24.333.078.311.078.519c0 .212-.033.388-.099.528s-.162.25-.288.33-.279.136-.459.168-.382.048-.606.048zm.372 3.534h-1.428v-2.178h1.416c.256 0 .468.024.636.072s.303.116.405.204.174.196.216.324.063.272.063.432c0 .14-.018.278-.054.414s-.102.258-.198.366-.229.196-.399.264-.389.102-.657.102zm8.7 1.53v-8.742h-2.04v8.742zm8.952 0v-1.62h-3.24v-7.122h-2.028v8.742zm8.651999 0v-1.56h-3.588v-2.082h2.748v-1.5h-2.748v-2.04h3.588v-1.56h-5.628v8.742zm9.96.096c.496 0 .939-.075 1.329-.225s.718-.356.984-.618.469-.569.609-.921.21-.73.21-1.134c0-.364-.056-.675-.168-.933s-.259-.477-.441-.657-.39-.328-.624-.444-.473-.217-.717-.303-.483-.164-.717-.234-.442-.147-.624-.231-.329-.184-.441-.3-.168-.262-.168-.438c0-.276.093-.495.279-.657s.469-.243.849-.243c.22 0 .416.029.588.087s.325.123.459.195.254.137.36.195.205.087.297.087c.104 0 .189-.024.255-.072s.129-.12.189-.216l.504-.942c-.156-.144-.333-.273-.531-.387s-.411-.212-.639-.294-.469-.144-.723-.186-.515-.063-.783-.063c-.48 0-.906.073-1.278.219s-.686.341-.942.585-.45.522-.582.834-.198.632-.198.96c0 .408.056.751.168 1.029s.259.51.441.696.389.336.621.45.47.21.714.288.482.149.714.213.439.138.621.222.329.19.441.318.168.294.168.498c0 .352-.102.609-.306.771s-.49.243-.858.243c-.272 0-.508-.038-.708-.114s-.377-.16-.531-.252-.292-.176-.414-.252-.243-.114-.363-.114c-.092 0-.178.022-.258.066s-.142.102-.186.174l-.6.948c.172.172.374.328.606.468s.48.261.744.363.537.181.819.237.559.084.831.084zm11.832-.096v-1.56h-3.588v-2.082h2.748v-1.5h-2.748v-2.04h3.588v-1.56h-5.628v8.742zm4.091999 0c.168 0 .31-.045.426-.135s.194-.191.234-.303l.516-1.524h3.324l.516 1.524c.044.128.123.233.237.315s.259.123.435.123h1.572l-3.384-8.742h-2.076l-3.384 8.742zm4.032-3.342h-2.388l.804-2.382c.06-.152.124-.332.192-.54s.134-.434.198-.678c.068.24.137.463.207.669s.131.385.183.537zm8.028 3.342v-3.234h.516c.156 0 .277.024.363.072s.161.128.225.24l1.452 2.538c.148.256.392.384.732.384h1.836l-1.86-3.042c-.088-.144-.191-.266-.309-.366s-.245-.184-.381-.252c.284-.108.535-.246.753-.414s.402-.359.552-.573.263-.447.339-.699.114-.52.114-.804c0-.372-.064-.716-.192-1.032s-.333-.59-.615-.822-.646-.413-1.092-.543-.985-.195-1.617-.195h-2.844v8.742zm.816-4.632h-.816v-2.592h.816c.524 0 .911.108 1.161.324s.375.516.375.9c0 .192-.028.371-.084.537s-.146.311-.27.435-.283.221-.477.291-.429.105-.705.105zm10.656 4.728c.724 0 1.351-.117 1.881-.351s.971-.581 1.323-1.041l-.804-.846c-.044-.044-.09-.075-.138-.093s-.096-.027-.144-.027c-.06 0-.118.013-.174.039s-.108.059-.156.099c-.12.104-.239.191-.357.261s-.242.127-.372.171-.271.075-.423.093-.32.027-.504.027c-.32 0-.62-.062-.9-.186s-.525-.305-.735-.543-.376-.531-.498-.879-.183-.746-.183-1.194c0-.428.061-.814.183-1.158s.292-.637.51-.879.479-.428.783-.558.64-.195 1.008-.195c.212 0 .397.016.555.048s.296.071.414.117.22.096.306.15.165.104.237.15.14.085.204.117.132.048.204.048c.108 0 .192-.023.252-.069s.112-.097.156-.153l.684-.918c-.164-.172-.352-.329-.564-.471s-.444-.264-.696-.366-.523-.182-.813-.24-.599-.087-.927-.087c-.676 0-1.294.11-1.854.33s-1.041.528-1.443.924-.715.867-.939 1.413-.336 1.145-.336 1.797c0 .64.098 1.233.294 1.779s.477 1.018.843 1.416.812.71 1.338.936 1.121.339 1.785.339zm8.232-.096v-3.696h3.552v3.696h2.04v-8.742h-2.04v3.654h-3.552v-3.654h-2.04v8.742zm14.723999 0v-1.56h-3.588v-2.082h2.748v-1.5h-2.748v-2.04h3.588v-1.56h-5.628v8.742zm5.58.096c.496 0 .939-.075 1.329-.225s.718-.356.984-.618.469-.569.609-.921.21-.73.21-1.134c0-.364-.056-.675-.168-.933s-.259-.477-.441-.657-.39-.328-.624-.444-.473-.217-.717-.303-.483-.164-.717-.234-.442-.147-.624-.231-.329-.184-.441-.3-.168-.262-.168-.438c0-.276.093-.495.279-.657s.469-.243.849-.243c.22 0 .416.029.588.087s.325.123.459.195.254.137.36.195.205.087.297.087c.104 0 .189-.024.255-.072s.129-.12.189-.216l.504-.942c-.156-.144-.333-.273-.531-.387s-.411-.212-.639-.294-.469-.144-.723-.186-.515-.063-.783-.063c-.48 0-.906.073-1.278.219s-.686.341-.942.585-.45.522-.582.834-.198.632-.198.96c0 .408.056.751.168 1.029s.259.51.441.696.389.336.621.45.47.21.714.288.482.149.714.213.439.138.621.222.329.19.441.318.168.294.168.498c0 .352-.102.609-.306.771s-.49.243-.858.243c-.272 0-.508-.038-.708-.114s-.377-.16-.531-.252-.292-.176-.414-.252-.243-.114-.363-.114c-.092 0-.178.022-.258.066s-.142.102-.186.174l-.6.948c.172.172.374.328.606.468s.48.261.744.363.537.181.819.237.559.084.831.084zm-230.5499932 14.904v-3.234h.516c.156 0 .277.024.363.072s.161.128.225.24l1.452 2.538c.148.256.392.384.732.384h1.836l-1.86-3.042c-.088-.144-.191-.266-.309-.366s-.245-.184-.381-.252c.284-.108.535-.246.753-.414s.402-.359.552-.573.263-.447.339-.699.114-.52.114-.804c0-.372-.064-.716-.192-1.032s-.333-.59-.615-.822-.646-.413-1.092-.543-.985-.195-1.617-.195h-2.844v8.742zm.816-4.632h-.816v-2.592h.816c.524 0 .911.108 1.161.324s.375.516.375.9c0 .192-.028.371-.084.537s-.146.311-.27.435-.283.221-.477.291-.429.105-.705.105zm12.8279997 4.632v-1.56h-3.588v-2.082h2.748v-1.5h-2.748v-2.04h3.588v-1.56h-5.628v8.742zm5.5799998.096c.496 0 .939-.075 1.329-.225s.718-.356.984-.618.469-.569.609-.921.21-.73.21-1.134c0-.364-.056-.675-.168-.933s-.259-.477-.441-.657-.39-.328-.624-.444-.473-.217-.717-.303-.483-.164-.717-.234-.442-.147-.624-.231-.329-.184-.441-.3-.168-.262-.168-.438c0-.276.093-.495.279-.657s.469-.243.849-.243c.22 0 .416.029.588.087s.325.123.459.195.254.137.36.195.205.087.297.087c.104 0 .189-.024.255-.072s.129-.12.189-.216l.504-.942c-.156-.144-.333-.273-.531-.387s-.411-.212-.639-.294-.469-.144-.723-.186-.515-.063-.783-.063c-.48 0-.906.073-1.278.219s-.686.341-.942.585-.45.522-.582.834-.198.632-.198.96c0 .408.056.751.168 1.029s.259.51.441.696.389.336.621.45.47.21.714.288.482.149.714.213.439.138.621.222.329.19.441.318.168.294.168.498c0 .352-.102.609-.306.771s-.49.243-.858.243c-.272 0-.508-.038-.708-.114s-.377-.16-.531-.252-.292-.176-.414-.252-.243-.114-.363-.114c-.092 0-.178.022-.258.066s-.142.102-.186.174l-.6.948c.172.172.374.328.606.468s.48.261.744.363.537.181.819.237.559.084.831.084zm9.8399997 0c.58 0 1.102-.09 1.566-.27s.858-.432 1.182-.756.573-.71.747-1.158.261-.94.261-1.476v-5.178h-2.028v5.178c0 .308-.039.583-.117.825s-.191.447-.339.615-.329.297-.543.387-.457.135-.729.135-.515-.045-.729-.135-.395-.22-.543-.39-.261-.376-.339-.618-.117-.517-.117-.825v-5.172h-2.028v5.178c0 .536.086 1.028.258 1.476s.42.834.744 1.158.718.576 1.182.756.988.27 1.572.27zm12.4079998-.096v-1.62h-3.24v-7.122h-2.028v8.742zm5.8319997 0v-7.134h2.4600005v-1.608h-6.9480005v1.608h2.46v7.134zm11.9639995 0v-8.742h-2.04v8.742zm5.472 0v-4.686c0-.128-.004-.265-.012-.411s-.018-.295-.03-.447l4.122 5.208c.1.128.204.216.312.264s.24.072.396.072h1.056v-8.742h-1.788v4.626c0 .14.004.289.012.447s.02.321.036.489l-4.152-5.25c-.056-.068-.106-.122-.15-.162s-.09-.071-.138-.093-.102-.037-.162-.045-.134-.012-.222-.012h-1.068v8.742zm14.603999 0c.168 0 .31-.045.426-.135s.194-.191.234-.303l.516-1.524h3.324l.516 1.524c.044.128.123.233.237.315s.259.123.435.123h1.572l-3.384-8.742h-2.076l-3.384 8.742zm4.032-3.342h-2.388l.804-2.382c.06-.152.124-.332.192-.54s.134-.434.198-.678c.068.24.137.463.207.669s.131.385.183.537zm7.788 3.342v-4.686c0-.128-.004-.265-.012-.411s-.018-.295-.03-.447l4.122 5.208c.1.128.204.216.312.264s.24.072.396.072h1.056v-8.742h-1.788v4.626c0 .14.004.289.012.447s.02.321.036.489l-4.152-5.25c-.056-.068-.106-.122-.15-.162s-.09-.071-.138-.093-.102-.037-.162-.045-.134-.012-.222-.012h-1.068v8.742zm17.82.096c.68 0 1.299-.114 1.857-.342s1.035-.543 1.431-.945.703-.875.921-1.419.327-1.132.327-1.764c0-.628-.109-1.214-.327-1.758s-.525-1.016-.921-1.416-.873-.715-1.431-.945-1.177-.345-1.857-.345-1.3.114-1.86.342-1.039.542-1.437.942-.706.872-.924 1.416-.327 1.132-.327 1.764.109 1.22.327 1.764.526 1.017.924 1.419.877.717 1.437.945 1.18.342 1.86.342zm0-1.68c-.392 0-.741-.063-1.047-.189s-.564-.309-.774-.549-.371-.533-.483-.879-.168-.737-.168-1.173c0-.432.056-.821.168-1.167s.273-.639.483-.879.468-.424.774-.552.655-.192 1.047-.192c.388 0 .734.064 1.038.192s.561.312.771.552.371.533.483.879.168.735.168 1.167c0 .436-.056.827-.168 1.173s-.273.639-.483.879-.467.423-.771.549-.65.189-1.038.189zm9.611999 1.584v-3.402h2.988v-1.566h-2.988v-2.214h3.588v-1.56h-5.628v8.742zm8.748 0v-3.402h2.988v-1.566h-2.988v-2.214h3.588v-1.56h-5.628v8.742zm11.976 0v-1.62h-3.24v-7.122h-2.028v8.742zm5.243999 0v-8.742h-2.04v8.742zm5.472 0v-4.686c0-.128-.004-.265-.012-.411s-.018-.295-.03-.447l4.122 5.208c.1.128.204.216.312.264s.24.072.396.072h1.056v-8.742h-1.788v4.626c0 .14.004.289.012.447s.02.321.036.489l-4.152-5.25c-.056-.068-.106-.122-.15-.162s-.09-.071-.138-.093-.102-.037-.162-.045-.134-.012-.222-.012h-1.068v8.742zm14.976 0v-1.56h-3.588v-2.082h2.748v-1.5h-2.748v-2.04h3.588v-1.56h-5.628v8.742zm9.623999 0v-2.922h1.056c.604 0 1.127-.073 1.569-.219s.807-.349 1.095-.609.502-.572.642-.936.21-.764.21-1.2c0-.404-.068-.78-.204-1.128s-.347-.65-.633-.906-.65-.457-1.092-.603-.971-.219-1.587-.219h-3.084v8.742zm1.056-4.452h-1.056v-2.772h1.056c.256 0 .477.032.663.096s.34.155.462.273.213.259.273.423.09.346.09.546c0 .452-.116.804-.348 1.056s-.612.378-1.14.378zm10.272 4.548c.58 0 1.102-.09 1.566-.27s.858-.432 1.182-.756.573-.71.747-1.158.261-.94.261-1.476v-5.178h-2.028v5.178c0 .308-.039.583-.117.825s-.191.447-.339.615-.329.297-.543.387-.457.135-.729.135-.515-.045-.729-.135-.395-.22-.543-.39-.261-.376-.339-.618-.117-.517-.117-.825v-5.172h-2.028v5.178c0 .536.086 1.028.258 1.476s.42.834.744 1.158.718.576 1.182.756.988.27 1.572.27zm9.168-.096v-3.234h.516c.156 0 .277.024.363.072s.161.128.225.24l1.452 2.538c.148.256.392.384.732.384h1.836l-1.86-3.042c-.088-.144-.191-.266-.309-.366s-.245-.184-.381-.252c.284-.108.535-.246.753-.414s.402-.359.552-.573.263-.447.339-.699.114-.52.114-.804c0-.372-.064-.716-.192-1.032s-.333-.59-.615-.822-.646-.413-1.092-.543-.985-.195-1.617-.195h-2.844v8.742zm.816-4.632h-.816v-2.592h.816c.524 0 .911.108 1.161.324s.375.516.375.9c0 .192-.028.371-.084.537s-.146.311-.27.435-.283.221-.477.291-.429.105-.705.105zm10.656 4.728c.724 0 1.351-.117 1.881-.351s.971-.581 1.323-1.041l-.804-.846c-.044-.044-.09-.075-.138-.093s-.096-.027-.144-.027c-.06 0-.118.013-.174.039s-.108.059-.156.099c-.12.104-.239.191-.357.261s-.242.127-.372.171-.271.075-.423.093-.32.027-.504.027c-.32 0-.62-.062-.9-.186s-.525-.305-.735-.543-.376-.531-.498-.879-.183-.746-.183-1.194c0-.428.061-.814.183-1.158s.292-.637.51-.879.479-.428.783-.558.64-.195 1.008-.195c.212 0 .397.016.555.048s.296.071.414.117.22.096.306.15.165.104.237.15.14.085.204.117.132.048.204.048c.108 0 .192-.023.252-.069s.112-.097.156-.153l.684-.918c-.164-.172-.352-.329-.564-.471s-.444-.264-.696-.366-.523-.182-.813-.24-.599-.087-.927-.087c-.676 0-1.294.11-1.854.33s-1.041.528-1.443.924-.715.867-.939 1.413-.336 1.145-.336 1.797c0 .64.098 1.233.294 1.779s.477 1.018.843 1.416.812.71 1.338.936 1.121.339 1.785.339zm8.231999-.096v-3.696h3.552v3.696h2.04v-8.742h-2.04v3.654h-3.552v-3.654h-2.04v8.742zm9.972 0c.168 0 .31-.045.426-.135s.194-.191.234-.303l.516-1.524h3.324l.516 1.524c.044.128.123.233.237.315s.259.123.435.123h1.572l-3.384-8.742h-2.076l-3.384 8.742zm4.032-3.342h-2.388l.804-2.382c.06-.152.124-.332.192-.54s.134-.434.198-.678c.068.24.137.463.207.669s.131.385.183.537zm8.364 3.438c.496 0 .939-.075 1.329-.225s.718-.356.984-.618.469-.569.609-.921.21-.73.21-1.134c0-.364-.056-.675-.168-.933s-.259-.477-.441-.657-.39-.328-.624-.444-.473-.217-.717-.303-.483-.164-.717-.234-.442-.147-.624-.231-.329-.184-.441-.3-.168-.262-.168-.438c0-.276.093-.495.279-.657s.469-.243.849-.243c.22 0 .416.029.588.087s.325.123.459.195.254.137.36.195.205.087.297.087c.104 0 .189-.024.255-.072s.129-.12.189-.216l.504-.942c-.156-.144-.333-.273-.531-.387s-.411-.212-.639-.294-.469-.144-.723-.186-.515-.063-.783-.063c-.48 0-.906.073-1.278.219s-.686.341-.942.585-.45.522-.582.834-.198.632-.198.96c0 .408.056.751.168 1.029s.259.51.441.696.389.336.621.45.47.21.714.288.482.149.714.213.439.138.621.222.329.19.441.318.168.294.168.498c0 .352-.102.609-.306.771s-.49.243-.858.243c-.272 0-.508-.038-.708-.114s-.377-.16-.531-.252-.292-.176-.414-.252-.243-.114-.363-.114c-.092 0-.178.022-.258.066s-.142.102-.186.174l-.6.948c.172.172.374.328.606.468s.48.261.744.363.537.181.819.237.559.084.831.084zm11.832-.096v-1.56h-3.588v-2.082h2.748v-1.5h-2.748v-2.04h3.588v-1.56h-5.628v8.742zm5.399999-3.108c.072-.376.13-.745.174-1.107s.066-.727.066-1.095v-3.432h-1.74v3.432c0 .368.022.733.066 1.095s.102.731.174 1.107zm-.648 3.192c.148 0 .286-.026.414-.078s.24-.124.336-.216.171-.201.225-.327.081-.261.081-.405-.027-.278-.081-.402-.129-.232-.225-.324-.208-.165-.336-.219-.266-.081-.414-.081c-.152 0-.292.027-.42.081s-.239.127-.333.219-.168.2-.222.324-.081.258-.081.402.027.279.081.405.128.235.222.327.205.164.333.216.268.078.42.078z"/><path d="m91.68 219.2c3.4133333 0 6.16-.786667 8.24-2.36s3.653333-3.506667 4.72-5.8l40.72-86.24c.586667-1.28 1.2-2.826667 1.84-4.64s.96-4.186667.96-7.12v-10.4h-81.92v16.32c0 .693333.16 1.373333.48 2.04s.7333333 1.253333 1.24 1.76 1.0933333.906667 1.76 1.2 1.3733333.44 2.12.44h51.28c-1.546667 1.653333-2.973333 3.386667-4.28 5.2s-2.52 3.866667-3.64 6.16l-41.6 83.44zm103.2 1.28c6.186667 0 11.84-.826667 16.96-2.48s9.506667-3.986667 13.16-7 6.48-6.653333 8.48-10.92 3-9.013333 3-14.24c0-3.146667-.373333-6.12-1.12-8.92s-1.906667-5.36-3.48-7.68-3.6-4.386667-6.08-6.2-5.453333-3.333333-8.92-4.56c5.28-2.4 9.226667-5.733333 11.84-10s3.92-9.386667 3.92-15.36c0-4.533333-.933333-8.733333-2.8-12.6s-4.48-7.213333-7.84-10.04-7.346667-5.053333-11.96-6.68-9.666667-2.44-15.16-2.44-10.546667.813333-15.16 2.44-8.6 3.853333-11.96 6.68-5.973333 6.173333-7.84 10.04-2.8 8.066667-2.8 12.6c0 5.973333 1.293333 11.093333 3.88 15.36s6.546667 7.6 11.88 10c-3.52 1.226667-6.52 2.746667-9 4.56s-4.506667 3.88-6.08 6.2-2.72 4.88-3.44 7.68-1.08 5.773333-1.08 8.92c0 5.226667 1 9.973333 3 14.24s4.826667 7.906667 8.48 10.92 8.04 5.346667 13.16 7 10.773333 2.48 16.96 2.48zm0-70.88c-2.773333 0-5.04-.453333-6.8-1.36s-3.146667-2.106667-4.16-3.6-1.706667-3.2-2.08-5.12-.56-3.893333-.56-5.92c0-1.813333.24-3.573333.72-5.28s1.266667-3.213333 2.36-4.52 2.493333-2.36 4.2-3.16 3.813333-1.2 6.32-1.2c2.453333 0 4.546667.4 6.28 1.2s3.146667 1.853333 4.24 3.16 1.88 2.813333 2.36 4.52.72 3.466667.72 5.28c0 2.026667-.186667 4-.56 5.92s-1.066667 3.626667-2.08 5.12-2.4 2.693333-4.16 3.6-4.026667 1.36-6.8 1.36zm0 52.16c-2.826667 0-5.24-.426667-7.24-1.28s-3.653333-2.013333-4.96-3.48-2.266667-3.2-2.88-5.2-.92-4.146667-.92-6.44c0-2.506667.266667-4.8.8-6.88s1.413333-3.853333 2.64-5.32 2.866667-2.613333 4.92-3.44 4.6-1.24 7.64-1.24 5.586667.413333 7.64 1.24 3.693333 1.973333 4.92 3.44 2.106667 3.24 2.64 5.32.8 4.373333.8 6.88c0 2.293333-.306667 4.44-.92 6.44s-1.573333 3.733333-2.88 5.2-2.973333 2.626667-5 3.48-4.426667 1.28-7.2 1.28zm58.32-12.36c1.84 0 3.606667-.346667 5.3-1.04s3.18-1.673333 4.46-2.94 2.306667-2.78 3.08-4.54 1.16-3.706667 1.16-5.84c0-2.213333-.346667-4.22-1.04-6.02s-1.66-3.34-2.9-4.62-2.72-2.273333-4.44-2.98-3.593333-1.06-5.62-1.06-3.886667.353333-5.58 1.06-3.16 1.7-4.4 2.98-2.206667 2.82-2.9 4.62-1.04 3.806667-1.04 6.02c0 2.133333.346667 4.08 1.04 5.84s1.66 3.273333 2.9 4.54 2.706667 2.246667 4.4 2.94 3.553333 1.04 5.58 1.04zm-2.32 29.8c.853333 0 1.58-.166667 2.18-.5s1.1-.753333 1.5-1.26l43.92-56.52h-9.04c-1.04 0-1.853333.193333-2.44.58s-1.08.806667-1.48 1.26l-43.92 56.44zm2.32-37.52c-.64 0-1.226667-.106667-1.76-.32s-.986667-.573333-1.36-1.08-.666667-1.186667-.88-2.04-.32-1.92-.32-3.2c0-1.36.106667-2.486667.32-3.38s.506667-1.606667.88-2.14.826667-.906667 1.36-1.12 1.12-.32 1.76-.32 1.233333.106667 1.78.32 1.02.586667 1.42 1.12.713333 1.246667.94 2.14.34 2.02.34 3.38c0 1.28-.113333 2.346667-.34 3.2s-.54 1.533333-.94 2.04-.873333.866667-1.42 1.08-1.14.32-1.78.32zm33.52 38.24c1.84 0 3.606667-.346667 5.3-1.04s3.18-1.673333 4.46-2.94 2.306667-2.786667 3.08-4.56 1.16-3.726667 1.16-5.86c0-2.213333-.346667-4.22-1.04-6.02s-1.66-3.34-2.9-4.62-2.72-2.273333-4.44-2.98-3.593333-1.06-5.62-1.06-3.886667.353333-5.58 1.06-3.16 1.7-4.4 2.98-2.206667 2.82-2.9 4.62-1.04 3.806667-1.04 6.02c0 2.133333.346667 4.086667 1.04 5.86s1.66 3.293333 2.9 4.56 2.706667 2.246667 4.4 2.94 3.553333 1.04 5.58 1.04zm0-7.76c-.64 0-1.226667-.106667-1.76-.32s-.986667-.573333-1.36-1.08-.666667-1.186667-.88-2.04-.32-1.92-.32-3.2c0-1.333333.106667-2.446667.32-3.34s.506667-1.606667.88-2.14.826667-.906667 1.36-1.12 1.12-.32 1.76-.32 1.233333.106667 1.78.32 1.02.586667 1.42 1.12.713333 1.246667.94 2.14.34 2.006667.34 3.34c0 1.28-.113333 2.346667-.34 3.2s-.54 1.533333-.94 2.04-.873333.866667-1.42 1.08-1.14.32-1.78.32z"/></g></g></svg>