<svg height="305" viewBox="0 0 261 305" width="261" xmlns="http://www.w3.org/2000/svg" xmlns:xlink="http://www.w3.org/1999/xlink"><filter id="a" height="130.5%" width="121.7%" x="-10.8%" y="-15.2%"><feOffset dx="0" dy="2" in="SourceAlpha" result="shadowOffsetOuter1"/><feGaussianBlur in="shadowOffsetOuter1" result="shadowBlurOuter1" stdDeviation="5"/><feColorMatrix in="shadowBlurOuter1" result="shadowMatrixOuter1" type="matrix" values="0 0 0 0 0   0 0 0 0 0   0 0 0 0 0  0 0 0 0.3 0"/><feMerge><feMergeNode in="shadowMatrixOuter1"/><feMergeNode in="SourceGraphic"/></feMerge></filter><linearGradient id="b" x1="8.417612%" x2="83.161423%" y1="39.698599%" y2="62.873935%"><stop offset="0" stop-color="#77b6f2"/><stop offset="1" stop-color="#427fe0"/></linearGradient><linearGradient id="c"><stop offset="0" stop-color="#fde765"/><stop offset="1" stop-color="#f9ca35"/></linearGradient><linearGradient id="d" x1="30.013021%" x2="81.591797%" xlink:href="#c" y1="24.65324%" y2="50%"/><linearGradient id="e" x1="0%" x2="100%" xlink:href="#c" y1="37.472725%" y2="60.026886%"/><filter id="f" height="130.3%" width="121.7%" x="-10.8%" y="-15.1%"><feOffset dx="0" dy="2" in="SourceAlpha" result="shadowOffsetOuter1"/><feGaussianBlur in="shadowOffsetOuter1" result="shadowBlurOuter1" stdDeviation="5"/><feColorMatrix in="shadowBlurOuter1" result="shadowMatrixOuter1" type="matrix" values="0 0 0 0 0   0 0 0 0 0   0 0 0 0 0  0 0 0 0.3 0"/><feMerge><feMergeNode in="shadowMatrixOuter1"/><feMergeNode in="SourceGraphic"/></feMerge></filter><linearGradient id="g" x1="100%" x2="38.86611%" y1="62.779787%" y2="45.104385%"><stop offset="0" stop-color="#da3e3f"/><stop offset="1" stop-color="#ff5254"/></linearGradient><linearGradient id="h" x1="30.058085%" x2="81.520568%" xlink:href="#c" y1="24.617513%" y2="50%"/><linearGradient id="i" x1="0%" x2="100%" xlink:href="#c" y1="37.426719%" y2="60.06371%"/><g fill="none" fill-rule="evenodd" transform="translate(9 8)"><g filter="url(#a)" transform="translate(1)"><path d="m8.33699636 32.4645191 173.02090864-32.19281528c5.539946-1.03007006 10.869819 2.61701274 11.902837 8.14726752l18.365945 98.33466266c1.033982 5.530255-2.620127 10.848917-8.161036 11.879949l-173.0218728 32.191853c-5.5409091 1.031032-10.8698182-2.616051-11.9028364-8.146305l-18.36594544-98.3346628c-1.03301818-5.5302548 2.62109091-10.8489172 8.162-11.8799491" fill="url(#b)"/><path d="m35.1889352 56.5670851c-1.3690639-7.3403402 3.4748009-14.4005658 10.8204841-15.7686339s14.411048 3.4732295 15.7801119 10.8126136c1.3700206 7.3412962-3.4748009 14.4005658-10.8204841 15.7695899-7.3466399 1.3680681-14.411048-3.4732295-15.7801119-10.8135696" fill="#ff5254"/><path d="m18.8381287 59.3842291c-1.3700224-7.3403316 3.4748053-14.3995929 10.8204979-15.7686154 7.3456926-1.3680665 14.4110663 3.4732254 15.7801319 10.813557 1.3690657 7.3403316-3.475762 14.3995929-10.8214546 15.7686154-7.3456925 1.3680665-14.4101095-3.4722694-15.7791752-10.813557" fill="url(#d)"/><g fill="#1f4b80"><path d="m147.723404 57.4798832 35.909469-6.770928 1.867127 10.1330305-35.909469 6.7699546z" opacity=".376415"/><path d="m85.7021277 45.5687656 94.0385013-17.3971238 1.812562 9.6476523-94.0385004 17.3971238z" opacity=".376415"/><path d="m105.43617 65.3679429 35.909517-6.770928 1.867079 10.1330305-35.909517 6.7699546z" opacity=".376415"/><path d="m63.1489362 73.2560026 35.9095164-6.770928 1.8670794 10.1320571-35.9095166 6.770928z" opacity=".376415"/><path d="m20.8617021 81.1440623 35.9104314-6.770928 1.8661644 10.1320571-35.9094689 6.770928z" opacity=".376415"/></g><path d="m153.221061 81.5426976 32.262219-5.9753442c2.155497-.3986749 4.227277 1.0134184 4.628546 3.1530697l3.214001 17.1267705c.401269 2.1415633-1.020012 4.1999504-3.174548 4.5986244l-32.262218 5.975345c-2.154536.399631-4.227277-1.012463-4.628546-3.15307l-3.214001-17.1267705c-.401269-2.1406073 1.020012-4.1999499 3.174547-4.5986249" fill="url(#e)"/><path d="m179.861702 101.981343-4.510638-24.791044" stroke="#d5b566" stroke-width=".882"/><path d="m166.893617 104.798507-4.510638-24.791044" stroke="#d5b566" stroke-width=".882"/><path d="m150.542553 88.458955 40.031915-7.888059" stroke="#d5b566" stroke-width=".882"/><path d="m152.797872 101.41791 40.031915-7.888059" stroke="#d5b566" stroke-width=".882"/><path d="m134.973274 88.24702c-3.4183 5.8983869-2.018719 13.460621 3.280177 17.721432.424027.343473.584366.927279.319711 1.328159s-.916634.434935-1.406342.039893c-5.971159-4.801804-7.547498-13.3243994-3.696478-19.9710311.315848-.5468316.936918-.7511637 1.326173-.4728829.391187.2782809.450107.8805741.176759 1.35443" fill="#fff" opacity=".232394"/><path d="m138.775637 89.8773933c-2.319401 4.2695538-1.338702 9.6498146 2.329874 12.7784847.391327.33584.543669.894601.294209 1.280087-.247555.384513-.877868.409823-1.34727.008761-4.27223-3.643625-5.413839-9.9087522-2.713585-14.8811373.297066-.5470792.893103-.7563711 1.260627-.4886722.368476.2686724.422748.8449551.176145 1.3024768" fill="#fff" opacity=".232394"/><path d="m142.830638 90.8851469c-1.679602 3.2202173-.956712 7.2425896 1.728043 9.6190941.324183.288003.452738.762531.244068 1.092091-.030741.045423-.060551.090846-.089429.13627-.207738.327627-.748974.341157-1.15234-.01643-3.235306-2.8626302-4.106315-7.7084194-2.082035-11.5877569.251521-.4851588.761084-.6745833 1.068498-.4465007.043784.0309265.087567.0628194.13135.0937458.308347.2280827.353993.7190402.151845 1.1094867" fill="#fff" opacity=".232394"/></g><g filter="url(#f)" transform="matrix(.80901699 .58778525 -.58778525 .80901699 90.162371 68.706487)"><path d="m8.32969144 32.4955797 172.86930756-32.22361592c5.535091-1.03105559 10.860294 2.61951657 11.892407 8.15506244l18.349853 98.42874478c1.033076 5.535546-2.617832 10.859297-8.153886 11.891315l-172.8702698 32.222653c-5.5360541 1.032018-10.860294-2.618554-11.8924071-8.1541l-18.34985307-98.4287441c-1.03211305-5.5355459 2.6187943-10.8592969 8.15484841-11.8913152" fill="url(#g)"/><path d="m35.1581025 56.6212058c-1.3678643-7.347363 3.4717563-14.4143435 10.8110031-15.7837205 7.3392469-1.369377 14.3984209 3.4765525 15.7662852 10.8229586 1.3688202 7.34832-3.4717562 14.4143436-10.8110031 15.7846775-7.3402027 1.369377-14.3984209-3.4765525-15.7662852-10.8239156" fill="#f7f7f7"/><path d="m18.8216226 59.4410452c-1.3688219-7.3473545 3.4717607-14.4133698 10.8110169-15.7837021 7.3392563-1.3693754 14.3984393 3.4765484 15.7663053 10.8239029 1.3678661 7.3473545-3.4727165 14.4133698-10.8119728 15.7837021-7.3392562 1.3693754-14.3974833-3.4755915-15.7653494-10.8239029" fill="url(#h)"/><g fill="#1f4b80"><path d="m147.593968 57.5348773 35.878005-6.7774061 1.865491 10.1427253-35.878005 6.7764318z" opacity=".376415"/><path d="m85.627035 45.6123637 93.956104-17.4137686 1.810975 9.6568828-93.9561043 17.4137685z" opacity=".376415"/><path d="m105.343786 65.4304839 35.878053-6.7774061 1.865443 10.1427254-35.878052 6.7764317z" opacity=".376415"/><path d="m63.0936047 73.3260906 35.8780524-6.7774061 1.8654429 10.141751-35.878052 6.777406z" opacity=".376415"/><path d="m20.843423 81.2216972 35.8789664-6.7774061 1.8645293 10.141751-35.8780049 6.7774061z" opacity=".376415"/></g><path d="m153.086808 81.6207139 32.23395-5.9810611c2.153609-.3990564 4.223573 1.014388 4.624491 3.1560863l3.211185 17.1431567c.400917 2.1436123-1.019119 4.2039682-3.171766 4.6030242l-32.23395 5.981062c-2.152648.400013-4.223574-1.013431-4.624491-3.156087l-3.211185-17.1431564c-.400917-2.1426554 1.019119-4.2039683 3.171766-4.6030247" fill="url(#i)"/><path d="m179.704106 102.078914-4.506686-24.814763" stroke="#d5b566" stroke-width=".882"/><path d="m166.747384 104.898774-4.506686-24.814764" stroke="#d5b566" stroke-width=".882"/><path d="m150.410647 88.543589 39.996839-7.895607" stroke="#d5b566" stroke-width=".882"/><path d="m152.66399 101.514942 39.996839-7.895606" stroke="#d5b566" stroke-width=".882"/><path d="m134.85501 88.3314507c-3.415305 5.9040302-2.016951 13.4734993 3.277302 17.7383873.423656.343801.583854.928166.319431 1.329429-.264423.401264-.91583.435352-1.40511.039932-5.965926-4.806399-7.540884-13.337148-3.693238-19.9901388.315571-.5473549.936096-.7518825 1.325011-.4733353.390844.2785471.449712.8814165.176604 1.3557258" fill="#fff" opacity=".232394"/><path d="m138.654041 89.9633838c-2.317369 4.2736388-1.337529 9.6590472 2.327832 12.7907102.390985.336162.543193.895457.293952 1.281312-.247338.384881-.877099.410215-1.34609.00877-4.268486-3.647111-5.409095-9.918233-2.711207-14.8953754.296806-.5476026.89232-.7570947 1.259522-.4891397.368153.2689294.422378.8457635.175991 1.3037229" fill="#fff" opacity=".232394"/><path d="m142.705489 90.9721016c-1.678131 3.2232983-.955874 7.249519 1.726529 9.6282974.323898.288278.452341.76326.243854 1.093136-.030714.045466-.060498.090933-.089351.1364-.207556.32794-.748318.341484-1.15133-.016446-3.232471-2.8653687-4.102717-7.7157942-2.080211-11.5988432.251301-.4856229.760417-.6752287 1.067563-.4469279.043745.0309561.087489.0628795.131234.0938355.308076.2283009.353683.7197281.151712 1.1105482" fill="#fff" opacity=".232394"/></g></g></svg>