<svg height="503" viewBox="0 0 334 503" width="334" xmlns="http://www.w3.org/2000/svg"><g fill="none" fill-rule="evenodd"><path d="m23.6752752 66.6216365v12.3028369c0 72.4837786 64.2947503 131.4538896 143.3242488 131.4538896 79.028548 0 143.325201-58.970111 143.325201-131.4538896v-12.3028369zm143.3242488 167.3783635c-92.0836184 0-166.999524-69.566778-166.999524-155.0755266v-35.9244734h334v35.9244734c0 85.5087486-74.915906 155.0755266-167.000476 155.0755266z" fill="#f4cd0c"/><path d="m36 26h262v-26h-262z" fill="#f4cd0c"/><path d="m39 503h259v-18h-259z" fill="#427fe0"/><path d="m249.092155 376h-163.1843098c-10.7815773 0-20.0120472 6.741184-21.9078452 16h207c-1.894846-9.258816-11.126268-16-21.907845-16" fill="#427fe0"/><path d="m283.246851 389h-229.4937017c-2.6250867 0-4.7531493 2.131648-4.7531493 4.761157v92.238843h239v-92.238843c0-2.629509-2.128063-4.761157-4.753149-4.761157" fill="#427fe0"/><path d="m66 464.004568v-51.009136c0-2.758813 2.2421281-4.995432 5.0077362-4.995432h192.9854778c2.765608 0 5.006786 2.236619 5.006786 4.995432v51.009136c0 2.758813-2.241178 4.995432-5.006786 4.995432h-192.9854778c-2.7656081 0-5.0077362-2.236619-5.0077362-4.995432" fill="#e3e3e3"/><path d="m179.172432 223h-11.671955-11.672909c-2.3996 46.574455-16.113647 117.808832-67.827568 136h79.500477 79.499523c-51.713921-18.191168-65.427968-89.425545-67.827568-136" fill="#f4cd0c"/><path d="m182 257.827896c-1.527311.121533-3.079363.172104-4.630464.172104-2.985155 0-5.957939-.192496-8.895515-.588907 0 0-.022838 0-.022838-.019576-5.566834-.741435-11.073717-2.243882-16.451183-4.324633.058999-.355628.117998-.711256.176997-1.066884 1.906997.426591 3.813995.772431 5.744782 1.026101 0 .020392.011419.020392.011419.020392 2.937575.395595 5.91036.588091 8.894563.588091 4.761784 0 9.475988-.507341 14.12929-1.512235.320688 1.888255.664214 3.786297 1.042949 5.705547" fill="#f4cd0c"/><path d="m182.709564 256.893605c-.222403-1.369073-.433496-2.725603-.645533-4.07152-.128164-.900173-.25727-1.788768-.387319-2.677363-.468364.119637-.937671.240239-1.406978.336721-4.152139.972534-8.350455 1.452047-12.585523 1.452047-2.955313 0-5.899317-.227697-8.808454-.695632 0 0-.011308 0-.011308-.02412-1.912095-.300058-3.80063-.70914-5.689166-1.213738-.058428.420659-.116855.841319-.175283 1.261978 5.325406 2.461244 10.778976 4.238434 16.291916 5.115451 0 .023155.022617.023155.022617.023155 2.909136.4689 5.85314.696597 8.809395.696597.914112 0 1.829166-.023156 2.744219-.071397 4.046593 39.267015 16.386155 82.13665 47.608243 101.974216h17.52361c-39.327524-14.181819-56.416695-60.161053-63.290436-102.106395" fill="#be8217"/><path d="m49 13c.1791588 133.161605 54.058301 241 120.499524 241 66.441222 0 120.320364-107.838395 120.500476-241z" fill="#f4cd0c"/><path d="m49 13c.1791588 133.161605 54.058301 241 120.499524 241 66.441222 0 120.320364-107.838395 120.500476-241z" fill="#f4cd0c"/><path d="m158 253.201032c-.235964 39.696768-12.96014 84.812909-43.420135 108.147737l-21.579865.651231c40.742747-16.112773 58.798198-65.325061 64.093749-109 .235964.035865.882749.188763.906251.201032" fill="#faed1d"/><g fill="#427fe0"><path d="m73 412.999663c0 1.104865-.8956229 2.000337-2 2.000337-1.1050505 0-2-.895472-2-2.000337 0-1.104864.8949495-1.999663 2-1.999663 1.1043771 0 2 .894799 2 1.999663"/><path d="m73 461.999663c0 1.104865-.8956229 2.000337-2 2.000337-1.1050505 0-2-.895472-2-2.000337 0-1.104191.8949495-1.999663 2-1.999663 1.1043771 0 2 .895472 2 1.999663"/><path d="m261 412.999663c0 1.104865.895623 2.000337 2.000673 2.000337 1.104378 0 1.999327-.895472 1.999327-2.000337 0-1.104864-.894949-1.999663-1.999327-1.999663-1.10505 0-2.000673.894799-2.000673 1.999663"/><path d="m261 461.999663c0 1.104865.895623 2.000337 2.000673 2.000337 1.104378 0 1.999327-.895472 1.999327-2.000337 0-1.104191-.894949-1.999663-1.999327-1.999663-1.10505 0-2.000673.895472-2.000673 1.999663"/></g><path d="m88 373h159v-16h-159z" fill="#e39c22"/><path d="m229 373h18v-16h-18z" fill="#be8217"/><path d="m104 373h16v-16h-16z" fill="#faed1d"/><path d="m148.416922 247.043358c-6.871378-4.722801-12.924667-10.421526-18.253607-16.613411-5.991744-6.963745-11.094383-14.563306-15.525698-22.455739-4.980495-8.867414-9.123963-18.125954-12.650078-27.563052-3.9067527-10.455537-7.0569629-21.145372-9.6267467-31.941018-2.7979775-11.755512-4.9056925-23.645178-6.4547589-35.588695-1.6579555-12.786232-2.6729917-25.6385977-3.1360073-38.5022999-.4866871-13.560927-.3948415-27.1511412.3323486-40.6950627.1477105-2.754888.3011022-5.5126103.5274022-8.2627746 0 0-2.4940347-.1162042-3.9124342-.1813918v-25.239914h-20.7173427v29.3382351h8.005719c-.0094686.2890932-.0255652.5800759-.034087.869169-.0094686.2078448-.0198841.4260818-.0170435.6339266-.0634398 1.8469843-.1136235 3.6845211-.1401356 5.5220578-.0331402 1.716609-.0539711 3.4237704-.0634398 5.1309318-.0113623.2513032-.0113623.5026065.0009469.7444622-.3834791 107.1732695 35.836837 202.8272155 92.24804 210.7612175-3.530849-1.706217-7.383631-3.757267-10.583078-5.956642" fill="#faed1d"/><path d="m266.846607 0v26.5031772h-6.135894c-4.452096 112.2804288-43.036604 203.9910718-93.710713 228.4854248.299172.011398.608891.011398.919569.011398.524509 0 1.037512-.011398 1.56298-.023745 64.016972-1.607059 116.075709-102.137531 119.512347-228.4730778h11.005104v-26.5031772z" fill="#be8217"/><path d="m169.421642 77.3658012 9.072629 26.0895518c.279276.803947 1.030068 1.347878 1.880328 1.365085l27.630106.563049c1.927192.039194 2.722936 2.488315 1.186921 3.652652l-22.021641 16.686913c-.678104.514296-.964074 1.394718-.718274 2.20918l8.002392 26.437515c.558551 1.844967-1.525495 3.358222-3.108375 2.257934l-22.683486-15.776857c-.698188-.486574-1.624962-.486574-2.324108 0l-22.683485 15.776857c-1.58288 1.100288-3.666926-.412967-3.108375-2.257934l8.002391-26.437515c.246758-.814462-.040169-1.694884-.717317-2.20918l-22.022597-16.686913c-1.536972-1.164337-.740272-3.613458 1.187877-3.652652l27.62915-.563049c.85026-.017207 1.601052-.561138 1.880327-1.365085l9.072629-26.0895518c.634109-1.8210683 3.209756-1.8210683 3.842908 0" fill="#e58b0a"/></g></svg>