<svg height="367" viewBox="0 0 319 367" width="319" xmlns="http://www.w3.org/2000/svg" xmlns:xlink="http://www.w3.org/1999/xlink"><filter id="a" height="141.8%" width="103.9%" x="-1.9%" y="-20.9%"><feGaussianBlur in="SourceGraphic" stdDeviation="1.65066964"/></filter><linearGradient id="b" x1="55.606046%" x2="57.976239%" y1="93.955692%" y2="0%"><stop offset="0" stop-color="#0056ff"/><stop offset="1" stop-color="#bcd1ff"/></linearGradient><linearGradient id="c" x1="55.62513%" x2="58.003391%" y1="93.955692%" y2="0%"><stop offset="0" stop-color="#2952a4"/><stop offset="1" stop-color="#6d98f4"/></linearGradient><g fill="none" fill-rule="evenodd" transform="translate(-24 -59)"><ellipse cx="181.643312" cy="410.101911" fill="#000" filter="url(#a)" opacity=".14786" rx="127.961783" ry="11.859873"/><path d="m227.781253 364.503484c79.331356.037976 79.988119-86.793001 79.951343-165.683382-.038709-78.89038-.77803-164.6250425-80.109385-164.6630409-79.331356-.0379784-143.5901642 108.5435759-143.5524384 187.4339569.0377589 78.89038 64.3791254 142.874465 143.7104804 142.912466z" fill="url(#b)" opacity=".353714" transform="matrix(-.39073113 .92050485 -.92050485 -.39073113 455.931054 96.886365)"/><path d="m227.664239 364.35429c79.394445-.04576 80.143317-86.808483 80.190087-165.636182.044107-78.8277-.605372-164.4935055-79.999817-164.4477889-79.394446.0457532-143.8189181 108.6088819-143.8643809 187.4365809-.0454146 78.827699 64.2796649 142.6931 143.6741109 142.64739z" fill="url(#c)" transform="matrix(.8660254 .5 -.5 .8660254 125.904753 -71.258328)"/><path d="m69.1574549.02773161-17.2368167-.02773161c-19.3649723 0-31.8794682 12.8744007-31.8794682 32.8009503v15.1234344h-17.33084824c-1.49759106 0-2.71032176 1.2174177-2.71032176 2.7190845v21.9121329c0 1.5016668 1.21411352 2.717698 2.71032176 2.717698h17.33084824v55.2912869c0 1.501667 1.2127307 2.717698 2.7103218 2.717698h22.6118272c1.497591 0 2.7103217-1.217417 2.7103217-2.717698v-55.2912869h20.2638036c1.497591 0 2.7103218-1.2160312 2.7103218-2.717698l.0082969-21.9121329c0-.7210219-.2862432-1.411539-.7937371-1.9218007-.5074939-.5102616-1.1989026-.7972838-1.9179675-.7972838h-20.2707177v-12.8203241c0-6.1619641 1.4644035-9.2900899 9.4695324-9.2900899l11.6115162-.0041597c1.4962082 0 2.7089389-1.2174178 2.7089389-2.717698v-20.34668345c0-1.49889361-1.2113479-2.71492478-2.7061733-2.71769794z" fill="#fff" fill-rule="nonzero" transform="translate(147.312102 151.057325)"/></g></svg>