<svg height="235" viewBox="0 0 336 235" width="336" xmlns="http://www.w3.org/2000/svg" xmlns:xlink="http://www.w3.org/1999/xlink"><filter id="a" height="127.4%" width="118.7%" x="-9.3%" y="-13.7%"><feOffset dx="0" dy="5" in="SourceAlpha" result="shadowOffsetOuter1"/><feGaussianBlur in="shadowOffsetOuter1" result="shadowBlurOuter1" stdDeviation="5"/><feColorMatrix in="shadowBlurOuter1" result="shadowMatrixOuter1" type="matrix" values="0 0 0 0 0   0 0 0 0 0   0 0 0 0 0  0 0 0 0.25 0"/><feMerge><feMergeNode in="shadowMatrixOuter1"/><feMergeNode in="SourceGraphic"/></feMerge></filter><linearGradient id="b" x1="50%" x2="50%" y1="0%" y2="100%"><stop offset="0" stop-color="#ff5254"/><stop offset=".67232659" stop-color="#ff5254" stop-opacity=".133693"/><stop offset="1" stop-color="#ff5254" stop-opacity="0"/></linearGradient><g fill="none" fill-rule="evenodd" transform="translate(10 5)"><g filter="url(#a)"><rect fill="#fff" height="215" rx="13" width="315.329087"/><path d="m13 0h290c7.179702 0 13 5.82029825 13 13v15.21875h-316v-15.21875c0-7.17970175 5.82029825-13 13-13z" fill="#ff5254"/><path d="m0 43h315.329087v-14.78125h-315.329087z" fill="#e9eced"/><g fill="#fff"><path d="m42.9384289 15.453743c0 2.2260559-1.8019922 4.030632-4.0248606 4.030632s-4.0260948-1.8045761-4.0260948-4.030632 1.8032264-4.031868 4.0260948-4.031868 4.0248606 1.8058121 4.0248606 4.031868"/><path d="m31.5329087 15.453743c0 2.2260559-1.8032264 4.030632-4.0260948 4.030632s-4.0248606-1.8045761-4.0248606-4.030632 1.8019922-4.031868 4.0248606-4.031868 4.0260948 1.8058121 4.0260948 4.031868"/><path d="m20.7983015 15.453743c0 2.2260559-1.8019922 4.030632-4.0260948 4.030632-2.2228685 0-4.0248606-1.8045761-4.0248606-4.030632s1.8019921-4.031868 4.0248606-4.031868c2.2241026 0 4.0260948 1.8058121 4.0260948 4.031868"/><path d="m52.3340963 12.765625h224.0791537c1.113199 0 2.015625.9024261 2.015625 2.015625s-.902426 2.015625-2.015625 2.015625h-224.0791537c-1.1131989 0-2.015625-.9024261-2.015625-2.015625s.9024261-2.015625 2.015625-2.015625z"/><path d="m294.864981 10.078125.871133 2.5663066h2.820149l-2.281837 1.5861368.872393 2.5663066-2.281838-1.5861368-2.280576 1.5861368.871132-2.5663066-2.279316-1.5861368h2.818889z"/></g><g transform="translate(20.798301 114.21875)"><path d="m0 29.5625h150.135892v-5.1734375h-150.135892z" fill="#dadfe1"/><path d="m0 16.9984375h213.096105v-5.1734375h-213.096105z" fill="#dadfe1"/><path d="m0 5.1734375h125.460722v-5.1734375h-125.460722z" fill="#427fe0"/></g><g transform="translate(20.798301 159.234375)"><path d="m0 29.5625h150.135892v-5.1734375h-150.135892z" fill="#dadfe1"/><path d="m0 16.9984375h213.096105v-5.1734375h-213.096105z" fill="#dadfe1"/><path d="m0 5.1734375h125.460722v-5.1734375h-125.460722z" fill="#427fe0"/></g><path d="m15.430998 57.109375h279.770701v41.65625h-279.770701z" fill="#eff1f4"/><g transform="translate(20.798301 63.15625)"><path d="m0 29.5625h150.135892v-5.1734375h-150.135892z" fill="#dadfe1"/><path d="m0 16.9984375h213.096105v-5.1734375h-213.096105z" fill="#dadfe1"/><path d="m0 5.1734375h125.460722v-5.1734375h-125.460722z" fill="#427fe0"/></g></g><path d="m264 109h13v75h-13z" fill="url(#b)"/><path d="m271 87 17 25h-34z" fill="#ff5254"/></g></svg>