<?xml version="1.0" encoding="UTF-8"?>
<svg width="366px" height="412px" viewBox="0 0 366 412" version="1.1" xmlns="http://www.w3.org/2000/svg" xmlns:xlink="http://www.w3.org/1999/xlink">
    <!-- Generator: Sketch 63.1 (92452) - https://sketch.com -->
    <title>img_tailored</title>
    <desc>Created with Sketch.</desc>
    <g id="Website" stroke="none" stroke-width="1" fill="none" fill-rule="evenodd">
        <g id="Magento-SEO" transform="translate(-197.000000, -3019.000000)">
            <g id="img_tailored" transform="translate(197.000000, 3019.000000)">
                <g id="shutterstock_1450263662-[Converted]" transform="translate(27.000000, 0.000000)" fill-rule="nonzero">
                    <g id="Group" transform="translate(0.239707, 0.000000)">
                        <path d="M164.455658,233.22 L266.392465,335.56 C270.905059,340.09 278.216856,340.09 282.72945,335.56 L333.692873,284.4 C338.205467,279.87 338.205467,272.53 333.692873,268 L315.712228,249.95 L284.871189,280.91 C283.775415,282.01 282.340948,282.56 280.89652,282.56 C279.462053,282.56 278.017624,282.01 276.921851,280.91 C274.730304,278.71 274.730304,275.14 276.921851,272.94 L307.76289,241.98 L287.620584,221.76 L273.644493,235.8 C272.548719,236.9 271.114252,237.45 269.669824,237.45 C268.235357,237.45 266.790928,236.9 265.695155,235.8 C263.503608,233.6 263.503608,230.03 265.695155,227.83 L279.681208,213.79 L259.538901,193.57 L228.697862,224.53 C227.602088,225.63 226.167621,226.18 224.723193,226.18 C223.288726,226.18 221.844297,225.63 220.748524,224.53 C218.556977,222.33 218.556977,218.76 220.748524,216.56 L251.589563,185.6 L231.736142,165.67 L172.385073,106.09 L150.021335,83.61 L116.371131,117.39 C115.275357,118.49 113.84089,119.04 112.396462,119.04 C110.961995,119.04 109.517567,118.49 108.421793,117.39 C106.230246,115.19 106.230246,111.62 108.421793,109.42 L142.071997,75.64 L121.92969,55.42 L105.134473,72.28 C104.0387,73.38 102.604233,73.93 101.159804,73.93 C99.7253373,73.93 98.2809088,73.38 97.1851354,72.28 C94.9935887,70.08 94.9935887,66.51 97.1851354,64.31 L113.980353,47.45 L93.8380459,27.23 L60.1978037,61 C59.1020304,62.1 57.6675634,62.65 56.2231349,62.65 C54.788668,62.65 53.3442395,62.1 52.2484661,61 C50.0569194,58.8 50.0569194,55.23 52.2484661,53.03 L85.8986698,19.25 L70.7271896,4.02 C66.2145957,-0.51 58.9027989,-0.51 54.3902049,4.02 L3.42678214,55.17 C-1.08581178,59.71 -1.08581178,67.05 3.42678214,71.58 L105.094627,173.64 L164.455658,233.22 Z" id="Path" fill="#FFDA00"></path>
                        <g transform="translate(0.199232, 0.000000)">
                            <path d="M235.093194,42.97 L172.215726,106.1 L104.915318,173.66 L29.1475714,249.72 C24.0073982,254.88 20.4710387,261.05 18.5683777,267.6 C18.1699146,268.86 3.07812698,318.63 0.657464016,325.69 C-1.79308368,332.84 4.09420773,340.84 12.9500488,338.56 C28.3307221,334.6 69.7409936,320.18 69.7409936,320.18 L69.7011473,320.14 C76.5945578,318.3 83.0795438,314.7 88.478718,309.28 L164.266388,233.22 L231.546872,165.66 L294.42434,102.55 L235.093194,42.97 Z M222.073414,105.29 L81.6450769,246.25 C80.0113784,247.91 77.8497164,248.73 75.698016,248.73 C73.536354,248.73 71.374692,247.91 69.731032,246.25 C66.4437119,242.95 66.4437119,237.6 69.731032,234.3 L210.149407,93.34 C213.436727,90.02 218.786094,90.02 222.073414,93.34 C225.370695,96.64 225.370695,101.98 222.073414,105.29 Z" id="Shape" fill="#4A90E2"></path>
                            <path d="M222.073414,105.29 L81.6450769,246.25 C80.0113784,247.91 77.8497164,248.73 75.698016,248.73 C73.536354,248.73 71.374692,247.91 69.731032,246.25 C66.4437119,242.95 66.4437119,237.6 69.731032,234.3 L210.149407,93.34 C213.436727,90.02 218.786094,90.02 222.073414,93.34 C225.370695,96.64 225.370695,101.98 222.073414,105.29 Z" id="Path" fill="#336097"></path>
                            <path d="M325.544304,71.96 C341.931096,55.51 341.931096,28.83 325.544304,12.38 C309.167473,-4.07 282.570065,-4.07 266.203195,12.38 L244.945192,33.71 L304.296262,93.29 L325.544304,71.96 Z" id="Path" fill="#FF5254"></path>
                        </g>
                        <polygon id="Path" fill="#F7F7F7" points="294.633533 102.55 304.485532 93.3 245.144424 33.72 235.292425 42.97"></polygon>
                    </g>
                </g>
                <ellipse id="Oval-4" fill="#000000" opacity="0.05" cx="183" cy="398" rx="183" ry="14"></ellipse>
            </g>
        </g>
    </g>
</svg>