<svg height="313" viewBox="0 0 318 313" width="318" xmlns="http://www.w3.org/2000/svg" xmlns:xlink="http://www.w3.org/1999/xlink"><defs><linearGradient id="a" x1="94.364083%" x2="9.090134%" y1="0%" y2="100%"><stop offset="0" stop-color="#addbff"/><stop offset="1" stop-color="#74b5ff"/></linearGradient><rect id="b" height="258" rx="129" width="258" x="28" y="43"/><filter id="c" height="112.4%" width="112.4%" x="-6.2%" y="-5.4%"><feOffset dx="0" dy="2" in="SourceAlpha" result="shadowOffsetOuter1"/><feGaussianBlur in="shadowOffsetOuter1" result="shadowBlurOuter1" stdDeviation="5"/><feColorMatrix in="shadowBlurOuter1" type="matrix" values="0 0 0 0 0   0 0 0 0 0   0 0 0 0 0  0 0 0 0.2 0"/></filter><filter id="d" height="132.9%" width="132.4%" x="-16.2%" y="-16.4%"><feOffset dx="0" dy="2" in="SourceAlpha" result="shadowOffsetOuter1"/><feGaussianBlur in="shadowOffsetOuter1" result="shadowBlurOuter1" stdDeviation="2"/><feColorMatrix in="shadowBlurOuter1" result="shadowMatrixOuter1" type="matrix" values="0 0 0 0 0   0 0 0 0 0   0 0 0 0 0  0 0 0 0.251302083 0"/><feMerge><feMergeNode in="shadowMatrixOuter1"/><feMergeNode in="SourceGraphic"/></feMerge></filter><linearGradient id="e" x1="19.259366%" x2="67.903471%" y1="6.739532%" y2="98.452342%"><stop offset="0" stop-color="#fde765"/><stop offset="1" stop-color="#f9ca35"/></linearGradient><linearGradient id="f" x1="50%" x2="64.605575%" y1="1.836025%" y2="90.255822%"><stop offset="0" stop-color="#fce141"/><stop offset="1" stop-color="#efbe23"/></linearGradient><filter id="g" height="132.9%" width="132.4%" x="-16.2%" y="-16.4%"><feOffset dx="0" dy="2" in="SourceAlpha" result="shadowOffsetOuter1"/><feGaussianBlur in="shadowOffsetOuter1" result="shadowBlurOuter1" stdDeviation="2"/><feColorMatrix in="shadowBlurOuter1" result="shadowMatrixOuter1" type="matrix" values="0 0 0 0 0   0 0 0 0 0   0 0 0 0 0  0 0 0 0.251302083 0"/><feMerge><feMergeNode in="shadowMatrixOuter1"/><feMergeNode in="SourceGraphic"/></feMerge></filter><filter id="h" height="132.9%" width="132.4%" x="-16.2%" y="-16.4%"><feOffset dx="0" dy="2" in="SourceAlpha" result="shadowOffsetOuter1"/><feGaussianBlur in="shadowOffsetOuter1" result="shadowBlurOuter1" stdDeviation="2"/><feColorMatrix in="shadowBlurOuter1" result="shadowMatrixOuter1" type="matrix" values="0 0 0 0 0   0 0 0 0 0   0 0 0 0 0  0 0 0 0.251302083 0"/><feMerge><feMergeNode in="shadowMatrixOuter1"/><feMergeNode in="SourceGraphic"/></feMerge></filter><filter id="i" height="145.4%" width="120.3%" x="-10.2%" y="-22.7%"><feOffset dx="0" dy="2" in="SourceAlpha" result="shadowOffsetOuter1"/><feGaussianBlur in="shadowOffsetOuter1" result="shadowBlurOuter1" stdDeviation="6.5"/><feColorMatrix in="shadowBlurOuter1" result="shadowMatrixOuter1" type="matrix" values="0 0 0 0 0   0 0 0 0 0   0 0 0 0 0  0 0 0 0.2 0"/><feMerge><feMergeNode in="shadowMatrixOuter1"/><feMergeNode in="SourceGraphic"/></feMerge></filter><mask id="j" fill="#fff"><path d="m.198875 27.3171688c0 15.038 12.23664 26.5012122 27.3282 26.5012122 15.09304 0 27.3282-11.4632122 27.3282-26.5012122 0-15.0394747-12.23516-27.23268684-27.3282-27.23268684-15.09156 0-27.3282 12.19321214-27.3282 27.23268684z" fill="#fff" fill-rule="evenodd"/></mask><mask id="k" fill="#fff"><path d="m.037 27.7385253c0 15.038 12.23664 26.5012121 27.3282 26.5012121 15.09304 0 27.3282-11.4632121 27.3282-26.5012121 0-15.0394748-12.23516-27.23268692-27.3282-27.23268692-15.09156 0-27.3282 12.19321212-27.3282 27.23268692z" fill="#fff" fill-rule="evenodd"/></mask><mask id="l" fill="#fff"><path d="m.198875 27.3171688c0 15.038 12.23664 26.5012122 27.3282 26.5012122 15.09304 0 27.3282-11.4632122 27.3282-26.5012122 0-15.0394747-12.23516-27.23268684-27.3282-27.23268684-15.09156 0-27.3282 12.19321214-27.3282 27.23268684z" fill="#fff" fill-rule="evenodd"/></mask><mask id="m" fill="#fff"><path d="m.037 27.7385253c0 15.038 12.23664 26.5012121 27.3282 26.5012121 15.09304 0 27.3282-11.4632121 27.3282-26.5012121 0-15.0394748-12.23516-27.23268692-27.3282-27.23268692-15.09156 0-27.3282 12.19321212-27.3282 27.23268692z" fill="#fff" fill-rule="evenodd"/></mask><mask id="n" fill="#fff"><path d="m.198875 27.3171688c0 15.038 12.23664 26.5012122 27.3282 26.5012122 15.09304 0 27.3282-11.4632122 27.3282-26.5012122 0-15.0394747-12.23516-27.23268684-27.3282-27.23268684-15.09156 0-27.3282 12.19321214-27.3282 27.23268684z" fill="#fff" fill-rule="evenodd"/></mask><mask id="o" fill="#fff"><path d="m.037 27.7385253c0 15.038 12.23664 26.5012121 27.3282 26.5012121 15.09304 0 27.3282-11.4632121 27.3282-26.5012121 0-15.0394748-12.23516-27.23268692-27.3282-27.23268692-15.09156 0-27.3282 12.19321212-27.3282 27.23268692z" fill="#fff" fill-rule="evenodd"/></mask></defs><g fill="none" fill-rule="evenodd" transform="translate(6)"><use fill="#000" filter="url(#c)" xlink:href="#b"/><use fill="url(#a)" fill-rule="evenodd" xlink:href="#b"/><g filter="url(#d)" transform="translate(36 64)"><path d="m64.568996 41.922499c0 15.1795757-12.3506 26.7489697-27.58424 26.7489697-15.23216 0-27.58128-11.569394-27.58128-26.7489697 0-15.1795758 12.34912-27.4863434 27.58128-27.4863434 15.23364 0 27.58424 12.3067676 27.58424 27.4863434" fill="#ffc30d"/><path d="m36.9852 72.6084545c-20.58976 0-36.71732-15.6824646-36.71732-35.7021616 0-20.1745454 16.47092-36.58848482 36.71732-36.58848482s36.7188 16.41393942 36.7188 36.58848482c0 20.019697-16.12904 35.7021616-36.7188 35.7021616" fill="url(#e)"/><path d="m36.9852 5.41099596c-17.44476 0-31.63648 14.14282824-31.63648 31.52567674 0 17.1468889 13.89572 30.5788889 31.63648 30.5788889s31.63796-13.432 31.63796-30.5788889c0-17.3828485-14.19172-31.52567674-31.63796-31.52567674" fill="#f0a700"/><path d="m36.9852 6.94473333c-17.01408 0-30.85652 13.79331317-30.85652 30.74701007 0 16.7221617 13.55384 29.8238182 30.85652 29.8238182s30.858-13.1016565 30.858-29.8238182c0-16.9536969-13.84244-30.74701007-30.858-30.74701007" fill="url(#f)"/><g fill="#fd0"><path d="m.329115 47.7300335-4.588-4.5731919 54.39444-54.201394 4.58948 4.57171719z" mask="url(#j)" opacity=".445145" transform="translate(9.458125 9.5117)"/><path d="m9.407176 66.3999152-10.77292-10.7346869 58.7264-58.51650507 10.77292 10.73321212z" mask="url(#k)" opacity=".445145" transform="translate(9.62 9.090343)"/></g></g><g filter="url(#g)" transform="translate(73 180)"><path d="m64.568996 41.922499c0 15.1795757-12.3506 26.7489697-27.58424 26.7489697-15.23216 0-27.58128-11.569394-27.58128-26.7489697 0-15.1795758 12.34912-27.4863434 27.58128-27.4863434 15.23364 0 27.58424 12.3067676 27.58424 27.4863434" fill="#ffc30d"/><path d="m36.9852 72.6084545c-20.58976 0-36.71732-15.6824646-36.71732-35.7021616 0-20.1745454 16.47092-36.58848482 36.71732-36.58848482s36.7188 16.41393942 36.7188 36.58848482c0 20.019697-16.12904 35.7021616-36.7188 35.7021616" fill="url(#e)"/><path d="m36.9852 5.41099596c-17.44476 0-31.63648 14.14282824-31.63648 31.52567674 0 17.1468889 13.89572 30.5788889 31.63648 30.5788889s31.63796-13.432 31.63796-30.5788889c0-17.3828485-14.19172-31.52567674-31.63796-31.52567674" fill="#f0a700"/><path d="m36.9852 6.94473333c-17.01408 0-30.85652 13.79331317-30.85652 30.74701007 0 16.7221617 13.55384 29.8238182 30.85652 29.8238182s30.858-13.1016565 30.858-29.8238182c0-16.9536969-13.84244-30.74701007-30.858-30.74701007" fill="url(#f)"/><g fill="#fd0"><path d="m.329115 47.7300335-4.588-4.5731919 54.39444-54.201394 4.58948 4.57171719z" mask="url(#l)" opacity=".445145" transform="translate(9.458125 9.5117)"/><path d="m9.407176 66.3999152-10.77292-10.7346869 58.7264-58.51650507 10.77292 10.73321212z" mask="url(#m)" opacity=".445145" transform="translate(9.62 9.090343)"/></g></g><g filter="url(#h)" transform="translate(234 82)"><path d="m64.568996 41.922499c0 15.1795757-12.3506 26.7489697-27.58424 26.7489697-15.23216 0-27.58128-11.569394-27.58128-26.7489697 0-15.1795758 12.34912-27.4863434 27.58128-27.4863434 15.23364 0 27.58424 12.3067676 27.58424 27.4863434" fill="#ffc30d"/><path d="m36.9852 72.6084545c-20.58976 0-36.71732-15.6824646-36.71732-35.7021616 0-20.1745454 16.47092-36.58848482 36.71732-36.58848482s36.7188 16.41393942 36.7188 36.58848482c0 20.019697-16.12904 35.7021616-36.7188 35.7021616" fill="url(#e)"/><path d="m36.9852 5.41099596c-17.44476 0-31.63648 14.14282824-31.63648 31.52567674 0 17.1468889 13.89572 30.5788889 31.63648 30.5788889s31.63796-13.432 31.63796-30.5788889c0-17.3828485-14.19172-31.52567674-31.63796-31.52567674" fill="#f0a700"/><path d="m36.9852 6.94473333c-17.01408 0-30.85652 13.79331317-30.85652 30.74701007 0 16.7221617 13.55384 29.8238182 30.85652 29.8238182s30.858-13.1016565 30.858-29.8238182c0-16.9536969-13.84244-30.74701007-30.858-30.74701007" fill="url(#f)"/><g fill="#fd0"><path d="m.329115 47.7300335-4.588-4.5731919 54.39444-54.201394 4.58948 4.57171719z" mask="url(#n)" opacity=".445145" transform="translate(9.458125 9.5117)"/><path d="m9.407176 66.3999152-10.77292-10.7346869 58.7264-58.51650507 10.77292 10.73321212z" mask="url(#o)" opacity=".445145" transform="translate(9.62 9.090343)"/></g></g><g fill="#eff1f4" transform="translate(63)"><path d="m1.0862069 54c-.60053131 0-1.0862069-.9688598-1.0862069-2.16493v-49.67013996c0-1.19607026.48567559-2.16493004 1.0862069-2.16493004.59889051 0 1.08620689.96885978 1.08620689 2.16493004v49.67013996c0 1.1960702-.48731638 2.16493-1.08620689 2.16493"/><path d="m10.5 51.0810811c-.59889051 0-1.0862069-.6060878-1.0862069-1.3535961v-15.536051c0-.7475083.48731639-1.3535962 1.0862069-1.3535962.6005313 0 1.0862069.6060879 1.0862069 1.3535962v15.536051c0 .7475083-.4856756 1.3535961-1.0862069 1.3535961"/><path d="m19.9137931 54c-.6005313 0-1.0862069-.606866-1.0862069-1.355334v-26.4785212c0-.748468.4856756-1.355334 1.0862069-1.355334.5988905 0 1.0862069.606866 1.0862069 1.355334v26.4785212c0 .748468-.4873164 1.355334-1.0862069 1.355334"/></g><g fill="#eff1f4" transform="translate(265 29)"><path d="m1.125 44c-.62027946 0-1.125-.9136213-1.125-2.0404208v-23.4191584c0-1.1267995.50472054-2.0404208 1.125-2.0404208.62197885 0 1.125.9136213 1.125 2.0404208v23.4191584c0 1.1267995-.50302115 2.0404208-1.125 2.0404208"/><path d="m10.875 44c-.6219789 0-1.125-.9147943-1.125-2.0430406v-39.91391884c0-1.12824628.5030211-2.04304056 1.125-2.04304056.6202795 0 1.125.91479428 1.125 2.04304056v39.91391884c0 1.1282463-.5047205 2.0430406-1.125 2.0430406"/></g><g filter="url(#i)" transform="matrix(.96592583 .25881905 -.25881905 .96592583 34.127033 64.704522)"><path d="m261.353697 18.7716118v-15.65644794s-2.555863-2.95879018-13.935079-2.742199c-3.723261.07348629-78.886588-1.55481524-83.207122 1.96479139-4.316655 3.51960662-4.316655 12.51974355-4.316655 12.51974355s-51.602068 51.7343497-64.5559125 56.4297369c-12.9499665 4.6953873-68.492485 8.7719427-74.3760128 11.5141417-5.8874061 2.7383313-15.30803157 9.7814123-15.30803157 9.7814123l-1.57075065 1.5664183-3.92493742 12.132974c19.23296904 23.480804 84.77399414 23.098283 84.77399414 23.098283h186.5470008c18.759805 0 16.754674-21.295935 16.754674-21.295935-2.56362-65.6890102-26.881168-89.3129192-26.881168-89.3129192" fill="#2a3578"/><g fill="#3c4cab"><path d="m171.802294 24.1465539c-1.64444 3.1134982-70.315331 56.9518764-70.315331 56.9518764l3.975356 3.0786889s63.710422-48.2340816 67.980537-51.7768944c4.270115-3.5389451 8.051552-14.2331345 8.051552-14.2331345l-6.244219-.8431585s-1.807333 3.7052562-3.447895 6.8226221"/><path d="m159.896392 14.8586601s-51.602067 51.7343497-64.5559122 56.429737c-.6515706.2359296-1.4427635.4718593-2.3037676.7039213.0038784.0038677.0038784.0077354.0038784.0077354 2.9747303 4.6953873 2.4744171 4.1848509 7.8615104 1.1255006 5.383214-3.0632181 64.73044-52.0863104 64.73044-59.0094926 0-6.92318227 5.010888-13.04188301 5.022524-13.05348611-3.455652.32101907-5.78269.73873062-6.442017 1.27634087-4.316656 3.51960662-4.316656 12.51974354-4.316656 12.51974354"/><path d="m247.417843.3737384c-1.411737.02707389-13.089589-.18951728-27.276764-.27847437-16.929202.07735399-33.443414.19338498-34.804732.22045887-2.815716.07348629-8.330796 15.4553275-8.330796 15.4553275-1.128613 2.9781287 5.018646 1.5509476 5.018646 1.5509476s2.776932-10.13724063 5.836987-13.46346228c3.052298-3.32235394 73.491738-.74259832 73.491738-.74259832s-2.551985-2.96265788-13.935079-2.742199"/></g><path d="m111.272545 82.8002181c-15.5717621-1.2956794-18.1315039-10.4079796-18.2323422-10.7986172l-2.2029293.5569487c.1124735.4525209 2.9669734 11.0616208 20.2491085 12.5004051 17.565259 1.4619904 57.396393 13.1037662 70.877699 30.1487183l1.784063-1.403975c-15.059814-19.0445528-57.369244-29.7503452-72.475599-31.0034799" fill="#131836"/><path d="m4.1469635 94.0861655-.06593274.0657509-3.92105902 12.1291056c19.23296906 23.484672 84.77399416 23.097902 84.77399416 23.097902h186.5470011c11.929948 0 15.451532-8.605631 16.444402-14.875172h-213.5871828s-43.0346893 1.400107-70.1912227-20.4175865" fill="#e6e7e8"/><path d="m218.373306 98.7958633c-5.495688 5.0860247-8.241593 15.7105957-8.241593 15.7105957h77.79288c2.590769-7.6155 0-18.0544217 0-18.0544217s-64.055599-2.742199-69.551287 2.343826" fill="#754c29"/><path d="m218.373306 98.7958633c-5.495688 5.0860247-8.241593 15.7105957-8.241593 15.7105957h2.136996c.647693-3.902509 3.3393-10.326758 8.086457-14.7204646 4.937199-4.5754886 57.175324-2.8234207 67.689657-2.4250477-.073689-.5762872-.12023-.9089094-.12023-.9089094s-64.055599-2.742199-69.551287 2.343826" fill="#8b5e3c"/><path d="m272.631299 101.64017h-36.181562c-1.919806 0-3.478922 1.550947-3.478922 3.465458 0 1.922247 1.559116 3.469327 3.478922 3.469327h36.181562c1.923685 0 3.478922-1.54708 3.478922-3.469327 0-1.914511-1.555237-3.465458-3.478922-3.465458" fill="#603913"/><path d="m175.911843 18.7716118c6.38772.2243266 85.441079 0 85.441079 0v-2.9974672h-85.441079z" fill="#131836"/><path d="m171.188732 20.7623168c-4.999253 11.908647-70.288183 59.2879669-70.288183 59.2879669l2.164146 1.0404112c6.666963-4.7108581 66.735571-46.2035393 70.625603-57.2844986 3.886153-11.0770916 11.639068-23.47693645 11.646825-23.48853955-1.714251.0464124-3.354813.10056019-4.933321.15857569-1.78794 3.6704469-5.569377 11.60309876-9.21507 20.28608436" fill="#131836"/><path d="m106.583564 95.7102125c-14.0940935-5.3915732-17.1968109-20.2319365-17.1968109-20.2319365-2.8157159-3.140572-5.9145549 1.1680453-5.6353103 3.1367044.2831229 1.9725268 1.6909809 7.3099522-4.5066969 4.2157925-6.2015563-3.0902919-8.1756602-.5608164-7.6132927 1.1293683.5662459 1.6824493-4.7936983 4.2157926-9.3003952-.2823421-4.5105753-4.4981346-9.8666411-.5646841-8.1756601 4.6799165 1.6909809 5.2446007-4.5105753 1.2221931-8.4549047-3.5544159-3.9443294-4.7843444-10.7082532-1.4117103-12.1199896.8392908-1.4117364 2.2510012 4.2274524 2.5333433 2.8195944 5.6236352-1.407858 3.090292-8.7380277-2.2471334-7.6132927.2784744 1.1286134 2.5294755 11.5576221 8.4354528 15.5058299 7.5922943 3.9443294-.8470262-4.5105753-8.4315851 1.9741039-7.3099522 6.4808008 1.1216328 10.4251302 8.4354528 14.373338 7.8707686 3.9443294-.5608164-2.5364714-7.0276101 2.5364714-8.9924015 5.0729428-1.9686591 14.9395839 10.1140347 19.7294038 8.9924015 4.7898199-1.1216329-12.1199896-12.0865612-1.9741039-11.5450832 10.1458857.5376102 23.1152436 15.7608754 27.6219406 12.6667164 4.510576-3.0902923-1.970225-5.1092315-1.970225-5.1092315" fill="#3c4cab"/><path d="m110.151301 89.8595434c-7.345683-6.4513229-12.2596118-6.8922407-9.249976-3.9373182 0 0 14.419879 15.4630628 23.720274 13.7767459 9.300395-1.6901847-7.128493-3.3881048-14.470298-9.8394277" fill="#131836"/><path d="m83.7526063 91.9972209c-.8454905 4.9235816 5.6353103 12.6164361 10.4290086 13.1115021 4.7898199.495065 5.631432-3.175382 3.3819619-5.2832781 0 0-12.96548-12.7518055-13.8109705-7.828224" fill="#131836"/><path d="m103.191906 65.0103471c-3.2229476 2.3244874-5.1117268 5.2059236-4.2196955 6.4358521.8959096 1.2299285 4.2313305.348093 7.4542785-1.9763945 3.222947-2.3244874 5.107848-5.2059236 4.215817-6.4358521-.892031-1.2337962-4.227452-.348093-7.4504 1.9763945" fill="#131836"/><path d="m103.049569 64.813868c-2.34643 1.6901847-3.7193825 3.7864778-3.0716903 4.6837842.6515703.8934386 3.0794473.2514004 5.4258773-1.4349166 2.34643-1.6940524 3.719382-3.7942133 3.067811-4.6876519-.647692-.8973063-3.075568-.2514005-5.421998 1.4387843" fill="#939598"/><path d="m119.727838 50.0230112c-3.222948 2.3244875-5.111727 5.2059236-4.215817 6.4358521.892031 1.2299285 4.227452.348093 7.4504-1.9763945 3.222947-2.3206197 5.107848-5.2020559 4.215817-6.4397198-.892031-1.2260608-4.227452-.3442253-7.4504 1.9802622" fill="#131836"/><path d="m119.585889 49.8265321c-2.34643 1.6901847-3.719383 3.7903456-3.07169 4.6876519.65157.8934386 3.079447.2514004 5.425876-1.4387843 2.34643-1.6940524 3.719383-3.7942133 3.067812-4.6876519-.647692-.8973063-3.075568-.2514005-5.421998 1.4387843" fill="#939598"/><path d="m137.192258 34.4311539c-3.222947 2.3244874-5.111727 5.2097913-4.215817 6.4397198.892031 1.2299284 4.227452.3480929 7.4504-1.9763945 3.222948-2.3206198 5.111727-5.2059237 4.219696-6.4397198-.89591-1.2299285-4.231331-.348093-7.454279 1.9763945" fill="#131836"/><path d="m137.049921 34.2385424c-2.342552 1.6901847-3.719382 3.7864779-3.07169 4.6837842.651571.8973063 3.079447.2552682 5.425877-1.4349165 2.34643-1.6940524 3.719382-3.7942133 3.067812-4.6876519-.647693-.8973063-3.075569-.2514005-5.421999 1.4387842" fill="#939598"/><path d="m152.336621 20.1956988c-3.222947 2.3244874-5.111726 5.2059236-4.219695 6.4397198.89591 1.2299284 4.231331.3480929 7.454278-1.9802622 3.222948-2.3206198 5.111727-5.202056 4.215817-6.4358521-.892031-1.2299285-4.227452-.348093-7.4504 1.9763945" fill="#131836"/><path d="m152.194284 19.9992196c-2.342551 1.6940524-3.719382 3.7903456-3.07169 4.6876519.651571.8934386 3.079447.2552682 5.425877-1.4387842 2.34643-1.6901847 3.719382-3.7903456 3.067812-4.6837842-.647692-.8973063-3.075569-.2552682-5.421999 1.4349165" fill="#939598"/></g></g></svg>