<svg height="156" viewBox="0 0 262 156" width="262" xmlns="http://www.w3.org/2000/svg"><g fill="#427fe0" fill-rule="evenodd"><path d="m218.855486 44.3946876c-4.420487 1.5931784-7.07278 5.8562436-9.369699 9.7253911-4.975215 8.858772-6.19735 20.2648786-1.699721 29.5700907 1.214334 2.5735959 3.363904 5.1646991 6.406239 5.3047588 3.311032.1225522 6.16268-1.9958498 8.459599-4.185157 5.001218-4.9799955 7.289471-12.0967758 8.086025-19.0034666.824291-6.4690045-.241827-13.4194639-3.968904-18.8467749-1.707522-2.5298272-5.061891-3.6065356-7.913539-2.5648421"/><path d="m151.954707 44.3684726c-4.046658 1.3569107-6.602898 5.1037352-8.777868 8.5879317-5.450424 8.8671928-7.027494 20.5637633-2.642893 30.2100854 1.152475 2.5396116 3.006832 5.2096618 5.927011 5.7436718 3.102149.5165015 5.987668-1.2781224 8.249291-3.2311984 4.982501-4.3149761 7.460755-10.8018848 8.66522-17.1662338 1.351775-7.2485296.657691-15.2761886-3.55274-21.4829609-1.689718-2.5299819-5.008498-3.6767903-7.868021-2.6612958"/><path d="m241.86005 87.3728813c-3.248005 6.1263473-7.535714 12.0207011-13.619278 15.5865277-8.316781 4.983564-19.298989 4.528169-27.539296-.386656-5.567148-3.3510177-9.27142-9.0735244-11.402386-15.0881711-5.842111-18.3953672-.910816-40.0403622 12.553795-53.9256037 4.039383-3.9352974 9.280012-6.6925832 14.909027-7.3980154 8.162974-1.0138976 17.02109 1.5045209 22.735172 7.5964988 5.112599 5.515431 7.879418 12.8962617 8.661345 20.3114618 1.202964 11.3934593-.893631 23.1735745-6.298379 33.3039579m-67.314461.3265094c-3.205042 5.9630926-7.398232 11.677007-13.309944 15.1826863-8.661345 5.25852-20.278546 4.614094-28.646883-.936566-6.685905-4.5797238-10.440873-12.3815798-11.970357-20.1576587-3.076152-17.5962785 2.182522-37.2134783 15.509651-49.499683 3.823708-3.3003225 8.592604-5.5343342 13.619277-6.1443912 8.352011-1.0224899 17.365653 1.7528399 23.053957 8.1025883 4.640006 5.2499273 7.243565 12.0636628 8.120011 18.9547294 1.41778 11.7887075-.704593 24.0414021-6.375712 34.4982949m-67.280091 20.5786843c.224267 3.978259-1.701335 8.807161-5.97186 9.735135-4.0385235.902197-7.7161581-1.744248-10.2509763-4.596049-11.6000156-12.476955-18.163906-28.6391701-22.8984308-44.7670155-4.7860806 9.4429952-9.5893463 18.8859905-14.2293525 28.4071762-3.2488637 6.4348123-6.6773127 12.9993703-11.8672456 18.1126793-2.1902548 2.173006-5.8936672 4.140654-8.720634 1.906643-4.253339-3.720489-5.3016367-9.649212-7.1060836-14.744477-6.8483055-23.6203769-10.7330219-47.9625112-14.7113976-72.1920858-.910816-4.0392648.7827863-8.8759 4.8127176-10.4921215 3.256597-1.220114 7.42401-1.3911019 10.1994211 1.0061645 1.933336 1.7262036 2.4660774 4.3984252 2.8269668 6.8395125 2.7925964 18.756246 6.1170749 37.4532049 10.6462366 55.8752084 7.7591215-14.7101073 15.47528-29.4459917 23.2086238-44.1732837 1.1505497-2.1566804 2.5262256-4.3219532 4.6391469-5.6623602 2.8278261-1.8129864 7.0210169-1.6841011 9.3831238.8515021 1.9848915 2.0784901 2.6465221 4.974972 3.1964487 7.7064809 2.3114105 12.1753633 5.4391185 24.2304338 9.984606 35.7708223 1.9599731-17.3917805 4.3564504-34.9975106 10.7063851-51.4174961 1.435824-3.3080556 2.698077-6.8051431 5.01894-9.6148423 3.935413-4.1844756 11.401526-2.8268839 14.305826 1.9075022 1.572447 2.4831899 1.709929 5.8006971.446816 8.4462825-5.473489 10.7662175-7.759122 22.7611415-9.86431 34.549849-2.491855 15.3717184-4.562672 30.941061-3.754968 46.5447732m154.727023-83.3544109c.146075-6.9769902-2.818374-13.9367956-8.025492-18.5929914-4.545488-4.16815015-10.714977-6.46230824-16.875875-6.3248306-71.035058.02577706-142.0701166-.00773312-213.1051751.0171847-9.4424127-.0171847-18.45691376 6.12634727-22.04776304 14.8218079-1.64118739 3.7033039-2.01926197 7.7932636-1.92474333 11.7972999.05155563 26.6629287-.05241488 53.324139.05155563 79.9776164.06874083 12.278471 10.77512564 23.250905 23.05395694 23.594599 34.0868607.197625 68.1909065-.128885 102.2683149.171847 15.518244 8.317398 30.796753 17.115966 46.228211 25.613803-3.480005-8.58376-7.002973-17.150335-10.482977-25.724644 25.906701-.043821 51.821995.059287 77.728697-.052413 12.296016-.335961 23.045364-11.316128 23.09692-23.620377.085926-27.2291647.008592-54.4497372.03437-81.6789019"/></g></svg>