<?xml version="1.0" encoding="UTF-8"?>
<svg width="280px" height="284px" viewBox="0 0 280 284" version="1.1" xmlns="http://www.w3.org/2000/svg" xmlns:xlink="http://www.w3.org/1999/xlink">
    <!-- Generator: sketchtool 63.1 (101010) - https://sketch.com -->
    <title>C59973C6-2253-42CF-86EC-843B8D58C128</title>
    <desc>Created with sketchtool.</desc>
    <defs>
        <linearGradient x1="24.4169347%" y1="6.26148897%" x2="78.9464614%" y2="96.0190717%" id="linearGradient-1">
            <stop stop-color="#427FDF" offset="0%"></stop>
            <stop stop-color="#396BB1" offset="100%"></stop>
        </linearGradient>
        <path d="M233,148.500681 C233,212.841328 180.840576,265 116.499319,265 C52.1594244,265 0,212.841328 0,148.500681 C0,84.1600339 52.1594244,32 116.499319,32 C180.840576,32 233,84.1600339 233,148.500681" id="path-2"></path>
        <filter x="-6.9%" y="-6.0%" width="113.7%" height="113.7%" filterUnits="objectBoundingBox" id="filter-3">
            <feOffset dx="0" dy="2" in="SourceAlpha" result="shadowOffsetOuter1"></feOffset>
            <feGaussianBlur stdDeviation="5" in="shadowOffsetOuter1" result="shadowBlurOuter1"></feGaussianBlur>
            <feColorMatrix values="0 0 0 0 0   0 0 0 0 0   0 0 0 0 0  0 0 0 0.15 0" type="matrix" in="shadowBlurOuter1"></feColorMatrix>
        </filter>
        <filter x="-10.0%" y="-9.4%" width="119.9%" height="118.9%" filterUnits="objectBoundingBox" id="filter-4">
            <feOffset dx="0" dy="2" in="SourceAlpha" result="shadowOffsetOuter1"></feOffset>
            <feGaussianBlur stdDeviation="5" in="shadowOffsetOuter1" result="shadowBlurOuter1"></feGaussianBlur>
            <feColorMatrix values="0 0 0 0 0   0 0 0 0 0   0 0 0 0 0  0 0 0 0.15 0" type="matrix" in="shadowBlurOuter1" result="shadowMatrixOuter1"></feColorMatrix>
            <feMerge>
                <feMergeNode in="shadowMatrixOuter1"></feMergeNode>
                <feMergeNode in="SourceGraphic"></feMergeNode>
            </feMerge>
        </filter>
        <linearGradient x1="50%" y1="100%" x2="11.2291778%" y2="33.1092209%" id="linearGradient-5">
            <stop stop-color="#DA3E3F" offset="0%"></stop>
            <stop stop-color="#FF5254" offset="100%"></stop>
        </linearGradient>
        <polygon id="path-6" points="0.393673721 0.477213874 102.359467 0.477213874 102.359467 133.254998 0.393673721 133.254998"></polygon>
        <linearGradient x1="69.4305132%" y1="89.8592068%" x2="26.009393%" y2="8.88314495%" id="linearGradient-8">
            <stop stop-color="#DA3E3F" offset="0%"></stop>
            <stop stop-color="#FF5254" offset="100%"></stop>
        </linearGradient>
    </defs>
    <g id="Website" stroke="none" stroke-width="1" fill="none" fill-rule="evenodd">
        <g id="Premium-Content---Mobile" transform="translate(-48.000000, -5820.000000)">
            <g id="img_press_mob" transform="translate(58.000000, 5827.000000)">
                <g id="Fill-1">
                    <use fill="black" fill-opacity="1" filter="url(#filter-3)" xlink:href="#path-2"></use>
                    <use fill="url(#linearGradient-1)" fill-rule="evenodd" xlink:href="#path-2"></use>
                </g>
                <g id="Group-3" filter="url(#filter-4)" transform="translate(30.000000, 0.000000)">
                    <path d="M143.859687,5.99387447 C143.562082,5.57034956 143.081023,5.32087227 142.568709,5.32087227 C142.052318,5.31815349 141.5699,5.56623767 141.270936,5.98702132 L63.0893139,115.529205 C62.692508,116.088422 62.6897902,116.840898 63.0852371,117.398745 L95.1327446,162.755659 C95.5268326,163.314877 96.2334731,163.556108 96.8857567,163.358737 L225.060839,124.573997 C225.229345,124.523284 225.388339,124.446529 225.528308,124.343731 C225.796016,124.150472 225.999855,123.877717 226.109928,123.556989 C226.275717,123.064933 226.199617,122.524904 225.900654,122.10275 L143.859687,5.99387447 Z" id="Fill-3" fill="#FFFFFF"></path>
                    <path d="M69.9115405,153.176898 C69.58481,152.889091 69.1577555,152.752041 68.7307011,152.791785 C68.2995794,152.828789 67.9050625,153.045329 67.6352725,153.381104 L46.4981108,179.896321 C45.9639538,180.56787 46.048009,181.545042 46.6906243,182.108321 L116.251693,243.600271 C116.804831,244.093654 117.618268,244.132028 118.2175,243.7058 L146.851839,223.072803 C147.247712,222.787737 147.49581,222.33684 147.517502,221.840716 C147.539194,221.350074 147.33719,220.873138 146.969788,220.551068 L69.9115405,153.176898 Z" id="Fill-5" fill="#0E2054"></path>
                    <path d="M32.2087247,139.11784 C31.7708185,139.05525 31.3370048,139.189955 31.0177834,139.486576 L0.472116301,167.637063 C-0.0885674195,168.15275 -0.159505506,169.037172 0.311141413,169.695727 L6.17581127,177.903167 C6.68738401,178.617508 7.65323334,178.812081 8.33396613,178.323608 L17.6145777,171.727177 L18.9023768,173.531399 L9.62040104,180.12783 C8.93966825,180.612221 8.80597724,181.582365 9.31754998,182.300788 L10.2070044,183.549864 C10.4539235,183.892748 10.8195275,184.129501 11.2246931,184.208419 C11.6284946,184.288697 12.0391169,184.201616 12.3665235,183.971666 L21.6498634,177.369792 L23.8121109,180.39996 L14.5301351,186.996391 C14.2027286,187.230423 13.9871859,187.592355 13.9298898,188.00055 C13.875322,188.404664 13.9790008,188.826465 14.2259199,189.170709 L15.1167385,190.414344 C15.6310396,191.134127 16.5955248,191.321897 17.2748934,190.837506 L26.5568691,184.243796 L27.8446682,186.042575 L18.5640567,192.643088 C17.8833239,193.126119 17.7482687,194.097623 18.2598414,194.814685 L24.1245113,203.023487 C24.593794,203.677959 25.4546004,203.902467 26.1285122,203.541894 L62.7789473,183.934928 C62.8335151,183.907715 62.8839902,183.87506 62.9331012,183.841044 C63.2318597,183.6247 63.4419456,183.304947 63.515612,182.932129 C63.6042847,182.496721 63.5006059,182.036822 63.2373165,181.665364 L33.3178144,139.795444 C33.0517966,139.422626 32.6479952,139.176348 32.2087247,139.11784" id="Fill-9" fill="#0E2054"></path>
                    <path d="M69.4105286,153.175786 C69.0849713,152.888796 68.6594504,152.752134 68.2325786,152.791766 C67.804356,152.828665 67.4112557,153.044591 67.1424345,153.379412 L56.7381101,166.438826 L117.328238,220.040368 C117.879388,220.526885 118.691255,220.571983 119.288336,220.136032 L133.90194,209.60623 L69.4105286,153.175786 Z" id="Fill-7" fill="#1C4A94"></path>
                    <path d="M64.1839254,106.445885 C63.7803159,106.366461 63.3726296,106.455471 63.0464806,106.686898 L10.4454346,144.460091 C10.1220035,144.692887 9.90728866,145.054405 9.85021258,145.461113 C9.79177754,145.874669 9.89913494,146.301918 10.1437467,146.645634 L50.5522543,203.779232 C50.7955071,204.122948 51.1610659,204.366699 51.5633163,204.443385 C51.9669258,204.525548 52.37733,204.437908 52.7007611,204.202373 L105.300448,166.42918 C105.977207,165.941677 106.111744,164.966673 105.602136,164.243637 L65.1977053,107.111408 C64.9517346,106.764953 64.5875348,106.528049 64.1839254,106.445885" id="Fill-11" fill="url(#linearGradient-5)"></path>
                    <g id="Group-15" transform="translate(127.849875, 0.000000)">
                        <mask id="mask-7" fill="white">
                            <use xlink:href="#path-6"></use>
                        </mask>
                        <g id="Clip-14"></g>
                        <path d="M12.9595695,0.476661319 C12.449238,0.475299549 11.9660519,0.724161799 11.6660964,1.14257855 L0.691254858,16.4981998 C0.294933597,17.0560888 0.294933597,17.8054103 0.688540329,18.3646666 L81.4865017,132.582868 C81.882823,133.142124 82.5845288,133.382782 83.2387303,133.188615 L101.227915,127.753299 C101.396216,127.699971 101.552301,127.622031 101.6921,127.522213 C101.958124,127.329413 102.165785,127.057305 102.274366,126.735972 C102.439953,126.246452 102.362588,125.707706 102.06399,125.289289 L14.2503282,1.14804805 C13.9544445,0.729631299 13.4726156,0.476661319 12.9595695,0.476661319" id="Fill-13" fill="url(#linearGradient-8)" mask="url(#mask-7)"></path>
                    </g>
                </g>
            </g>
        </g>
    </g>
</svg>