<svg height="281" viewBox="0 0 281 281" width="281" xmlns="http://www.w3.org/2000/svg" xmlns:xlink="http://www.w3.org/1999/xlink"><linearGradient id="a" x1="55.773933%" x2="58.215107%" y1="93.955692%" y2="0%"><stop offset="0" stop-color="#2fc303"/><stop offset="1" stop-color="#59f62b"/></linearGradient><linearGradient id="b" x1="61.114859%" x2="65.814136%" y1="93.955692%" y2="0%"><stop offset="0" stop-color="#2dc101"/><stop offset="1" stop-color="#60ff31"/></linearGradient><g fill="none" fill-rule="evenodd" transform="translate(-18 -40)"><ellipse cx="142" cy="311.5" fill="#000" opacity=".05" rx="94" ry="9.5"/><path d="m148.019576 287.780494c46.694751.247144 107.125433-38.096732 106.770998-103.574141-.357565-65.477409-23.804641-201.4073-111.060966-172.0012573-87.2563245 29.4060427-81.2589539 91.0897903-80.9029538 156.5671993.3560002 65.477409 38.4981708 118.758658 85.1929218 119.008199z" fill="url(#a)" opacity=".318105" transform="matrix(.22495105 -.97437006 -.97437006 -.22495105 267.150992 335.854827)"/><path d="m150.884956 270.719531c53.376432.570498 122.357894-30.581712 121.787688-84.589273-.570206-54.007562-27.711023-166.3040876-127.378614-142.7337388-99.6675918 23.5703488-92.6583102 74.4931328-92.0881039 128.5006938.5702063 54.007562 44.3025976 98.251821 97.6790299 98.822318z" fill="url(#b)" transform="matrix(-.8660254 .5 .5 .8660254 226.034066 -60.565645)"/><g fill="#fff" fill-rule="nonzero"><path d="m174.557802 105.18958c-14.020988-8.1251394-31.497654-9.3508331-46.586504-3.741208-9.910997 3.674166-18.890095 10.50074-24.434758 19.800563-5.0263121 8.383103-6.9127724 18.841578-4.4824677 28.434343 2.4317207 10.649398 9.6022527 19.571748 18.3377527 25.535527-1.642863 4.915892-3.263066 9.830325-4.789796 14.781195 5.522003-2.951284 10.978859-6.029363 16.479618-9.033114 6.633769 2.186136 13.604608 3.234024 20.568365 3.003751-1.814231-5.475542-2.244774-11.37228-1.419094-17.085382 1.319956-7.925472 5.486597-15.180529 11.245116-20.559882 9.695726-9.343545 23.443375-13.291707 36.523966-12.340009-2.444467-12.338552-10.871223-22.775166-21.442198-28.795784zm-37.586162 22.383118c-.974388 4.834276-7.272503 7.166154-10.950534 3.926301-4.260114-3.092654-3.069038-10.774736 1.943111-12.316691 4.904513-1.948576 10.484583 3.180099 9.007423 8.39039zm34.056838-1.402042c.042488 5.564445-7.157785 9.033115-11.209709 5.254014-4.202048-3.092654-3.010972-10.627536 1.921867-12.191352 4.411654-1.785345 9.631994 2.044766 9.287842 6.937338z"/><path d="m232.397554 160.15717c-3.438874-7.912836-9.93231-14.179213-17.46481-18.057572-13.298592-6.851817-29.846749-6.799778-43.101217.160454-9.2192 4.809281-16.909694 13.417418-19.100268 23.891735-1.801993 7.707571-.180769 16.00781 3.841689 22.735311 5.996678 10.094143 16.822868 16.535429 28.087457 18.606875 8.158786 1.684043 16.592282.696746 24.513364-1.64646 4.742685 1.882081 8.994306 4.911914 13.600347 7.152487-1.17762-4.045097-2.446179-8.062314-3.804681-12.048501 5.152617-3.739588 9.852601-8.381188 12.678001-14.222579 4.203226-8.134002 4.455163-18.206462.750118-26.57175zm-46.28673 3.022606c-1.167167 3.739588-6.537561 4.867102-9.118139 2.012179-2.853867-2.627976-1.745058-8.139785 1.995571-9.310665 4.160525-1.778003 8.945912 3.081872 7.122568 7.298486zm27.093943.518945c-1.420529 3.368087-6.386684 4.142892-8.836312 1.538045-1.188518-1.084148-1.477463-2.730608-1.952871-4.186258.634826-2.620747 2.357109-5.351355 5.289262-5.468443 4.058042-.565203 7.617902 4.434889 5.499921 8.116656z"/></g></g></svg>