<svg height="389" viewBox="0 0 261 389" width="261" xmlns="http://www.w3.org/2000/svg"><g fill="none" fill-rule="evenodd"><path d="m18.500739 51.3036765v9.5330882c0 56.1654413 50.2423049 101.8595593 111.998889 101.8595593 61.755842 0 111.999633-45.694118 111.999633-101.8595593v-9.5330882zm111.998889 129.6963235c-71.957558 0-130.499628-53.905147-130.499628-120.1632353v-27.8367647h261v27.8367647c0 66.2580883-58.54207 120.1632353-130.500372 120.1632353z" fill="#f4cd0c"/><path d="m29 20h205v-20h-205z" fill="#f4cd0c"/><path d="m31 389h203v-15h-203z" fill="#427fe0"/><path d="m194.85473 291h-127.7094599c-8.4377561 0-15.6616021 5.477212-17.1452701 13h162c-1.482923-7.522788-8.707514-13-17.14527-13" fill="#427fe0"/><path d="m221.281009 300h-179.5620177c-2.0539381 0-3.7189913 1.648181-3.7189913 3.681307v71.318693h187v-71.318693c0-2.033126-1.665053-3.681307-3.718991-3.681307" fill="#427fe0"/><path d="m52 360.069168v-40.138336c0-2.170869 1.7561496-3.930832 3.9223155-3.930832h151.1561135c2.166166 0 3.921571 1.759963 3.921571 3.930832v40.138336c0 2.170869-1.755405 3.930832-3.921571 3.930832h-151.1561135c-2.1661659 0-3.9223155-1.759963-3.9223155-3.930832" fill="#e3e3e3"/><path d="m140.67644 172h-9.176065-9.176815c-1.886479 35.958219-12.667962 90.955348-53.32356 105h62.500375 62.499625c-40.655598-14.044652-51.437081-69.041781-53.32356-105" fill="#f4cd0c"/><path d="m143 199.885264c-1.170938.081022-2.360845.114736-3.550022.114736-2.288619 0-4.567754-.128331-6.819895-.392605 0 0-.017509 0-.017509-.01305-4.267906-.494291-8.48985-1.495922-12.612574-2.883089.045233-.237085.090465-.474171.135698-.711256 1.462031.284394 2.924062.514954 4.404332.684067 0 .013595.008755.013595.008755.013595 2.252141.26373 4.531276.392061 6.819165.392061 3.650701 0 7.264924-.338228 10.832456-1.008157.245861 1.258836.50923 2.524198.799594 3.803698" fill="#f4cd0c"/><path d="m142.32041 197.375747c-.174574-1.067626-.340271-2.12547-.506708-3.175039-.100602-.701969-.201943-1.39491-.304025-2.087851-.367641.093295-.736021.187342-1.104402.26258-3.259206.758398-6.554658 1.13233-9.878959 1.13233-2.319762 0-4.630647-.177561-6.914162-.542465 0 0-.008877 0-.008877-.018809-1.500892-.23399-2.98329-.552999-4.465689-.946493-.045863.328037-.091725.656074-.137588.984112 4.180157 1.919318 8.460916 3.3052 12.788278 3.989112 0 .018057.017753.018057.017753.018057 2.283516.365656 4.594401.543218 6.914902.543218.717528 0 1.435796-.018057 2.154064-.055676 3.176358 30.621066 12.86225 64.051516 37.369911 79.521177h13.755092c-30.869992-11.059217-44.284073-46.914583-49.67959-79.624253" fill="#be8217"/><path d="m39 11c.1397587 102.772027 42.1699612 186 93.999628 186 51.829667 0 93.85987-83.227973 94.000372-186z" fill="#f4cd0c"/><path d="m39 11c.1397587 102.772027 42.1699612 186 93.999628 186 51.829667 0 93.85987-83.227973 94.000372-186z" fill="#f4cd0c"/><path d="m124 195.156768c-.185141 30.956195-10.168725 66.138507-34.0681062 84.335391l-16.9318938.507841c31.967386-12.565006 46.133971-50.941562 50.288942-85 .18514.027968.692618.1472.711058.156768" fill="#faed1d"/><g fill="#427fe0"><path d="m57 319.499748c0 .828648-.6717172 1.500252-1.5 1.500252-.8287879 0-1.5-.671604-1.5-1.500252 0-.828649.6712121-1.499748 1.5-1.499748.8282828 0 1.5.671099 1.5 1.499748"/><path d="m57 356.499748c0 .828648-.6717172 1.500252-1.5 1.500252-.8287879 0-1.5-.671604-1.5-1.500252 0-.828144.6712121-1.499748 1.5-1.499748.8282828 0 1.5.671604 1.5 1.499748"/><path d="m204 319.499748c0 .828648.671717 1.500252 1.500505 1.500252.828283 0 1.499495-.671604 1.499495-1.500252 0-.828649-.671212-1.499748-1.499495-1.499748-.828788 0-1.500505.671099-1.500505 1.499748"/><path d="m204 356.499748c0 .828648.671717 1.500252 1.500505 1.500252.828283 0 1.499495-.671604 1.499495-1.500252 0-.828144-.671212-1.499748-1.499495-1.499748-.828788 0-1.500505.671604-1.500505 1.499748"/></g><path d="m69 288h125v-13h-125z" fill="#e39c22"/><path d="m178 288h15v-13h-15z" fill="#be8217"/><path d="m81 288h13v-13h-13z" fill="#faed1d"/><path d="m115.745199 191.385368c-5.359675-3.65877-10.08124-8.073593-14.237813-12.870469-4.6735603-5.394837-8.6536194-11.282244-12.1100448-17.39654-3.8847858-6.869617-7.1166913-14.042241-9.8670606-21.353194-3.0472673-8.099942-5.5044313-16.381395-7.5088626-24.744821-2.1824224-9.107037-3.8264402-18.3180034-5.0347119-27.5706883-1.2932054-9.90554-2.0849336-19.8623131-2.4460857-29.827869-.379616-10.5056983-.3079764-21.0340856.2592319-31.5266098.1152142-2.1342215.2348597-4.2706388.4113737-6.4012009 0 0-1.9453471-.0900237-3.0516987-.1405249v-19.5534511h-16.1595273v22.7284351h6.2444609c-.0073856.2239615-.019941.4493868-.0265879.6733483-.0073856.1610181-.0155096.3300871-.013294.4911052-.049483 1.4308653-.0886263 2.8544116-.1093057 4.2779579-.0258494 1.329863-.0420975 2.652407-.049483 3.974951-.0088627.1946856-.0088627.3893711.0007385.5767376-.2991137 83.0275139 27.9527326 157.1309649 71.9534712 163.2774649-2.754062-1.321812-5.759232-2.910768-8.254801-4.614632" fill="#faed1d"/><path d="m209.075543 0v20.5789376h-4.797993c-3.481338 87.1824504-33.652682 158.3930674-73.27755 177.4122124.233939.00885.476125.00885.719062.00885.410142 0 .811287-.00885 1.222179-.018437 50.058384-1.247834 90.765968-79.306789 93.453264-177.4026254h8.605495v-20.5789376z" fill="#be8217"/><path d="m133.014706 59.0454281 7.151367 19.9697806c.220135.6153666.811935 1.0317086 1.48214 1.0448793l21.779025.4309762c1.519081.03 2.146315 1.9046365.935573 2.7958571l-17.358235 12.7726986c-.534505.393659-.759917 1.0675623-.566168 1.6909777l6.307767 20.2361224c.44027 1.412197-1.202449 2.570491-2.450131 1.728295l-17.879924-12.076113c-.550337-.372439-1.280853-.372439-1.831944 0l-17.879924 12.076113c-1.247682.842196-2.8904-.316098-2.45013-1.728295l6.307767-20.2361224c.194503-.6234154-.031663-1.2973187-.565415-1.6909777l-17.3589881-12.7726986c-1.2114954-.8912206-.583508-2.7658571.936327-2.7958571l21.7782701-.4309762c.670206-.0131707 1.262006-.4295127 1.482141-1.0448793l7.151367-19.9697806c.499826-1.3939041 2.530042-1.3939041 3.029115 0" fill="#e58b0a"/></g></svg>