<svg height="294" viewBox="0 0 255 294" width="255" xmlns="http://www.w3.org/2000/svg" xmlns:xlink="http://www.w3.org/1999/xlink"><filter id="a" height="149.5%" width="104.9%" x="-2.4%" y="-24.8%"><feGaussianBlur in="SourceGraphic" stdDeviation="1.65066964"/></filter><linearGradient id="b" x1="55.607893%" x2="57.978866%" y1="93.955692%" y2="0%"><stop offset="0" stop-color="#0056ff"/><stop offset="1" stop-color="#bcd1ff"/></linearGradient><linearGradient id="c" x1="55.623723%" x2="58.001389%" y1="93.955692%" y2="0%"><stop offset="0" stop-color="#2952a4"/><stop offset="1" stop-color="#6d98f4"/></linearGradient><g fill="none" fill-rule="evenodd" transform="translate(-19 -47)"><ellipse cx="146" cy="327" fill="#000" filter="url(#a)" opacity=".14786" rx="102" ry="10"/><path d="m181.873529 291.0856c63.355833.025158 63.885996-69.309163 63.86155-132.302896-.025559-62.9937329-.610412-131.4525589-63.966244-131.4777296-63.355833-.0251598-114.6814606 86.6810766-114.6564675 149.6748096.0250113 62.993733 51.4053295 114.080644 114.7611615 114.105816z" fill="url(#b)" opacity=".353714" transform="matrix(-.39073113 .92050485 -.92050485 -.39073113 364.083375 77.409045)"/><path d="m181.795964 290.986776c63.397626-.030311 63.988806-69.319418 64.019676-132.271628.029332-62.9522098-.496006-131.3654224-63.893632-131.3351356-63.397626.0303069-114.8329977 86.7243376-114.8631115 149.6765476-.0300874 62.95221 51.3394415 113.960499 114.7370675 113.930216z" fill="url(#c)" transform="matrix(.8660254 .5 -.5 .8660254 100.550317 -56.892103)"/><path d="m56.3516454.02221359-14.0450944-.02221359c-15.7791818 0-25.9763823 10.3126577-25.9763823 26.2742306v12.1141796h-14.12171423c-1.22028377 0-2.20845447.9751764-2.20845447 2.1780422v17.5520656c0 1.2028658.98929746 2.1769316 2.20845447 2.1769316h14.12171423v44.2894494c0 1.202866.9881707 2.176932 2.2084545 2.176932h18.4248201c1.2202838 0 2.2084545-.975177 2.2084545-2.176932v-44.2894494h16.5115774c1.2202838 0 2.2084545-.9740658 2.2084545-2.1769316l.0067606-17.5520656c0-.5775533-.2332398-1.1306716-.6467617-1.5394016-.4135218-.40873-.9769031-.6386406-1.5628195-.6386406h-16.5172113v-10.2693412c0-4.9358591 1.1932415-7.4415517 7.7160695-7.4415517l9.4614246-.003332c1.219157 0 2.2073277-.9751765 2.2073277-2.1769315v-16.2981087c0-1.20064437-.987044-2.17471015-2.2050742-2.17693151z" fill="#fff" fill-rule="nonzero" transform="translate(117 120)"/></g></svg>