<?xml version="1.0" encoding="UTF-8"?>
<svg width="386px" height="362px" viewBox="0 0 386 362" version="1.1" xmlns="http://www.w3.org/2000/svg" xmlns:xlink="http://www.w3.org/1999/xlink">
    <!-- Generator: sketchtool 63.1 (101010) - https://sketch.com -->
    <title>6D9AC408-2DD5-45C9-9150-D42B455B9B00</title>
    <desc>Created with sketchtool.</desc>
    <defs>
        <linearGradient x1="49.1987416%" y1="10.1619773%" x2="46.7785363%" y2="94.2950964%" id="linearGradient-1">
            <stop stop-color="#9F3FA9" offset="0%"></stop>
            <stop stop-color="#DB2E87" offset="21.7248618%"></stop>
            <stop stop-color="#F2554B" offset="76.0780392%"></stop>
            <stop stop-color="#FFB461" offset="100%"></stop>
        </linearGradient>
        <linearGradient x1="48.8284221%" y1="10.1619773%" x2="45.2896648%" y2="94.2950964%" id="linearGradient-2">
            <stop stop-color="#9F3FA9" offset="0%"></stop>
            <stop stop-color="#DB2E87" offset="21.7248618%"></stop>
            <stop stop-color="#F2554B" offset="76.0780392%"></stop>
            <stop stop-color="#FFB461" offset="100%"></stop>
        </linearGradient>
        <linearGradient x1="55.6118586%" y1="93.9556918%" x2="57.9845088%" y2="0%" id="linearGradient-3">
            <stop stop-color="#0056FF" offset="0%"></stop>
            <stop stop-color="#BCD1FF" offset="100%"></stop>
        </linearGradient>
        <linearGradient x1="55.6208167%" y1="93.9556918%" x2="57.9972543%" y2="0%" id="linearGradient-4">
            <stop stop-color="#2952A4" offset="0%"></stop>
            <stop stop-color="#6D98F4" offset="100%"></stop>
        </linearGradient>
        <linearGradient x1="67.4001736%" y1="100%" x2="67.4001753%" y2="0%" id="linearGradient-5">
            <stop stop-color="#427FDF" offset="0%"></stop>
            <stop stop-color="#396BB1" offset="100%"></stop>
        </linearGradient>
        <linearGradient x1="67.4001736%" y1="100%" x2="67.4001753%" y2="0%" id="linearGradient-6">
            <stop stop-color="#427FDF" offset="0%"></stop>
            <stop stop-color="#396BB1" offset="100%"></stop>
        </linearGradient>
    </defs>
    <g id="Website" stroke="none" stroke-width="1" fill="none" fill-rule="evenodd">
        <g id="Hubspot" transform="translate(-855.000000, -2457.000000)">
            <g id="img_social_channels" transform="translate(842.000000, 2428.000000)">
                <g id="img_instagram" transform="translate(81.000000, 160.000000)">
                    <path d="M128.932741,247.258817 C170.145924,247.371045 203.445689,207.026629 203.31026,157.146807 C203.174002,107.266984 169.577094,38.5037566 128.36391,38.3911552 C87.150726,38.2788301 53.9278613,106.859718 54.0632893,156.739541 C54.1995475,206.619364 87.7195567,247.146119 128.932741,247.258817 Z" id="Oval-5" fill="url(#linearGradient-1)" opacity="0.265341938" transform="translate(128.686774, 142.824986) rotate(-415.000000) translate(-128.686774, -142.824986) "></path>
                    <path d="M147.82798,218.971074 C193.110332,218.857208 229.911375,182.023684 230.025675,136.700831 C230.139444,91.3779782 193.587841,29.0718227 148.305489,29.18527 C103.023137,29.2990276 66.1575405,91.789369 66.0432405,137.112222 C65.9294717,182.435075 102.545628,219.084413 147.82798,218.971074 Z" id="Oval-5" fill="url(#linearGradient-2)" transform="translate(148.034458, 124.078172) rotate(-330.000000) translate(-148.034458, -124.078172) "></path>
                    <g id="instagram" transform="translate(98.910119, 91.793957)" fill="#FFFFFF" fill-rule="nonzero">
                        <path d="M60.0076266,0 L25.4618044,0 C11.4221062,0 0,11.3800518 0,25.3680579 L0,59.7866877 C0,73.7746938 11.4221062,85.1547456 25.4618044,85.1547456 L60.0076266,85.1547456 C74.0473247,85.1547456 85.4694309,73.7746938 85.4694309,59.7866877 L85.4694309,25.3680579 C85.4694309,11.3800518 74.0471696,0 60.0076266,0 Z M76.8712093,59.7866877 C76.8712093,69.0658187 69.3210482,76.5881813 60.0076266,76.5881813 L25.4618044,76.5881813 C16.1483827,76.5881813 8.59822159,69.0658187 8.59822159,59.7866877 L8.59822159,25.3680579 C8.59822159,16.0887723 16.1483827,8.56656425 25.4618044,8.56656425 L60.0076266,8.56656425 C69.3210482,8.56656425 76.8712093,16.0887723 76.8712093,25.3680579 L76.8712093,59.7866877 L76.8712093,59.7866877 Z" id="Shape"></path>
                        <path d="M42.1328181,20.3891644 C30.1848947,20.3891644 20.4645116,30.0737925 20.4645116,41.9776157 C20.4645116,53.8814389 30.1848947,63.5662185 42.1328181,63.5662185 C54.0807414,63.5662185 63.8011245,53.8815904 63.8011245,41.9776157 C63.8011245,30.073641 54.0807414,20.3891644 42.1328181,20.3891644 Z M42.1328181,55.1706802 C34.8195466,55.1706802 28.8910752,49.2640366 28.8910752,41.9776915 C28.8910752,34.6913463 34.8196986,28.7847027 42.1328181,28.7847027 C49.4460895,28.7847027 55.3745609,34.6913463 55.3745609,41.9776915 C55.3745609,49.2638851 49.4459375,55.1706802 42.1328181,55.1706802 Z" id="Shape"></path>
                        <ellipse id="Oval" cx="64.4030219" cy="19.7894831" rx="5.41707661" ry="5.39713176"></ellipse>
                    </g>
                </g>
                <g id="img_facebook" transform="translate(0.000000, 14.000000)">
                    <path d="M129.573257,207.449087 C174.730346,207.459124 175.116858,158.057457 175.107026,113.17361 C175.096911,68.2897634 174.688582,19.5120371 129.531493,19.5019983 C84.374404,19.4919595 47.7810817,81.2776681 47.7910534,126.161515 C47.8010292,171.045361 84.4161682,207.439046 129.573257,207.449087 Z" id="Oval-5" fill="url(#linearGradient-3)" opacity="0.353713768" transform="translate(111.449040, 113.475542) rotate(-247.000000) translate(-111.449040, -113.475542) "></path>
                    <path d="M129.542909,207.409954 C174.717067,207.397865 175.127924,158.014235 175.140129,113.146952 C175.15194,68.2796699 174.76735,19.5201393 129.593193,19.5322223 C84.419035,19.5443098 47.7816122,81.3251488 47.769601,126.192431 C47.7575957,171.059714 84.3687515,207.422036 129.542909,207.409954 Z" id="Oval-5" fill="url(#linearGradient-4)" transform="translate(111.454865, 113.471088) rotate(-330.000000) translate(-111.454865, -113.471088) "></path>
                    <g id="facebook-logo" transform="translate(84.455319, 85.481172)" fill="#FFFFFF" fill-rule="nonzero">
                        <path d="M38.9726598,0.0157744003 L29.2591069,0 C18.3462635,0 11.2939046,7.32326532 11.2939046,18.6579606 L11.2939046,27.2605298 L1.5273617,27.2605298 C0.683416432,27.2605298 0,27.953026 0,28.8072097 L0,41.2713521 C0,42.1255359 0.684195699,42.8172433 1.5273617,42.8172433 L11.2939046,42.8172433 L11.2939046,74.2682426 C11.2939046,75.1224263 11.9773211,75.8141338 12.8212663,75.8141338 L25.5638268,75.8141338 C26.407772,75.8141338 27.0911885,75.1216376 27.0911885,74.2682426 L27.0911885,42.8172433 L38.5105549,42.8172433 C39.3545002,42.8172433 40.0379166,42.1255359 40.0379166,41.2713521 L40.0425922,28.8072097 C40.0425922,28.3970753 39.8812841,28.0042928 39.5952934,27.7140438 C39.3093028,27.4237948 38.9196697,27.2605298 38.5144513,27.2605298 L27.0911885,27.2605298 L27.0911885,19.9680246 C27.0911885,16.4629528 27.9164313,14.6836005 32.4276032,14.6836005 L38.9711012,14.6812343 C39.8142672,14.6812343 40.4976837,13.9887381 40.4976837,13.1353431 L40.4976837,1.56166563 C40.4976837,0.709059292 39.8150465,0.0173518403 38.9726598,0.0157744003 Z" id="Shape"></path>
                    </g>
                </g>
                <g id="img_linkedin" transform="translate(202.000000, 0.000000)">
                    <path d="M99.2497769,195.193271 C131.970456,195.166974 174.484232,169.645107 174.519047,126.484346 C174.553748,83.3235842 158.713057,-6.18496547 97.4397736,13.554296 C36.1664903,33.2935574 40.1014399,73.9306124 40.0666818,117.091374 C40.0319237,160.252135 66.529098,195.219539 99.2497769,195.193271 Z" id="Oval-5" fill="url(#linearGradient-5)" opacity="0.31810462" transform="translate(107.272587, 102.972586) rotate(-434.000000) translate(-107.272587, -102.972586) "></path>
                    <path d="M109.005913,191.154244 C146.976639,191.204108 196.258454,168.811336 196.208543,130.781722 C196.158557,92.7521092 177.58896,13.8491914 106.52554,31.1048975 C35.4621199,48.3606036 40.1134448,84.1754049 40.1633931,122.205018 C40.2133414,160.234631 71.0351875,191.104214 109.005913,191.154244 Z" id="Oval-5" fill="url(#linearGradient-6)" transform="translate(118.146980, 109.913413) rotate(-330.000000) translate(-118.146980, -109.913413) "></path>
                    <path d="M154.915087,114.274569 L154.915087,141.904762 L138.816281,141.904762 L138.816281,116.112236 C138.816281,109.627484 136.495052,105.22021 130.669918,105.22021 C126.215099,105.22021 123.58721,108.204093 122.414112,111.075731 C121.991728,112.109858 121.863443,113.558106 121.863443,114.987749 L121.863443,141.901479 L105.780495,141.901479 C105.780495,141.901479 105.996398,98.2339492 105.780495,93.7114597 L121.86674,93.7114597 L121.86674,100.541859 C121.844914,100.597981 121.797965,100.644568 121.775982,100.706944 L121.86674,100.706944 L121.86674,100.541859 C124.015875,97.2590713 127.823143,92.58072 136.373048,92.58072 C146.984627,92.58072 154.915087,99.4673981 154.915087,114.274569 Z M88.9402402,70.4761905 C83.4374687,70.4761905 79.8335419,74.0705449 79.8335419,78.8111158 C79.8335419,83.4239645 83.331166,87.1397879 88.7337587,87.1397879 L88.8307972,87.1397879 C94.4555734,87.1397879 97.9406359,83.4239645 97.9406359,78.8111158 C97.8311928,74.0705449 94.4557304,70.4761905 88.9402402,70.4761905 Z M80.7940343,141.904606 L96.8834191,141.904606 L96.8834191,93.7084894 L80.7940343,93.7084894 L80.7940343,141.904606 Z" id="LinkedIn_3_" fill="#FFFFFF" fill-rule="nonzero"></path>
                    <ellipse id="Oval-4" fill="#000000" opacity="0.05" cx="112.622318" cy="212.857143" rx="67.0031513" ry="6.19047619"></ellipse>
                </g>
            </g>
        </g>
    </g>
</svg>