<?xml version="1.0" encoding="UTF-8"?>
<svg width="85px" height="80px" viewBox="0 0 85 80" version="1.1" xmlns="http://www.w3.org/2000/svg" xmlns:xlink="http://www.w3.org/1999/xlink">
    <!-- Generator: sketchtool 63.1 (101010) - https://sketch.com -->
    <title>AD14CF6F-B9FF-4845-B784-2B568F540DDF</title>
    <desc>Created with sketchtool.</desc>
    <g id="Website" stroke="none" stroke-width="1" fill="none" fill-rule="evenodd">
        <g id="Social-Media---WeChat" transform="translate(-303.000000, -2676.000000)" fill="#FF5254" fill-rule="nonzero">
            <g id="imhg_comprehensive" transform="translate(303.000000, 2676.000000)">
                <path d="M84.5815916,41.1141663 L75.3754264,27.5018396 L84.5815916,13.889513 C85.0119011,13.2402277 85.1164902,12.4297876 84.8659744,11.6925088 C84.6131344,10.95523 84.034242,10.3766061 83.2974699,10.1326241 L53.2488545,0.133363632 C52.173911,-0.230442796 51.0114778,0.17969354 50.3889236,1.11712421 L42.499917,12.996079 L34.6109104,1.11712421 C33.9835418,0.174860564 32.8113137,-0.232942611 31.7509794,0.133363632 L1.70236412,10.1326241 C0.965591995,10.3767728 0.38669961,10.9553966 0.133859604,11.6925088 C-0.1166562,12.4297876 -0.0120670973,13.2402277 0.41840837,13.8896796 L9.62457364,27.5020063 L0.418574384,41.1141663 C-0.0119010829,41.7634516 -0.116490186,42.5740583 0.134025618,43.3113371 C0.386865624,44.0486159 0.965758009,44.6272398 1.70253014,44.8712218 L31.7511455,54.8704823 C32.8086575,55.2274559 33.9850359,54.8289853 34.6110764,53.8867217 L42.500083,42.0077669 L50.3890896,53.8867217 C51.0156282,54.8299853 52.1926706,55.2272892 53.2490206,54.8704823 L83.2976359,44.8712218 C84.034408,44.6270731 84.6133004,44.0484493 84.8661404,43.3113371 C85.1166562,42.5740583 85.0120671,41.7636182 84.5815916,41.1141663 Z M42.500083,34.8671283 L20.4893893,27.5020063 L42.500083,20.1368843 L64.5107767,27.5020063 L42.500083,34.8671283 Z" id="Shape"></path>
                <path d="M55.1826462,59.5996285 C52.0843897,60.656048 48.5814564,59.5103982 46.7018256,56.643355 L43.0001641,51 L39.2980103,56.643355 C37.4221538,59.5048943 33.9233231,60.6610516 30.8052103,59.5946249 L11,52.8855104 L11,67.4909188 C11,68.5683533 11.6779077,69.5237008 12.6827077,69.8632761 L42.2067282,79.8655709 C42.2956718,79.8972601 42.3846154,79.9217776 42.473559,79.9412915 C42.473559,79.9412915 42.4760205,79.9412915 42.4760205,79.9437933 L42.4784821,79.9437933 C42.6516103,79.9804861 42.8270359,80 43.0001641,80 C43.1852718,80 43.3679179,79.9779843 43.5505641,79.9364547 C43.6322872,79.9169408 43.7115487,79.8949251 43.7909744,79.8680726 L73.3174564,69.8634429 C74.3220923,69.5237008 75,68.5683533 75,67.4909188 L75,52.8858439 L55.1826462,59.5996285 Z" id="Path"></path>
            </g>
        </g>
    </g>
</svg>