<svg height="575" viewBox="0 0 490 575" width="490" xmlns="http://www.w3.org/2000/svg" xmlns:xlink="http://www.w3.org/1999/xlink"><filter id="a" height="115.6%" width="111.1%" x="-5.6%" y="-7.8%"><feOffset dx="0" dy="2" in="SourceAlpha" result="shadowOffsetOuter1"/><feGaussianBlur in="shadowOffsetOuter1" result="shadowBlurOuter1" stdDeviation="5"/><feColorMatrix in="shadowBlurOuter1" result="shadowMatrixOuter1" type="matrix" values="0 0 0 0 0   0 0 0 0 0   0 0 0 0 0  0 0 0 0.3 0"/><feMerge><feMergeNode in="shadowMatrixOuter1"/><feMergeNode in="SourceGraphic"/></feMerge></filter><linearGradient id="b" x1="8.417612%" x2="83.161423%" y1="39.710159%" y2="62.859489%"><stop offset="0" stop-color="#77b6f2"/><stop offset="1" stop-color="#427fe0"/></linearGradient><linearGradient id="c"><stop offset="0" stop-color="#fde765"/><stop offset="1" stop-color="#f9ca35"/></linearGradient><linearGradient id="d" x1="30.013021%" x2="81.591797%" xlink:href="#c" y1="24.681683%" y2="50%"/><linearGradient id="e" x1="0%" x2="100%" xlink:href="#c" y1="37.486782%" y2="60.015634%"/><filter id="f" height="115.6%" width="111.1%" x="-5.6%" y="-7.8%"><feOffset dx="0" dy="2" in="SourceAlpha" result="shadowOffsetOuter1"/><feGaussianBlur in="shadowOffsetOuter1" result="shadowBlurOuter1" stdDeviation="5"/><feColorMatrix in="shadowBlurOuter1" result="shadowMatrixOuter1" type="matrix" values="0 0 0 0 0   0 0 0 0 0   0 0 0 0 0  0 0 0 0.3 0"/><feMerge><feMergeNode in="shadowMatrixOuter1"/><feMergeNode in="SourceGraphic"/></feMerge></filter><linearGradient id="g" x1="100%" x2="38.86611%" y1="62.733229%" y2="45.12222%"><stop offset="0" stop-color="#da3e3f"/><stop offset="1" stop-color="#ff5254"/></linearGradient><linearGradient id="h" x1="30.013021%" x2="81.591797%" xlink:href="#c" y1="24.652834%" y2="50%"/><linearGradient id="i" x1="0%" x2="100%" xlink:href="#c" y1="37.472524%" y2="60.027047%"/><g fill="none" fill-rule="evenodd" transform="translate(10 8)"><g filter="url(#a)"><path d="m16.2414127 63.2090637 337.0643183-62.68005096c10.792441-2.00556688 21.175636 5.0953758 23.188073 15.86289176l35.778941 191.4595415c2.014313 10.767516-5.104305 21.123057-15.898623 23.130497l-337.0661956 62.678178c-10.7943182 2.00744-21.1756364-5.093503-23.1880728-15.861019l-35.77894087-191.4595415c-2.01243637-10.7675159 5.10618182-21.1230573 15.90049997-23.1304968" fill="url(#b)"/><path d="m68.5520295 110.137238c-2.6670915-14.2917877 6.7693055-28.0381872 21.079528-30.701843 14.3102225-2.6636557 28.0743525 6.7624468 30.7414445 21.052374 2.668955 14.293649-6.769306 28.038187-21.0795282 30.703704-14.3120863 2.663656-28.0743528-6.762446-30.7414443-21.054235" fill="#ff5254"/><path d="m36.6988073 115.622274c-2.6689586-14.291772 6.7693142-28.0362936 21.0795549-30.7018076 14.3102407-2.6636527 28.0743886 6.7624388 30.7414834 21.0542106 2.6670949 14.291771-6.7711779 28.036293-21.0814186 30.701807-14.3102407 2.663653-28.0725248-6.760577-30.7396197-21.05421" fill="url(#d)"/><g fill="#1f4b80"><path d="m287.781915 111.914475 69.955711-13.1831317 3.637374 19.7292117-69.955711 13.181236z" opacity=".376415"/><path d="m166.957447 88.7232919 183.197645-33.8725456 3.531078 18.7841707-183.197645 33.872546z" opacity=".376415"/><path d="m205.401596 127.272684 69.955803-13.183132 3.637282 19.729212-69.955803 13.181236z" opacity=".376415"/><path d="m123.021277 142.630892 69.955803-13.183131 3.637282 19.727317-69.955804 13.183131z" opacity=".376415"/><path d="m40.6409574 157.989101 69.9575856-13.183131 3.6355 19.727317-69.9557111 13.183131z" opacity=".376415"/></g><path d="m298.491973 158.765252 62.850454-11.634114c4.199153-.776228 8.235214 1.973146 9.016932 6.13909l6.261237 33.346162c.781718 4.169667-1.987099 8.177386-6.184378 8.953614l-62.850453 11.634114c-4.197279.77809-8.235215-1.971284-9.016932-6.139089l-6.261238-33.346163c-.781717-4.167805 1.987099-8.177386 6.184378-8.953614" fill="url(#e)"/><path d="m350.390957 198.559701-8.787234-48.268656" stroke="#d5b566" stroke-width=".882"/><path d="m325.12766 204.044776-8.787234-48.268657" stroke="#d5b566" stroke-width=".882"/><path d="m293.273936 172.231343 77.986702-15.358209" stroke="#d5b566" stroke-width=".882"/><path d="m297.667553 197.462687 77.986702-15.358209" stroke="#d5b566" stroke-width=".882"/><path d="m262.943217 171.818701c-6.659234 11.484277-3.932693 26.208097 6.390156 34.50398.826054.668748 1.138412 1.80543.622834 2.585952-.515578.780521-1.785707.846828-2.739714.077673-11.632492-9.349209-14.70338-25.942871-7.201156-38.883994.615306-1.064693 1.825221-1.462531 2.583535-.920713.762076.541819.876858 1.714495.344345 2.637102" fill="#fff" opacity=".232394"/><path d="m270.350651 174.99307c-4.518455 8.312906-2.607943 18.788381 4.538858 24.879964.76235.653888 1.059129 1.741806.573154 2.492355-.482265.748655-1.710187.797933-2.624636.017058-8.322786-7.09421-10.546771-19.292538-5.28637-28.97387.578719-1.065174 1.739865-1.47267 2.455844-.951455.717833.523111.82356 1.645144.34315 2.535948" fill="#fff" opacity=".232394"/><path d="m278.250252 176.955187c-3.272055 6.269827-1.863783 14.101465 3.366423 18.728568.631545.560747.881985 1.484662.475474 2.126322-.059888.08844-.117961.17688-.17422.26532-.404696.637896-1.459086.66424-2.244887-.031989-6.302744-5.573598-7.999566-15.008446-4.056042-22.561593.489992-.944614 1.482679-1.313427 2.081557-.869346.085295.060215.17059.122311.255885.182525.600693.444081.689618 1.399986.29581 2.160193" fill="#fff" opacity=".232394"/></g><g filter="url(#f)" transform="matrix(.80901699 .58778525 -.58778525 .80901699 173.159141 133.35248)"><path d="m16.2234912 63.1752785 336.6923858-62.64654852c10.780532-2.0044949 21.15227 5.09265232 23.162486 15.85441302l35.73946 191.357206c2.012091 10.761761-5.098672 21.111767-15.881079 23.118134l-336.6942608 62.644677c-10.7824072 2.006366-21.1522702-5.090781-23.1624859-15.852542l-35.73946075-191.3572059c-2.01021575-10.7617607 5.10054742-21.1117671 15.88295465-23.1181336" fill="url(#g)"/><path d="m68.476386 110.07837c-2.6641485-14.284149 6.761836-28.0232011 21.0562678-30.6854332 14.2944322-2.662232 28.0433742 6.7588323 30.7075232 21.0411212 2.66601 14.28601-6.761836 28.023201-21.0562683 30.687294-14.2962936 2.662232-28.0433742-6.758833-30.7075227-21.042982" fill="#f7f7f7"/><path d="m36.6583122 115.560474c-2.6660137-14.284133 6.7618445-28.0213083 21.0562946-30.6853976 14.2944501-2.6622289 28.04341 6.7588244 30.7075619 21.0429566 2.6641519 14.284133-6.7637063 28.021308-21.0581564 30.685398-14.2944501 2.662229-28.0415483-6.756964-30.7057001-21.042957" fill="url(#h)"/><g fill="#1f4b80"><path d="m287.464363 111.854656 69.878518-13.1760846 3.633361 19.7186666-69.878518 13.174191z" opacity=".376415"/><path d="m166.773218 88.6758694 182.995497-33.8544408 3.527181 18.7741306-182.995496 33.8544408z" opacity=".376415"/><path d="m205.174946 127.204656 69.878611-13.176085 3.633268 19.718667-69.878611 13.174191z" opacity=".376415"/><path d="m122.885529 142.554656 69.878611-13.176085 3.633268 19.716773-69.878611 13.176085z" opacity=".376415"/><path d="m40.5961123 157.904656 69.8803907-13.176085 3.631488 19.716773-69.8785179 13.176085z" opacity=".376415"/></g><path d="m298.162603 158.680392 62.781102-11.627895c4.194519-.775813 8.226127 1.972091 9.006982 6.135808l6.254329 33.328339c.780855 4.167438-1.984907 8.173015-6.177554 8.948828l-62.781102 11.627896c-4.192647.777673-8.226127-1.970231-9.006982-6.135808l-6.254329-33.328339c-.780855-4.165578 1.984907-8.173015 6.177554-8.948829" fill="url(#i)"/><path d="m350.00432 198.453571-8.777538-48.242857" stroke="#d5b566" stroke-width=".882"/><path d="m324.768898 203.935714-8.777537-48.242857" stroke="#d5b566" stroke-width=".882"/><path d="m292.950324 172.139286 77.900648-15.35" stroke="#d5b566" stroke-width=".882"/><path d="m297.339093 197.357143 77.900648-15.35" stroke="#d5b566" stroke-width=".882"/><path d="m262.653074 171.726864c-6.651887 11.478138-3.928354 26.194089 6.383104 34.485538.825143.668391 1.137155 1.804465.622146 2.584569-.515009.780105-1.783735.846376-2.73669.077632-11.619657-9.344212-14.687156-25.929004-7.19321-38.863211.614627-1.064123 1.823207-1.461749 2.580684-.92022.761236.541528.875891 1.713579.343966 2.635692" fill="#fff" opacity=".232394"/><path d="m270.052333 174.899537c-4.513469 8.308463-2.605064 18.778338 4.53385 24.866665.761509.653538 1.05796 1.740874.572522 2.491023-.481734.748254-1.7083.797506-2.62174.017049-8.313603-7.090419-10.535134-19.282226-5.280537-28.958384.57808-1.064605 1.737945-1.471882 2.453134-.950946.717041.522831.822652 1.644265.342771 2.534593" fill="#fff" opacity=".232394"/><path d="m277.943217 176.860604c-3.268444 6.266476-1.861726 14.093929 3.362709 18.718558.630848.560447.881012 1.483868.474949 2.125185-.059822.088393-.117831.176786-.174027.265178-.40425.637556-1.457476.663886-2.24241-.031972-6.295789-5.570618-7.99074-15.000423-4.051566-22.549533.489451-.944109 1.481042-1.312725 2.07926-.868881.0852.060182.170401.122245.255602.182427.60003.443844.688857 1.399237.295483 2.159038" fill="#fff" opacity=".232394"/></g></g></svg>