<svg height="376" viewBox="0 0 500 376" width="500" xmlns="http://www.w3.org/2000/svg"><g fill="none"><g fill="#427fe0" transform="translate(11.709602 60.909657)"><path d="m47.0937548 292.692472h-46.04272052l-.79384001-29.33551h46.04272053z"/><path d="m106.631756 292.692472h-46.042721l-.79384-49.1568h46.042721z"/><path d="m165.375916 292.692472h-46.04272v-72.942349h45.24888z"/><path d="m224.913917 292.692472h-46.042721l-.79384-116.549187h46.042721z"/><path d="m283.658078 292.692472h-45.248881l-.79384-153.813213h46.042721z"/><path d="m343.196078 292.692472h-46.04272l-.79384-204.5557163h46.04272z"/><path d="m402.734079 292.692472h-46.042721l-.79384-221.9984517h46.042721z"/><path d="m461.47824 292.692472h-46.042721v-292.56224516h46.042721z"/></g><path d="m111.635269 375.794698c83.221014 0 146.627501-30.780008 145.042339-29.990777 72.917459-29.990776 138.701689-75.766171 190.219459-135.747724l7.925811 6.313847 26.947757 19.730774c2.377743 1.578462 4.755487 1.578462 7.13323 1.578462.792581 0 1.585162 0 2.377743-.789231 4.755487-2.367693 8.718392-7.103078 7.925811-12.627695l.792581-115.22772c-.792581-5.524616-4.755486-9.4707711-9.510973-9.4707711-.792581 0-2.377743 0-3.170324 0l-110.961352 31.5692381c-2.377743 0-3.962905 1.578462-5.548068 3.156924-3.170324 2.367693-4.755486 6.313848-3.962905 10.260002.792581 2.367693 1.585162 6.313848 6.340649 8.681541l22.19227 16.57385 14.26646 11.049233c-44.384541 58.403091-103.828122 108.913872-145.83492 133.380032-55.480675 31.569238-95.902311 45.775396-160.89396 52.878474-8.7183914.789231-17.4367833 1.578462-17.4367833 5.524617 0 2.367693 17.4367833 3.946155 26.1551753 3.156924z" fill="#000" opacity=".3"/><path d="m25.5062558 276.230835c83.3600682 0 146.8725012-30.780008 145.2846902-29.990777 73.039297-29.990776 138.933446-75.766171 190.537298-135.747724l7.939054 6.313848 26.992784 19.730773c2.381716 1.578462 4.763432 1.578462 7.145149 1.578462.793905 0 1.58781 0 2.381716-.789231 4.763432-2.367692 8.732959-7.103078 7.939054-12.627695l.793905-115.22771952c-.793905-5.5246167-4.763432-9.47077148-9.526865-9.47077148-.793905 0-1.58781 0-3.175621 0l-111.146758 31.5692383c-2.381716.7892309-3.969527 1.5784619-5.557337 3.1569238-3.175622 2.3676929-4.763433 6.3138476-3.969527 10.2600024.793905 2.3676929 1.58781 6.3138477 6.351243 8.6815405l22.229351 16.5738501 14.290298 11.0492334c-44.458703 58.4030905-103.207704 108.9138715-145.28469 133.3800315-55.573379 31.569238-96.0625547 45.775396-161.1627983 52.878474-8.73295949.789231-17.46591899 1.578462-17.46591899 5.524617-1.58781082 2.367693 15.87810819 3.946155 25.40497309 3.156924z" fill="#ff5254"/></g></svg>