<?xml version="1.0" encoding="UTF-8"?>
<svg width="313px" height="178px" viewBox="0 0 313 178" version="1.1" xmlns="http://www.w3.org/2000/svg" xmlns:xlink="http://www.w3.org/1999/xlink">
    <!-- Generator: Sketch 63.1 (92452) - https://sketch.com -->
    <title>img_kols_mob</title>
    <desc>Created with Sketch.</desc>
    <defs>
        <polygon id="path-1" points="0.168610358 0.148191696 81.0474267 0.148191696 81.0474267 162 0.168610358 162"></polygon>
        <polygon id="path-3" points="0.156300003 0.0943162226 26.8665105 0.0943162226 26.8665105 50.85334 0.156300003 50.85334"></polygon>
        <polygon id="path-5" points="0 178 313 178 313 0 0 0"></polygon>
    </defs>
    <g id="Page-1" stroke="none" stroke-width="1" fill="none" fill-rule="evenodd">
        <g id="Social-Media---WeChat---Mobile" transform="translate(-31.000000, -5770.000000)">
            <g id="img_kols_mob" transform="translate(31.000000, 5770.000000)">
                <path d="M38.7375256,112.159286 L36.1593939,113 C36.1593939,113 31.0304787,103.632638 29,98.7542397 L33.8172483,96 C35.8728392,101.498839 37.7246083,105.847016 39,111.05919 L38.7375256,112.159286 Z" id="Fill-1" fill="#2E5A99"></path>
                <path d="M6,165.116404 L8.21182569,166 L11,162.630747 L7.95923388,161 C7.31984713,162.341436 6.67145493,163.710802 6,165.116404" id="Fill-3" fill="#B3680A"></path>
                <path d="M32,121.032136 L17.5815947,121 C17.5815947,121 16.2732125,130.049899 15.5406982,137.846299 C15.3215427,140.178231 14.6086794,142.428514 13.5245057,144.505412 C10.9054955,149.523522 9.49455387,155.303746 7,161.385528 L9.59075018,163 L21.6588961,147.041371 C22.5342077,145.834207 23.2528728,144.523161 23.7984219,143.136072 C26.1080693,137.26467 32,121.032136 32,121.032136" id="Fill-5" fill="#427FE0"></path>
                <path d="M37.9728408,142.454419 L32.4263868,121.06325 L18,121 C19.2240321,127.814387 24.672003,134.982452 28.9774193,142.365157 C29.6322297,143.487945 30.1666926,144.676977 30.5565142,145.916909 C32.5884075,152.380987 35.1091662,158.628366 38.9765472,165 L42,163.923808 L38.2430623,143.670772 C38.167191,143.262265 38.0771171,142.856564 37.9728408,142.454419" id="Fill-7" fill="#427FE0"></path>
                <path d="M39,165.087458 C39.7833382,166.350928 40.5990743,167.647106 41.4572365,169 L43,168.313533 L42.1200463,164 L39,165.087458 Z" id="Fill-9" fill="#B3680A"></path>
                <polygon id="Fill-11" fill="#FF5254" points="42 167.820787 43.4674668 167.058583 46.465318 167.63748 48.5252745 167 49 168.022782 43.2688085 171"></polygon>
                <path d="M32.0314346,112.681948 C32.0314346,109.053509 33.6335086,101.287627 33.9915139,96.8844685 C34.0864226,95.717157 33.3771245,94.6326242 32.2706642,94.2559154 C27.0838752,92.4893453 20.1730667,92.4650536 15.0075342,94.9633656 C14.8156658,100.921569 18.3520874,113.641845 18.3520874,113.641845 L17.9167007,121 L33.0301204,121 L32.0142802,112.685311 L32.0314346,112.681948 Z" id="Fill-13" fill="#2E5A99"></path>
                <path d="M21,93.2202272 L28.4395194,99 L30,93.4449445 C27.126663,92.9523161 24.0042764,92.8559045 21,93.2202272" id="Fill-15" fill="#B3680A"></path>
                <path d="M13.7194193,113 L11,111.785955 C11,111.785955 12.3629662,95.9775312 14.5308775,95 C17.9138688,96.2964614 19.7235584,99.8066952 18.7274342,103.139725 L16.0643342,112.049577 L13.7194193,113 Z" id="Fill-17" fill="#2E5A99"></path>
                <polygon id="Fill-19" fill="#FF5254" points="5.67109863 165 7.77722669 165.867251 9.17726852 168.675908 11 170.103112 10.4472198 171 4 167.711966"></polygon>
                <path d="M12.0804962,112.249504 C11.856322,113.402512 12.1034595,114.44118 12.7833227,115.221962 C13.6393632,116.204885 15.2138527,116.260274 16.1728514,115.366577 C19.699595,112.078886 24.3905009,107.692152 26,105.325228 L25.655551,104 L12.0804962,112.249504 Z" id="Fill-21" fill="#B3680A"></path>
                <path d="M25.3647162,105.773978 L28.0871333,105.393665 L29.7889429,106 L29.8106665,105.448842 C29.836376,104.8047 29.4899952,104.205109 28.9267777,103.918801 L28.0233578,103.459401 L29.8064812,103.419755 L30,103.019414 L27.1203364,103 L25,104.253338 L25.3647162,105.773978 Z" id="Fill-23" fill="#B3680A"></path>
                <path d="M32.6847819,106 L37.8253269,106 C38.333153,106 38.8683842,105.646746 39.0205659,105.210437 L41.9593549,96.7893846 C42.1115366,96.3534318 41.8231595,96 41.3151258,96 L36.1747884,96 C35.6667548,96 35.1317312,96.3534318 34.9795494,96.7893846 L32.0405529,105.210437 C31.8885788,105.646746 32.1769559,106 32.6847819,106" id="Fill-25" fill="#8CADFF"></path>
                <path d="M34.6255639,106 L39.1863408,106 C39.6504412,106 40.1391975,105.646746 40.278219,105.210437 L42.9628697,96.7893846 C43.1018912,96.3534318 42.8384522,96 42.3743518,96 L37.8137645,96 C37.3496642,96 36.8609079,96.3534318 36.7218864,96.7893846 L34.037046,105.210437 C33.8982142,105.646746 34.1616532,106 34.6255639,106" id="Fill-27" fill="#B3C9FF"></path>
                <polygon id="Fill-29" fill="#B3680A" points="39 105.717783 39.426843 103.481361 39.1021488 101.962688 39.6819174 100 42 101.453085 41.7677355 104.022001 40.4037025 106"></polygon>
                <path d="M40,111.517226 L39.7385031,104.277376 L38.3491534,104 L36,110.269439 L36.0041227,112.624698 C37.5065521,114.812799 40,114.35098 40,111.517226" id="Fill-31" fill="#B3680A"></path>
                <polygon id="Fill-33" fill="#B3680A" points="27.3763291 89.5365183 28 95 24 93.0392691 24.4111993 88"></polygon>
                <path d="M29.3878005,91.0768209 C29.2104893,91.8960432 28.1695804,92.4416845 26.6690972,91.5163758 L24.4099681,89.3984513 L24,85.6552005 L26.1877947,83 L31,84.2916678 L29.3878005,91.0768209 Z" id="Fill-35" fill="#B3680A"></path>
                <path d="M29.042428,82.7000672 L26.1334663,82.1131542 C24.121811,81.5898775 22.9309523,82.9171196 23.0031015,85.3573886 L23.1927906,88.3414034 C23.2441275,89.1455714 23.1955655,89.5610312 23.8566031,90 L24.0500582,89.7132314 C24.4579788,89.109092 24.6171432,88.365115 24.493657,87.6422149 C24.4014884,87.0932 24.568383,86.6151172 24.8641156,86.5632354 C25.1600463,86.5113536 25.4730233,86.9053311 25.5632099,87.4431995 C26.8949974,86.668823 26.6551607,84.6867757 28.0824865,84.6253687 L27.8880404,85.9998314 L29.8291321,85.8028426 C30.4172276,85.7430569 30.8933333,85.2882804 30.9918447,84.6928556 C31.1081952,83.7482419 29.9559879,82.8842881 29.042428,82.7000672" id="Fill-37" fill="#4F2674"></path>
                <polygon id="Fill-39" fill="#FF5254" points="106.689518 166.5159 106.674289 164.758825 102.694343 163 101 165.517942 105.298729 168.403287 109.666606 169 110 167.988233"></polygon>
                <polygon id="Fill-41" fill="#FF5254" points="135 167.075709 139.081806 167 141.916204 170.367259 144.929513 170.780488 145 172 135.195083 172"></polygon>
                <path d="M134,119.138364 L119.260599,117 C117.511249,123.491052 116.8168,129.311845 116.253729,135.013593 C115.960259,137.986391 114.847069,140.815815 113.028514,143.18057 C109.139196,148.238431 105.795187,154.880287 103,162.212087 L106.579378,164 L122.222135,145.873119 C123.356049,144.558974 124.267547,143.06951 124.922027,141.460072 C127.457975,135.224755 134,119.138364 134,119.138364" id="Fill-43" fill="#2E5A99"></path>
                <path d="M136.44634,115 L123,121.61782 C125.245935,127.944179 127.98498,133.120998 130.765413,138.125127 C132.215287,140.734196 132.903218,143.69087 132.741396,146.666999 C132.39538,153.032268 133.404345,160.388655 135.261198,168 L139.326141,167.762088 L141.902432,143.655479 C142.094642,141.931726 142.002545,140.190185 141.628937,138.496077 C140.181114,131.932733 136.44634,115 136.44634,115" id="Fill-45" fill="#2E5A99"></path>
                <path d="M139.845131,101 L135,105.009352 C138.02295,108.250365 140.803164,111 140.803164,111 L143.431204,109.524269 L144,106.990648 L139.845131,101 Z" id="Fill-47" fill="#F4ACC8"></path>
                <path d="M135.404804,93.5493652 C133.641909,91.6977235 129.335121,94.9379605 130.087295,97.1777708 C131.355012,99.0504436 133.607217,101.66555 135.724797,104 L140,100.362167 L135.404804,93.5493652 Z" id="Fill-49" fill="#FF5254"></path>
                <path d="M135.323956,104.849991 L139.779765,100.885467 C140.038182,100.655576 140.074415,100.243672 139.860692,99.9657063 L138.531086,98.2367787 C138.317363,97.9588128 137.934428,97.9200361 137.676011,98.1499267 L133.220203,102.114451 C132.961786,102.34454 132.925552,102.756246 133.139459,103.034212 L134.468881,104.763139 C134.682788,105.041105 135.065539,105.08008 135.323956,104.849991" id="Fill-51" fill="#FF5254"></path>
                <path d="M141.448675,106 L139,107.980681 L140.315414,111.045294 C145.347827,113.029991 152.363492,111.41986 155.442405,110.687799 L156,109.328315 L141.448675,106 Z" id="Fill-53" fill="#F4ACC8"></path>
                <path d="M132.988692,93.3810542 C128.466705,91.7093037 123.308973,91.4483395 118.426224,93.1906109 C117.39249,93.5595603 116.703014,94.5024107 116.671927,95.5582047 C116.485214,101.902519 116.123877,116.990145 116.000489,122.196574 C115.976886,123.187724 116.809899,124 117.845744,124 L136.154179,124 C137.226676,124 138.07293,123.128956 137.995021,122.105301 C137.58974,116.781887 136.326692,101.656981 134.619217,95.162259 C134.406215,94.3521863 133.802708,93.6820537 132.988692,93.3810542" id="Fill-55" fill="#FF5254"></path>
                <path d="M132,92.6127645 C129.103099,91.9768769 126.045541,91.8146981 123,92.2262841 C123.711997,93.4505967 126.614801,95 128.732448,95 C130.620493,95 132,94.0626614 132,92.6127645" id="Fill-57" fill="#F4ACC8"></path>
                <polygon id="Fill-59" fill="#F4ACC8" points="129.527873 88.5014242 130 93 125 92.1733621 126.441161 87"></polygon>
                <path d="M130.41144,89.8854244 C130.355732,90.7469975 129.505589,91.4336829 128.07024,90.6694037 L125.559309,89.0532002 L125,84.9899763 L126.601913,82 L131,82.7337242 L130.41144,89.8854244 Z" id="Fill-61" fill="#F4ACC8"></path>
                <path d="M130.972222,85.8209553 C131.555014,85.8602677 132.038973,85.3916806 131.99752,84.8280723 L131.715313,82.0108211 L130.549319,82.9272525 L125.748732,82.0201059 C123.669546,81.812284 122.673653,83.2318736 123.095126,85.5216681 L123.711408,88.3073114 C123.866193,89.0058459 123.819227,89.3784239 124.391401,89.684823 L125.267836,87.7032055 L125.968658,87.7636556 L125.664192,90.4941827 L126.614549,91.2986036 C128.184046,92.5087909 129.395373,91.9738273 129.676764,91.041987 L129.83257,89.1619099 L126.860817,88.8967986 L126.915543,85.4383022 L125.848383,84.7701904 L130.972222,85.8209553 Z" id="Fill-63" fill="#945561"></path>
                <path d="M126.938765,86.8297996 C127.070965,87.3737934 126.98209,87.8911823 126.739779,87.9852726 C126.497469,88.0791467 126.193511,87.7144654 126.061311,87.1702553 C125.92894,86.6262616 126.017986,86.1088727 126.260297,86.0147823 C126.502607,85.9206919 126.806393,86.2855895 126.938765,86.8297996" id="Fill-65" fill="#F4ACC8"></path>
                <path d="M106,106.800745 L107.618906,109.529712 L110.188341,110 L116,105.208342 L111.940602,100 C108.747308,103.511663 106,106.800745 106,106.800745" id="Fill-67" fill="#F4ACC8"></path>
                <path d="M117.886093,94.1147391 C116.254917,95.4081711 114.022156,97.6404419 112,99.7719104 L115.43814,104 L121.552163,99.1682862 C123.194379,97.3443244 119.942897,93.2659934 117.886093,94.1147391" id="Fill-69" fill="#FF5254"></path>
                <polygon id="Fill-71" fill="#F4ACC8" points="107.634966 122 108.323546 122.555206 108.418288 124.029847 109.494092 125.090644 110 126.977949 107.194489 127 106.066464 124.801425 106 122.786344"></polygon>
                <path d="M111,106.489787 L108.957945,104 L105.988385,105.471775 C104.220861,110.78567 105.199234,118.812425 106.034899,122 L108.263009,121.776357 L111,106.489787 Z" id="Fill-73" fill="#F4ACC8"></path>
                <path d="M150.684776,111 L155.825457,111 C156.333235,111 156.868298,110.646516 157.020548,110.210606 L159.95933,101.789394 C160.11158,101.353484 159.823117,101 159.315339,101 L154.174657,101 C153.666671,101 153.131608,101.353484 152.979567,101.789394 L150.040576,110.210606 C149.888534,110.646516 150.176997,111 150.684776,111" id="Fill-75" fill="#8CADFF"></path>
                <path d="M150.684776,111 L155.825457,111 C156.333235,111 156.868298,110.646516 157.020548,110.210606 L159.95933,101.789394 C160.11158,101.353484 159.823117,101 159.315339,101 L154.174657,101 C153.666671,101 153.131608,101.353484 152.979567,101.789394 L150.040576,110.210606 C149.888534,110.646516 150.176997,111 150.684776,111" id="Fill-77" fill="#B3C9FF"></path>
                <path d="M155.818388,109.646949 L155.915408,108.356995 L155,106.962433 L155.600041,105 L158,106.452885 L157.759407,109.021793 L156.347363,111 C155.975144,110.654213 155.780074,110.155666 155.818388,109.646949" id="Fill-79" fill="#F4ACC8"></path>
                <path d="M115.181194,104.788063 L111.157114,100.382002 C110.92378,100.126371 110.953755,99.7404268 111.224313,99.5199665 L112.906433,98.1485214 C113.176991,97.9278759 113.585276,97.9563821 113.818806,98.2120125 L117.842886,102.618074 C118.07622,102.873704 118.046245,103.259649 117.775687,103.480294 L116.093567,104.851554 C115.823009,105.072014 115.414528,105.043693 115.181194,104.788063" id="Fill-81" fill="#FF5254"></path>
                <path d="M87.6604481,112.878885 C85.7196887,110.670904 80.4578426,104.307742 79.1259704,102.89004 C76.9906596,100.617483 73.7794652,103.113062 75.4779497,105.715034 C76.5181777,107.309177 86.4838147,117.675781 89,115.766162 L87.6604481,112.878885 Z" id="Fill-83" fill="#B3680A"></path>
                <path d="M86,112.942422 L88.181674,116 C91.1851099,114.042856 92.6293939,112.345297 96,108.53082 L95.1444894,107 L86,112.942422 Z" id="Fill-85" fill="#B3680A"></path>
                <polygon id="Fill-87" fill="#B3680A" points="96.2957888 109 97.1748586 107.706126 97.8791326 106.659151 98 105 95.7395349 105.386321 95.1657448 107.396655 95 108.9767"></polygon>
                <path d="M78.9596011,90 L74.6121055,91.1152226 L74.2342918,94.7327728 L74,101 L78.5155745,101 C81.1117024,97.0058902 82.2882547,91.0936253 78.9596011,90" id="Fill-89" fill="#4F2674"></path>
                <path d="M81,106.499977 C81,104.347847 77.9255146,102.006885 77.205522,100.308684 C75.4513335,99.8347717 74.0853282,99.8888545 72.2161914,100.594131 C70.730667,101.154943 69.8286871,102.721145 70.0272648,104.477829 C70.362968,107.447251 71.3209831,110.233709 71.5050019,113 L80.732521,113 C80.732521,110.328675 81,109.00667 81,106.499977" id="Fill-91" fill="#427FE0"></path>
                <path d="M66.9080072,122 C65.5076604,127.05077 65.7840891,133.713915 65.8580286,139.605892 C65.8794223,141.312642 65.2400519,142.969604 64.0436956,144.198902 C59.6013197,148.763303 56.1569394,154.269232 52,159.957037 L53.02577,161 L70.1930609,147.159103 C71.2959607,146.269779 72.0817088,145.053857 72.4348919,143.689868 L77,126.051651 L66.9080072,122 Z" id="Fill-93" fill="#B3680A"></path>
                <path d="M85.6327788,144.863897 C85.6327788,144.863897 81.510019,120.930311 81.510019,120.930311 C81.510019,120.930311 81.0981106,116.255416 81.064658,113 L71.0459658,113 C70.86988,115.632121 66.1957034,118.137729 67.1211647,123.676703 C67.4457654,125.619861 74.0680976,135.229543 77.6348454,141.486605 C78.7597357,143.459629 79.5789573,145.587364 80.1643782,147.785776 C81.9072229,154.332039 84.7790017,160.444779 88.571279,168 L90,167.816536 L85.6327788,144.863897 Z" id="Fill-95" fill="#B3680A"></path>
                <polygon id="Fill-97" fill="#2E5A99" points="52.0791029 160 53.2161285 161.042429 53.7633156 163.743942 55 165.323183 54.3121671 166 50 162.046421"></polygon>
                <polygon id="Fill-99" fill="#2E5A99" points="89 168.190012 90.4452433 168 92.900093 169.27912 94.8281996 169.349894 95 170.279377 89.5191199 171"></polygon>
                <path d="M82.3571028,120.999798 C82.3571028,120.999798 81.4638594,116.283941 81.4303582,113 L71.3416686,113 C71.218769,114.837802 67.3653845,117.823083 66.6666705,121.944243 C65.9124296,126.391195 65.8217356,132.303186 66.2757608,139 L85,139 L82.3571028,120.999798 Z" id="Fill-101" fill="#FF5254"></path>
                <polygon id="Fill-103" fill="#B3680A" points="77.8249105 97.3169832 78 102 74 100.483062 74.9752463 96"></polygon>
                <path d="M77.9415053,97.9984975 C77.1053594,97.9596032 76.152923,97.5145902 75.5700888,97.1957366 C75.2089764,96.9981065 74.9299978,96.6849784 74.7759969,96.3031438 C74.1779601,94.8182533 72.9149552,90.8800654 75.9469961,90.0603253 C76.6182821,89.8788847 77.5642031,90.1347573 78.3752745,90.4553879 C79.4159653,90.86664 80.0635588,91.9053328 79.9950482,93.022209 C79.9174554,94.290516 79.7129106,95.5736304 79.4080678,96.8685907 C79.2493284,97.5424282 78.6331273,98.030679 77.9415053,97.9984975" id="Fill-105" fill="#B3680A"></path>
                <path d="M82,88.4423161 C81.4489428,88.9686872 80.8408004,89.2690395 80.1110648,89.083206 L76.5730228,88.2030908 C75.0002651,87.7925591 72.0415578,87.5703135 72.0415578,92.0301297 C72.0415578,94.1899493 69.6473395,93.3673765 68,99.6994891 C69.2885691,101.171253 74.554188,102.246635 76.2868901,97.9939712 C77.4996402,95.0178047 75.957811,92.9991053 77.5344569,91.5258322 C79.6690526,91.5258322 82,91.6858188 82,88.4423161" id="Fill-107" fill="#4F2674"></path>
                <path d="M73.9939806,105.083188 C73.9012745,101.835596 68.6110482,100.698005 68.0571616,103.918502 C67.7175242,105.891161 68.8507169,121.854251 72.5519101,122 L73.6492166,118.790154 C73.6737815,116.105379 74.0518684,107.109289 73.9939806,105.083188" id="Fill-109" fill="#B3680A"></path>
                <path d="M73.3895666,118 L73,121.844722 C75.8713223,122.291811 77.8330048,121.712844 82.3488876,120.880047 L83,119.236332 L73.3895666,118 Z" id="Fill-111" fill="#B3680A"></path>
                <polygon id="Fill-113" fill="#B3680A" points="83.6641154 121 85.5418455 120.707847 86.7917971 120.371257 88 119.185629 85.9858131 118 84.1898411 119.156508 83 120.252506"></polygon>
                <path d="M96.6163529,109 L101.242789,109 C101.699881,109 102.181483,108.646325 102.318485,108.210526 L104.963419,99.7894737 C105.100421,99.3534748 104.840662,99 104.383779,99 L99.757134,99 C99.3002512,99 98.8186494,99.3534748 98.6816474,99.7894737 L96.0365035,108.210526 C95.899711,108.646325 96.1592607,109 96.6163529,109" id="Fill-115" fill="#8CADFF"></path>
                <path d="M95.6163518,109 L100.242779,109 C100.69987,109 101.181471,108.646325 101.318473,108.210526 L103.963402,99.7894737 C104.100404,99.3534748 103.840855,99 103.383763,99 L98.7573364,99 C98.300245,99 97.8184346,99.3534748 97.6816424,99.7894737 L95.0365035,108.210526 C94.8997112,108.646325 95.1592604,109 95.6163518,109" id="Fill-117" fill="#B3C9FF"></path>
                <path d="M96.0923566,109 C96.046589,109 96.0175477,108.988045 96.0100117,108.977086 C96.0000862,108.96254 95.9923663,108.912925 96.0131364,108.838204 L98.3338678,100.440954 C98.3963617,100.214001 98.6463375,100 98.8481562,100 L102.907506,100 C102.953274,100 102.982131,100.011955 102.989851,100.022715 C103,100.037659 103.00768,100.086876 102.986727,100.161995 L100.666179,108.559046 C100.603501,108.785999 100.353525,109 100.151707,109 L96.0923566,109 Z" id="Fill-119" fill="#2C72B7"></path>
                <polygon id="Fill-121" fill="#B3680A" points="96.5251914 106 96 105.312927 97.8191205 104 98 104.603563"></polygon>
                <g id="Group-125" transform="translate(189.000000, 16.000000)">
                    <mask id="mask-2" fill="white">
                        <use xlink:href="#path-1"></use>
                    </mask>
                    <g id="Clip-124"></g>
                    <path d="M0.168610358,8.14000484 L0.168610358,154.008392 C0.168610358,158.422005 3.74436751,162.000019 8.15542662,162.000019 L73.0604237,162.000019 C77.4714828,162.000019 81.0474267,158.422005 81.0474267,154.008392 L81.0474267,8.14000484 C81.0474267,3.72620554 77.4714828,0.148191696 73.0604237,0.148191696 L8.15542662,0.148191696 C3.74436751,0.148191696 0.168610358,3.72620554 0.168610358,8.14000484" id="Fill-123" fill="#427FE0" mask="url(#mask-2)"></path>
                </g>
                <path d="M197.160093,25 C194.314672,25 192,27.3166509 192,30.1643173 L192,160.835496 C192,163.683349 194.314672,166 197.160093,166 L261.840279,166 C264.685514,166 267,163.683349 267,160.835496 L267,30.1643173 C267,27.3166509 264.685514,25 261.840279,25 L197.160093,25 Z" id="Fill-126" fill="#EBF1F9"></path>
                <path d="M231,20.5 C231,21.3284389 230.328275,22 229.5,22 C228.671561,22 228,21.3284389 228,20.5 C228,19.6715611 228.671561,19 229.5,19 C230.328275,19 231,19.6715611 231,20.5" id="Fill-128" fill="#EBF1F9"></path>
                <path d="M239.263323,173 L220.736867,173 C219.777419,173 219,172.328275 219,171.5 C219,170.671561 219.777419,170 220.736867,170 L239.263323,170 C240.222581,170 241,170.671561 241,171.5 C241,172.328275 240.222581,173 239.263323,173" id="Fill-130" fill="#EBF1F9"></path>
                <path d="M247,134 L205.010001,134 C202.40333,146.08636 201.586562,154.683054 201,165 L222.473918,165 L224.169774,158.830812 C224.533685,161.585446 224.894573,163.375327 225.242809,165 L245.23106,165 L247,134 Z" id="Fill-132" fill="#2E5A99"></path>
                <path d="M262.260376,107 C251.414231,98.653483 241.27021,87.5000861 232.689652,75.7403504 C226.122279,66.9684744 229.071315,62.4509404 235.669814,60 C239.817669,60.3102242 243.33263,61.698802 246.565572,65.8109187 C255.87957,77.6573816 259.917446,84.5758139 267,96.4563281 L262.260376,107 Z" id="Fill-134" fill="#FF5254"></path>
                <path d="M272,68.3596368 L268.579113,67 L265,76.0895135 L271.481548,79 C271.861148,74.9119501 271.9704,71.1688719 272,68.3596368" id="Fill-136" fill="#E3E3E3"></path>
                <path d="M265.830342,76 L258,96.0344485 L263.40792,106 C269.320129,99.7646899 273.126635,88.6595633 274,79.180975 L265.830342,76 Z" id="Fill-138" fill="#FF5254"></path>
                <path d="M275.727696,73.9195502 L273.305778,74.8090996 C272.180438,75.2223833 270.927085,74.9523789 270.048906,74.1178198 C265.504507,69.8007936 260.844286,60.4423531 259,54.7800618 L269.292645,51 C270.72278,55.7499085 274.47268,64.4509387 277.334981,68.5013855 C278.686977,70.41444 277.89137,73.1249495 275.727696,73.9195502" id="Fill-140" fill="#427FE0"></path>
                <path d="M267,52.1933844 L257.903443,55.4365069 C252.879385,57.2276601 247.35473,54.6071125 245.563392,49.5832258 C243.772439,44.5591467 246.392975,39.0344682 251.416841,37.2431225 L260.51359,34 L267,52.1933844 Z" id="Fill-142" fill="#2E5A99"></path>
                <path d="M259.317956,35.1772998 C257.622754,36.0937208 257.562713,40.2739552 259.138765,44.6464288 C260.714631,49.0187175 263.434472,52.2186977 265.331683,51.8627126 C265.333553,51.8675232 307,52 307,52 L291.501526,9 L259.317956,35.1772998 Z" id="Fill-144" fill="#2E5A99"></path>
                <path d="M290.768576,33.5164573 C295.708805,46.9431434 303.622721,56.4770103 308.444838,54.8110141 C313.267149,53.1452051 313.171654,40.9102289 308.231424,27.4835427 C303.291195,14.0568566 295.377279,4.52298965 290.555162,6.18898593 C285.732851,7.85479488 285.828346,20.0897711 290.768576,33.5164573" id="Fill-146" fill="#427FE0"></path>
                <path d="M291.389075,33.1366788 C292.402925,35.9612409 293.550066,38.6066977 294.771298,41 L304,35.9935268 L299.335892,23 L289,24.9218205 C289.578564,27.5425668 290.375225,30.3122971 291.389075,33.1366788" id="Fill-148" fill="#2E5A99"></path>
                <path d="M300.055188,30.3003318 C301.438522,33.8624755 303.654237,36.3919502 305.004612,35.9498383 C306.354792,35.5079054 306.328073,32.2619909 304.944738,28.6996682 C303.561599,25.1375245 301.345494,22.6080498 299.995314,23.0501617 C298.645329,23.4920946 298.671853,26.7380091 300.055188,30.3003318" id="Fill-150" fill="#B3C9FF"></path>
                <g id="Group-154" transform="translate(286.000000, 5.000000)">
                    <mask id="mask-4" fill="white">
                        <use xlink:href="#path-3"></use>
                    </mask>
                    <g id="Clip-153"></g>
                    <path d="M5.15958671,2.464728 C1.63636993,3.69855709 1.14092937,14.5227971 6.06267063,28.0823062 C10.9846007,41.6418153 18.3401182,49.7166916 21.863335,48.4828625 C25.3863629,47.2490335 25.8819923,36.4247935 20.9600622,22.8652844 C16.0381322,9.30577527 8.68261469,1.23089891 5.15958671,2.464728 M22.6331182,50.6035353 C19.8602371,51.5745753 16.3559014,49.694808 12.7656566,45.3106625 C9.42653077,41.2330735 6.27942587,35.3829098 3.9038035,28.8382189 C1.52818112,22.293528 0.19743986,15.8072553 0.157223077,10.5744698 C0.113607692,4.94833527 1.61692238,1.31509527 4.3898035,0.344055273 C7.1624958,-0.626799273 10.6668315,1.25278255 14.2570762,5.636928 C17.5962021,9.71451709 20.7434958,15.5644953 23.1191182,22.1091862 C25.4947406,28.6540625 26.825293,35.1401498 26.8656986,40.3731207 C26.9089364,45.9992553 25.4058105,49.6324953 22.6331182,50.6035353" id="Fill-152" fill="#B3C9FF" mask="url(#mask-4)"></path>
                </g>
                <path d="M270.503834,60.2072286 L274.830139,67.3809895 L276,64.7968237 L274.797078,61.7037689 L272.639375,57 L271.794133,57.0594855 L270.503834,60.2072286 Z M270.594662,74 L265.364985,66.17612 L263.241796,61.3424424 L262,61.9509216 L263.045245,67.6788008 L266.234206,72.8559593 L270.594662,74 Z" id="Fill-155" fill="#F4ACC8"></path>
                <path d="M244.219372,113.784545 C244.466344,104.788515 246.038388,84.7293651 246.594214,71.9502321 C246.816209,66.852082 243.507721,62.2647971 238.609108,60.9414986 C226.072081,57.5548596 211.303363,56.4386078 200.629341,61.1532339 C197.681525,62.4551526 195.876488,65.3466799 196.006591,68.7477597 C196.664188,85.9534537 205.411271,113.784545 205.411271,113.784545 L200.483581,146 L250,146 L244.173706,113.784545 L244.219372,113.784545 Z" id="Fill-157" fill="#FF5254"></path>
                <path d="M236,113.86963 L233.4836,59.7513283 C227.079758,58.3891044 220.328921,57.7012839 214,58.123741 L228.082636,113.912864 L226.942248,138 L235.830829,138 L236,113.86963 Z" id="Fill-159" fill="#427FE0"></path>
                <path d="M173.379798,72 L170,74.2460411 C170.170069,75.8711099 170.410473,77.8311971 170.733865,80 L177,78.346949 L173.379798,72 Z" id="Fill-161" fill="#E3E3E3"></path>
                <polygon id="Fill-163" fill="#F4ACC8" points="168 64.220242 177.521403 63 177.931863 65.3462836 180 66.6387217 175.709917 73.9185293 171.198313 74"></polygon>
                <path d="M185,109.198192 C186.621104,96.810101 188.934097,77.6562725 195.985918,64 L212,72.60691 C208.137627,85.8854538 201.901239,102.99098 195.846038,114 L185,109.198192 Z" id="Fill-165" fill="#FF5254"></path>
                <path d="M193.430483,104.344164 L177.873137,78 L170,79.6378854 C171.636857,90.2381406 176.906712,106.006181 184.951342,112.912899 C188.840536,115.995622 192.86503,117.183692 197,114.539096 L193.430483,104.344164 Z" id="Fill-167" fill="#FF5254"></path>
                <polygon id="Fill-169" fill="#2E5A99" points="227.349129 137 227 145 237 145 236.207808 137"></polygon>
                <polygon id="Fill-171" fill="#F4ACC8" points="228 51.2450646 225.996994 66 217 57.868962 221.385353 45"></polygon>
                <path d="M232.993606,49.5352752 C233.133798,51.8479645 230.967172,53.9971471 226.644089,52.5071529 L219.582896,49.33103 L216,38.560416 L219.496093,30 L232.185865,30.2864594 L232.993606,49.5352752 Z" id="Fill-173" fill="#F4ACC8"></path>
                <polygon id="Fill-175" fill="#F4ACC8" points="232 39 235 44.5435318 232.489136 45"></polygon>
                <path d="M232.73006,45.7625621 L229.18261,46.3902221 C227.003882,46.7756802 224.884976,45.4475116 224.244651,43.2949173 C224.244651,43.2949173 223.254622,37.7203269 223.204954,36.4199459 L232.749817,33.4177668 L235,26 L231.817948,26.7592753 L219.406027,27.2536304 C213.878334,27.4115311 211.773461,31.676165 213.697758,37.841428 L216.310756,45.3051944 C217.01515,47.3169736 217.187232,48.4115767 219.194063,49.0401756 L219.909166,46.899973 C220.342327,45.6037226 220.092327,44.2047709 219.35359,43.0600376 C219.234314,42.8756636 219.124454,42.6742041 219.027335,42.458663 C218.43557,41.1440127 218.54543,39.803828 219.272534,39.4653083 C219.999823,39.1267887 221.069062,39.9181699 221.661011,41.2328202 C222.180583,42.3873167 222.500191,50.2733408 222.500191,50.2733408 L227.119096,52.6555578 C231.598599,53.8937923 233.664144,51.5707178 233.378694,49.2284924 L232.73006,45.7625621 Z" id="Fill-177" fill="#4F2674"></path>
                <polygon id="Fill-179" fill="#FFFFFF" points="216 57.0331709 221.118933 70 226 65.5704648 217.540044 55"></polygon>
                <polygon id="Fill-181" fill="#FFFFFF" points="228.827747 58.3162758 230 69 226 65.7079338 227.615707 56"></polygon>
                <path d="M177.201152,44 L177.201152,61.3936682 C177.201152,64.0096095 175.09209,66.1381542 172.500094,66.1381542 C169.90791,66.1381542 167.799036,64.0096095 167.799036,61.3936682 L167.799036,44 L161,44 L161,61.3936682 C161,67.8035679 166.148679,73 172.500094,73 C178.851321,73 184,67.8035679 184,61.3936682 L184,44 L177.201152,44 Z" id="Fill-183" fill="#2E5A99"></path>
                <mask id="mask-6" fill="white">
                    <use xlink:href="#path-5"></use>
                </mask>
                <g id="Clip-186"></g>
                <polygon id="Fill-185" fill="#427FE0" mask="url(#mask-6)" points="161 50 168 50 168 44 161 44"></polygon>
                <polygon id="Fill-187" fill="#FF5254" mask="url(#mask-6)" points="177 50 184 50 184 44 177 44"></polygon>
                <polygon id="Fill-188" fill="#F4ACC8" mask="url(#mask-6)" points="169 64.5300227 177.238998 63 178 65.0555109 173.749185 68 170.232885 67.892306"></polygon>
                <path d="M171.5,42 C171.370167,42 171.240167,41.9450207 171.145,41.850223 C171.055,41.7600903 171,41.6303057 171,41.500188 C171,41.3652388 171.055,41.2402858 171.145,41.1453215 C171.265,41.0303648 171.434833,40.9755521 171.6,41.0103723 C171.629833,41.015537 171.66,41.0255333 171.689833,41.0355295 C171.72,41.0503572 171.75,41.0655182 171.780167,41.0855107 C171.805,41.1005051 171.829833,41.1204975 171.854833,41.1453215 C171.945167,41.2402858 172,41.3652388 172,41.500188 C172,41.6303057 171.945167,41.7600903 171.854833,41.850223 C171.829833,41.875047 171.805,41.8950395 171.780167,41.915032 C171.75,41.9301929 171.72,41.9501854 171.689833,41.9601816 C171.66,41.975176 171.629833,41.9800075 171.6,41.9900038 C171.564833,41.9951685 171.535,42 171.5,42" id="Fill-189" fill="#B3C9FF" mask="url(#mask-6)"></path>
                <path d="M135.806717,25.5512521 C135.801158,25.2542404 136.046091,25.0053197 136.356982,25.0000963 C136.662499,24.9945127 136.912805,25.2324463 136.918363,25.5348615 C136.923736,25.8322335 136.679359,26.0752104 136.373842,26.080794 C136.062395,26.080794 135.81209,25.8482639 135.806717,25.5512521 L135.806717,25.5512521 Z M138.568974,26.1076313 C138.263271,26.0968243 138.024452,25.8430405 138.035383,25.5456685 C138.046685,25.2486568 138.307922,25.0161266 138.613255,25.0269336 C138.919513,25.0433242 139.158332,25.2918847 139.14703,25.59448 C139.130541,25.8808649 138.885793,26.1076313 138.591207,26.1076313 L138.568974,26.1076313 Z M133.588796,25.6863393 C133.56119,25.383744 133.79445,25.1243765 134.100709,25.1027626 C134.406041,25.0811486 134.672837,25.3026916 134.69507,25.5998835 C134.717117,25.8970754 134.48923,26.1564428 134.183527,26.1834603 L134.139246,26.1834603 C133.855776,26.1834603 133.610843,25.9673207 133.588796,25.6863393 L133.588796,25.6863393 Z M140.753545,26.2591091 C140.448028,26.2319115 140.225698,25.9673207 140.258677,25.6699487 C140.286839,25.372937 140.558637,25.1567975 140.864895,25.1836348 C141.170413,25.2162358 141.392372,25.4810068 141.364951,25.7781986 C141.337345,26.0539566 141.092412,26.2643325 140.809128,26.2643325 C140.792268,26.2643325 140.775964,26.2591091 140.753545,26.2591091 L140.753545,26.2591091 Z M131.376803,25.9509301 C131.337896,25.6539184 131.548923,25.383744 131.849068,25.3405161 C132.155327,25.297108 132.438612,25.5080242 132.477149,25.7998126 C132.521615,26.0968243 132.310587,26.3725823 132.004699,26.4104068 C131.982466,26.4158103 131.95486,26.4158103 131.927254,26.4158103 C131.654715,26.4158103 131.415896,26.2211046 131.376803,25.9509301 L131.376803,25.9509301 Z M142.932373,26.5292835 C142.632229,26.480472 142.421016,26.2050742 142.47104,25.9078823 C142.515506,25.616094 142.798791,25.4105813 143.104493,25.4593928 C143.404638,25.5026207 143.615666,25.7781986 143.566012,26.0752104 C143.527475,26.3401614 143.2881,26.5345069 143.015562,26.5345069 C142.987771,26.5345069 142.959979,26.5292835 142.932373,26.5292835 L142.932373,26.5292835 Z M129.192603,26.3561918 C129.131277,26.0647636 129.320071,25.7781986 129.625774,25.7187602 C129.925919,25.659502 130.215318,25.8430405 130.282017,26.1402323 C130.342787,26.4320207 130.148434,26.7130021 129.848289,26.777844 C129.809381,26.7830674 129.776032,26.788651 129.736939,26.788651 C129.475887,26.788651 129.248185,26.6103358 129.192603,26.3561918 L129.192603,26.3561918 Z M145.094527,26.9073476 C144.794197,26.8426858 144.599844,26.5617044 144.666728,26.2643325 C144.727313,25.9725441 145.022084,25.7890056 145.322229,25.8482639 C145.622374,25.9078823 145.816912,26.1942672 145.750769,26.4860556 C145.700004,26.7401997 145.466743,26.9181546 145.211064,26.9181546 C145.172527,26.9181546 145.133434,26.9129312 145.094527,26.9073476 L145.094527,26.9073476 Z M127.035637,26.9021242 C126.957822,26.6155592 127.130683,26.313144 127.424713,26.2374951 C127.71967,26.1564428 128.025188,26.3241311 128.108561,26.6103358 C128.191564,26.9021242 128.01963,27.199136 127.725043,27.2749649 C127.674834,27.2909953 127.624995,27.2965789 127.575156,27.2965789 C127.330409,27.2965789 127.108265,27.1398777 127.035637,26.9021242 L127.035637,26.9021242 Z M147.234632,27.3938417 C146.939861,27.3181928 146.761997,27.0208208 146.839998,26.7346161 C146.917628,26.4428277 147.217772,26.2699161 147.517917,26.3453848 C147.812689,26.4212137 147.990182,26.7130021 147.912552,27.0047905 C147.845668,27.2479475 147.623338,27.4100521 147.373588,27.4100521 C147.328937,27.4100521 147.284471,27.4048287 147.234632,27.3938417 L147.234632,27.3938417 Z M124.929622,27.5827836 C124.823645,27.3018022 124.979461,26.9939835 125.268118,26.8965406 C125.557517,26.7938743 125.873966,26.9453521 125.974385,27.2263335 C126.079806,27.5073149 125.92399,27.8153138 125.635332,27.9125765 C125.573821,27.9341905 125.512866,27.9451776 125.45154,27.9451776 C125.223838,27.9451776 125.007067,27.8045068 124.929622,27.5827836 L124.929622,27.5827836 Z M149.351949,27.9772383 C149.057363,27.8909626 148.895989,27.5883672 148.985291,27.3018022 C149.074038,27.0155975 149.391227,26.8588963 149.68007,26.9453521 C149.974657,27.0372114 150.135846,27.3398068 150.046729,27.6207882 C149.974657,27.8529581 149.752142,28.0044358 149.518696,28.0044358 C149.463299,28.0044358 149.407532,27.9936289 149.351949,27.9772383 L149.351949,27.9772383 Z M151.436287,28.6634813 C151.14763,28.560815 150.997187,28.2474127 151.103164,27.9720149 C151.208585,27.6858101 151.525404,27.5451393 151.814062,27.6478056 C152.103461,27.7450684 152.253348,28.0584707 152.147927,28.3394521 C152.064553,28.5555917 151.853155,28.6959022 151.625453,28.6959022 C151.564497,28.6959022 151.497613,28.6850953 151.436287,28.6634813 L151.436287,28.6634813 Z M122.866961,28.4041139 C122.744865,28.1287161 122.878263,27.8100904 123.161733,27.6962569 C123.439644,27.5775603 123.767395,27.7018405 123.890047,27.9772383 C124.012142,28.2529963 123.87856,28.5718021 123.600648,28.6850953 C123.528391,28.7176963 123.450946,28.7339068 123.378874,28.7339068 C123.161733,28.7339068 122.962007,28.6096265 122.866961,28.4041139 L122.866961,28.4041139 Z M153.487646,29.4363603 C153.203621,29.322887 153.070779,29.0040812 153.187502,28.7285033 C153.304039,28.4529254 153.626602,28.3232417 153.91526,28.4367149 C154.19873,28.5500081 154.332128,28.868994 154.215405,29.1445719 C154.126658,29.3497243 153.91526,29.4795882 153.698859,29.4795882 C153.631975,29.4795882 153.559903,29.4631976 153.487646,29.4363603 L153.487646,29.4363603 Z M120.871555,29.3605313 C120.732599,29.0903569 120.83839,28.7665078 121.116302,28.6314206 C121.388841,28.4963334 121.721965,28.5988196 121.86092,28.8635905 C121.999876,29.1337649 121.89427,29.4579742 121.622102,29.5930614 C121.538543,29.6307057 121.455725,29.6524998 121.366608,29.6524998 C121.166141,29.6524998 120.971973,29.54443 120.871555,29.3605313 L120.871555,29.3605313 Z M155.505286,30.2953348 C155.227374,30.1710546 155.104722,29.8524289 155.232932,29.5822545 C155.36633,29.3068567 155.69408,29.1930232 155.971992,29.3173034 C156.249904,29.4419439 156.372185,29.765793 156.244531,30.0359674 C156.150041,30.2306731 155.944201,30.3495498 155.738546,30.3495498 C155.660546,30.3495498 155.577357,30.3333394 155.505286,30.2953348 L155.505286,30.2953348 Z M118.948405,30.441229 C118.787217,30.1874452 118.876148,29.8524289 119.137385,29.7013113 C119.398808,29.54443 119.743604,29.6307057 119.898864,29.8848498 C120.060052,30.1386337 119.971121,30.4738301 119.709884,30.6251277 C119.620952,30.6789825 119.521274,30.7005964 119.426599,30.7005964 C119.237804,30.7005964 119.054197,30.6089173 118.948405,30.441229 L118.948405,30.441229 Z M157.483832,31.2409453 C157.20592,31.1058581 157.100499,30.7764254 157.244828,30.517058 C157.383784,30.2468835 157.717093,30.1442173 157.995004,30.2845278 C158.267358,30.419615 158.373335,30.7440045 158.22845,31.0087754 C158.13396,31.1980776 157.934234,31.3005638 157.734138,31.3005638 C157.650208,31.3005638 157.562018,31.2843533 157.483832,31.2409453 L157.483832,31.2409453 Z M117.097513,31.6462069 C116.925393,31.4032301 116.986904,31.0629904 117.236469,30.8953021 C117.491963,30.7222104 117.836758,30.782009 118.014807,31.0303894 C118.186742,31.2735463 118.126157,31.613786 117.875851,31.7812941 C117.775988,31.8463161 117.664638,31.878737 117.558847,31.878737 C117.381354,31.878737 117.208678,31.7976847 117.097513,31.6462069 L117.097513,31.6462069 Z M159.418098,32.2623847 C159.151302,32.1164905 159.056627,31.7868777 159.212443,31.5275103 C159.36233,31.2681428 159.701568,31.1762835 159.968178,31.3275812 C160.235343,31.4734754 160.329463,31.8029081 160.173832,32.0622755 C160.073784,32.2353673 159.884989,32.3380336 159.690266,32.3380336 C159.601705,32.3380336 159.5074,32.310836 159.418098,32.2623847 L159.418098,32.2623847 Z M161.313826,33.3646963 C161.052033,33.2025917 160.96903,32.8675754 161.135592,32.6190149 C161.296781,32.365051 161.641391,32.289222 161.897256,32.4459232 C162.158122,32.6026244 162.241866,32.9324173 162.074749,33.1917847 C161.969327,33.3538894 161.791464,33.4457487 161.602299,33.4457487 C161.502436,33.4457487 161.402017,33.4187312 161.313826,33.3646963 L161.313826,33.3646963 Z M163.15879,34.5318498 C162.903111,34.3643417 162.836227,34.0293254 163.014461,33.780765 C163.186395,33.5322045 163.531006,33.4673626 163.786685,33.6348708 C164.036805,33.8023789 164.103504,34.1373952 163.931569,34.3859557 C163.825592,34.5426568 163.647729,34.6237091 163.470236,34.6237091 C163.364259,34.6237091 163.253094,34.5912882 163.15879,34.5318498 L163.15879,34.5318498 Z M164.965216,35.7692487 C164.71491,35.5909336 164.659328,35.2506939 164.842935,35.0125802 C165.026356,34.7696033 165.371152,34.7207918 165.621458,34.8991069 C165.865465,35.0721987 165.921603,35.4126185 165.737996,35.6503719 C165.626646,35.7962661 165.460084,35.871915 165.292781,35.871915 C165.176243,35.871915 165.059521,35.839494 164.965216,35.7692487 L164.965216,35.7692487 Z M166.71606,37.0713093 C166.471312,36.8821872 166.432775,36.5419475 166.621755,36.3095975 C166.815923,36.0772475 167.166092,36.0394231 167.405466,36.2231417 C167.644285,36.4068603 167.683378,36.7471 167.494027,36.9850336 C167.383233,37.1147173 167.222044,37.1847825 167.06067,37.1847825 C166.938204,37.1847825 166.815923,37.1471382 166.71606,37.0713093 L166.71606,37.0713093 Z M168.416694,38.4331685 C168.183434,38.2386429 168.155828,37.8982231 168.355924,37.6714567 C168.55565,37.44415 168.905634,37.4173127 169.139265,37.6116581 C169.373267,37.8065439 169.400872,38.1467836 169.200405,38.3737301 C169.089241,38.4980103 168.933981,38.5628522 168.778165,38.5628522 C168.65014,38.5628522 168.522486,38.5196243 168.416694,38.4331685 L168.416694,38.4331685 Z M170.068046,39.8596894 C169.839788,39.6543569 169.828671,39.313757 170.034141,39.0976174 C170.240166,38.8762545 170.589964,38.8600441 170.818037,39.0651965 C171.045925,39.2653057 171.06297,39.6055453 170.851016,39.8272685 C170.740407,39.9407417 170.589964,40 170.440262,40 C170.306679,40 170.173096,39.9515487 170.068046,39.8596894 L170.068046,39.8596894 Z" id="Fill-190" fill="#B3C9FF" mask="url(#mask-6)"></path>
                <path d="M115.5,33 C115.464667,33 115.434833,33 115.399667,32.9899371 C115.370167,32.9850734 115.339667,32.9750105 115.309833,32.9649476 C115.279833,32.9496855 115.25,32.9345912 115.2195,32.9144654 C115.194667,32.8995388 115.169833,32.879413 115.144833,32.8540881 C115.0545,32.7636897 115,32.6327044 115,32.4968553 C115,32.4314465 115.009833,32.3662055 115.034667,32.3056604 C115.064833,32.245283 115.100167,32.1899371 115.144833,32.1396226 C115.329833,31.9534591 115.664833,31.9534591 115.850167,32.1396226 C115.899667,32.1899371 115.934833,32.245283 115.959833,32.3056604 C115.984667,32.3662055 116,32.4314465 116,32.4968553 C116,32.6327044 115.944667,32.7636897 115.850167,32.8540881 C115.829833,32.879413 115.8045,32.8995388 115.774667,32.9144654 C115.75,32.9345912 115.7195,32.9496855 115.689833,32.9649476 C115.659667,32.9750105 115.629833,32.9850734 115.5945,32.9899371 C115.564833,33 115.529833,33 115.5,33" id="Fill-191" fill="#B3C9FF" mask="url(#mask-6)"></path>
                <path d="M171.5,42 C171.370167,42 171.240167,41.9450207 171.145,41.850223 C171.055,41.7600903 171,41.6303057 171,41.500188 C171,41.3652388 171.055,41.2402858 171.145,41.1453215 C171.265,41.0303648 171.434833,40.9755521 171.6,41.0103723 C171.629833,41.015537 171.66,41.0255333 171.689833,41.0355295 C171.72,41.0503572 171.75,41.0655182 171.780167,41.0855107 C171.805,41.1005051 171.829833,41.1204975 171.854833,41.1453215 C171.945167,41.2402858 172,41.3652388 172,41.500188 C172,41.6303057 171.945167,41.7600903 171.854833,41.850223 C171.829833,41.875047 171.805,41.8950395 171.780167,41.915032 C171.75,41.9301929 171.72,41.9501854 171.689833,41.9601816 C171.66,41.975176 171.629833,41.9800075 171.6,41.9900038 C171.564833,41.9951685 171.535,42 171.5,42" id="Fill-192" fill="#B3C9FF" mask="url(#mask-6)"></path>
                <path d="M124.107407,17.5619023 C124.107407,17.2503035 124.353022,17.000097 124.666046,17.000097 C124.973111,16.9943473 125.224685,17.2449247 125.224685,17.5507738 C125.230086,17.8569938 124.978698,18.11295 124.671446,18.11295 C124.364381,18.11295 124.112807,17.8681224 124.107407,17.5619023 L124.107407,17.5619023 Z M126.900603,18.1352071 C126.587579,18.1240786 126.347364,17.8681224 126.35295,17.5619023 C126.364309,17.2560532 126.621284,17.0112255 126.928349,17.0223541 C127.235601,17.0334826 127.481588,17.2894388 127.470229,17.5952879 C127.464643,17.8957582 127.213255,18.1352071 126.91159,18.1352071 L126.900603,18.1352071 Z M121.867449,17.6344232 C121.850504,17.3282032 122.090533,17.072247 122.397784,17.0557397 C122.705408,17.0446111 122.967783,17.2783103 122.978769,17.5899091 C122.995528,17.8957582 122.7555,18.1574642 122.448434,18.1685927 C122.124423,18.1685927 121.87825,17.9347081 121.867449,17.6344232 L121.867449,17.6344232 Z M129.118401,18.2351784 C128.811336,18.2129213 128.581921,17.9515863 128.598867,17.6453663 C128.615812,17.3393317 128.883586,17.1058181 129.190838,17.1223254 C129.498648,17.1445824 129.733091,17.4062884 129.716145,17.7121375 C129.6938,18.007229 129.447812,18.2351784 129.157506,18.2351784 L129.118401,18.2351784 Z M119.626933,17.7900372 C119.604588,17.4841881 119.83363,17.2171034 120.14144,17.1948463 C120.442547,17.1668395 120.716466,17.3951598 120.738812,17.7067587 C120.766558,18.0126078 120.538074,18.2796925 120.230264,18.3019496 L120.180173,18.3019496 C119.895266,18.3019496 119.649279,18.0849432 119.626933,17.7900372 L119.626933,17.7900372 Z M131.341972,18.4134203 C131.034906,18.3800348 130.805678,18.1072003 130.838824,17.8013512 C130.866756,17.4953166 131.140675,17.2725605 131.447741,17.3005673 C131.754992,17.3339529 131.978634,17.6010376 131.950702,17.9068867 C131.922957,18.1962285 131.676783,18.4134203 131.392063,18.4134203 L131.341972,18.4134203 Z M117.392376,18.0294861 C117.35923,17.723266 117.576727,17.4450527 117.884537,17.4116672 C118.191603,17.3782816 118.470923,17.5952879 118.504255,17.901508 C118.537959,18.2073571 118.319717,18.4800061 118.012652,18.5191414 L117.951016,18.5191414 C117.666296,18.5191414 117.426081,18.3130781 117.392376,18.0294861 L117.392376,18.0294861 Z M133.548783,18.6636268 C133.240973,18.6191127 133.028876,18.3408994 133.067981,18.0348648 C133.107458,17.7343945 133.391992,17.5173882 133.693843,17.5565235 C134.000909,17.6010376 134.218592,17.8792509 134.173901,18.1851 C134.140568,18.4633133 133.90054,18.6693765 133.62122,18.6693765 C133.598875,18.6693765 133.576529,18.6636268 133.548783,18.6636268 L133.548783,18.6636268 Z M115.174578,18.3464637 C115.124673,18.0406146 115.336584,17.7566516 115.638435,17.7121375 C115.9455,17.6622446 116.230965,17.8735012 116.275098,18.1797212 C116.325748,18.4800061 116.113092,18.7637836 115.805841,18.813862 C115.778095,18.813862 115.750163,18.8196117 115.722417,18.8196117 C115.453898,18.8196117 115.213869,18.6191127 115.174578,18.3464637 L115.174578,18.3464637 Z M135.74945,18.9921039 C135.447598,18.9418401 135.241088,18.6524983 135.291179,18.352028 C135.342015,18.0459934 135.632135,17.8401156 135.933987,17.8903794 C136.235466,17.9404578 136.442162,18.2297996 136.392071,18.5302699 C136.34738,18.8027334 136.112751,18.9974827 135.844232,18.9974827 C135.811086,18.9974827 135.78334,18.9974827 135.74945,18.9921039 L135.74945,18.9921039 Z M112.962367,18.7472763 C112.906875,18.4410562 113.102026,18.1517144 113.409278,18.0960718 C113.710943,18.0348648 114.001808,18.2351784 114.062886,18.5356487 C114.118936,18.836119 113.91764,19.1312105 113.616161,19.1866677 C113.582829,19.1924175 113.548938,19.1977962 113.510206,19.1977962 C113.247273,19.1977962 113.012644,19.0086112 112.962367,18.7472763 L112.962367,18.7472763 Z M137.939129,19.3925455 C137.63765,19.3315241 137.442127,19.0364326 137.503391,18.7361477 C137.565027,18.4356774 137.855892,18.2409281 138.157557,18.3019496 C138.464623,18.3631565 138.659774,18.658248 138.598324,18.9587183 C138.542646,19.2200533 138.308204,19.4036741 138.051043,19.4036741 C138.011753,19.4036741 137.97842,19.3982953 137.939129,19.3925455 L137.939129,19.3925455 Z M110.772687,19.225803 C110.700064,18.9253327 110.890001,18.6302412 111.191666,18.5579058 C111.493518,18.4911346 111.789597,18.6747553 111.862033,18.9752256 C111.929256,19.275696 111.739505,19.5761663 111.443054,19.6431229 C111.398363,19.6542515 111.359258,19.6596302 111.314381,19.6596302 C111.063552,19.6596302 110.834323,19.4817592 110.772687,19.225803 L110.772687,19.225803 Z M140.112795,19.8710723 C139.816344,19.7987369 139.626593,19.4982666 139.699216,19.1977962 C139.771653,18.9028902 140.073318,18.7192694 140.374983,18.7862261 C140.671434,18.8583761 140.861185,19.1588464 140.788748,19.4593167 C140.726926,19.7152729 140.497884,19.8879506 140.24091,19.8879506 C140.201619,19.8879506 140.156927,19.8822009 140.112795,19.8710723 L140.112795,19.8710723 Z M108.599766,19.7933581 C108.521184,19.4928878 108.694735,19.1866677 108.9964,19.1089535 C109.292107,19.0254895 109.599731,19.203546 109.67794,19.4982666 C109.761736,19.7987369 109.582785,20.1049569 109.286706,20.1826712 C109.236429,20.1937997 109.186151,20.1995494 109.14146,20.1995494 C108.895473,20.1995494 108.666989,20.0381857 108.599766,19.7933581 L108.599766,19.7933581 Z M142.27417,20.4219346 C141.972505,20.3440349 141.799699,20.0381857 141.883495,19.73753 C141.967105,19.4428094 142.27417,19.2703172 142.570249,19.3537811 C142.866514,19.4316809 143.039506,19.73753 142.961483,20.0381857 C142.88886,20.2828279 142.665404,20.4443771 142.419789,20.4443771 C142.369139,20.4443771 142.318861,20.4386274 142.27417,20.4219346 L142.27417,20.4219346 Z M106.454778,20.4386274 C106.35925,20.1437213 106.527214,19.8321225 106.817334,19.7430942 C107.113599,19.6485017 107.426251,19.8156151 107.52122,20.1049569 C107.610788,20.3996775 107.448783,20.7112763 107.153077,20.8058689 C107.096654,20.8227471 107.041163,20.8281259 106.984926,20.8281259 C106.750484,20.8281259 106.527214,20.6778908 106.454778,20.4386274 L106.454778,20.4386274 Z M144.408359,21.0506965 C144.112094,20.9618538 143.950088,20.6502549 144.045057,20.3551634 C144.134439,20.0604428 144.44765,19.8990791 144.743356,19.9881074 C145.039621,20.0826999 145.20144,20.3942987 145.106658,20.6890193 C145.034035,20.9227184 144.816352,21.0787033 144.575764,21.0787033 C144.520086,21.0787033 144.464036,21.0675748 144.408359,21.0506965 L144.408359,21.0506965 Z M104.33139,21.1732958 C104.231021,20.883954 104.381667,20.5610412 104.672346,20.4608844 C104.962652,20.3551634 105.281263,20.5053985 105.38759,20.7947403 C105.487959,21.0840821 105.337499,21.4068095 105.046634,21.5071517 C104.984998,21.5294088 104.92392,21.5403518 104.856883,21.5403518 C104.627655,21.5403518 104.415372,21.395681 104.33139,21.1732958 L104.33139,21.1732958 Z M146.520015,21.7519794 C146.229337,21.6516371 146.07869,21.3346595 146.179059,21.0453177 C146.285573,20.7559759 146.603625,20.6057408 146.894303,20.7057121 C147.18461,20.8058689 147.335629,21.1285962 147.235446,21.4123737 C147.151278,21.6462584 146.938995,21.785365 146.709953,21.785365 C146.648316,21.785365 146.581279,21.7742365 146.520015,21.7519794 L146.520015,21.7519794 Z M102.242637,21.9856785 C102.130723,21.6963367 102.270383,21.3734239 102.555103,21.2621386 C102.840009,21.145289 103.16402,21.2843956 103.281334,21.5683586 C103.398648,21.8519507 103.258988,22.1804278 102.974082,22.2915276 C102.907046,22.3195344 102.834422,22.330663 102.761986,22.330663 C102.544302,22.330663 102.331461,22.2026849 102.242637,21.9856785 L102.242637,21.9856785 Z M148.609699,22.5309765 C148.318834,22.4195057 148.179174,22.0967784 148.296302,21.8130008 C148.408216,21.523659 148.732227,21.3845524 149.017133,21.4960232 C149.307998,21.6128728 149.447657,21.9356001 149.330343,22.2191922 C149.246175,22.4417628 149.033892,22.5697409 148.810436,22.5697409 C148.743213,22.5697409 148.676177,22.5586124 148.609699,22.5309765 L148.609699,22.5309765 Z M100.186472,22.8813397 C100.058171,22.6031265 100.186472,22.2750203 100.465792,22.1470422 C100.745112,22.0190641 101.080481,22.1470422 101.203196,22.4252555 C101.331497,22.7034687 101.208782,23.0373246 100.923876,23.159553 C100.851439,23.1929386 100.772857,23.2096314 100.694834,23.2096314 C100.482551,23.2096314 100.281255,23.087403 100.186472,22.8813397 L100.186472,22.8813397 Z M150.665119,23.3878733 C150.380399,23.265274 150.251539,22.9369824 150.37444,22.6532049 C150.497713,22.3749916 150.832711,22.2470135 151.11203,22.3694273 C151.39675,22.4920266 151.525423,22.8203183 151.39675,23.1039103 C151.307368,23.3097881 151.101044,23.4323874 150.888388,23.4323874 C150.810179,23.4323874 150.737928,23.4212589 150.665119,23.3878733 L150.665119,23.3878733 Z M98.1640118,23.8608359 C98.0303108,23.5880014 98.1416662,23.2541455 98.4155857,23.1150389 C98.6949053,22.981682 99.0304613,23.0927818 99.1639761,23.3656163 C99.303636,23.6380798 99.1924667,23.9776854 98.9185473,24.1110423 C98.8345652,24.1501776 98.7511417,24.1724347 98.6669734,24.1724347 C98.4602768,24.1724347 98.2649393,24.0553997 98.1640118,23.8608359 L98.1640118,23.8608359 Z M152.682179,24.3169201 C152.40826,24.1833778 152.290945,23.8497073 152.424646,23.5768729 C152.558906,23.2986596 152.894276,23.18181 153.173595,23.3155379 C153.446956,23.4488948 153.56427,23.7829361 153.430569,24.0611494 C153.335601,24.2612775 153.134304,24.3727482 152.927608,24.3727482 C152.843626,24.3727482 152.760016,24.35587 152.682179,24.3169201 L152.682179,24.3169201 Z M96.1923875,24.923425 C96.0413687,24.6563403 96.1363374,24.3169201 96.4100706,24.1724347 C96.6785899,24.0221995 97.0189875,24.116792 97.1640475,24.3892556 C97.3152525,24.6563403 97.2202838,24.9959459 96.9463644,25.1461811 C96.8623822,25.1905097 96.7674136,25.2127668 96.6785899,25.2127668 C96.4826937,25.2127668 96.2927564,25.1070458 96.1923875,24.923425 L96.1923875,24.923425 Z M154.665162,25.3296164 C154.391243,25.1793812 154.290874,24.8457108 154.435934,24.5728763 C154.580994,24.3004128 154.922136,24.200256 155.196056,24.3447414 C155.46383,24.4895978 155.564199,24.8288325 155.418953,25.101667 C155.318584,25.2852877 155.128833,25.3963875 154.927723,25.3963875 C154.837968,25.3963875 154.748586,25.3741305 154.665162,25.3296164 L154.665162,25.3296164 Z M94.2594956,26.0642848 C94.0974902,25.8025789 94.1810999,25.4633442 94.4440327,25.301795 C94.706407,25.1404313 95.0527634,25.2296451 95.2147688,25.49098 C95.3708153,25.752686 95.2873919,26.0919207 95.024459,26.2532844 C94.9354491,26.3091125 94.8345216,26.3367483 94.7341528,26.3367483 C94.5444016,26.3367483 94.3598644,26.236777 94.2594956,26.0642848 L94.2594956,26.0642848 Z M156.603641,26.4146481 C156.335121,26.2590341 156.251512,25.9140497 156.408117,25.6523437 C156.564163,25.3910088 156.90512,25.301795 157.17308,25.4575945 C157.436013,25.6135794 157.525395,25.952814 157.36879,26.2198988 C157.262463,26.392391 157.078112,26.4927332 156.88296,26.4927332 C156.787805,26.4927332 156.692837,26.4647264 156.603641,26.4146481 L156.603641,26.4146481 Z M92.3709223,27.2882377 C92.2033305,27.0322815 92.2705535,26.6817328 92.5275275,26.5149903 C92.7845016,26.3424981 93.130858,26.4146481 93.3044086,26.6706042 C93.4718142,26.9265604 93.4047775,27.2717303 93.1478034,27.4442226 C93.0528347,27.505244 92.946507,27.5330653 92.8405518,27.5330653 C92.6562008,27.5330653 92.4826502,27.4442226 92.3709223,27.2882377 L92.3709223,27.2882377 Z M158.491469,27.5833292 C158.234681,27.4162158 158.162058,27.0714168 158.329464,26.8154606 C158.497055,26.5537547 158.843598,26.4816047 159.100386,26.6483472 C159.363505,26.8154606 159.435942,27.1602596 159.262577,27.4219655 C159.156622,27.5833292 158.977858,27.672172 158.798721,27.672172 C158.692952,27.672172 158.586624,27.6443506 158.491469,27.5833292 L158.491469,27.5833292 Z M90.5389579,28.5793326 C90.3600071,28.334505 90.4156848,27.9837708 90.6670725,27.8057143 C90.9132462,27.6220936 91.2650027,27.6779217 91.4439535,27.9283136 C91.6284907,28.1785201 91.5722544,28.52369 91.3206805,28.7073107 C91.2203116,28.7738964 91.1085837,28.8130318 90.9912695,28.8130318 C90.8182775,28.8130318 90.650872,28.7295678 90.5389579,28.5793326 L90.5389579,28.5793326 Z M160.329578,28.8295391 C160.078005,28.6516681 160.016927,28.3011194 160.201464,28.050542 C160.379856,27.8001501 160.726026,27.7446929 160.9776,27.9225639 C161.229174,28.1063701 161.284665,28.4513545 161.105901,28.701561 C160.999946,28.8517962 160.826581,28.9352601 160.653775,28.9352601 C160.541861,28.9352601 160.424361,28.90206 160.329578,28.8295391 L160.329578,28.8295391 Z M88.7621125,29.9481419 C88.5721751,29.708693 88.6114661,29.3583298 88.8576398,29.1691447 C89.0976685,28.9797743 89.449425,29.0189096 89.6393624,29.2579875 C89.8291136,29.5028152 89.7903812,29.8535493 89.5497939,30.0427344 C89.4440249,30.1206341 89.3207518,30.1593984 89.2034375,30.1593984 C89.036032,30.1593984 88.8740266,30.0872485 88.7621125,29.9481419 L88.7621125,29.9481419 Z M162.100279,30.1593984 C161.86025,29.9703989 161.820959,29.6196647 162.010897,29.3805868 C162.200834,29.1357591 162.553149,29.0966238 162.793178,29.2859943 C163.038793,29.4805581 163.077898,29.8255425 162.888333,30.0703702 C162.776419,30.2094768 162.614413,30.2819978 162.446821,30.2819978 C162.329693,30.2819978 162.206793,30.2428624 162.100279,30.1593984 L162.100279,30.1593984 Z M87.0420621,31.389101 C86.8407658,31.1555874 86.8685115,30.8050387 87.10314,30.6045397 C87.3377685,30.4042261 87.6895251,30.4322329 87.8908214,30.665932 C88.0921178,30.8996312 88.0638134,31.2499944 87.8291849,31.4503079 C87.7234158,31.5393362 87.5945564,31.5840358 87.4664418,31.5840358 C87.3098366,31.5840358 87.1532313,31.5170791 87.0420621,31.389101 L87.0420621,31.389101 Z M163.810087,31.5729073 C163.575645,31.3725937 163.5533,31.0218595 163.754037,30.7881604 C163.960734,30.560211 164.312677,30.5379539 164.547119,30.7382675 C164.776161,30.9383956 164.798693,31.2889443 164.597396,31.5228289 C164.486041,31.650807 164.329436,31.7120139 164.173017,31.7120139 C164.044716,31.7120139 163.915857,31.6673143 163.810087,31.5729073 L163.810087,31.5729073 Z M85.382531,32.8970169 C85.1702481,32.668882 85.1816071,32.3183333 85.4102768,32.1068912 C85.6339187,31.9010134 85.9912616,31.9121419 86.1979582,32.1404623 C86.4102411,32.3628474 86.3938543,32.7133961 86.1702124,32.9250237 C86.0644434,33.024995 85.9247835,33.0752588 85.7905239,33.0752588 C85.6393189,33.0752588 85.4888587,33.0138664 85.382531,32.8970169 L85.382531,32.8970169 Z M165.435355,33.0752588 C165.217672,32.8582525 165.212086,32.5077038 165.424369,32.2849477 C165.642052,32.0681268 165.993995,32.0623771 166.217637,32.2795689 C166.43532,32.4908255 166.441279,32.8413742 166.229182,33.0641303 C166.117268,33.1752301 165.971649,33.2308728 165.826589,33.2308728 C165.686929,33.2308728 165.547269,33.1809799 165.435355,33.0752588 L165.435355,33.0752588 Z M83.77905,34.4663251 C83.5613669,34.2493188 83.5613669,33.8987701 83.77905,33.6817637 C83.9972918,33.4591931 84.3492345,33.4591931 84.5669176,33.676014 C84.7851594,33.8930203 84.7905596,34.243569 84.5723178,34.4663251 C84.4609624,34.5720461 84.3153437,34.6275033 84.1756839,34.6275033 C84.0306239,34.6275033 83.8909641,34.5720461 83.77905,34.4663251 L83.77905,34.4663251 Z M166.977572,34.6608889 C166.77069,34.4329395 166.787821,34.0822053 167.010718,33.8707633 C167.239947,33.6648854 167.591889,33.6817637 167.804172,33.9098986 C168.010869,34.137848 167.993923,34.4883967 167.76544,34.6942745 C167.658926,34.7946167 167.524853,34.8391309 167.390593,34.8391309 C167.239947,34.8391309 167.088928,34.7777385 166.977572,34.6608889 L166.977572,34.6608889 Z M82.242792,36.0964693 C82.0197087,35.8905915 82.0027633,35.5400428 82.2094598,35.3119079 C82.4217427,35.0839585 82.7736855,35.07283 83.0027276,35.2787078 C83.2263695,35.4901499 83.2427563,35.8405131 83.0306596,36.0630837 C82.9247043,36.185683 82.7736855,36.2467044 82.6230391,36.2467044 C82.4887795,36.2467044 82.3491196,36.1968115 82.242792,36.0964693 L82.242792,36.0964693 Z M168.418862,36.3301684 C168.228552,36.0910905 168.262256,35.7403563 168.502471,35.5457925 C168.743059,35.356422 169.094815,35.3898076 169.290153,35.6292565 C169.48549,35.8683344 169.446758,36.2190686 169.206171,36.4138179 C169.100215,36.4972818 168.977501,36.5360462 168.854228,36.5360462 C168.692222,36.5360462 168.530217,36.4638963 168.418862,36.3301684 L168.418862,36.3301684 Z M80.7681704,37.7880059 C80.5335419,37.5878778 80.5057962,37.2373291 80.7065339,37.0034445 C80.9078303,36.7697454 81.259773,36.7421095 81.4944015,36.9422376 C81.7288438,37.1425511 81.7567758,37.4932853 81.5560381,37.7269844 C81.4495242,37.8549625 81.2936638,37.9217337 81.1314722,37.9217337 C81.0027989,37.9217337 80.8746843,37.8772196 80.7681704,37.7880059 L80.7681704,37.7880059 Z M169.753823,38.0830974 C169.574873,37.8327055 169.636509,37.4875356 169.888083,37.3096645 C170.139657,37.1314226 170.491413,37.192815 170.664405,37.4430214 C170.843356,37.6935988 170.781533,38.0439621 170.530146,38.222204 C170.435363,38.2887897 170.318049,38.3221753 170.212094,38.3221753 C170.033143,38.3221753 169.860337,38.2387113 169.753823,38.0830974 L169.753823,38.0830974 Z M79.3607719,39.5296208 C79.1201845,39.3404358 79.0753072,38.9900726 79.2712034,38.7506237 C79.4611407,38.5113603 79.8128973,38.4670317 80.0529259,38.6560312 C80.2935133,38.850966 80.3383906,39.1959504 80.1478946,39.4407781 C80.0367254,39.5798847 79.8745338,39.6522201 79.7065696,39.6522201 C79.5892553,39.6522201 79.4665409,39.6132703 79.3607719,39.5296208 L79.3607719,39.5296208 Z M170.960484,39.9246837 C170.804065,39.6633487 170.888047,39.3181788 171.150422,39.1625648 C171.412982,39.0012011 171.759152,39.0846651 171.921344,39.3515644 C172.077763,39.6132703 171.993967,39.9526905 171.731406,40.1140541 C171.642024,40.1696968 171.541655,40.1917684 171.440728,40.1917684 C171.25079,40.1917684 171.066439,40.0971759 170.960484,39.9246837 L170.960484,39.9246837 Z M78.0196651,41.3268785 C77.7682774,41.1434432 77.7179999,40.792709 77.8969507,40.5478813 C78.0814879,40.2976749 78.4272856,40.2420322 78.6788595,40.425653 C78.9302472,40.6090883 78.9805247,40.9540727 78.8021326,41.2046501 C78.6902185,41.3548853 78.5228129,41.4325995 78.3492623,41.4325995 C78.2319481,41.4325995 78.1202202,41.3993994 78.0196651,41.3268785 L78.0196651,41.3268785 Z M76.7403811,43.1632714 C76.4834071,42.9907792 76.4163704,42.6456093 76.5893623,42.3896531 C76.7627267,42.1392612 77.1146695,42.0726755 77.3662434,42.2451677 C77.6232174,42.4174744 77.6902542,42.7624588 77.5167035,43.018415 C77.4109345,43.1743999 77.2319837,43.2632427 77.0530329,43.2632427 C76.9472639,43.2632427 76.8353498,43.2300426 76.7403811,43.1632714 L76.7403811,43.1632714 Z M75.5283201,45.0493718 C75.2657596,44.8824438 75.1873639,44.5432091 75.3547695,44.2815032 C75.5167749,44.0201682 75.8631312,43.942083 76.1201053,44.1036322 C76.3830382,44.2703747 76.4610615,44.6153591 76.2990561,44.8713153 C76.1927284,45.0438075 76.0089361,45.1330212 75.8243989,45.1330212 C75.7234714,45.1330212 75.6177024,45.1050144 75.5283201,45.0493718 L75.5283201,45.0493718 Z M74.3771507,46.9690432 C74.1091901,46.8188081 74.0198078,46.4738237 74.176413,46.2124887 C74.3330182,45.9454039 74.6734158,45.8561902 74.9417488,46.0121751 C75.2097095,46.1622248 75.2990918,46.5072092 75.1424866,46.774294 C75.0367175,46.9467862 74.8523665,47.0471284 74.6564704,47.0471284 C74.5615017,47.0471284 74.466533,47.0248714 74.3771507,46.9690432 L74.3771507,46.9690432 Z M73.2937629,48.9334143 C73.0198435,48.7831791 72.9194746,48.4493232 73.0699348,48.1764888 C73.2157396,47.909404 73.5505508,47.803683 73.8244703,47.9539182 C74.0978311,48.0987745 74.1987586,48.4381947 74.0475535,48.7052794 C73.9527711,48.894279 73.7574335,49 73.5561372,49 C73.4665687,49 73.3771864,48.9777429 73.2937629,48.9334143 L73.2937629,48.9334143 Z" id="Fill-193" fill="#B3C9FF" mask="url(#mask-6)"></path>
                <path d="M72.502405,51 C72.3682203,51 72.2385138,50.9446471 72.1491126,50.8492054 C72.1243987,50.8289093 72.1044949,50.8039166 72.0844253,50.7737242 C72.0694974,50.748396 72.0544037,50.7182035 72.0398076,50.6881788 C72.029524,50.6579863 72.0199038,50.6277939 72.0096202,50.5924016 C72.0048101,50.5623768 72,50.5269845 72,50.496792 C72,50.3609259 72.0544037,50.2351239 72.1491126,50.1395144 C72.3332228,49.9534952 72.6666114,49.9534952 72.8508874,50.1395144 C72.9450987,50.2351239 73,50.3609259 73,50.496792 C73,50.5269845 72.9951899,50.5623768 72.9849063,50.5924016 C72.9800962,50.6277939 72.9703102,50.6579863 72.9601924,50.6881788 C72.9450987,50.7182035 72.9305026,50.748396 72.9154089,50.7737242 C72.8955051,50.8039166 72.8756013,50.8289093 72.8508874,50.8492054 C72.7614862,50.9446471 72.6316139,51 72.502405,51" id="Fill-194" fill="#B3C9FF" mask="url(#mask-6)"></path>
                <path d="M171.5,42 C171.370167,42 171.240167,41.9450207 171.145,41.850223 C171.055,41.7600903 171,41.6303057 171,41.500188 C171,41.3652388 171.055,41.2402858 171.145,41.1453215 C171.265,41.0303648 171.434833,40.9755521 171.6,41.0103723 C171.629833,41.015537 171.66,41.0255333 171.689833,41.0355295 C171.72,41.0503572 171.75,41.0655182 171.780167,41.0855107 C171.805,41.1005051 171.829833,41.1204975 171.854833,41.1453215 C171.945167,41.2402858 172,41.3652388 172,41.500188 C172,41.6303057 171.945167,41.7600903 171.854833,41.850223 C171.829833,41.875047 171.805,41.8950395 171.780167,41.915032 C171.75,41.9301929 171.72,41.9501854 171.689833,41.9601816 C171.66,41.975176 171.629833,41.9800075 171.6,41.9900038 C171.564833,41.9951685 171.535,42 171.5,42" id="Fill-195" fill="#B3C9FF" mask="url(#mask-6)"></path>
                <path d="M84.4662084,1.1142113 C84.151099,1.1142113 83.9041821,0.857942702 83.9041821,0.551348892 C83.9041821,0.245126486 84.1627142,0 84.4716414,0 C84.7807558,0 85.0336677,0.250511841 85.0282348,0.55710565 C85.0282348,0.869084815 84.7751356,1.1142113 84.4662084,1.1142113 L84.4662084,1.1142113 Z M81.6506438,0.573633118 C81.6444615,0.261653954 81.8921278,0.011142113 82.2064879,0.00538535462 C82.5161644,-2.08166817e-17 82.7685142,0.250511841 82.7746965,0.55710565 C82.7801294,0.863328056 82.5270302,1.11959666 82.2181031,1.11959666 C81.9029936,1.11959666 81.6560767,0.874470169 81.6506438,0.573633118 L81.6506438,0.573633118 Z M86.7088809,1.14763764 C86.3937714,1.14188088 86.1522875,0.885797984 86.1577204,0.579389876 C86.1693356,0.272796067 86.4278677,0.0276695806 86.7367949,0.033426339 C87.0459093,0.044568452 87.2933883,0.300837051 87.2817731,0.607245159 C87.2763402,0.90808221 87.023241,1.14763764 86.7197467,1.14763764 L86.7088809,1.14763764 Z M79.3963561,0.635100442 C79.3854903,0.328692334 79.6269743,0.0668526781 79.9359014,0.0612816215 C80.2510109,0.0501395085 80.509543,0.289694938 80.5204088,0.595917344 C80.532024,0.902511154 80.2845451,1.16435081 79.9754306,1.16992187 C79.6548883,1.17549292 79.4079713,0.936123195 79.3963561,0.635100442 L79.3963561,0.635100442 Z M88.950804,1.22544673 C88.6418768,1.21467602 88.4003928,0.952650662 88.411446,0.646242555 C88.4283068,0.339834447 88.6924592,0.100464719 89.0013863,0.111235428 C89.3108755,0.1281343 89.5523595,0.384402899 89.5354987,0.690625305 C89.5244455,0.991462356 89.2769666,1.22544673 88.9794673,1.22544673 L88.950804,1.22544673 Z M77.1428178,0.740950515 C77.1257697,0.434356705 77.3618208,0.172702752 77.6713099,0.15580388 C77.9804244,0.139276413 78.2498224,0.373260786 78.2668705,0.679483192 C78.2839187,0.991462356 78.0418726,1.25348771 77.7329455,1.27001518 C77.4067829,1.27001518 77.159866,1.03621651 77.1428178,0.740950515 L77.1428178,0.740950515 Z M91.1934764,1.34262462 C90.8845493,1.32591145 90.6484982,1.05850074 90.6655463,0.752092628 C90.6874654,0.445498818 90.9519924,0.211700147 91.2611069,0.233984373 C91.575467,0.250511841 91.8060851,0.518293957 91.789599,0.824516363 C91.7725509,1.11959666 91.525072,1.34262462 91.2275727,1.34262462 L91.1934764,1.34262462 Z M74.8947125,0.896940097 C74.8722314,0.590531989 75.1028496,0.323121277 75.4117767,0.300837051 C75.7207039,0.272796067 75.9908512,0.506966142 76.0133322,0.81337425 C76.0358133,1.11959666 75.8053825,1.38700737 75.496268,1.40929159 L75.4513059,1.40929159 C75.1586775,1.40929159 74.9117606,1.18663504 74.8947125,0.896940097 L74.8947125,0.896940097 Z M93.430716,1.50399955 C93.1210394,1.47632997 92.8911707,1.20891926 92.9190846,0.902511154 C92.9415657,0.595917344 93.211151,0.367689729 93.5200781,0.389788253 C93.8351876,0.417829238 94.0596234,0.68523995 94.0377044,0.991462356 C94.0152233,1.28691405 93.7675571,1.50399955 93.4756781,1.50399955 L93.430716,1.50399955 Z M72.6466071,1.09731243 C72.6186931,0.791090024 72.843129,0.518293957 73.1526181,0.490252972 C73.4617326,0.46239769 73.7371255,0.68523995 73.7652269,0.991462356 C73.7931408,1.29805617 73.568143,1.57085223 73.2592158,1.59889322 L73.2032005,1.59889322 C72.9167544,1.59889322 72.6747084,1.38700737 72.6466071,1.09731243 L72.6466071,1.09731243 Z M95.6672061,1.69898653 C95.358279,1.67131695 95.1332811,1.39814948 95.1617571,1.09192707 C95.1952913,0.785518967 95.4706842,0.562491005 95.7797987,0.590531989 C96.0887259,0.623958328 96.3137237,0.891369041 96.2798148,1.2033482 C96.2517135,1.48747209 96.0102295,1.70474329 95.7237834,1.70474329 C95.7067353,1.70474329 95.6842542,1.69898653 95.6672061,1.69898653 L95.6672061,1.69898653 Z M70.4039346,1.34262462 C70.3649675,1.03621651 70.5895907,0.763234741 70.8985178,0.724051644 C71.2020121,0.690625305 71.4830252,0.90808221 71.5225544,1.21467602 C71.5566507,1.52089843 71.3370857,1.79945125 71.0281586,1.83287759 C71.0054902,1.83287759 70.9830091,1.83826294 70.9605281,1.83826294 C70.6795149,1.83826294 70.4380309,1.6267485 70.4039346,1.34262462 L70.4039346,1.34262462 Z M97.8982634,1.93872766 C97.5893362,1.89973027 97.3703333,1.6267485 97.4038675,1.32034039 C97.4433967,1.01374658 97.7187896,0.796846782 98.0279041,0.829901717 C98.3368312,0.863328056 98.5558342,1.14188088 98.5222999,1.44847469 C98.488953,1.73259857 98.246907,1.93872766 97.9658939,1.93872766 L97.8982634,1.93872766 Z M68.1674445,1.64327597 C68.1224824,1.33705356 68.3414853,1.05850074 68.6449795,1.01374658 C68.9539067,0.96917813 69.2409148,1.18106398 69.279882,1.48747209 C69.3250314,1.79369449 69.1114614,2.07224732 68.8025342,2.11681577 C68.7744329,2.12257253 68.7519519,2.12257253 68.7240379,2.12257253 C68.4484577,2.12257253 68.2064116,1.92182879 68.1674445,1.64327597 L68.1674445,1.64327597 Z M100.123888,2.21152373 C99.8149605,2.17271204 99.6013905,1.88858816 99.6409197,1.5877511 C99.6798869,1.28115729 99.966895,1.06407179 100.270389,1.10845454 C100.579504,1.14763764 100.798507,1.42619047 100.753545,1.73259857 C100.72001,2.01672245 100.478526,2.21728049 100.202946,2.21728049 C100.175032,2.21728049 100.152364,2.21728049 100.123888,2.21152373 L100.123888,2.21152373 Z M65.9418202,1.98868147 C65.8914251,1.68784442 66.0988129,1.39814948 66.4023071,1.35395243 C66.7117963,1.29805617 66.9984297,1.50399955 67.0488247,1.81059336 C67.0994071,2.11143042 66.89127,2.40112535 66.5877758,2.45126486 C66.5544289,2.45683592 66.5263276,2.45683592 66.4924186,2.45683592 C66.2228333,2.45683592 65.9867823,2.26184894 65.9418202,1.98868147 L65.9418202,1.98868147 Z M102.344079,2.52350289 C102.034965,2.47893444 101.827015,2.19499626 101.871977,1.88858816 C101.916939,1.5877511 102.203572,1.37586525 102.5125,1.42043371 C102.821989,1.47075892 103.030126,1.7548828 102.985164,2.05571985 C102.940014,2.33427268 102.704151,2.52925965 102.42857,2.52925965 C102.400469,2.52925965 102.371993,2.52925965 102.344079,2.52350289 L102.344079,2.52350289 Z M63.7218161,2.38998324 C63.6658008,2.08914619 63.8623227,1.79369449 64.1712498,1.73816963 C64.4747441,1.68245906 64.7673724,1.8830171 64.8232004,2.18385415 C64.8792157,2.4846912 64.6826938,2.77977149 64.3791996,2.83566776 C64.3396704,2.84123882 64.3063235,2.84680987 64.2722272,2.84680987 C64.0082622,2.84680987 63.7722111,2.65739395 63.7218161,2.38998324 L63.7218161,2.38998324 Z M104.55865,2.87466516 C104.249723,2.82433995 104.047206,2.53464501 104.097601,2.23380796 C104.148184,1.92758555 104.440625,1.72702752 104.744119,1.77716702 C105.047613,1.82712083 105.25575,2.11143042 105.204606,2.41783852 C105.159644,2.69082029 104.91816,2.88023621 104.654195,2.88023621 C104.620098,2.88023621 104.592184,2.88023621 104.55865,2.87466516 L104.55865,2.87466516 Z M106.767226,3.25906806 C106.458112,3.20335749 106.255595,2.91366255 106.317605,2.6128255 C106.373621,2.31198845 106.666249,2.11143042 106.969931,2.16714098 C107.273237,2.22266584 107.475192,2.51236078 107.419177,2.81319783 C107.368782,3.08060855 107.132731,3.27021017 106.868391,3.27021017 C106.834857,3.27021017 106.801323,3.26463911 106.767226,3.25906806 L106.767226,3.25906806 Z M61.5130526,2.84123882 C61.4456094,2.54040177 61.6421313,2.24495007 61.9456255,2.17828309 C62.2491197,2.11681577 62.5471811,2.30641739 62.6086293,2.60744015 C62.6760724,2.91366255 62.4797379,3.20335749 62.1762437,3.27021017 C62.1367145,3.28135228 62.0977473,3.28135228 62.0636511,3.28135228 C61.799686,3.28135228 61.5690679,3.10289277 61.5130526,2.84123882 L61.5130526,2.84123882 Z M108.964749,3.68246835 C108.661443,3.62118673 108.464733,3.32573503 108.526369,3.02526938 C108.588192,2.72424663 108.880258,2.52925965 109.183752,2.59054127 C109.493429,2.65163719 109.689763,2.94708889 109.627753,3.24792594 C109.571738,3.5095799 109.335874,3.69361046 109.077529,3.69361046 C109.037813,3.69361046 108.998284,3.68803941 108.964749,3.68246835 L108.964749,3.68246835 Z M59.3155296,3.34801926 C59.2424662,3.04718221 59.4281222,2.74671656 59.7316164,2.67392142 C60.0291157,2.60168339 60.3326099,2.78552825 60.405486,3.0863653 C60.4785494,3.38720235 60.2936428,3.68803941 59.9901485,3.76046314 C59.9449991,3.77160525 59.9054699,3.77160525 59.8605078,3.77160525 C59.6075959,3.77160525 59.3769778,3.60428786 59.3155296,3.34801926 L59.3155296,3.34801926 Z M111.157027,4.13948068 C110.853345,4.0724423 110.656449,3.77699061 110.729325,3.47615356 C110.791335,3.17531651 111.094829,2.98608629 111.398323,3.05293896 C111.696385,3.11979164 111.887661,3.41505764 111.825463,3.71589469 C111.769448,3.97773434 111.533397,4.15600815 111.274865,4.15600815 C111.235336,4.15600815 111.195994,4.15025139 111.157027,4.13948068 L111.157027,4.13948068 Z M57.1288724,3.90512491 C57.0503761,3.61004461 57.2304118,3.30382221 57.5279111,3.22564172 C57.8259724,3.14207587 58.1348996,3.32034968 58.2193909,3.62118673 C58.2978872,3.91626702 58.1184135,4.22286083 57.8149192,4.30066992 C57.7699571,4.31181203 57.7193748,4.31756879 57.6744127,4.31756879 C57.4215008,4.31756879 57.1963156,4.15600815 57.1288724,3.90512491 L57.1288724,3.90512491 Z M113.342935,4.63493331 C113.045061,4.56269528 112.853972,4.26185823 112.926848,3.96659223 C112.999911,3.66575518 113.303593,3.48191032 113.601467,3.54876299 C113.904961,3.62118673 114.09043,3.92202378 114.022986,4.22286083 C113.960976,4.47912943 113.730733,4.65183218 113.472201,4.65183218 C113.433234,4.65183218 113.387897,4.64626112 113.342935,4.63493331 L113.342935,4.63493331 Z M54.9598254,4.51812683 C54.8753341,4.22286083 55.0437547,3.91626702 55.341816,3.82731582 C55.6398773,3.74356427 55.9544247,3.91088167 56.038916,4.20596196 C56.1288402,4.50141366 55.9544247,4.81339282 55.6569254,4.89695867 C55.605781,4.91348614 55.555386,4.91924289 55.4993707,4.91924289 C55.2578867,4.91924289 55.0328888,4.76306761 54.9598254,4.51812683 L54.9598254,4.51812683 Z M115.52903,5.16436938 C115.225536,5.08637459 115.040067,4.78553754 115.119313,4.49027154 C115.197622,4.18943449 115.501116,4.01097498 115.80461,4.08358442 C116.102859,4.16139351 116.282332,4.46223056 116.209082,4.76306761 C116.141826,5.01395085 115.917015,5.18089685 115.664103,5.18089685 C115.619141,5.18089685 115.574179,5.17551149 115.52903,5.16436938 L115.52903,5.16436938 Z M52.8126974,5.19203896 C52.717153,4.89695867 52.8801406,4.5849795 53.1723943,4.49027154 C53.4702683,4.39556358 53.785003,4.55730992 53.8805475,4.84663346 C53.9762793,5.14208515 53.8132917,5.45406432 53.521038,5.54877228 C53.4590277,5.5710565 53.4030124,5.57644186 53.3468098,5.57644186 C53.1049511,5.57644186 52.8859482,5.42602333 52.8126974,5.19203896 L52.8126974,5.19203896 Z M117.698639,5.73261714 C117.400765,5.6490513 117.221291,5.34264319 117.30522,5.04737719 C117.383904,4.7519255 117.693206,4.57383739 117.990705,4.65740324 C118.294199,4.73539803 118.468802,5.04162043 118.389931,5.33707213 C118.31668,5.58758397 118.092245,5.74914461 117.844578,5.74914461 C117.794371,5.74914461 117.749221,5.74375926 117.698639,5.73261714 L117.698639,5.73261714 Z M50.6771847,5.91646201 C50.5758326,5.62676707 50.7275797,5.30903115 51.0198334,5.20893783 C51.3178947,5.10865881 51.6382497,5.25907734 51.7394145,5.54877228 C51.8403919,5.83846722 51.6886448,6.15583174 51.3963911,6.26168181 C51.3345682,6.28396604 51.2729326,6.28972279 51.2109224,6.28972279 C50.9748713,6.28972279 50.7613013,6.15044638 50.6771847,5.91646201 L50.6771847,5.91646201 Z M119.862253,6.33429125 C119.564754,6.24515434 119.390151,5.93874623 119.475017,5.64348024 C119.564754,5.34264319 119.873868,5.17551149 120.171929,5.25907734 C120.469429,5.34821424 120.643844,5.65462235 120.559353,5.95007405 C120.486289,6.19501483 120.261292,6.35100442 120.014375,6.35100442 C119.963792,6.35100442 119.913023,6.34543336 119.862253,6.33429125 L119.862253,6.33429125 Z M122.015001,6.96920599 C121.717502,6.87468373 121.548332,6.56251886 121.643876,6.27282392 C121.733988,5.97774363 122.04891,5.81079764 122.346409,5.89974884 C122.63885,5.9942711 122.807458,6.30086491 122.717534,6.5961309 C122.644471,6.83568633 122.420035,6.99149021 122.177989,6.99149021 C122.127406,6.99149021 122.071391,6.98610486 122.015001,6.96920599 L122.015001,6.96920599 Z M48.5695859,6.70755203 C48.4569933,6.41785709 48.6033075,6.09473582 48.8897536,5.98312898 C49.1820073,5.87189356 49.5079825,6.01655532 49.6205752,6.30625026 C49.7273602,6.5961309 49.5868536,6.91368112 49.2945999,7.02510225 C49.2269694,7.05295753 49.1595262,7.06428535 49.0922704,7.06428535 C48.8672725,7.06428535 48.6537025,6.92500894 48.5695859,6.70755203 L48.5695859,6.70755203 Z M124.156509,7.63791847 C123.858447,7.54321051 123.70108,7.22547458 123.796437,6.93577965 C123.891982,6.64069935 124.206904,6.48470977 124.505152,6.57941773 C124.797031,6.67412569 124.960206,6.98610486 124.864475,7.28118515 C124.786166,7.51516952 124.566601,7.66558805 124.33055,7.66558805 C124.274534,7.66558805 124.212524,7.65444594 124.156509,7.63791847 L124.156509,7.63791847 Z M46.4786606,7.54859586 C46.360635,7.26465768 46.4957087,6.93577965 46.7821548,6.81878746 C47.0689756,6.70179527 47.4003838,6.83568633 47.5184093,7.11962451 C47.6364348,7.40393409 47.5017358,7.73262643 47.2149151,7.84961861 C47.142039,7.8774739 47.0689756,7.89418707 47.0015324,7.89418707 C46.7767219,7.89418707 46.5685848,7.76066741 46.4786606,7.54859586 L46.4786606,7.54859586 Z M126.286589,8.33968589 C125.99396,8.24497792 125.83678,7.92761341 125.93832,7.63216171 C126.03911,7.34283817 126.359839,7.18666289 126.651718,7.28694191 C126.944159,7.38703522 127.101339,7.70477115 127.000175,7.99446608 C126.921866,8.22845046 126.702113,8.37311222 126.466062,8.37311222 C126.410047,8.37311222 126.348037,8.36197011 126.286589,8.33968589 L126.286589,8.33968589 Z M44.4160239,8.45129272 C44.2925654,8.17273989 44.4160239,7.84404756 44.7028447,7.71591326 C44.9838578,7.58777896 45.3154534,7.71591326 45.4445321,7.99446608 C45.5737981,8.27301891 45.4445321,8.6070966 45.1635189,8.72984554 C45.0848352,8.76327188 45.0063389,8.77979935 44.9330881,8.77979935 C44.7195181,8.77979935 44.5115684,8.65742181 44.4160239,8.45129272 L44.4160239,8.45129272 Z M128.405241,9.08639316 C128.113174,8.98054309 127.961052,8.65742181 128.068212,8.36772687 C128.174622,8.07803193 128.495165,7.93299876 128.787419,8.03346348 C129.079672,8.13931355 129.231232,8.46243483 129.124634,8.74637301 C129.04033,8.97497203 128.82676,9.1198195 128.596142,9.1198195 C128.528699,9.1198195 128.467438,9.10867738 128.405241,9.08639316 L128.405241,9.08639316 Z M42.3872961,9.41508549 C42.2467895,9.13653267 42.3648151,8.80208358 42.6458282,8.66856392 C42.9210338,8.53467286 43.2582496,8.65166505 43.3933233,8.92483252 C43.5338299,9.20338535 43.4158043,9.53764874 43.1347912,9.67135409 C43.0559201,9.71053719 42.9718035,9.72706466 42.8929325,9.72706466 C42.6849827,9.72706466 42.4826533,9.61545782 42.3872961,9.41508549 L42.3872961,9.41508549 Z M130.507219,9.86058431 C130.220773,9.74934888 130.074271,9.42622761 130.186864,9.14210372 C130.294024,8.85240879 130.619812,8.70756132 130.911691,8.81898245 C131.198324,8.93021787 131.344826,9.2479538 131.232233,9.53764874 C131.147929,9.760491 130.934359,9.89401065 130.709923,9.89401065 C130.642293,9.89401065 130.575037,9.88286854 130.507219,9.86058431 L130.507219,9.86058431 Z M132.59777,10.6741443 C132.311324,10.5569664 132.170817,10.2340308 132.288843,9.94433586 C132.401623,9.66021198 132.732843,9.52093557 133.01929,9.63774205 C133.305923,9.74934888 133.44643,10.0780412 133.328404,10.3621651 C133.244662,10.5792506 133.030905,10.7131417 132.805907,10.7131417 C132.738276,10.7131417 132.670833,10.6962428 132.59777,10.6741443 L132.59777,10.6741443 Z M40.3808621,10.4345888 C40.2345479,10.1671781 40.3413329,9.82734367 40.6169131,9.6824962 C40.8921187,9.54321979 41.2293345,9.64888416 41.3754614,9.91629488 C41.5217756,10.1894623 41.4149905,10.5292968 41.1394103,10.6741443 C41.0551063,10.7131417 40.9651821,10.7354259 40.8808782,10.7354259 C40.678736,10.7354259 40.4818395,10.6238191 40.3808621,10.4345888 L40.3808621,10.4345888 Z M134.677455,11.5211306 C134.391008,11.3983816 134.255935,11.0696893 134.379581,10.7911364 C134.497419,10.5070126 134.829202,10.3733072 135.116022,10.4902994 C135.402469,10.6126769 135.531735,10.941555 135.413522,11.2201078 C135.32416,11.4371933 135.116022,11.5653276 134.896458,11.5653276 C134.823581,11.5653276 134.744898,11.5488001 134.677455,11.5211306 L134.677455,11.5211306 Z M38.4079623,11.5153738 C38.2562152,11.2479631 38.3517596,10.9081286 38.6215323,10.7577101 C38.8913049,10.6072916 39.2343283,10.7019995 39.3915084,10.9694103 C39.5432555,11.236821 39.4478983,11.5764697 39.1781257,11.732645 C39.0880141,11.7772135 38.992657,11.7996834 38.9025455,11.7996834 C38.7058362,11.7996834 38.5147473,11.6992187 38.4079623,11.5153738 L38.4079623,11.5153738 Z M136.734658,12.4009861 C136.453645,12.2786085 136.324004,11.9497305 136.453645,11.6657923 C136.577104,11.3872395 136.908699,11.2591052 137.195333,11.3872395 C137.476346,11.5098027 137.605799,11.8384951 137.476346,12.1224333 C137.386609,12.328748 137.178847,12.4513113 136.965089,12.4513113 C136.886031,12.4513113 136.812967,12.4344124 136.734658,12.4009861 L136.734658,12.4009861 Z M36.474779,12.6572547 C36.311604,12.3956007 36.395908,12.0501952 36.6656806,11.8942056 C36.9300203,11.732645 37.2726691,11.8162108 37.4356567,12.0836216 C37.5988317,12.3454612 37.5087201,12.6852957 37.2447551,12.8468563 C37.1546435,12.9025669 37.0534788,12.9246654 36.9525014,12.9246654 C36.7670327,12.9246654 36.5813767,12.8299574 36.474779,12.6572547 L36.474779,12.6572547 Z M138.78006,13.3259672 C138.499046,13.1924475 138.375588,12.8635695 138.510662,12.5850166 C138.639553,12.3064638 138.971149,12.1839006 139.252162,12.3176059 C139.533175,12.4457402 139.657195,12.7746183 139.527742,13.0531711 C139.432385,13.2589288 139.229681,13.375921 139.016298,13.375921 C138.937614,13.375921 138.859305,13.3593935 138.78006,13.3259672 L138.78006,13.3259672 Z M34.57513,13.8607886 C34.4063347,13.5989489 34.4795855,13.2535434 34.7381176,13.086226 C35.0020826,12.91928 35.3507263,12.9915181 35.5191469,13.2535434 C35.6879421,13.509812 35.6146913,13.8552175 35.3507263,14.0223492 C35.2551818,14.0834451 35.1483968,14.1114861 35.0470447,14.1114861 C34.861576,14.1114861 34.681915,14.0223492 34.57513,13.8607886 L34.57513,13.8607886 Z M140.803916,14.2841889 C140.528336,14.1449125 140.410498,13.8160344 140.551005,13.5374816 C140.685891,13.2646855 141.022732,13.1476934 141.298312,13.2813987 C141.579325,13.4206751 141.691543,13.7495532 141.556844,14.028106 C141.4613,14.2284783 141.25897,14.3397137 141.056266,14.3397137 C140.972524,14.3397137 140.887658,14.3231863 140.803916,14.2841889 L140.803916,14.2841889 Z M142.809976,15.2815937 C142.534583,15.1423173 142.427798,14.8021114 142.568304,14.5293154 C142.708811,14.2563336 143.052022,14.1504835 143.326853,14.2897599 C143.602433,14.4290363 143.709405,14.7686851 143.568899,15.0418526 C143.467359,15.2312685 143.270837,15.3426896 143.068321,15.3426896 C142.984391,15.3426896 142.89428,15.3204054 142.809976,15.2815937 L142.809976,15.2815937 Z M32.7148228,15.1142763 C32.534787,14.8637645 32.6022301,14.5181733 32.8553293,14.3397137 C33.1138615,14.1673824 33.4623178,14.2284783 33.636546,14.4789902 C33.8163944,14.7352588 33.7545715,15.0806643 33.4960394,15.2591238 C33.4003076,15.3257907 33.2880896,15.3538317 33.175497,15.3538317 C33.0012688,15.3538317 32.8270407,15.2702659 32.7148228,15.1142763 L32.7148228,15.1142763 Z M144.799549,16.3176245 C144.524156,16.1725913 144.422991,15.8329426 144.568931,15.5655319 C144.715432,15.2923644 145.058081,15.1922711 145.333661,15.3369329 C145.603621,15.481966 145.704411,15.8218005 145.558472,16.0892112 C145.456933,16.2784414 145.266031,16.3844772 145.063701,16.3844772 C144.973965,16.3844772 144.88404,16.362193 144.799549,16.3176245 L144.799549,16.3176245 Z M30.8936701,16.4288599 C30.714009,16.1837334 30.764404,15.8329426 31.0116956,15.6546688 C31.2647948,15.4708239 31.6132511,15.5209634 31.7987198,15.7659042 C31.9840012,16.0167875 31.9334188,16.362193 31.6805069,16.5458521 C31.5849625,16.6240326 31.4669369,16.6574589 31.3489114,16.6574589 C31.1746832,16.6574589 31.0062627,16.5792785 30.8936701,16.4288599 L30.8936701,16.4288599 Z M146.761021,17.3926527 C146.491248,17.2422342 146.395517,16.9025854 146.547451,16.6351747 C146.699011,16.367764 147.047654,16.273056 147.317614,16.4234746 C147.5872,16.5792785 147.677124,16.9137275 147.525564,17.1867093 C147.424025,17.3649831 147.233123,17.4652621 147.036601,17.4652621 C146.941057,17.4652621 146.8457,17.4429779 146.761021,17.3926527 L146.761021,17.3926527 Z M29.1232871,17.8050966 C28.9265779,17.5653555 28.97154,17.2145646 29.2133986,17.0193919 C29.4548826,16.8301617 29.8091466,16.8689734 30.0002355,17.1140999 C30.1969447,17.353841 30.1519826,17.7046319 29.910124,17.8942335 C29.8091466,17.9777993 29.6853134,18.0167967 29.561855,18.0167967 C29.3988673,18.0167967 29.2358797,17.944373 29.1232871,17.8050966 L29.1232871,17.8050966 Z M148.700387,18.5126208 C148.430239,18.3564455 148.346123,18.0112257 148.503115,17.749386 C148.666103,17.4875464 149.009126,17.3984095 149.273279,17.5542133 C149.543426,17.7103886 149.627168,18.0557941 149.470175,18.3176338 C149.363203,18.4957219 149.177547,18.5906156 148.986833,18.5906156 C148.891101,18.5906156 148.790123,18.5683313 148.700387,18.5126208 L148.700387,18.5126208 Z M150.610714,19.6767859 C150.346749,19.5098399 150.268253,19.1644344 150.436673,18.9081658 C150.599661,18.6461404 150.948492,18.5683313 151.21227,18.729892 C151.470802,18.8970237 151.549485,19.2366724 151.386498,19.4986978 C151.279713,19.6656438 151.094431,19.7603517 150.908775,19.7603517 C150.807985,19.7603517 150.700826,19.7326821 150.610714,19.6767859 L150.610714,19.6767859 Z M152.494064,20.8803198 C152.235345,20.707617 152.162281,20.3620258 152.336322,20.1059429 C152.51055,19.8496743 152.858819,19.7826359 153.117352,19.9499533 C153.376071,20.1226561 153.443327,20.4678759 153.274906,20.7241445 C153.162314,20.8857051 152.988273,20.9750277 152.802804,20.9750277 C152.695832,20.9750277 152.589234,20.9416014 152.494064,20.8803198 L152.494064,20.8803198 Z M154.342944,22.1338075 C154.089844,21.9555337 154.027834,21.6101282 154.20787,21.3538596 C154.387906,21.103162 154.736549,21.0418804 154.988899,21.2201542 C155.241998,21.398428 155.304196,21.7436478 155.129406,21.9945311 C155.017563,22.150335 154.84296,22.2340865 154.668919,22.2340865 C154.556326,22.2340865 154.443921,22.2006602 154.342944,22.1338075 L154.342944,22.1338075 Z M156.158101,23.4318637 C155.910997,23.2480188 155.860602,22.8970422 156.045696,22.6519157 C156.230978,22.4066036 156.579621,22.3510787 156.832533,22.5404946 C157.080012,22.7185827 157.130782,23.069745 156.944938,23.3204425 C156.837966,23.46529 156.669545,23.5430991 156.495505,23.5430991 C156.377479,23.5430991 156.259641,23.5042874 156.158101,23.4318637 L156.158101,23.4318637 Z M157.939538,24.7800593 C157.692808,24.5906434 157.653092,24.2394811 157.84418,24.0001114 C158.035082,23.760556 158.389721,23.7158018 158.636638,23.9109745 C158.878122,24.1002047 158.917651,24.451367 158.726562,24.6907367 C158.614157,24.8300131 158.450982,24.9024369 158.282561,24.9024369 C158.164535,24.9024369 158.041077,24.8636252 157.939538,24.7800593 L157.939538,24.7800593 Z M159.670766,26.1839656 C159.429095,25.9889786 159.401181,25.638002 159.603136,25.3984466 C159.80584,25.1644622 160.159729,25.1366069 160.39578,25.337165 C160.631644,25.532152 160.659932,25.8831285 160.463223,26.1171129 C160.350631,26.2508182 160.193825,26.3174852 160.03065,26.3174852 C159.901197,26.3174852 159.772305,26.2731025 159.670766,26.1839656 L159.670766,26.1839656 Z M161.351412,27.6435824 C161.120607,27.4374533 161.103933,27.0864767 161.311696,26.8580634 C161.519833,26.6294644 161.879904,26.6129369 162.109773,26.819066 C162.334958,27.0250094 162.351819,27.3761717 162.143682,27.6043993 C162.03671,27.7271482 161.879904,27.7884298 161.727782,27.7884298 C161.592709,27.7884298 161.458385,27.7436757 161.351412,27.6435824 L161.351412,27.6435824 Z M162.975294,29.1644808 C162.756478,28.9472096 162.751045,28.596233 162.969861,28.3735765 C163.189051,28.1561196 163.543315,28.1503628 163.762318,28.3678197 C163.987503,28.5793342 163.987503,28.9360675 163.773558,29.1533387 C163.66134,29.2645741 163.514839,29.3204704 163.368712,29.3204704 C163.228205,29.3204704 163.087699,29.2703309 162.975294,29.1644808 L162.975294,29.1644808 Z M164.537914,30.7412755 C164.324344,30.5180618 164.335585,30.167271 164.565828,29.9555708 C164.790826,29.7438707 165.14509,29.7550128 165.358473,29.9778551 C165.572043,30.2060827 165.561177,30.5572449 165.330371,30.7689451 C165.223399,30.8692241 165.082892,30.9193636 164.948381,30.9193636 C164.796446,30.9193636 164.650319,30.858082 164.537914,30.7412755 L164.537914,30.7412755 Z M166.027471,32.3901225 C165.824955,32.1559524 165.853056,31.7995905 166.08892,31.6046035 C166.324971,31.4040455 166.679609,31.4319008 166.881377,31.6658852 C167.084081,31.8996838 167.05598,32.2508461 166.820116,32.4514041 C166.712956,32.540541 166.58369,32.5849238 166.454424,32.5849238 C166.297057,32.5849238 166.134069,32.5182568 166.027471,32.3901225 L166.027471,32.3901225 Z M167.42673,34.1004369 C167.235453,33.8553104 167.280603,33.5099049 167.528269,33.320489 C167.774999,33.1308873 168.129263,33.1812125 168.314544,33.426339 C168.506195,33.6714655 168.461045,34.016871 168.213566,34.2062869 C168.112589,34.2842817 167.988756,34.3177081 167.870543,34.3177081 C167.702123,34.3177081 167.533702,34.2450986 167.42673,34.1004369 L167.42673,34.1004369 Z M168.719578,35.888746 C168.550782,35.6324774 168.618038,35.2870719 168.871137,35.1141834 C169.129482,34.9414807 169.478126,35.0085191 169.652354,35.264602 C169.826582,35.5208706 169.759139,35.8664618 169.500794,36.0391645 C169.405062,36.1002604 169.29809,36.1338725 169.186247,36.1338725 C169.006024,36.1338725 168.831795,36.0445499 168.719578,35.888746 L168.719578,35.888746 Z M169.899646,37.7492932 C169.742091,37.4818825 169.832015,37.1422337 170.102162,36.9862441 C170.371748,36.8302546 170.714584,36.9247768 170.872326,37.1868022 C171.023698,37.4542129 170.933774,37.7940473 170.664189,37.9500369 C170.574077,38.0001764 170.478907,38.027846 170.383176,38.027846 C170.192274,38.027846 170.000623,37.9277527 169.899646,37.7492932 L169.899646,37.7492932 Z M170.928154,39.6826355 C170.793267,39.4040827 170.911293,39.0753903 171.192306,38.941685 C171.473319,38.8079796 171.810722,38.9249718 171.945234,39.2035246 C172.08012,39.4820774 171.956662,39.8107698 171.675649,39.9442894 C171.60296,39.9834725 171.518094,40 171.434352,40 C171.226215,40 171.023698,39.8831935 170.928154,39.6826355 L170.928154,39.6826355 Z" id="Fill-196" fill="#B3C9FF" mask="url(#mask-6)"></path>
                <path d="M29.5,19 C29.3698333,19 29.24,18.9444887 29.1498333,18.8540942 C29.055,18.758333 29,18.6275209 29,18.4968764 C29,18.3610331 29.055,18.2352522 29.1498333,18.139491 C29.335,17.953503 29.67,17.953503 29.855,18.139491 C29.95,18.2352522 30,18.3610331 30,18.4968764 C30,18.6275209 29.95,18.758333 29.855,18.8540942 C29.76,18.9444887 29.635,19 29.5,19" id="Fill-197" fill="#B3C9FF" mask="url(#mask-6)"></path>
                <path d="M121.226153,33 L115.773847,33 C108.719107,33 103,38.8228583 103,46.0055801 C103,53.188487 108.719107,59.0113453 115.773847,59.0113453 L116.059547,59.0113453 L118.5,65 L120.940453,59.0113453 L121.226153,59.0113453 C128.280893,59.0113453 134,53.188487 134,46.0057652 C134,38.8228583 128.280893,33 121.226153,33" id="Fill-198" fill="#427FE0" mask="url(#mask-6)"></path>
                <path d="M39.7018028,19 L17.2981972,19 C7.74455304,19 0,26.7387125 0,36.2847352 C0,45.8309444 7.74455304,53.569657 17.2981972,53.569657 L25.4148368,53.569657 L28.5,61 L31.5851632,53.569657 L39.7018028,53.569657 C49.2552603,53.569657 57,45.8309444 57,36.2847352 C57,26.7387125 49.2552603,19 39.7018028,19" id="Fill-199" fill="#427FE0" mask="url(#mask-6)"></path>
                <path d="M78.1991628,50 L66.8008372,50 C61.9402112,50 58,53.9588631 58,58.8424979 C58,63.7261328 61.9402112,67.6849959 66.8008372,67.6849959 L70.3052524,67.6849959 L72.5,73 L74.6947476,67.6849959 L78.1991628,67.6849959 C83.0597888,67.6849959 87,63.7261328 87,58.8424979 C87,53.9588631 83.0597888,50 78.1991628,50" id="Fill-200" fill="#427FE0" mask="url(#mask-6)"></path>
                <polygon id="Fill-201" fill="#FFFFFF" mask="url(#mask-6)" points="113 50 124 50 124 49 113 49"></polygon>
                <polygon id="Fill-202" fill="#FFFFFF" mask="url(#mask-6)" points="113 47 124 47 124 46 113 46"></polygon>
                <polygon id="Fill-203" fill="#FFFFFF" mask="url(#mask-6)" points="113 44 124 44 124 43 113 43"></polygon>
                <polygon id="Fill-204" fill="#FFFFFF" mask="url(#mask-6)" points="63 61 81 61 81 60 63 60"></polygon>
                <polygon id="Fill-205" fill="#FFFFFF" mask="url(#mask-6)" points="63 58 81 58 81 57 63 57"></polygon>
                <polygon id="Fill-206" fill="#FFFFFF" mask="url(#mask-6)" points="12 42 46 42 46 41 12 41"></polygon>
                <polygon id="Fill-207" fill="#FFFFFF" mask="url(#mask-6)" points="12 39 46 39 46 38 12 38"></polygon>
                <polygon id="Fill-208" fill="#FFFFFF" mask="url(#mask-6)" points="12 36 46 36 46 35 12 35"></polygon>
                <polygon id="Fill-209" fill="#FFFFFF" mask="url(#mask-6)" points="12 33 46 33 46 32 12 32"></polygon>
                <polygon id="Fill-210" fill="#FFFFFF" mask="url(#mask-6)" points="12 30 46 30 46 29 12 29"></polygon>
            </g>
        </g>
    </g>
</svg>