<svg height="96" viewBox="0 0 165 96" width="165" xmlns="http://www.w3.org/2000/svg" xmlns:xlink="http://www.w3.org/1999/xlink"><defs><path id="a" d="m0 0h129v60h-129z"/><filter id="b" height="205%" width="148.8%" x="-24.4%" y="-37.5%"><feOffset dx="0" dy="9" in="SourceAlpha" result="shadowOffsetOuter1"/><feGaussianBlur in="shadowOffsetOuter1" result="shadowBlurOuter1" stdDeviation="9"/><feColorMatrix in="shadowBlurOuter1" type="matrix" values="0 0 0 0 0   0 0 0 0 0   0 0 0 0 0  0 0 0 0.25 0"/></filter></defs><g fill="none" fill-rule="evenodd"><g transform="translate(18 9)"><use fill="#000" filter="url(#b)" xlink:href="#a"/><use fill="#fff" fill-rule="evenodd" xlink:href="#a"/></g><g fill-rule="nonzero" transform="translate(25 24)"><path d="m12.4355935 4.42648739v7.36419331c0 1.0526975.4631651 1.3574874 1.6456591 1.3574874.8124795 0 1.2006066-.0539244 1.4515955-.0890925l.0388127-1.3762437c-.5226779 0-.9289176-.035168-1.2394193-.1055042v-7.14849577h-1.896648zm7.4054659 1.2519832c-.1552509-1.01987395-.8512922-1.395-1.8397227-1.395-.5252654 0-.910805.1242605-1.0660559.15942857l-.0388127 1.35983193c.4838652 0 .815067.03516807 1.1048686.1055042v7.09457141h1.8785354v-4.91415124c0-1.19571428 1.1048686-2.28592437 2.6133894-2.28592437 1.549921 0 2.189037.82058824 2.189037 2.28592437v3.64341174c0 1.1628908.4631651 1.4137563 1.7439847 1.4137563.6779287 0 1.0246556-.035168 1.3558574-.0890924l.0388127-1.3762437c-.5252653 0-.9289176-.0351681-1.2394193-.1055042v-3.73484875c0-2.23434453-1.1229812-3.59183193-3.542307-3.59183193-1.4748831 0-2.5383515.58847899-3.1981676 1.43016807m10.8597973 8.05817651c0-.5181429.271689-.8768572.6779288-1.1277227h.2691014 3.2162803c1.0841684 0 1.5292209.3938823 1.5292209 1.0714538 0 .8229327-1.006543 1.3598398-2.8850784 1.3598398-2.0725989.0023366-2.807453-.5181508-2.807453-1.3035709m.8124795-6.68427735c0-.98236135.639116-1.58959664 1.9173481-1.58959664 1.2575319 0 1.917348.60723529 1.917348 1.58959664 0 .98236134-.6598161 1.5192605-1.917348 1.5192605-1.2756446 0-1.9173481-.53689916-1.9173481-1.5192605m3.7208455-2.53678992c-.5226779-.17818487-1.1229812-.26727731-1.8009099-.26727731-2.4012133 0-3.7570707 1.19805882-3.7570707 2.82282353 0 .82293277.3700145 1.48409244 1.006543 1.94831092-.8331796.5017311-1.2989321 1.05504203-1.2989321 1.84046223 0 .5181428.2328762.9659495.639116 1.2683949-.6003033.3751261-1.1229812.9823614-1.1229812 1.9318992 0 1.430168 1.3765576 2.3398487 4.4945123 2.3398487 3.2913181 0 4.8231266-1.2332269 4.8231266-2.947084 0-1.2707395-.8331796-2.2155883-2.7686403-2.2155883h-3.2732055c-.7555542 0-1.1436814-.2672773-1.1436814-.8557563 0-.3212016.1552509-.60957979.618416-.89326886.5045652.17818487 1.1048685.26727731 1.7827973.26727731 2.4400259 0 3.7389581-1.09021009 3.7389581-2.7524874 0-.73149579-.271689-1.35748739-.7762543-1.84046218.2898016-.53689916.815067-.85810084 1.7620972-.89326891l-.1940635-1.5192605c-1.5111084.03282353-2.4038008.56972269-2.7298276 1.76543697m-23.1479026-2.8767479c0 .67991597.5821907 1.19805883 1.2989322 1.19805883.7555541 0 1.2989321-.51814286 1.2989321-1.19805883 0-.67757143-.543378-1.17930252-1.2989321-1.17930252-.7167415 0-1.2989322.49938656-1.2989322 1.17930252m-8.14290736 4.26940336h-1.95616079v-5.59172268h-1.97427338v12.68863869h1.97427338v-5.34320172h1.95616079l3.38964368 4.28815962c.83317959 1.0714538 1.39467019 1.1980589 2.42191335 1.1980589.42693983 0 .79436683-.0351681 1.12298123-.0890925l.0595128-1.4653361c-1.41537031 0-1.58873377-.1078487-2.09071154-.715084l-3.41034379-4.1638992 5.36650453-6.29039495-2.13211171-.25086555z" fill="#5c6773" transform="translate(74.002908)"/><path d="m14.9920576 8.72168067c0-1.91548739 1.0712309-2.97990756 2.8436782-2.97990756s2.8436782 1.06442017 2.8436782 2.97990756c0 1.91548743-1.0712309 2.94239493-2.8436782 2.94239493s-2.8436782-1.0292521-2.8436782-2.94239493m-1.9458107 0c0 2.81813443 1.987211 4.43352103 4.7920764 4.43352103 2.8048655 0 4.7920764-1.613042 4.7920764-4.43352103 0-2.85564706-1.9872109-4.46869168-4.7920764-4.46869168-2.8048654-.00234193-4.7920764 1.57787656-4.7920764 4.46869168m13.509412-3.05258823c-.1552509-1.0104958-.8564672-1.38327731-1.8500727-1.38327731-.5252654 0-.9133926.1242605-1.0712309.15942857l-.0388127 1.34810924c.4864526 0 .8176545.03516807 1.1100436.1055042v7.04064706h1.8888854v-4.87663865c0-1.18868068 1.1100436-2.26951261 2.6289145-2.26951261 1.5602711 0 2.2019746.81589916 2.2019746 2.26951261v3.61762185c0 1.1511681.4657526 1.3996891 1.7543347 1.3996891.6805162 0 1.0324182-.0351681 1.3610325-.0890925l.0388127-1.364521c-.5252654 0-.9340926-.035168-1.2471819-.1078487v-3.7067143c0-2.21558824-1.1307437-3.56369748-3.5630071-3.56369748-1.4800582.00234454-2.5512891.58847899-3.2136927 1.42078992m21.0442535.0187563c1.2652944 0 2.1605744.62130252 2.2770125 2.23434454h-4.7325636c.2328763-1.61304202 1.1876691-2.23434454 2.4555511-2.23434454m-4.442762 2.90957143c0 2.85564703 1.6560091 4.55778153 4.7299761 4.55778153 1.7931473 0 3.1955801-.5861345 3.7208455-.9940841l-.4864527-1.4372016c-.3700146.3212016-1.4981708.9589159-3.0170416.9589159-1.8500727 0-2.8436782-.8510672-2.9989291-2.55320165h6.6990744v-.76431933c0-2.2882689-1.3817326-4.11466386-4.2279983-4.11466386-2.7065399 0-4.4194743 1.80998319-4.4194743 4.34677311m13.3903863-2.92832773c-.1578384-1.0104958-.8564672-1.38327731-1.8500727-1.38327731-.5252654 0-.9159801.1242605-1.0712309.15942857l-.0388127 1.34810924c.4864527 0 .8176545.03516807 1.1100436.1055042v7.04064706h1.8888854v-4.87663865c0-1.18868068 1.1100436-2.26951261 2.6289145-2.26951261 1.5576836 0 2.2019746.81589916 2.2019746 2.26951261v3.61762185c0 1.1511681.4657526 1.3996891 1.7543347 1.3996891.6805163 0 1.0324182-.0351681 1.3610325-.0890925l.0388127-1.364521c-.5252654 0-.9340926-.035168-1.2471819-.1078487v-3.7067143c0-2.21558824-1.1281562-3.56369748-3.5630071-3.56369748-1.4826457.00234454-2.5538766.58847899-3.2136927 1.42078992m-19.3778943-3.72312605v2.48286554h-1.7517472v1.45361345h1.7517472v4.78989072c0 1.9506555.8383546 2.4828656 2.5331764 2.4828656.9936055 0 1.6767093-.1781849 2.0441363-.2836891l-.1371382-1.4887815c-.2923892.1055042-.7581417.2649328-1.4412455.2649328-.6805162 0-1.091931-.2297647-1.091931-1.0972437v-4.66328575h2.8255656v-1.45361344h-2.8255656v-2.48755462zm29.7253638 0v2.48286554h-1.7517471v1.45361345h1.7517471v4.78989072c0 1.9506555.8383546 2.4828656 2.5331765 2.4828656.9936055 0 1.6741217-.1781849 2.0441363-.2836891l-.1371383-1.4887815c-.2923891.1055042-.7581417.2649328-1.4412454.2649328-.6805163 0-1.0893435-.2297647-1.0893435-1.0972437v-4.66328575h2.822978v-1.45361344h-2.822978v-2.48755462zm-66.8950062 4.78754622c0 4.09590759 2.68842732 6.41934449 6.81551257 6.41934449 2.53317646 0 4.07015993-.6213025 4.81018903-1.1183445l-.4295274-1.6317983c-.7581417.4431176-2.10364908 1.0808319-4.10897264 1.0808319-3.09725457 0-5.04565281-1.7185462-5.04565281-4.82271427 0-3.35034454 1.79314739-4.91180672 4.26422351-4.91180672 2.27960006 0 3.42845639.9049916 3.52419442 2.66105042l1.96651082-.23210924c0-2.33984874-1.82937256-4.00681513-5.47259264-4.00681513-3.69755788.00234454-6.32388486 2.25544538-6.32388486 6.56236135" fill="#17a1e5"/><path d="m16.8505544 31c.7219498 0 1.3388702-.1163434 1.8507612-.3490301.511891-.2326868.9473043-.5572236 1.3062398-.9736104l-.4649846-.5082369c-.0530246-.0530689-.1121674-.0796034-.1774284-.0796034s-.1325614.0306167-.2019012.0918501c-.1549949.1387956-.3089701.2582006-.4619256.3582151-.1529554.1000145-.3181474.1826795-.4955757.2479951-.1774284.0653156-.3701523.1132817-.5781717.1438984-.2080195.0306167-.4425512.045925-.7035952.045925-.4282754 0-.827999-.0775622-1.199171-.2326867-.3711719-.1551246-.6923784-.3806674-.9636195-.6766287-.271241-.2959612-.4853787-.6582586-.642413-1.0868921s-.2355514-.9164592-.2355514-1.4634772c0-.5306891.0785171-1.0103504.2355514-1.438984.1570343-.4286335.3762705-.7919514.6577086-1.0899537.2814381-.2980024.6169204-.5276275 1.006447-.6888753.3895266-.1612479.8188217-.2418718 1.2878851-.2418718.2610441 0 .491497.0193906.6913588.0581717s.3752508.0867473.5261668.1438984c.1509161.0571511.2814381.1183845.3915661.1837001.1101279.0653156.20598.1265489.2875563.1837001.0815762.0571511.1519357.1051172.2110785.1438983.0591428.0387812.1152265.0581717.1682511.0581717.0693398 0 .1223643-.0132672.1590736-.0398016.0367094-.0265345.0693399-.0602128.0978916-.1010351l.3854478-.5449769c-.3630144-.3429068-.7780336-.6143747-1.2450576-.8144036-.4670241-.200029-1.0227623-.3000435-1.6672147-.3000435-.6526101 0-1.2491364.1091995-1.7895791.3275985-.5404427.2183989-1.0044077.5255863-1.3918949.921562s-.6882996.8695137-.9024373 1.4206139c-.2141377.5511003-.3212065 1.1573105-.3212065 1.8186308 0 .6613202.0999309 1.2675305.2997927 1.8186307.1998619.5511002.4812999 1.0236177.8443143 1.4175523.3630143.3939346.8014867.7001014 1.3154171.9185003.5139304.218399 1.0870036.3275985 1.7192196.3275985zm7.0604248-.0122467c.2243347 0 .4507088-.0193905.6791223-.0581717.2284135-.0387811.4496891-.0969528.6638268-.174515.2141377-.0775623.4150192-.1765562.6026446-.2969818s.3487385-.2622829.4833393-.4255719l-.305911-.3980168c-.0489457-.0693978-.1182855-.1040967-.2080194-.1040967-.0693398 0-.1519358.0316372-.2477879.0949117s-.2151574.1316517-.3579158.2051318c-.1427584.07348-.3130489.1418572-.5108713.2051317s-.4333738.0949117-.7066543.0949117c-.2936745 0-.5587973-.0479661-.7953685-.1438984-.2365711-.0959322-.4405118-.2408512-.6118219-.4347568-.1713101-.1939057-.305911-.4357774-.4038025-.7256153s-.150916-.6307036-.1590737-1.0225971h4.1236797c.1019703 0 .1713102-.0285756.2080195-.0857267s.0550639-.1714534.0550639-.3429068c0-.4408802-.0642413-.8337942-.1927239-1.1787422-.1284826-.3449479-.3069306-.6347858-.5353441-.8695137-.2284135-.2347278-.4996546-.4143457-.8137232-.5388535-.3140685-.1245078-.6566888-.1867617-1.0278608-.1867617-.4486694 0-.8524718.0785828-1.2114074.2357484-.3589355.1571656-.662807.3735235-.9116146.6490736s-.4394921.6011074-.5720535.976672-.1988421.7797048-.1988421 1.2124205c0 .5347714.0734186 1.0083093.2202559 1.420614.1468372.4123046.3517976.758273.614881 1.0379054.2630834.2796323.5751126.491908.9360875.6368269.3609749.144919.7556001.2173784 1.1838754.2173784zm1.5295548-3.8638249h-3.3711387c.0734186-.5388535.261044-.9603432.5628761-1.2644688.3018322-.3041257.7158317-.4561886 1.2419985-.4561886.2488076 0 .4700832.0418428.6638268.1255284s.3579158.2020701.4925166.3551535.2365711.3347424.305911.5449769c.0693398.2102345.1040097.4419007.1040097.6949986zm3.4567938 3.7780982v-3.9495516c.1713101-.420469.3844281-.7409236.6393539-.9613637s.5720535-.3306601.9513831-.3306601c.2120982 0 .3772901.0193905.4955757.0581716.1182856.0387812.2059801.0581717.2630834.0581717.0978915 0 .1611131-.0510278.1896648-.1530834l.1407191-.8144036c-.1182856-.0693978-.2467682-.1234873-.3854478-.1622684-.1386797-.0387812-.2936746-.0581717-.4649847-.0581717-.4201177 0-.7861912.1214461-1.0982203.3643385-.3120292.2428923-.5740929.5806963-.7861912 1.013412l-.0734186-.967487c-.0163153-.1102201-.0469064-.1877823-.0917733-.2326868-.0448669-.0449044-.1264432-.0673567-.2447288-.0673567h-.6240583v6.2029392zm5.7205349.0979734c.281438 0 .5547185-.0500072.8198413-.1500217.2651229-.1000145.491497-.2377896.6791223-.4133252l-.3181474-.5204835c-.0448669-.0693978-.095852-.1040968-.1529554-.1040968-.0326305 0-.0703595.0153084-.1131871.0459251-.0428275.0306166-.0948324.064295-.1560146.101035s-.1335811.0704184-.2171967.101035c-.0836157.0306167-.1825269.0459251-.2967337.0459251-.1998618 0-.3630143-.0632745-.4894575-.1898234-.1264432-.126549-.1896648-.3204546-.1896648-.5817169v-3.7229882h1.7742835v-.7899104h-1.7742835v-2.1370442h-.5506397c-.0693398 0-.1264432.0193906-.1713102.0581717-.0448669.0387812-.0713792.0887884-.0795368.1500218l-.250847 1.9166041-1.0156244.12859v.4347569c0 .0816444.0224335.1418572.0673005.1806384.0448669.0387811.0999309.0581717.1651919.0581717h.7464227v3.7964682c0 .5143602.1315417.9082948.3946251 1.1818038.2630835.273509.6393539.4102635 1.1288115.4102635zm3.3589023-7.4765931c.1060491 0 .20598-.0204111.2997927-.0612333.0938127-.0408223.1764086-.0969528.2477879-.1683917.0713792-.071439.1284826-.1530834.1713101-.2449335.0428275-.09185.0642413-.1908439.0642413-.2969818 0-.1061378-.0214138-.2071728-.0642413-.3031051s-.0999309-.1796178-.1713101-.2510568c-.0713793-.0714389-.1539752-.1275695-.2477879-.1683917s-.1937436-.0612334-.2997927-.0612334c-.1060492 0-.2049604.0204112-.2967337.0612334s-.1733495.0969528-.2447287.1683917c-.0713793.071439-.1274629.1551245-.1682511.2510568-.0407881.0959323-.0611822.1969673-.0611822.3031051 0 .1061379.0203941.2051318.0611822.2969818.0407882.0918501.0968718.1734945.1682511.2449335.0713792.0714389.1529554.1275694.2447287.1683917.0917733.0408222.1906845.0612333.2967337.0612333zm.5384032 7.3786197v-6.2029392h-1.089043v6.2029392zm3.2610108 0v-5.2905621h2.6185978v5.2905621h1.089043v-6.0804725h-3.7443501v-.3122901c0-.6041691.1641722-1.0562754.4925166-1.3563189.3283445-.3000434.8534916-.4500652 1.5754415-.4500652.0611822 0 .1162461.0010206.1651919.0030617.0489457.0020411.0958521.0030617.140719.0030617.0774975 0 .1366403-.0071439.1774284-.0214317s.065261-.0479661.0734186-.101035l.0367093-.5694703c-.1182855-.0408222-.2579849-.0714389-.419098-.09185s-.3191671-.0306167-.474162-.0306167c-.4690634 0-.8800038.0632745-1.2328211.1898234-.3528173.126549-.6475115.3041257-.8840827.5327302-.2365711.2286046-.4139995.501093-.532285.8174654-.1182856.3163723-.1774284.6643819-.1774284 1.0440287v.3429068h-.9789151v.4470036c0 .0816444.027532.1438984.082596.1867617.055064.0428634.1254235.0745006.2110786.0949117l.6852405.0796034v5.2721921zm8.1494679.0857267c.2243347 0 .4507088-.0193905.6791223-.0581717.2284135-.0387811.4496891-.0969528.6638268-.174515.2141376-.0775623.4150192-.1765562.6026446-.2969818.1876253-.1204256.3487385-.2622829.4833393-.4255719l-.305911-.3980168c-.0489457-.0693978-.1182856-.1040967-.2080194-.1040967-.0693399 0-.1519358.0316372-.2477879.0949117s-.2151574.1316517-.3579158.2051318c-.1427585.07348-.3130489.1418572-.5108713.2051317s-.4333739.0949117-.7066543.0949117c-.2936745 0-.5587974-.0479661-.7953685-.1438984-.2365712-.0959322-.4405118-.2408512-.6118219-.4347568-.1713102-.1939057-.305911-.4357774-.4038025-.7256153s-.1509161-.6307036-.1590737-1.0225971h4.1236797c.1019703 0 .1713101-.0285756.2080194-.0857267.0367094-.0571511.055064-.1714534.055064-.3429068 0-.4408802-.0642413-.8337942-.1927239-1.1787422-.1284826-.3449479-.3069306-.6347858-.5353442-.8695137-.2284135-.2347278-.4996545-.4143457-.8137231-.5388535s-.6566888-.1867617-1.0278608-.1867617c-.4486694 0-.8524719.0785828-1.2114074.2357484s-.6628071.3735235-.9116146.6490736c-.2488076.2755501-.4394921.6011074-.5720535.976672s-.1988421.7797048-.1988421 1.2124205c0 .5347714.0734186 1.0083093.2202558 1.420614.1468373.4123046.3517976.758273.6148811 1.0379054.2630834.2796323.5751126.491908.9360875.6368269.3609749.144919.7556.2173784 1.1838754.2173784zm1.5295548-3.8638249h-3.3711388c.0734187-.5388535.261044-.9603432.5628762-1.2644688.3018321-.3041257.7158316-.4561886 1.2419985-.4561886.2488075 0 .4700831.0418428.6638267.1255284s.3579159.2020701.4925167.3551535.2365711.3347424.3059109.5449769c.0693399.2102345.1040098.4419007.1040098.6949986zm4.2582805 3.8638249c.4405117 0 .8310581-.0969528 1.1716389-.2908584.3405809-.1939057.6434327-.4521063.9085556-.774602l.0978915.7531703c.0407881.1510423.1386796.2265634.2936745.2265634h.6485312v-9.0196737h-1.089043v3.4413148c-.2120983-.2326868-.4527482-.4133252-.7219498-.5419152-.2692017-.1285901-.5934673-.1928851-.9727969-.1928851-.4201177 0-.7953685.082665-1.1257523.2479951-.3303838.16533-.6108022.392914-.8412551.6827519s-.4068616.6317242-.529226 1.0256588-.1835466.8195064-.1835466 1.2767155c0 .5143602.055064.9695282.165192 1.3655039.1101279.3959757.2671622.7266358.4711028.9919804.2039407.2653446.4507088.4663941.7403045.6031486s.611822.2051317.9666787.2051317zm.3609749-.8817603c-.2528864 0-.4772211-.0428634-.6730041-.1285901s-.3609749-.2214606-.4955758-.4072018c-.1346008-.1857412-.2365711-.4225102-.3059109-.710307s-.1040097-.6337652-.1040097-1.0379054c0-.7633759.1549948-1.3512161.4649846-1.7635207s.7545804-.6184569 1.3337718-.6184569c.2895957 0 .5536988.0540894.7923094.1622684.2386105.1081789.4578467.2969817.6577085.5664085v3.0004346c-.2243347.2980023-.4700832.528648-.7372454.6919369-.2671622.163289-.5781717.2449335-.9330284.2449335zm8.4247877.7960336v-3.282108h1.4071904c.5261669 0 .9931909-.0683772 1.4010722-.2051317s.7494818-.3275985 1.0248017-.5725319c.2753198-.2449335.484359-.5368125.6271174-.8756371.1427585-.3388245.2141377-.712348.2141377-1.1205704 0-.4123046-.0662807-.7858281-.1988421-1.1205705-.1325614-.3347423-.3334429-.620498-.6026446-.857267-.2692016-.236769-.6087628-.4194485-1.0186835-.5480385-.4099207-.1285901-.8922403-.1928851-1.4469588-.1928851h-2.5880067v8.7747402zm1.4071904-4.2251017h-1.4071904v-3.6127681h1.4071904c.697477 0 1.2185453.1571656 1.563205.4714968.3446597.3143313.5169895.7511292.5169895 1.3103939 0 .2694268-.0448669.5164013-.1346008.7409236s-.2222953.4174074-.3976843.5786553c-.1753889.1612478-.3925857.2867762-.6515903.3765851s-.5577776.1347134-.8963191.1347134zm5.9958547 4.3230751c.2365712 0 .4517286-.0204111.6454722-.0612334.1937436-.0408222.3762704-.101035.5475806-.1806384.1713101-.0796033.3344626-.1775767.4894575-.2939201s.3140686-.2479951.4772211-.3949551l.1223644.5755935c.020394.1061378.0632216.1755356.1284826.2081934s.150916.0489867.2569652.0489867h.4833393v-3.9679216c0-.346989-.0469064-.6654025-.1407191-.9552404-.0938126-.2898379-.2324923-.5368124-.4160389-.7409236-.1835465-.2041112-.4099206-.3633179-.6791223-.4776202-.2692016-.1143023-.577152-.1714534-.9238511-.1714534-.4812999 0-.9197722.0816445-1.3154171.2449334-.3956448.163289-.7647774.4102635-1.1073976.7409236l.195783.3490302c.0326305.0571511.0764777.1051173.1315417.1438984s.1193053.0581717.1927239.0581717c.0938127 0 .1886451-.0336784.2844972-.1010351s.2100588-.1428778.3426203-.2265634c.1325614-.0836856.2895957-.1592067.4711028-.2265634.1815072-.0673567.4048222-.1010351.669945-.1010351.4038025 0 .7086937.1234873.9146738.3704619.20598.2469745.30897.611313.30897 1.0930154v.4837435c-.7015558.0163289-1.295023.080624-1.7804017.1928851-.4853787.1122612-.8779645.2561596-1.1777572.4316952s-.5169895.3765851-.6515903.6031486c-.1346009.2265634-.2019013.4623118-.2019013.7072453 0 .2816734.0458867.5255863.13766.7317386.0917732.2061523.2151573.3765851.3701522.5112985s.3375218.2357485.5475806.3031052c.2100589.0673567.4354133.101035.6760632.101035zm.3242657-.765417c-.1427585 0-.2753199-.0173494-.3976843-.0520483s-.2284135-.089809-.3181474-.1653301-.1611131-.172474-.2141377-.2908585c-.0530245-.1183844-.0795368-.2592212-.0795368-.4225101 0-.1714534.0499655-.3265779.1498964-.4653735.0999309-.1387957.2600243-.2592213.4802802-.3612769s.5057727-.1847206.8565506-.2479951c.3507779-.0632744.7770139-.1030761 1.2787078-.119405v1.2920238c-.1223643.1306312-.2477878.2469746-.3762704.3490302s-.2630835.1888028-.4038025.2602418c-.140719.0714389-.2906154.1265489-.4496891.16533-.1590737.0387812-.3344626.0581717-.5261668.0581717zm5.5675793.6674436v-3.9495516c.1713102-.420469.3844281-.7409236.6393539-.9613637s.5720535-.3306601.9513831-.3306601c.2120983 0 .3772902.0193905.4955758.0581716.1182855.0387812.20598.0581717.2630834.0581717.0978915 0 .1611131-.0510278.1896648-.1530834l.140719-.8144036c-.1182856-.0693978-.2467682-.1234873-.3854478-.1622684-.1386796-.0387812-.2936745-.0581717-.4649846-.0581717-.4201178 0-.7861912.1214461-1.0982204.3643385-.3120291.2428923-.5740929.5806963-.7861911 1.013412l-.0734187-.967487c-.0163152-.1102201-.0469063-.1877823-.0917732-.2326868-.044867-.0449044-.1264432-.0673567-.2447288-.0673567h-.6240584v6.2029392zm5.7205349.0979734c.2814381 0 .5547186-.0500072.8198414-.1500217s.4914969-.2377896.6791223-.4133252l-.3181474-.5204835c-.0448669-.0693978-.0958521-.1040968-.1529555-.1040968-.0326305 0-.0703595.0153084-.113187.0459251-.0428276.0306166-.0948324.064295-.1560146.101035s-.1335811.0704184-.2171968.101035c-.0836157.0306167-.1825269.0459251-.2967336.0459251-.1998618 0-.3630144-.0632745-.4894575-.1898234-.1264432-.126549-.1896648-.3204546-.1896648-.5817169v-3.7229882h1.7742835v-.7899104h-1.7742835v-2.1370442h-.5506398c-.0693398 0-.1264432.0193906-.1713101.0581717-.0448669.0387812-.0713792.0887884-.0795368.1500218l-.250847 1.9166041-1.0156244.12859v.4347569c0 .0816444.0224335.1418572.0673004.1806384.044867.0387811.0999309.0581717.1651919.0581717h.7464228v3.7964682c0 .5143602.1315417.9082948.3946251 1.1818038s.6393539.4102635 1.1288114.4102635zm3.7749412-.0979734v-4.5680085c.2365711-.2653446.4945561-.4755791.7739547-.6307036.2793987-.1551245.5802111-.2326868.9024373-.2326868.4405118 0 .7678365.1296106.9819742.3888319.2141377.2592212.3212065.6235597.3212065 1.0930154v3.9495516h1.089043v-3.9495516c0-.3510712-.0448669-.6715258-.1346008-.9613637s-.2212756-.537833-.3946251-.7439853c-.1733496-.2061523-.3895266-.3653591-.6485313-.4776202-.2590046-.1122612-.5577776-.1683917-.8963191-.1683917-.4364329 0-.820861.09185-1.1532843.2755501-.3324232.1837-.6332356.4245512-.9024373.7225536l-.085655-.6735669c-.0407882-.1510423-.1386797-.2265635-.2936746-.2265635h-.6485312v6.2029392zm8.2290047.0857267c.2243347 0 .4507088-.0193905.6791223-.0581717.2284136-.0387811.4496891-.0969528.6638268-.174515.2141377-.0775623.4150192-.1765562.6026446-.2969818s.3487385-.2622829.4833393-.4255719l-.3059109-.3980168c-.0489458-.0693978-.1182856-.1040967-.2080195-.1040967-.0693398 0-.1519358.0316372-.2477879.0949117s-.2151573.1316517-.3579158.2051318c-.1427584.07348-.3130489.1418572-.5108713.2051317s-.4333738.0949117-.7066543.0949117c-.2936745 0-.5587973-.0479661-.7953685-.1438984-.2365711-.0959322-.4405118-.2408512-.6118219-.4347568-.1713101-.1939057-.3059109-.4357774-.4038025-.7256153-.0978915-.2898379-.150916-.6307036-.1590736-1.0225971h4.1236796c.1019704 0 .1713102-.0285756.2080195-.0857267s.055064-.1714534.055064-.3429068c0-.4408802-.0642413-.8337942-.1927239-1.1787422-.1284826-.3449479-.3069307-.6347858-.5353442-.8695137-.2284135-.2347278-.4996546-.4143457-.8137232-.5388535-.3140685-.1245078-.6566888-.1867617-1.0278608-.1867617-.4486694 0-.8524718.0785828-1.2114074.2357484-.3589355.1571656-.662807.3735235-.9116146.6490736s-.4394921.6011074-.5720535.976672-.1988421.7797048-.1988421 1.2124205c0 .5347714.0734186 1.0083093.2202559 1.420614.1468372.4123046.3517976.758273.614881 1.0379054.2630834.2796323.5751126.491908.9360875.6368269.3609749.144919.7556001.2173784 1.1838754.2173784zm1.5295548-3.8638249h-3.3711387c.0734186-.5388535.261044-.9603432.5628761-1.2644688.3018322-.3041257.7158317-.4561886 1.2419985-.4561886.2488076 0 .4700832.0418428.6638268.1255284s.3579158.2020701.4925166.3551535.2365712.3347424.305911.5449769.1040097.4419007.1040097.6949986zm3.4567935 3.7780982v-3.9495516c.17131-.420469.384428-.7409236.639354-.9613637s.572054-.3306601.951383-.3306601c.212099 0 .37729.0193905.495576.0581716.118286.0387812.20598.0581717.263083.0581717.097892 0 .161114-.0510278.189665-.1530834l.140719-.8144036c-.118285-.0693978-.246768-.1234873-.385448-.1622684-.138679-.0387812-.293674-.0581717-.464984-.0581717-.420118 0-.786191.1214461-1.098221.3643385-.312029.2428923-.574092.5806963-.786191 1.013412l-.073418-.967487c-.016316-.1102201-.046907-.1877823-.091774-.2326868-.044867-.0449044-.126443-.0673567-.244728-.0673567h-.6240587v6.2029392z" fill="#666"/></g></g></svg>